G04 Layer_Color=8421504*
%FSLAX44Y44*%
%MOMM*%
G71*
G01*
G75*
%ADD10R,1.0000X1.3000*%
%ADD11R,0.8000X0.9000*%
%ADD12R,0.9000X0.8000*%
%ADD13R,1.1000X0.6500*%
%ADD14R,0.9000X0.6500*%
%ADD15R,0.6500X1.1000*%
%ADD16R,0.6500X0.9000*%
%ADD17R,1.3000X1.0000*%
%ADD18R,1.7000X1.1000*%
%ADD19R,3.4000X5.2000*%
%ADD20O,1.4000X0.4500*%
%ADD21R,0.5000X0.3000*%
%ADD22O,1.4000X0.3000*%
%ADD23O,0.3000X1.4000*%
%ADD24R,2.2500X0.5000*%
%ADD25R,2.5000X2.0000*%
%ADD26R,2.7000X3.0000*%
%ADD27R,0.3000X1.2000*%
%ADD33R,1.0000X2.0000*%
%ADD34R,1.1000X1.7000*%
%ADD35R,0.5000X0.3000*%
%ADD36R,0.3000X0.5000*%
%ADD37R,3.2000X3.2000*%
%ADD38R,0.8000X1.6000*%
%ADD39R,1.1498X1.3995*%
%ADD40O,0.7000X2.5000*%
%ADD41R,2.0000X1.0000*%
%ADD42O,0.6000X1.9000*%
D10*
X3017000Y1471900D02*
D03*
X3033000D02*
D03*
X3017100Y1320600D02*
D03*
X3033100D02*
D03*
X3419800Y1586900D02*
D03*
X3435800D02*
D03*
X3049500Y1190000D02*
D03*
X3065500D02*
D03*
X3419800Y1281900D02*
D03*
X3435800D02*
D03*
X2638000Y1280000D02*
D03*
X2622000D02*
D03*
X2773000Y1557500D02*
D03*
X2757000D02*
D03*
X2154500Y1790000D02*
D03*
X2170500D02*
D03*
X2063000Y1827500D02*
D03*
X2047000D02*
D03*
D11*
X3109798Y1281900D02*
D03*
X3095798D02*
D03*
X3080602Y1498100D02*
D03*
X3094602D02*
D03*
X3129798Y1639400D02*
D03*
X3115798D02*
D03*
X3097098Y1633100D02*
D03*
X3083098D02*
D03*
X3092098Y1618100D02*
D03*
X3078098D02*
D03*
X3092098Y1578100D02*
D03*
X3078098D02*
D03*
X3097098Y1593100D02*
D03*
X3083098D02*
D03*
X3097098Y1553100D02*
D03*
X3083098D02*
D03*
X3092098Y1538100D02*
D03*
X3078098D02*
D03*
X3097098Y1513100D02*
D03*
X3083098D02*
D03*
X3347298Y1476900D02*
D03*
X3333298D02*
D03*
X3138100Y1314100D02*
D03*
X3152100D02*
D03*
X3138100Y1329100D02*
D03*
X3152100D02*
D03*
X3138100Y1344100D02*
D03*
X3152100D02*
D03*
X3138100Y1359100D02*
D03*
X3152100D02*
D03*
X3408302Y1231900D02*
D03*
X3422302D02*
D03*
X3408302Y1201900D02*
D03*
X3422302D02*
D03*
X3114500Y1233100D02*
D03*
X3100500D02*
D03*
X3114500Y1218100D02*
D03*
X3100500D02*
D03*
X3422302Y1246900D02*
D03*
X3408302D02*
D03*
X3422302Y1216900D02*
D03*
X3408302D02*
D03*
X3055802Y1471900D02*
D03*
X3069802D02*
D03*
X3058302Y1319400D02*
D03*
X3072302D02*
D03*
X3114500Y1250600D02*
D03*
X3100500D02*
D03*
X47998Y1482500D02*
D03*
X61998D02*
D03*
X2577002Y1830000D02*
D03*
X2563002D02*
D03*
X2514502D02*
D03*
X2500502D02*
D03*
X2609498Y1830000D02*
D03*
X2595498D02*
D03*
X2546998D02*
D03*
X2532998D02*
D03*
X2824502Y1682500D02*
D03*
X2810502D02*
D03*
X2824502Y1637500D02*
D03*
X2810502D02*
D03*
X2832998Y1602500D02*
D03*
X2846998D02*
D03*
X2727002Y1287500D02*
D03*
X2713002D02*
D03*
X2645498Y1257500D02*
D03*
X2659498D02*
D03*
X2674502Y1232500D02*
D03*
X2660502D02*
D03*
X2742002Y1215000D02*
D03*
X2728002D02*
D03*
X2820498Y1207500D02*
D03*
X2834498D02*
D03*
X2732002Y1185500D02*
D03*
X2718002D02*
D03*
X2733002Y1052500D02*
D03*
X2747002D02*
D03*
X2732002Y1157500D02*
D03*
X2718002D02*
D03*
X2732002Y1112500D02*
D03*
X2718002D02*
D03*
X2732002Y1127500D02*
D03*
X2718002D02*
D03*
X2732002Y1142500D02*
D03*
X2718002D02*
D03*
X2477002Y1205000D02*
D03*
X2463002D02*
D03*
X2717998Y1172000D02*
D03*
X2731998D02*
D03*
X2237002Y1827500D02*
D03*
X2223002D02*
D03*
X2289502Y1840000D02*
D03*
X2275502D02*
D03*
X2237002D02*
D03*
X2223002D02*
D03*
X2162002D02*
D03*
X2148002D02*
D03*
X2162002Y1827500D02*
D03*
X2148002D02*
D03*
X2289502D02*
D03*
X2275502D02*
D03*
X2755498Y1575000D02*
D03*
X2769498D02*
D03*
X2477002Y1190000D02*
D03*
X2463002D02*
D03*
X94502Y1497500D02*
D03*
X80502D02*
D03*
X2755498Y1592500D02*
D03*
X2769498D02*
D03*
D12*
X3137800Y1527402D02*
D03*
Y1541402D02*
D03*
X3115300Y1666398D02*
D03*
Y1652398D02*
D03*
X3065100Y1640098D02*
D03*
Y1626098D02*
D03*
Y1600098D02*
D03*
Y1586098D02*
D03*
Y1560098D02*
D03*
Y1546098D02*
D03*
Y1520098D02*
D03*
Y1506098D02*
D03*
X3215100Y1226102D02*
D03*
Y1240102D02*
D03*
X3200100Y1226102D02*
D03*
Y1240102D02*
D03*
X3185100Y1226102D02*
D03*
Y1240102D02*
D03*
X3170100Y1226102D02*
D03*
Y1240102D02*
D03*
X3155100Y1226102D02*
D03*
Y1240102D02*
D03*
X3140100Y1226102D02*
D03*
Y1240102D02*
D03*
X3335300Y1388898D02*
D03*
Y1374898D02*
D03*
X3355300Y1374902D02*
D03*
Y1388902D02*
D03*
X3270300Y1446400D02*
D03*
Y1432400D02*
D03*
X3285300Y1446400D02*
D03*
Y1432400D02*
D03*
X3380100Y1226102D02*
D03*
Y1240102D02*
D03*
X3365100Y1226102D02*
D03*
Y1240102D02*
D03*
X3350100Y1226102D02*
D03*
Y1240102D02*
D03*
X3335100Y1226102D02*
D03*
Y1240102D02*
D03*
X3245100Y1226102D02*
D03*
Y1240102D02*
D03*
X3230100Y1226102D02*
D03*
Y1240102D02*
D03*
X3320100Y1226102D02*
D03*
Y1240102D02*
D03*
X3305100Y1226102D02*
D03*
Y1240102D02*
D03*
X3290100Y1226102D02*
D03*
Y1240102D02*
D03*
X3160300Y1446400D02*
D03*
Y1432400D02*
D03*
X3175300Y1446400D02*
D03*
Y1432400D02*
D03*
X3190300Y1446400D02*
D03*
Y1432400D02*
D03*
X3207800Y1446400D02*
D03*
Y1432400D02*
D03*
X3222800Y1446400D02*
D03*
Y1432400D02*
D03*
X3240300Y1446400D02*
D03*
Y1432400D02*
D03*
X3255300Y1446400D02*
D03*
Y1432400D02*
D03*
X3275100Y1226102D02*
D03*
Y1240102D02*
D03*
X3260100Y1226102D02*
D03*
Y1240102D02*
D03*
X3357800Y1594902D02*
D03*
Y1608902D02*
D03*
X3327800Y1594902D02*
D03*
Y1608902D02*
D03*
X3357800Y1638898D02*
D03*
Y1624898D02*
D03*
X3327800Y1638898D02*
D03*
Y1624898D02*
D03*
X3342800Y1624902D02*
D03*
Y1638902D02*
D03*
X3312800Y1624902D02*
D03*
Y1638902D02*
D03*
X3372800Y1624902D02*
D03*
Y1638902D02*
D03*
X3127800Y1602402D02*
D03*
Y1616402D02*
D03*
X3145300Y1432402D02*
D03*
Y1446402D02*
D03*
X95000Y1481998D02*
D03*
Y1467998D02*
D03*
X2705000Y1310498D02*
D03*
Y1324498D02*
D03*
X2740000Y1310498D02*
D03*
Y1324498D02*
D03*
X2786000Y1322002D02*
D03*
Y1308002D02*
D03*
X2773000Y1307998D02*
D03*
Y1321998D02*
D03*
X2747500Y1257002D02*
D03*
Y1243002D02*
D03*
X2687500Y1247998D02*
D03*
Y1261998D02*
D03*
X2640000Y1300498D02*
D03*
Y1314498D02*
D03*
X2715000Y1212000D02*
D03*
Y1198000D02*
D03*
X2755000Y1209502D02*
D03*
Y1195502D02*
D03*
X2795000Y1125498D02*
D03*
Y1139498D02*
D03*
X2782500Y1125498D02*
D03*
Y1139498D02*
D03*
X2715000Y1065502D02*
D03*
Y1079502D02*
D03*
X2772500Y1042998D02*
D03*
Y1056998D02*
D03*
X2787500Y1057002D02*
D03*
Y1043002D02*
D03*
X2802500Y1057002D02*
D03*
Y1043002D02*
D03*
X2817500Y1042998D02*
D03*
Y1056998D02*
D03*
Y1070498D02*
D03*
Y1084498D02*
D03*
X2787500Y1070498D02*
D03*
Y1084498D02*
D03*
X1725000Y852002D02*
D03*
Y838002D02*
D03*
X1682500D02*
D03*
Y852002D02*
D03*
X1422500D02*
D03*
Y838002D02*
D03*
X1120000Y842998D02*
D03*
Y856998D02*
D03*
X1157500Y843002D02*
D03*
Y857002D02*
D03*
X62500Y1667002D02*
D03*
Y1653002D02*
D03*
D13*
X3029725Y1633100D02*
D03*
X3029725Y1593100D02*
D03*
X3029725Y1553100D02*
D03*
Y1513100D02*
D03*
X3334925Y1414400D02*
D03*
X3079925Y1659400D02*
D03*
D14*
X3050475Y1642600D02*
D03*
Y1623600D02*
D03*
X3050475Y1602600D02*
D03*
Y1583600D02*
D03*
X3050475Y1562600D02*
D03*
Y1543600D02*
D03*
Y1522600D02*
D03*
Y1503600D02*
D03*
X3355675Y1423900D02*
D03*
Y1404900D02*
D03*
X3100675Y1668900D02*
D03*
Y1649900D02*
D03*
D15*
X3345300Y1462275D02*
D03*
X2740000Y1087875D02*
D03*
D16*
X3354800Y1441525D02*
D03*
X3335800D02*
D03*
X2749500Y1067125D02*
D03*
X2730500D02*
D03*
D17*
X3175000Y1162000D02*
D03*
Y1178000D02*
D03*
X77500Y1483000D02*
D03*
Y1467000D02*
D03*
X42500Y1592000D02*
D03*
Y1608000D02*
D03*
X20000D02*
D03*
Y1592000D02*
D03*
X2812500Y1652000D02*
D03*
Y1668000D02*
D03*
X1707500Y853000D02*
D03*
Y837000D02*
D03*
X1405000Y853000D02*
D03*
Y837000D02*
D03*
X2622500Y1299500D02*
D03*
Y1315500D02*
D03*
D18*
X3125300Y1447900D02*
D03*
Y1420900D02*
D03*
D19*
X3045900Y1418300D02*
D03*
Y1265900D02*
D03*
X1437500Y905000D02*
D03*
X1737500D02*
D03*
D20*
X3075400Y1382550D02*
D03*
Y1389050D02*
D03*
Y1395550D02*
D03*
Y1402050D02*
D03*
Y1408550D02*
D03*
Y1415050D02*
D03*
Y1421550D02*
D03*
Y1428050D02*
D03*
Y1434550D02*
D03*
Y1441050D02*
D03*
Y1447550D02*
D03*
Y1454050D02*
D03*
X3016400Y1382550D02*
D03*
Y1389050D02*
D03*
Y1395550D02*
D03*
Y1402050D02*
D03*
Y1408550D02*
D03*
Y1415050D02*
D03*
Y1421550D02*
D03*
Y1428050D02*
D03*
Y1434550D02*
D03*
Y1441050D02*
D03*
Y1447550D02*
D03*
Y1454050D02*
D03*
X3075400Y1230150D02*
D03*
Y1236650D02*
D03*
Y1243150D02*
D03*
Y1249650D02*
D03*
Y1256150D02*
D03*
Y1262650D02*
D03*
Y1269150D02*
D03*
Y1275650D02*
D03*
Y1282150D02*
D03*
Y1288650D02*
D03*
Y1295150D02*
D03*
Y1301650D02*
D03*
X3016400Y1230150D02*
D03*
Y1236650D02*
D03*
Y1243150D02*
D03*
Y1249650D02*
D03*
Y1256150D02*
D03*
Y1262650D02*
D03*
Y1269150D02*
D03*
Y1275650D02*
D03*
Y1282150D02*
D03*
Y1288650D02*
D03*
Y1295150D02*
D03*
Y1301650D02*
D03*
X1467000Y869250D02*
D03*
Y875750D02*
D03*
Y882250D02*
D03*
Y888750D02*
D03*
Y895250D02*
D03*
Y901750D02*
D03*
Y908250D02*
D03*
Y914750D02*
D03*
Y921250D02*
D03*
Y927750D02*
D03*
Y934250D02*
D03*
Y940750D02*
D03*
X1408000Y869250D02*
D03*
Y875750D02*
D03*
Y882250D02*
D03*
Y888750D02*
D03*
Y895250D02*
D03*
Y901750D02*
D03*
Y908250D02*
D03*
Y914750D02*
D03*
Y921250D02*
D03*
Y927750D02*
D03*
Y934250D02*
D03*
Y940750D02*
D03*
X1767000Y869250D02*
D03*
Y875750D02*
D03*
Y882250D02*
D03*
Y888750D02*
D03*
Y895250D02*
D03*
Y901750D02*
D03*
Y908250D02*
D03*
Y914750D02*
D03*
Y921250D02*
D03*
Y927750D02*
D03*
Y934250D02*
D03*
Y940750D02*
D03*
X1708000Y869250D02*
D03*
Y875750D02*
D03*
Y882250D02*
D03*
Y888750D02*
D03*
Y895250D02*
D03*
Y901750D02*
D03*
Y908250D02*
D03*
Y914750D02*
D03*
Y921250D02*
D03*
Y927750D02*
D03*
Y934250D02*
D03*
Y940750D02*
D03*
D21*
X3350100Y1351600D02*
D03*
Y1356600D02*
D03*
Y1346600D02*
D03*
X3336100Y1356600D02*
D03*
Y1351600D02*
D03*
Y1346600D02*
D03*
X3350100Y1506600D02*
D03*
Y1511600D02*
D03*
Y1501600D02*
D03*
X3336100Y1511600D02*
D03*
Y1506600D02*
D03*
Y1501600D02*
D03*
D22*
X3185351Y1369101D02*
D03*
Y1364101D02*
D03*
Y1359101D02*
D03*
Y1354101D02*
D03*
Y1349101D02*
D03*
Y1344101D02*
D03*
Y1339101D02*
D03*
Y1334101D02*
D03*
Y1329101D02*
D03*
Y1324101D02*
D03*
Y1319101D02*
D03*
Y1314101D02*
D03*
Y1309101D02*
D03*
Y1304101D02*
D03*
Y1299101D02*
D03*
Y1294101D02*
D03*
X3299351D02*
D03*
Y1299101D02*
D03*
Y1304101D02*
D03*
Y1309101D02*
D03*
Y1314101D02*
D03*
Y1319101D02*
D03*
Y1324101D02*
D03*
Y1329101D02*
D03*
Y1334101D02*
D03*
Y1339101D02*
D03*
Y1344101D02*
D03*
Y1359101D02*
D03*
Y1364101D02*
D03*
Y1369101D02*
D03*
Y1354101D02*
D03*
Y1349101D02*
D03*
D23*
X3204851Y1274601D02*
D03*
X3209851D02*
D03*
X3214851D02*
D03*
X3219851D02*
D03*
X3224851D02*
D03*
X3229851D02*
D03*
X3234851D02*
D03*
X3239851D02*
D03*
X3244851D02*
D03*
X3249851D02*
D03*
X3254851D02*
D03*
X3259851D02*
D03*
X3264851D02*
D03*
X3269851D02*
D03*
X3274851D02*
D03*
X3279851D02*
D03*
Y1388601D02*
D03*
X3274851D02*
D03*
X3269851D02*
D03*
X3264851D02*
D03*
X3259851D02*
D03*
X3254851D02*
D03*
X3249851D02*
D03*
X3244851D02*
D03*
X3239851D02*
D03*
X3234851D02*
D03*
X3229851D02*
D03*
X3224851D02*
D03*
X3219851D02*
D03*
X3214851D02*
D03*
X3209851D02*
D03*
X3204851D02*
D03*
D24*
X3382600Y1371599D02*
D03*
Y1363601D02*
D03*
Y1355600D02*
D03*
Y1347601D02*
D03*
Y1339601D02*
D03*
Y1526599D02*
D03*
Y1518601D02*
D03*
Y1510600D02*
D03*
Y1502601D02*
D03*
Y1494601D02*
D03*
D25*
X3437600Y1400101D02*
D03*
Y1311099D02*
D03*
X3382600Y1400101D02*
D03*
Y1311099D02*
D03*
X3437600Y1555101D02*
D03*
Y1466099D02*
D03*
X3382600Y1555101D02*
D03*
Y1466099D02*
D03*
D26*
X3144300Y1145100D02*
D03*
X3060700D02*
D03*
D27*
X3125000Y1164900D02*
D03*
X3120000D02*
D03*
X3115000D02*
D03*
X3110000D02*
D03*
X3105000D02*
D03*
X3100000D02*
D03*
X3095000D02*
D03*
X3090000D02*
D03*
X3085000D02*
D03*
X3080000D02*
D03*
D33*
X2442500Y1590000D02*
D03*
X2427500D02*
D03*
Y1620000D02*
D03*
X2442500D02*
D03*
X542500Y1590000D02*
D03*
X527500D02*
D03*
Y1620000D02*
D03*
X542500D02*
D03*
D34*
X34000Y1465000D02*
D03*
X61000D02*
D03*
X2838500Y1700000D02*
D03*
X2811500D02*
D03*
D35*
X81000Y1365000D02*
D03*
Y1400000D02*
D03*
Y1395000D02*
D03*
Y1390000D02*
D03*
Y1385000D02*
D03*
Y1380000D02*
D03*
Y1375000D02*
D03*
Y1370000D02*
D03*
X34000Y1400000D02*
D03*
Y1395000D02*
D03*
Y1390000D02*
D03*
Y1385000D02*
D03*
Y1380000D02*
D03*
Y1375000D02*
D03*
Y1370000D02*
D03*
Y1365000D02*
D03*
D36*
X75000Y1406000D02*
D03*
X70000D02*
D03*
X65000D02*
D03*
X60000D02*
D03*
X55000D02*
D03*
X50000D02*
D03*
X45000D02*
D03*
X40000D02*
D03*
Y1359000D02*
D03*
X45000D02*
D03*
X50000D02*
D03*
X55000D02*
D03*
X60000D02*
D03*
X65000D02*
D03*
X70000D02*
D03*
X75000D02*
D03*
D37*
X57500Y1382500D02*
D03*
D38*
X42500Y1628000D02*
D03*
Y1662000D02*
D03*
D39*
X2711999Y1246502D02*
D03*
X2728001D02*
D03*
X2711999Y1268498D02*
D03*
X2728001D02*
D03*
D40*
X2849050Y1182000D02*
D03*
X2836350D02*
D03*
X2823650D02*
D03*
X2810950D02*
D03*
X2849050Y1133000D02*
D03*
X2836350D02*
D03*
X2823650D02*
D03*
X2810950D02*
D03*
D41*
X1280000Y1027500D02*
D03*
Y1042500D02*
D03*
X1310000D02*
D03*
Y1027500D02*
D03*
X285000Y1647500D02*
D03*
Y1632500D02*
D03*
X315000D02*
D03*
Y1647500D02*
D03*
X285000Y1702500D02*
D03*
Y1687500D02*
D03*
X315000D02*
D03*
Y1702500D02*
D03*
X285000Y1762500D02*
D03*
Y1747500D02*
D03*
X315000D02*
D03*
Y1762500D02*
D03*
D42*
X1196950Y928200D02*
D03*
X1184250D02*
D03*
X1171550D02*
D03*
X1158850D02*
D03*
X1146150D02*
D03*
X1133450D02*
D03*
X1120750D02*
D03*
X1108050D02*
D03*
X1196950Y881200D02*
D03*
X1184250D02*
D03*
X1171550D02*
D03*
X1158850D02*
D03*
X1146150D02*
D03*
X1133450D02*
D03*
X1120750D02*
D03*
X1108050D02*
D03*
M02*
