G04 Layer_Color=128*
%FSLAX44Y44*%
%MOMM*%
G71*
G01*
G75*
%ADD148C,0.0508*%
D148*
X3465000Y1245000D02*
X3470000D01*
X3467500Y1242500D02*
Y1247500D01*
X3465000Y1255000D02*
X3470000D01*
X3467500Y1252500D02*
Y1257500D01*
X3465000Y1480000D02*
X3470000D01*
X3467500Y1477500D02*
Y1482500D01*
X3465000Y1490000D02*
X3470000D01*
X3467500Y1487500D02*
Y1492500D01*
X3342500Y1745000D02*
X3347500D01*
X3345000Y1742500D02*
Y1747500D01*
X3352500Y1745000D02*
X3357500D01*
X3355000Y1742500D02*
Y1747500D01*
X3055000Y1745000D02*
X3060000D01*
X3057500Y1742500D02*
Y1747500D01*
X3045000Y1745000D02*
X3050000D01*
X3047500Y1742500D02*
Y1747500D01*
X3416000Y1710000D02*
X3444000D01*
X3430000Y1696000D02*
Y1724000D01*
X2896000Y1710000D02*
X2924000D01*
X2910000Y1696000D02*
Y1724000D01*
X2896000Y1140000D02*
X2924000D01*
X2910000Y1126000D02*
Y1154000D01*
X3416000Y1140000D02*
X3444000D01*
X3430000Y1126000D02*
Y1154000D01*
X3327350Y1556100D02*
X3330850D01*
X3329100Y1554350D02*
Y1557850D01*
X3327350Y1540100D02*
X3330850D01*
X3329100Y1538350D02*
Y1541850D01*
X3333350Y1548100D02*
X3336850D01*
X3335100Y1546350D02*
Y1549850D01*
X3340350Y1556100D02*
X3343850D01*
X3342100Y1554350D02*
Y1557850D01*
X3340350Y1540100D02*
X3343850D01*
X3342100Y1538350D02*
Y1541850D01*
X3089050Y1347800D02*
X3100550D01*
X3094800Y1342050D02*
Y1353550D01*
X3114450Y1347800D02*
X3125950D01*
X3120200Y1342050D02*
Y1353550D01*
X3089050Y1322400D02*
X3100550D01*
X3094800Y1316650D02*
Y1328150D01*
X3114450Y1322400D02*
X3125950D01*
X3120200Y1316650D02*
Y1328150D01*
X3397350Y1601800D02*
X3406850D01*
X3402100Y1597050D02*
Y1606550D01*
X3369700Y1665000D02*
X3378700D01*
X3374200Y1660500D02*
Y1669500D01*
X3344300Y1665000D02*
X3353300D01*
X3348800Y1660500D02*
Y1669500D01*
X3318900Y1665000D02*
X3327900D01*
X3323400Y1660500D02*
Y1669500D01*
X3293500Y1665000D02*
X3302500D01*
X3298000Y1660500D02*
Y1669500D01*
X3397350Y1627200D02*
X3406850D01*
X3402100Y1622450D02*
Y1631950D01*
X2936650Y1525600D02*
X2948150D01*
X2942400Y1519850D02*
Y1531350D01*
X2936650Y1551000D02*
X2948150D01*
X2942400Y1545250D02*
Y1556750D01*
X2936650Y1601800D02*
X2948150D01*
X2942400Y1596050D02*
Y1607550D01*
X2911250Y1525600D02*
X2922750D01*
X2917000Y1519850D02*
Y1531350D01*
X2936650Y1576400D02*
X2948150D01*
X2942400Y1570650D02*
Y1582150D01*
X2911250Y1576400D02*
X2922750D01*
X2917000Y1570650D02*
Y1582150D01*
X2936650Y1627200D02*
X2948150D01*
X2942400Y1621450D02*
Y1632950D01*
X2911250Y1551000D02*
X2922750D01*
X2917000Y1545250D02*
Y1556750D01*
X2911250Y1601800D02*
X2922750D01*
X2917000Y1596050D02*
Y1607550D01*
X2911250Y1347800D02*
X2922750D01*
X2917000Y1342050D02*
Y1353550D01*
X2911250Y1474800D02*
X2922750D01*
X2917000Y1469050D02*
Y1480550D01*
X2936650Y1246200D02*
X2948150D01*
X2942400Y1240450D02*
Y1251950D01*
X2936650Y1347800D02*
X2948150D01*
X2942400Y1342050D02*
Y1353550D01*
X2936650Y1398600D02*
X2948150D01*
X2942400Y1392850D02*
Y1404350D01*
X2936650Y1373200D02*
X2948150D01*
X2942400Y1367450D02*
Y1378950D01*
X2911250Y1246200D02*
X2922750D01*
X2917000Y1240450D02*
Y1251950D01*
X2911250Y1271600D02*
X2922750D01*
X2917000Y1265850D02*
Y1277350D01*
X2911250Y1373200D02*
X2922750D01*
X2917000Y1367450D02*
Y1378950D01*
X2936650Y1297000D02*
X2948150D01*
X2942400Y1291250D02*
Y1302750D01*
X2936650Y1271600D02*
X2948150D01*
X2942400Y1265850D02*
Y1277350D01*
X2936650Y1424000D02*
X2948150D01*
X2942400Y1418250D02*
Y1429750D01*
X2911250Y1398600D02*
X2922750D01*
X2917000Y1392850D02*
Y1404350D01*
X2911250Y1424000D02*
X2922750D01*
X2917000Y1418250D02*
Y1429750D01*
X2911250Y1297000D02*
X2922750D01*
X2917000Y1291250D02*
Y1302750D01*
X2911250Y1195400D02*
X2922750D01*
X2917000Y1189650D02*
Y1201150D01*
X2911250Y1322400D02*
X2922750D01*
X2917000Y1316650D02*
Y1328150D01*
X2911250Y1449400D02*
X2922750D01*
X2917000Y1443650D02*
Y1455150D01*
X2911250Y1220800D02*
X2922750D01*
X2917000Y1215050D02*
Y1226550D01*
X2936650Y1474800D02*
X2948150D01*
X2942400Y1469050D02*
Y1480550D01*
X2936650Y1220800D02*
X2948150D01*
X2942400Y1215050D02*
Y1226550D01*
X2936650Y1322400D02*
X2948150D01*
X2942400Y1316650D02*
Y1328150D01*
X2936650Y1195400D02*
X2948150D01*
X2942400Y1189650D02*
Y1201150D01*
X2936650Y1449400D02*
X2948150D01*
X2942400Y1443650D02*
Y1455150D01*
X3369700Y1690400D02*
X3378700D01*
X3374200Y1685900D02*
Y1694900D01*
X3344300Y1690400D02*
X3353300D01*
X3348800Y1685900D02*
Y1694900D01*
X3318900Y1690400D02*
X3327900D01*
X3323400Y1685900D02*
Y1694900D01*
X3216050Y1170000D02*
X3227550D01*
X3221800Y1164250D02*
Y1175750D01*
X3241450Y1144600D02*
X3252950D01*
X3247200Y1138850D02*
Y1150350D01*
X3317650Y1144600D02*
X3329150D01*
X3323400Y1138850D02*
Y1150350D01*
X3317650Y1170000D02*
X3329150D01*
X3323400Y1164250D02*
Y1175750D01*
X3266850Y1170000D02*
X3278350D01*
X3272600Y1164250D02*
Y1175750D01*
X3190650Y1144600D02*
X3202150D01*
X3196400Y1138850D02*
Y1150350D01*
X3292250Y1170000D02*
X3303750D01*
X3298000Y1164250D02*
Y1175750D01*
X3241450Y1170000D02*
X3252950D01*
X3247200Y1164250D02*
Y1175750D01*
X3266850Y1144600D02*
X3278350D01*
X3272600Y1138850D02*
Y1150350D01*
X3292250Y1144600D02*
X3303750D01*
X3298000Y1138850D02*
Y1150350D01*
X3216050Y1144600D02*
X3227550D01*
X3221800Y1138850D02*
Y1150350D01*
X3369450Y1170000D02*
X3378950D01*
X3374200Y1165250D02*
Y1174750D01*
X3344050Y1170000D02*
X3353550D01*
X3348800Y1165250D02*
Y1174750D01*
X3344050Y1144600D02*
X3353550D01*
X3348800Y1139850D02*
Y1149350D01*
X3369450Y1144600D02*
X3378950D01*
X3374200Y1139850D02*
Y1149350D01*
X3216050Y1500200D02*
X3227550D01*
X3221800Y1494450D02*
Y1505950D01*
X3190650Y1500200D02*
X3202150D01*
X3196400Y1494450D02*
Y1505950D01*
X3216050Y1525600D02*
X3227550D01*
X3221800Y1519850D02*
Y1531350D01*
X3190650Y1525600D02*
X3202150D01*
X3196400Y1519850D02*
Y1531350D01*
X3241450Y1500200D02*
X3252950D01*
X3247200Y1494450D02*
Y1505950D01*
X3165250Y1500200D02*
X3176750D01*
X3171000Y1494450D02*
Y1505950D01*
X3165250Y1525600D02*
X3176750D01*
X3171000Y1519850D02*
Y1531350D01*
X3241450Y1525600D02*
X3252950D01*
X3247200Y1519850D02*
Y1531350D01*
X3139850Y1500200D02*
X3151350D01*
X3145600Y1494450D02*
Y1505950D01*
X3404098Y1377601D02*
X3413098D01*
X3408598Y1373102D02*
Y1382101D01*
X3404098Y1333601D02*
X3413098D01*
X3408598Y1329101D02*
Y1338101D01*
X3220800Y1571400D02*
X3229800D01*
X3225300Y1566900D02*
Y1575900D01*
X3220800Y1647400D02*
X3229800D01*
X3225300Y1642900D02*
Y1651900D01*
X3404098Y1532601D02*
X3413098D01*
X3408598Y1528102D02*
Y1537101D01*
X3404098Y1488601D02*
X3413098D01*
X3408598Y1484101D02*
Y1493101D01*
X3188800Y1694400D02*
X3191800D01*
X3190300Y1692899D02*
Y1695900D01*
X3318800Y1481900D02*
X3321800D01*
X3320300Y1480400D02*
Y1483400D01*
X3283800Y1454400D02*
X3286800D01*
X3285300Y1452900D02*
Y1455900D01*
X3268800Y1454400D02*
X3271800D01*
X3270300Y1452900D02*
Y1455900D01*
X3253800Y1454400D02*
X3256800D01*
X3255300Y1452900D02*
Y1455900D01*
X3181300Y1616900D02*
X3184300D01*
X3182800Y1615400D02*
Y1618400D01*
X3341299Y1586900D02*
X3344299D01*
X3342799Y1585400D02*
Y1588400D01*
X3341300Y1601900D02*
X3344300D01*
X3342800Y1600400D02*
Y1603400D01*
X3303799Y1524400D02*
X3306799D01*
X3305299Y1522900D02*
Y1525900D01*
X3108800Y1291900D02*
X3111800D01*
X3110300Y1290400D02*
Y1293400D01*
X3171300Y1379400D02*
X3174300D01*
X3172800Y1377900D02*
Y1380900D01*
X3256300Y1374400D02*
X3259300D01*
X3257800Y1372900D02*
Y1375900D01*
X3211300Y1366900D02*
X3214300D01*
X3212800Y1365400D02*
Y1368400D01*
X3186300Y1396900D02*
X3189300D01*
X3187800Y1395400D02*
Y1398400D01*
X3143800Y1399400D02*
X3146800D01*
X3145300Y1397900D02*
Y1400900D01*
X3143800Y1409400D02*
X3146800D01*
X3145300Y1407900D02*
Y1410900D01*
X3156300Y1406900D02*
X3159300D01*
X3157800Y1405400D02*
Y1408400D01*
X3143800Y1419400D02*
X3146800D01*
X3145300Y1417900D02*
Y1420900D01*
X3046900Y1384400D02*
X3049900D01*
X3048400Y1382900D02*
Y1385900D01*
X3056300Y1329400D02*
X3059300D01*
X3057800Y1327900D02*
Y1330900D01*
X3006300Y1324400D02*
X3009300D01*
X3007800Y1322900D02*
Y1325900D01*
X3363800Y1379400D02*
X3366800D01*
X3365300Y1377900D02*
Y1380900D01*
X3396300Y1364400D02*
X3399300D01*
X3397800Y1362900D02*
Y1365900D01*
X3286300Y1584400D02*
X3289300D01*
X3287800Y1582900D02*
Y1585900D01*
X3388800Y1536900D02*
X3391800D01*
X3390300Y1535400D02*
Y1538400D01*
X3368800Y1589400D02*
X3371800D01*
X3370300Y1587900D02*
Y1590900D01*
X3398800Y1216900D02*
X3401800D01*
X3400300Y1215400D02*
Y1218400D01*
X3413800Y1259400D02*
X3416800D01*
X3415300Y1257900D02*
Y1260900D01*
X3168800Y1686900D02*
X3171800D01*
X3170300Y1685399D02*
Y1688400D01*
X3161300Y1586900D02*
X3164300D01*
X3162800Y1585400D02*
Y1588400D01*
X3168500Y1140000D02*
X3171500D01*
X3170000Y1138500D02*
Y1141500D01*
X3176000Y1140000D02*
X3179000D01*
X3177500Y1138500D02*
Y1141500D01*
X3168500Y1150000D02*
X3171500D01*
X3170000Y1148500D02*
Y1151500D01*
X3176000Y1150000D02*
X3179000D01*
X3177500Y1148500D02*
Y1151500D01*
X3378800Y1216900D02*
X3381800D01*
X3380300Y1215400D02*
Y1218400D01*
X3364000Y1216900D02*
X3367000D01*
X3365500Y1215400D02*
Y1218400D01*
X3348800Y1216900D02*
X3351800D01*
X3350300Y1215400D02*
Y1218400D01*
X3333800Y1216900D02*
X3336800D01*
X3335300Y1215400D02*
Y1218400D01*
X3318800Y1216900D02*
X3321800D01*
X3320300Y1215400D02*
Y1218400D01*
X3303800Y1216900D02*
X3306800D01*
X3305300Y1215400D02*
Y1218400D01*
X3288800Y1216900D02*
X3291800D01*
X3290300Y1215400D02*
Y1218400D01*
X3274000Y1216900D02*
X3277000D01*
X3275500Y1215400D02*
Y1218400D01*
X3258800Y1216900D02*
X3261800D01*
X3260300Y1215400D02*
Y1218400D01*
X3243800Y1216900D02*
X3246800D01*
X3245300Y1215400D02*
Y1218400D01*
X3228800Y1216900D02*
X3231800D01*
X3230300Y1215400D02*
Y1218400D01*
X3266300Y1256900D02*
X3269300D01*
X3267800Y1255400D02*
Y1258400D01*
X3281300Y1261900D02*
X3284300D01*
X3282800Y1260400D02*
Y1263400D01*
X3353800Y1269400D02*
X3356800D01*
X3355300Y1267900D02*
Y1270900D01*
X3361300Y1264400D02*
X3364300D01*
X3362800Y1262900D02*
Y1265900D01*
X3346300Y1286900D02*
X3349300D01*
X3347800Y1285400D02*
Y1288400D01*
X3346300Y1276900D02*
X3349300D01*
X3347800Y1275400D02*
Y1278400D01*
X3401300Y1294400D02*
X3404300D01*
X3402800Y1292900D02*
Y1295900D01*
X3388800Y1331900D02*
X3391800D01*
X3390300Y1330400D02*
Y1333400D01*
X3378800Y1331900D02*
X3381800D01*
X3380300Y1330400D02*
Y1333400D01*
X3376300Y1441900D02*
X3379300D01*
X3377800Y1440400D02*
Y1443400D01*
X3356300Y1486900D02*
X3359300D01*
X3357800Y1485400D02*
Y1488400D01*
X3366300Y1486900D02*
X3369300D01*
X3367800Y1485400D02*
Y1488400D01*
X3326300Y1577650D02*
X3329300D01*
X3327800Y1576150D02*
Y1579150D01*
X3378800Y1486900D02*
X3381800D01*
X3380300Y1485400D02*
Y1488400D01*
X3388800Y1486900D02*
X3391800D01*
X3390300Y1485400D02*
Y1488400D01*
X3396300Y1439400D02*
X3399300D01*
X3397800Y1437900D02*
Y1440900D01*
X3253800Y1664400D02*
X3256800D01*
X3255300Y1662900D02*
Y1665900D01*
X3246300Y1671900D02*
X3249300D01*
X3247800Y1670400D02*
Y1673400D01*
X3238800Y1679400D02*
X3241800D01*
X3240300Y1677900D02*
Y1680900D01*
X3153800Y1591900D02*
X3156800D01*
X3155300Y1590400D02*
Y1593400D01*
X3126300Y1521900D02*
X3129300D01*
X3127800Y1520400D02*
Y1523400D01*
X3118800Y1539400D02*
X3121800D01*
X3120300Y1537900D02*
Y1540900D01*
X3103800Y1541900D02*
X3106800D01*
X3105300Y1540400D02*
Y1543400D01*
X3116300Y1520900D02*
X3119300D01*
X3117800Y1519400D02*
Y1522400D01*
X3223800Y1624828D02*
X3226800D01*
X3225300Y1623328D02*
Y1626328D01*
X3231299Y1631900D02*
X3234300D01*
X3232799Y1630400D02*
Y1633400D01*
X3221300Y1609400D02*
X3224300D01*
X3222800Y1607900D02*
Y1610900D01*
X3316300Y1594400D02*
X3319300D01*
X3317800Y1592900D02*
Y1595900D01*
X3156300Y1679400D02*
X3159300D01*
X3157800Y1677900D02*
Y1680900D01*
X3148800Y1669400D02*
X3151800D01*
X3150300Y1667900D02*
Y1670900D01*
X3211300Y1549400D02*
X3214300D01*
X3212800Y1547900D02*
Y1550900D01*
X3236300Y1549400D02*
X3239300D01*
X3237800Y1547900D02*
Y1550900D01*
X3176300Y1601900D02*
X3179300D01*
X3177800Y1600400D02*
Y1603400D01*
X3198800Y1556900D02*
X3201800D01*
X3200300Y1555400D02*
Y1558400D01*
X3296299Y1376900D02*
X3299299D01*
X3297799Y1375400D02*
Y1378400D01*
X3296300Y1386900D02*
X3299300D01*
X3297800Y1385400D02*
Y1388400D01*
X3296300Y1396900D02*
X3299300D01*
X3297800Y1395400D02*
Y1398400D01*
X3333800Y1401900D02*
X3336800D01*
X3335300Y1400400D02*
Y1403400D01*
X3333800Y1431900D02*
X3336800D01*
X3335300Y1430400D02*
Y1433400D01*
X3346300Y1374400D02*
X3349300D01*
X3347800Y1372900D02*
Y1375900D01*
X3251300Y1624400D02*
X3254300D01*
X3252800Y1622900D02*
Y1625900D01*
X3261300Y1616900D02*
X3264300D01*
X3262800Y1615400D02*
Y1618400D01*
X3268800Y1609400D02*
X3271800D01*
X3270300Y1607900D02*
Y1610900D01*
X3268800Y1599400D02*
X3271800D01*
X3270300Y1597900D02*
Y1600900D01*
X3341300Y1616900D02*
X3344300D01*
X3342800Y1615400D02*
Y1618400D01*
X3301300Y1624400D02*
X3304300D01*
X3302800Y1622900D02*
Y1625900D01*
X3326300Y1616900D02*
X3329300D01*
X3327800Y1615400D02*
Y1618400D01*
X3356300Y1616900D02*
X3359300D01*
X3357800Y1615400D02*
Y1618400D01*
X3201300Y1369400D02*
X3204300D01*
X3202800Y1367900D02*
Y1370900D01*
X3271299Y1356900D02*
X3274299D01*
X3272799Y1355400D02*
Y1358400D01*
X3313799Y1336900D02*
X3316799D01*
X3315299Y1335400D02*
Y1338400D01*
X3287101Y1334400D02*
X3290101D01*
X3288601Y1332900D02*
Y1335900D01*
X3287101Y1344400D02*
X3290101D01*
X3288601Y1342900D02*
Y1345900D01*
X3316300Y1306900D02*
X3319300D01*
X3317800Y1305400D02*
Y1308400D01*
X3243800Y1301900D02*
X3246800D01*
X3245300Y1300400D02*
Y1303400D01*
X3273800Y1319400D02*
X3276800D01*
X3275300Y1317900D02*
Y1320900D01*
X3046300Y1471900D02*
X3049300D01*
X3047800Y1470400D02*
Y1473400D01*
X3173800Y1624400D02*
X3176800D01*
X3175300Y1622900D02*
Y1625900D01*
X3088800Y1651900D02*
X3091800D01*
X3090300Y1650400D02*
Y1653400D01*
X3151300Y1579400D02*
X3154300D01*
X3152800Y1577900D02*
Y1580900D01*
X3126300Y1624400D02*
X3129300D01*
X3127800Y1622900D02*
Y1625900D01*
X3121300Y1586900D02*
X3124300D01*
X3122800Y1585400D02*
Y1588400D01*
X3151150Y1566750D02*
X3154150D01*
X3152650Y1565250D02*
Y1568250D01*
X3116300Y1496900D02*
X3119300D01*
X3117800Y1495400D02*
Y1498400D01*
X3111300Y1604400D02*
X3114300D01*
X3112800Y1602900D02*
Y1605900D01*
X3111300Y1591900D02*
X3114300D01*
X3112800Y1590400D02*
Y1593400D01*
X3356100Y1506600D02*
X3360100D01*
X3358100Y1504600D02*
Y1508600D01*
X3326100Y1506600D02*
X3330100D01*
X3328100Y1504600D02*
Y1508600D01*
X3326098Y1351600D02*
X3330098D01*
X3328098Y1349600D02*
Y1353600D01*
X3356098Y1351600D02*
X3360098D01*
X3358098Y1349600D02*
Y1353600D01*
X3311100Y1510600D02*
X3314100D01*
X3312600Y1509100D02*
Y1512100D01*
X3311100Y1502600D02*
X3314100D01*
X3312600Y1501100D02*
Y1504100D01*
X3273600Y1285600D02*
X3276600D01*
X3275100Y1284100D02*
Y1287100D01*
X3285101Y1274601D02*
X3288101D01*
X3286601Y1273101D02*
Y1276101D01*
X3258600Y1285600D02*
X3261600D01*
X3260100Y1284100D02*
Y1287100D01*
X3201100Y1353100D02*
X3204100D01*
X3202600Y1351600D02*
Y1354600D01*
X3226100Y1318100D02*
X3229100D01*
X3227600Y1316600D02*
Y1319600D01*
X3247098Y1354602D02*
X3250098D01*
X3248598Y1353102D02*
Y1356102D01*
X3247098Y1364098D02*
X3250098D01*
X3248598Y1362598D02*
Y1365598D01*
X3235602Y1300102D02*
X3238602D01*
X3237102Y1298602D02*
Y1301602D01*
X3247098Y1372102D02*
X3250098D01*
X3248598Y1370602D02*
Y1373602D01*
X3162350Y1303100D02*
X3165350D01*
X3163850Y1301600D02*
Y1304600D01*
X3213600Y1291600D02*
X3216600D01*
X3215100Y1290100D02*
Y1293100D01*
X3213600Y1300600D02*
X3216600D01*
X3215100Y1299100D02*
Y1302100D01*
X3122601Y1264098D02*
X3125601D01*
X3124101Y1262598D02*
Y1265598D01*
X3388600Y1239600D02*
X3391600D01*
X3390100Y1238100D02*
Y1241100D01*
X3073600Y1513100D02*
X3076600D01*
X3075100Y1511600D02*
Y1514600D01*
X3063600Y1528100D02*
X3066600D01*
X3065100Y1526600D02*
Y1529600D01*
X3073600Y1553100D02*
X3076600D01*
X3075100Y1551600D02*
Y1554600D01*
X3073600Y1593100D02*
X3076600D01*
X3075100Y1591600D02*
Y1594600D01*
X3073600Y1633100D02*
X3076600D01*
X3075100Y1631600D02*
Y1634600D01*
X3103800Y1566900D02*
X3106800D01*
X3105300Y1565400D02*
Y1568400D01*
X3103800Y1579400D02*
X3106800D01*
X3105300Y1577900D02*
Y1580900D01*
X3103800Y1554050D02*
X3106800D01*
X3105300Y1552550D02*
Y1555550D01*
X3103800Y1528650D02*
X3106800D01*
X3105300Y1527150D02*
Y1530150D01*
X3013600Y1531700D02*
X3016600D01*
X3015100Y1530200D02*
Y1533200D01*
X3038800Y1531900D02*
X3041800D01*
X3040300Y1530400D02*
Y1533400D01*
X3038800Y1523100D02*
X3041800D01*
X3040300Y1521600D02*
Y1524600D01*
X3038800Y1563100D02*
X3041800D01*
X3040300Y1561600D02*
Y1564600D01*
X3038800Y1571900D02*
X3041800D01*
X3040300Y1570400D02*
Y1573400D01*
X3063600Y1568100D02*
X3066600D01*
X3065100Y1566600D02*
Y1569600D01*
X3038802Y1603103D02*
X3041802D01*
X3040302Y1601602D02*
Y1604603D01*
X3038802Y1611902D02*
X3041802D01*
X3040302Y1610403D02*
Y1613403D01*
X3063603Y1608103D02*
X3066602D01*
X3065103Y1606602D02*
Y1609603D01*
X3038800Y1643100D02*
X3041800D01*
X3040300Y1641600D02*
Y1644600D01*
X3038800Y1651900D02*
X3041800D01*
X3040300Y1650400D02*
Y1653400D01*
X3063600Y1648100D02*
X3066600D01*
X3065100Y1646600D02*
Y1649600D01*
X3266299Y1414400D02*
X3269299D01*
X3267799Y1412900D02*
Y1415900D01*
X3196300Y1344400D02*
X3199300D01*
X3197799Y1342900D02*
Y1345900D01*
X3171100Y1343100D02*
X3174100D01*
X3172600Y1341600D02*
Y1344600D01*
X3161300Y1311900D02*
X3164300D01*
X3162800Y1310400D02*
Y1313400D01*
X3151300Y1301900D02*
X3154300D01*
X3152800Y1300400D02*
Y1303400D01*
X3086300Y1281900D02*
X3089300D01*
X3087800Y1280400D02*
Y1283400D01*
X3093800Y1291900D02*
X3096800D01*
X3095300Y1290400D02*
Y1293400D01*
X3073800Y1356900D02*
X3076800D01*
X3075300Y1355400D02*
Y1358400D01*
X3098800Y1374400D02*
X3101800D01*
X3100300Y1372900D02*
Y1375900D01*
X3064300Y1460400D02*
X3067300D01*
X3065800Y1458900D02*
Y1461900D01*
X3056300Y1460400D02*
X3059300D01*
X3057800Y1458900D02*
Y1461900D01*
X3065300Y1309400D02*
X3068300D01*
X3066800Y1307900D02*
Y1310900D01*
X3143800Y1454400D02*
X3146800D01*
X3145300Y1452900D02*
Y1455900D01*
X3143800Y1464400D02*
X3146800D01*
X3145300Y1462900D02*
Y1465900D01*
X3143800Y1474400D02*
X3146800D01*
X3145300Y1472900D02*
Y1475900D01*
X3133800Y1474400D02*
X3136800D01*
X3135300Y1472900D02*
Y1475900D01*
X3133800Y1464400D02*
X3136800D01*
X3135300Y1462900D02*
Y1465900D01*
X3098800Y1484400D02*
X3101800D01*
X3100300Y1482900D02*
Y1485900D01*
X3186100Y1383602D02*
X3189100D01*
X3187600Y1382102D02*
Y1385102D01*
X3231300Y1374400D02*
X3234300D01*
X3232800Y1372900D02*
Y1375900D01*
X3158800Y1454400D02*
X3161800D01*
X3160300Y1452900D02*
Y1455900D01*
X3173800Y1454400D02*
X3176800D01*
X3175300Y1452900D02*
Y1455900D01*
X3188800Y1454400D02*
X3191800D01*
X3190300Y1452900D02*
Y1455900D01*
X3206300Y1454400D02*
X3209300D01*
X3207800Y1452900D02*
Y1455900D01*
X3221300Y1454400D02*
X3224300D01*
X3222800Y1452900D02*
Y1455900D01*
X3238800Y1454400D02*
X3241800D01*
X3240300Y1452900D02*
Y1455900D01*
X3311300Y1379400D02*
X3314300D01*
X3312800Y1377900D02*
Y1380900D01*
X3261000Y1695000D02*
X3264000D01*
X3262500Y1693500D02*
Y1696500D01*
X3381000Y1637500D02*
X3384000D01*
X3382500Y1636000D02*
Y1639000D01*
X3383500Y1622500D02*
X3386500D01*
X3385000Y1621000D02*
Y1624000D01*
X3131000Y1250600D02*
X3134000D01*
X3132500Y1249100D02*
Y1252100D01*
X3131000Y1212500D02*
X3134000D01*
X3132500Y1211000D02*
Y1214000D01*
X2981000Y1447500D02*
X2984000D01*
X2982500Y1446000D02*
Y1449000D01*
X2988500Y1440000D02*
X2991500D01*
X2990000Y1438500D02*
Y1441500D01*
X2996000Y1457500D02*
X2999000D01*
X2997500Y1456000D02*
Y1459000D01*
X2981000Y1320000D02*
X2984000D01*
X2982500Y1318500D02*
Y1321500D01*
X2988500Y1330000D02*
X2991500D01*
X2990000Y1328500D02*
Y1331500D01*
X3041101Y1593097D02*
X3044101D01*
X3042601Y1591597D02*
Y1594597D01*
X3041101Y1553098D02*
X3044101D01*
X3042601Y1551597D02*
Y1554597D01*
X3041101Y1513098D02*
X3044101D01*
X3042601Y1511597D02*
Y1514597D01*
X3041101Y1633097D02*
X3044101D01*
X3042601Y1631597D02*
Y1634597D01*
X3098500Y1260000D02*
X3101500D01*
X3100000Y1258500D02*
Y1261500D01*
X3038500Y1185000D02*
X3041500D01*
X3040000Y1183500D02*
Y1186500D01*
X3038500Y1192500D02*
X3041500D01*
X3040000Y1191000D02*
Y1194000D01*
X3006300Y1316900D02*
X3009300D01*
X3007800Y1315400D02*
Y1318400D01*
X3006200Y1468200D02*
X3009200D01*
X3007700Y1466700D02*
Y1469700D01*
X3006200Y1475700D02*
X3009200D01*
X3007700Y1474200D02*
Y1477200D01*
X3186000Y1162500D02*
X3189001D01*
X3187501Y1161000D02*
Y1164000D01*
X2943500Y1122500D02*
X2946500D01*
X2945000Y1121000D02*
Y1124000D01*
X2973500Y1122500D02*
X2976500D01*
X2975000Y1121000D02*
Y1124000D01*
X3003500Y1122500D02*
X3006500D01*
X3005000Y1121000D02*
Y1124000D01*
X3033500Y1122500D02*
X3036500D01*
X3035000Y1121000D02*
Y1124000D01*
X3063500Y1122500D02*
X3066500D01*
X3065000Y1121000D02*
Y1124000D01*
X3093500Y1122500D02*
X3096500D01*
X3095000Y1121000D02*
Y1124000D01*
X3123500Y1122500D02*
X3126500D01*
X3125000Y1121000D02*
Y1124000D01*
X3153500Y1122500D02*
X3156500D01*
X3155000Y1121000D02*
Y1124000D01*
X3243500Y1122500D02*
X3246500D01*
X3245000Y1121000D02*
Y1124000D01*
X3213500Y1122500D02*
X3216500D01*
X3215000Y1121000D02*
Y1124000D01*
X3183500Y1122500D02*
X3186500D01*
X3185000Y1121000D02*
Y1124000D01*
X3333500Y1122500D02*
X3336500D01*
X3335000Y1121000D02*
Y1124000D01*
X3303500Y1122500D02*
X3306500D01*
X3305000Y1121000D02*
Y1124000D01*
X3273500Y1122500D02*
X3276500D01*
X3275000Y1121000D02*
Y1124000D01*
X3363500Y1122500D02*
X3366500D01*
X3365000Y1121000D02*
Y1124000D01*
X3393500Y1122500D02*
X3396500D01*
X3395000Y1121000D02*
Y1124000D01*
X3393500Y1725000D02*
X3396500D01*
X3395000Y1723500D02*
Y1726500D01*
X3363500Y1725000D02*
X3366500D01*
X3365000Y1723500D02*
Y1726500D01*
X3333500Y1725000D02*
X3336500D01*
X3335000Y1723500D02*
Y1726500D01*
X3303500Y1725000D02*
X3306500D01*
X3305000Y1723500D02*
Y1726500D01*
X3273500Y1725000D02*
X3276500D01*
X3275000Y1723500D02*
Y1726500D01*
X3243500Y1725000D02*
X3246500D01*
X3245000Y1723500D02*
Y1726500D01*
X3213500Y1725000D02*
X3216500D01*
X3215000Y1723500D02*
Y1726500D01*
X3183500Y1725000D02*
X3186500D01*
X3185000Y1723500D02*
Y1726500D01*
X3093500Y1725000D02*
X3096500D01*
X3095000Y1723500D02*
Y1726500D01*
X3123500Y1725000D02*
X3126500D01*
X3125000Y1723500D02*
Y1726500D01*
X3153500Y1725000D02*
X3156500D01*
X3155000Y1723500D02*
Y1726500D01*
X3003500Y1725000D02*
X3006500D01*
X3005000Y1723500D02*
Y1726500D01*
X3033500Y1725000D02*
X3036500D01*
X3035000Y1723500D02*
Y1726500D01*
X3063500Y1725000D02*
X3066500D01*
X3065000Y1723500D02*
Y1726500D01*
X2973500Y1725000D02*
X2976500D01*
X2975000Y1723500D02*
Y1726500D01*
X2943500Y1725000D02*
X2946500D01*
X2945000Y1723500D02*
Y1726500D01*
X2892500Y1625000D02*
X2895500D01*
X2894000Y1623500D02*
Y1626500D01*
X2892500Y1595000D02*
X2895500D01*
X2894000Y1593500D02*
Y1596500D01*
X2892500Y1565000D02*
X2895500D01*
X2894000Y1563500D02*
Y1566500D01*
X2892500Y1535000D02*
X2895500D01*
X2894000Y1533500D02*
Y1536500D01*
X2892500Y1505000D02*
X2895500D01*
X2894000Y1503500D02*
Y1506500D01*
X2892500Y1475000D02*
X2895500D01*
X2894000Y1473500D02*
Y1476500D01*
X2892500Y1445000D02*
X2895500D01*
X2894000Y1443500D02*
Y1446500D01*
X2892500Y1415000D02*
X2895500D01*
X2894000Y1413500D02*
Y1416500D01*
X2892500Y1325000D02*
X2895500D01*
X2894000Y1323500D02*
Y1326500D01*
X2892500Y1355000D02*
X2895500D01*
X2894000Y1353500D02*
Y1356500D01*
X2892500Y1385000D02*
X2895500D01*
X2894000Y1383500D02*
Y1386500D01*
X2892500Y1235000D02*
X2895500D01*
X2894000Y1233500D02*
Y1236500D01*
X2892500Y1265000D02*
X2895500D01*
X2894000Y1263500D02*
Y1266500D01*
X2892500Y1295000D02*
X2895500D01*
X2894000Y1293500D02*
Y1296500D01*
X2892500Y1205000D02*
X2895500D01*
X2894000Y1203500D02*
Y1206500D01*
X2892500Y1175000D02*
X2895500D01*
X2894000Y1173500D02*
Y1176500D01*
X3445500Y1625000D02*
X3448500D01*
X3447000Y1623500D02*
Y1626500D01*
X3445500Y1595000D02*
X3448500D01*
X3447000Y1593500D02*
Y1596500D01*
X3445500Y1565000D02*
X3448500D01*
X3447000Y1563500D02*
Y1566500D01*
X3445500Y1535000D02*
X3448500D01*
X3447000Y1533500D02*
Y1536500D01*
X3445500Y1505000D02*
X3448500D01*
X3447000Y1503500D02*
Y1506500D01*
X3445500Y1475000D02*
X3448500D01*
X3447000Y1473500D02*
Y1476500D01*
X3445500Y1445000D02*
X3448500D01*
X3447000Y1443500D02*
Y1446500D01*
X3445500Y1415000D02*
X3448500D01*
X3447000Y1413500D02*
Y1416500D01*
X3445500Y1325000D02*
X3448500D01*
X3447000Y1323500D02*
Y1326500D01*
X3445500Y1355000D02*
X3448500D01*
X3447000Y1353500D02*
Y1356500D01*
X3445500Y1385000D02*
X3448500D01*
X3447000Y1383500D02*
Y1386500D01*
X3445500Y1235000D02*
X3448500D01*
X3447000Y1233500D02*
Y1236500D01*
X3445500Y1265000D02*
X3448500D01*
X3447000Y1263500D02*
Y1266500D01*
X3445500Y1295000D02*
X3448500D01*
X3447000Y1293500D02*
Y1296500D01*
X3445500Y1205000D02*
X3448500D01*
X3447000Y1203500D02*
Y1206500D01*
X3445500Y1175000D02*
X3448500D01*
X3447000Y1173500D02*
Y1176500D01*
X3445500Y1655000D02*
X3448500D01*
X3447000Y1653500D02*
Y1656500D01*
X2892500Y1655000D02*
X2895500D01*
X2894000Y1653500D02*
Y1656500D01*
X3387599Y1164101D02*
X3390599D01*
X3389099Y1162601D02*
Y1165601D01*
X3037599Y1164101D02*
X3040599D01*
X3039099Y1162601D02*
Y1165601D01*
X3002599Y1146601D02*
X3005599D01*
X3004099Y1145101D02*
Y1148101D01*
X2967599Y1164101D02*
X2970599D01*
X2969099Y1162601D02*
Y1165601D01*
X3422599Y1181601D02*
X3425599D01*
X3424100Y1180101D02*
Y1183101D01*
X3002599Y1181601D02*
X3005599D01*
X3004099Y1180101D02*
Y1183101D01*
X2932599Y1181601D02*
X2935599D01*
X2934099Y1180101D02*
Y1183101D01*
X3107599Y1304101D02*
X3110599D01*
X3109099Y1302601D02*
Y1305601D01*
X3352599Y1321601D02*
X3355599D01*
X3354099Y1320101D02*
Y1323101D01*
X3037599Y1339101D02*
X3040599D01*
X3039099Y1337601D02*
Y1340601D01*
X3177599Y1409101D02*
X3180599D01*
X3179099Y1407601D02*
Y1410601D01*
X2967599Y1479101D02*
X2970599D01*
X2969099Y1477601D02*
Y1480601D01*
X2967599Y1514101D02*
X2970599D01*
X2969099Y1512601D02*
Y1515601D01*
X2932599Y1496601D02*
X2935599D01*
X2934099Y1495101D02*
Y1498101D01*
X3177599Y1549101D02*
X3180599D01*
X3179099Y1547601D02*
Y1550601D01*
X3212599Y1601601D02*
X3215599D01*
X3214099Y1600101D02*
Y1603101D01*
X3212599Y1636601D02*
X3215599D01*
X3214099Y1635101D02*
Y1638101D01*
X2967599Y1654101D02*
X2970599D01*
X2969099Y1652601D02*
Y1655601D01*
X3422599Y1671601D02*
X3425599D01*
X3424100Y1670101D02*
Y1673101D01*
X3107599Y1689101D02*
X3110599D01*
X3109099Y1687601D02*
Y1690601D01*
X3037599Y1689101D02*
X3040599D01*
X3039099Y1687601D02*
Y1690601D01*
X2967599Y1689101D02*
X2970599D01*
X2969099Y1687601D02*
Y1690601D01*
X2932599Y1671601D02*
X2935599D01*
X2934099Y1670101D02*
Y1673101D01*
X3055900Y1396300D02*
X3057900D01*
X3056900Y1395300D02*
Y1397300D01*
X3044900Y1396300D02*
X3046900D01*
X3045900Y1395300D02*
Y1397300D01*
X3033900Y1396300D02*
X3035900D01*
X3034900Y1395300D02*
Y1397300D01*
X3055900Y1407300D02*
X3057900D01*
X3056900Y1406300D02*
Y1408300D01*
X3044900Y1407300D02*
X3046900D01*
X3045900Y1406300D02*
Y1408300D01*
X3033900Y1407300D02*
X3035900D01*
X3034900Y1406300D02*
Y1408300D01*
X3055900Y1418300D02*
X3057900D01*
X3056900Y1417300D02*
Y1419300D01*
X3044900Y1418300D02*
X3046900D01*
X3045900Y1417300D02*
Y1419300D01*
X3033900Y1418300D02*
X3035900D01*
X3034900Y1417300D02*
Y1419300D01*
X3055900Y1429300D02*
X3057900D01*
X3056900Y1428300D02*
Y1430300D01*
X3044900Y1429300D02*
X3046900D01*
X3045900Y1428300D02*
Y1430300D01*
X3033900Y1429300D02*
X3035900D01*
X3034900Y1428300D02*
Y1430300D01*
X3055900Y1440300D02*
X3057900D01*
X3056900Y1439300D02*
Y1441300D01*
X3044900Y1440300D02*
X3046900D01*
X3045900Y1439300D02*
Y1441300D01*
X3033900Y1440300D02*
X3035900D01*
X3034900Y1439300D02*
Y1441300D01*
X3055900Y1243900D02*
X3057900D01*
X3056900Y1242900D02*
Y1244900D01*
X3044900Y1243900D02*
X3046900D01*
X3045900Y1242900D02*
Y1244900D01*
X3033900Y1243900D02*
X3035900D01*
X3034900Y1242900D02*
Y1244900D01*
X3055900Y1254900D02*
X3057900D01*
X3056900Y1253900D02*
Y1255900D01*
X3044900Y1254900D02*
X3046900D01*
X3045900Y1253900D02*
Y1255900D01*
X3033900Y1254900D02*
X3035900D01*
X3034900Y1253900D02*
Y1255900D01*
X3055900Y1265900D02*
X3057900D01*
X3056900Y1264900D02*
Y1266900D01*
X3044900Y1265900D02*
X3046900D01*
X3045900Y1264900D02*
Y1266900D01*
X3033900Y1265900D02*
X3035900D01*
X3034900Y1264900D02*
Y1266900D01*
X3055900Y1276900D02*
X3057900D01*
X3056900Y1275900D02*
Y1277900D01*
X3044900Y1276900D02*
X3046900D01*
X3045900Y1275900D02*
Y1277900D01*
X3033900Y1276900D02*
X3035900D01*
X3034900Y1275900D02*
Y1277900D01*
X3055900Y1287900D02*
X3057900D01*
X3056900Y1286900D02*
Y1288900D01*
X3044900Y1287900D02*
X3046900D01*
X3045900Y1286900D02*
Y1288900D01*
X3033900Y1287900D02*
X3035900D01*
X3034900Y1286900D02*
Y1288900D01*
X2902000Y810000D02*
X2928000D01*
X2915000Y797000D02*
Y823000D01*
X2902000Y1080000D02*
X2928000D01*
X2915000Y1067000D02*
Y1093000D01*
X3602000Y1080000D02*
X3628000D01*
X3615000Y1067000D02*
Y1093000D01*
X3602000Y810000D02*
X3628000D01*
X3615000Y797000D02*
Y823000D01*
X3226000Y882500D02*
X3229000D01*
X3227500Y881000D02*
Y884000D01*
X3217500Y882500D02*
X3220500D01*
X3219000Y881000D02*
Y884000D01*
X3209000Y882500D02*
X3212000D01*
X3210500Y881000D02*
Y884000D01*
X3200500Y882500D02*
X3203500D01*
X3202000Y881000D02*
Y884000D01*
X3192000Y882500D02*
X3195000D01*
X3193500Y881000D02*
Y884000D01*
X3183500Y882500D02*
X3186500D01*
X3185000Y881000D02*
Y884000D01*
X3438500Y1060000D02*
X3441500D01*
X3440000Y1058500D02*
Y1061500D01*
X3418500Y1012500D02*
X3421500D01*
X3420000Y1011000D02*
Y1014000D01*
X3473500Y967500D02*
X3476500D01*
X3475000Y966000D02*
Y969000D01*
X3473500Y987500D02*
X3476500D01*
X3475000Y986000D02*
Y989000D01*
X3473750Y922500D02*
X3476750D01*
X3475250Y921000D02*
Y924000D01*
X3461000Y815000D02*
X3464000D01*
X3462500Y813500D02*
Y816500D01*
X3282505Y1038495D02*
X3285505D01*
X3284005Y1036995D02*
Y1039995D01*
X3436000Y961250D02*
X3439000D01*
X3437500Y959750D02*
Y962750D01*
X3436000Y952750D02*
X3439000D01*
X3437500Y951250D02*
Y954250D01*
X3431000Y944000D02*
X3434000D01*
X3432500Y942500D02*
Y945500D01*
X3442092Y914250D02*
X3445092D01*
X3443592Y912750D02*
Y915750D01*
X3451000Y920000D02*
X3454000D01*
X3452500Y918500D02*
Y921500D01*
X3428500Y920000D02*
X3431500D01*
X3430000Y918500D02*
Y921500D01*
X3431000Y935000D02*
X3434000D01*
X3432500Y933500D02*
Y936500D01*
X3436000Y927250D02*
X3439000D01*
X3437500Y925750D02*
Y928750D01*
X3436000Y837500D02*
X3439000D01*
X3437500Y836000D02*
Y839000D01*
X3443500Y830000D02*
X3446500D01*
X3445000Y828500D02*
Y831500D01*
X3333500Y850000D02*
X3336500D01*
X3335000Y848500D02*
Y851500D01*
X3333500Y815000D02*
X3336500D01*
X3335000Y813500D02*
Y816500D01*
X3253998Y862998D02*
X3256998D01*
X3255498Y861498D02*
Y864498D01*
X3253500Y822500D02*
X3256500D01*
X3255000Y821000D02*
Y824000D01*
X3148500Y842500D02*
X3151500D01*
X3150000Y841000D02*
Y844000D01*
X3161000Y830000D02*
X3164000D01*
X3162500Y828500D02*
Y831500D01*
X3161000Y817500D02*
X3164000D01*
X3162500Y816000D02*
Y819000D01*
X3213500Y817500D02*
X3216500D01*
X3215000Y816000D02*
Y819000D01*
X3158500Y862500D02*
X3161500D01*
X3160000Y861000D02*
Y864000D01*
X3276000Y840000D02*
X3279000D01*
X3277500Y838500D02*
Y841500D01*
X3276000Y855000D02*
X3279000D01*
X3277500Y853500D02*
Y856500D01*
X3103500Y1012500D02*
X3106500D01*
X3105000Y1011000D02*
Y1014000D01*
X3121000Y992500D02*
X3124000D01*
X3122500Y991000D02*
Y994000D01*
X3120500Y965500D02*
X3123500D01*
X3122000Y964000D02*
Y967000D01*
X3381000Y1027500D02*
X3384000D01*
X3382500Y1026000D02*
Y1029000D01*
X3346000Y875000D02*
X3349000D01*
X3347500Y873500D02*
Y876500D01*
X3451000Y962500D02*
X3454000D01*
X3452500Y961000D02*
Y964000D01*
X3083500Y942500D02*
X3086500D01*
X3085000Y941000D02*
Y944000D01*
X3063500Y942500D02*
X3066500D01*
X3065000Y941000D02*
Y944000D01*
X3346000Y960000D02*
X3349001D01*
X3347501Y958500D02*
Y961500D01*
X3346000Y885000D02*
X3349000D01*
X3347500Y883500D02*
Y886500D01*
X3181000Y862500D02*
X3184000D01*
X3182500Y861000D02*
Y864000D01*
X3258500Y885000D02*
X3261500D01*
X3260000Y883500D02*
Y886500D01*
X3071000Y885000D02*
X3074000D01*
X3072500Y883500D02*
Y886500D01*
X3071000Y895000D02*
X3074000D01*
X3072500Y893500D02*
Y896500D01*
X3083500Y870000D02*
X3086500D01*
X3085000Y868500D02*
Y871500D01*
X3161000Y1005000D02*
X3164000D01*
X3162500Y1003500D02*
Y1006500D01*
X3248500Y1005000D02*
X3251500D01*
X3250000Y1003500D02*
Y1006500D01*
X3496000Y855000D02*
X3499000D01*
X3497500Y853500D02*
Y856500D01*
X3496000Y1035000D02*
X3499000D01*
X3497500Y1033500D02*
Y1036500D01*
X44502Y1498001D02*
X53502D01*
X49002Y1493501D02*
Y1502501D01*
X44502Y1542001D02*
X53502D01*
X49002Y1537502D02*
Y1546501D01*
X2826498Y1624499D02*
X2835498D01*
X2830998Y1619999D02*
Y1628999D01*
X2826498Y1580499D02*
X2835498D01*
X2830998Y1575999D02*
Y1584998D01*
X2509501Y1510000D02*
X2550501D01*
X2530001Y1489500D02*
Y1530500D01*
X2470451Y1510000D02*
X2487951D01*
X2479201Y1501250D02*
Y1518750D01*
X2572051Y1510000D02*
X2589551D01*
X2580801Y1501250D02*
Y1518750D01*
X2484151Y1535400D02*
X2499651D01*
X2491901Y1527650D02*
Y1543150D01*
X2547651Y1560800D02*
X2563151D01*
X2555401Y1553050D02*
Y1568550D01*
X63750Y1375500D02*
X67250D01*
X65500Y1373750D02*
Y1377250D01*
X47750Y1375500D02*
X51250D01*
X49500Y1373750D02*
Y1377250D01*
X55750Y1382500D02*
X59250D01*
X57500Y1380750D02*
Y1384250D01*
X63750Y1388500D02*
X67250D01*
X65500Y1386750D02*
Y1390250D01*
X47750Y1388500D02*
X51250D01*
X49500Y1386750D02*
Y1390250D01*
X62750Y1592500D02*
X72250D01*
X67500Y1587750D02*
Y1597250D01*
X62750Y1620000D02*
X72250D01*
X67500Y1615250D02*
Y1624750D01*
X609501Y1510001D02*
X650500D01*
X630000Y1489501D02*
Y1530501D01*
X570451Y1510001D02*
X587951D01*
X579201Y1501251D02*
Y1518751D01*
X672050Y1510001D02*
X689550D01*
X680800Y1501251D02*
Y1518751D01*
X584151Y1535401D02*
X599650D01*
X591900Y1527651D02*
Y1543151D01*
X647651Y1560801D02*
X663150D01*
X655400Y1553051D02*
Y1568551D01*
X2357651Y1750801D02*
X2373151D01*
X2365401Y1743051D02*
Y1758551D01*
X2294151Y1725401D02*
X2309651D01*
X2301901Y1717651D02*
Y1733151D01*
X2382051Y1700001D02*
X2399551D01*
X2390801Y1691251D02*
Y1708751D01*
X2280451Y1700001D02*
X2297951D01*
X2289201Y1691251D02*
Y1708751D01*
X2319501Y1700001D02*
X2360501D01*
X2340001Y1679501D02*
Y1720501D01*
X2129501Y1700001D02*
X2170501D01*
X2150001Y1679501D02*
Y1720501D01*
X2090451Y1700001D02*
X2107951D01*
X2099201Y1691251D02*
Y1708751D01*
X2192051Y1700001D02*
X2209551D01*
X2200801Y1691251D02*
Y1708751D01*
X2104151Y1725401D02*
X2119651D01*
X2111901Y1717651D02*
Y1733151D01*
X2167651Y1750801D02*
X2183151D01*
X2175401Y1743051D02*
Y1758551D01*
X2632750Y1830000D02*
X2642250D01*
X2637500Y1825250D02*
Y1834750D01*
X2658150Y1830000D02*
X2667650D01*
X2662900Y1825250D02*
Y1834750D01*
X2683550Y1830000D02*
X2693050D01*
X2688300Y1825250D02*
Y1834750D01*
X2642651Y1180800D02*
X2658151D01*
X2650401Y1173050D02*
Y1188550D01*
X2579151Y1155400D02*
X2594651D01*
X2586901Y1147650D02*
Y1163150D01*
X2667051Y1130000D02*
X2684551D01*
X2675801Y1121250D02*
Y1138750D01*
X2565451Y1130000D02*
X2582951D01*
X2574201Y1121250D02*
Y1138750D01*
X2604501Y1130000D02*
X2645501D01*
X2625001Y1109500D02*
Y1150500D01*
X2678152Y889200D02*
X2685652D01*
X2681902Y885450D02*
Y892950D01*
X2754352Y889200D02*
X2761852D01*
X2758102Y885450D02*
Y892950D01*
X2728951Y889200D02*
X2736451D01*
X2732701Y885450D02*
Y892950D01*
X2703551Y889200D02*
X2711051D01*
X2707301Y885450D02*
Y892950D01*
X2488150Y889200D02*
X2495650D01*
X2491900Y885450D02*
Y892950D01*
X2564350Y889200D02*
X2571850D01*
X2568100Y885450D02*
Y892950D01*
X2538950Y889200D02*
X2546450D01*
X2542700Y885450D02*
Y892950D01*
X2513550Y889200D02*
X2521050D01*
X2517300Y885450D02*
Y892950D01*
X2298151Y889200D02*
X2305651D01*
X2301901Y885450D02*
Y892950D01*
X2374351Y889200D02*
X2381851D01*
X2378101Y885450D02*
Y892950D01*
X2348951Y889200D02*
X2356451D01*
X2352701Y885450D02*
Y892950D01*
X2323551Y889200D02*
X2331051D01*
X2327301Y885450D02*
Y892950D01*
X2085650Y889200D02*
X2093150D01*
X2089400Y885450D02*
Y892950D01*
X2161850Y889200D02*
X2169350D01*
X2165600Y885450D02*
Y892950D01*
X2136450Y889200D02*
X2143950D01*
X2140200Y885450D02*
Y892950D01*
X2111050Y889200D02*
X2118550D01*
X2114800Y885450D02*
Y892950D01*
X1850650Y889200D02*
X1858150D01*
X1854400Y885450D02*
Y892950D01*
X1926850Y889200D02*
X1934350D01*
X1930600Y885450D02*
Y892950D01*
X1901450Y889200D02*
X1908950D01*
X1905200Y885450D02*
Y892950D01*
X1876050Y889200D02*
X1883550D01*
X1879800Y885450D02*
Y892950D01*
X1538150Y889200D02*
X1545650D01*
X1541900Y885450D02*
Y892950D01*
X1614350Y889200D02*
X1621850D01*
X1618100Y885450D02*
Y892950D01*
X1588950Y889200D02*
X1596450D01*
X1592700Y885450D02*
Y892950D01*
X1563550Y889200D02*
X1571050D01*
X1567300Y885450D02*
Y892950D01*
X1278550Y889200D02*
X1286050D01*
X1282300Y885450D02*
Y892950D01*
X1303950Y889200D02*
X1311450D01*
X1307700Y885450D02*
Y892950D01*
X1329350Y889200D02*
X1336850D01*
X1333100Y885450D02*
Y892950D01*
X1253150Y889200D02*
X1260650D01*
X1256900Y885450D02*
Y892950D01*
X2745000Y1105000D02*
X2754000D01*
X2749500Y1100500D02*
Y1109500D01*
X2821000Y1105000D02*
X2830000D01*
X2825500Y1100500D02*
Y1109500D01*
X2828000Y881500D02*
X2837000D01*
X2832500Y877000D02*
Y886000D01*
X2828000Y906900D02*
X2837000D01*
X2832500Y902400D02*
Y911400D01*
X2828000Y932300D02*
X2837000D01*
X2832500Y927800D02*
Y936800D01*
X2828000Y957700D02*
X2837000D01*
X2832500Y953200D02*
Y962200D01*
X2828000Y983100D02*
X2837000D01*
X2832500Y978600D02*
Y987600D01*
X2828000Y1008500D02*
X2837000D01*
X2832500Y1004000D02*
Y1013000D01*
X143550Y1649200D02*
X151050D01*
X147300Y1645450D02*
Y1652950D01*
X168950Y1649200D02*
X176450D01*
X172700Y1645450D02*
Y1652950D01*
X194350Y1649200D02*
X201850D01*
X198100Y1645450D02*
Y1652950D01*
X118150Y1649200D02*
X125650D01*
X121900Y1645450D02*
Y1652950D01*
X423550Y1649200D02*
X431050D01*
X427300Y1645450D02*
Y1652950D01*
X448950Y1649200D02*
X456450D01*
X452700Y1645450D02*
Y1652950D01*
X474350Y1649200D02*
X481850D01*
X478100Y1645450D02*
Y1652950D01*
X398150Y1649200D02*
X405650D01*
X401900Y1645450D02*
Y1652950D01*
X613550Y1649200D02*
X621050D01*
X617300Y1645450D02*
Y1652950D01*
X638950Y1649200D02*
X646450D01*
X642700Y1645450D02*
Y1652950D01*
X664350Y1649200D02*
X671850D01*
X668100Y1645450D02*
Y1652950D01*
X588150Y1649200D02*
X595650D01*
X591900Y1645450D02*
Y1652950D01*
X778150Y1649200D02*
X785650D01*
X781900Y1645450D02*
Y1652950D01*
X854350Y1649200D02*
X861850D01*
X858100Y1645450D02*
Y1652950D01*
X828950Y1649200D02*
X836450D01*
X832700Y1645450D02*
Y1652950D01*
X803550Y1649200D02*
X811050D01*
X807300Y1645450D02*
Y1652950D01*
X993550Y1649200D02*
X1001050D01*
X997300Y1645450D02*
Y1652950D01*
X1018950Y1649200D02*
X1026450D01*
X1022700Y1645450D02*
Y1652950D01*
X1044350Y1649200D02*
X1051850D01*
X1048100Y1645450D02*
Y1652950D01*
X968150Y1649200D02*
X975650D01*
X971900Y1645450D02*
Y1652950D01*
X1158150Y1649200D02*
X1165650D01*
X1161900Y1645450D02*
Y1652950D01*
X1234350Y1649200D02*
X1241850D01*
X1238100Y1645450D02*
Y1652950D01*
X1208950Y1649200D02*
X1216450D01*
X1212700Y1645450D02*
Y1652950D01*
X1183550Y1649200D02*
X1191050D01*
X1187300Y1645450D02*
Y1652950D01*
X1373550Y1649200D02*
X1381050D01*
X1377300Y1645450D02*
Y1652950D01*
X1398950Y1649200D02*
X1406450D01*
X1402700Y1645450D02*
Y1652950D01*
X1424350Y1649200D02*
X1431850D01*
X1428100Y1645450D02*
Y1652950D01*
X1348150Y1649200D02*
X1355650D01*
X1351900Y1645450D02*
Y1652950D01*
X1538150Y1649200D02*
X1545650D01*
X1541900Y1645450D02*
Y1652950D01*
X1614350Y1649200D02*
X1621850D01*
X1618100Y1645450D02*
Y1652950D01*
X1588950Y1649200D02*
X1596450D01*
X1592700Y1645450D02*
Y1652950D01*
X1563550Y1649200D02*
X1571050D01*
X1567300Y1645450D02*
Y1652950D01*
X1753550Y1649200D02*
X1761050D01*
X1757300Y1645450D02*
Y1652950D01*
X1778950Y1649200D02*
X1786450D01*
X1782700Y1645450D02*
Y1652950D01*
X1804350Y1649200D02*
X1811850D01*
X1808100Y1645450D02*
Y1652950D01*
X1728150Y1649200D02*
X1735650D01*
X1731900Y1645450D02*
Y1652950D01*
X1918150Y1649200D02*
X1925650D01*
X1921900Y1645450D02*
Y1652950D01*
X1994350Y1649200D02*
X2001850D01*
X1998100Y1645450D02*
Y1652950D01*
X1968950Y1649200D02*
X1976450D01*
X1972700Y1645450D02*
Y1652950D01*
X1943550Y1649200D02*
X1951050D01*
X1947300Y1645450D02*
Y1652950D01*
X2133551Y1649200D02*
X2141051D01*
X2137301Y1645450D02*
Y1652950D01*
X2158951Y1649200D02*
X2166451D01*
X2162701Y1645450D02*
Y1652950D01*
X2184351Y1649200D02*
X2191851D01*
X2188101Y1645450D02*
Y1652950D01*
X2108151Y1649200D02*
X2115651D01*
X2111901Y1645450D02*
Y1652950D01*
X2298151Y1649200D02*
X2305651D01*
X2301901Y1645450D02*
Y1652950D01*
X2374351Y1649200D02*
X2381851D01*
X2378101Y1645450D02*
Y1652950D01*
X2348951Y1649200D02*
X2356451D01*
X2352701Y1645450D02*
Y1652950D01*
X2323551Y1649200D02*
X2331051D01*
X2327301Y1645450D02*
Y1652950D01*
X2488150Y1649200D02*
X2495650D01*
X2491900Y1645450D02*
Y1652950D01*
X2564350Y1649200D02*
X2571850D01*
X2568100Y1645450D02*
Y1652950D01*
X2538950Y1649200D02*
X2546450D01*
X2542700Y1645450D02*
Y1652950D01*
X2513550Y1649200D02*
X2521050D01*
X2517300Y1645450D02*
Y1652950D01*
X2703551Y1649200D02*
X2711051D01*
X2707301Y1645450D02*
Y1652950D01*
X2728951Y1649200D02*
X2736451D01*
X2732701Y1645450D02*
Y1652950D01*
X2754352Y1649200D02*
X2761852D01*
X2758102Y1645450D02*
Y1652950D01*
X2678152Y1649200D02*
X2685652D01*
X2681902Y1645450D02*
Y1652950D01*
X163149Y1459201D02*
X170649D01*
X166899Y1455451D02*
Y1462951D01*
X239349Y1459201D02*
X246849D01*
X243099Y1455451D02*
Y1462951D01*
X213949Y1459201D02*
X221449D01*
X217699Y1455451D02*
Y1462951D01*
X188549Y1459201D02*
X196049D01*
X192299Y1455451D02*
Y1462951D01*
X423550Y1459201D02*
X431050D01*
X427300Y1455451D02*
Y1462951D01*
X448950Y1459201D02*
X456450D01*
X452700Y1455451D02*
Y1462951D01*
X474350Y1459201D02*
X481850D01*
X478100Y1455451D02*
Y1462951D01*
X398150Y1459201D02*
X405650D01*
X401900Y1455451D02*
Y1462951D01*
X588150Y1459201D02*
X595650D01*
X591900Y1455451D02*
Y1462951D01*
X664350Y1459201D02*
X671850D01*
X668100Y1455451D02*
Y1462951D01*
X638950Y1459201D02*
X646450D01*
X642700Y1455451D02*
Y1462951D01*
X613550Y1459201D02*
X621050D01*
X617300Y1455451D02*
Y1462951D01*
X803550Y1459201D02*
X811050D01*
X807300Y1455451D02*
Y1462951D01*
X828950Y1459201D02*
X836450D01*
X832700Y1455451D02*
Y1462951D01*
X854350Y1459201D02*
X861850D01*
X858100Y1455451D02*
Y1462951D01*
X778150Y1459201D02*
X785650D01*
X781900Y1455451D02*
Y1462951D01*
X968150Y1459201D02*
X975650D01*
X971900Y1455451D02*
Y1462951D01*
X1044350Y1459201D02*
X1051850D01*
X1048100Y1455451D02*
Y1462951D01*
X1018950Y1459201D02*
X1026450D01*
X1022700Y1455451D02*
Y1462951D01*
X993550Y1459201D02*
X1001050D01*
X997300Y1455451D02*
Y1462951D01*
X1183550Y1459201D02*
X1191050D01*
X1187300Y1455451D02*
Y1462951D01*
X1208950Y1459201D02*
X1216450D01*
X1212700Y1455451D02*
Y1462951D01*
X1234350Y1459201D02*
X1241850D01*
X1238100Y1455451D02*
Y1462951D01*
X1158150Y1459201D02*
X1165650D01*
X1161900Y1455451D02*
Y1462951D01*
X1348150Y1459201D02*
X1355650D01*
X1351900Y1455451D02*
Y1462951D01*
X1424350Y1459201D02*
X1431850D01*
X1428100Y1455451D02*
Y1462951D01*
X1398950Y1459201D02*
X1406450D01*
X1402700Y1455451D02*
Y1462951D01*
X1373550Y1459201D02*
X1381050D01*
X1377300Y1455451D02*
Y1462951D01*
X1563550Y1459201D02*
X1571050D01*
X1567300Y1455451D02*
Y1462951D01*
X1588950Y1459201D02*
X1596450D01*
X1592700Y1455451D02*
Y1462951D01*
X1614350Y1459201D02*
X1621850D01*
X1618100Y1455451D02*
Y1462951D01*
X1538150Y1459201D02*
X1545650D01*
X1541900Y1455451D02*
Y1462951D01*
X1728150Y1459201D02*
X1735650D01*
X1731900Y1455451D02*
Y1462951D01*
X1804350Y1459201D02*
X1811850D01*
X1808100Y1455451D02*
Y1462951D01*
X1778950Y1459201D02*
X1786450D01*
X1782700Y1455451D02*
Y1462951D01*
X1753550Y1459201D02*
X1761050D01*
X1757300Y1455451D02*
Y1462951D01*
X1943550Y1459201D02*
X1951050D01*
X1947300Y1455451D02*
Y1462951D01*
X1968950Y1459201D02*
X1976450D01*
X1972700Y1455451D02*
Y1462951D01*
X1994350Y1459201D02*
X2001850D01*
X1998100Y1455451D02*
Y1462951D01*
X1918150Y1459201D02*
X1925650D01*
X1921900Y1455451D02*
Y1462951D01*
X2108150Y1459201D02*
X2115650D01*
X2111900Y1455451D02*
Y1462951D01*
X2184350Y1459201D02*
X2191850D01*
X2188100Y1455451D02*
Y1462951D01*
X2158950Y1459201D02*
X2166450D01*
X2162700Y1455451D02*
Y1462951D01*
X2133550Y1459201D02*
X2141050D01*
X2137300Y1455451D02*
Y1462951D01*
X2323550Y1459201D02*
X2331050D01*
X2327300Y1455451D02*
Y1462951D01*
X2348950Y1459201D02*
X2356450D01*
X2352700Y1455451D02*
Y1462951D01*
X2374350Y1459201D02*
X2381850D01*
X2378100Y1455451D02*
Y1462951D01*
X2298150Y1459201D02*
X2305650D01*
X2301900Y1455451D02*
Y1462951D01*
X2488150Y1459201D02*
X2495650D01*
X2491900Y1455451D02*
Y1462951D01*
X2564350Y1459201D02*
X2571850D01*
X2568100Y1455451D02*
Y1462951D01*
X2538950Y1459201D02*
X2546450D01*
X2542700Y1455451D02*
Y1462951D01*
X2513550Y1459201D02*
X2521050D01*
X2517300Y1455451D02*
Y1462951D01*
X2703550Y1364203D02*
X2711050D01*
X2707300Y1360453D02*
Y1367953D01*
X2728950Y1364203D02*
X2736450D01*
X2732700Y1360453D02*
Y1367953D01*
X2754350Y1364203D02*
X2761850D01*
X2758100Y1360453D02*
Y1367953D01*
X2678150Y1364203D02*
X2685650D01*
X2681900Y1360453D02*
Y1367953D01*
X163150Y1269201D02*
X170650D01*
X166900Y1265451D02*
Y1272951D01*
X239350Y1269201D02*
X246850D01*
X243100Y1265451D02*
Y1272951D01*
X213950Y1269201D02*
X221450D01*
X217700Y1265451D02*
Y1272951D01*
X188550Y1269201D02*
X196050D01*
X192300Y1265451D02*
Y1272951D01*
X423550Y1269201D02*
X431050D01*
X427300Y1265451D02*
Y1272951D01*
X448950Y1269201D02*
X456450D01*
X452700Y1265451D02*
Y1272951D01*
X474350Y1269201D02*
X481850D01*
X478100Y1265451D02*
Y1272951D01*
X398150Y1269201D02*
X405650D01*
X401900Y1265451D02*
Y1272951D01*
X588150Y1269201D02*
X595650D01*
X591900Y1265451D02*
Y1272951D01*
X664350Y1269201D02*
X671850D01*
X668100Y1265451D02*
Y1272951D01*
X638950Y1269201D02*
X646450D01*
X642700Y1265451D02*
Y1272951D01*
X613550Y1269201D02*
X621050D01*
X617300Y1265451D02*
Y1272951D01*
X803550Y1269201D02*
X811050D01*
X807300Y1265451D02*
Y1272951D01*
X828950Y1269201D02*
X836450D01*
X832700Y1265451D02*
Y1272951D01*
X854350Y1269201D02*
X861850D01*
X858100Y1265451D02*
Y1272951D01*
X778150Y1269201D02*
X785650D01*
X781900Y1265451D02*
Y1272951D01*
X968151Y1269201D02*
X975651D01*
X971901Y1265451D02*
Y1272951D01*
X1044351Y1269201D02*
X1051851D01*
X1048101Y1265451D02*
Y1272951D01*
X1018951Y1269201D02*
X1026451D01*
X1022701Y1265451D02*
Y1272951D01*
X993551Y1269201D02*
X1001051D01*
X997301Y1265451D02*
Y1272951D01*
X1183550Y1269201D02*
X1191050D01*
X1187300Y1265451D02*
Y1272951D01*
X1208950Y1269201D02*
X1216450D01*
X1212700Y1265451D02*
Y1272951D01*
X1234350Y1269201D02*
X1241850D01*
X1238100Y1265451D02*
Y1272951D01*
X1158150Y1269201D02*
X1165650D01*
X1161900Y1265451D02*
Y1272951D01*
X1348150Y1269201D02*
X1355650D01*
X1351900Y1265451D02*
Y1272951D01*
X1424350Y1269201D02*
X1431850D01*
X1428100Y1265451D02*
Y1272951D01*
X1398950Y1269201D02*
X1406450D01*
X1402700Y1265451D02*
Y1272951D01*
X1373550Y1269201D02*
X1381050D01*
X1377300Y1265451D02*
Y1272951D01*
X1563550Y1269201D02*
X1571050D01*
X1567300Y1265451D02*
Y1272951D01*
X1588950Y1269201D02*
X1596450D01*
X1592700Y1265451D02*
Y1272951D01*
X1614350Y1269201D02*
X1621850D01*
X1618100Y1265451D02*
Y1272951D01*
X1538150Y1269201D02*
X1545650D01*
X1541900Y1265451D02*
Y1272951D01*
X1728150Y1269201D02*
X1735650D01*
X1731900Y1265451D02*
Y1272951D01*
X1804350Y1269201D02*
X1811850D01*
X1808100Y1265451D02*
Y1272951D01*
X1778950Y1269201D02*
X1786450D01*
X1782700Y1265451D02*
Y1272951D01*
X1753550Y1269201D02*
X1761050D01*
X1757300Y1265451D02*
Y1272951D01*
X1943550Y1269201D02*
X1951050D01*
X1947300Y1265451D02*
Y1272951D01*
X1968950Y1269201D02*
X1976450D01*
X1972700Y1265451D02*
Y1272951D01*
X1994350Y1269201D02*
X2001850D01*
X1998100Y1265451D02*
Y1272951D01*
X1918150Y1269201D02*
X1925650D01*
X1921900Y1265451D02*
Y1272951D01*
X2108150Y1269201D02*
X2115650D01*
X2111900Y1265451D02*
Y1272951D01*
X2184350Y1269201D02*
X2191850D01*
X2188100Y1265451D02*
Y1272951D01*
X2158950Y1269201D02*
X2166450D01*
X2162700Y1265451D02*
Y1272951D01*
X2133550Y1269201D02*
X2141050D01*
X2137300Y1265451D02*
Y1272951D01*
X2323551Y1269201D02*
X2331051D01*
X2327301Y1265451D02*
Y1272951D01*
X2348951Y1269201D02*
X2356451D01*
X2352701Y1265451D02*
Y1272951D01*
X2374351Y1269201D02*
X2381851D01*
X2378101Y1265451D02*
Y1272951D01*
X2298151Y1269201D02*
X2305651D01*
X2301901Y1265451D02*
Y1272951D01*
X2488150Y1269201D02*
X2495650D01*
X2491900Y1265451D02*
Y1272951D01*
X2564350Y1269201D02*
X2571850D01*
X2568100Y1265451D02*
Y1272951D01*
X2538950Y1269201D02*
X2546450D01*
X2542700Y1265451D02*
Y1272951D01*
X2513550Y1269201D02*
X2521050D01*
X2517300Y1265451D02*
Y1272951D01*
X188550Y1079201D02*
X196050D01*
X192300Y1075451D02*
Y1082951D01*
X213950Y1079201D02*
X221450D01*
X217700Y1075451D02*
Y1082951D01*
X239350Y1079201D02*
X246850D01*
X243100Y1075451D02*
Y1082951D01*
X163150Y1079201D02*
X170650D01*
X166900Y1075451D02*
Y1082951D01*
X398150Y1079201D02*
X405650D01*
X401900Y1075451D02*
Y1082951D01*
X474350Y1079201D02*
X481850D01*
X478100Y1075451D02*
Y1082951D01*
X448950Y1079201D02*
X456450D01*
X452700Y1075451D02*
Y1082951D01*
X423550Y1079201D02*
X431050D01*
X427300Y1075451D02*
Y1082951D01*
X613550Y1079201D02*
X621050D01*
X617300Y1075451D02*
Y1082951D01*
X638950Y1079201D02*
X646450D01*
X642700Y1075451D02*
Y1082951D01*
X664350Y1079201D02*
X671850D01*
X668100Y1075451D02*
Y1082951D01*
X588150Y1079201D02*
X595650D01*
X591900Y1075451D02*
Y1082951D01*
X778150Y1079201D02*
X785650D01*
X781900Y1075451D02*
Y1082951D01*
X854350Y1079201D02*
X861850D01*
X858100Y1075451D02*
Y1082951D01*
X828950Y1079201D02*
X836450D01*
X832700Y1075451D02*
Y1082951D01*
X803550Y1079201D02*
X811050D01*
X807300Y1075451D02*
Y1082951D01*
X993551Y1079201D02*
X1001051D01*
X997301Y1075451D02*
Y1082951D01*
X1018951Y1079201D02*
X1026451D01*
X1022701Y1075451D02*
Y1082951D01*
X1044351Y1079201D02*
X1051851D01*
X1048101Y1075451D02*
Y1082951D01*
X968151Y1079201D02*
X975651D01*
X971901Y1075451D02*
Y1082951D01*
X1158151Y1079201D02*
X1165651D01*
X1161901Y1075451D02*
Y1082951D01*
X1234352Y1079201D02*
X1241852D01*
X1238102Y1075451D02*
Y1082951D01*
X1208951Y1079201D02*
X1216451D01*
X1212701Y1075451D02*
Y1082951D01*
X1183551Y1079201D02*
X1191051D01*
X1187301Y1075451D02*
Y1082951D01*
X1348150Y1079201D02*
X1355650D01*
X1351900Y1075451D02*
Y1082951D01*
X1424350Y1079201D02*
X1431850D01*
X1428100Y1075451D02*
Y1082951D01*
X1398950Y1079201D02*
X1406450D01*
X1402700Y1075451D02*
Y1082951D01*
X1373550Y1079201D02*
X1381050D01*
X1377300Y1075451D02*
Y1082951D01*
X1563550Y1079201D02*
X1571050D01*
X1567300Y1075451D02*
Y1082951D01*
X1588950Y1079201D02*
X1596450D01*
X1592700Y1075451D02*
Y1082951D01*
X1614350Y1079201D02*
X1621850D01*
X1618100Y1075451D02*
Y1082951D01*
X1538150Y1079201D02*
X1545650D01*
X1541900Y1075451D02*
Y1082951D01*
X1728150Y1079201D02*
X1735650D01*
X1731900Y1075451D02*
Y1082951D01*
X1804350Y1079201D02*
X1811850D01*
X1808100Y1075451D02*
Y1082951D01*
X1778950Y1079201D02*
X1786450D01*
X1782700Y1075451D02*
Y1082951D01*
X1753550Y1079201D02*
X1761050D01*
X1757300Y1075451D02*
Y1082951D01*
X1943550Y1079201D02*
X1951050D01*
X1947300Y1075451D02*
Y1082951D01*
X1968950Y1079201D02*
X1976450D01*
X1972700Y1075451D02*
Y1082951D01*
X1994350Y1079201D02*
X2001850D01*
X1998100Y1075451D02*
Y1082951D01*
X1918150Y1079201D02*
X1925650D01*
X1921900Y1075451D02*
Y1082951D01*
X2108150Y1079201D02*
X2115650D01*
X2111900Y1075451D02*
Y1082951D01*
X2184350Y1079201D02*
X2191850D01*
X2188100Y1075451D02*
Y1082951D01*
X2158950Y1079201D02*
X2166450D01*
X2162700Y1075451D02*
Y1082951D01*
X2133550Y1079201D02*
X2141050D01*
X2137300Y1075451D02*
Y1082951D01*
X2323551Y1079201D02*
X2331051D01*
X2327301Y1075451D02*
Y1082951D01*
X2348951Y1079201D02*
X2356451D01*
X2352701Y1075451D02*
Y1082951D01*
X2374351Y1079201D02*
X2381851D01*
X2378101Y1075451D02*
Y1082951D01*
X2298151Y1079201D02*
X2305651D01*
X2301901Y1075451D02*
Y1082951D01*
X2583151Y1079201D02*
X2590651D01*
X2586901Y1075451D02*
Y1082951D01*
X2659351Y1079201D02*
X2666851D01*
X2663101Y1075451D02*
Y1082951D01*
X2633951Y1079201D02*
X2641451D01*
X2637701Y1075451D02*
Y1082951D01*
X2608551Y1079201D02*
X2616051D01*
X2612301Y1075451D02*
Y1082951D01*
X188550Y889200D02*
X196050D01*
X192300Y885450D02*
Y892950D01*
X213950Y889200D02*
X221450D01*
X217700Y885450D02*
Y892950D01*
X239350Y889200D02*
X246850D01*
X243100Y885450D02*
Y892950D01*
X163150Y889200D02*
X170650D01*
X166900Y885450D02*
Y892950D01*
X420650Y889200D02*
X428150D01*
X424400Y885450D02*
Y892950D01*
X496850Y889200D02*
X504350D01*
X500600Y885450D02*
Y892950D01*
X471450Y889200D02*
X478950D01*
X475200Y885450D02*
Y892950D01*
X446050Y889200D02*
X453550D01*
X449800Y885450D02*
Y892950D01*
X681049Y889200D02*
X688549D01*
X684799Y885450D02*
Y892950D01*
X706449Y889200D02*
X713949D01*
X710199Y885450D02*
Y892950D01*
X731849Y889200D02*
X739349D01*
X735599Y885450D02*
Y892950D01*
X655649Y889200D02*
X663149D01*
X659399Y885450D02*
Y892950D01*
X968150Y889200D02*
X975650D01*
X971900Y885450D02*
Y892950D01*
X1044350Y889200D02*
X1051850D01*
X1048100Y885450D02*
Y892950D01*
X1018950Y889200D02*
X1026450D01*
X1022700Y885450D02*
Y892950D01*
X993550Y889200D02*
X1001050D01*
X997300Y885450D02*
Y892950D01*
X2699500Y940000D02*
X2740500D01*
X2720001Y919500D02*
Y960500D01*
X2660450Y940000D02*
X2677950D01*
X2669200Y931250D02*
Y948750D01*
X2762050Y940000D02*
X2779550D01*
X2770800Y931250D02*
Y948750D01*
X2674150Y965400D02*
X2689651D01*
X2681901Y957650D02*
Y973150D01*
X2737650Y990800D02*
X2753151D01*
X2745400Y983050D02*
Y998550D01*
X2547650Y990800D02*
X2563150D01*
X2555400Y983050D02*
Y998550D01*
X2484150Y965400D02*
X2499650D01*
X2491900Y957650D02*
Y973150D01*
X2572050Y940000D02*
X2589550D01*
X2580800Y931250D02*
Y948750D01*
X2470450Y940000D02*
X2487950D01*
X2479200Y931250D02*
Y948750D01*
X2509500Y940000D02*
X2550500D01*
X2530000Y919500D02*
Y960500D01*
X2319500Y940000D02*
X2360500D01*
X2340000Y919500D02*
Y960500D01*
X2280450Y940000D02*
X2297950D01*
X2289200Y931250D02*
Y948750D01*
X2382050Y940000D02*
X2399550D01*
X2390800Y931250D02*
Y948750D01*
X2294150Y965400D02*
X2309650D01*
X2301900Y957650D02*
Y973150D01*
X2357650Y990800D02*
X2373150D01*
X2365400Y983050D02*
Y998550D01*
X2145150Y990800D02*
X2160650D01*
X2152900Y983050D02*
Y998550D01*
X2081650Y965400D02*
X2097150D01*
X2089400Y957650D02*
Y973150D01*
X2169550Y940000D02*
X2187050D01*
X2178300Y931250D02*
Y948750D01*
X2067950Y940000D02*
X2085450D01*
X2076700Y931250D02*
Y948750D01*
X2107000Y940000D02*
X2148000D01*
X2127500Y919500D02*
Y960500D01*
X1872000Y940000D02*
X1913000D01*
X1892500Y919500D02*
Y960500D01*
X1832950Y940000D02*
X1850450D01*
X1841700Y931250D02*
Y948750D01*
X1934550Y940000D02*
X1952050D01*
X1943300Y931250D02*
Y948750D01*
X1846650Y965400D02*
X1862150D01*
X1854400Y957650D02*
Y973150D01*
X1910150Y990800D02*
X1925650D01*
X1917900Y983050D02*
Y998550D01*
X1597650Y990800D02*
X1613150D01*
X1605400Y983050D02*
Y998550D01*
X1534150Y965400D02*
X1549650D01*
X1541900Y957650D02*
Y973150D01*
X1622050Y940000D02*
X1639550D01*
X1630800Y931250D02*
Y948750D01*
X1520450Y940000D02*
X1537950D01*
X1529200Y931250D02*
Y948750D01*
X1559500Y940000D02*
X1600500D01*
X1580000Y919500D02*
Y960500D01*
X1274500Y940000D02*
X1315500D01*
X1295000Y919500D02*
Y960500D01*
X1235450Y940000D02*
X1252950D01*
X1244200Y931250D02*
Y948750D01*
X1337050Y940000D02*
X1354550D01*
X1345800Y931250D02*
Y948750D01*
X1249150Y965400D02*
X1264650D01*
X1256900Y957650D02*
Y973150D01*
X1312650Y990800D02*
X1328150D01*
X1320400Y983050D02*
Y998550D01*
X1027650Y990800D02*
X1043150D01*
X1035400Y983050D02*
Y998550D01*
X964150Y965400D02*
X979650D01*
X971900Y957650D02*
Y973150D01*
X1052050Y940000D02*
X1069550D01*
X1060800Y931250D02*
Y948750D01*
X950450Y940000D02*
X967950D01*
X959200Y931250D02*
Y948750D01*
X989500Y940000D02*
X1030500D01*
X1010000Y919500D02*
Y960500D01*
X676999Y940000D02*
X717999D01*
X697499Y919500D02*
Y960500D01*
X637949Y940000D02*
X655449D01*
X646699Y931250D02*
Y948750D01*
X739549Y940000D02*
X757049D01*
X748299Y931250D02*
Y948750D01*
X651649Y965400D02*
X667149D01*
X659399Y957650D02*
Y973150D01*
X715149Y990800D02*
X730649D01*
X722899Y983050D02*
Y998550D01*
X480149Y990800D02*
X495649D01*
X487899Y983050D02*
Y998550D01*
X416649Y965400D02*
X432149D01*
X424399Y957650D02*
Y973150D01*
X504549Y940000D02*
X522049D01*
X513299Y931250D02*
Y948750D01*
X402949Y940000D02*
X420449D01*
X411699Y931250D02*
Y948750D01*
X441999Y940000D02*
X482999D01*
X462499Y919500D02*
Y960500D01*
X184499Y940000D02*
X225499D01*
X204999Y919500D02*
Y960500D01*
X145449Y940000D02*
X162949D01*
X154199Y931250D02*
Y948750D01*
X247049Y940000D02*
X264549D01*
X255799Y931250D02*
Y948750D01*
X159149Y965400D02*
X174649D01*
X166899Y957650D02*
Y973150D01*
X222649Y990800D02*
X238149D01*
X230399Y983050D02*
Y998550D01*
X2319501Y1130001D02*
X2360501D01*
X2340001Y1109501D02*
Y1150501D01*
X2280451Y1130001D02*
X2297951D01*
X2289201Y1121251D02*
Y1138751D01*
X2382051Y1130001D02*
X2399551D01*
X2390801Y1121251D02*
Y1138751D01*
X2294151Y1155401D02*
X2309651D01*
X2301901Y1147651D02*
Y1163151D01*
X2357651Y1180801D02*
X2373151D01*
X2365401Y1173051D02*
Y1188551D01*
X2167650Y1180800D02*
X2183150D01*
X2175400Y1173051D02*
Y1188550D01*
X2104150Y1155400D02*
X2119650D01*
X2111900Y1147651D02*
Y1163150D01*
X2192050Y1130001D02*
X2209550D01*
X2200800Y1121251D02*
Y1138751D01*
X2090450Y1130001D02*
X2107950D01*
X2099200Y1121251D02*
Y1138751D01*
X2129500Y1130001D02*
X2170500D01*
X2150000Y1109501D02*
Y1150500D01*
X1939501Y1130001D02*
X1980501D01*
X1960001Y1109501D02*
Y1150501D01*
X1900451Y1130001D02*
X1917951D01*
X1909201Y1121251D02*
Y1138751D01*
X2002051Y1130001D02*
X2019551D01*
X2010801Y1121251D02*
Y1138751D01*
X1914151Y1155401D02*
X1929651D01*
X1921901Y1147651D02*
Y1163151D01*
X1977651Y1180801D02*
X1993151D01*
X1985401Y1173051D02*
Y1188551D01*
X1787651Y1180801D02*
X1803151D01*
X1795401Y1173051D02*
Y1188551D01*
X1724151Y1155401D02*
X1739651D01*
X1731901Y1147651D02*
Y1163151D01*
X1812051Y1130001D02*
X1829551D01*
X1820801Y1121251D02*
Y1138751D01*
X1710451Y1130001D02*
X1727951D01*
X1719201Y1121251D02*
Y1138751D01*
X1749501Y1130001D02*
X1790501D01*
X1770001Y1109501D02*
Y1150501D01*
X1559501Y1130001D02*
X1600501D01*
X1580001Y1109501D02*
Y1150501D01*
X1520451Y1130001D02*
X1537951D01*
X1529201Y1121251D02*
Y1138751D01*
X1622051Y1130001D02*
X1639551D01*
X1630801Y1121251D02*
Y1138751D01*
X1534151Y1155401D02*
X1549651D01*
X1541901Y1147651D02*
Y1163151D01*
X1597651Y1180801D02*
X1613151D01*
X1605401Y1173051D02*
Y1188551D01*
X1407650Y1180800D02*
X1423150D01*
X1415400Y1173051D02*
Y1188550D01*
X1344150Y1155400D02*
X1359650D01*
X1351900Y1147651D02*
Y1163150D01*
X1432050Y1130001D02*
X1449550D01*
X1440800Y1121251D02*
Y1138751D01*
X1330450Y1130001D02*
X1347950D01*
X1339200Y1121251D02*
Y1138751D01*
X1369500Y1130001D02*
X1410500D01*
X1390000Y1109501D02*
Y1150500D01*
X1179500Y1130001D02*
X1220500D01*
X1200000Y1109501D02*
Y1150500D01*
X1140450Y1130001D02*
X1157950D01*
X1149200Y1121251D02*
Y1138751D01*
X1242050Y1130001D02*
X1259550D01*
X1250800Y1121251D02*
Y1138751D01*
X1154150Y1155400D02*
X1169650D01*
X1161900Y1147651D02*
Y1163150D01*
X1217650Y1180800D02*
X1233150D01*
X1225400Y1173051D02*
Y1188550D01*
X1027651Y1180801D02*
X1043151D01*
X1035401Y1173051D02*
Y1188551D01*
X964151Y1155401D02*
X979651D01*
X971901Y1147651D02*
Y1163151D01*
X1052051Y1130001D02*
X1069551D01*
X1060801Y1121251D02*
Y1138751D01*
X950451Y1130001D02*
X967951D01*
X959201Y1121251D02*
Y1138751D01*
X989501Y1130001D02*
X1030501D01*
X1010001Y1109501D02*
Y1150501D01*
X799500Y1130001D02*
X840500D01*
X820000Y1109501D02*
Y1150500D01*
X760450Y1130001D02*
X777950D01*
X769200Y1121251D02*
Y1138751D01*
X862050Y1130001D02*
X879550D01*
X870800Y1121251D02*
Y1138751D01*
X774150Y1155400D02*
X789650D01*
X781900Y1147651D02*
Y1163150D01*
X837650Y1180800D02*
X853150D01*
X845400Y1173051D02*
Y1188550D01*
X647651Y1180801D02*
X663150D01*
X655400Y1173051D02*
Y1188551D01*
X584151Y1155401D02*
X599650D01*
X591900Y1147651D02*
Y1163151D01*
X672050Y1130001D02*
X689550D01*
X680800Y1121251D02*
Y1138751D01*
X570451Y1130001D02*
X587951D01*
X579201Y1121251D02*
Y1138751D01*
X609501Y1130001D02*
X650500D01*
X630000Y1109501D02*
Y1150501D01*
X419500Y1130001D02*
X460500D01*
X440000Y1109501D02*
Y1150501D01*
X380450Y1130001D02*
X397950D01*
X389200Y1121251D02*
Y1138751D01*
X482050Y1130001D02*
X499550D01*
X490800Y1121251D02*
Y1138751D01*
X394150Y1155401D02*
X409650D01*
X401900Y1147651D02*
Y1163151D01*
X457650Y1180801D02*
X473150D01*
X465400Y1173051D02*
Y1188551D01*
X222649Y1180800D02*
X238149D01*
X230399Y1173051D02*
Y1188550D01*
X159149Y1155400D02*
X174649D01*
X166899Y1147651D02*
Y1163150D01*
X247049Y1130001D02*
X264549D01*
X255799Y1121251D02*
Y1138751D01*
X145449Y1130001D02*
X162949D01*
X154199Y1121251D02*
Y1138751D01*
X184499Y1130001D02*
X225499D01*
X204999Y1109501D02*
Y1150500D01*
X2509501Y1320000D02*
X2550501D01*
X2530001Y1299500D02*
Y1340500D01*
X2470451Y1320000D02*
X2487951D01*
X2479201Y1311250D02*
Y1328750D01*
X2572051Y1320000D02*
X2589551D01*
X2580801Y1311250D02*
Y1328750D01*
X2484151Y1345400D02*
X2499651D01*
X2491901Y1337650D02*
Y1353150D01*
X2547651Y1370800D02*
X2563151D01*
X2555401Y1363050D02*
Y1378550D01*
X2357651Y1370801D02*
X2373151D01*
X2365401Y1363051D02*
Y1378551D01*
X2294151Y1345401D02*
X2309651D01*
X2301901Y1337651D02*
Y1353151D01*
X2382051Y1320001D02*
X2399551D01*
X2390801Y1311251D02*
Y1328751D01*
X2280451Y1320001D02*
X2297951D01*
X2289201Y1311251D02*
Y1328751D01*
X2319501Y1320001D02*
X2360501D01*
X2340001Y1299501D02*
Y1340501D01*
X2129500Y1320000D02*
X2170500D01*
X2150000Y1299500D02*
Y1340500D01*
X2090450Y1320000D02*
X2107950D01*
X2099200Y1311250D02*
Y1328750D01*
X2192050Y1320000D02*
X2209550D01*
X2200800Y1311250D02*
Y1328750D01*
X2104150Y1345401D02*
X2119650D01*
X2111900Y1337650D02*
Y1353150D01*
X2167650Y1370800D02*
X2183150D01*
X2175400Y1363051D02*
Y1378551D01*
X1977650Y1370800D02*
X1993150D01*
X1985400Y1363051D02*
Y1378551D01*
X1914150Y1345401D02*
X1929650D01*
X1921900Y1337650D02*
Y1353150D01*
X2002050Y1320000D02*
X2019550D01*
X2010800Y1311250D02*
Y1328750D01*
X1900450Y1320000D02*
X1917950D01*
X1909200Y1311250D02*
Y1328750D01*
X1939500Y1320000D02*
X1980500D01*
X1960000Y1299500D02*
Y1340500D01*
X1749501Y1320001D02*
X1790501D01*
X1770001Y1299501D02*
Y1340501D01*
X1710451Y1320001D02*
X1727951D01*
X1719201Y1311251D02*
Y1328751D01*
X1812051Y1320001D02*
X1829551D01*
X1820801Y1311251D02*
Y1328751D01*
X1724151Y1345401D02*
X1739651D01*
X1731901Y1337651D02*
Y1353151D01*
X1787651Y1370801D02*
X1803151D01*
X1795401Y1363051D02*
Y1378551D01*
X1597651Y1370801D02*
X1613151D01*
X1605401Y1363051D02*
Y1378551D01*
X1534151Y1345401D02*
X1549651D01*
X1541901Y1337651D02*
Y1353151D01*
X1622051Y1320001D02*
X1639551D01*
X1630801Y1311251D02*
Y1328751D01*
X1520451Y1320001D02*
X1537951D01*
X1529201Y1311251D02*
Y1328751D01*
X1559501Y1320001D02*
X1600501D01*
X1580001Y1299501D02*
Y1340501D01*
X1369501Y1320001D02*
X1410501D01*
X1390001Y1299501D02*
Y1340501D01*
X1330451Y1320001D02*
X1347951D01*
X1339201Y1311251D02*
Y1328751D01*
X1432051Y1320001D02*
X1449551D01*
X1440801Y1311251D02*
Y1328751D01*
X1344151Y1345401D02*
X1359651D01*
X1351901Y1337651D02*
Y1353151D01*
X1407651Y1370801D02*
X1423151D01*
X1415401Y1363051D02*
Y1378551D01*
X1217650Y1370800D02*
X1233150D01*
X1225400Y1363051D02*
Y1378551D01*
X1154150Y1345401D02*
X1169650D01*
X1161900Y1337650D02*
Y1353150D01*
X1242050Y1320000D02*
X1259550D01*
X1250800Y1311250D02*
Y1328750D01*
X1140450Y1320000D02*
X1157950D01*
X1149200Y1311250D02*
Y1328750D01*
X1179500Y1320000D02*
X1220500D01*
X1200000Y1299500D02*
Y1340500D01*
X989501Y1320001D02*
X1030501D01*
X1010001Y1299501D02*
Y1340501D01*
X950451Y1320001D02*
X967951D01*
X959201Y1311251D02*
Y1328751D01*
X1052051Y1320001D02*
X1069551D01*
X1060801Y1311251D02*
Y1328751D01*
X964151Y1345401D02*
X979651D01*
X971901Y1337651D02*
Y1353151D01*
X1027651Y1370801D02*
X1043151D01*
X1035401Y1363051D02*
Y1378551D01*
X837650Y1370800D02*
X853150D01*
X845400Y1363051D02*
Y1378551D01*
X774150Y1345401D02*
X789650D01*
X781900Y1337650D02*
Y1353150D01*
X862050Y1320000D02*
X879550D01*
X870800Y1311250D02*
Y1328750D01*
X760450Y1320000D02*
X777950D01*
X769200Y1311250D02*
Y1328750D01*
X799500Y1320000D02*
X840500D01*
X820000Y1299500D02*
Y1340500D01*
X609501Y1320001D02*
X650500D01*
X630000Y1299501D02*
Y1340501D01*
X570451Y1320001D02*
X587951D01*
X579201Y1311251D02*
Y1328751D01*
X672050Y1320001D02*
X689550D01*
X680800Y1311251D02*
Y1328751D01*
X584151Y1345401D02*
X599650D01*
X591900Y1337651D02*
Y1353151D01*
X647651Y1370801D02*
X663150D01*
X655400Y1363051D02*
Y1378551D01*
X457650Y1370801D02*
X473150D01*
X465400Y1363051D02*
Y1378551D01*
X394150Y1345401D02*
X409650D01*
X401900Y1337651D02*
Y1353151D01*
X482050Y1320001D02*
X499550D01*
X490800Y1311251D02*
Y1328751D01*
X380450Y1320001D02*
X397950D01*
X389200Y1311251D02*
Y1328751D01*
X419500Y1320001D02*
X460500D01*
X440000Y1299501D02*
Y1340501D01*
X184499Y1320000D02*
X225499D01*
X204999Y1299500D02*
Y1340500D01*
X145449Y1320000D02*
X162949D01*
X154199Y1311250D02*
Y1328750D01*
X247049Y1320000D02*
X264549D01*
X255799Y1311250D02*
Y1328750D01*
X159149Y1345400D02*
X174649D01*
X166899Y1337650D02*
Y1353150D01*
X222649Y1370800D02*
X238149D01*
X230399Y1363050D02*
Y1378550D01*
X2737650Y1465803D02*
X2753150D01*
X2745400Y1458053D02*
Y1473553D01*
X2674150Y1440403D02*
X2689650D01*
X2681900Y1432653D02*
Y1448153D01*
X2762050Y1415003D02*
X2779550D01*
X2770800Y1406253D02*
Y1423753D01*
X2660450Y1415003D02*
X2677950D01*
X2669200Y1406253D02*
Y1423753D01*
X2699500Y1415003D02*
X2740500D01*
X2720000Y1394503D02*
Y1435503D01*
X2357650Y1560800D02*
X2373150D01*
X2365400Y1553051D02*
Y1568551D01*
X2294150Y1535401D02*
X2309650D01*
X2301900Y1527650D02*
Y1543150D01*
X2382050Y1510000D02*
X2399550D01*
X2390800Y1501250D02*
Y1518750D01*
X2280450Y1510000D02*
X2297950D01*
X2289200Y1501250D02*
Y1518750D01*
X2319500Y1510000D02*
X2360500D01*
X2340000Y1489500D02*
Y1530500D01*
X2129501Y1510001D02*
X2170501D01*
X2150001Y1489501D02*
Y1530501D01*
X2090451Y1510001D02*
X2107951D01*
X2099201Y1501251D02*
Y1518751D01*
X2192051Y1510001D02*
X2209551D01*
X2200801Y1501251D02*
Y1518751D01*
X2104151Y1535401D02*
X2119651D01*
X2111901Y1527651D02*
Y1543151D01*
X2167651Y1560801D02*
X2183151D01*
X2175401Y1553051D02*
Y1568551D01*
X1977650Y1560800D02*
X1993150D01*
X1985400Y1553051D02*
Y1568551D01*
X1914150Y1535401D02*
X1929650D01*
X1921900Y1527650D02*
Y1543150D01*
X2002050Y1510000D02*
X2019550D01*
X2010800Y1501250D02*
Y1518750D01*
X1900450Y1510000D02*
X1917950D01*
X1909200Y1501250D02*
Y1518750D01*
X1939500Y1510000D02*
X1980500D01*
X1960000Y1489500D02*
Y1530500D01*
X1749501Y1510001D02*
X1790501D01*
X1770001Y1489501D02*
Y1530501D01*
X1710451Y1510001D02*
X1727951D01*
X1719201Y1501251D02*
Y1518751D01*
X1812051Y1510001D02*
X1829551D01*
X1820801Y1501251D02*
Y1518751D01*
X1724151Y1535401D02*
X1739651D01*
X1731901Y1527651D02*
Y1543151D01*
X1787651Y1560801D02*
X1803151D01*
X1795401Y1553051D02*
Y1568551D01*
X1597651Y1560801D02*
X1613151D01*
X1605401Y1553051D02*
Y1568551D01*
X1534151Y1535401D02*
X1549651D01*
X1541901Y1527651D02*
Y1543151D01*
X1622051Y1510001D02*
X1639551D01*
X1630801Y1501251D02*
Y1518751D01*
X1520451Y1510001D02*
X1537951D01*
X1529201Y1501251D02*
Y1518751D01*
X1559501Y1510001D02*
X1600501D01*
X1580001Y1489501D02*
Y1530501D01*
X1369500Y1510000D02*
X1410500D01*
X1390000Y1489500D02*
Y1530500D01*
X1330450Y1510000D02*
X1347950D01*
X1339200Y1501250D02*
Y1518750D01*
X1432050Y1510000D02*
X1449550D01*
X1440800Y1501250D02*
Y1518750D01*
X1344150Y1535401D02*
X1359650D01*
X1351900Y1527650D02*
Y1543150D01*
X1407650Y1560800D02*
X1423150D01*
X1415400Y1553051D02*
Y1568551D01*
X1217650Y1560800D02*
X1233150D01*
X1225400Y1553051D02*
Y1568551D01*
X1154150Y1535401D02*
X1169650D01*
X1161900Y1527650D02*
Y1543150D01*
X1242050Y1510000D02*
X1259550D01*
X1250800Y1501250D02*
Y1518750D01*
X1140450Y1510000D02*
X1157950D01*
X1149200Y1501250D02*
Y1518750D01*
X1179500Y1510000D02*
X1220500D01*
X1200000Y1489500D02*
Y1530500D01*
X989501Y1510001D02*
X1030501D01*
X1010001Y1489501D02*
Y1530501D01*
X950451Y1510001D02*
X967951D01*
X959201Y1501251D02*
Y1518751D01*
X1052051Y1510001D02*
X1069551D01*
X1060801Y1501251D02*
Y1518751D01*
X964151Y1535401D02*
X979651D01*
X971901Y1527651D02*
Y1543151D01*
X1027651Y1560801D02*
X1043151D01*
X1035401Y1553051D02*
Y1568551D01*
X837650Y1560800D02*
X853150D01*
X845400Y1553051D02*
Y1568551D01*
X774150Y1535401D02*
X789650D01*
X781900Y1527650D02*
Y1543150D01*
X862050Y1510000D02*
X879550D01*
X870800Y1501250D02*
Y1518750D01*
X760450Y1510000D02*
X777950D01*
X769200Y1501250D02*
Y1518750D01*
X799500Y1510000D02*
X840500D01*
X820000Y1489500D02*
Y1530500D01*
X457650Y1560801D02*
X473150D01*
X465400Y1553051D02*
Y1568551D01*
X394150Y1535401D02*
X409650D01*
X401900Y1527651D02*
Y1543151D01*
X482050Y1510001D02*
X499550D01*
X490800Y1501251D02*
Y1518751D01*
X380450Y1510001D02*
X397950D01*
X389200Y1501251D02*
Y1518751D01*
X419500Y1510001D02*
X460500D01*
X440000Y1489501D02*
Y1530501D01*
X184499Y1510000D02*
X225499D01*
X204999Y1489500D02*
Y1530500D01*
X145449Y1510000D02*
X162949D01*
X154199Y1501250D02*
Y1518750D01*
X247049Y1510000D02*
X264549D01*
X255799Y1501250D02*
Y1518750D01*
X159149Y1535400D02*
X174649D01*
X166899Y1527650D02*
Y1543150D01*
X222649Y1560800D02*
X238149D01*
X230399Y1553050D02*
Y1568550D01*
X2737651Y1750800D02*
X2753152D01*
X2745401Y1743051D02*
Y1758551D01*
X2674151Y1725401D02*
X2689651D01*
X2681902Y1717650D02*
Y1733150D01*
X2762051Y1700000D02*
X2779551D01*
X2770801Y1691250D02*
Y1708750D01*
X2660451Y1700000D02*
X2677951D01*
X2669201Y1691250D02*
Y1708750D01*
X2699501Y1700000D02*
X2740501D01*
X2720002Y1679500D02*
Y1720500D01*
X2509500Y1700000D02*
X2550500D01*
X2530000Y1679500D02*
Y1720500D01*
X2470450Y1700000D02*
X2487950D01*
X2479200Y1691250D02*
Y1708750D01*
X2572050Y1700000D02*
X2589550D01*
X2580800Y1691250D02*
Y1708750D01*
X2484150Y1725400D02*
X2499650D01*
X2491900Y1717650D02*
Y1733150D01*
X2547650Y1750800D02*
X2563150D01*
X2555400Y1743050D02*
Y1758550D01*
X1977651Y1750801D02*
X1993151D01*
X1985401Y1743051D02*
Y1758551D01*
X1914151Y1725401D02*
X1929651D01*
X1921901Y1717651D02*
Y1733151D01*
X2002051Y1700001D02*
X2019551D01*
X2010801Y1691251D02*
Y1708751D01*
X1900451Y1700001D02*
X1917951D01*
X1909201Y1691251D02*
Y1708751D01*
X1939501Y1700001D02*
X1980501D01*
X1960001Y1679501D02*
Y1720501D01*
X1749501Y1700001D02*
X1790501D01*
X1770001Y1679501D02*
Y1720501D01*
X1710451Y1700001D02*
X1727951D01*
X1719201Y1691251D02*
Y1708751D01*
X1812051Y1700001D02*
X1829551D01*
X1820801Y1691251D02*
Y1708751D01*
X1724151Y1725401D02*
X1739651D01*
X1731901Y1717651D02*
Y1733151D01*
X1787651Y1750801D02*
X1803151D01*
X1795401Y1743051D02*
Y1758551D01*
X1597650Y1750800D02*
X1613150D01*
X1605400Y1743051D02*
Y1758551D01*
X1534150Y1725401D02*
X1549650D01*
X1541900Y1717650D02*
Y1733150D01*
X1622050Y1700000D02*
X1639550D01*
X1630800Y1691250D02*
Y1708750D01*
X1520450Y1700000D02*
X1537950D01*
X1529200Y1691250D02*
Y1708750D01*
X1559500Y1700000D02*
X1600500D01*
X1580000Y1679500D02*
Y1720500D01*
X1369500Y1700000D02*
X1410500D01*
X1390000Y1679500D02*
Y1720500D01*
X1330450Y1700000D02*
X1347950D01*
X1339200Y1691250D02*
Y1708750D01*
X1432050Y1700000D02*
X1449550D01*
X1440800Y1691250D02*
Y1708750D01*
X1344150Y1725401D02*
X1359650D01*
X1351900Y1717650D02*
Y1733150D01*
X1407650Y1750800D02*
X1423150D01*
X1415400Y1743051D02*
Y1758551D01*
X1217651Y1750801D02*
X1233151D01*
X1225401Y1743051D02*
Y1758551D01*
X1154151Y1725401D02*
X1169651D01*
X1161901Y1717651D02*
Y1733151D01*
X1242051Y1700001D02*
X1259551D01*
X1250801Y1691251D02*
Y1708751D01*
X1140451Y1700001D02*
X1157951D01*
X1149201Y1691251D02*
Y1708751D01*
X1179501Y1700001D02*
X1220501D01*
X1200001Y1679501D02*
Y1720501D01*
X989500Y1700000D02*
X1030500D01*
X1010000Y1679500D02*
Y1720500D01*
X950450Y1700000D02*
X967950D01*
X959200Y1691250D02*
Y1708750D01*
X1052050Y1700000D02*
X1069550D01*
X1060800Y1691250D02*
Y1708750D01*
X964150Y1725401D02*
X979650D01*
X971900Y1717650D02*
Y1733150D01*
X1027650Y1750800D02*
X1043150D01*
X1035400Y1743051D02*
Y1758551D01*
X837651Y1750801D02*
X853151D01*
X845401Y1743051D02*
Y1758551D01*
X774151Y1725401D02*
X789651D01*
X781901Y1717651D02*
Y1733151D01*
X862051Y1700001D02*
X879551D01*
X870801Y1691251D02*
Y1708751D01*
X760451Y1700001D02*
X777951D01*
X769201Y1691251D02*
Y1708751D01*
X799501Y1700001D02*
X840501D01*
X820001Y1679501D02*
Y1720501D01*
X609500Y1700000D02*
X650500D01*
X630000Y1679500D02*
Y1720500D01*
X570450Y1700000D02*
X587950D01*
X579200Y1691250D02*
Y1708750D01*
X672050Y1700000D02*
X689550D01*
X680800Y1691250D02*
Y1708750D01*
X584150Y1725401D02*
X599650D01*
X591900Y1717650D02*
Y1733150D01*
X647650Y1750800D02*
X663150D01*
X655400Y1743051D02*
Y1758551D01*
X457650Y1750800D02*
X473150D01*
X465400Y1743051D02*
Y1758551D01*
X394150Y1725401D02*
X409650D01*
X401900Y1717650D02*
Y1733150D01*
X482050Y1700000D02*
X499550D01*
X490800Y1691250D02*
Y1708750D01*
X380450Y1700000D02*
X397950D01*
X389200Y1691250D02*
Y1708750D01*
X419500Y1700000D02*
X460500D01*
X440000Y1679500D02*
Y1720500D01*
X139500Y1700000D02*
X180500D01*
X160000Y1679500D02*
Y1720500D01*
X100450Y1700000D02*
X117950D01*
X109200Y1691250D02*
Y1708750D01*
X202050Y1700000D02*
X219550D01*
X210800Y1691250D02*
Y1708750D01*
X114150Y1725400D02*
X129650D01*
X121900Y1717650D02*
Y1733150D01*
X177650Y1750800D02*
X193150D01*
X185400Y1743050D02*
Y1758550D01*
X2834000Y1830000D02*
X2866000D01*
X2850000Y1814000D02*
Y1846000D01*
X14000Y1830000D02*
X46000D01*
X30000Y1814000D02*
Y1846000D01*
X2834000Y810000D02*
X2866000D01*
X2850000Y794000D02*
Y826000D01*
X15750Y810000D02*
X47750D01*
X31750Y794000D02*
Y826000D01*
X2845750Y1751000D02*
X2849750D01*
X2847750Y1749000D02*
Y1753000D01*
X2845750Y1101000D02*
X2849750D01*
X2847750Y1099000D02*
Y1103000D01*
X2845750Y851000D02*
X2849750D01*
X2847750Y849000D02*
Y853000D01*
X2820750Y1801000D02*
X2824750D01*
X2822750Y1799000D02*
Y1803000D01*
X2833250Y1776000D02*
X2837250D01*
X2835250Y1774000D02*
Y1778000D01*
X2820750Y1451000D02*
X2824750D01*
X2822750Y1449000D02*
Y1453000D01*
X2820750Y1401000D02*
X2824750D01*
X2822750Y1399000D02*
Y1403000D01*
X2820750Y1351000D02*
X2824750D01*
X2822750Y1349000D02*
Y1353000D01*
X2820750Y1301000D02*
X2824750D01*
X2822750Y1299000D02*
Y1303000D01*
X2833250Y1226000D02*
X2837250D01*
X2835250Y1224000D02*
Y1228000D01*
X2820750Y851000D02*
X2824750D01*
X2822750Y849000D02*
Y853000D01*
X2808250Y1826000D02*
X2812250D01*
X2810250Y1824000D02*
Y1828000D01*
X2795750Y1801000D02*
X2799750D01*
X2797750Y1799000D02*
Y1803000D01*
X2795750Y1751000D02*
X2799750D01*
X2797750Y1749000D02*
Y1753000D01*
X2795750Y1701000D02*
X2799750D01*
X2797750Y1699000D02*
Y1703000D01*
X2795750Y951000D02*
X2799750D01*
X2797750Y949000D02*
Y953000D01*
X2808250Y876000D02*
X2812250D01*
X2810250Y874000D02*
Y878000D01*
X2808250Y826000D02*
X2812250D01*
X2810250Y824000D02*
Y828000D01*
X2795750Y801000D02*
X2799750D01*
X2797750Y799000D02*
Y803000D01*
X2783250Y1826000D02*
X2787250D01*
X2785250Y1824000D02*
Y1828000D01*
X2770750Y1751000D02*
X2774750D01*
X2772750Y1749000D02*
Y1753000D01*
X2783250Y1676000D02*
X2787250D01*
X2785250Y1674000D02*
Y1678000D01*
X2770750Y1501000D02*
X2774750D01*
X2772750Y1499000D02*
Y1503000D01*
X2770750Y1101000D02*
X2774750D01*
X2772750Y1099000D02*
Y1103000D01*
X2783250Y926000D02*
X2787250D01*
X2785250Y924000D02*
Y928000D01*
X2770750Y901000D02*
X2774750D01*
X2772750Y899000D02*
Y903000D01*
X2770750Y851000D02*
X2774750D01*
X2772750Y849000D02*
Y853000D01*
X2770750Y801000D02*
X2774750D01*
X2772750Y799000D02*
Y803000D01*
X2758250Y1826000D02*
X2762250D01*
X2760250Y1824000D02*
Y1828000D01*
X2758250Y1776000D02*
X2762250D01*
X2760250Y1774000D02*
Y1778000D01*
X2745750Y1701000D02*
X2749750D01*
X2747750Y1699000D02*
Y1703000D01*
X2758250Y1676000D02*
X2762250D01*
X2760250Y1674000D02*
Y1678000D01*
X2745750Y951000D02*
X2749750D01*
X2747750Y949000D02*
Y953000D01*
X2758250Y926000D02*
X2762250D01*
X2760250Y924000D02*
Y928000D01*
X2745750Y901000D02*
X2749750D01*
X2747750Y899000D02*
Y903000D01*
X2745750Y801000D02*
X2749750D01*
X2747750Y799000D02*
Y803000D01*
X2733250Y1826000D02*
X2737250D01*
X2735250Y1824000D02*
Y1828000D01*
X2733250Y1776000D02*
X2737250D01*
X2735250Y1774000D02*
Y1778000D01*
X2733250Y1676000D02*
X2737250D01*
X2735250Y1674000D02*
Y1678000D01*
X2720750Y1101000D02*
X2724750D01*
X2722750Y1099000D02*
Y1103000D01*
X2720750Y1001000D02*
X2724750D01*
X2722750Y999000D02*
Y1003000D01*
X2720750Y801000D02*
X2724750D01*
X2722750Y799000D02*
Y803000D01*
X2708250Y1826000D02*
X2712250D01*
X2710250Y1824000D02*
Y1828000D01*
X2708250Y1726000D02*
X2712250D01*
X2710250Y1724000D02*
Y1728000D01*
X2695750Y1551000D02*
X2699750D01*
X2697750Y1549000D02*
Y1553000D01*
X2708250Y1226000D02*
X2712250D01*
X2710250Y1224000D02*
Y1228000D01*
X2708250Y1026000D02*
X2712250D01*
X2710250Y1024000D02*
Y1028000D01*
X2695750Y1001000D02*
X2699750D01*
X2697750Y999000D02*
Y1003000D01*
X2695750Y801000D02*
X2699750D01*
X2697750Y799000D02*
Y803000D01*
X2683250Y1676000D02*
X2687250D01*
X2685250Y1674000D02*
Y1678000D01*
X2683250Y1276000D02*
X2687250D01*
X2685250Y1274000D02*
Y1278000D01*
X2683250Y926000D02*
X2687250D01*
X2685250Y924000D02*
Y928000D01*
X2645750Y1051000D02*
X2649750D01*
X2647750Y1049000D02*
Y1053000D01*
X2658250Y926000D02*
X2662250D01*
X2660250Y924000D02*
Y928000D01*
X2645750Y801000D02*
X2649750D01*
X2647750Y799000D02*
Y803000D01*
X2620750Y1051000D02*
X2624750D01*
X2622750Y1049000D02*
Y1053000D01*
X2620750Y951000D02*
X2624750D01*
X2622750Y949000D02*
Y953000D01*
X2620750Y801000D02*
X2624750D01*
X2622750Y799000D02*
Y803000D01*
X2595750Y801000D02*
X2599750D01*
X2597750Y799000D02*
Y803000D01*
X2583250Y1576000D02*
X2587250D01*
X2585250Y1574000D02*
Y1578000D01*
X2583250Y1526000D02*
X2587250D01*
X2585250Y1524000D02*
Y1528000D01*
X2570750Y801000D02*
X2574750D01*
X2572750Y799000D02*
Y803000D01*
X2558250Y926000D02*
X2562250D01*
X2560250Y924000D02*
Y928000D01*
X2545750Y801000D02*
X2549750D01*
X2547750Y799000D02*
Y803000D01*
X2533250Y1576000D02*
X2537250D01*
X2535250Y1574000D02*
Y1578000D01*
X2520750Y801000D02*
X2524750D01*
X2522750Y799000D02*
Y803000D01*
X2495750Y801000D02*
X2499750D01*
X2497750Y799000D02*
Y803000D01*
X2483250Y1826000D02*
X2487250D01*
X2485250Y1824000D02*
Y1828000D01*
X2470750Y801000D02*
X2474750D01*
X2472750Y799000D02*
Y803000D01*
X2445750Y1751000D02*
X2449750D01*
X2447750Y1749000D02*
Y1753000D01*
X2458250Y1726000D02*
X2462250D01*
X2460250Y1724000D02*
Y1728000D01*
X2445750Y801000D02*
X2449750D01*
X2447750Y799000D02*
Y803000D01*
X2420750Y801000D02*
X2424750D01*
X2422750Y799000D02*
Y803000D01*
X2395750Y801000D02*
X2399750D01*
X2397750Y799000D02*
Y803000D01*
X2370750Y801000D02*
X2374750D01*
X2372750Y799000D02*
Y803000D01*
X2345750Y801000D02*
X2349750D01*
X2347750Y799000D02*
Y803000D01*
X2320750Y1001000D02*
X2324750D01*
X2322750Y999000D02*
Y1003000D01*
X2320750Y801000D02*
X2324750D01*
X2322750Y799000D02*
Y803000D01*
X2295750Y1001000D02*
X2299750D01*
X2297750Y999000D02*
Y1003000D01*
X2295750Y801000D02*
X2299750D01*
X2297750Y799000D02*
Y803000D01*
X2270750Y1001000D02*
X2274750D01*
X2272750Y999000D02*
Y1003000D01*
X2270750Y951000D02*
X2274750D01*
X2272750Y949000D02*
Y953000D01*
X2270750Y801000D02*
X2274750D01*
X2272750Y799000D02*
Y803000D01*
X2245750Y801000D02*
X2249750D01*
X2247750Y799000D02*
Y803000D01*
X2220750Y801000D02*
X2224750D01*
X2222750Y799000D02*
Y803000D01*
X2195750Y1551000D02*
X2199750D01*
X2197750Y1549000D02*
Y1553000D01*
X2195750Y951000D02*
X2199750D01*
X2197750Y949000D02*
Y953000D01*
X2195750Y801000D02*
X2199750D01*
X2197750Y799000D02*
Y803000D01*
X2183250Y1526000D02*
X2187250D01*
X2185250Y1524000D02*
Y1528000D01*
X2170750Y801000D02*
X2174750D01*
X2172750Y799000D02*
Y803000D01*
X2158250Y1576000D02*
X2162250D01*
X2160250Y1574000D02*
Y1578000D01*
X2145750Y1351000D02*
X2149750D01*
X2147750Y1349000D02*
Y1353000D01*
X2158250Y926000D02*
X2162250D01*
X2160250Y924000D02*
Y928000D01*
X2145750Y801000D02*
X2149750D01*
X2147750Y799000D02*
Y803000D01*
X2120750Y1701000D02*
X2124750D01*
X2122750Y1699000D02*
Y1703000D01*
X2120750Y1501000D02*
X2124750D01*
X2122750Y1499000D02*
Y1503000D01*
X2120750Y1001000D02*
X2124750D01*
X2122750Y999000D02*
Y1003000D01*
X2120750Y801000D02*
X2124750D01*
X2122750Y799000D02*
Y803000D01*
X2108250Y1026000D02*
X2112250D01*
X2110250Y1024000D02*
Y1028000D01*
X2108250Y976000D02*
X2112250D01*
X2110250Y974000D02*
Y978000D01*
X2095750Y801000D02*
X2099750D01*
X2097750Y799000D02*
Y803000D01*
X2070750Y801000D02*
X2074750D01*
X2072750Y799000D02*
Y803000D01*
X2045750Y801000D02*
X2049750D01*
X2047750Y799000D02*
Y803000D01*
X2020750Y1001000D02*
X2024750D01*
X2022750Y999000D02*
Y1003000D01*
X2020750Y951000D02*
X2024750D01*
X2022750Y949000D02*
Y953000D01*
X2020750Y801000D02*
X2024750D01*
X2022750Y799000D02*
Y803000D01*
X2008250Y1826000D02*
X2012250D01*
X2010250Y1824000D02*
Y1828000D01*
X2008250Y1026000D02*
X2012250D01*
X2010250Y1024000D02*
Y1028000D01*
X1995750Y1001000D02*
X1999750D01*
X1997750Y999000D02*
Y1003000D01*
X1995750Y951000D02*
X1999750D01*
X1997750Y949000D02*
Y953000D01*
X2008250Y926000D02*
X2012250D01*
X2010250Y924000D02*
Y928000D01*
X1995750Y801000D02*
X1999750D01*
X1997750Y799000D02*
Y803000D01*
X1983250Y1826000D02*
X1987250D01*
X1985250Y1824000D02*
Y1828000D01*
X1983250Y1026000D02*
X1987250D01*
X1985250Y1024000D02*
Y1028000D01*
X1983250Y926000D02*
X1987250D01*
X1985250Y924000D02*
Y928000D01*
X1970750Y801000D02*
X1974750D01*
X1972750Y799000D02*
Y803000D01*
X1958250Y1826000D02*
X1962250D01*
X1960250Y1824000D02*
Y1828000D01*
X1945750Y1351000D02*
X1949750D01*
X1947750Y1349000D02*
Y1353000D01*
X1945750Y801000D02*
X1949750D01*
X1947750Y799000D02*
Y803000D01*
X1933250Y1826000D02*
X1937250D01*
X1935250Y1824000D02*
Y1828000D01*
X1933250Y1026000D02*
X1937250D01*
X1935250Y1024000D02*
Y1028000D01*
X1933250Y976000D02*
X1937250D01*
X1935250Y974000D02*
Y978000D01*
X1920750Y951000D02*
X1924750D01*
X1922750Y949000D02*
Y953000D01*
X1933250Y926000D02*
X1937250D01*
X1935250Y924000D02*
Y928000D01*
X1920750Y801000D02*
X1924750D01*
X1922750Y799000D02*
Y803000D01*
X1908250Y1826000D02*
X1912250D01*
X1910250Y1824000D02*
Y1828000D01*
X1895750Y1001000D02*
X1899750D01*
X1897750Y999000D02*
Y1003000D01*
X1895750Y801000D02*
X1899750D01*
X1897750Y799000D02*
Y803000D01*
X1883250Y1826000D02*
X1887250D01*
X1885250Y1824000D02*
Y1828000D01*
X1883250Y1376000D02*
X1887250D01*
X1885250Y1374000D02*
Y1378000D01*
X1870750Y1001000D02*
X1874750D01*
X1872750Y999000D02*
Y1003000D01*
X1883250Y976000D02*
X1887250D01*
X1885250Y974000D02*
Y978000D01*
X1870750Y801000D02*
X1874750D01*
X1872750Y799000D02*
Y803000D01*
X1858250Y1826000D02*
X1862250D01*
X1860250Y1824000D02*
Y1828000D01*
X1845750Y1701000D02*
X1849750D01*
X1847750Y1699000D02*
Y1703000D01*
X1845750Y1001000D02*
X1849750D01*
X1847750Y999000D02*
Y1003000D01*
X1858250Y926000D02*
X1862250D01*
X1860250Y924000D02*
Y928000D01*
X1845750Y801000D02*
X1849750D01*
X1847750Y799000D02*
Y803000D01*
X1833250Y1826000D02*
X1837250D01*
X1835250Y1824000D02*
Y1828000D01*
X1833250Y1626000D02*
X1837250D01*
X1835250Y1624000D02*
Y1628000D01*
X1820750Y1351000D02*
X1824750D01*
X1822750Y1349000D02*
Y1353000D01*
X1833250Y926000D02*
X1837250D01*
X1835250Y924000D02*
Y928000D01*
X1820750Y801000D02*
X1824750D01*
X1822750Y799000D02*
Y803000D01*
X1808250Y1826000D02*
X1812250D01*
X1810250Y1824000D02*
Y1828000D01*
X1795750Y1701000D02*
X1799750D01*
X1797750Y1699000D02*
Y1703000D01*
X1795750Y801000D02*
X1799750D01*
X1797750Y799000D02*
Y803000D01*
X1783250Y1826000D02*
X1787250D01*
X1785250Y1824000D02*
Y1828000D01*
X1758250Y1826000D02*
X1762250D01*
X1760250Y1824000D02*
Y1828000D01*
X1758250Y1376000D02*
X1762250D01*
X1760250Y1374000D02*
Y1378000D01*
X1745750Y1001000D02*
X1749750D01*
X1747750Y999000D02*
Y1003000D01*
X1758250Y976000D02*
X1762250D01*
X1760250Y974000D02*
Y978000D01*
X1745750Y801000D02*
X1749750D01*
X1747750Y799000D02*
Y803000D01*
X1733250Y1826000D02*
X1737250D01*
X1735250Y1824000D02*
Y1828000D01*
X1720750Y1601000D02*
X1724750D01*
X1722750Y1599000D02*
Y1603000D01*
X1733250Y1376000D02*
X1737250D01*
X1735250Y1374000D02*
Y1378000D01*
X1720750Y1001000D02*
X1724750D01*
X1722750Y999000D02*
Y1003000D01*
X1720750Y801000D02*
X1724750D01*
X1722750Y799000D02*
Y803000D01*
X1708250Y1826000D02*
X1712250D01*
X1710250Y1824000D02*
Y1828000D01*
X1708250Y976000D02*
X1712250D01*
X1710250Y974000D02*
Y978000D01*
X1695750Y801000D02*
X1699750D01*
X1697750Y799000D02*
Y803000D01*
X1683250Y1826000D02*
X1687250D01*
X1685250Y1824000D02*
Y1828000D01*
X1670750Y1001000D02*
X1674750D01*
X1672750Y999000D02*
Y1003000D01*
X1670750Y951000D02*
X1674750D01*
X1672750Y949000D02*
Y953000D01*
X1670750Y801000D02*
X1674750D01*
X1672750Y799000D02*
Y803000D01*
X1658250Y1826000D02*
X1662250D01*
X1660250Y1824000D02*
Y1828000D01*
X1645750Y1701000D02*
X1649750D01*
X1647750Y1699000D02*
Y1703000D01*
X1645750Y951000D02*
X1649750D01*
X1647750Y949000D02*
Y953000D01*
X1645750Y801000D02*
X1649750D01*
X1647750Y799000D02*
Y803000D01*
X1633250Y1826000D02*
X1637250D01*
X1635250Y1824000D02*
Y1828000D01*
X1620750Y801000D02*
X1624750D01*
X1622750Y799000D02*
Y803000D01*
X1608250Y1826000D02*
X1612250D01*
X1610250Y1824000D02*
Y1828000D01*
X1608250Y1326000D02*
X1612250D01*
X1610250Y1324000D02*
Y1328000D01*
X1608250Y926000D02*
X1612250D01*
X1610250Y924000D02*
Y928000D01*
X1595750Y801000D02*
X1599750D01*
X1597750Y799000D02*
Y803000D01*
X1583250Y1826000D02*
X1587250D01*
X1585250Y1824000D02*
Y1828000D01*
X1570750Y1351000D02*
X1574750D01*
X1572750Y1349000D02*
Y1353000D01*
X1570750Y801000D02*
X1574750D01*
X1572750Y799000D02*
Y803000D01*
X1558250Y1826000D02*
X1562250D01*
X1560250Y1824000D02*
Y1828000D01*
X1558250Y1376000D02*
X1562250D01*
X1560250Y1374000D02*
Y1378000D01*
X1558250Y976000D02*
X1562250D01*
X1560250Y974000D02*
Y978000D01*
X1545750Y801000D02*
X1549750D01*
X1547750Y799000D02*
Y803000D01*
X1533250Y1826000D02*
X1537250D01*
X1535250Y1824000D02*
Y1828000D01*
X1533250Y926000D02*
X1537250D01*
X1535250Y924000D02*
Y928000D01*
X1508250Y1826000D02*
X1512250D01*
X1510250Y1824000D02*
Y1828000D01*
X1483250Y1826000D02*
X1487250D01*
X1485250Y1824000D02*
Y1828000D01*
X1458250Y1826000D02*
X1462250D01*
X1460250Y1824000D02*
Y1828000D01*
X1433250Y1826000D02*
X1437250D01*
X1435250Y1824000D02*
Y1828000D01*
X1420750Y1701000D02*
X1424750D01*
X1422750Y1699000D02*
Y1703000D01*
X1408250Y1826000D02*
X1412250D01*
X1410250Y1824000D02*
Y1828000D01*
X1383250Y1826000D02*
X1387250D01*
X1385250Y1824000D02*
Y1828000D01*
X1370750Y1351000D02*
X1374750D01*
X1372750Y1349000D02*
Y1353000D01*
X1358250Y1826000D02*
X1362250D01*
X1360250Y1824000D02*
Y1828000D01*
X1358250Y1326000D02*
X1362250D01*
X1360250Y1324000D02*
Y1328000D01*
X1358250Y1026000D02*
X1362250D01*
X1360250Y1024000D02*
Y1028000D01*
X1333250Y1826000D02*
X1337250D01*
X1335250Y1824000D02*
Y1828000D01*
X1333250Y976000D02*
X1337250D01*
X1335250Y974000D02*
Y978000D01*
X1320750Y951000D02*
X1324750D01*
X1322750Y949000D02*
Y953000D01*
X1333250Y926000D02*
X1337250D01*
X1335250Y924000D02*
Y928000D01*
X1308250Y1826000D02*
X1312250D01*
X1310250Y1824000D02*
Y1828000D01*
X1295750Y1001000D02*
X1299750D01*
X1297750Y999000D02*
Y1003000D01*
X1283250Y1826000D02*
X1287250D01*
X1285250Y1824000D02*
Y1828000D01*
X1270750Y1001000D02*
X1274750D01*
X1272750Y999000D02*
Y1003000D01*
X1283250Y976000D02*
X1287250D01*
X1285250Y974000D02*
Y978000D01*
X1258250Y1826000D02*
X1262250D01*
X1260250Y1824000D02*
Y1828000D01*
X1233250Y1826000D02*
X1237250D01*
X1235250Y1824000D02*
Y1828000D01*
X1233250Y1326000D02*
X1237250D01*
X1235250Y1324000D02*
Y1328000D01*
X1233250Y1026000D02*
X1237250D01*
X1235250Y1024000D02*
Y1028000D01*
X1220750Y1001000D02*
X1224750D01*
X1222750Y999000D02*
Y1003000D01*
X1208250Y1826000D02*
X1212250D01*
X1210250Y1824000D02*
Y1828000D01*
X1195750Y1351000D02*
X1199750D01*
X1197750Y1349000D02*
Y1353000D01*
X1170750Y1501000D02*
X1174750D01*
X1172750Y1499000D02*
Y1503000D01*
X1158250Y1826000D02*
X1162250D01*
X1160250Y1824000D02*
Y1828000D01*
X1133250Y1826000D02*
X1137250D01*
X1135250Y1824000D02*
Y1828000D01*
X1108250Y1826000D02*
X1112250D01*
X1110250Y1824000D02*
Y1828000D01*
X1095750Y851000D02*
X1099750D01*
X1097750Y849000D02*
Y853000D01*
X1083250Y1826000D02*
X1087250D01*
X1085250Y1824000D02*
Y1828000D01*
X1070750Y951000D02*
X1074750D01*
X1072750Y949000D02*
Y953000D01*
X1083250Y926000D02*
X1087250D01*
X1085250Y924000D02*
Y928000D01*
X1058250Y1826000D02*
X1062250D01*
X1060250Y1824000D02*
Y1828000D01*
X1045750Y1501000D02*
X1049750D01*
X1047750Y1499000D02*
Y1503000D01*
X1045750Y951000D02*
X1049750D01*
X1047750Y949000D02*
Y953000D01*
X1045750Y801000D02*
X1049750D01*
X1047750Y799000D02*
Y803000D01*
X1033250Y1826000D02*
X1037250D01*
X1035250Y1824000D02*
Y1828000D01*
X1033250Y1526000D02*
X1037250D01*
X1035250Y1524000D02*
Y1528000D01*
X1033250Y926000D02*
X1037250D01*
X1035250Y924000D02*
Y928000D01*
X1020750Y801000D02*
X1024750D01*
X1022750Y799000D02*
Y803000D01*
X1008250Y1826000D02*
X1012250D01*
X1010250Y1824000D02*
Y1828000D01*
X995750Y1351000D02*
X999750D01*
X997750Y1349000D02*
Y1353000D01*
X995750Y801000D02*
X999750D01*
X997750Y799000D02*
Y803000D01*
X983250Y1826000D02*
X987250D01*
X985250Y1824000D02*
Y1828000D01*
X970750Y1501000D02*
X974750D01*
X972750Y1499000D02*
Y1503000D01*
X983250Y1376000D02*
X987250D01*
X985250Y1374000D02*
Y1378000D01*
X983250Y926000D02*
X987250D01*
X985250Y924000D02*
Y928000D01*
X970750Y801000D02*
X974750D01*
X972750Y799000D02*
Y803000D01*
X958250Y1826000D02*
X962250D01*
X960250Y1824000D02*
Y1828000D01*
X945750Y951000D02*
X949750D01*
X947750Y949000D02*
Y953000D01*
X945750Y901000D02*
X949750D01*
X947750Y899000D02*
Y903000D01*
X945750Y801000D02*
X949750D01*
X947750Y799000D02*
Y803000D01*
X933250Y1826000D02*
X937250D01*
X935250Y1824000D02*
Y1828000D01*
X920750Y801000D02*
X924750D01*
X922750Y799000D02*
Y803000D01*
X908250Y1826000D02*
X912250D01*
X910250Y1824000D02*
Y1828000D01*
X895750Y951000D02*
X899750D01*
X897750Y949000D02*
Y953000D01*
X895750Y901000D02*
X899750D01*
X897750Y899000D02*
Y903000D01*
X908250Y876000D02*
X912250D01*
X910250Y874000D02*
Y878000D01*
X895750Y801000D02*
X899750D01*
X897750Y799000D02*
Y803000D01*
X883250Y1826000D02*
X887250D01*
X885250Y1824000D02*
Y1828000D01*
X883250Y1526000D02*
X887250D01*
X885250Y1524000D02*
Y1528000D01*
X870750Y1401000D02*
X874750D01*
X872750Y1399000D02*
Y1403000D01*
X883250Y1326000D02*
X887250D01*
X885250Y1324000D02*
Y1328000D01*
X870750Y951000D02*
X874750D01*
X872750Y949000D02*
Y953000D01*
X883250Y926000D02*
X887250D01*
X885250Y924000D02*
Y928000D01*
X870750Y901000D02*
X874750D01*
X872750Y899000D02*
Y903000D01*
X883250Y876000D02*
X887250D01*
X885250Y874000D02*
Y878000D01*
X870750Y801000D02*
X874750D01*
X872750Y799000D02*
Y803000D01*
X858250Y1826000D02*
X862250D01*
X860250Y1824000D02*
Y1828000D01*
X858250Y1526000D02*
X862250D01*
X860250Y1524000D02*
Y1528000D01*
X845750Y1501000D02*
X849750D01*
X847750Y1499000D02*
Y1503000D01*
X845750Y1401000D02*
X849750D01*
X847750Y1399000D02*
Y1403000D01*
X845750Y951000D02*
X849750D01*
X847750Y949000D02*
Y953000D01*
X858250Y926000D02*
X862250D01*
X860250Y924000D02*
Y928000D01*
X845750Y901000D02*
X849750D01*
X847750Y899000D02*
Y903000D01*
X858250Y876000D02*
X862250D01*
X860250Y874000D02*
Y878000D01*
X845750Y801000D02*
X849750D01*
X847750Y799000D02*
Y803000D01*
X833250Y1826000D02*
X837250D01*
X835250Y1824000D02*
Y1828000D01*
X820750Y1401000D02*
X824750D01*
X822750Y1399000D02*
Y1403000D01*
X820750Y951000D02*
X824750D01*
X822750Y949000D02*
Y953000D01*
X833250Y926000D02*
X837250D01*
X835250Y924000D02*
Y928000D01*
X820750Y901000D02*
X824750D01*
X822750Y899000D02*
Y903000D01*
X833250Y876000D02*
X837250D01*
X835250Y874000D02*
Y878000D01*
X820750Y801000D02*
X824750D01*
X822750Y799000D02*
Y803000D01*
X808250Y1826000D02*
X812250D01*
X810250Y1824000D02*
Y1828000D01*
X795750Y1401000D02*
X799750D01*
X797750Y1399000D02*
Y1403000D01*
X808250Y1376000D02*
X812250D01*
X810250Y1374000D02*
Y1378000D01*
X795750Y1301000D02*
X799750D01*
X797750Y1299000D02*
Y1303000D01*
X795750Y951000D02*
X799750D01*
X797750Y949000D02*
Y953000D01*
X808250Y926000D02*
X812250D01*
X810250Y924000D02*
Y928000D01*
X795750Y901000D02*
X799750D01*
X797750Y899000D02*
Y903000D01*
X808250Y876000D02*
X812250D01*
X810250Y874000D02*
Y878000D01*
X795750Y801000D02*
X799750D01*
X797750Y799000D02*
Y803000D01*
X783250Y1826000D02*
X787250D01*
X785250Y1824000D02*
Y1828000D01*
X770750Y1401000D02*
X774750D01*
X772750Y1399000D02*
Y1403000D01*
X783250Y1376000D02*
X787250D01*
X785250Y1374000D02*
Y1378000D01*
X770750Y1301000D02*
X774750D01*
X772750Y1299000D02*
Y1303000D01*
X770750Y951000D02*
X774750D01*
X772750Y949000D02*
Y953000D01*
X783250Y926000D02*
X787250D01*
X785250Y924000D02*
Y928000D01*
X770750Y901000D02*
X774750D01*
X772750Y899000D02*
Y903000D01*
X783250Y876000D02*
X787250D01*
X785250Y874000D02*
Y878000D01*
X770750Y801000D02*
X774750D01*
X772750Y799000D02*
Y803000D01*
X758250Y1826000D02*
X762250D01*
X760250Y1824000D02*
Y1828000D01*
X758250Y1376000D02*
X762250D01*
X760250Y1374000D02*
Y1378000D01*
X745750Y901000D02*
X749750D01*
X747750Y899000D02*
Y903000D01*
X745750Y801000D02*
X749750D01*
X747750Y799000D02*
Y803000D01*
X733250Y1826000D02*
X737250D01*
X735250Y1824000D02*
Y1828000D01*
X720750Y1301000D02*
X724750D01*
X722750Y1299000D02*
Y1303000D01*
X720750Y951000D02*
X724750D01*
X722750Y949000D02*
Y953000D01*
X733250Y926000D02*
X737250D01*
X735250Y924000D02*
Y928000D01*
X720750Y901000D02*
X724750D01*
X722750Y899000D02*
Y903000D01*
X733250Y876000D02*
X737250D01*
X735250Y874000D02*
Y878000D01*
X720750Y801000D02*
X724750D01*
X722750Y799000D02*
Y803000D01*
X708250Y1826000D02*
X712250D01*
X710250Y1824000D02*
Y1828000D01*
X695750Y1501000D02*
X699750D01*
X697750Y1499000D02*
Y1503000D01*
X708250Y1376000D02*
X712250D01*
X710250Y1374000D02*
Y1378000D01*
X708250Y1326000D02*
X712250D01*
X710250Y1324000D02*
Y1328000D01*
X695750Y1301000D02*
X699750D01*
X697750Y1299000D02*
Y1303000D01*
X708250Y1276000D02*
X712250D01*
X710250Y1274000D02*
Y1278000D01*
X708250Y1176000D02*
X712250D01*
X710250Y1174000D02*
Y1178000D01*
X695750Y801000D02*
X699750D01*
X697750Y799000D02*
Y803000D01*
X683250Y1826000D02*
X687250D01*
X685250Y1824000D02*
Y1828000D01*
X670750Y1401000D02*
X674750D01*
X672750Y1399000D02*
Y1403000D01*
X670750Y1301000D02*
X674750D01*
X672750Y1299000D02*
Y1303000D01*
X683250Y1276000D02*
X687250D01*
X685250Y1274000D02*
Y1278000D01*
X670750Y1001000D02*
X674750D01*
X672750Y999000D02*
Y1003000D01*
X683250Y976000D02*
X687250D01*
X685250Y974000D02*
Y978000D01*
X670750Y801000D02*
X674750D01*
X672750Y799000D02*
Y803000D01*
X658250Y1826000D02*
X662250D01*
X660250Y1824000D02*
Y1828000D01*
X658250Y1326000D02*
X662250D01*
X660250Y1324000D02*
Y1328000D01*
X645750Y1001000D02*
X649750D01*
X647750Y999000D02*
Y1003000D01*
X645750Y801000D02*
X649750D01*
X647750Y799000D02*
Y803000D01*
X633250Y1826000D02*
X637250D01*
X635250Y1824000D02*
Y1828000D01*
X633250Y1376000D02*
X637250D01*
X635250Y1374000D02*
Y1378000D01*
X620750Y1351000D02*
X624750D01*
X622750Y1349000D02*
Y1353000D01*
X620750Y1001000D02*
X624750D01*
X622750Y999000D02*
Y1003000D01*
X620750Y951000D02*
X624750D01*
X622750Y949000D02*
Y953000D01*
X633250Y926000D02*
X637250D01*
X635250Y924000D02*
Y928000D01*
X620750Y801000D02*
X624750D01*
X622750Y799000D02*
Y803000D01*
X608250Y1826000D02*
X612250D01*
X610250Y1824000D02*
Y1828000D01*
X595750Y1501000D02*
X599750D01*
X597750Y1499000D02*
Y1503000D01*
X608250Y1376000D02*
X612250D01*
X610250Y1374000D02*
Y1378000D01*
X595750Y1001000D02*
X599750D01*
X597750Y999000D02*
Y1003000D01*
X595750Y951000D02*
X599750D01*
X597750Y949000D02*
Y953000D01*
X608250Y926000D02*
X612250D01*
X610250Y924000D02*
Y928000D01*
X595750Y801000D02*
X599750D01*
X597750Y799000D02*
Y803000D01*
X583250Y1826000D02*
X587250D01*
X585250Y1824000D02*
Y1828000D01*
X583250Y1376000D02*
X587250D01*
X585250Y1374000D02*
Y1378000D01*
X570750Y1001000D02*
X574750D01*
X572750Y999000D02*
Y1003000D01*
X570750Y951000D02*
X574750D01*
X572750Y949000D02*
Y953000D01*
X583250Y926000D02*
X587250D01*
X585250Y924000D02*
Y928000D01*
X570750Y801000D02*
X574750D01*
X572750Y799000D02*
Y803000D01*
X558250Y1826000D02*
X562250D01*
X560250Y1824000D02*
Y1828000D01*
X545750Y1201000D02*
X549750D01*
X547750Y1199000D02*
Y1203000D01*
X545750Y951000D02*
X549750D01*
X547750Y949000D02*
Y953000D01*
X558250Y926000D02*
X562250D01*
X560250Y924000D02*
Y928000D01*
X545750Y801000D02*
X549750D01*
X547750Y799000D02*
Y803000D01*
X533250Y1826000D02*
X537250D01*
X535250Y1824000D02*
Y1828000D01*
X533250Y1526000D02*
X537250D01*
X535250Y1524000D02*
Y1528000D01*
X533250Y1376000D02*
X537250D01*
X535250Y1374000D02*
Y1378000D01*
X533250Y1326000D02*
X537250D01*
X535250Y1324000D02*
Y1328000D01*
X533250Y1176000D02*
X537250D01*
X535250Y1174000D02*
Y1178000D01*
X533250Y926000D02*
X537250D01*
X535250Y924000D02*
Y928000D01*
X520750Y801000D02*
X524750D01*
X522750Y799000D02*
Y803000D01*
X508250Y1826000D02*
X512250D01*
X510250Y1824000D02*
Y1828000D01*
X508250Y1526000D02*
X512250D01*
X510250Y1524000D02*
Y1528000D01*
X495750Y1401000D02*
X499750D01*
X497750Y1399000D02*
Y1403000D01*
X508250Y1326000D02*
X512250D01*
X510250Y1324000D02*
Y1328000D01*
X495750Y1201000D02*
X499750D01*
X497750Y1199000D02*
Y1203000D01*
X495750Y951000D02*
X499750D01*
X497750Y949000D02*
Y953000D01*
X495750Y801000D02*
X499750D01*
X497750Y799000D02*
Y803000D01*
X483250Y1826000D02*
X487250D01*
X485250Y1824000D02*
Y1828000D01*
X483250Y1526000D02*
X487250D01*
X485250Y1524000D02*
Y1528000D01*
X470750Y1501000D02*
X474750D01*
X472750Y1499000D02*
Y1503000D01*
X470750Y1401000D02*
X474750D01*
X472750Y1399000D02*
Y1403000D01*
X483250Y1376000D02*
X487250D01*
X485250Y1374000D02*
Y1378000D01*
X470750Y1201000D02*
X474750D01*
X472750Y1199000D02*
Y1203000D01*
X470750Y801000D02*
X474750D01*
X472750Y799000D02*
Y803000D01*
X458250Y1826000D02*
X462250D01*
X460250Y1824000D02*
Y1828000D01*
X445750Y1401000D02*
X449750D01*
X447750Y1399000D02*
Y1403000D01*
X445750Y1001000D02*
X449750D01*
X447750Y999000D02*
Y1003000D01*
X445750Y801000D02*
X449750D01*
X447750Y799000D02*
Y803000D01*
X433250Y1826000D02*
X437250D01*
X435250Y1824000D02*
Y1828000D01*
X433250Y1576000D02*
X437250D01*
X435250Y1574000D02*
Y1578000D01*
X420750Y1551000D02*
X424750D01*
X422750Y1549000D02*
Y1553000D01*
X420750Y1401000D02*
X424750D01*
X422750Y1399000D02*
Y1403000D01*
X420750Y1351000D02*
X424750D01*
X422750Y1349000D02*
Y1353000D01*
X433250Y926000D02*
X437250D01*
X435250Y924000D02*
Y928000D01*
X420750Y801000D02*
X424750D01*
X422750Y799000D02*
Y803000D01*
X408250Y1826000D02*
X412250D01*
X410250Y1824000D02*
Y1828000D01*
X408250Y1576000D02*
X412250D01*
X410250Y1574000D02*
Y1578000D01*
X395750Y1401000D02*
X399750D01*
X397750Y1399000D02*
Y1403000D01*
X408250Y1326000D02*
X412250D01*
X410250Y1324000D02*
Y1328000D01*
X408250Y1126000D02*
X412250D01*
X410250Y1124000D02*
Y1128000D01*
X395750Y951000D02*
X399750D01*
X397750Y949000D02*
Y953000D01*
X395750Y801000D02*
X399750D01*
X397750Y799000D02*
Y803000D01*
X383250Y1826000D02*
X387250D01*
X385250Y1824000D02*
Y1828000D01*
X383250Y1576000D02*
X387250D01*
X385250Y1574000D02*
Y1578000D01*
X370750Y1001000D02*
X374750D01*
X372750Y999000D02*
Y1003000D01*
X383250Y976000D02*
X387250D01*
X385250Y974000D02*
Y978000D01*
X370750Y951000D02*
X374750D01*
X372750Y949000D02*
Y953000D01*
X383250Y926000D02*
X387250D01*
X385250Y924000D02*
Y928000D01*
X370750Y801000D02*
X374750D01*
X372750Y799000D02*
Y803000D01*
X358250Y1826000D02*
X362250D01*
X360250Y1824000D02*
Y1828000D01*
X345750Y801000D02*
X349750D01*
X347750Y799000D02*
Y803000D01*
X333250Y1826000D02*
X337250D01*
X335250Y1824000D02*
Y1828000D01*
X333250Y1776000D02*
X337250D01*
X335250Y1774000D02*
Y1778000D01*
X333250Y1176000D02*
X337250D01*
X335250Y1174000D02*
Y1178000D01*
X333250Y1126000D02*
X337250D01*
X335250Y1124000D02*
Y1128000D01*
X320750Y801000D02*
X324750D01*
X322750Y799000D02*
Y803000D01*
X308250Y1826000D02*
X312250D01*
X310250Y1824000D02*
Y1828000D01*
X295750Y1501000D02*
X299750D01*
X297750Y1499000D02*
Y1503000D01*
X308250Y1426000D02*
X312250D01*
X310250Y1424000D02*
Y1428000D01*
X308250Y1376000D02*
X312250D01*
X310250Y1374000D02*
Y1378000D01*
X308250Y1326000D02*
X312250D01*
X310250Y1324000D02*
Y1328000D01*
X295750Y801000D02*
X299750D01*
X297750Y799000D02*
Y803000D01*
X283250Y1826000D02*
X287250D01*
X285250Y1824000D02*
Y1828000D01*
X283250Y1576000D02*
X287250D01*
X285250Y1574000D02*
Y1578000D01*
X283250Y1526000D02*
X287250D01*
X285250Y1524000D02*
Y1528000D01*
X270750Y1501000D02*
X274750D01*
X272750Y1499000D02*
Y1503000D01*
X283250Y1426000D02*
X287250D01*
X285250Y1424000D02*
Y1428000D01*
X283250Y1376000D02*
X287250D01*
X285250Y1374000D02*
Y1378000D01*
X270750Y1051000D02*
X274750D01*
X272750Y1049000D02*
Y1053000D01*
X270750Y951000D02*
X274750D01*
X272750Y949000D02*
Y953000D01*
X283250Y926000D02*
X287250D01*
X285250Y924000D02*
Y928000D01*
X270750Y801000D02*
X274750D01*
X272750Y799000D02*
Y803000D01*
X258250Y1826000D02*
X262250D01*
X260250Y1824000D02*
Y1828000D01*
X258250Y1526000D02*
X262250D01*
X260250Y1524000D02*
Y1528000D01*
X258250Y1426000D02*
X262250D01*
X260250Y1424000D02*
Y1428000D01*
X245750Y1351000D02*
X249750D01*
X247750Y1349000D02*
Y1353000D01*
X258250Y1176000D02*
X262250D01*
X260250Y1174000D02*
Y1178000D01*
X245750Y1051000D02*
X249750D01*
X247750Y1049000D02*
Y1053000D01*
X258250Y1026000D02*
X262250D01*
X260250Y1024000D02*
Y1028000D01*
X258250Y826000D02*
X262250D01*
X260250Y824000D02*
Y828000D01*
X245750Y801000D02*
X249750D01*
X247750Y799000D02*
Y803000D01*
X233250Y1826000D02*
X237250D01*
X235250Y1824000D02*
Y1828000D01*
X233250Y1776000D02*
X237250D01*
X235250Y1774000D02*
Y1778000D01*
X233250Y1526000D02*
X237250D01*
X235250Y1524000D02*
Y1528000D01*
X233250Y1426000D02*
X237250D01*
X235250Y1424000D02*
Y1428000D01*
X220750Y1351000D02*
X224750D01*
X222750Y1349000D02*
Y1353000D01*
X233250Y1326000D02*
X237250D01*
X235250Y1324000D02*
Y1328000D01*
X220750Y1201000D02*
X224750D01*
X222750Y1199000D02*
Y1203000D01*
X233250Y1126000D02*
X237250D01*
X235250Y1124000D02*
Y1128000D01*
X220750Y1051000D02*
X224750D01*
X222750Y1049000D02*
Y1053000D01*
X233250Y1026000D02*
X237250D01*
X235250Y1024000D02*
Y1028000D01*
X233250Y926000D02*
X237250D01*
X235250Y924000D02*
Y928000D01*
X233250Y826000D02*
X237250D01*
X235250Y824000D02*
Y828000D01*
X220750Y801000D02*
X224750D01*
X222750Y799000D02*
Y803000D01*
X208250Y1826000D02*
X212250D01*
X210250Y1824000D02*
Y1828000D01*
X208250Y1776000D02*
X212250D01*
X210250Y1774000D02*
Y1778000D01*
X208250Y1726000D02*
X212250D01*
X210250Y1724000D02*
Y1728000D01*
X208250Y1576000D02*
X212250D01*
X210250Y1574000D02*
Y1578000D01*
X195750Y1551000D02*
X199750D01*
X197750Y1549000D02*
Y1553000D01*
X208250Y1426000D02*
X212250D01*
X210250Y1424000D02*
Y1428000D01*
X208250Y1376000D02*
X212250D01*
X210250Y1374000D02*
Y1378000D01*
X195750Y1351000D02*
X199750D01*
X197750Y1349000D02*
Y1353000D01*
X195750Y1201000D02*
X199750D01*
X197750Y1199000D02*
Y1203000D01*
X208250Y1176000D02*
X212250D01*
X210250Y1174000D02*
Y1178000D01*
X195750Y1051000D02*
X199750D01*
X197750Y1049000D02*
Y1053000D01*
X208250Y1026000D02*
X212250D01*
X210250Y1024000D02*
Y1028000D01*
X195750Y1001000D02*
X199750D01*
X197750Y999000D02*
Y1003000D01*
X208250Y976000D02*
X212250D01*
X210250Y974000D02*
Y978000D01*
X208250Y826000D02*
X212250D01*
X210250Y824000D02*
Y828000D01*
X195750Y801000D02*
X199750D01*
X197750Y799000D02*
Y803000D01*
X183250Y1826000D02*
X187250D01*
X185250Y1824000D02*
Y1828000D01*
X183250Y1776000D02*
X187250D01*
X185250Y1774000D02*
Y1778000D01*
X183250Y1726000D02*
X187250D01*
X185250Y1724000D02*
Y1728000D01*
X183250Y1576000D02*
X187250D01*
X185250Y1574000D02*
Y1578000D01*
X170750Y1501000D02*
X174750D01*
X172750Y1499000D02*
Y1503000D01*
X183250Y1376000D02*
X187250D01*
X185250Y1374000D02*
Y1378000D01*
X170750Y1201000D02*
X174750D01*
X172750Y1199000D02*
Y1203000D01*
X183250Y1176000D02*
X187250D01*
X185250Y1174000D02*
Y1178000D01*
X170750Y1051000D02*
X174750D01*
X172750Y1049000D02*
Y1053000D01*
X183250Y1026000D02*
X187250D01*
X185250Y1024000D02*
Y1028000D01*
X170750Y1001000D02*
X174750D01*
X172750Y999000D02*
Y1003000D01*
X183250Y976000D02*
X187250D01*
X185250Y974000D02*
Y978000D01*
X183250Y826000D02*
X187250D01*
X185250Y824000D02*
Y828000D01*
X170750Y801000D02*
X174750D01*
X172750Y799000D02*
Y803000D01*
X158250Y1826000D02*
X162250D01*
X160250Y1824000D02*
Y1828000D01*
X158250Y1776000D02*
X162250D01*
X160250Y1774000D02*
Y1778000D01*
X145750Y1751000D02*
X149750D01*
X147750Y1749000D02*
Y1753000D01*
X145750Y1201000D02*
X149750D01*
X147750Y1199000D02*
Y1203000D01*
X158250Y1176000D02*
X162250D01*
X160250Y1174000D02*
Y1178000D01*
X145750Y1051000D02*
X149750D01*
X147750Y1049000D02*
Y1053000D01*
X158250Y1026000D02*
X162250D01*
X160250Y1024000D02*
Y1028000D01*
X145750Y1001000D02*
X149750D01*
X147750Y999000D02*
Y1003000D01*
X158250Y926000D02*
X162250D01*
X160250Y924000D02*
Y928000D01*
X158250Y826000D02*
X162250D01*
X160250Y824000D02*
Y828000D01*
X145750Y801000D02*
X149750D01*
X147750Y799000D02*
Y803000D01*
X133250Y1826000D02*
X137250D01*
X135250Y1824000D02*
Y1828000D01*
X133250Y1776000D02*
X137250D01*
X135250Y1774000D02*
Y1778000D01*
X120750Y1751000D02*
X124750D01*
X122750Y1749000D02*
Y1753000D01*
X133250Y1676000D02*
X137250D01*
X135250Y1674000D02*
Y1678000D01*
X120750Y1401000D02*
X124750D01*
X122750Y1399000D02*
Y1403000D01*
X133250Y1076000D02*
X137250D01*
X135250Y1074000D02*
Y1078000D01*
X133250Y1026000D02*
X137250D01*
X135250Y1024000D02*
Y1028000D01*
X133250Y976000D02*
X137250D01*
X135250Y974000D02*
Y978000D01*
X133250Y926000D02*
X137250D01*
X135250Y924000D02*
Y928000D01*
X120750Y901000D02*
X124750D01*
X122750Y899000D02*
Y903000D01*
X120750Y851000D02*
X124750D01*
X122750Y849000D02*
Y853000D01*
X133250Y826000D02*
X137250D01*
X135250Y824000D02*
Y828000D01*
X120750Y801000D02*
X124750D01*
X122750Y799000D02*
Y803000D01*
X108250Y1826000D02*
X112250D01*
X110250Y1824000D02*
Y1828000D01*
X108250Y1776000D02*
X112250D01*
X110250Y1774000D02*
Y1778000D01*
X95750Y1751000D02*
X99750D01*
X97750Y1749000D02*
Y1753000D01*
X108250Y1676000D02*
X112250D01*
X110250Y1674000D02*
Y1678000D01*
X95750Y1601000D02*
X99750D01*
X97750Y1599000D02*
Y1603000D01*
X108250Y1576000D02*
X112250D01*
X110250Y1574000D02*
Y1578000D01*
X95750Y1551000D02*
X99750D01*
X97750Y1549000D02*
Y1553000D01*
X108250Y1526000D02*
X112250D01*
X110250Y1524000D02*
Y1528000D01*
X95750Y851000D02*
X99750D01*
X97750Y849000D02*
Y853000D01*
X108250Y826000D02*
X112250D01*
X110250Y824000D02*
Y828000D01*
X95750Y801000D02*
X99750D01*
X97750Y799000D02*
Y803000D01*
X83250Y1826000D02*
X87250D01*
X85250Y1824000D02*
Y1828000D01*
X70750Y1801000D02*
X74750D01*
X72750Y1799000D02*
Y1803000D01*
X83250Y1776000D02*
X87250D01*
X85250Y1774000D02*
Y1778000D01*
X70750Y1751000D02*
X74750D01*
X72750Y1749000D02*
Y1753000D01*
X83250Y1726000D02*
X87250D01*
X85250Y1724000D02*
Y1728000D01*
X70750Y1701000D02*
X74750D01*
X72750Y1699000D02*
Y1703000D01*
X83250Y1676000D02*
X87250D01*
X85250Y1674000D02*
Y1678000D01*
X70750Y1651000D02*
X74750D01*
X72750Y1649000D02*
Y1653000D01*
X83250Y1626000D02*
X87250D01*
X85250Y1624000D02*
Y1628000D01*
X70750Y1201000D02*
X74750D01*
X72750Y1199000D02*
Y1203000D01*
X70750Y1151000D02*
X74750D01*
X72750Y1149000D02*
Y1153000D01*
X70750Y1101000D02*
X74750D01*
X72750Y1099000D02*
Y1103000D01*
X70750Y1051000D02*
X74750D01*
X72750Y1049000D02*
Y1053000D01*
X70750Y1001000D02*
X74750D01*
X72750Y999000D02*
Y1003000D01*
X70750Y951000D02*
X74750D01*
X72750Y949000D02*
Y953000D01*
X70750Y901000D02*
X74750D01*
X72750Y899000D02*
Y903000D01*
X70750Y851000D02*
X74750D01*
X72750Y849000D02*
Y853000D01*
X83250Y826000D02*
X87250D01*
X85250Y824000D02*
Y828000D01*
X70750Y801000D02*
X74750D01*
X72750Y799000D02*
Y803000D01*
X58250Y1726000D02*
X62250D01*
X60250Y1724000D02*
Y1728000D01*
X58250Y1326000D02*
X62250D01*
X60250Y1324000D02*
Y1328000D01*
X45750Y1301000D02*
X49750D01*
X47750Y1299000D02*
Y1303000D01*
X58250Y1276000D02*
X62250D01*
X60250Y1274000D02*
Y1278000D01*
X45750Y1251000D02*
X49750D01*
X47750Y1249000D02*
Y1253000D01*
X58250Y1226000D02*
X62250D01*
X60250Y1224000D02*
Y1228000D01*
X45750Y1201000D02*
X49750D01*
X47750Y1199000D02*
Y1203000D01*
X58250Y1176000D02*
X62250D01*
X60250Y1174000D02*
Y1178000D01*
X45750Y1151000D02*
X49750D01*
X47750Y1149000D02*
Y1153000D01*
X58250Y1126000D02*
X62250D01*
X60250Y1124000D02*
Y1128000D01*
X45750Y1101000D02*
X49750D01*
X47750Y1099000D02*
Y1103000D01*
X58250Y1076000D02*
X62250D01*
X60250Y1074000D02*
Y1078000D01*
X45750Y1051000D02*
X49750D01*
X47750Y1049000D02*
Y1053000D01*
X58250Y1026000D02*
X62250D01*
X60250Y1024000D02*
Y1028000D01*
X45750Y1001000D02*
X49750D01*
X47750Y999000D02*
Y1003000D01*
X58250Y976000D02*
X62250D01*
X60250Y974000D02*
Y978000D01*
X45750Y951000D02*
X49750D01*
X47750Y949000D02*
Y953000D01*
X58250Y926000D02*
X62250D01*
X60250Y924000D02*
Y928000D01*
X45750Y901000D02*
X49750D01*
X47750Y899000D02*
Y903000D01*
X58250Y876000D02*
X62250D01*
X60250Y874000D02*
Y878000D01*
X45750Y851000D02*
X49750D01*
X47750Y849000D02*
Y853000D01*
X33250Y1776000D02*
X37250D01*
X35250Y1774000D02*
Y1778000D01*
X20750Y1751000D02*
X24750D01*
X22750Y1749000D02*
Y1753000D01*
X20750Y1701000D02*
X24750D01*
X22750Y1699000D02*
Y1703000D01*
X33250Y1526000D02*
X37250D01*
X35250Y1524000D02*
Y1528000D01*
X20750Y1501000D02*
X24750D01*
X22750Y1499000D02*
Y1503000D01*
X20750Y1451000D02*
X24750D01*
X22750Y1449000D02*
Y1453000D01*
X20750Y1351000D02*
X24750D01*
X22750Y1349000D02*
Y1353000D01*
X33250Y1326000D02*
X37250D01*
X35250Y1324000D02*
Y1328000D01*
X20750Y1301000D02*
X24750D01*
X22750Y1299000D02*
Y1303000D01*
X33250Y1276000D02*
X37250D01*
X35250Y1274000D02*
Y1278000D01*
X20750Y1251000D02*
X24750D01*
X22750Y1249000D02*
Y1253000D01*
X33250Y1226000D02*
X37250D01*
X35250Y1224000D02*
Y1228000D01*
X20750Y1201000D02*
X24750D01*
X22750Y1199000D02*
Y1203000D01*
X33250Y1176000D02*
X37250D01*
X35250Y1174000D02*
Y1178000D01*
X20750Y1151000D02*
X24750D01*
X22750Y1149000D02*
Y1153000D01*
X33250Y1126000D02*
X37250D01*
X35250Y1124000D02*
Y1128000D01*
X20750Y1101000D02*
X24750D01*
X22750Y1099000D02*
Y1103000D01*
X33250Y1076000D02*
X37250D01*
X35250Y1074000D02*
Y1078000D01*
X20750Y1051000D02*
X24750D01*
X22750Y1049000D02*
Y1053000D01*
X33250Y1026000D02*
X37250D01*
X35250Y1024000D02*
Y1028000D01*
X20750Y1001000D02*
X24750D01*
X22750Y999000D02*
Y1003000D01*
X33250Y976000D02*
X37250D01*
X35250Y974000D02*
Y978000D01*
X20750Y951000D02*
X24750D01*
X22750Y949000D02*
Y953000D01*
X33250Y926000D02*
X37250D01*
X35250Y924000D02*
Y928000D01*
X20750Y901000D02*
X24750D01*
X22750Y899000D02*
Y903000D01*
X33250Y876000D02*
X37250D01*
X35250Y874000D02*
Y878000D01*
X20750Y851000D02*
X24750D01*
X22750Y849000D02*
Y853000D01*
X508000Y1270000D02*
X512000D01*
X510000Y1268000D02*
Y1272000D01*
X723000Y1127500D02*
X727000D01*
X725000Y1125500D02*
Y1129500D01*
X693000Y1115000D02*
X697000D01*
X695000Y1113000D02*
Y1117000D01*
X533000Y1125000D02*
X537000D01*
X535000Y1123000D02*
Y1127000D01*
X883250Y1170000D02*
X887250D01*
X885250Y1168000D02*
Y1172000D01*
X883250Y1117500D02*
X887250D01*
X885250Y1115500D02*
Y1119500D01*
X883250Y1077500D02*
X887250D01*
X885250Y1075500D02*
Y1079500D01*
X820750Y997750D02*
X824750D01*
X822750Y995750D02*
Y999750D01*
X870750Y994750D02*
X874750D01*
X872750Y992750D02*
Y996750D01*
X1288000Y1515000D02*
X1292000D01*
X1290000Y1513000D02*
Y1517000D01*
X498750Y1685000D02*
X502750D01*
X500750Y1683000D02*
Y1687000D01*
X708250Y1462500D02*
X712250D01*
X710250Y1460500D02*
Y1464500D01*
X1368000Y1575000D02*
X1372000D01*
X1370000Y1573000D02*
Y1577000D01*
X1613000Y1495000D02*
X1617000D01*
X1615000Y1493000D02*
Y1497000D01*
X1068000Y877500D02*
X1072000D01*
X1070000Y875500D02*
Y879500D01*
X1520500Y1382500D02*
X1524500D01*
X1522500Y1380500D02*
Y1384500D01*
X1553000Y1397500D02*
X1557000D01*
X1555000Y1395500D02*
Y1399500D01*
X2010500Y1397500D02*
X2014500D01*
X2012500Y1395500D02*
Y1399500D01*
X2010500Y1372500D02*
X2014500D01*
X2012500Y1370500D02*
Y1374500D01*
X1473000Y1742500D02*
X1477000D01*
X1475000Y1740500D02*
Y1744500D01*
X883000Y1667500D02*
X887000D01*
X885000Y1665500D02*
Y1669500D01*
X763000Y1755750D02*
X767000D01*
X765000Y1753750D02*
Y1757750D01*
X1235500Y1495000D02*
X1239500D01*
X1237500Y1493000D02*
Y1497000D01*
X1438000Y1547500D02*
X1442000D01*
X1440000Y1545500D02*
Y1549500D01*
X1423000Y1492500D02*
X1427000D01*
X1425000Y1490500D02*
Y1494500D01*
X1383000Y1542500D02*
X1387000D01*
X1385000Y1540500D02*
Y1544500D01*
X1568000Y1542500D02*
X1572000D01*
X1570000Y1540500D02*
Y1544500D01*
X1543000Y1610000D02*
X1547000D01*
X1545000Y1608000D02*
Y1612000D01*
X1760500Y1542500D02*
X1764500D01*
X1762500Y1540500D02*
Y1544500D01*
X1955500Y1542500D02*
X1959500D01*
X1957500Y1540500D02*
Y1544500D01*
X2530500Y1772500D02*
X2534500D01*
X2532500Y1770500D02*
Y1774500D01*
X2555500Y1660000D02*
X2559500D01*
X2557500Y1658000D02*
Y1662000D01*
X2394465Y1648535D02*
X2398465D01*
X2396465Y1646535D02*
Y1650535D01*
X2325500Y1732500D02*
X2329500D01*
X2327500Y1730500D02*
Y1734500D01*
X2438000Y937500D02*
X2442000D01*
X2440000Y935500D02*
Y939500D01*
X2250500Y895000D02*
X2254500D01*
X2252500Y893000D02*
Y897000D01*
X1880500Y1080000D02*
X1884500D01*
X1882500Y1078000D02*
Y1082000D01*
X2028000Y1130000D02*
X2032000D01*
X2030000Y1128000D02*
Y1132000D01*
X2028000Y1077500D02*
X2032000D01*
X2030000Y1075500D02*
Y1079500D01*
X1993000Y837500D02*
X1997000D01*
X1995000Y835500D02*
Y839500D01*
X2045500Y830000D02*
X2049500D01*
X2047500Y828000D02*
Y832000D01*
X1795500Y1407500D02*
X1799500D01*
X1797500Y1405500D02*
Y1409500D01*
X1823000Y1545000D02*
X1827000D01*
X1825000Y1543000D02*
Y1547000D01*
X2010500Y1552500D02*
X2014500D01*
X2012500Y1550500D02*
Y1554500D01*
X1995500Y1497500D02*
X1999500D01*
X1997500Y1495500D02*
Y1499500D01*
X2205500Y1790000D02*
X2209500D01*
X2207500Y1788000D02*
Y1792000D01*
X2205500Y1740000D02*
X2209500D01*
X2207500Y1738000D02*
Y1742000D01*
X2363000Y1527500D02*
X2367000D01*
X2365000Y1525500D02*
Y1529500D01*
X2340495Y1754998D02*
X2344495D01*
X2342495Y1752998D02*
Y1756998D01*
X2325495Y1564998D02*
X2329495D01*
X2327495Y1562998D02*
Y1566998D01*
X2373000Y1297500D02*
X2377000D01*
X2375000Y1295500D02*
Y1299500D01*
X2395495Y1172499D02*
X2399495D01*
X2397495Y1170499D02*
Y1174499D01*
X2268000Y1072500D02*
X2272000D01*
X2270000Y1070500D02*
Y1074500D01*
X2270495Y1124999D02*
X2274496D01*
X2272496Y1122999D02*
Y1126999D01*
X2263000Y1137500D02*
X2267000D01*
X2265000Y1135500D02*
Y1139500D01*
X2200500Y1162504D02*
X2204500D01*
X2202500Y1160504D02*
Y1164504D01*
X2180496Y1142499D02*
X2184496D01*
X2182496Y1140499D02*
Y1144499D01*
X2140500Y1190000D02*
X2144500D01*
X2142500Y1188000D02*
Y1192000D01*
X2035500Y1170000D02*
X2039500D01*
X2037500Y1168000D02*
Y1172000D01*
X1948000Y1162500D02*
X1952000D01*
X1950000Y1160500D02*
Y1164500D01*
X1940500Y1192500D02*
X1944500D01*
X1942500Y1190500D02*
Y1194500D01*
X1823000Y1170000D02*
X1827000D01*
X1825000Y1168000D02*
Y1172000D01*
X1805500Y1145000D02*
X1809500D01*
X1807500Y1143000D02*
Y1147000D01*
X1733985Y1121515D02*
X1737985D01*
X1735985Y1119515D02*
Y1123515D01*
X1747651Y1185000D02*
X1751651D01*
X1749651Y1183000D02*
Y1187000D01*
X1570500Y1182500D02*
X1574500D01*
X1572500Y1180500D02*
Y1184500D01*
X1460500Y1130000D02*
X1464500D01*
X1462500Y1128000D02*
Y1132000D01*
X1445500Y1177500D02*
X1449500D01*
X1447500Y1175500D02*
Y1179500D01*
X1368000Y1190000D02*
X1372000D01*
X1370000Y1188000D02*
Y1192000D01*
X1305500Y1172500D02*
X1309500D01*
X1307500Y1170500D02*
Y1174500D01*
X1305500Y1140000D02*
X1309500D01*
X1307500Y1138000D02*
Y1142000D01*
X1184290Y1167500D02*
X1188290D01*
X1186290Y1165500D02*
Y1169500D01*
X693000Y1055000D02*
X697000D01*
X695000Y1053000D02*
Y1057000D01*
X693000Y1082500D02*
X697000D01*
X695000Y1080500D02*
Y1084500D01*
X525500Y1080000D02*
X529500D01*
X527500Y1078000D02*
Y1082000D01*
X576004Y887500D02*
X580004D01*
X578004Y885500D02*
Y889500D01*
X228000Y1632500D02*
X232000D01*
X230000Y1630500D02*
Y1634500D01*
X498750Y1655000D02*
X502750D01*
X500750Y1653000D02*
Y1657000D01*
X543000Y1700000D02*
X547000D01*
X545000Y1698000D02*
Y1702000D01*
X978000Y1195000D02*
X982000D01*
X980000Y1193000D02*
Y1197000D01*
X1185500Y1387500D02*
X1189500D01*
X1187500Y1385500D02*
Y1389500D01*
X1253000Y1547500D02*
X1257000D01*
X1255000Y1545500D02*
Y1549500D01*
X1258000Y1742500D02*
X1262000D01*
X1260000Y1740500D02*
Y1744500D01*
X1160500Y1672500D02*
X1164500D01*
X1162500Y1670500D02*
Y1674500D01*
X1168000Y1610000D02*
X1172000D01*
X1170000Y1608000D02*
Y1612000D01*
X1071800Y1675000D02*
X1075800D01*
X1073800Y1673000D02*
Y1677000D01*
X994318Y1586318D02*
X998318D01*
X996318Y1584318D02*
Y1588318D01*
X823000Y1595000D02*
X827000D01*
X825000Y1593000D02*
Y1597000D01*
X695750Y1687500D02*
X699750D01*
X697750Y1685500D02*
Y1689500D01*
X684303Y1745000D02*
X688303D01*
X686303Y1743000D02*
Y1747000D01*
X665500Y1597500D02*
X669500D01*
X667500Y1595500D02*
Y1599500D01*
X985500Y1757500D02*
X989500D01*
X987500Y1755500D02*
Y1759500D01*
X910500Y1745000D02*
X914500D01*
X912500Y1743000D02*
Y1747000D01*
X493000Y1737500D02*
X497000D01*
X495000Y1735500D02*
Y1739500D01*
X383000Y1787500D02*
X387000D01*
X385000Y1785500D02*
Y1789500D01*
X600499Y1789998D02*
X604499D01*
X602499Y1787998D02*
Y1791998D01*
X1425500Y883000D02*
X1427500D01*
X1426500Y882000D02*
Y884000D01*
X1447500Y883000D02*
X1449500D01*
X1448500Y882000D02*
Y884000D01*
X1436500Y883000D02*
X1438500D01*
X1437500Y882000D02*
Y884000D01*
X1447500Y894000D02*
X1449500D01*
X1448500Y893000D02*
Y895000D01*
X1436500Y894000D02*
X1438500D01*
X1437500Y893000D02*
Y895000D01*
X1425500Y894000D02*
X1427500D01*
X1426500Y893000D02*
Y895000D01*
X1447500Y905000D02*
X1449500D01*
X1448500Y904000D02*
Y906000D01*
X1436500Y905000D02*
X1438500D01*
X1437500Y904000D02*
Y906000D01*
X1425500Y905000D02*
X1427500D01*
X1426500Y904000D02*
Y906000D01*
X1447500Y916000D02*
X1449500D01*
X1448500Y915000D02*
Y917000D01*
X1436500Y916000D02*
X1438500D01*
X1437500Y915000D02*
Y917000D01*
X1425500Y916000D02*
X1427500D01*
X1426500Y915000D02*
Y917000D01*
X1447500Y927000D02*
X1449500D01*
X1448500Y926000D02*
Y928000D01*
X1436500Y927000D02*
X1438500D01*
X1437500Y926000D02*
Y928000D01*
X1425500Y927000D02*
X1427500D01*
X1426500Y926000D02*
Y928000D01*
X1747500Y883000D02*
X1749500D01*
X1748500Y882000D02*
Y884000D01*
X1736500Y883000D02*
X1738500D01*
X1737500Y882000D02*
Y884000D01*
X1725500Y883000D02*
X1727500D01*
X1726500Y882000D02*
Y884000D01*
X1747500Y894000D02*
X1749500D01*
X1748500Y893000D02*
Y895000D01*
X1736500Y894000D02*
X1738500D01*
X1737500Y893000D02*
Y895000D01*
X1725500Y894000D02*
X1727500D01*
X1726500Y893000D02*
Y895000D01*
X1747500Y905000D02*
X1749500D01*
X1748500Y904000D02*
Y906000D01*
X1736500Y905000D02*
X1738500D01*
X1737500Y904000D02*
Y906000D01*
X1725500Y905000D02*
X1727500D01*
X1726500Y904000D02*
Y906000D01*
X1747500Y916000D02*
X1749500D01*
X1748500Y915000D02*
Y917000D01*
X1736500Y916000D02*
X1738500D01*
X1737500Y915000D02*
Y917000D01*
X1725500Y916000D02*
X1727500D01*
X1726500Y915000D02*
Y917000D01*
X1747500Y927000D02*
X1749500D01*
X1748500Y926000D02*
Y928000D01*
X1736500Y927000D02*
X1738500D01*
X1737500Y926000D02*
Y928000D01*
X1725500Y927000D02*
X1727500D01*
X1726500Y926000D02*
Y928000D01*
X2639210Y1212750D02*
X2643210D01*
X2641210Y1210750D02*
Y1214750D01*
X2542995Y1207499D02*
X2546995D01*
X2544995Y1205499D02*
Y1209499D01*
X2543000Y1227500D02*
X2547000D01*
X2545000Y1225500D02*
Y1229500D01*
X2603000Y1252500D02*
X2607000D01*
X2605000Y1250500D02*
Y1254500D01*
X2555500Y1235000D02*
X2559500D01*
X2557500Y1233000D02*
Y1237000D01*
X2565500Y1225000D02*
X2569500D01*
X2567500Y1223000D02*
Y1227000D01*
X2582844Y1355500D02*
X2586844D01*
X2584844Y1353500D02*
Y1357500D01*
X2555500Y1415000D02*
X2559500D01*
X2557500Y1413000D02*
Y1417000D01*
X2531750Y1415000D02*
X2535750D01*
X2533750Y1413000D02*
Y1417000D01*
X2543000Y1415000D02*
X2547000D01*
X2545000Y1413000D02*
Y1417000D01*
X2510523Y1415023D02*
X2514523D01*
X2512523Y1413023D02*
Y1417023D01*
X2028000Y1695000D02*
X2032000D01*
X2030000Y1693000D02*
Y1697000D01*
X2038000Y1712500D02*
X2042000D01*
X2040000Y1710500D02*
Y1714500D01*
X2560500Y1712500D02*
X2564500D01*
X2562500Y1710500D02*
Y1714500D01*
X2548000Y1590000D02*
X2552000D01*
X2550000Y1588000D02*
Y1592000D01*
X1953000Y1625000D02*
X1957000D01*
X1955000Y1623000D02*
Y1627000D01*
X1853000Y1632500D02*
X1857000D01*
X1855000Y1630500D02*
Y1634500D01*
X2195500Y1352500D02*
X2199500D01*
X2197500Y1350500D02*
Y1354500D01*
X2185500Y1492500D02*
X2189500D01*
X2187500Y1490500D02*
Y1494500D01*
X2150500Y1565000D02*
X2154500D01*
X2152500Y1563000D02*
Y1567000D01*
X2185500Y1390000D02*
X2189500D01*
X2187500Y1388000D02*
Y1392000D01*
X2090496Y1597498D02*
X2094496D01*
X2092496Y1595498D02*
Y1599498D01*
X2185500Y1717500D02*
X2189500D01*
X2187500Y1715500D02*
Y1719500D01*
X2138000Y1732500D02*
X2142000D01*
X2140000Y1730500D02*
Y1734500D01*
X1695500Y1107500D02*
X1699500D01*
X1697500Y1105500D02*
Y1109500D01*
X1853000Y1690000D02*
X1857000D01*
X1855000Y1688000D02*
Y1692000D01*
X1738000Y1697500D02*
X1742000D01*
X1740000Y1695500D02*
Y1699500D01*
X1660500Y1687500D02*
X1664500D01*
X1662500Y1685500D02*
Y1689500D01*
X1333000Y1460000D02*
X1337000D01*
X1335000Y1458000D02*
Y1462000D01*
X1288000Y1460000D02*
X1292000D01*
X1290000Y1458000D02*
Y1462000D01*
X1520500Y1737500D02*
X1524500D01*
X1522500Y1735500D02*
Y1739500D01*
X1540500Y1780000D02*
X1544500D01*
X1542500Y1778000D02*
Y1782000D01*
X1473000Y1702500D02*
X1477000D01*
X1475000Y1700500D02*
Y1704500D01*
X1360500Y1680000D02*
X1364500D01*
X1362500Y1678000D02*
Y1682000D01*
X1349900Y1669400D02*
X1353900D01*
X1351900Y1667400D02*
Y1671400D01*
X1327997Y1724998D02*
X1331997D01*
X1329997Y1722998D02*
Y1726998D01*
X1270500Y1705000D02*
X1274500D01*
X1272500Y1703000D02*
Y1707000D01*
X1350497Y1789998D02*
X1354497D01*
X1352497Y1787998D02*
Y1791998D01*
X1218000Y892500D02*
X1222000D01*
X1220000Y890500D02*
Y894500D01*
X1230500Y1012500D02*
X1234500D01*
X1232500Y1010500D02*
Y1014500D01*
X1185498Y1792498D02*
X1189498D01*
X1187498Y1790498D02*
Y1794498D01*
X1175500Y1827500D02*
X1179500D01*
X1177500Y1825500D02*
Y1829500D01*
X2395500Y1745000D02*
X2399500D01*
X2397500Y1743000D02*
Y1747000D01*
X18000Y1642500D02*
X22000D01*
X20000Y1640500D02*
Y1644500D01*
X2035500Y1827500D02*
X2039500D01*
X2037500Y1825500D02*
Y1829500D01*
X2465500Y1802500D02*
X2469500D01*
X2467500Y1800500D02*
Y1804500D01*
X2623000Y1622500D02*
X2627000D01*
X2625000Y1620500D02*
Y1624500D01*
X2775500Y1652500D02*
X2779500D01*
X2777500Y1650500D02*
Y1654500D01*
X2760500Y1057500D02*
X2764500D01*
X2762500Y1055500D02*
Y1059500D01*
X2753000Y1087500D02*
X2757000D01*
X2755000Y1085500D02*
Y1089500D01*
X2770500Y1112500D02*
X2774500D01*
X2772500Y1110500D02*
Y1114500D01*
X2855494Y1207499D02*
X2859494D01*
X2857494Y1205499D02*
Y1209499D01*
X2848000Y1115000D02*
X2852000D01*
X2850000Y1113000D02*
Y1117000D01*
X2648000Y1400000D02*
X2652000D01*
X2650000Y1398000D02*
Y1402000D01*
X2788000Y1367500D02*
X2792000D01*
X2790000Y1365500D02*
Y1369500D01*
X2775500Y1367500D02*
X2779500D01*
X2777500Y1365500D02*
Y1369500D01*
X2820500Y1602500D02*
X2824500D01*
X2822500Y1600500D02*
Y1604500D01*
X2765020Y1432020D02*
X2769020D01*
X2767020Y1430020D02*
Y1434020D01*
X2793000Y1497500D02*
X2797000D01*
X2795000Y1495500D02*
Y1499500D01*
X2640500Y1335000D02*
X2644500D01*
X2642500Y1333000D02*
Y1337000D01*
X2650500Y1330000D02*
X2654500D01*
X2652500Y1328000D02*
Y1332000D01*
X2683000Y1512500D02*
X2687000D01*
X2685000Y1510500D02*
Y1514500D01*
X2838000Y1745000D02*
X2842000D01*
X2840000Y1743000D02*
Y1747000D01*
X2775500Y1775000D02*
X2779500D01*
X2777500Y1773000D02*
Y1777000D01*
X2615500Y1682500D02*
X2619500D01*
X2617500Y1680500D02*
Y1684500D01*
X2608000Y1790000D02*
X2612000D01*
X2610000Y1788000D02*
Y1792000D01*
X2593000Y1577500D02*
X2597000D01*
X2595000Y1575500D02*
Y1579500D01*
X2608000Y1820000D02*
X2612000D01*
X2610000Y1818000D02*
Y1822000D01*
X2498502Y1819498D02*
X2502502D01*
X2500502Y1817498D02*
Y1821498D01*
X2561002Y1819498D02*
X2565002D01*
X2563002Y1817498D02*
Y1821498D01*
X2833000Y1670000D02*
X2837000D01*
X2835000Y1668000D02*
Y1672000D01*
X2838000Y1715000D02*
X2842000D01*
X2840000Y1713000D02*
Y1717000D01*
X2833000Y1682500D02*
X2837000D01*
X2835000Y1680500D02*
Y1684500D01*
X2780500Y865000D02*
X2784500D01*
X2782500Y863000D02*
Y867000D01*
X2088000Y1010000D02*
X2092000D01*
X2090000Y1008000D02*
Y1012000D01*
X2063000Y1025000D02*
X2067000D01*
X2065000Y1023000D02*
Y1027000D01*
X2073000Y1112500D02*
X2077000D01*
X2075000Y1110500D02*
Y1114500D01*
X1715500Y1095000D02*
X1719500D01*
X1717500Y1093000D02*
Y1097000D01*
X2063000Y1232500D02*
X2067000D01*
X2065000Y1230500D02*
Y1234500D01*
X2041000Y1193250D02*
X2045000D01*
X2043000Y1191250D02*
Y1195250D01*
X2093000Y1222500D02*
X2097000D01*
X2095000Y1220500D02*
Y1224500D01*
X2090500Y1362500D02*
X2094500D01*
X2092500Y1360500D02*
Y1364500D01*
X2040500Y1337500D02*
X2044500D01*
X2042500Y1335500D02*
Y1339500D01*
X2780000Y1344000D02*
X2784000D01*
X2782000Y1342000D02*
Y1346000D01*
X2770995Y1351999D02*
X2774995D01*
X2772994Y1349999D02*
Y1353999D01*
X2741000Y1339000D02*
X2745000D01*
X2743000Y1337000D02*
Y1341000D01*
X2759995Y1323999D02*
X2763994D01*
X2761995Y1321999D02*
Y1325999D01*
X2753000Y1339000D02*
X2757000D01*
X2755000Y1337000D02*
Y1341000D01*
X2323000Y1827500D02*
X2327000D01*
X2325000Y1825500D02*
Y1829500D01*
X2430500Y1797500D02*
X2434500D01*
X2432500Y1795500D02*
Y1799500D01*
X2443000Y1802500D02*
X2447000D01*
X2445000Y1800500D02*
Y1804500D01*
X2410500Y1820000D02*
X2414500D01*
X2412500Y1818000D02*
Y1822000D01*
X2423000Y1820000D02*
X2427000D01*
X2425000Y1818000D02*
Y1822000D01*
X2440500Y1760000D02*
X2444500D01*
X2442500Y1758000D02*
Y1762000D01*
X2388000Y1802500D02*
X2392000D01*
X2390000Y1800500D02*
Y1804500D01*
X2405500Y1797500D02*
X2409500D01*
X2407500Y1795500D02*
Y1799500D01*
X2465500Y1415000D02*
X2469500D01*
X2467500Y1413000D02*
Y1417000D01*
X2245500Y1840000D02*
X2249500D01*
X2247500Y1838000D02*
Y1842000D01*
X2460500Y1405000D02*
X2464500D01*
X2462500Y1403000D02*
Y1407000D01*
X2245500Y1827500D02*
X2249500D01*
X2247500Y1825500D02*
Y1829500D01*
X2395500Y1410000D02*
X2399500D01*
X2397500Y1408000D02*
Y1412000D01*
X2190496Y1837498D02*
X2194496D01*
X2192496Y1835498D02*
Y1839498D01*
X2387995Y1397499D02*
X2391995D01*
X2389995Y1395499D02*
Y1399499D01*
X2172996Y1842498D02*
X2176996D01*
X2174996Y1840498D02*
Y1844498D01*
X2298000Y1840000D02*
X2302000D01*
X2300000Y1838000D02*
Y1842000D01*
X2423000Y1697500D02*
X2427000D01*
X2425000Y1695500D02*
Y1699500D01*
X2641002Y1789498D02*
X2645002D01*
X2643002Y1787498D02*
Y1791498D01*
X2627166Y1669166D02*
X2631166D01*
X2629166Y1667166D02*
Y1671166D01*
X2596334Y1669166D02*
X2600334D01*
X2598334Y1667166D02*
Y1671166D01*
X2385500Y1732500D02*
X2389500D01*
X2387500Y1730500D02*
Y1734500D01*
X2490500Y1675000D02*
X2494500D01*
X2492500Y1673000D02*
Y1677000D01*
X2373000Y1682500D02*
X2377000D01*
X2375000Y1680500D02*
Y1684500D01*
X2298000Y1790000D02*
X2302000D01*
X2300000Y1788000D02*
Y1792000D01*
X2313000Y1790000D02*
X2317000D01*
X2315000Y1788000D02*
Y1792000D01*
X2278000Y1735000D02*
X2282000D01*
X2280000Y1733000D02*
Y1737000D01*
X2270500Y1685000D02*
X2274500D01*
X2272500Y1683000D02*
Y1687000D01*
X2502995Y1759998D02*
X2506995D01*
X2504995Y1757998D02*
Y1761998D01*
X2465500Y1770000D02*
X2469500D01*
X2467500Y1768000D02*
Y1772000D01*
X2687995Y1789998D02*
X2691995D01*
X2689995Y1787998D02*
Y1791998D01*
X2725500Y1790000D02*
X2729500D01*
X2727500Y1788000D02*
Y1792000D01*
X2650500Y1775000D02*
X2654500D01*
X2652500Y1773000D02*
Y1777000D01*
X2648701Y1747500D02*
X2652701D01*
X2650701Y1745500D02*
Y1749500D01*
X2685500Y1775000D02*
X2689500D01*
X2687500Y1773000D02*
Y1777000D01*
X2680500Y1765000D02*
X2684500D01*
X2682500Y1763000D02*
Y1767000D01*
X2113000Y1842500D02*
X2117000D01*
X2115000Y1840500D02*
Y1844500D01*
X2100500Y1840000D02*
X2104500D01*
X2102500Y1838000D02*
Y1842000D01*
X2090496Y1832498D02*
X2094496D01*
X2092496Y1830498D02*
Y1834498D01*
X2090500Y1820000D02*
X2094500D01*
X2092500Y1818000D02*
Y1822000D01*
X2133000Y1832500D02*
X2137000D01*
X2135000Y1830500D02*
Y1834500D01*
X2083004Y1794998D02*
X2087004D01*
X2085004Y1792998D02*
Y1796998D01*
X2060496Y1777498D02*
X2064496D01*
X2062496Y1775498D02*
Y1779498D01*
X2070500Y1762500D02*
X2074500D01*
X2072500Y1760500D02*
Y1764500D01*
X2092911Y1794911D02*
X2096911D01*
X2094911Y1792911D02*
Y1796911D01*
X2128089Y1794911D02*
X2132089D01*
X2130089Y1792911D02*
Y1796911D01*
X2137996Y1794998D02*
X2141996D01*
X2139996Y1792998D02*
Y1796998D01*
X1873000Y1752500D02*
X1877000D01*
X1875000Y1750500D02*
Y1754500D01*
X2125500Y1840000D02*
X2129500D01*
X2127500Y1838000D02*
Y1842000D01*
X1388000Y832500D02*
X1392000D01*
X1390000Y830500D02*
Y834500D01*
X1365500Y840000D02*
X1369500D01*
X1367500Y838000D02*
Y842000D01*
X1375500Y835000D02*
X1379500D01*
X1377500Y833000D02*
Y837000D01*
X1385500Y845000D02*
X1389500D01*
X1387500Y843000D02*
Y847000D01*
X1375500Y865000D02*
X1379500D01*
X1377500Y863000D02*
Y867000D01*
X1353000Y847500D02*
X1357000D01*
X1355000Y845500D02*
Y849500D01*
X1362997Y922500D02*
X1366997D01*
X1364997Y920500D02*
Y924500D01*
X1143000Y867500D02*
X1147000D01*
X1145000Y865500D02*
Y869500D01*
X1690500Y825000D02*
X1694500D01*
X1692500Y823000D02*
Y827000D01*
X1723000Y825000D02*
X1727000D01*
X1725000Y823000D02*
Y827000D01*
X1678000Y877500D02*
X1682000D01*
X1680000Y875500D02*
Y879500D01*
X1663000Y857500D02*
X1667000D01*
X1665000Y855500D02*
Y859500D01*
X2633000Y1427500D02*
X2637000D01*
X2635000Y1425500D02*
Y1429500D01*
X2618000Y1397500D02*
X2622000D01*
X2620000Y1395500D02*
Y1399500D01*
X2627500Y1397500D02*
X2631500D01*
X2629500Y1395500D02*
Y1399500D01*
X2628000Y1407500D02*
X2632000D01*
X2630000Y1405500D02*
Y1409500D01*
X2618000Y1407500D02*
X2622000D01*
X2620000Y1405500D02*
Y1409500D01*
X2663000Y1375000D02*
X2667000D01*
X2665000Y1373000D02*
Y1377000D01*
X2588000Y1392500D02*
X2592000D01*
X2590000Y1390500D02*
Y1394500D01*
X2523000Y1400000D02*
X2527000D01*
X2525000Y1398000D02*
Y1402000D01*
X2395500Y1442500D02*
X2399500D01*
X2397500Y1440500D02*
Y1444500D01*
X2235500Y1387500D02*
X2239500D01*
X2237500Y1385500D02*
Y1389500D01*
X2273000Y1430000D02*
X2277000D01*
X2275000Y1428000D02*
Y1432000D01*
X2215500Y1427500D02*
X2219500D01*
X2217500Y1425500D02*
Y1429500D01*
X2203000Y1427500D02*
X2207000D01*
X2205000Y1425500D02*
Y1429500D01*
X2235500Y1437500D02*
X2239500D01*
X2237500Y1435500D02*
Y1439500D01*
X2225500Y1447500D02*
X2229500D01*
X2227500Y1445500D02*
Y1449500D01*
X2138000Y1372500D02*
X2142000D01*
X2140000Y1370500D02*
Y1374500D01*
X2020500Y1205000D02*
X2024500D01*
X2022500Y1203000D02*
Y1207000D01*
X2030496Y1184999D02*
X2034496D01*
X2032496Y1182999D02*
Y1186999D01*
X2058000Y1365000D02*
X2062000D01*
X2060000Y1363000D02*
Y1367000D01*
X2058000Y1377500D02*
X2062000D01*
X2060000Y1375500D02*
Y1379500D01*
X2205500Y1337500D02*
X2209500D01*
X2207500Y1335500D02*
Y1339500D01*
X2300500Y1415000D02*
X2304500D01*
X2302500Y1413000D02*
Y1417000D01*
X2300500Y1392500D02*
X2304500D01*
X2302500Y1390500D02*
Y1394500D01*
X1105500Y942500D02*
X1109500D01*
X1107500Y940500D02*
Y944500D01*
X1170500Y857500D02*
X1174500D01*
X1172500Y855500D02*
Y859500D01*
X1117998Y867500D02*
X1121998D01*
X1119998Y865500D02*
Y869500D01*
X25500Y1422500D02*
X29500D01*
X27500Y1420500D02*
Y1424500D01*
X18000Y1580000D02*
X22000D01*
X20000Y1578000D02*
Y1582000D01*
X60500Y1642500D02*
X64500D01*
X62500Y1640500D02*
Y1644500D01*
X18000Y1620000D02*
X22000D01*
X20000Y1618000D02*
Y1622000D01*
X18000Y1360000D02*
X22000D01*
X20000Y1358000D02*
Y1362000D01*
X38000Y1345000D02*
X42000D01*
X40000Y1343000D02*
Y1347000D01*
X93000Y1395000D02*
X97000D01*
X95000Y1393000D02*
Y1397000D01*
X98000Y1380000D02*
X102000D01*
X100000Y1378000D02*
Y1382000D01*
X53000Y1347499D02*
X57000D01*
X55000Y1345499D02*
Y1349499D01*
X2775500Y1070000D02*
X2779500D01*
X2777500Y1068000D02*
Y1072000D01*
X2825500Y1057500D02*
X2829500D01*
X2827500Y1055500D02*
Y1059500D01*
X2695500Y1042500D02*
X2699500D01*
X2697500Y1040500D02*
Y1044500D01*
X2609250Y1290058D02*
X2613250D01*
X2611250Y1288058D02*
Y1292058D01*
X73075Y875075D02*
X77075D01*
X75075Y873075D02*
Y877075D01*
X80500Y882500D02*
X84500D01*
X82500Y880500D02*
Y884500D01*
X2725500Y860000D02*
X2729500D01*
X2727500Y858000D02*
Y862000D01*
X2595500Y990000D02*
X2599500D01*
X2597500Y988000D02*
Y992000D01*
X2685750Y1032750D02*
X2689750D01*
X2687750Y1030750D02*
Y1034750D01*
X2800500Y1067500D02*
X2804500D01*
X2802500Y1065500D02*
Y1069500D01*
X2558000Y1150000D02*
X2562000D01*
X2560000Y1148000D02*
Y1152000D01*
X2523000Y1160000D02*
X2527000D01*
X2525000Y1158000D02*
Y1162000D01*
X2795500Y1162500D02*
X2799500D01*
X2797500Y1160500D02*
Y1164500D01*
X2777994Y1169999D02*
X2781994D01*
X2779995Y1167999D02*
Y1171999D01*
X2740500Y1182500D02*
X2744500D01*
X2742500Y1180500D02*
Y1184500D01*
X2740500Y1157500D02*
X2744500D01*
X2742500Y1155500D02*
Y1159500D01*
X2798000Y1095000D02*
X2802000D01*
X2800000Y1093000D02*
Y1097000D01*
X2785500Y1095000D02*
X2789500D01*
X2787500Y1093000D02*
Y1097000D01*
X2807994Y1162499D02*
X2811994D01*
X2809995Y1160499D02*
Y1164499D01*
X2785494Y1184999D02*
X2789494D01*
X2787495Y1182999D02*
Y1186999D01*
X2775500Y1202500D02*
X2779500D01*
X2777500Y1200500D02*
Y1204500D01*
X2740494Y1142499D02*
X2744495D01*
X2742495Y1140499D02*
Y1144499D01*
X2740500Y1130000D02*
X2744500D01*
X2742500Y1128000D02*
Y1132000D01*
X2770494Y1124999D02*
X2774495D01*
X2772495Y1122999D02*
Y1126999D01*
X2835500Y1160000D02*
X2839500D01*
X2837500Y1158000D02*
Y1162000D01*
X2848000Y1160000D02*
X2852000D01*
X2850000Y1158000D02*
Y1162000D01*
X2807994Y1207499D02*
X2811994D01*
X2809995Y1205499D02*
Y1209499D01*
X2680500Y1290000D02*
X2684500D01*
X2682500Y1288000D02*
Y1292000D01*
X2693000Y1297500D02*
X2697000D01*
X2695000Y1295500D02*
Y1299500D01*
X2698000Y1232500D02*
X2702000D01*
X2700000Y1230500D02*
Y1234500D01*
X2698000Y1222500D02*
X2702000D01*
X2700000Y1220500D02*
Y1224500D01*
X2665500Y1207500D02*
X2669500D01*
X2667500Y1205500D02*
Y1209500D01*
X2758051Y1289949D02*
X2762051D01*
X2760051Y1287949D02*
Y1291949D01*
X2742994Y1269999D02*
X2746995D01*
X2744995Y1267999D02*
Y1271999D01*
X2720500Y1230000D02*
X2724500D01*
X2722500Y1228000D02*
Y1232000D01*
X2757994Y1252499D02*
X2761995D01*
X2759995Y1250499D02*
Y1254499D01*
X2757994Y1239999D02*
X2761995D01*
X2759995Y1237999D02*
Y1241999D01*
X2757994Y1277499D02*
X2761995D01*
X2759995Y1275499D02*
Y1279499D01*
X2757994Y1264999D02*
X2761995D01*
X2759995Y1262999D02*
Y1266999D01*
X2742994Y1227499D02*
X2746995D01*
X2744995Y1225499D02*
Y1229499D01*
X2713000Y1090000D02*
X2717000D01*
X2715000Y1088000D02*
Y1092000D01*
X2695000Y1170000D02*
X2699000D01*
X2697000Y1168000D02*
Y1172000D01*
X2678000Y1050000D02*
X2682000D01*
X2680000Y1048000D02*
Y1052000D01*
X2675495Y1062499D02*
X2679495D01*
X2677495Y1060499D02*
Y1064499D01*
X2745500Y1042500D02*
X2749500D01*
X2747500Y1040500D02*
Y1044500D01*
X2730500Y1102500D02*
X2734500D01*
X2732500Y1100500D02*
Y1104500D01*
X2492400Y1307500D02*
X2496400D01*
X2494400Y1305500D02*
Y1309500D01*
X2578000Y1297500D02*
X2582000D01*
X2580000Y1295500D02*
Y1299500D01*
X2595500Y1265000D02*
X2599500D01*
X2597500Y1263000D02*
Y1267000D01*
X2395495Y1487499D02*
X2399495D01*
X2397495Y1485499D02*
Y1489499D01*
X2588000Y1440000D02*
X2592000D01*
X2590000Y1438000D02*
Y1442000D01*
X2588000Y1427500D02*
X2592000D01*
X2590000Y1425500D02*
Y1429500D01*
X2590500Y1205000D02*
X2594500D01*
X2592500Y1203000D02*
Y1207000D01*
X2563000Y1317500D02*
X2567000D01*
X2565000Y1315500D02*
Y1319500D01*
X2615000Y1182000D02*
X2619000D01*
X2617000Y1180000D02*
Y1184000D01*
X2652000Y1205000D02*
X2656000D01*
X2654000Y1203000D02*
Y1207000D01*
X2643000Y1245000D02*
X2647000D01*
X2645000Y1243000D02*
Y1247000D01*
X2638000Y1322500D02*
X2642000D01*
X2640000Y1320500D02*
Y1324500D01*
X2698000Y1513000D02*
X2702000D01*
X2700000Y1511000D02*
Y1515000D01*
X2662995Y1542999D02*
X2666995D01*
X2664995Y1540999D02*
Y1544998D01*
X2774000Y1381000D02*
X2778000D01*
X2776000Y1379000D02*
Y1383000D01*
X2725500Y1300000D02*
X2729500D01*
X2727500Y1298000D02*
Y1302000D01*
X2250500Y1790000D02*
X2254500D01*
X2252500Y1788000D02*
Y1792000D01*
X2300500Y1755000D02*
X2304500D01*
X2302500Y1753000D02*
Y1757000D01*
X2603343Y1484500D02*
X2607343D01*
X2605343Y1482500D02*
Y1486500D01*
X2605500Y1495000D02*
X2609500D01*
X2607500Y1493000D02*
Y1497000D01*
X2753000Y1440000D02*
X2757000D01*
X2755000Y1438000D02*
Y1442000D01*
X2715500Y1467500D02*
X2719500D01*
X2717500Y1465500D02*
Y1469500D01*
X2668000Y1592500D02*
X2672000D01*
X2670000Y1590500D02*
Y1594500D01*
X2673000Y1620000D02*
X2677000D01*
X2675000Y1618000D02*
Y1622000D01*
X2625500Y1687500D02*
X2629500D01*
X2627500Y1685500D02*
Y1689500D01*
X2580500Y1682500D02*
X2584500D01*
X2582500Y1680500D02*
Y1684500D01*
X2483495Y1365900D02*
X2487495D01*
X2485495Y1363900D02*
Y1367900D01*
X2592995Y1479999D02*
X2596995D01*
X2594995Y1477999D02*
Y1481999D01*
X2640500Y1010000D02*
X2644500D01*
X2642500Y1008000D02*
Y1012000D01*
X109000Y1231999D02*
X113000D01*
X111000Y1229999D02*
Y1233999D01*
X90000Y1365000D02*
X94000D01*
X92000Y1363000D02*
Y1367000D01*
X21750Y1385000D02*
X25750D01*
X23750Y1383000D02*
Y1387000D01*
X30500Y1450000D02*
X34500D01*
X32500Y1448000D02*
Y1452000D01*
X93000Y1535000D02*
X97000D01*
X95000Y1533000D02*
Y1537000D01*
X68000Y1497500D02*
X72000D01*
X70000Y1495500D02*
Y1499500D01*
X50500Y1417500D02*
X54500D01*
X52500Y1415500D02*
Y1419500D01*
X40500Y1417500D02*
X44500D01*
X42500Y1415500D02*
Y1419500D01*
X310500Y1440000D02*
X314500D01*
X312500Y1438000D02*
Y1442000D01*
X93000Y1615000D02*
X97000D01*
X95000Y1613000D02*
Y1617000D01*
X308000Y1615000D02*
X312000D01*
X310000Y1613000D02*
Y1617000D01*
X113000Y1633750D02*
X117000D01*
X115000Y1631750D02*
Y1635750D01*
X125500Y1625000D02*
X129500D01*
X127500Y1623000D02*
Y1627000D01*
X180500Y1405000D02*
X184500D01*
X182500Y1403000D02*
Y1407000D01*
X170500Y1415000D02*
X174500D01*
X172500Y1413000D02*
Y1417000D01*
X320500Y1615000D02*
X324500D01*
X322500Y1613000D02*
Y1617000D01*
X320500Y1415000D02*
X324500D01*
X322500Y1413000D02*
Y1417000D01*
X330500Y1605000D02*
X334500D01*
X332500Y1603000D02*
Y1607000D01*
X330500Y1402500D02*
X334500D01*
X332500Y1400500D02*
Y1404500D01*
X107960Y1460056D02*
X111960D01*
X109960Y1458056D02*
Y1462056D01*
X107960Y1490056D02*
X111960D01*
X109960Y1488056D02*
Y1492056D01*
X2618000Y1567500D02*
X2622000D01*
X2620000Y1565500D02*
Y1569500D01*
X2618000Y1580000D02*
X2622000D01*
X2620000Y1578000D02*
Y1582000D01*
X2618000Y1555000D02*
X2622000D01*
X2620000Y1553000D02*
Y1557000D01*
X2660497Y1747500D02*
X2664497D01*
X2662497Y1745500D02*
Y1749500D01*
X2857997Y1732500D02*
X2861997D01*
X2859997Y1730500D02*
Y1734500D01*
X2693000Y1527500D02*
X2697000D01*
X2695000Y1525500D02*
Y1529500D01*
X2663000Y1517500D02*
X2667000D01*
X2665000Y1515500D02*
Y1519500D01*
X2690500Y1572500D02*
X2694500D01*
X2692500Y1570500D02*
Y1574500D01*
X2680500Y1187500D02*
X2684500D01*
X2682500Y1185500D02*
Y1189500D01*
X2488000Y1007500D02*
X2492000D01*
X2490000Y1005500D02*
Y1009500D01*
X2442995Y1154999D02*
X2446995D01*
X2444995Y1152999D02*
Y1156999D01*
X2442995Y1174999D02*
X2446995D01*
X2444995Y1172999D02*
Y1176999D01*
X2485500Y1140000D02*
X2489500D01*
X2487500Y1138000D02*
Y1142000D01*
X2285500Y1184750D02*
X2289500D01*
X2287500Y1182750D02*
Y1186750D01*
X2370500Y1117500D02*
X2374500D01*
X2372500Y1115500D02*
Y1119500D01*
X2488000Y1115000D02*
X2492000D01*
X2490000Y1113000D02*
Y1117000D01*
X2425500Y1007500D02*
X2429500D01*
X2427500Y1005500D02*
Y1009500D01*
X2488000Y1065000D02*
X2492000D01*
X2490000Y1063000D02*
Y1067000D01*
X2485500Y1190000D02*
X2489500D01*
X2487500Y1188000D02*
Y1192000D01*
X2523000Y1190000D02*
X2527000D01*
X2525000Y1188000D02*
Y1192000D01*
X2523000Y1100000D02*
X2527000D01*
X2525000Y1098000D02*
Y1102000D01*
X2523000Y1080000D02*
X2527000D01*
X2525000Y1078000D02*
Y1082000D01*
X2485500Y1080000D02*
X2489500D01*
X2487500Y1078000D02*
Y1082000D01*
X2485500Y1100000D02*
X2489500D01*
X2487500Y1098000D02*
Y1102000D01*
X2485500Y1155000D02*
X2489500D01*
X2487500Y1153000D02*
Y1157000D01*
X2460495Y1054999D02*
X2464495D01*
X2462495Y1052999D02*
Y1056999D01*
X2565495Y1059999D02*
X2569495D01*
X2567495Y1057999D02*
Y1061999D01*
X2565500Y1082500D02*
X2569500D01*
X2567500Y1080500D02*
Y1084500D01*
X2333000Y1170000D02*
X2337000D01*
X2335000Y1168000D02*
Y1172000D01*
X2323000Y1205000D02*
X2327000D01*
X2325000Y1203000D02*
Y1207000D01*
X2303000Y1237500D02*
X2307000D01*
X2305000Y1235500D02*
Y1239500D01*
X2270500Y1227500D02*
X2274500D01*
X2272500Y1225500D02*
Y1229500D01*
X2293000Y1227500D02*
X2297000D01*
X2295000Y1225500D02*
Y1229500D01*
X2300495Y1374999D02*
X2304495D01*
X2302495Y1372999D02*
Y1376999D01*
X2408750Y1247000D02*
X2412750D01*
X2410750Y1245000D02*
Y1249000D01*
X2405500Y1257500D02*
X2409500D01*
X2407500Y1255500D02*
Y1259500D01*
X2400500Y1270000D02*
X2404500D01*
X2402500Y1268000D02*
Y1272000D01*
X2268000Y1622500D02*
X2272000D01*
X2270000Y1620500D02*
Y1624500D01*
X2253000Y1575000D02*
X2257000D01*
X2255000Y1573000D02*
Y1577000D01*
X2235495Y1594998D02*
X2239496D01*
X2237496Y1592998D02*
Y1596998D01*
X2258000Y1587500D02*
X2262000D01*
X2260000Y1585500D02*
Y1589500D01*
X2225500Y925000D02*
X2229500D01*
X2227500Y923000D02*
Y927000D01*
X2273000Y925000D02*
X2277000D01*
X2275000Y923000D02*
Y927000D01*
X2370500Y922500D02*
X2374500D01*
X2372500Y920500D02*
Y924500D01*
X2455500Y922500D02*
X2459500D01*
X2457500Y920500D02*
Y924500D01*
X2235500Y1790000D02*
X2239500D01*
X2237500Y1788000D02*
Y1792000D01*
X2263000Y1790000D02*
X2267000D01*
X2265000Y1788000D02*
Y1792000D01*
X2180500Y1685000D02*
X2184500D01*
X2182500Y1683000D02*
Y1687000D01*
X2223000Y1685000D02*
X2227000D01*
X2225000Y1683000D02*
Y1687000D01*
X2075500Y1500000D02*
X2079500D01*
X2077500Y1498000D02*
Y1502000D01*
X1920500Y1374250D02*
X1924500D01*
X1922500Y1372250D02*
Y1376250D01*
X2048000Y1555000D02*
X2052000D01*
X2050000Y1553000D02*
Y1557000D01*
X1958000Y1035000D02*
X1962000D01*
X1960000Y1033000D02*
Y1037000D01*
X2063000Y1582500D02*
X2067000D01*
X2065000Y1580500D02*
Y1584500D01*
X2063000Y1425000D02*
X2067000D01*
X2065000Y1423000D02*
Y1427000D01*
X2015500Y1580000D02*
X2019500D01*
X2017500Y1578000D02*
Y1582000D01*
X2050500Y1762500D02*
X2054500D01*
X2052500Y1760500D02*
Y1764500D01*
X2068000Y1737500D02*
X2072000D01*
X2070000Y1735500D02*
Y1739500D01*
X2110500Y1760000D02*
X2114500D01*
X2112500Y1758000D02*
Y1762000D01*
X1945496Y1772498D02*
X1949496D01*
X1947496Y1770498D02*
Y1774498D01*
X715500Y1720000D02*
X719500D01*
X717500Y1718000D02*
Y1722000D01*
X720500Y1760000D02*
X724500D01*
X722500Y1758000D02*
Y1762000D01*
X730500Y1777500D02*
X734500D01*
X732500Y1775500D02*
Y1779500D01*
X2063000Y1625000D02*
X2067000D01*
X2065000Y1623000D02*
Y1627000D01*
X1990500Y1685000D02*
X1994500D01*
X1992500Y1683000D02*
Y1687000D01*
X2110001Y1677000D02*
X2114001D01*
X2112001Y1675000D02*
Y1679000D01*
X2122250Y1685750D02*
X2126250D01*
X2124250Y1683750D02*
Y1687750D01*
X1945500Y1580000D02*
X1949500D01*
X1947500Y1578000D02*
Y1582000D01*
X1700500Y1212500D02*
X1704500D01*
X1702500Y1210500D02*
Y1214500D01*
X1678000Y1187500D02*
X1682000D01*
X1680000Y1185500D02*
Y1189500D01*
X2253000Y1237500D02*
X2257000D01*
X2255000Y1235500D02*
Y1239500D01*
X2235500Y1260000D02*
X2239500D01*
X2237500Y1258000D02*
Y1262000D01*
X2261750Y1250000D02*
X2265750D01*
X2263750Y1248000D02*
Y1252000D01*
X1855500Y1400000D02*
X1859500D01*
X1857500Y1398000D02*
Y1402000D01*
X1835500Y1410000D02*
X1839500D01*
X1837500Y1408000D02*
Y1412000D01*
X1845500Y1353000D02*
X1849500D01*
X1847500Y1351000D02*
Y1355000D01*
X1883550Y1460550D02*
X1887550D01*
X1885550Y1458550D02*
Y1462550D01*
X1895500Y1457500D02*
X1899500D01*
X1897500Y1455500D02*
Y1459500D01*
X1822996Y1489999D02*
X1826996D01*
X1824996Y1487999D02*
Y1491999D01*
X1835496Y1464999D02*
X1839496D01*
X1837496Y1462999D02*
Y1466999D01*
X1823000Y1465000D02*
X1827000D01*
X1825000Y1463000D02*
Y1467000D01*
X1103000Y1780750D02*
X1107000D01*
X1105000Y1778750D02*
Y1782750D01*
X1063000Y1622500D02*
X1067000D01*
X1065000Y1620500D02*
Y1624500D01*
X970500Y1605000D02*
X974500D01*
X972500Y1603000D02*
Y1607000D01*
X533000Y1780000D02*
X537000D01*
X535000Y1778000D02*
Y1782000D01*
X518000Y1335000D02*
X522000D01*
X520000Y1333000D02*
Y1337000D01*
X1158000Y1770000D02*
X1162000D01*
X1160000Y1768000D02*
Y1772000D01*
X365500Y1770000D02*
X369500D01*
X367500Y1768000D02*
Y1772000D01*
X365499Y1344999D02*
X369499D01*
X367499Y1342999D02*
Y1346999D01*
X283000Y1337500D02*
X287000D01*
X285000Y1335500D02*
Y1339500D01*
X1993002Y1337500D02*
X1997001D01*
X1995002Y1335500D02*
Y1339500D01*
X2225500Y965400D02*
X2229500D01*
X2227500Y963400D02*
Y967400D01*
X588000Y1755000D02*
X592000D01*
X590000Y1753000D02*
Y1757000D01*
X243000Y1595000D02*
X247000D01*
X245000Y1593000D02*
Y1597000D01*
X243000Y1745000D02*
X247000D01*
X245000Y1743000D02*
Y1747000D01*
X165500Y1595000D02*
X169500D01*
X167500Y1593000D02*
Y1597000D01*
X1688000Y1762500D02*
X1692000D01*
X1690000Y1760500D02*
Y1764500D01*
X1705902Y1370402D02*
X1709902D01*
X1707902Y1368402D02*
Y1372402D01*
X1860500Y1237500D02*
X1864500D01*
X1862500Y1235500D02*
Y1239500D01*
X1613001Y1337500D02*
X1617001D01*
X1615001Y1335500D02*
Y1339500D01*
X1520500Y1400000D02*
X1524500D01*
X1522500Y1398000D02*
Y1402000D01*
X1513000Y1215000D02*
X1517000D01*
X1515000Y1213000D02*
Y1217000D01*
X1115500Y1752500D02*
X1119500D01*
X1117500Y1750500D02*
Y1754500D01*
X663000Y1337500D02*
X667000D01*
X665000Y1335500D02*
Y1339500D01*
X730500Y1337500D02*
X734500D01*
X732500Y1335500D02*
Y1339500D01*
X1496750Y1780000D02*
X1500750D01*
X1498750Y1778000D02*
Y1782000D01*
X1105500Y1742500D02*
X1109500D01*
X1107500Y1740500D02*
Y1744500D01*
X1688750Y1733402D02*
X1692750D01*
X1690750Y1731402D02*
Y1735402D01*
X1350500Y1375000D02*
X1354500D01*
X1352500Y1373000D02*
Y1377000D01*
X1298000Y1760000D02*
X1302000D01*
X1300000Y1758000D02*
Y1762000D01*
X1268000Y1335000D02*
X1272000D01*
X1270000Y1333000D02*
Y1337000D01*
X1275500Y1212500D02*
X1279500D01*
X1277500Y1210500D02*
Y1214500D01*
X1160500Y1192500D02*
X1164500D01*
X1162500Y1190500D02*
Y1194500D01*
X1683000Y1627500D02*
X1687000D01*
X1685000Y1625500D02*
Y1629500D01*
X1755500Y1610000D02*
X1759500D01*
X1757500Y1608000D02*
Y1612000D01*
X1493000Y1630000D02*
X1497000D01*
X1495000Y1628000D02*
Y1632000D01*
X1443000Y1635000D02*
X1447000D01*
X1445000Y1633000D02*
Y1637000D01*
X1643000Y1640000D02*
X1647000D01*
X1645000Y1638000D02*
Y1642000D01*
X1230500Y1682500D02*
X1234500D01*
X1232500Y1680500D02*
Y1684500D01*
X1175500Y1782500D02*
X1179500D01*
X1177500Y1780500D02*
Y1784500D01*
X1820500Y1737500D02*
X1824500D01*
X1822500Y1735500D02*
Y1739500D01*
X1665500Y1727500D02*
X1669500D01*
X1667500Y1725500D02*
Y1729500D01*
X1665500Y1705000D02*
X1669500D01*
X1667500Y1703000D02*
Y1707000D01*
X1925500Y1590000D02*
X1929500D01*
X1927500Y1588000D02*
Y1592000D01*
X1913000Y1590000D02*
X1917000D01*
X1915000Y1588000D02*
Y1592000D01*
X1900500Y1590000D02*
X1904500D01*
X1902500Y1588000D02*
Y1592000D01*
X1488000Y1750000D02*
X1492000D01*
X1490000Y1748000D02*
Y1752000D01*
X1288000Y1650000D02*
X1292000D01*
X1290000Y1648000D02*
Y1652000D01*
X1708000Y1611998D02*
X1712000D01*
X1710000Y1609998D02*
Y1613998D01*
X2202996Y1492499D02*
X2206996D01*
X2204996Y1490499D02*
Y1494499D01*
X1697500Y1362500D02*
X1701500D01*
X1699500Y1360500D02*
Y1364500D01*
X1698000Y1395000D02*
X1702000D01*
X1700000Y1393000D02*
Y1397000D01*
X2073000Y1450000D02*
X2077000D01*
X2075000Y1448000D02*
Y1452000D01*
X710500Y1777500D02*
X714500D01*
X712500Y1775500D02*
Y1779500D01*
X355500Y1760000D02*
X359500D01*
X357500Y1758000D02*
Y1762000D01*
X400499Y1777498D02*
X404499D01*
X402499Y1775498D02*
Y1779498D01*
X1308000Y1750000D02*
X1312000D01*
X1310000Y1748000D02*
Y1752000D01*
X898000Y1707500D02*
X902000D01*
X900000Y1705500D02*
Y1709500D01*
X1308000Y1632500D02*
X1312000D01*
X1310000Y1630500D02*
Y1634500D01*
X950498Y1599998D02*
X954498D01*
X952498Y1597998D02*
Y1601998D01*
X1093000Y1647500D02*
X1097000D01*
X1095000Y1645500D02*
Y1649500D01*
X1478000Y1662500D02*
X1482000D01*
X1480000Y1660500D02*
Y1664500D01*
X1460500Y1650000D02*
X1464500D01*
X1462500Y1648000D02*
Y1652000D01*
X1465500Y1682500D02*
X1469500D01*
X1467500Y1680500D02*
Y1684500D01*
X1465500Y1665000D02*
X1469500D01*
X1467500Y1663000D02*
Y1667000D01*
X1513000Y1427500D02*
X1517000D01*
X1515000Y1425500D02*
Y1429500D01*
X1460500Y1410000D02*
X1464500D01*
X1462500Y1408000D02*
Y1412000D01*
X1498000Y1587500D02*
X1502000D01*
X1500000Y1585500D02*
Y1589500D01*
X1538000Y1375000D02*
X1542000D01*
X1540000Y1373000D02*
Y1377000D01*
X1128000Y1582500D02*
X1132000D01*
X1130000Y1580500D02*
Y1584500D01*
X1117998Y1572498D02*
X1121998D01*
X1119998Y1570498D02*
Y1574498D01*
X970500Y1375000D02*
X974500D01*
X972500Y1373000D02*
Y1377000D01*
X738000Y1572497D02*
X742000D01*
X740000Y1570497D02*
Y1574497D01*
X748000Y1585000D02*
X752000D01*
X750000Y1583000D02*
Y1587000D01*
X365500Y1207500D02*
X369500D01*
X367500Y1205500D02*
Y1209500D01*
X138000Y1221500D02*
X142000D01*
X140000Y1219500D02*
Y1223500D01*
X340500Y1450000D02*
X344500D01*
X342500Y1448000D02*
Y1452000D01*
X283000Y1155000D02*
X287000D01*
X285000Y1153000D02*
Y1157000D01*
X728000Y1210000D02*
X732000D01*
X730000Y1208000D02*
Y1212000D01*
X555500Y1225000D02*
X559500D01*
X557500Y1223000D02*
Y1227000D01*
X1010500Y1207500D02*
X1014500D01*
X1012500Y1205500D02*
Y1209500D01*
X1045500Y1115000D02*
X1049500D01*
X1047500Y1113000D02*
Y1117000D01*
X1168000Y1117500D02*
X1172000D01*
X1170000Y1115500D02*
Y1119500D01*
X1138000Y1202500D02*
X1142000D01*
X1140000Y1200500D02*
Y1204500D01*
X1185499Y1244999D02*
X1189499D01*
X1187499Y1242999D02*
Y1246999D01*
X1253000Y1167500D02*
X1257000D01*
X1255000Y1165500D02*
Y1169500D01*
X1522997Y1204999D02*
X1526997D01*
X1524997Y1202999D02*
Y1206999D01*
X1523000Y1175000D02*
X1527000D01*
X1525000Y1173000D02*
Y1177000D01*
X1755497Y1239999D02*
X1759496D01*
X1757496Y1237999D02*
Y1241999D01*
X1875500Y1237500D02*
X1879500D01*
X1877500Y1235500D02*
Y1239500D01*
X1883000Y1262500D02*
X1887000D01*
X1885000Y1260500D02*
Y1264500D01*
X1843000Y1272500D02*
X1847000D01*
X1845000Y1270500D02*
Y1274500D01*
X1970500Y1237500D02*
X1974500D01*
X1972500Y1235500D02*
Y1239500D01*
X365499Y1534998D02*
X369499D01*
X367499Y1532999D02*
Y1536998D01*
X615500Y1230000D02*
X619500D01*
X617500Y1228000D02*
Y1232000D01*
X898000Y1212500D02*
X902000D01*
X900000Y1210500D02*
Y1214500D01*
X727999Y1527498D02*
X731999D01*
X729998Y1525499D02*
Y1529498D01*
X903000Y1450000D02*
X907000D01*
X905000Y1448000D02*
Y1452000D01*
X903000Y1410000D02*
X907000D01*
X905000Y1408000D02*
Y1412000D01*
X908000Y1055000D02*
X912000D01*
X910000Y1053000D02*
Y1057000D01*
X937998Y1427499D02*
X941998D01*
X939998Y1425499D02*
Y1429499D01*
X913000Y1625000D02*
X917000D01*
X915000Y1623000D02*
Y1627000D01*
X913000Y1400000D02*
X917000D01*
X915000Y1398000D02*
Y1402000D01*
X928000Y885000D02*
X932000D01*
X930000Y883000D02*
Y887000D01*
X925500Y1230000D02*
X929500D01*
X927500Y1228000D02*
Y1232000D01*
X935500Y1240000D02*
X939500D01*
X937500Y1238000D02*
Y1242000D01*
X930500Y1045000D02*
X934500D01*
X932500Y1043000D02*
Y1047000D01*
X913000Y1585000D02*
X917000D01*
X915000Y1583000D02*
Y1587000D01*
X898000Y1597500D02*
X902000D01*
X900000Y1595500D02*
Y1599500D01*
X95500Y882500D02*
X99500D01*
X97500Y880500D02*
Y884500D01*
X123000Y882500D02*
X127000D01*
X125000Y880500D02*
Y884500D01*
X110500Y882500D02*
X114500D01*
X112500Y880500D02*
Y884500D01*
X128000Y1250000D02*
X132000D01*
X130000Y1248000D02*
Y1252000D01*
X118000Y1292500D02*
X122000D01*
X120000Y1290500D02*
Y1294500D01*
X1078000Y1232500D02*
X1082000D01*
X1080000Y1230500D02*
Y1234500D01*
X1405500Y1230000D02*
X1409500D01*
X1407500Y1228000D02*
Y1232000D01*
X1130951Y1257951D02*
X1134951D01*
X1132951Y1255951D02*
Y1259951D01*
X1945500Y1245000D02*
X1949500D01*
X1947500Y1243000D02*
Y1247000D01*
X660500Y1527500D02*
X664500D01*
X662500Y1525500D02*
Y1529500D01*
X2325500Y862500D02*
X2329500D01*
X2327500Y860500D02*
Y864500D01*
X2402995Y872500D02*
X2406995D01*
X2404995Y870500D02*
Y874500D01*
X1970500Y850000D02*
X1974500D01*
X1972500Y848000D02*
Y852000D01*
X1788000Y837500D02*
X1792000D01*
X1790000Y835500D02*
Y839500D01*
X1798000Y867500D02*
X1802000D01*
X1800000Y865500D02*
Y869500D01*
X1808000Y880000D02*
X1812000D01*
X1810000Y878000D02*
Y882000D01*
X2368000Y955000D02*
X2372000D01*
X2370000Y953000D02*
Y957000D01*
X2640500Y860000D02*
X2644500D01*
X2642500Y858000D02*
Y862000D01*
X2215500Y860000D02*
X2219500D01*
X2217500Y858000D02*
Y862000D01*
X2705500Y860000D02*
X2709500D01*
X2707500Y858000D02*
Y862000D01*
X2653000Y900000D02*
X2657000D01*
X2655000Y898000D02*
Y902000D01*
X2683000Y1232500D02*
X2687000D01*
X2685000Y1230500D02*
Y1234500D01*
X2695495Y1247499D02*
X2699495D01*
X2697495Y1245499D02*
Y1249499D01*
X2695500Y1262500D02*
X2699500D01*
X2697500Y1260500D02*
Y1264500D01*
X1105500Y867500D02*
X1109500D01*
X1107500Y865500D02*
Y869500D01*
X1130500Y867500D02*
X1134500D01*
X1132500Y865500D02*
Y869500D01*
X1476500Y853500D02*
X1480500D01*
X1478500Y851500D02*
Y855500D01*
X1493000Y872500D02*
X1497000D01*
X1495000Y870500D02*
Y874500D01*
X2278000Y1100000D02*
X2282000D01*
X2280000Y1098000D02*
Y1102000D01*
X2553000Y960000D02*
X2557000D01*
X2555000Y958000D02*
Y962000D01*
X2413000Y955000D02*
X2417000D01*
X2415000Y953000D02*
Y957000D01*
X2610500Y1040000D02*
X2614500D01*
X2612500Y1038000D02*
Y1042000D01*
X2585500Y1040000D02*
X2589500D01*
X2587500Y1038000D02*
Y1042000D01*
X2635500Y1032500D02*
X2639500D01*
X2637500Y1030500D02*
Y1034500D01*
X2660500Y1022500D02*
X2664500D01*
X2662500Y1020500D02*
Y1024500D01*
X2430500Y1057500D02*
X2434500D01*
X2432500Y1055500D02*
Y1059500D01*
X2388000Y1047500D02*
X2392000D01*
X2390000Y1045500D02*
Y1049500D01*
X2398000Y1037500D02*
X2402000D01*
X2400000Y1035500D02*
Y1039500D01*
X2405500Y1027500D02*
X2409500D01*
X2407500Y1025500D02*
Y1029500D01*
X2215496Y1027500D02*
X2219496D01*
X2217496Y1025500D02*
Y1029500D01*
X2325500Y1017500D02*
X2329500D01*
X2327500Y1015500D02*
Y1019500D01*
X2205500Y1017500D02*
X2209500D01*
X2207500Y1015500D02*
Y1019500D01*
X1540500Y1682500D02*
X1544500D01*
X1542500Y1680500D02*
Y1684500D01*
X2645500Y1280000D02*
X2649500D01*
X2647500Y1278000D02*
Y1282000D01*
X2673000Y1275000D02*
X2677000D01*
X2675000Y1273000D02*
Y1277000D01*
X2198000Y1585000D02*
X2202000D01*
X2200000Y1583000D02*
Y1587000D01*
X2505500Y1487500D02*
X2509500D01*
X2507500Y1485500D02*
Y1489500D01*
X2455495Y1592498D02*
X2459495D01*
X2457495Y1590498D02*
Y1594498D01*
X2783000Y1557500D02*
X2787000D01*
X2785000Y1555500D02*
Y1559500D01*
X2743000Y1557500D02*
X2747000D01*
X2745000Y1555500D02*
Y1559500D01*
X2743000Y1575000D02*
X2747000D01*
X2745000Y1573000D02*
Y1577000D01*
X2798000Y1578499D02*
X2802000D01*
X2800000Y1576499D02*
Y1580500D01*
X2808000Y1578499D02*
X2812000D01*
X2810000Y1576499D02*
Y1580500D01*
X2778000Y1575000D02*
X2782000D01*
X2780000Y1573000D02*
Y1577000D01*
X2798000Y1625000D02*
X2802000D01*
X2800000Y1623000D02*
Y1627000D01*
X2808000Y1625000D02*
X2812000D01*
X2810000Y1623000D02*
Y1627000D01*
X2135496Y1597498D02*
X2139496D01*
X2137496Y1595498D02*
Y1599498D01*
X2325495Y1592498D02*
X2329495D01*
X2327495Y1590498D02*
Y1594498D01*
X2515300Y1602700D02*
X2519300D01*
X2517300Y1600700D02*
Y1604700D01*
X1945500Y1400000D02*
X1949500D01*
X1947500Y1398000D02*
Y1402000D01*
X1874800Y1492500D02*
X1878800D01*
X1876800Y1490500D02*
Y1494500D01*
X1718000Y1475000D02*
X1722000D01*
X1720000Y1473000D02*
Y1477000D01*
X1653000Y1455000D02*
X1657000D01*
X1655000Y1453000D02*
Y1457000D01*
X1708000Y1482500D02*
X1712000D01*
X1710000Y1480500D02*
Y1484500D01*
X1733000Y1492500D02*
X1737000D01*
X1735000Y1490500D02*
Y1494500D01*
X1933000Y1625000D02*
X1937000D01*
X1935000Y1623000D02*
Y1627000D01*
X1655500Y1245000D02*
X1659500D01*
X1657500Y1243000D02*
Y1247000D01*
X1138000Y1417500D02*
X1142000D01*
X1140000Y1415500D02*
Y1419500D01*
X1185500Y1435000D02*
X1189500D01*
X1187500Y1433000D02*
Y1437000D01*
X1128000Y1435000D02*
X1132000D01*
X1130000Y1433000D02*
Y1437000D01*
X1128000Y1450000D02*
X1132000D01*
X1130000Y1448000D02*
Y1452000D01*
X1078000Y1450000D02*
X1082000D01*
X1080000Y1448000D02*
Y1452000D01*
X1290500Y1212500D02*
X1294500D01*
X1292500Y1210500D02*
Y1214500D01*
X1643000Y1420000D02*
X1647000D01*
X1645000Y1418000D02*
Y1422000D01*
X1633000Y1442500D02*
X1637000D01*
X1635000Y1440500D02*
Y1444500D01*
X1673000Y1585000D02*
X1677000D01*
X1675000Y1583000D02*
Y1587000D01*
X1298000Y1419250D02*
X1302000D01*
X1300000Y1417250D02*
Y1421250D01*
X1375500Y1410000D02*
X1379500D01*
X1377500Y1408000D02*
Y1412000D01*
X1285500Y1410000D02*
X1289500D01*
X1287500Y1408000D02*
Y1412000D01*
X1305500Y1222500D02*
X1309500D01*
X1307500Y1220500D02*
Y1224500D01*
X1298000Y1250000D02*
X1302000D01*
X1300000Y1248000D02*
Y1252000D01*
X1565500Y1410000D02*
X1569500D01*
X1567500Y1408000D02*
Y1412000D01*
X1673000Y1437500D02*
X1677000D01*
X1675000Y1435500D02*
Y1439500D01*
X2135496Y1434999D02*
X2139496D01*
X2137496Y1432999D02*
Y1436999D01*
X1565500Y832500D02*
X1569500D01*
X1567500Y830500D02*
Y834500D01*
X1675500Y902500D02*
X1679500D01*
X1677500Y900500D02*
Y904500D01*
X1683000Y921250D02*
X1687000D01*
X1685000Y919250D02*
Y923250D01*
X1483000Y862500D02*
X1487000D01*
X1485000Y860500D02*
Y864500D01*
X1990500Y1112500D02*
X1994500D01*
X1992500Y1110500D02*
Y1114500D01*
X2168000Y1585000D02*
X2172000D01*
X2170000Y1583000D02*
Y1587000D01*
X2128000Y1577500D02*
X2132000D01*
X2130000Y1575500D02*
Y1579500D01*
X1878000Y1587500D02*
X1882000D01*
X1880000Y1585500D02*
Y1589500D01*
X1832996Y1572498D02*
X1836996D01*
X1834996Y1570498D02*
Y1574498D01*
X1833000Y1585000D02*
X1837000D01*
X1835000Y1583000D02*
Y1587000D01*
X1743000Y1592500D02*
X1747000D01*
X1745000Y1590500D02*
Y1594500D01*
X1815500Y1577500D02*
X1819500D01*
X1817500Y1575500D02*
Y1579500D01*
X1760500Y1592500D02*
X1764500D01*
X1762500Y1590500D02*
Y1594500D01*
X1750497Y1582498D02*
X1754496D01*
X1752496Y1580498D02*
Y1584498D01*
X1585500Y1602500D02*
X1589500D01*
X1587500Y1600500D02*
Y1604500D01*
X1560500Y1595000D02*
X1564500D01*
X1562500Y1593000D02*
Y1597000D01*
X1108000Y1565000D02*
X1112000D01*
X1110000Y1563000D02*
Y1567000D01*
X1075500Y1528250D02*
X1079500D01*
X1077500Y1526250D02*
Y1530250D01*
X1088000Y1545000D02*
X1092000D01*
X1090000Y1543000D02*
Y1547000D01*
X1098000Y1555000D02*
X1102000D01*
X1100000Y1553000D02*
Y1557000D01*
X1445500Y1460000D02*
X1449500D01*
X1447500Y1458000D02*
Y1462000D01*
X1695497Y972500D02*
X1699497D01*
X1697497Y970500D02*
Y974500D01*
X1708000Y1175001D02*
X1712000D01*
X1710000Y1173000D02*
Y1177001D01*
X1520497Y1109999D02*
X1524497D01*
X1522497Y1107999D02*
Y1111999D01*
X1475500Y955000D02*
X1479500D01*
X1477500Y953000D02*
Y957000D01*
X1405500Y955000D02*
X1409500D01*
X1407500Y953000D02*
Y957000D01*
X1315500Y1260000D02*
X1319500D01*
X1317500Y1258000D02*
Y1262000D01*
X1265500Y1260000D02*
X1269500D01*
X1267500Y1258000D02*
Y1262000D01*
X1210500Y1015000D02*
X1214500D01*
X1212500Y1013000D02*
Y1017000D01*
X1160500Y1015000D02*
X1164500D01*
X1162500Y1013000D02*
Y1017000D01*
X1715497Y1064999D02*
X1719497D01*
X1717497Y1062999D02*
Y1066999D01*
X1665497Y912500D02*
X1669497D01*
X1667497Y910500D02*
Y914500D01*
X1158000Y895000D02*
X1162000D01*
X1160000Y893000D02*
Y897000D01*
X1143000Y1012500D02*
X1147000D01*
X1145000Y1010500D02*
Y1014500D01*
X1128000Y1070000D02*
X1132000D01*
X1130000Y1068000D02*
Y1072000D01*
X1078000Y1070000D02*
X1082000D01*
X1080000Y1068000D02*
Y1072000D01*
X750500Y1022250D02*
X754500D01*
X752500Y1020250D02*
Y1024250D01*
X2135500Y1245000D02*
X2139500D01*
X2137500Y1243000D02*
Y1247000D01*
X2135500Y1027500D02*
X2139500D01*
X2137500Y1025500D02*
Y1029500D01*
X2325495Y1434999D02*
X2329495D01*
X2327495Y1432999D02*
Y1436999D01*
X1790500Y1025000D02*
X1794500D01*
X1792500Y1023000D02*
Y1027000D01*
X1443000Y1000000D02*
X1447000D01*
X1445000Y998000D02*
Y1002000D01*
X1795500Y1035000D02*
X1799500D01*
X1797500Y1033000D02*
Y1037000D01*
X1440500Y1087500D02*
X1444500D01*
X1442500Y1085500D02*
Y1089500D01*
X1453000Y1010000D02*
X1457000D01*
X1455000Y1008000D02*
Y1012000D01*
X1328100Y1095100D02*
X1332100D01*
X1330100Y1093100D02*
Y1097100D01*
X1349998Y1107000D02*
X1353998D01*
X1351998Y1105000D02*
Y1109000D01*
X1453000Y1087500D02*
X1457000D01*
X1455000Y1085500D02*
Y1089500D01*
X1308100Y1107600D02*
X1312100D01*
X1310100Y1105600D02*
Y1109600D01*
X1160500Y1107500D02*
X1164500D01*
X1162500Y1105500D02*
Y1109500D01*
X1773000Y1045000D02*
X1777000D01*
X1775000Y1043000D02*
Y1047000D01*
X1460500Y1020000D02*
X1464500D01*
X1462500Y1018000D02*
Y1022000D01*
X970001Y1107000D02*
X974001D01*
X972001Y1105000D02*
Y1109000D01*
X780001Y1107000D02*
X784001D01*
X782001Y1105000D02*
Y1109000D01*
X590000Y1107000D02*
X594000D01*
X592000Y1105000D02*
Y1109000D01*
X1676750Y1050000D02*
X1680750D01*
X1678750Y1048000D02*
Y1052000D01*
X1668000Y1060000D02*
X1672000D01*
X1670000Y1058000D02*
Y1062000D01*
X1658000Y1067500D02*
X1662000D01*
X1660000Y1065500D02*
Y1069500D01*
X1648000Y1077500D02*
X1652000D01*
X1650000Y1075500D02*
Y1079500D01*
X1613000Y1112500D02*
X1617000D01*
X1615000Y1110500D02*
Y1114500D01*
X1843000Y1285000D02*
X1847000D01*
X1845000Y1283000D02*
Y1287000D01*
X1833000Y1297500D02*
X1837000D01*
X1835000Y1295500D02*
Y1299500D01*
X1903000Y1054999D02*
X1907000D01*
X1905000Y1052999D02*
Y1056999D01*
X1363000Y947500D02*
X1367000D01*
X1365000Y945500D02*
Y949500D01*
X1393750Y1015000D02*
X1397750D01*
X1395750Y1013000D02*
Y1017000D01*
X1385500Y1005000D02*
X1389500D01*
X1387500Y1003000D02*
Y1007000D01*
X1385500Y927500D02*
X1389500D01*
X1387500Y925500D02*
Y929500D01*
X1388000Y940000D02*
X1392000D01*
X1390000Y938000D02*
Y942000D01*
X1380500Y1025000D02*
X1384500D01*
X1382500Y1023000D02*
Y1027000D01*
X1670000Y1119500D02*
X1674000D01*
X1672000Y1117500D02*
Y1121500D01*
X1457997Y1474999D02*
X1461997D01*
X1459997Y1472999D02*
Y1476999D01*
X1460500Y1445000D02*
X1464500D01*
X1462500Y1443000D02*
Y1447000D01*
X2440000Y1665000D02*
X2444000D01*
X2442000Y1663000D02*
Y1667000D01*
X2413000Y1635000D02*
X2417000D01*
X2415000Y1633000D02*
Y1637000D01*
X2300000Y1677000D02*
X2304000D01*
X2302000Y1675000D02*
Y1679000D01*
X2425000Y1677000D02*
X2429000D01*
X2427000Y1675000D02*
Y1679000D01*
X1920002Y1677000D02*
X1924001D01*
X1922001Y1675000D02*
Y1679000D01*
X1730000Y1677000D02*
X1734000D01*
X1732000Y1675000D02*
Y1679000D01*
X1683000Y1427500D02*
X1687000D01*
X1685000Y1425500D02*
Y1429500D01*
X1662997Y1447499D02*
X1666997D01*
X1664997Y1445499D02*
Y1449499D01*
X2300000Y1487000D02*
X2304000D01*
X2302000Y1485000D02*
Y1489000D01*
X2110000Y1487000D02*
X2114000D01*
X2112000Y1485000D02*
Y1489000D01*
X1920000Y1487000D02*
X1923999D01*
X1922000Y1485000D02*
Y1489000D01*
X805498Y1239999D02*
X809498D01*
X807498Y1237999D02*
Y1241999D01*
X1755497Y1054999D02*
X1759496D01*
X1757496Y1052999D02*
Y1056999D01*
X1360500Y1245000D02*
X1364500D01*
X1362500Y1243000D02*
Y1247000D01*
X342999Y1027499D02*
X346999D01*
X344999Y1025499D02*
Y1029500D01*
X333000Y1032500D02*
X337000D01*
X335000Y1030500D02*
Y1034500D01*
X323000Y1045000D02*
X327000D01*
X325000Y1043000D02*
Y1047000D01*
X293000Y867500D02*
X297000D01*
X295000Y865500D02*
Y869500D01*
X303000Y877500D02*
X307000D01*
X305000Y875500D02*
Y879500D01*
X313000Y867500D02*
X317000D01*
X315000Y865500D02*
Y869500D01*
X540000Y1665000D02*
X544000D01*
X542000Y1663000D02*
Y1667000D01*
X283000Y1665000D02*
X287000D01*
X285000Y1663000D02*
Y1667000D01*
X263000Y1665000D02*
X267000D01*
X265000Y1663000D02*
Y1667000D01*
X513000Y1635000D02*
X517000D01*
X515000Y1633000D02*
Y1637000D01*
X335500Y1645000D02*
X339500D01*
X337500Y1643000D02*
Y1647000D01*
X302999Y1284999D02*
X306999D01*
X304999Y1282999D02*
Y1286999D01*
X312999Y1269999D02*
X316999D01*
X314999Y1267999D02*
Y1271999D01*
X343000Y889200D02*
X347000D01*
X345000Y887200D02*
Y891200D01*
X333000Y905000D02*
X337000D01*
X335000Y903000D02*
Y907000D01*
X322999Y917500D02*
X326999D01*
X324999Y915500D02*
Y919500D01*
X590000Y1297000D02*
X594000D01*
X592000Y1295000D02*
Y1299000D01*
X400001Y1297000D02*
X404001D01*
X402001Y1295000D02*
Y1299000D01*
X292999Y1297499D02*
X296999D01*
X294999Y1295499D02*
Y1299499D01*
X253000Y1604998D02*
X257000D01*
X255000Y1602998D02*
Y1606998D01*
X1127998Y1226703D02*
X1131998D01*
X1129998Y1224703D02*
Y1228703D01*
X1185500Y1055000D02*
X1189500D01*
X1187500Y1053000D02*
Y1057000D01*
X1375500Y1245000D02*
X1379500D01*
X1377500Y1243000D02*
Y1247000D01*
X995500Y1625000D02*
X999500D01*
X997500Y1623000D02*
Y1627000D01*
X935500Y1625000D02*
X939500D01*
X937500Y1623000D02*
Y1627000D01*
X780500Y1230000D02*
X784500D01*
X782500Y1228000D02*
Y1232000D01*
X763000Y1240000D02*
X767000D01*
X765000Y1238000D02*
Y1242000D01*
X563000Y1408201D02*
X567000D01*
X565000Y1406201D02*
Y1410201D01*
X563000Y1625000D02*
X567000D01*
X565000Y1623000D02*
Y1627000D01*
X553000Y1615000D02*
X557000D01*
X555000Y1613000D02*
Y1617000D01*
X553000Y1435000D02*
X557000D01*
X555000Y1433000D02*
Y1437000D01*
X543000Y1417500D02*
X547000D01*
X545000Y1415500D02*
Y1419500D01*
X875500Y1615000D02*
X879500D01*
X877500Y1613000D02*
Y1617000D01*
X425499Y1594998D02*
X429499D01*
X427499Y1592998D02*
Y1596998D01*
X355499Y1609998D02*
X359499D01*
X357499Y1607998D02*
Y1611998D01*
X995500Y1055000D02*
X999500D01*
X997500Y1053000D02*
Y1057000D01*
X995500Y1436701D02*
X999500D01*
X997500Y1434701D02*
Y1438701D01*
X805500Y1055000D02*
X809500D01*
X807500Y1053000D02*
Y1057000D01*
X805500Y1435000D02*
X809500D01*
X807500Y1433000D02*
Y1437000D01*
X1375497Y1624998D02*
X1379497D01*
X1377497Y1622998D02*
Y1626998D01*
X1898000Y1611998D02*
X1902000D01*
X1900000Y1609998D02*
Y1613998D01*
X1518000Y1611998D02*
X1522000D01*
X1520000Y1609998D02*
Y1613998D01*
X1328000Y1611998D02*
X1332000D01*
X1330000Y1609998D02*
Y1613998D01*
X1138000Y1611998D02*
X1142000D01*
X1140000Y1609998D02*
Y1613998D01*
X948000Y1611998D02*
X952000D01*
X950000Y1609998D02*
Y1613998D01*
X758000Y1612500D02*
X762000D01*
X760000Y1610500D02*
Y1614500D01*
X1315500Y1585000D02*
X1319500D01*
X1317500Y1583000D02*
Y1587000D01*
X1278000Y1597500D02*
X1282000D01*
X1280000Y1595500D02*
Y1599500D01*
X748000Y1435000D02*
X752000D01*
X750000Y1433000D02*
Y1437000D01*
X745500Y1240000D02*
X749500D01*
X747500Y1238000D02*
Y1242000D01*
X1015500Y1235000D02*
X1019500D01*
X1017500Y1233000D02*
Y1237000D01*
X760500Y865000D02*
X764500D01*
X762500Y863000D02*
Y867000D01*
X682998Y864998D02*
X686998D01*
X684998Y862998D02*
Y866998D01*
X355500Y1622500D02*
X359500D01*
X357500Y1620500D02*
Y1624500D01*
X355500Y1657500D02*
X359500D01*
X357500Y1655500D02*
Y1659500D01*
X313000Y1657500D02*
X317000D01*
X315000Y1655500D02*
Y1659500D01*
X615499Y1434999D02*
X619499D01*
X617499Y1432999D02*
Y1436999D01*
X555499Y1054999D02*
X559499D01*
X557499Y1052999D02*
Y1056999D01*
X615499Y1054998D02*
X619499D01*
X617499Y1052999D02*
Y1056999D01*
X345500Y1240000D02*
X349500D01*
X347500Y1238000D02*
Y1242000D01*
X995500Y1244999D02*
X999500D01*
X997500Y1242999D02*
Y1246999D01*
X805499Y1624998D02*
X809499D01*
X807499Y1622998D02*
Y1626998D01*
X615499Y1624998D02*
X619499D01*
X617499Y1622998D02*
Y1626998D01*
X355500Y880000D02*
X359500D01*
X357500Y878000D02*
Y882000D01*
X355500Y1260000D02*
X359500D01*
X357500Y1258000D02*
Y1262000D01*
X425499Y1244999D02*
X429499D01*
X427499Y1242999D02*
Y1246999D01*
X447999Y864998D02*
X451999D01*
X449999Y862998D02*
Y866998D01*
X425499Y1054998D02*
X429499D01*
X427499Y1052999D02*
Y1056999D01*
X345500Y1070000D02*
X349500D01*
X347500Y1068000D02*
Y1072000D01*
X345500Y1717500D02*
X349500D01*
X347500Y1715500D02*
Y1719500D01*
X313000Y1717500D02*
X317000D01*
X315000Y1715500D02*
Y1719500D01*
X425499Y1434999D02*
X429499D01*
X427499Y1432999D02*
Y1436999D01*
X160500Y1292500D02*
X164500D01*
X162500Y1290500D02*
Y1294500D01*
X1852500Y917000D02*
X1856500D01*
X1854500Y915000D02*
Y919000D01*
X2087500Y917000D02*
X2091500D01*
X2089500Y915000D02*
Y919000D01*
X2490000Y917000D02*
X2494000D01*
X2492000Y915000D02*
Y919000D01*
X2300001Y917000D02*
X2304001D01*
X2302001Y915000D02*
Y919000D01*
X708000Y1145000D02*
X712000D01*
X710000Y1143000D02*
Y1147000D01*
X853000Y1337500D02*
X857001D01*
X855001Y1335500D02*
Y1339500D01*
X1043001Y1337500D02*
X1047001D01*
X1045001Y1335500D02*
Y1339500D01*
X1423000Y1337500D02*
X1427000D01*
X1425000Y1335500D02*
Y1339500D01*
X1803001Y1337500D02*
X1807001D01*
X1805001Y1335500D02*
Y1339500D01*
X2373002Y1337500D02*
X2377002D01*
X2375002Y1335500D02*
Y1339500D01*
X545500Y1155000D02*
X549500D01*
X547500Y1153000D02*
Y1157000D01*
X2778500Y1606500D02*
X2782500D01*
X2780500Y1604500D02*
Y1608500D01*
X2748500Y1606500D02*
X2752500D01*
X2750500Y1604500D02*
Y1608500D01*
X298000Y1675000D02*
X302000D01*
X300000Y1673000D02*
Y1677000D01*
X525000Y1677000D02*
X529000D01*
X527000Y1675000D02*
Y1679000D01*
X970000Y1677000D02*
X974000D01*
X972000Y1675000D02*
Y1679000D01*
X590000Y1677000D02*
X594000D01*
X592000Y1675000D02*
Y1679000D01*
X780000Y1677000D02*
X784000D01*
X782000Y1675000D02*
Y1679000D01*
X400000Y1677000D02*
X404000D01*
X402000Y1675000D02*
Y1679000D01*
X1350000Y1487000D02*
X1354000D01*
X1352000Y1485000D02*
Y1489000D01*
X1160000Y1487000D02*
X1164000D01*
X1162000Y1485000D02*
Y1489000D01*
X1540000Y1487000D02*
X1544000D01*
X1542000Y1485000D02*
Y1489000D01*
X2110000Y1297000D02*
X2114000D01*
X2112000Y1295000D02*
Y1299000D01*
X1920000Y1297000D02*
X1924000D01*
X1922000Y1295000D02*
Y1299000D01*
X2300000Y1297000D02*
X2304000D01*
X2302000Y1295000D02*
Y1299000D01*
X2110000Y1107000D02*
X2114000D01*
X2112000Y1105000D02*
Y1109000D01*
X1920000Y1107000D02*
X1924000D01*
X1922000Y1105000D02*
Y1109000D01*
X780000Y1487000D02*
X784000D01*
X782000Y1485000D02*
Y1489000D01*
X970000Y1487000D02*
X974000D01*
X972000Y1485000D02*
Y1489000D01*
X400000Y1487000D02*
X404000D01*
X402000Y1485000D02*
Y1489000D01*
X590000Y1487000D02*
X593999D01*
X592000Y1485000D02*
Y1489000D01*
X1540000Y1297000D02*
X1544000D01*
X1542000Y1295000D02*
Y1299000D01*
X1730000Y1297000D02*
X1733999D01*
X1732000Y1295000D02*
Y1299000D01*
X1160000Y1297000D02*
X1164000D01*
X1162000Y1295000D02*
Y1299000D01*
X1350000Y1297000D02*
X1353999D01*
X1352000Y1295000D02*
Y1299000D01*
X970001Y1297000D02*
X974001D01*
X972001Y1295000D02*
Y1299000D01*
X1730000Y1107000D02*
X1733999D01*
X1732000Y1105000D02*
Y1109000D01*
X422500Y917000D02*
X426500D01*
X424500Y915000D02*
Y919000D01*
X1255000Y917000D02*
X1259000D01*
X1257000Y915000D02*
Y919000D01*
X1540000Y917000D02*
X1544000D01*
X1542000Y915000D02*
Y919000D01*
X657499Y917000D02*
X661499D01*
X659499Y915000D02*
Y919000D01*
X1278000Y1065000D02*
X1282000D01*
X1280000Y1063000D02*
Y1067000D01*
X2590500Y877500D02*
X2594500D01*
X2592500Y875500D02*
Y879500D01*
X2515495Y1234999D02*
X2519495D01*
X2517495Y1232999D02*
Y1236999D01*
X2450500Y1207500D02*
X2454500D01*
X2452500Y1205500D02*
Y1209500D01*
X2425500Y1227500D02*
X2429500D01*
X2427500Y1225500D02*
Y1229500D01*
X2663000Y1327500D02*
X2667000D01*
X2665000Y1325500D02*
Y1329500D01*
X2453000Y1245000D02*
X2457000D01*
X2455000Y1243000D02*
Y1247000D01*
X2493000Y1572500D02*
X2497000D01*
X2495000Y1570500D02*
Y1574500D01*
X2395500Y1582500D02*
X2399500D01*
X2397500Y1580500D02*
Y1584500D01*
X2408000Y1582500D02*
X2412000D01*
X2410000Y1580500D02*
Y1584500D01*
X2428000Y1552500D02*
X2432000D01*
X2430000Y1550500D02*
Y1554500D01*
X2490000Y1487000D02*
X2494000D01*
X2492000Y1485000D02*
Y1489000D01*
X2523000Y1562500D02*
X2527000D01*
X2525000Y1560500D02*
Y1564500D01*
X2683000Y1580000D02*
X2687000D01*
X2685000Y1578000D02*
Y1582000D01*
X1763000Y825000D02*
X1767000D01*
X1765000Y823000D02*
Y827000D01*
X1735500Y967500D02*
X1739500D01*
X1737500Y965500D02*
Y969500D01*
X2858000Y882500D02*
X2862000D01*
X2860000Y880500D02*
Y884500D01*
X2479461Y1219499D02*
X2483461D01*
X2481461Y1217499D02*
Y1221499D01*
X2455500Y1217500D02*
X2459500D01*
X2457500Y1215500D02*
Y1219500D01*
X2413000Y1295000D02*
X2417000D01*
X2415000Y1293000D02*
Y1297000D01*
X2423000Y1285000D02*
X2427000D01*
X2425000Y1283000D02*
Y1287000D01*
X2450500Y1290000D02*
X2454500D01*
X2452500Y1288000D02*
Y1292000D01*
X2460500Y1295000D02*
X2464500D01*
X2462500Y1293000D02*
Y1297000D01*
X2460495Y1307499D02*
X2464495D01*
X2462495Y1305499D02*
Y1309499D01*
X2448000Y1372500D02*
X2452000D01*
X2450000Y1370500D02*
Y1374500D01*
X2470495Y1362499D02*
X2474495D01*
X2472495Y1360499D02*
Y1364499D01*
X2478000Y1412500D02*
X2482000D01*
X2480000Y1410500D02*
Y1414500D01*
X1450500Y832500D02*
X1454500D01*
X1452500Y830500D02*
Y834500D01*
X1433000Y964750D02*
X1437000D01*
X1435000Y962750D02*
Y966750D01*
X1528000Y825000D02*
X1532000D01*
X1530000Y823000D02*
Y827000D01*
X1513000Y825000D02*
X1517000D01*
X1515000Y823000D02*
Y827000D01*
X1500500Y825000D02*
X1504500D01*
X1502500Y823000D02*
Y827000D01*
X1550500Y827500D02*
X1554500D01*
X1552500Y825500D02*
Y829500D01*
X1205500Y849250D02*
X1209500D01*
X1207500Y847250D02*
Y851250D01*
X1090500Y865000D02*
X1094500D01*
X1092500Y863000D02*
Y867000D01*
X75500Y1452500D02*
X79500D01*
X77500Y1450500D02*
Y1454500D01*
X2523000Y1005000D02*
X2527000D01*
X2525000Y1003000D02*
Y1007000D01*
X2438000Y990000D02*
X2442000D01*
X2440000Y988000D02*
Y992000D01*
X2590500Y837500D02*
X2594500D01*
X2592500Y835500D02*
Y839500D01*
X2576374Y837500D02*
X2580374D01*
X2578374Y835500D02*
Y839500D01*
X2626500Y854000D02*
X2630500D01*
X2628500Y852000D02*
Y856000D01*
X2665500Y832500D02*
X2669500D01*
X2667500Y830500D02*
Y834500D01*
X400001Y1107000D02*
X404001D01*
X402001Y1105000D02*
Y1109000D01*
X1763000Y802500D02*
X1767000D01*
X1765000Y800500D02*
Y804500D01*
X2665500Y802500D02*
X2669500D01*
X2667500Y800500D02*
Y804500D01*
M02*
