M48
;Layer_Color=9474304
;FILE_FORMAT=4:4
METRIC,LZ
;TYPE=PLATED
T1F00S00C0.2000
T2F00S00C0.3000
T3F00S00C0.3500
T4F00S00C0.4000
T5F00S00C0.5000
T6F00S00C0.7500
T7F00S00C0.9000
T8F00S00C0.9500
T9F00S00C1.1500
T10F00S00C1.5500
T11F00S00C2.6000
T12F00S00C2.8000
T13F00S00C3.2000
;TYPE=NON_PLATED
T14F00S00C0.9000
T15F00S00C1.7500
T16F00S00C4.1000
%
T01
X014265Y00883
Y00894
X014375
Y00883
X014485
Y00894
Y00905
X014375
X014265
Y00916
X014375
X014485
Y00927
X014375
X014265
X017265
Y00916
Y00905
Y00894
Y00883
X017375
Y00894
X017485
Y00883
Y00905
X017375
Y00916
X017485
Y00927
X017375
X030349Y012439
X030459
X030569
Y012549
X030459
X030349
Y012659
X030459
X030569
Y012769
Y012879
X030459
Y012769
X030349
Y012879
Y013963
X030459
X030569
Y014073
X030459
X030349
Y014183
X030459
X030569
Y014293
Y014403
X030459
Y014293
X030349
Y014403
T02
X031625Y008175
X03215
X03335Y00815
X034625
X03085Y0087
X030725Y00885
Y00895
X03065Y009425
X03085
X03095Y011225
X03065
X03035
X03005
X03004099Y01146601
Y01181601
X0304Y01185
Y011925
X03039099Y01164101
X02969099
X02975Y011225
X02945
X02934099Y01181601
X02894Y01175
Y01205
X031325Y012125
X03125Y011225
X03155
X03185
X031775Y0114
X0317
Y0115
X031775
X03187501Y011625
X03215Y011225
X03245
X03275
X03305
X03335
X03365
X03395
X03389099Y01164101
X034241Y01181601
X03447Y01175
Y01205
X034003Y012169
X033803Y012169
X033655
X033503
X033353
X033203
X033053
X032903
X032755
X032603
X032453
X032303Y012169
X0325Y01005
X03284005Y01038495
X033825Y010275
X0342Y010125
X0344Y0106
X034375Y0096125
Y0095275
X034325Y00944
Y00935
X034375Y0092725
X0343Y0092
X03443592Y0091425
X034525Y0092
X0347525Y009225
X03475Y009675
Y009875
X034525Y009625
X03347501Y0096
X033475Y00885
Y00875
X03335Y0085
X032775Y00855
Y0084
X03255Y008225
X03255498Y00862998
X0326Y00885
X032275Y008825
X03219
X032105
X03202
X031935
X03185
X031825Y008625
X0316
X0315Y008425
X031625Y0083
Y01005
X031225Y009925
X03122Y009655
X03105Y010125
X034375Y008375
X03445Y0083
X034975Y00855
Y01035
X03447Y01235
Y01265
Y01295
Y01325
Y01355
Y01385
Y01415
Y01445
Y01475
Y01505
Y01535
Y01565
Y01595
X033703Y015894
X03342799Y015869
X033428Y016019
X033178Y015944
X033278Y0157765
X032878Y015844
X032703Y015994
Y016094
X032228
X03214099Y01601601
X031778Y016019
X031628Y015869
X031553Y015919
X031528Y015794
X0315265Y0156675
X03179099Y01549101
X032003Y015569
X032128Y015494
X032378
X03305299Y015244
X033126Y015106
Y015026
X033203Y014819
X033578Y014869
X033678
X033803
X033903
Y015369
X033978Y014394
X033778Y014419
X033353Y014319
Y014019
X033478Y013744
X033653Y013794
X033978Y013644
X033903Y013319
X033803
X03354099Y01321601
X033478Y012869
Y012769
X033553Y012694
X033628Y012644
X033901Y012396
X034153Y012594
X034028Y012944
X033178Y013069
X03315299Y013369
X03288601Y013344
Y013444
X03272799Y013569
X03248598Y01354602
Y01364098
Y01372102
X032578Y013744
X032328
X032128Y013669
X032028Y013694
X032026Y013531
X03197799Y013444
X031726Y013431
X031728Y013794
X031876Y01383602
X031878Y013969
X03179099Y01409101
X031578Y014069
X031453Y014094
Y013994
Y014194
Y014544
Y014644
Y014744
X031353
Y014644
X031603Y014544
X031753
X031903
X032078
X032228
X032403
X032553
X032703
X032853
X03267799Y014144
X032978Y013969
Y013869
X03297799Y013769
X033128Y013794
X032753Y013194
X032751Y012856
X032601
X032453Y013019
X03237102Y01300102
X032151Y013006
Y012916
X032276Y013181
X031628Y013119
X0316385Y013031
X031528Y013019
X03109099Y01304101
X031103Y012919
X03124101Y01264098
X031325Y012506
X031Y0126
X031003Y013744
Y014844
X031178Y014969
Y015209
X031278Y015219
X031203Y015394
X031053Y015419
Y0155405
Y015669
Y015794
X031128Y015919
Y016044
X031228Y015869
X031053Y0152865
X032678Y012569
X032828Y012619
X03286601Y01274601
X030878Y012819
X030953Y012919
X030668Y013094
X030578Y013294
X03039099Y01339101
X030078Y013244
Y013169
X029825Y0132
X0299Y0133
X02894Y01325
Y01355
Y01385
Y01415
Y01445
Y01475
Y01505
Y01535
Y01565
Y01595
X02934099Y01496601
X02969099Y01514101
Y01479101
X030077Y014757
Y014682
X029975Y014575
X029825Y014475
X0299Y0144
X030578Y014604
X030658
X030478Y014719
X03042601Y01513098
X030403Y015231
Y015319
X03042601Y01553098
X030403Y015631
Y015719
X03042601Y01593097
X03040302Y01603103
Y01611902
X03065103Y01608103
X030751Y015931
X030651Y015681
X030751Y015531
X030651Y015281
X030751Y015131
X030151Y015317
X030484Y013844
X030753Y013569
X02894Y01295
Y01265
Y01235
Y01625
Y01655
X02934099Y01671601
X02969099Y01689101
Y01654101
X030403Y016519
Y016431
X03042601Y01633097
X030751Y016331
X030651Y016481
X030903Y016519
X03095Y01725
X03065
X03035
X03005
X02975
X02945
X03039099Y01689101
X03109099
X03125Y01725
X03155
X03185
X03215
X03245
X03275
X03305
X03335
X03365
X03395
X034241Y01671601
X03447Y01655
Y01625
X03385Y016225
X033825Y016375
X033578Y016169
X033428
X033278
X033028Y016244
X032628Y016169
X032528Y016244
X03232799Y016319
X032253Y01624828
X03214099Y01636601
X031828Y016169
X031753Y016244
X031278
X031503Y016694
X031578Y016794
X031703Y016869
X031903Y016944
X032403Y016794
X032478Y016719
X032553Y016644
X032625Y01695
T03
X033291Y015401
X033421
X033351Y015481
X033291Y015561
X033421
X000655Y013885
Y013755
X000575Y013825
X000495Y013885
Y013755
T04
X0272275Y00801
X0274775
X0277275
X0279775
X0269775
X026675Y008025
X0264775Y00801
X0262275
X0259775
X0257275
X0254775
X0252275
X0249775
X0247275
X0244775
X0242275
X0239775
X0237275
X0234775
X0232275
X0229775
X0227275
X0224775
X0222275
X0219775
X0217275
X0214775
X0212275
X0209775
X0207275
X0204775
X0202275
X0199775
X0197275
X0194775
X0192275
X0189775
X0187275
X0184775
X0182275
X0179775
X01765Y008025
X0174775Y00801
X0172275
X0169775
X0167275
X0164775
X0162275
X0159775
X0157275
X0154775
X0104775
X0102275
X0099775
X0097275
X0094775
X0092275
X0089775
X0087275
X0084775
X0082275
X0079775
X0077275
X0074775
X0072275
X0069775
X0067275
X0064775
X0062275
X0059775
X0057275
X0054775
X0052275
X0049775
X0047275
X0044775
X0042275
X0039775
X0037275
X0034775
X0032275
X0029775
X0027275
X0024775
X0022275
X0019775
X0017275
X0014775
X0012275
X0009775
X0007275
X0008525Y00826
X0011025
X0013525
X0016025
X0018525
X0021025
X0023525
X0026025
X00295Y008675
X00305Y008775
X00315Y008675
X0028525Y00926
X0027275Y00951
X0023525Y00926
X0021025Y00976
X0018525
X0019775Y01001
X0017275
X0014775
X0016025Y01026
X0018525
X0021025
X0023525
X0026025
X0027275Y01051
X0024775
X0022275
X0019775
X0017275
X0014775
X0013525Y01076
Y01026
Y00976
Y00926
X0016025
X0012275Y00901
X00125Y008825
X001125
X000975
X000825Y008825
X00075075Y00875075
X0006025Y00876
X0003525
X0004775Y00901
X0007275
X0006025Y00926
X0003525
X0004775Y00951
X0007275
X0006025Y00976
X0003525
X0004775Y01001
X0007275
X0006025Y01026
X0003525
X0004775Y01051
X0007275
X0006025Y01076
X0003525
X0004775Y01101
X0007275
X0006025Y01126
X0003525
X0004775Y01151
X0007275
X0006025Y01176
X0003525
X0004775Y01201
X0007275
X0002275
Y01151
Y01101
Y01051
Y01001
Y00951
Y00901
Y00851
X0004775
X0007275
X0009775
X0012275
X0016025Y01176
X0018525
X0021025
X0022275Y01201
X0019775
X0017275
X0014775
X0026025Y01176
X00285Y01155
X0023525Y01126
X0033525
Y01176
X003675Y012075
X0047275Y01201
X0049775
X0054775
X0053525Y01176
X005475Y01155
X00535Y01125
X005275Y0108
X00557499Y01054999
X00617499Y01054998
X0062275Y01001
X0064775
X0067275
X0068525Y00976
X00659499Y00917
X0063525Y00926
X0061025
X0058525
X0056025
X0053525
X0054775Y00951
X0057275
X0059775
X0062275
X0059775Y01001
X0057275
X00578004Y008875
X00684998Y00864998
X00695Y01055
Y010825
Y01115
X0071Y01145
X0071025Y01176
X00592Y01107
X00402001
X0041025Y01126
X00427499Y01054998
X0044775Y01001
X0037275
X0038525Y00976
X0039775Y00951
X0037275
X0038525Y00926
X004245Y00917
X0043525Y00926
X00449999Y00864998
X003575Y0088
X00345Y008892
X00335Y00905
X00324999Y009175
X00335Y010325
X00344999Y01027499
X00325Y01045
X003475Y0107
X0049775Y00951
X0072275
X0073525Y00926
X0074775Y00901
X0077275
X0079775
X0082275
X0084775
X0087275
X0089775
X0091025Y00876
X0088525
X0086025
X0083525
X0081025
X0078525
X007625Y00865
X0073525Y00876
X0072275Y00901
X0078525Y00926
X0081025
X0083525
X0086025
X0088525
X0089775Y00951
X0087275
X0084775
X0082275
X0079775
X0077275
X007525Y0102225
X008075Y01055
X0082275Y0099775
X0087275Y0099475
X0088525Y010775
Y011175
Y0117
X009Y012125
X0098Y01195
X010125Y012075
X010475Y01115
X0108Y0107
X009975Y01055
X009325Y01045
X0091Y01055
X00972001Y01107
X0094775Y00951
Y00901
X0093Y00885
X0098525Y00926
X0103525
X0104775Y00951
X0107275
X0108525Y00926
X011075Y009425
Y008675
X010925Y00865
X0109775Y00851
X0107Y008775
X00782001Y01107
X00725Y011275
X0073Y0121
X0114Y012025
X011625Y011925
X0118629Y011675
X0117Y011175
X011625Y011075
X0113Y0107
X01145Y010125
X011625Y01015
X012125
X012325Y010125
X0123525Y01026
X0122275Y01001
X0127275
X0129775
X0128525Y00976
X0133525
X0132275Y00951
X0133525Y00926
X01364997Y009225
X01365Y009475
X0139Y0094
X013875Y009275
X014075Y00955
X01435Y0096475
X01445Y01
X01455Y0101
X014625Y0102
X0139575Y01015
X013875Y01005
X013825Y01025
X0136025Y01026
X01351998Y01107
X013301Y010951
X013101Y011076
X013075Y0114
Y011725
X012925Y012125
X012775
X01255Y011675
X0128Y01065
X011875Y01055
X0116Y00895
X01145Y008675
X011325
X01119998Y008675
X011725Y008575
X012075Y0084925
X0122Y008925
X01257Y00917
X01355Y008475
X013675Y0084
X013775Y00835
X0139Y008325
X013875Y00845
X013775Y00865
X014525Y008325
X014785Y008535
X01485Y008625
X01495Y008725
X015025Y00825
X014775Y00955
X01455Y010875
X014425
X014625Y0113
X014475Y011775
X0137Y0119
X01524997Y01204999
X01515Y01215
X01525Y01175
X015725Y011825
X0168Y011875
X0171Y01175001
X017025Y012125
X01749651Y01185
X01735985Y01121515
X01732Y01107
X017175Y01095
X01717497Y01064999
X01757496Y01054999
X01775Y01045
X017975Y01035
X017925Y01025
X0174775Y01001
X0172275
X0171025Y00976
X01697497Y009725
X017375Y009675
X0176025Y00976
X0184775Y01001
X0187275
X0189775
X0188525Y00976
X0186025Y00926
X018545Y00917
X0183525Y00926
X0181Y0088
X018Y008675
X0179Y008375
X01765Y00825
X01725Y00825
X016925
X01665Y008575
X0168Y008775
X016775Y009025
X01667497Y009125
X01685Y0092125
X0167275Y00951
X0164775
X0161025Y00926
X0153525
X01542Y00917
X0156025Y00976
X0167275Y01001
X0167875Y0105
X0167Y0106
X0166Y010675
X0165Y010775
X01672Y011195
X016975Y011075
X01615Y011125
X01522497Y01109999
X01515Y00825
X0153
X015525Y008275
X015675Y008325
X018075Y01145
X01825Y0117
X018825Y0108
X01905Y01054999
X0193525Y01026
X0196Y01035
X0198525Y01026
X0201025
X0202275Y01001
X0199775
Y00951
X0202275
X0201025Y00926
X0198525
X0193525
X0192275Y00951
X0193525Y00976
X01922Y01107
X019925Y011125
X0203Y0113
X020375Y0117
X02032496Y01184999
X02043Y0119325
X020225Y01205
X019425Y011925
X0195Y011625
X0203Y010775
X02075Y011125
X02112Y01107
X0211025Y01026
X021375Y010275
X0212275Y01001
X0211025Y00976
X0209Y0101
X02065Y01025
X020895Y00917
X0216025Y00926
X0219775Y00951
X022275Y009654
Y00925
X02275
X0227275Y00951
Y01001
X0229775
X02302001Y00917
X022525Y00895
X022175Y0086
X022075Y010175
X02217496Y010275
X0227Y010725
X0228Y011
X02272496Y01124999
X02265Y011375
X022875Y0118475
X022025Y01162504
X02182496Y01142499
X021425Y0119
X020475Y0083
X01995Y008375
X019725Y0085
X023275Y008625
X02404995Y008725
X023725Y009225
X0237Y00955
X02415
X0244Y009375
X024575Y009225
X02492Y00917
X0256025Y00926
X02555Y0096
X025975Y0099
X025875Y0104
X026125
X0262275Y01051
X0264775
X026375Y010325
X026425Y0101
X026625Y010225
X0268775Y0103275
X026975Y010425
X0268Y0105
X02677495Y01062499
X0269775Y01001
X0268525Y00926
X0266025
X02655Y009
X026425Y0086
X026285Y00854
X025925Y008375
X02578374
X025925Y008775
X0262275Y00951
X02525Y01005
X0249Y010075
Y01065
X024875Y0108
Y011
X0249Y01115
X024875Y0114
Y01155
Y0119
X02525
Y0116
X0256Y0115
X02544995Y01207499
X025925Y01205
X02617Y01182
X0264121Y0121275
X02654Y01205
X026675Y012075
X026825Y011875
X02697Y0117
X025675Y010825
X02567495Y01059999
X02525Y0108
Y011
X02462495Y01054999
X024325Y010575
X0239Y010475
X024Y010375
X024075Y010275
X024275Y010075
X0244Y0099
X0232275Y01001
X023275Y010175
X023725Y011175
X02397495Y01172499
X02444995Y01174999
Y01154999
X024525Y012075
X024575Y012175
X02325Y01205
X02335Y0117
X026675Y008325
X027075Y0086
X027275
X0277275Y00851
X027825Y00865
X0281025Y00876
X0282275Y00851
X0284775
X0286Y008825
X0277275Y00901
X0274775
X0276025Y00926
X0278525
X0279775Y00951
X0274775
X0272275Y01001
X0271025Y01026
X027475Y010425
X027625Y010575
X027775Y0107
X028025Y010675
X028Y01095
X027875
X0277275Y01101
X027725Y011125
X02772495Y01124999
X027425Y0113
X02742495Y01142499
X027425Y011575
Y011825
X02787495Y01184999
X02779995Y01169999
X027975Y011625
X02809995Y01162499
X028375Y0116
X0285
Y01115
X0284775Y01101
X028275Y010575
X02755Y010875
X027325Y011025
X0272275Y01101
X02715Y0109
X027775Y012025
X02809995Y01207499
X02857494Y01207499
X0281025Y00826
X03328098Y013516
X03358098
X033581Y015066
X033281
X02795Y014975
X0277275Y01501
X02785Y015575
X0278Y01575
X028Y01578499
X0281
X028225Y016025
X027805Y016065
X027505
X02745Y01575
Y015575
X027175Y014675
X02755Y0144
X0276702Y0143202
X02776Y01381
X027775Y013675
X0279
X02782Y01344
X02772994Y01351999
X02755Y01339
X02743
X02761995Y01323999
X02760051Y01289949
X02759995Y01277499
Y01264999
Y01252499
Y01239999
X02744995Y01227499
X027225Y0123
X0271025Y01226
X02744995Y01269999
X027275Y013
X0282275Y01301
Y01351
Y01401
Y01451
X0283525Y01226
X027Y012225
Y012325
X02685
X02697495Y01247499
X026975Y012625
X0268525Y01276
X02675Y01275
X026825Y0129
X02695Y012975
X02665Y013275
X026525Y0133
X026425Y01335
X0264Y013225
X026475Y0128
X02645Y01245
X02605Y012525
X025975Y01265
X0261125Y01290058
X0258Y012975
X02565Y013175
X02584844Y013555
X0259Y013925
X0262Y013975
X026295
X0263Y014075
X0262
X02635Y014275
X0265Y014
X02665Y01375
X0259Y014275
Y0144
X02594995Y01479999
X02605343Y014845
X026075Y01495
X0258525Y01526
Y01576
X02595Y015775
X0262Y0158
Y015675
Y01555
X02664995Y01542999
X02665Y015175
X02685Y015125
X027Y01513
X02695Y015275
X0269775Y01551
X026925Y015725
X02685Y0158
X0267Y015925
X0255Y0159
X0253525Y01576
X02525Y015625
X02495Y015725
X025173Y016027
X02457495Y01592498
X0241Y015825
X023975
X0243Y015525
X02365Y015275
X02397495Y01487499
X023975Y014425
Y0141
X02389995Y01397499
X02375002Y013375
X02375Y012975
X02415Y01295
X02425Y01285
X024525Y0129
X024625Y01295
X02462495Y01307499
X024944Y013075
X02485495Y013659
X02472495Y01362499
X0245Y013725
X024625Y01405
X024675Y01415
X0248Y014125
X02512523Y01415023
X0253375Y01415
X02545
X025575
X02525Y014
X025075Y014875
X02492Y01487
X02327495Y01434999
Y01564998
Y01592498
X024025Y0127
X024075Y012575
X0241075Y01247
X024275Y012275
X02455Y01245
X02481461Y01219499
X02517495Y01234999
X02545Y012275
X025575Y01235
X025675Y01225
X02295Y012275
X02305Y012375
X022725Y012275
X02255Y012375
X0226375Y0125
X022375Y0126
X02302Y01297
X02302495Y01374999
X023025Y013925
Y01415
X02275Y0143
X022375Y014375
X022275Y014475
X022175Y014275
X02205
X021875Y0139
X021975Y013525
X022075Y013375
X0214775Y01351
X0214Y013725
X020925Y013625
X0206Y01365
Y013775
X020125Y013725
Y013975
X019475Y014
X0194775Y01351
X019225Y0137425
X01922Y01297
X019475Y01245
X019725Y012375
X02065Y012325
X02095Y012225
X021375Y01245
X02112Y01297
X020425Y013375
X01995002Y013375
X02065Y01425
X02075Y0145
X020775Y015
X0212275Y01501
X02112Y01487
X02137496Y01434999
X021875Y014925
X02204996Y01492499
X0218525Y01526
X0219775Y01551
X022Y01585
X0217
X0216025Y01576
X021525Y01565
X0213Y015775
X02137496Y01597498
X02092496
X02065Y015825
X0205Y01555
X020125Y015525
X020175Y0158
X019475
X019275Y0159
X01915
X019575Y015425
X019975Y014975
X01922Y01487
X02302
X02255Y01575
X0226Y015875
X02237496Y01594998
X022375Y013875
X0188525Y01376
X018575Y014
X018375Y0141
X017975Y014075
X0176025Y01376
X0173525
X01707902Y01370402
X016995Y013625
X017Y01395
X01685Y014275
X01675Y014375
X01664997Y01447499
X01655Y01455
X01635Y014425
X01645Y0142
X015675Y0141
X01555Y013975
X0156025Y01376
X0154Y01375
X015225Y013825
Y014
X01515Y014275
X01542Y01487
X01615Y01495
X0157Y015425
X015625Y01595
X01545Y0161
X0152Y01611998
X015875Y016025
X01675Y01585
X0171Y01611998
X0172275Y01601
X01745Y015925
X01752496Y01582498
X017625Y015925
X017575Y0161
X017625Y015425
X01825Y01545
X01834996Y01572498
X01835Y01585
X018175Y015775
X0188Y015875
X019025Y0159
X019Y01611998
X018768Y014925
X0188555Y0146055
X018975Y014575
X01837496Y01464999
X01825Y01465
X01824996Y01489999
X01735Y014925
X0172Y01475
X0171Y014825
X01732Y01297
X01757496Y01239999
X016575Y01245
X0161025Y01326
X01615001Y013375
X0157275Y01351
X01542Y01297
X01835Y012975
X01845Y01285
Y012725
X01885Y012625
X018775Y012375
X018625
X018475Y01353
X0182275Y01351
X01805001Y013375
X01425Y013375
X0137275Y01351
X0136025Y01326
X01352Y01297
X013625Y01245
X013775
X014075Y0123
X013075Y012225
X013Y0125
X013175Y0126
X012675
X0127Y01335
X0123525Y01326
X0119775Y01351
X011875Y013875
Y01435
X0113
Y0145
X0114Y014175
X01162Y01487
X0117275Y01501
X012375Y01495
X01255Y015475
X0129Y01515
Y0146
X01335
X01352Y01487
X01425Y014925
X01459997Y01474999
X014475Y0146
X014625Y01445
Y0141
X013775Y0141
X013525Y01375
X013Y0141925
X012875Y0141
X0128Y015975
X013175Y01585
X0133Y01611998
X0137Y01575
X01385Y015425
X0144Y015475
X015Y015875
X0117Y0161
X0114Y01611998
X0113Y015825
X01119998Y01572498
X01162Y01297
X01132951Y01257951
X01129998Y01226703
X01187499Y01244999
X0108Y012325
X010175Y01235
X009975Y01244999
X009375Y0124
X009275Y0123
X00972001Y01297
X009725Y01375
X0098525Y01376
X0099775Y01351
X01045001Y013375
X009975Y01436701
X00939998Y01427499
X00905Y0141
X00915Y014
X0087275Y01401
X0084775
X0082275
X0079775
X0077275
X0078525Y01376
X0081025
X0076025
X007325Y013375
X0072275Y01301
X0077275
X0079775
X00807498Y01239999
X007825Y0123
X00765Y0124
X007475
X0075Y01435
X008075
X00782Y01487
X0084775Y01501
X0086025Y01526
X0088525
X009Y015975
X00915Y01585
X00952498Y01599998
X0095Y01611998
X009725Y01605
X00996318Y01586318
X0103525Y01526
X0104775Y01501
X010775Y0152825
X0109Y01545
X011Y01555
X0111Y01565
X0108Y0145
X00972Y01487
X0097275Y01501
X00905Y0145
X0088525Y01326
X00855001Y013375
X00825Y01595
X0076Y016125
X0075Y01585
X0074Y01572497
X00729998Y01527498
X0069775Y01501
X0071025Y014625
Y01376
Y01326
X0069775Y01301
X0067275
X0068525Y01276
X0071025
X0066025Y01326
X00665Y013375
X0062275Y01351
X0063525Y01376
X0061025
X0058525
X0053525
Y01326
X0052Y01335
X0051025Y01326
X0051Y0127
X005575Y01225
X006175Y0123
X00592Y01297
X00565Y01408201
X00545Y014175
X00555Y01435
X00617499Y01434999
X00592Y01487
X0059775Y01501
X0053525Y01526
X0051025
X0048525
X0047275Y01501
X00402Y01487
X00427499Y01434999
X0042275Y01401
X0044775
X0047275
X0049775
X0048525Y01376
X0042275Y01351
X0041025Y01326
X00402001Y01297
X00427499Y01244999
X003475Y0124
X003575Y0126
X00367499Y01344999
X0039775Y01401
X003325Y014025
X003225Y01415
X003425Y0145
X00367499Y01534998
X0038525Y01576
X0041025
X0043525
X00427499Y01594998
X0042275Y01551
X00357499Y01609998
X003325Y01605
X006675Y015975
X006625Y015275
X0067275Y01401
X0031025Y01426
X003125Y0144
X0028525Y01426
X0026025
X0023525
X0021025
X001725Y01415
X001825Y01405
X0018525Y01376
X0021025
X0022275Y01351
X0024775
X0023525Y01326
X00285Y013375
X0031025Y01326
X00294999Y01297499
X00304999Y01284999
X00314999Y01269999
X0031025Y01376
X0028525
X0019775Y01351
X001625Y012925
X0012
X0013Y0125
X00111Y01231999
X0014Y012215
X0006025Y01226
X0003525
X0004775Y01251
X0002275
X0003525Y01276
X0006025
X0004775Y01301
X0002275
X0003525Y01326
X0004Y01345
X00055Y01347499
X0006025Y01326
X0002275Y01351
X0002Y0136
X0002375Y01385
X000275Y014225
X000425Y014175
X000525
X000325Y0145
X0002275Y01451
Y01501
X0003525Y01526
X0007Y014975
X0010996Y01490056
Y01460056
X000775Y014525
X00095Y01395
X001Y0138
X00092Y01365
X0012275Y01401
X0011025Y01526
X00095Y01535
X0009775Y01551
X0011025Y01576
X0009775Y01601
X001675Y01595
X0018525Y01576
X0021025
X0019775Y01551
X0023525Y01526
X0026025
X0028525
X0029775Y01501
X0027275
X0028525Y01576
X00255Y01604998
X00245Y01595
X0017275Y01501
X0002Y0158
Y0162
Y016425
X000625
X0007275Y01651
X0008525Y01676
X0011025
X0013525
X001275Y01625
X00115Y0163375
X0008525Y01626
X00095Y01615
X0007275Y01701
X0008525Y01726
X0006025
X0007275Y01751
X0009775
X0012275
X0014775
X0016025Y01776
X0018525
X0021025
X0023525
X00245Y01745
X0021025Y01726
X0018525
Y01826
X0021025
X0023525
X0026025
X0028525
X0031025
X00315Y017175
X003Y01675
X00285Y01665
X00265
X00315Y016575
X0031Y01615
X0023Y016325
X0013525Y01776
X0011025
X0008525
X0007275Y01801
X0008525Y01826
X0011025
X0013525
X0016025
X0003525Y01776
X0002275Y01751
Y01701
X003475Y017175
X003575Y0176
X003675Y0177
X00385Y017875
X00402499Y01777498
X0041025Y01826
X0043525
X0046025
X0048525
X0051025
X0053525
X0056025
X0058525
X0061025
X0063525
X0066025
X0068525
X0071025
X007125Y017775
X00686303Y01745
X007175Y0172
X0069775Y016875
X00592Y01677
X00542Y01665
X00527Y01677
X0050075Y01685
Y01655
X00515Y01635
X00565Y01625
X00555Y01615
X00617499Y01624998
X00545Y017
X00495Y017375
X00535Y0178
X00602499Y01789998
X0059Y01755
X00402Y01677
X003575Y016575
X003375Y01645
X003575Y016225
X003225Y01615
X0033525Y01776
Y01826
X0036025
X0038525
X0073525
X0076025
X0078525
X0081025
X0083525
X0086025
X0088525
X0091025
X0093525
X0096025
X0098525
X0101025
X0103525
X0106025
X0108525
X0111025
X01105Y0178075
X011075Y017425
X010738Y01675
X01095Y016475
X01065Y016225
X009975Y01625
X009375
X00915
X008775Y01615
X00885Y016675
X009Y017075
X009125Y01745
X009875Y017575
X00972Y01677
X00782
X00807499Y01624998
X00765Y0175575
X007225Y0176
X007325Y017775
X011175Y017525
X0116Y0177
X011775Y017825
X01187498Y01792498
X011775Y018275
X0116025Y01826
X0113525
X0121025
X0123525
X0126025
X0128525
X0131025
X0133525
X0136025
X0138525
X0141025
X0143525
X0146025
X0148525
X0151025
X0149875Y0178
X0149Y0175
X01475Y017425
Y017025
X014675Y016825
Y01665
X0148Y016625
X014625Y0165
X01445Y01635
X01495Y0163
X01377497Y01624998
X013625Y0168
X013519Y016694
X01329997Y01724998
X0131Y0175
X013Y0176
X0126Y017425
X012725Y01705
X012325Y016825
X011625Y016725
X0129Y0165
X0131Y016325
X0142275Y01701
X01352497Y01789998
X015425Y0178
X0153525Y01826
X0156025
X0158525
X0161025
X0163525
X0166025
X0168525
X0171025
X0173525
X0176025
X0178525
X0181025
X0183525
X0186025
X0188525
X01875Y017525
X018225Y017375
X0179775Y01701
X0184775
X01855Y0169
Y016325
X0183525Y01626
X01685Y016275
X01645Y0164
X0164775Y01701
X016675Y01705
X016625Y016875
X016675Y017275
X0169075Y01733402
X0169Y017625
X0174Y016975
X01732Y01677
X015425Y016825
X015225Y017375
X01947496Y01772498
X0193525Y01826
X0196025
X0198525
X0201025
X020375Y018275
X02092496Y01832498
X020925Y0182
X02094911Y01794911
X02085004Y01794998
X02062496Y01777498
X020525Y017625
X020725
X0207Y017375
X0204Y017125
X0203Y01695
X019925Y01685
X01922001Y01677
X01935Y01625
X01955
X02065
X02112001Y01677
X0212425Y0168575
X0212275Y01701
X0214Y017325
X021125Y0176
X02130089Y01794911
X02139996Y01794998
X02135Y018325
X021275Y0184
X02115Y018425
X021025Y0184
X02174996Y01842498
X02192496Y01837498
X022475Y0184
Y018275
X022525Y0179
X02265
X022375
X022075
Y0174
X021875Y017175
X021825Y01685
X02225
X022725
X02302Y01677
X023025Y01755
X023Y0179
X023Y0184
X0228Y01735
X0227Y016225
X0191025Y01826
X02325Y018275
X02315Y0179
X02342495Y01754998
X023275Y017325
X023875
X023975Y01745
X0244775Y01751
X024425Y0176
X024675Y0177
Y018025
X02445
X024325Y017975
X024075
X0239Y018025
X024125Y0182
X02425
X0248525Y01826
X02500502Y01819498
X02563002
X0261Y0182
Y0179
X02643002Y01789498
X026525Y01775
X02650701Y017475
X02662497Y017475
X026825Y01765
X026875Y01775
X02689995Y01789998
X0268525Y01676
X02629166Y01669166
X026275Y016875
X026175Y016825
X02598334Y01669166
X025825Y016825
X025575Y0166
X025625Y017125
X025325Y017725
X02504995Y01759998
X0246025Y01726
X02425Y016975
X02427Y01677
X02442Y01665
X02415Y01635
X02396465Y01648535
X02375Y016825
X024925Y01675
X02625Y016225
X02675Y0162
X0273525Y01676
X0276025
X0278525
X027775Y016525
X028Y01625
X0281
X02835Y0167
Y016825
X0284Y01715
Y01745
X0284775Y01751
X02859997Y017325
X0283525Y01776
X0282275Y01801
X0279775
X0281025Y01826
X0278525
X0276025
X0273525
X0271025
X027275Y0179
X0273525Y01776
X0276025
X027775Y01775
X0277275Y01751
X0279775
Y01701
X0274775
X0271025Y01726
T05
X034675Y01245
Y01255
Y0148
Y0149
X030575Y01745
X030475
X03345
X03355
T06
X001669Y008892
X001923
X002177
X002431
X002431Y01079201
X002177
X001923
X001669
X004019
X004273
X004527
X004781
X005919
X006173
X006427
X006681
X00659399Y008892
X00684799
X00710199
X005006
X004752
X004498
X004244
X00735599
X009719
X009973
X010227
X010481
X01048101Y01079201
X01022701
X00997301
X00971901
X008581
X008327
X008073
X007819
X01161901
X01187301
X01212701
X01238102
X013519
X013773
X014027
X014281
X013331Y008892
X013077
X012823
X012569
X015419
X015673
X015927
X016181
X016181Y01079201
X015927
X015673
X015419
X017319
X017573
X017827
X018081
X018544Y008892
X018798
X019052
X019306
X020894
X021148
X021402
X021656
X02301901
Y01079201
X021881
X021627
X021373
X021119
X019981
X019727
X019473
X019219
X02327301
X02352701
X02378101
Y008892
X02352701
X02327301
X024919
X025173
X025427
X025681
X02681902
X02663101Y01079201
X02637701
X02612301
X02586901
X02707301Y008892
X02732701
X02758102
X027581Y01364203
X027327
X027073
X026819
X025681Y01459201
X025427
X025173
X024919
X023781
X023527
X023273
X02327301Y01269201
X02352701
X02378101
X024919
X025173
X025427
X025681
X02301901
X021881
X021627
X021373
X021119
X019981
X019727
X019473
X019219
Y01459201
X019473
X019727
X019981
X021119
X021373
X021627
X021881
X023019
X018081
X017827
X017573
X017319
X016181
X015927
X015673
X015419
X015419Y01269201
X015673
X015927
X016181
X017319
X017573
X017827
X018081
X014281
X014027
X013773
X013519
X012381
X012127
X011873
X011619
Y01459201
X011873
X012127
X012381
X013519
X013773
X014027
X014281
X010481
X010227
X009973
X009719
X008581
X008327
X008073
X007819
X007819Y01269201
X008073
X008327
X008581
X00971901
X00997301
X01022701
X01048101
X006681
X006427
X006173
X005919
X004781
X004527
X004273
X004019
Y01459201
X004273
X004527
X004781
X005919
X006173
X006427
X006681
X00243099
X00217699
X00192299
X00166899
X001669Y01269201
X001923
X002177
X002431
X001981Y016492
X001727
X001473
X001219
X004019
X004273
X004527
X004781
X005919
X006173
X006427
X006681
X007819
X008073
X008327
X008581
X009719
X009973
X010227
X010481
X011619
X011873
X012127
X012381
X013519
X013773
X014027
X014281
X015419
X015673
X015927
X016181
X017319
X017573
X017827
X018081
X019219
X019473
X019727
X019981
X02111901
X02137301
X02162701
X02188101
X02301901
X02327301
X02352701
X02378101
X024919
X025173
X025427
X025681
X02681902
X02707301
X02732701
X02758102
T07
X028325Y008815
Y009069
Y009323
Y009577
Y009831
Y010085
X028255Y01105
X027495
X032253Y015714
Y016474
X03298Y01665
X033234
X033488
X033742
Y016904
X033488
X033234
T08
X033488Y011446
Y0117
X033742
Y011446
X034021Y016018
X000675Y015925
Y0162
X026375Y0183
X026629
X026883
X034021Y016272
T09
X02917Y011954
X029424
X032218Y0117
X032472
Y011446
X032726
Y0117
X03298
X033234
Y011446
X03298
X032218
X031964Y011446
X031202Y013224
Y013478
X031456Y015002
X03171
X031964
X032218
Y015256
X031964
X03171
X032472
Y015002
X030948Y013478
Y013224
X029424
Y013478
X02917
Y013732
X029424
Y013986
Y01424
X02917
Y013986
Y014494
Y014748
X029424
Y014494
Y015256
Y01551
Y015764
Y016018
X02917
Y015764
Y01551
Y015256
Y013224
Y01297
Y012716
Y012462
X029424
Y012716
Y01297
Y012208
X02917
X029424Y016272
T10
X00166899Y009654
X00230399Y009908
X00230399Y011808
X00166899Y011554
X004019Y01155401
X004654Y01180801
X005919Y01155401
X006554Y01180801
X00659399Y009654
X00487899Y009908
X00424399Y009654
X00722899Y009908
X007819Y011554
X008454Y011808
X00971901Y01155401
X01035401Y01180801
X010354Y009908
X009719Y009654
X012569Y009654
X013204Y009908
X013519Y011554
X014154Y011808
X012254
X011619Y011554
X01541901Y01155401
X01605401Y01180801
X01731901Y01155401
X01795401Y01180801
X018544Y009654
X016054Y009908
X015419Y009654
X019179Y009908
X01921901Y01155401
X01985401Y01180801
X021119Y011554
X021754Y011808
X02301901Y01155401
X023019Y009654
X021529Y009908
X020894Y009654
X023654Y009908
X024919Y009654
X025554Y009908
X02681901Y009654
X02650401Y011808
X02586901Y011554
X02365401Y01180801
X027454Y009908
X027454Y01465803
X026819Y01440403
X02555401Y013708
X02491901Y013454
X02365401Y01370801
X023654Y015608
X02491901Y015354
X02555401Y015608
X023019Y01535401
X02175401Y01560801
X02111901Y01535401
X019854Y015608
X019219Y01535401
Y01345401
X019854Y013708
X021119Y01345401
X021754Y013708
X02301901Y01345401
X01795401Y01370801
X01731901Y01345401
X01605401Y01370801
X01541901Y01345401
Y01535401
X01605401Y01560801
X01731901Y01535401
X01795401Y01560801
X014154Y015608
X013519Y01535401
X012254Y015608
X011619Y01535401
Y01345401
X012254Y013708
X01351901Y01345401
X01415401Y01370801
X01035401
X00971901Y01345401
X008454Y013708
X007819Y01345401
Y01535401
X008454Y015608
X00971901Y01535401
X01035401Y01560801
X006554
X005919Y01535401
X004654Y01560801
X004019Y01535401
Y01345401
X004654Y01370801
X005919Y01345401
X006554Y01370801
X00230399Y013708
X00166899Y013454
Y015354
X00230399Y015608
X001854Y017508
X001219Y017254
X004019Y01725401
X004654Y017508
X005919Y01725401
X006554Y017508
X00781901Y01725401
X00845401Y01750801
X009719Y01725401
X010354Y017508
X01161901Y01725401
X01225401Y01750801
X013519Y01725401
X014154Y017508
X015419Y01725401
X016054Y017508
X01731901Y01725401
X01795401Y01750801
X01921901Y01725401
X01985401Y01750801
X02111901Y01725401
X02175401Y01750801
X02301901Y01725401
X02365401Y01750801
X024919Y017254
X025554Y017508
X02681902Y01725401
X02745401Y017508
T11
X03615Y0081
X02915
Y0108
X03615
T12
X0291Y0114
X0343
X0291Y0171
X0343
T13
X0285Y0081
X0003175Y0081
X0003Y0183
X0285
T14
X03408598Y01333601
Y01377601
Y01488601
Y01532601
X02830998Y01580499
X00049002Y01542001
Y01498001
X02830998Y01624499
T15
X00154199Y0094
X00255799
X00255799Y01130001
X00154199
X003892Y01130001
X004908
X00579201
X006808
X00646699Y0094
X00513299Y0094
X00411699
X00748299Y0094
X009592
X010608
X01060801Y01130001
X00959201
X008708Y01130001
X007692
X011492
X012508
X013392
X014408
X013458Y0094
X012442
X015292Y0094
X016308
X01630801Y01130001
X01719201
X01820801
X018417Y0094
X01529201Y01130001
X01909201
X02010801
X020992Y01130001
X022008
X02289201Y01130001
X022892Y0094
X021783Y0094
X020767
X019433
X023908Y0094
X024792Y0094
X025808
X026692Y0094
X02675801Y0113
X02574201
X02390801Y01130001
X027708Y0094
X027708Y01415003
X026692
X02580801Y0151
X02479201
X023908Y0151
X02390801Y01320001
X02479201Y0132
X02580801
X02289201Y01320001
X022008Y0132
X020992
X020108
X019092
Y0151
X020108
X02099201Y01510001
X02200801
X022892Y0151
X01820801Y01510001
X01719201
X01630801
X01529201
Y01320001
X01630801
X01719201
X01820801
X01440801
X01339201
X012508Y0132
X011492
Y0151
X012508
X013392
X014408
X01060801Y01510001
X00959201
X008708Y0151
X007692
Y0132
X008708
X00959201Y01320001
X01060801
X006808
X00579201
X004908
X003892
Y01510001
X004908
X00579201
X006808
X00255799Y0151
X00154199
Y0132
X00255799
X002108Y017
X001092
X003892Y017
X004908
X005792
X006808
X00769201Y01700001
X00870801
X009592Y017
X010608
X01149201Y01700001
X01250801
X013392Y017
X014408
X015292
X016308
X01719201Y01700001
X01820801
X01909201
X02010801
X02099201
X02200801
X02289201
X02390801
X024792Y017
X025808
X02669201Y017
X02770801
T16
X00204999Y0094
X00204999Y01130001
X0044Y01130001
X0063
X00697499Y0094
X00462499Y0094
X0101Y0094
X01010001Y01130001
X0082Y01130001
X012
X0139
X01295Y0094
X0158Y0094
X01580001Y01130001
X01770001
X018925Y0094
X021275
X0215Y01130001
X01960001Y01130001
X02340001
X0234Y0094
X0253Y0094
X02625001Y0113
X02720001Y0094
X0272Y01415003
X02530001Y0151
Y0132
X02340001Y01320001
X0234Y0151
X02150001Y01510001
X0215Y0132
X0196
Y0151
X01770001Y01510001
Y01320001
X01580001
Y01510001
X0139Y0151
X012
Y0132
X01390001Y01320001
X01010001
Y01510001
X0082Y0151
Y0132
X0063Y01320001
Y01510001
X0044
Y01320001
X00204999Y0132
Y0151
X0016Y017
X0044Y017
X0063
X00820001Y01700001
X0101Y017
X01200001Y01700001
X0139Y017
X0158
X01770001Y01700001
X01960001
X02150001
X02340001
X0253Y017
X02720002Y017
M30
