G04 Layer_Color=128*
%FSLAX44Y44*%
%MOMM*%
G71*
G01*
G75*
%ADD10R,1.0000X1.3000*%
%ADD11R,0.8000X0.9000*%
%ADD12R,0.9000X0.8000*%
%ADD13R,1.1000X0.6500*%
%ADD14R,0.9000X0.6500*%
%ADD15R,0.6500X1.1000*%
%ADD16R,0.6500X0.9000*%
%ADD17R,1.3000X1.0000*%
%ADD18R,1.7000X1.1000*%
%ADD21R,0.5000X0.3000*%
%ADD22O,1.4000X0.3000*%
%ADD24R,2.2500X0.5000*%
%ADD25R,2.5000X2.0000*%
%ADD26R,2.7000X3.0000*%
%ADD27R,0.3000X1.2000*%
%ADD34R,1.1000X1.7000*%
%ADD35R,0.5000X0.3000*%
%ADD36R,0.3000X0.5000*%
%ADD38R,0.8000X1.6000*%
%ADD64O,2.5000X0.7000*%
%ADD65R,1.3995X1.1498*%
%ADD66R,3.2000X3.2000*%
%ADD67R,1.0000X2.4000*%
%ADD68R,3.3000X2.4000*%
%ADD69O,1.9000X0.6000*%
%ADD70R,1.6000X0.8000*%
%ADD72R,0.8500X0.8000*%
%ADD73R,0.8500X0.3000*%
%ADD74R,2.6162X2.7432*%
%ADD75R,2.4000X1.0000*%
%ADD76R,2.4000X3.3000*%
%ADD77R,0.3000X0.5000*%
%ADD78O,0.3000X1.4000*%
%ADD79R,2.7000X3.0000*%
%ADD80R,0.3000X1.2000*%
D10*
X3200600Y1290600D02*
D03*
X3184600D02*
D03*
X3127300Y1384400D02*
D03*
X3143300D02*
D03*
D11*
X3223102Y1363100D02*
D03*
X3237102D02*
D03*
X3199598Y1305600D02*
D03*
X3185598D02*
D03*
X3258302Y1364400D02*
D03*
X3272302D02*
D03*
X3187098Y1370600D02*
D03*
X3173098D02*
D03*
X3055802Y1471900D02*
D03*
X3069802D02*
D03*
X3138100Y1359100D02*
D03*
X3152100D02*
D03*
X3138100Y1344100D02*
D03*
X3152100D02*
D03*
X3138100Y1329100D02*
D03*
X3152100D02*
D03*
X3138100Y1314100D02*
D03*
X3152100D02*
D03*
X3384798Y1264400D02*
D03*
X3370798D02*
D03*
X3350098Y1351600D02*
D03*
X3336098D02*
D03*
X3398302Y1471900D02*
D03*
X3412302D02*
D03*
X3398302Y1454400D02*
D03*
X3412302D02*
D03*
X3405802Y1439400D02*
D03*
X3419802D02*
D03*
X3310049Y1584400D02*
D03*
X3296049D02*
D03*
X3350098Y1506600D02*
D03*
X3336098D02*
D03*
X3186600Y1355600D02*
D03*
X3172600D02*
D03*
X3140602Y1260600D02*
D03*
X3154602D02*
D03*
X3140602Y1275600D02*
D03*
X3154602D02*
D03*
X3389798Y1379400D02*
D03*
X3375798D02*
D03*
X3195802Y1616900D02*
D03*
X3209802D02*
D03*
X3185802Y1566900D02*
D03*
X3199802D02*
D03*
X3395502Y997500D02*
D03*
X3409502D02*
D03*
X3395502Y1012500D02*
D03*
X3409502D02*
D03*
X3395502Y952500D02*
D03*
X3409502D02*
D03*
X3395502Y910000D02*
D03*
X3409502D02*
D03*
X3395502Y937500D02*
D03*
X3409502D02*
D03*
X3395502Y967500D02*
D03*
X3409502D02*
D03*
X3395502Y895000D02*
D03*
X3409502D02*
D03*
X3395502Y982500D02*
D03*
X3409502D02*
D03*
X3395502Y1027500D02*
D03*
X3409502D02*
D03*
X3395502Y880000D02*
D03*
X3409502D02*
D03*
X3269498Y840000D02*
D03*
X3255498D02*
D03*
X3269498Y855000D02*
D03*
X3255498D02*
D03*
X3096998Y1012500D02*
D03*
X3082998D02*
D03*
X3095502Y870000D02*
D03*
X3109502D02*
D03*
X2514502Y1190000D02*
D03*
X2500502D02*
D03*
X2514502Y1205000D02*
D03*
X2500502D02*
D03*
X2514502Y1080000D02*
D03*
X2500502D02*
D03*
X2514502Y1100000D02*
D03*
X2500502D02*
D03*
X2514502Y1155000D02*
D03*
X2500502D02*
D03*
X2514502Y1065000D02*
D03*
X2500502D02*
D03*
X2514502Y1115000D02*
D03*
X2500502D02*
D03*
X2514502Y1140000D02*
D03*
X2500502D02*
D03*
X2477002Y1155000D02*
D03*
X2463002D02*
D03*
X2477002Y1100000D02*
D03*
X2463002D02*
D03*
X2477002Y1140000D02*
D03*
X2463002D02*
D03*
X2477002Y1205000D02*
D03*
X2463002D02*
D03*
X2477002Y1065000D02*
D03*
X2463002D02*
D03*
X2477002Y1190000D02*
D03*
X2463002D02*
D03*
X2477002Y1080000D02*
D03*
X2463002D02*
D03*
X2477002Y1115000D02*
D03*
X2463002D02*
D03*
X2632002Y1490000D02*
D03*
X2618002D02*
D03*
X2682002Y1557500D02*
D03*
X2668002D02*
D03*
D12*
X3267600Y1328602D02*
D03*
Y1342602D02*
D03*
X3272600Y1310098D02*
D03*
Y1296098D02*
D03*
X3197600Y1383602D02*
D03*
Y1397602D02*
D03*
X3227600Y1286102D02*
D03*
Y1300102D02*
D03*
X3287600Y1296102D02*
D03*
Y1310102D02*
D03*
X3157800Y1398898D02*
D03*
Y1384898D02*
D03*
X3260100Y1226102D02*
D03*
Y1240102D02*
D03*
X3275100Y1226102D02*
D03*
Y1240102D02*
D03*
X3255300Y1446400D02*
D03*
Y1432400D02*
D03*
X3240300Y1446400D02*
D03*
Y1432400D02*
D03*
X3222800Y1446400D02*
D03*
Y1432400D02*
D03*
X3207800Y1446400D02*
D03*
Y1432400D02*
D03*
X3190300Y1446400D02*
D03*
Y1432400D02*
D03*
X3175300Y1446400D02*
D03*
Y1432400D02*
D03*
X3160300Y1446400D02*
D03*
Y1432400D02*
D03*
X3290100Y1226102D02*
D03*
Y1240102D02*
D03*
X3305100Y1226102D02*
D03*
Y1240102D02*
D03*
X3320100Y1226102D02*
D03*
Y1240102D02*
D03*
X3230100Y1226102D02*
D03*
Y1240102D02*
D03*
X3245100Y1226102D02*
D03*
Y1240102D02*
D03*
X3335100Y1226102D02*
D03*
Y1240102D02*
D03*
X3350100Y1226102D02*
D03*
Y1240102D02*
D03*
X3365100Y1226103D02*
D03*
Y1240103D02*
D03*
X3380100Y1226102D02*
D03*
Y1240102D02*
D03*
X3285300Y1446400D02*
D03*
Y1432400D02*
D03*
X3270300Y1446400D02*
D03*
Y1432400D02*
D03*
X3402800Y1316398D02*
D03*
Y1302398D02*
D03*
X3208600Y1328602D02*
D03*
Y1342602D02*
D03*
X3257600Y1296102D02*
D03*
Y1310102D02*
D03*
X3335300Y1409902D02*
D03*
Y1423902D02*
D03*
Y1442402D02*
D03*
Y1456402D02*
D03*
X3015100Y1520098D02*
D03*
Y1506098D02*
D03*
X3015100Y1560098D02*
D03*
Y1546098D02*
D03*
X3015100Y1600098D02*
D03*
Y1586098D02*
D03*
Y1640098D02*
D03*
Y1626098D02*
D03*
X3367500Y864498D02*
D03*
Y850498D02*
D03*
X3185000Y911998D02*
D03*
Y897998D02*
D03*
X3230000Y911998D02*
D03*
Y897998D02*
D03*
X3245000Y911998D02*
D03*
Y897998D02*
D03*
X3200000Y911998D02*
D03*
Y897998D02*
D03*
X3215000Y911998D02*
D03*
Y897998D02*
D03*
X3170000Y911998D02*
D03*
Y897998D02*
D03*
X3160000Y840502D02*
D03*
Y854502D02*
D03*
X2262500Y1734502D02*
D03*
Y1720502D02*
D03*
X2262500Y1692998D02*
D03*
Y1706998D02*
D03*
X1460000Y1598002D02*
D03*
Y1612002D02*
D03*
X1510000Y1611998D02*
D03*
Y1597998D02*
D03*
X1320000D02*
D03*
Y1611998D02*
D03*
X1270000Y1612002D02*
D03*
Y1598002D02*
D03*
X1130000Y1597998D02*
D03*
Y1611998D02*
D03*
X1080000Y1597998D02*
D03*
Y1611998D02*
D03*
X940000Y1597998D02*
D03*
Y1611998D02*
D03*
X890000Y1612002D02*
D03*
Y1598002D02*
D03*
X750000Y1597998D02*
D03*
Y1611998D02*
D03*
X700000Y1612002D02*
D03*
Y1598002D02*
D03*
X2845000Y1207002D02*
D03*
Y1193002D02*
D03*
X2832500Y1207002D02*
D03*
Y1193002D02*
D03*
X2795000Y1445000D02*
D03*
Y1459000D02*
D03*
X2807500Y1445000D02*
D03*
Y1459000D02*
D03*
X2800000Y1427002D02*
D03*
Y1413002D02*
D03*
X2787500Y1427002D02*
D03*
Y1413002D02*
D03*
X2800000Y1385498D02*
D03*
Y1399498D02*
D03*
X2787500Y1385498D02*
D03*
Y1399498D02*
D03*
X2795000Y1486503D02*
D03*
Y1472503D02*
D03*
X2807500Y1486503D02*
D03*
Y1472503D02*
D03*
X2650000Y1490498D02*
D03*
Y1504498D02*
D03*
X2700000Y1504502D02*
D03*
Y1490502D02*
D03*
X2687500Y1604502D02*
D03*
Y1590502D02*
D03*
X2615000Y1427998D02*
D03*
Y1441998D02*
D03*
X2600000Y1427998D02*
D03*
Y1441998D02*
D03*
X2485000Y1375498D02*
D03*
Y1389498D02*
D03*
X2470000Y1375498D02*
D03*
Y1389498D02*
D03*
X2270000Y1597998D02*
D03*
Y1611998D02*
D03*
X2220000Y1612002D02*
D03*
Y1598002D02*
D03*
X2430000Y1717997D02*
D03*
Y1731997D02*
D03*
X2430000Y1759500D02*
D03*
Y1745500D02*
D03*
X2627500Y1697998D02*
D03*
Y1711998D02*
D03*
X2612500Y1697998D02*
D03*
Y1711998D02*
D03*
X2662500Y1775498D02*
D03*
Y1789498D02*
D03*
X2677500Y1775498D02*
D03*
Y1789498D02*
D03*
X2717500Y1789502D02*
D03*
Y1775502D02*
D03*
X2702500Y1789502D02*
D03*
Y1775502D02*
D03*
X1890000Y1597998D02*
D03*
Y1611998D02*
D03*
X1840000Y1612002D02*
D03*
Y1598002D02*
D03*
X2080000Y1597998D02*
D03*
Y1611998D02*
D03*
X2027500Y1612002D02*
D03*
Y1598002D02*
D03*
X1700000Y1597998D02*
D03*
Y1611998D02*
D03*
X1650000Y1612002D02*
D03*
Y1598002D02*
D03*
X2617500Y1009502D02*
D03*
Y995502D02*
D03*
X2492500Y1769502D02*
D03*
Y1755502D02*
D03*
X2632500Y1009502D02*
D03*
Y995502D02*
D03*
X25000Y1395498D02*
D03*
Y1409498D02*
D03*
X2477500Y1769502D02*
D03*
Y1755502D02*
D03*
D13*
X3208175Y1591900D02*
D03*
X3050475Y1513100D02*
D03*
Y1553100D02*
D03*
X3050475Y1593100D02*
D03*
X3050475Y1633100D02*
D03*
X3412875Y855000D02*
D03*
X2685375Y1497500D02*
D03*
X2664625Y1532500D02*
D03*
D14*
X3187425Y1601400D02*
D03*
Y1582400D02*
D03*
X3029725Y1522600D02*
D03*
Y1503600D02*
D03*
Y1562600D02*
D03*
Y1543600D02*
D03*
X3029725Y1602600D02*
D03*
Y1583600D02*
D03*
X3029725Y1642600D02*
D03*
Y1623600D02*
D03*
X3392125Y864500D02*
D03*
Y845500D02*
D03*
X2664625Y1488000D02*
D03*
Y1507000D02*
D03*
X2685375Y1542000D02*
D03*
Y1523000D02*
D03*
D15*
X1485000Y1594625D02*
D03*
X915000D02*
D03*
X1865000D02*
D03*
X2055000D02*
D03*
X1105000D02*
D03*
X1295000D02*
D03*
X725000D02*
D03*
X1675000D02*
D03*
X2245000D02*
D03*
D16*
X1475500Y1615375D02*
D03*
X1494500D02*
D03*
X924500D02*
D03*
X905500D02*
D03*
X1874500D02*
D03*
X1855500D02*
D03*
X2064500D02*
D03*
X2045500D02*
D03*
X1114500D02*
D03*
X1095500D02*
D03*
X1304500D02*
D03*
X1285500D02*
D03*
X734500D02*
D03*
X715500D02*
D03*
X1684500D02*
D03*
X1665500D02*
D03*
X2254500D02*
D03*
X2235500D02*
D03*
D17*
X3385300Y1301400D02*
D03*
Y1317400D02*
D03*
X3382600Y1456400D02*
D03*
Y1472400D02*
D03*
X3362800Y1418900D02*
D03*
Y1434900D02*
D03*
X3347500Y865500D02*
D03*
Y849500D02*
D03*
X3260000Y894500D02*
D03*
Y910500D02*
D03*
X3152500Y894500D02*
D03*
Y910500D02*
D03*
D18*
X3362800Y1450900D02*
D03*
Y1477900D02*
D03*
X2670000Y1576500D02*
D03*
Y1603500D02*
D03*
D21*
X2758500Y1606500D02*
D03*
X2772500Y1611500D02*
D03*
Y1601500D02*
D03*
Y1606500D02*
D03*
X2758500Y1611500D02*
D03*
Y1601500D02*
D03*
D22*
X2777000Y1220000D02*
D03*
Y1225000D02*
D03*
Y1230000D02*
D03*
Y1245000D02*
D03*
Y1250000D02*
D03*
Y1255000D02*
D03*
Y1260000D02*
D03*
Y1265000D02*
D03*
Y1270000D02*
D03*
Y1275000D02*
D03*
Y1280000D02*
D03*
Y1285000D02*
D03*
Y1290000D02*
D03*
Y1295000D02*
D03*
X2663000D02*
D03*
Y1290000D02*
D03*
Y1285000D02*
D03*
Y1280000D02*
D03*
Y1275000D02*
D03*
Y1270000D02*
D03*
Y1265000D02*
D03*
Y1260000D02*
D03*
Y1255000D02*
D03*
Y1250000D02*
D03*
Y1245000D02*
D03*
Y1240000D02*
D03*
Y1235000D02*
D03*
Y1230000D02*
D03*
Y1225000D02*
D03*
Y1220000D02*
D03*
X2777000Y1240000D02*
D03*
Y1235000D02*
D03*
D24*
X75000Y1504001D02*
D03*
Y1512001D02*
D03*
Y1520000D02*
D03*
Y1528001D02*
D03*
Y1535999D02*
D03*
X2805000Y1618499D02*
D03*
Y1610499D02*
D03*
Y1602500D02*
D03*
Y1594499D02*
D03*
Y1586501D02*
D03*
D25*
X75000Y1475499D02*
D03*
Y1564501D02*
D03*
X20000Y1475499D02*
D03*
Y1564501D02*
D03*
X2805000Y1647001D02*
D03*
Y1557999D02*
D03*
X2860000Y1647001D02*
D03*
Y1557999D02*
D03*
D26*
X3165700Y984900D02*
D03*
X3249300D02*
D03*
D27*
X3185000Y965100D02*
D03*
X3190000D02*
D03*
X3195000D02*
D03*
X3200000D02*
D03*
X3205000D02*
D03*
X3210000D02*
D03*
X3215000D02*
D03*
X3220000D02*
D03*
X3225000D02*
D03*
X3230000D02*
D03*
D34*
X3088800Y1382400D02*
D03*
X3061800D02*
D03*
X3383800Y1281900D02*
D03*
X3356800D02*
D03*
X3084000Y992500D02*
D03*
X3111000D02*
D03*
Y890000D02*
D03*
X3084000D02*
D03*
X2606500Y1510000D02*
D03*
X2633500D02*
D03*
D35*
X3358600Y1530600D02*
D03*
Y1535600D02*
D03*
Y1540600D02*
D03*
Y1545600D02*
D03*
Y1550600D02*
D03*
Y1555600D02*
D03*
Y1560600D02*
D03*
Y1565600D02*
D03*
X3311600D02*
D03*
Y1560600D02*
D03*
Y1555600D02*
D03*
Y1550600D02*
D03*
Y1545600D02*
D03*
Y1540600D02*
D03*
Y1535600D02*
D03*
Y1530600D02*
D03*
D36*
X3352600Y1571600D02*
D03*
X3347600D02*
D03*
X3342600D02*
D03*
X3337600D02*
D03*
X3332600D02*
D03*
X3327600D02*
D03*
X3322600D02*
D03*
X3317600D02*
D03*
X3347600Y1524600D02*
D03*
X3342600D02*
D03*
X3337600D02*
D03*
X3332600D02*
D03*
X3327600D02*
D03*
X3322600D02*
D03*
X3317600D02*
D03*
X3352600D02*
D03*
D38*
X2452500Y1534500D02*
D03*
Y1500500D02*
D03*
X2430000Y1534500D02*
D03*
Y1500500D02*
D03*
X1075000Y1577000D02*
D03*
Y1543000D02*
D03*
X2595000Y1007000D02*
D03*
Y973000D02*
D03*
X2777500Y1452500D02*
D03*
Y1486500D02*
D03*
X2410000Y1757000D02*
D03*
Y1723000D02*
D03*
X2620000Y1767000D02*
D03*
Y1733000D02*
D03*
X2595000Y1767000D02*
D03*
Y1733000D02*
D03*
X1645000Y1007000D02*
D03*
Y973000D02*
D03*
X1360000Y1007000D02*
D03*
Y973000D02*
D03*
X1075000Y1007000D02*
D03*
Y973000D02*
D03*
X760000Y1007000D02*
D03*
Y973000D02*
D03*
X2190000Y1007000D02*
D03*
Y973000D02*
D03*
X1955000Y1007000D02*
D03*
Y973000D02*
D03*
X2405000Y1007000D02*
D03*
Y973000D02*
D03*
X2787500Y999500D02*
D03*
Y965500D02*
D03*
X2240000Y1534500D02*
D03*
Y1500500D02*
D03*
X2265000Y1187000D02*
D03*
Y1153000D02*
D03*
X1267500Y1187000D02*
D03*
Y1153000D02*
D03*
X270000Y1387000D02*
D03*
Y1353000D02*
D03*
X2405000Y1387000D02*
D03*
Y1353000D02*
D03*
X2025000Y1387000D02*
D03*
Y1353000D02*
D03*
X2020000Y1189500D02*
D03*
Y1155500D02*
D03*
X695000Y1187000D02*
D03*
Y1153000D02*
D03*
X1455000Y1387000D02*
D03*
Y1353000D02*
D03*
X1075000Y1197000D02*
D03*
Y1163000D02*
D03*
X525000Y1007000D02*
D03*
Y973000D02*
D03*
X2215000Y1187000D02*
D03*
Y1153000D02*
D03*
X505000Y1187000D02*
D03*
Y1153000D02*
D03*
X1455000Y1197000D02*
D03*
Y1163000D02*
D03*
X1645000Y1387000D02*
D03*
Y1353000D02*
D03*
X1670000Y1534500D02*
D03*
Y1500500D02*
D03*
X1860000Y1534500D02*
D03*
Y1500500D02*
D03*
X1645000Y1187000D02*
D03*
Y1153000D02*
D03*
X2050000Y1534500D02*
D03*
Y1500500D02*
D03*
X2447500Y1355500D02*
D03*
Y1389500D02*
D03*
X505000Y1387000D02*
D03*
Y1353000D02*
D03*
X1835000Y1189500D02*
D03*
Y1155500D02*
D03*
X695000Y1387000D02*
D03*
Y1353000D02*
D03*
X1265000Y1387000D02*
D03*
Y1353000D02*
D03*
X890000Y1187000D02*
D03*
Y1153000D02*
D03*
X1075000Y1387000D02*
D03*
Y1353000D02*
D03*
X2225000Y1369500D02*
D03*
Y1335500D02*
D03*
X1835000Y1387000D02*
D03*
Y1353000D02*
D03*
X885000Y1387000D02*
D03*
Y1353000D02*
D03*
X270000Y1197000D02*
D03*
Y1163000D02*
D03*
Y1007000D02*
D03*
Y973000D02*
D03*
X230000Y1757000D02*
D03*
Y1723000D02*
D03*
X510000Y1757000D02*
D03*
Y1723000D02*
D03*
X700000Y1757000D02*
D03*
Y1723000D02*
D03*
X890000Y1757000D02*
D03*
Y1723000D02*
D03*
X1080000Y1757000D02*
D03*
Y1723000D02*
D03*
X1270000Y1757000D02*
D03*
Y1723000D02*
D03*
X1460000Y1757000D02*
D03*
Y1723000D02*
D03*
X1642500Y1757000D02*
D03*
Y1723000D02*
D03*
X1840000Y1757000D02*
D03*
Y1723000D02*
D03*
X2022500Y1757000D02*
D03*
Y1723000D02*
D03*
X2220000Y1757000D02*
D03*
Y1723000D02*
D03*
X885000Y1577000D02*
D03*
Y1543000D02*
D03*
X695000Y1577000D02*
D03*
Y1543000D02*
D03*
X505000Y1577000D02*
D03*
Y1543000D02*
D03*
X270000Y1577000D02*
D03*
Y1543000D02*
D03*
X1290000Y1534500D02*
D03*
Y1500500D02*
D03*
X1480000Y1534500D02*
D03*
Y1500500D02*
D03*
D64*
X3164600Y1244650D02*
D03*
Y1231950D02*
D03*
Y1219250D02*
D03*
Y1206550D02*
D03*
X3115600Y1244650D02*
D03*
Y1231950D02*
D03*
Y1219250D02*
D03*
Y1206550D02*
D03*
X3232000Y854050D02*
D03*
Y841350D02*
D03*
Y828650D02*
D03*
Y815950D02*
D03*
X3183000Y854050D02*
D03*
Y841350D02*
D03*
Y828650D02*
D03*
Y815950D02*
D03*
D65*
X3226602Y1327599D02*
D03*
Y1343601D02*
D03*
X3248598Y1327599D02*
D03*
Y1343601D02*
D03*
D66*
X3335100Y1548100D02*
D03*
D67*
X3135800Y1410400D02*
D03*
X3112800D02*
D03*
X3089800D02*
D03*
X2597000Y1596500D02*
D03*
X2620000D02*
D03*
X2643000D02*
D03*
D68*
X3112800Y1468400D02*
D03*
X2620000Y1538500D02*
D03*
D69*
X3091800Y1527450D02*
D03*
Y1540150D02*
D03*
Y1552850D02*
D03*
Y1565550D02*
D03*
Y1578250D02*
D03*
Y1590950D02*
D03*
Y1603650D02*
D03*
Y1616350D02*
D03*
X3138800Y1527450D02*
D03*
Y1540150D02*
D03*
Y1552850D02*
D03*
Y1565550D02*
D03*
Y1578250D02*
D03*
Y1590950D02*
D03*
Y1603650D02*
D03*
Y1616350D02*
D03*
D70*
X3419800Y1419400D02*
D03*
X3385800D02*
D03*
X2592000Y1182500D02*
D03*
X2558000D02*
D03*
D72*
X3487250Y854500D02*
D03*
Y1035500D02*
D03*
D73*
X3462750Y862500D02*
D03*
Y867500D02*
D03*
Y872500D02*
D03*
Y877500D02*
D03*
Y882500D02*
D03*
Y887500D02*
D03*
Y892500D02*
D03*
Y897500D02*
D03*
Y902500D02*
D03*
Y907500D02*
D03*
Y912500D02*
D03*
Y917500D02*
D03*
Y922500D02*
D03*
Y957500D02*
D03*
Y962500D02*
D03*
Y967500D02*
D03*
Y972500D02*
D03*
Y977500D02*
D03*
Y982500D02*
D03*
Y987500D02*
D03*
Y992500D02*
D03*
Y997500D02*
D03*
Y1002500D02*
D03*
Y1007500D02*
D03*
Y1012500D02*
D03*
Y1017500D02*
D03*
Y1022500D02*
D03*
Y1027500D02*
D03*
Y927500D02*
D03*
Y942500D02*
D03*
Y947500D02*
D03*
Y952500D02*
D03*
Y937500D02*
D03*
Y932500D02*
D03*
D74*
X3374005Y1060000D02*
D03*
X3420995D02*
D03*
X3284005D02*
D03*
X3330995D02*
D03*
X3408495Y810000D02*
D03*
X3361505D02*
D03*
D75*
X3104000Y965500D02*
D03*
Y942500D02*
D03*
Y919500D02*
D03*
D76*
X3046000Y942500D02*
D03*
D77*
X109960Y1482056D02*
D03*
X114960D02*
D03*
X104960D02*
D03*
X114960Y1468056D02*
D03*
X109960D02*
D03*
X104960D02*
D03*
D78*
X2682500Y1200500D02*
D03*
X2687500D02*
D03*
X2692500D02*
D03*
X2697500D02*
D03*
X2702500D02*
D03*
X2707500D02*
D03*
X2712500D02*
D03*
X2717500D02*
D03*
X2722500D02*
D03*
X2727500D02*
D03*
X2732500D02*
D03*
X2737500D02*
D03*
X2742500D02*
D03*
X2747500D02*
D03*
X2752500D02*
D03*
X2757500D02*
D03*
Y1314500D02*
D03*
X2752500D02*
D03*
X2747500D02*
D03*
X2742500D02*
D03*
X2737500D02*
D03*
X2732500D02*
D03*
X2727500D02*
D03*
X2722500D02*
D03*
X2717500D02*
D03*
X2712500D02*
D03*
X2707500D02*
D03*
X2702500D02*
D03*
X2697500D02*
D03*
X2692500D02*
D03*
X2687500D02*
D03*
X2682500D02*
D03*
D79*
X2154300Y1824900D02*
D03*
X2070700D02*
D03*
D80*
X2135000Y1805100D02*
D03*
X2130000D02*
D03*
X2125000D02*
D03*
X2120000D02*
D03*
X2115000D02*
D03*
X2110000D02*
D03*
X2105000D02*
D03*
X2100000D02*
D03*
X2095000D02*
D03*
X2090000D02*
D03*
M02*
