999
dxfrw 0.5.10
0
SECTION
2
HEADER
9
$ACADVER
1
AC1021
9
$HANDSEED
5
20000
9
$DWGCODEPAGE
3
ANSI_1252
9
$INSBASE
10
0
20
0
30
0
9
$EXTMIN
10
-14.125
20
-13.25
30
0
9
$EXTMAX
10
331.25
20
153.125
30
0
9
$LIMMIN
10
0
20
0
9
$LIMMAX
10
420
20
297
9
$ORTHOMODE
70
0
9
$LTSCALE
40
1
9
$TEXTSTYLE
7
STANDARD
9
$CLAYER
8
quotes
9
$DIMASZ
40
2.5
9
$DIMLFAC
40
1
9
$DIMSCALE
40
1
9
$DIMEXO
40
0.625
9
$DIMEXE
40
1.25
9
$DIMTXT
40
2.5
9
$DIMTSZ
40
0
9
$DIMAUNIT
70
0
9
$DIMADEC
70
2
9
$DIMLUNIT
70
2
9
$DIMSTYLE
2
STANDARD
9
$DIMGAP
40
0.625
9
$DIMTIH
70
0
9
$LUNITS
70
2
9
$LUPREC
70
4
9
$AUNITS
70
0
9
$AUPREC
70
2
9
$SPLINESEGS
70
8
9
$GRIDMODE
70
1
9
$SNAPSTYLE
70
0
9
$GRIDUNIT
10
0
20
0
9
$PINSBASE
10
9.52189781022
20
55.3649635036
30
0
9
$PLIMMIN
10
0
20
0
9
$PLIMMAX
10
297
20
210
9
$INSUNITS
70
4
9
$PSVPSCALE
40
0.992703628332
0
ENDSEC
0
SECTION
2
CLASSES
0
ENDSEC
0
SECTION
2
TABLES
0
TABLE
2
VPORT
5
8
330
0
100
AcDbSymbolTable
70
1
0
VPORT
5
31
330
2
100
AcDbSymbolTableRecord
100
AcDbViewportTableRecord
2
*ACTIVE
70
0
10
0
20
0
11
1
21
1
12
187.4
22
90.6000000002
13
0
23
0
14
10
24
10
15
10
25
10
16
0
26
0
36
1
17
0
27
0
37
0
40
229.6
41
1.92770034843
42
50
43
0
44
0
50
0
51
0
71
0
72
100
73
1
74
3
75
0
76
1
77
0
78
0
281
0
65
1
110
0
120
0
130
0
111
1
121
0
131
0
112
0
122
1
132
0
79
0
146
0
348
10020
60
7
61
5
292
1
282
1
141
0
142
0
63
250
421
3358443
0
ENDTAB
0
TABLE
2
LTYPE
5
5
330
0
100
AcDbSymbolTable
70
4
0
LTYPE
5
14
330
5
100
AcDbSymbolTableRecord
100
AcDbLinetypeTableRecord
2
ByBlock
70
0
3

72
65
73
0
40
0
0
LTYPE
5
15
330
5
100
AcDbSymbolTableRecord
100
AcDbLinetypeTableRecord
2
ByLayer
70
0
3

72
65
73
0
40
0
0
LTYPE
5
16
330
5
100
AcDbSymbolTableRecord
100
AcDbLinetypeTableRecord
2
Continuous
70
0
3
Solid line
72
65
73
0
40
0
0
LTYPE
5
32
330
5
100
AcDbSymbolTableRecord
100
AcDbLinetypeTableRecord
2
DOT
70
0
3
Dot . . . . . . . . . . . . . . . . . . . . . .
72
65
73
2
40
6.35
49
0
74
0
49
-6.35
74
0
0
LTYPE
5
33
330
5
100
AcDbSymbolTableRecord
100
AcDbLinetypeTableRecord
2
DOT2
70
0
3
Dot (.5x) .....................................
72
65
73
2
40
3.175
49
0
74
0
49
-3.175
74
0
0
LTYPE
5
34
330
5
100
AcDbSymbolTableRecord
100
AcDbLinetypeTableRecord
2
DOTX2
70
0
3
Dot (2x) .  .  .  .  .  .  .  .  .  .  .  .  .
72
65
73
2
40
12.7
49
0
74
0
49
-12.7
74
0
0
LTYPE
5
35
330
5
100
AcDbSymbolTableRecord
100
AcDbLinetypeTableRecord
2
DASHED
70
0
3
Dot . . . . . . . . . . . . . . . . . . . . . .
72
65
73
2
40
19.05
49
12.7
74
0
49
-6.35
74
0
0
LTYPE
5
36
330
5
100
AcDbSymbolTableRecord
100
AcDbLinetypeTableRecord
2
DASHED2
70
0
3
Dashed (.5x) _ _ _ _ _ _ _ _ _ _ _ _ _ _ _ _ _
72
65
73
2
40
9.525
49
6.35
74
0
49
-3.175
74
0
0
LTYPE
5
37
330
5
100
AcDbSymbolTableRecord
100
AcDbLinetypeTableRecord
2
DASHEDX2
70
0
3
Dashed (2x) ____  ____  ____  ____  ____  ___
72
65
73
2
40
38.1
49
25.4
74
0
49
-12.7
74
0
0
LTYPE
5
38
330
5
100
AcDbSymbolTableRecord
100
AcDbLinetypeTableRecord
2
DASHDOT
70
0
3
Dash dot __ . __ . __ . __ . __ . __ . __ . __
72
65
73
4
40
25.4
49
12.7
74
0
49
-6.35
74
0
49
0
74
0
49
-6.35
74
0
0
LTYPE
5
39
330
5
100
AcDbSymbolTableRecord
100
AcDbLinetypeTableRecord
2
DASHDOT2
70
0
3
Dash dot (.5x) _._._._._._._._._._._._._._._.
72
65
73
4
40
12.7
49
6.35
74
0
49
-3.175
74
0
49
0
74
0
49
-3.175
74
0
0
LTYPE
5
3A
330
5
100
AcDbSymbolTableRecord
100
AcDbLinetypeTableRecord
2
DASHDOTX2
70
0
3
Dash dot (2x) ____  .  ____  .  ____  .  ___
72
65
73
4
40
50.8
49
25.4
74
0
49
-12.7
74
0
49
0
74
0
49
-12.7
74
0
0
LTYPE
5
3B
330
5
100
AcDbSymbolTableRecord
100
AcDbLinetypeTableRecord
2
DIVIDE
70
0
3
Divide ____ . . ____ . . ____ . . ____ . . ____
72
65
73
6
40
31.75
49
12.7
74
0
49
-6.35
74
0
49
0
74
0
49
-6.35
74
0
49
0
74
0
49
-6.35
74
0
0
LTYPE
5
3C
330
5
100
AcDbSymbolTableRecord
100
AcDbLinetypeTableRecord
2
DIVIDE2
70
0
3
Divide (.5x) __..__..__..__..__..__..__..__.._
72
65
73
6
40
15.875
49
6.35
74
0
49
-3.175
74
0
49
0
74
0
49
-3.175
74
0
49
0
74
0
49
-3.175
74
0
0
LTYPE
5
3D
330
5
100
AcDbSymbolTableRecord
100
AcDbLinetypeTableRecord
2
DIVIDEX2
70
0
3
Divide (2x) ________  .  .  ________  .  .  _
72
65
73
6
40
63.5
49
25.4
74
0
49
-12.7
74
0
49
0
74
0
49
-12.7
74
0
49
0
74
0
49
-12.7
74
0
0
LTYPE
5
3E
330
5
100
AcDbSymbolTableRecord
100
AcDbLinetypeTableRecord
2
BORDER
70
0
3
Border __ __ . __ __ . __ __ . __ __ . __ __ .
72
65
73
6
40
44.45
49
12.7
74
0
49
-6.35
74
0
49
12.7
74
0
49
-6.35
74
0
49
0
74
0
49
-6.35
74
0
0
LTYPE
5
3F
330
5
100
AcDbSymbolTableRecord
100
AcDbLinetypeTableRecord
2
BORDER2
70
0
3
Border (.5x) __.__.__.__.__.__.__.__.__.__.__.
72
65
73
6
40
22.225
49
6.35
74
0
49
-3.175
74
0
49
6.35
74
0
49
-3.175
74
0
49
0
74
0
49
-3.175
74
0
0
LTYPE
5
40
330
5
100
AcDbSymbolTableRecord
100
AcDbLinetypeTableRecord
2
BORDERX2
70
0
3
Border (2x) ____  ____  .  ____  ____  .  ___
72
65
73
6
40
88.9
49
25.4
74
0
49
-12.7
74
0
49
25.4
74
0
49
-12.7
74
0
49
0
74
0
49
-12.7
74
0
0
LTYPE
5
41
330
5
100
AcDbSymbolTableRecord
100
AcDbLinetypeTableRecord
2
CENTER
70
0
3
Center ____ _ ____ _ ____ _ ____ _ ____ _ ____
72
65
73
4
40
50.8
49
31.75
74
0
49
-6.35
74
0
49
6.35
74
0
49
-6.35
74
0
0
LTYPE
5
42
330
5
100
AcDbSymbolTableRecord
100
AcDbLinetypeTableRecord
2
CENTER2
70
0
3
Center (.5x) ___ _ ___ _ ___ _ ___ _ ___ _ ___
72
65
73
4
40
28.575
49
19.05
74
0
49
-3.175
74
0
49
3.175
74
0
49
-3.175
74
0
0
LTYPE
5
43
330
5
100
AcDbSymbolTableRecord
100
AcDbLinetypeTableRecord
2
CENTERX2
70
0
3
Center (2x) ________  __  ________  __  _____
72
65
73
4
40
101.6
49
63.5
74
0
49
-12.7
74
0
49
12.7
74
0
49
-12.7
74
0
0
ENDTAB
0
TABLE
2
LAYER
5
2
330
0
100
AcDbSymbolTable
70
1
0
LAYER
5
10
330
2
100
AcDbSymbolTableRecord
100
AcDbLayerTableRecord
2
0
70
1
62
7
6
CONTINUOUS
370
0
390
F
0
LAYER
5
44
330
2
100
AcDbSymbolTableRecord
100
AcDbLayerTableRecord
2
cutout
70
0
62
1
6
CONTINUOUS
370
0
390
F
0
LAYER
5
45
330
2
100
AcDbSymbolTableRecord
100
AcDbLayerTableRecord
2
caps
70
0
62
7
6
CONTINUOUS
370
0
390
F
0
LAYER
5
46
330
2
100
AcDbSymbolTableRecord
100
AcDbLayerTableRecord
2
prints
70
0
62
7
6
CONTINUOUS
370
0
390
F
0
LAYER
5
47
330
2
100
AcDbSymbolTableRecord
100
AcDbLayerTableRecord
2
leds
70
0
62
7
6
CONTINUOUS
370
0
390
F
0
LAYER
5
48
330
2
100
AcDbSymbolTableRecord
100
AcDbLayerTableRecord
2
border
70
0
62
7
6
CONTINUOUS
370
0
390
F
0
LAYER
5
49
330
2
100
AcDbSymbolTableRecord
100
AcDbLayerTableRecord
2
quotes
70
0
62
7
6
CONTINUOUS
370
0
390
F
0
ENDTAB
0
TABLE
2
STYLE
5
3
330
0
100
AcDbSymbolTable
70
3
0
STYLE
5
4A
330
2
100
AcDbSymbolTableRecord
100
AcDbTextStyleTableRecord
2
standard
70
0
40
0
41
1
50
0
71
0
42
1
3
standard
4

0
ENDTAB
0
TABLE
2
VIEW
5
6
330
0
100
AcDbSymbolTable
70
0
0
ENDTAB
0
TABLE
2
UCS
5
7
330
0
100
AcDbSymbolTable
70
0
0
ENDTAB
0
TABLE
2
APPID
5
9
330
0
100
AcDbSymbolTable
70
1
0
APPID
5
12
330
9
100
AcDbSymbolTableRecord
100
AcDbRegAppTableRecord
2
ACAD
70
0
0
ENDTAB
0
TABLE
2
DIMSTYLE
5
A
330
0
100
AcDbSymbolTable
70
1
100
AcDbDimStyleTable
71
1
0
DIMSTYLE
105
4B
330
A
100
AcDbSymbolTableRecord
100
AcDbDimStyleTableRecord
2
Standard
70
0
40
1
41
2.5
42
0.625
43
0.38
44
1.25
45
0
46
0
47
0
48
0
140
2.5
141
0.09
142
0
143
25.4
144
1
145
0
146
1
147
0.625
148
0
71
0
72
0
73
0
74
1
75
0
76
0
77
0
78
0
79
0
170
0
171
2
172
0
173
0
174
0
175
0
176
0
177
0
178
0
179
0
271
4
272
4
273
2
274
2
275
0
276
0
277
2
278
46
279
0
280
0
281
0
282
0
283
1
284
0
285
0
286
0
288
0
289
3
340
Standard
341

371
-2
372
-2
0
ENDTAB
0
TABLE
2
BLOCK_RECORD
5
1
330
0
100
AcDbSymbolTable
70
2
0
BLOCK_RECORD
5
1F
330
1
100
AcDbSymbolTableRecord
100
AcDbBlockTableRecord
2
*Model_Space
70
0
280
1
281
0
0
BLOCK_RECORD
5
1E
330
1
100
AcDbSymbolTableRecord
100
AcDbBlockTableRecord
2
*Paper_Space
70
0
280
1
281
0
0
BLOCK_RECORD
5
4C
330
1
100
AcDbSymbolTableRecord
100
AcDbBlockTableRecord
2
*D43
70
0
280
1
281
0
0
BLOCK_RECORD
5
4F
330
1
100
AcDbSymbolTableRecord
100
AcDbBlockTableRecord
2
*D34
70
0
280
1
281
0
0
BLOCK_RECORD
5
52
330
1
100
AcDbSymbolTableRecord
100
AcDbBlockTableRecord
2
*D32
70
0
280
1
281
0
0
BLOCK_RECORD
5
55
330
1
100
AcDbSymbolTableRecord
100
AcDbBlockTableRecord
2
*D17
70
0
280
1
281
0
0
BLOCK_RECORD
5
58
330
1
100
AcDbSymbolTableRecord
100
AcDbBlockTableRecord
2
*D29
70
0
280
1
281
0
0
BLOCK_RECORD
5
5B
330
1
100
AcDbSymbolTableRecord
100
AcDbBlockTableRecord
2
*D5
70
0
280
1
281
0
0
BLOCK_RECORD
5
5E
330
1
100
AcDbSymbolTableRecord
100
AcDbBlockTableRecord
2
*D13
70
0
280
1
281
0
0
BLOCK_RECORD
5
61
330
1
100
AcDbSymbolTableRecord
100
AcDbBlockTableRecord
2
*D20
70
0
280
1
281
0
0
BLOCK_RECORD
5
64
330
1
100
AcDbSymbolTableRecord
100
AcDbBlockTableRecord
2
*D21
70
0
280
1
281
0
0
BLOCK_RECORD
5
67
330
1
100
AcDbSymbolTableRecord
100
AcDbBlockTableRecord
2
*D15
70
0
280
1
281
0
0
BLOCK_RECORD
5
6A
330
1
100
AcDbSymbolTableRecord
100
AcDbBlockTableRecord
2
*D33
70
0
280
1
281
0
0
BLOCK_RECORD
5
6D
330
1
100
AcDbSymbolTableRecord
100
AcDbBlockTableRecord
2
*D24
70
0
280
1
281
0
0
BLOCK_RECORD
5
70
330
1
100
AcDbSymbolTableRecord
100
AcDbBlockTableRecord
2
*D19
70
0
280
1
281
0
0
BLOCK_RECORD
5
73
330
1
100
AcDbSymbolTableRecord
100
AcDbBlockTableRecord
2
*D40
70
0
280
1
281
0
0
BLOCK_RECORD
5
76
330
1
100
AcDbSymbolTableRecord
100
AcDbBlockTableRecord
2
*D38
70
0
280
1
281
0
0
BLOCK_RECORD
5
79
330
1
100
AcDbSymbolTableRecord
100
AcDbBlockTableRecord
2
*D26
70
0
280
1
281
0
0
BLOCK_RECORD
5
7C
330
1
100
AcDbSymbolTableRecord
100
AcDbBlockTableRecord
2
*D28
70
0
280
1
281
0
0
BLOCK_RECORD
5
7F
330
1
100
AcDbSymbolTableRecord
100
AcDbBlockTableRecord
2
*D37
70
0
280
1
281
0
0
BLOCK_RECORD
5
82
330
1
100
AcDbSymbolTableRecord
100
AcDbBlockTableRecord
2
*D30
70
0
280
1
281
0
0
BLOCK_RECORD
5
85
330
1
100
AcDbSymbolTableRecord
100
AcDbBlockTableRecord
2
*D31
70
0
280
1
281
0
0
BLOCK_RECORD
5
88
330
1
100
AcDbSymbolTableRecord
100
AcDbBlockTableRecord
2
*D41
70
0
280
1
281
0
0
BLOCK_RECORD
5
8B
330
1
100
AcDbSymbolTableRecord
100
AcDbBlockTableRecord
2
*D35
70
0
280
1
281
0
0
BLOCK_RECORD
5
8E
330
1
100
AcDbSymbolTableRecord
100
AcDbBlockTableRecord
2
*D6
70
0
280
1
281
0
0
BLOCK_RECORD
5
91
330
1
100
AcDbSymbolTableRecord
100
AcDbBlockTableRecord
2
*D27
70
0
280
1
281
0
0
BLOCK_RECORD
5
94
330
1
100
AcDbSymbolTableRecord
100
AcDbBlockTableRecord
2
*D16
70
0
280
1
281
0
0
BLOCK_RECORD
5
97
330
1
100
AcDbSymbolTableRecord
100
AcDbBlockTableRecord
2
*D4
70
0
280
1
281
0
0
BLOCK_RECORD
5
9A
330
1
100
AcDbSymbolTableRecord
100
AcDbBlockTableRecord
2
*D18
70
0
280
1
281
0
0
BLOCK_RECORD
5
9D
330
1
100
AcDbSymbolTableRecord
100
AcDbBlockTableRecord
2
*D39
70
0
280
1
281
0
0
BLOCK_RECORD
5
A0
330
1
100
AcDbSymbolTableRecord
100
AcDbBlockTableRecord
2
*D8
70
0
280
1
281
0
0
BLOCK_RECORD
5
A3
330
1
100
AcDbSymbolTableRecord
100
AcDbBlockTableRecord
2
*D14
70
0
280
1
281
0
0
BLOCK_RECORD
5
A6
330
1
100
AcDbSymbolTableRecord
100
AcDbBlockTableRecord
2
*D12
70
0
280
1
281
0
0
BLOCK_RECORD
5
A9
330
1
100
AcDbSymbolTableRecord
100
AcDbBlockTableRecord
2
*D7
70
0
280
1
281
0
0
BLOCK_RECORD
5
AC
330
1
100
AcDbSymbolTableRecord
100
AcDbBlockTableRecord
2
*D25
70
0
280
1
281
0
0
BLOCK_RECORD
5
AF
330
1
100
AcDbSymbolTableRecord
100
AcDbBlockTableRecord
2
*D36
70
0
280
1
281
0
0
BLOCK_RECORD
5
B2
330
1
100
AcDbSymbolTableRecord
100
AcDbBlockTableRecord
2
*D3
70
0
280
1
281
0
0
BLOCK_RECORD
5
B5
330
1
100
AcDbSymbolTableRecord
100
AcDbBlockTableRecord
2
*D42
70
0
280
1
281
0
0
BLOCK_RECORD
5
B8
330
1
100
AcDbSymbolTableRecord
100
AcDbBlockTableRecord
2
*D11
70
0
280
1
281
0
0
BLOCK_RECORD
5
BB
330
1
100
AcDbSymbolTableRecord
100
AcDbBlockTableRecord
2
*D1
70
0
280
1
281
0
0
BLOCK_RECORD
5
BE
330
1
100
AcDbSymbolTableRecord
100
AcDbBlockTableRecord
2
*D2
70
0
280
1
281
0
0
BLOCK_RECORD
5
C1
330
1
100
AcDbSymbolTableRecord
100
AcDbBlockTableRecord
2
*D22
70
0
280
1
281
0
0
BLOCK_RECORD
5
C4
330
1
100
AcDbSymbolTableRecord
100
AcDbBlockTableRecord
2
*D10
70
0
280
1
281
0
0
BLOCK_RECORD
5
C7
330
1
100
AcDbSymbolTableRecord
100
AcDbBlockTableRecord
2
*D23
70
0
280
1
281
0
0
BLOCK_RECORD
5
CA
330
1
100
AcDbSymbolTableRecord
100
AcDbBlockTableRecord
2
*D9
70
0
280
1
281
0
0
ENDTAB
0
ENDSEC
0
SECTION
2
BLOCKS
0
BLOCK
5
20
330
1F
100
AcDbEntity
8
0
100
AcDbBlockBegin
2
*Model_Space
70
0
10
0
20
0
30
0
3
*Model_Space
1

0
ENDBLK
5
21
330
1F
100
AcDbEntity
8
0
100
AcDbBlockEnd
0
BLOCK
5
1C
330
1B
100
AcDbEntity
8
0
100
AcDbBlockBegin
2
*Paper_Space
70
0
10
0
20
0
30
0
3
*Paper_Space
1

0
ENDBLK
5
1D
330
1F
100
AcDbEntity
8
0
100
AcDbBlockEnd
0
BLOCK
5
4D
330
4C
100
AcDbEntity
8
0
100
AcDbBlockBegin
2
*D43
70
1
10
0
20
0
3
*D43
1

0
LINE
5
CD
100
AcDbEntity
8
quotes
6
CONTINUOUS
62
7
370
0
100
AcDbLine
10
6
20
9.375
11
6
21
-1.25
0
LINE
5
CE
100
AcDbEntity
8
quotes
6
CONTINUOUS
62
7
370
0
100
AcDbLine
10
10
20
9.375
11
10
21
-1.25
0
LINE
5
CF
100
AcDbEntity
8
quotes
6
CONTINUOUS
62
7
370
0
100
AcDbLine
10
1
20
6.12323399574e-16
11
15
21
-6.12323399574e-16
0
SOLID
5
D0
100
AcDbEntity
8
quotes
6
CONTINUOUS
62
7
370
0
100
AcDbTrace
10
6
20
0
30
0
11
3.5
21
-0.416284657773
31
0
12
3.5
22
0.416284657773
32
0
13
3.5
23
0.416284657773
33
0
0
SOLID
5
D1
100
AcDbEntity
8
quotes
6
CONTINUOUS
62
7
370
0
100
AcDbTrace
10
10
20
0
30
0
11
12.5
21
0.416284657773
31
0
12
12.5
22
-0.416284657773
32
0
13
12.5
23
-0.416284657773
33
0
0
MTEXT
5
D2
100
AcDbEntity
8
quotes
6
CONTINUOUS
62
7
370
0
100
AcDbMText
10
8
20
1.875
30
0
40
2.5
41
1.38888888889
71
5
72
1
1
4
7
standard
210
0
220
0
230
1
50
0
73
2
44
1
0
ENDBLK
5
4E
330
4C
100
AcDbEntity
8
0
100
AcDbBlockEnd
0
BLOCK
5
50
330
4F
100
AcDbEntity
8
0
100
AcDbBlockBegin
2
*D34
70
1
10
0
20
0
3
*D34
1

0
LINE
5
D3
100
AcDbEntity
8
quotes
6
CONTINUOUS
62
7
370
0
100
AcDbLine
10
6.175
20
114
11
-1.25
21
114
0
LINE
5
D4
100
AcDbEntity
8
quotes
6
CONTINUOUS
62
7
370
0
100
AcDbLine
10
6.175
20
6
11
-1.25
21
6
0
LINE
5
D5
100
AcDbEntity
8
quotes
6
CONTINUOUS
62
7
370
0
100
AcDbLine
10
0
20
114
11
0
21
6
0
SOLID
5
D6
100
AcDbEntity
8
quotes
6
CONTINUOUS
62
7
370
0
100
AcDbTrace
10
0
20
114
30
0
11
0.416284657773
21
111.5
31
0
12
-0.416284657773
22
111.5
32
0
13
-0.416284657773
23
111.5
33
0
0
SOLID
5
D7
100
AcDbEntity
8
quotes
6
CONTINUOUS
62
7
370
0
100
AcDbTrace
10
0
20
6
30
0
11
-0.416284657773
21
8.5
31
0
12
0.416284657773
22
8.5
32
0
13
0.416284657773
23
8.5
33
0
0
MTEXT
5
D8
100
AcDbEntity
8
quotes
6
CONTINUOUS
62
7
370
0
100
AcDbMText
10
-1.875
20
60
30
0
40
2.5
41
4.44444444444
71
5
72
1
1
108
7
standard
210
0
220
0
230
1
50
90
73
2
44
1
0
ENDBLK
5
51
330
4F
100
AcDbEntity
8
0
100
AcDbBlockEnd
0
BLOCK
5
53
330
52
100
AcDbEntity
8
0
100
AcDbBlockBegin
2
*D32
70
1
10
0
20
0
3
*D32
1

0
LINE
5
D9
100
AcDbEntity
8
quotes
6
CONTINUOUS
62
7
370
0
100
AcDbLine
10
36
20
91.375
11
36
21
86.75
0
LINE
5
DA
100
AcDbEntity
8
quotes
6
CONTINUOUS
62
7
370
0
100
AcDbLine
10
43
20
91.375
11
43
21
86.75
0
LINE
5
DB
100
AcDbEntity
8
quotes
6
CONTINUOUS
62
7
370
0
100
AcDbLine
10
36
20
88
11
43
21
88
0
SOLID
5
DC
100
AcDbEntity
8
quotes
6
CONTINUOUS
62
7
370
0
100
AcDbTrace
10
36
20
88
30
0
11
38.5
21
88.4162846578
31
0
12
38.5
22
87.5837153422
32
0
13
38.5
23
87.5837153422
33
0
0
SOLID
5
DD
100
AcDbEntity
8
quotes
6
CONTINUOUS
62
7
370
0
100
AcDbTrace
10
43
20
88
30
0
11
40.5
21
87.5837153422
31
0
12
40.5
22
88.4162846578
32
0
13
40.5
23
88.4162846578
33
0
0
MTEXT
5
DE
100
AcDbEntity
8
quotes
6
CONTINUOUS
62
7
370
0
100
AcDbMText
10
39.5
20
89.875
30
0
40
2.5
41
1.11111111111
71
5
72
1
1
7
7
standard
210
0
220
0
230
1
50
0
73
2
44
1
0
ENDBLK
5
54
330
52
100
AcDbEntity
8
0
100
AcDbBlockEnd
0
BLOCK
5
56
330
55
100
AcDbEntity
8
0
100
AcDbBlockBegin
2
*D17
70
1
10
0
20
0
3
*D17
1

0
LINE
5
DF
100
AcDbEntity
8
quotes
6
CONTINUOUS
62
7
370
0
100
AcDbLine
10
98
20
107.625
11
98
21
127.25
0
LINE
5
E0
100
AcDbEntity
8
quotes
6
CONTINUOUS
62
7
370
0
100
AcDbLine
10
116
20
107.625
11
116
21
127.25
0
LINE
5
E1
100
AcDbEntity
8
quotes
6
CONTINUOUS
62
7
370
0
100
AcDbLine
10
98
20
126
11
116
21
126
0
SOLID
5
E2
100
AcDbEntity
8
quotes
6
CONTINUOUS
62
7
370
0
100
AcDbTrace
10
98
20
126
30
0
11
100.5
21
126.416284658
31
0
12
100.5
22
125.583715342
32
0
13
100.5
23
125.583715342
33
0
0
SOLID
5
E3
100
AcDbEntity
8
quotes
6
CONTINUOUS
62
7
370
0
100
AcDbTrace
10
116
20
126
30
0
11
113.5
21
125.583715342
31
0
12
113.5
22
126.416284658
32
0
13
113.5
23
126.416284658
33
0
0
MTEXT
5
E4
100
AcDbEntity
8
quotes
6
CONTINUOUS
62
7
370
0
100
AcDbMText
10
107
20
127.875
30
0
40
2.5
41
2.5
71
5
72
1
1
18
7
standard
210
0
220
0
230
1
50
0
73
2
44
1
0
ENDBLK
5
57
330
55
100
AcDbEntity
8
0
100
AcDbBlockEnd
0
BLOCK
5
59
330
58
100
AcDbEntity
8
0
100
AcDbBlockBegin
2
*D29
70
1
10
0
20
0
3
*D29
1

0
LINE
5
E5
100
AcDbEntity
8
quotes
6
CONTINUOUS
62
7
370
0
100
AcDbLine
10
92.775
20
28.45
11
87.75
21
28.45
0
LINE
5
E6
100
AcDbEntity
8
quotes
6
CONTINUOUS
62
7
370
0
100
AcDbLine
10
92.775
20
14.25
11
87.75
21
14.25
0
LINE
5
E7
100
AcDbEntity
8
quotes
6
CONTINUOUS
62
7
370
0
100
AcDbLine
10
89
20
28.45
11
89
21
14.25
0
SOLID
5
E8
100
AcDbEntity
8
quotes
6
CONTINUOUS
62
7
370
0
100
AcDbTrace
10
89
20
28.45
30
0
11
89.4162846578
21
25.95
31
0
12
88.5837153422
22
25.95
32
0
13
88.5837153422
23
25.95
33
0
0
SOLID
5
E9
100
AcDbEntity
8
quotes
6
CONTINUOUS
62
7
370
0
100
AcDbTrace
10
89
20
14.25
30
0
11
88.5837153422
21
16.75
31
0
12
89.4162846578
22
16.75
32
0
13
89.4162846578
23
16.75
33
0
0
MTEXT
5
EA
100
AcDbEntity
8
quotes
6
CONTINUOUS
62
7
370
0
100
AcDbMText
10
87.125
20
21.35
30
0
40
2.5
41
5.55555555556
71
5
72
1
1
14.2
7
standard
210
0
220
0
230
1
50
90
73
2
44
1
0
ENDBLK
5
5A
330
58
100
AcDbEntity
8
0
100
AcDbBlockEnd
0
BLOCK
5
5C
330
5B
100
AcDbEntity
8
0
100
AcDbBlockBegin
2
*D5
70
1
10
0
20
0
3
*D5
1

0
LINE
5
EB
100
AcDbEntity
8
quotes
6
CONTINUOUS
62
7
370
0
100
AcDbLine
10
33.5
20
86.625
11
33.5
21
122.25
0
LINE
5
EC
100
AcDbEntity
8
quotes
6
CONTINUOUS
62
7
370
0
100
AcDbLine
10
43
20
86.625
11
43
21
122.25
0
LINE
5
ED
100
AcDbEntity
8
quotes
6
CONTINUOUS
62
7
370
0
100
AcDbLine
10
33.5
20
121
11
43
21
121
0
SOLID
5
EE
100
AcDbEntity
8
quotes
6
CONTINUOUS
62
7
370
0
100
AcDbTrace
10
33.5
20
121
30
0
11
36
21
121.416284658
31
0
12
36
22
120.583715342
32
0
13
36
23
120.583715342
33
0
0
SOLID
5
EF
100
AcDbEntity
8
quotes
6
CONTINUOUS
62
7
370
0
100
AcDbTrace
10
43
20
121
30
0
11
40.5
21
120.583715342
31
0
12
40.5
22
121.416284658
32
0
13
40.5
23
121.416284658
33
0
0
MTEXT
5
F0
100
AcDbEntity
8
quotes
6
CONTINUOUS
62
7
370
0
100
AcDbMText
10
38.25
20
122.875
30
0
40
2.5
41
3.88888888889
71
5
72
1
1
9.5
7
standard
210
0
220
0
230
1
50
0
73
2
44
1
0
ENDBLK
5
5D
330
5B
100
AcDbEntity
8
0
100
AcDbBlockEnd
0
BLOCK
5
5F
330
5E
100
AcDbEntity
8
0
100
AcDbBlockBegin
2
*D13
70
1
10
0
20
0
3
*D13
1

0
LINE
5
F1
100
AcDbEntity
8
quotes
6
CONTINUOUS
62
7
370
0
100
AcDbLine
10
33.5
20
14.375
11
33.5
21
-8.25
0
LINE
5
F2
100
AcDbEntity
8
quotes
6
CONTINUOUS
62
7
370
0
100
AcDbLine
10
45.25
20
14.375
11
45.25
21
-8.25
0
LINE
5
F3
100
AcDbEntity
8
quotes
6
CONTINUOUS
62
7
370
0
100
AcDbLine
10
33.5
20
-7
11
45.25
21
-7
0
SOLID
5
F4
100
AcDbEntity
8
quotes
6
CONTINUOUS
62
7
370
0
100
AcDbTrace
10
33.5
20
-7
30
0
11
36
21
-6.58371534223
31
0
12
36
22
-7.41628465777
32
0
13
36
23
-7.41628465777
33
0
0
SOLID
5
F5
100
AcDbEntity
8
quotes
6
CONTINUOUS
62
7
370
0
100
AcDbTrace
10
45.25
20
-7
30
0
11
42.75
21
-7.41628465777
31
0
12
42.75
22
-6.58371534223
32
0
13
42.75
23
-6.58371534223
33
0
0
MTEXT
5
F6
100
AcDbEntity
8
quotes
6
CONTINUOUS
62
7
370
0
100
AcDbMText
10
39.375
20
-5.125
30
0
40
2.5
41
6.66666666667
71
5
72
1
1
11.75
7
standard
210
0
220
0
230
1
50
0
73
2
44
1
0
ENDBLK
5
60
330
5E
100
AcDbEntity
8
0
100
AcDbBlockEnd
0
BLOCK
5
62
330
61
100
AcDbEntity
8
0
100
AcDbBlockBegin
2
*D20
70
1
10
0
20
0
3
*D20
1

0
LINE
5
F7
100
AcDbEntity
8
quotes
6
CONTINUOUS
62
7
370
0
100
AcDbLine
10
250
20
31.375
11
250
21
-13.25
0
LINE
5
F8
100
AcDbEntity
8
quotes
6
CONTINUOUS
62
7
370
0
100
AcDbLine
10
287
20
31.375
11
287
21
-13.25
0
LINE
5
F9
100
AcDbEntity
8
quotes
6
CONTINUOUS
62
7
370
0
100
AcDbLine
10
250
20
-12
11
287
21
-12
0
SOLID
5
FA
100
AcDbEntity
8
quotes
6
CONTINUOUS
62
7
370
0
100
AcDbTrace
10
250
20
-12
30
0
11
252.5
21
-11.5837153422
31
0
12
252.5
22
-12.4162846578
32
0
13
252.5
23
-12.4162846578
33
0
0
SOLID
5
FB
100
AcDbEntity
8
quotes
6
CONTINUOUS
62
7
370
0
100
AcDbTrace
10
287
20
-12
30
0
11
284.5
21
-12.4162846578
31
0
12
284.5
22
-11.5837153422
32
0
13
284.5
23
-11.5837153422
33
0
0
MTEXT
5
FC
100
AcDbEntity
8
quotes
6
CONTINUOUS
62
7
370
0
100
AcDbMText
10
268.5
20
-10.125
30
0
40
2.5
41
3.05555555556
71
5
72
1
1
37
7
standard
210
0
220
0
230
1
50
0
73
2
44
1
0
ENDBLK
5
63
330
61
100
AcDbEntity
8
0
100
AcDbBlockEnd
0
BLOCK
5
65
330
64
100
AcDbEntity
8
0
100
AcDbBlockBegin
2
*D21
70
1
10
0
20
0
3
*D21
1

0
LINE
5
FD
100
AcDbEntity
8
quotes
6
CONTINUOUS
62
7
370
0
100
AcDbLine
10
207.5
20
12.375
11
207.5
21
-1.25
0
LINE
5
FE
100
AcDbEntity
8
quotes
6
CONTINUOUS
62
7
370
0
100
AcDbLine
10
230
20
12.375
11
230
21
-1.25
0
LINE
5
FF
100
AcDbEntity
8
quotes
6
CONTINUOUS
62
7
370
0
100
AcDbLine
10
207.5
20
0
11
230
21
0
0
SOLID
5
100
100
AcDbEntity
8
quotes
6
CONTINUOUS
62
7
370
0
100
AcDbTrace
10
207.5
20
0
30
0
11
210
21
0.416284657773
31
0
12
210
22
-0.416284657773
32
0
13
210
23
-0.416284657773
33
0
0
SOLID
5
101
100
AcDbEntity
8
quotes
6
CONTINUOUS
62
7
370
0
100
AcDbTrace
10
230
20
0
30
0
11
227.5
21
-0.416284657773
31
0
12
227.5
22
0.416284657773
32
0
13
227.5
23
0.416284657773
33
0
0
MTEXT
5
102
100
AcDbEntity
8
quotes
6
CONTINUOUS
62
7
370
0
100
AcDbMText
10
218.75
20
1.875
30
0
40
2.5
41
5.83333333333
71
5
72
1
1
22.5
7
standard
210
0
220
0
230
1
50
0
73
2
44
1
0
ENDBLK
5
66
330
64
100
AcDbEntity
8
0
100
AcDbBlockEnd
0
BLOCK
5
68
330
67
100
AcDbEntity
8
0
100
AcDbBlockBegin
2
*D15
70
1
10
0
20
0
3
*D15
1

0
SOLID
5
103
100
AcDbEntity
8
quotes
6
CONTINUOUS
62
7
370
0
100
AcDbTrace
10
37.0412661975
20
105.214810564
30
0
11
38.352177756
21
107.383866534
31
0
12
38.9843115059
22
106.842037606
32
0
13
38.9843115059
23
106.842037606
33
0
0
LINE
5
104
100
AcDbEntity
8
quotes
6
CONTINUOUS
62
7
370
0
100
AcDbLine
10
36
20
104
11
42.4645276423
21
111.541948918
0
MTEXT
5
105
100
AcDbEntity
8
quotes
6
CONTINUOUS
62
7
370
0
100
AcDbMText
10
38.3292907908
20
109.598613566
30
0
40
2.5
41
3.33333333333
71
5
72
1
1
1.6
7
standard
210
0
220
0
230
1
50
49.3987053608
73
2
44
1
0
ENDBLK
5
69
330
67
100
AcDbEntity
8
0
100
AcDbBlockEnd
0
BLOCK
5
6B
330
6A
100
AcDbEntity
8
0
100
AcDbBlockBegin
2
*D33
70
1
10
0
20
0
3
*D33
1

0
LINE
5
106
100
AcDbEntity
8
quotes
6
CONTINUOUS
62
7
370
0
100
AcDbLine
10
14.375
20
105
11
-12.25
21
105
0
LINE
5
107
100
AcDbEntity
8
quotes
6
CONTINUOUS
62
7
370
0
100
AcDbLine
10
14.375
20
114
11
-12.25
21
114
0
LINE
5
108
100
AcDbEntity
8
quotes
6
CONTINUOUS
62
7
370
0
100
AcDbLine
10
-11
20
105
11
-11
21
114
0
SOLID
5
109
100
AcDbEntity
8
quotes
6
CONTINUOUS
62
7
370
0
100
AcDbTrace
10
-11
20
105
30
0
11
-11.4162846578
21
107.5
31
0
12
-10.5837153422
22
107.5
32
0
13
-10.5837153422
23
107.5
33
0
0
SOLID
5
10A
100
AcDbEntity
8
quotes
6
CONTINUOUS
62
7
370
0
100
AcDbTrace
10
-11
20
114
30
0
11
-10.5837153422
21
111.5
31
0
12
-11.4162846578
22
111.5
32
0
13
-11.4162846578
23
111.5
33
0
0
MTEXT
5
10B
100
AcDbEntity
8
quotes
6
CONTINUOUS
62
7
370
0
100
AcDbMText
10
-12.875
20
109.5
30
0
40
2.5
41
1.11111111111
71
5
72
1
1
9
7
standard
210
0
220
0
230
1
50
90
73
2
44
1
0
ENDBLK
5
6C
330
6A
100
AcDbEntity
8
0
100
AcDbBlockEnd
0
BLOCK
5
6E
330
6D
100
AcDbEntity
8
0
100
AcDbBlockBegin
2
*D24
70
1
10
0
20
0
3
*D24
1

0
LINE
5
10C
100
AcDbEntity
8
quotes
6
CONTINUOUS
62
7
370
0
100
AcDbLine
10
12.375
20
31
11
-11.25
21
31
0
LINE
5
10D
100
AcDbEntity
8
quotes
6
CONTINUOUS
62
7
370
0
100
AcDbLine
10
12.375
20
13
11
-11.25
21
13
0
LINE
5
10E
100
AcDbEntity
8
quotes
6
CONTINUOUS
62
7
370
0
100
AcDbLine
10
-10
20
31
11
-10
21
13
0
SOLID
5
10F
100
AcDbEntity
8
quotes
6
CONTINUOUS
62
7
370
0
100
AcDbTrace
10
-10
20
31
30
0
11
-9.58371534223
21
28.5
31
0
12
-10.4162846578
22
28.5
32
0
13
-10.4162846578
23
28.5
33
0
0
SOLID
5
110
100
AcDbEntity
8
quotes
6
CONTINUOUS
62
7
370
0
100
AcDbTrace
10
-10
20
13
30
0
11
-10.4162846578
21
15.5
31
0
12
-9.58371534223
22
15.5
32
0
13
-9.58371534223
23
15.5
33
0
0
MTEXT
5
111
100
AcDbEntity
8
quotes
6
CONTINUOUS
62
7
370
0
100
AcDbMText
10
-11.875
20
22
30
0
40
2.5
41
2.5
71
5
72
1
1
18
7
standard
210
0
220
0
230
1
50
90
73
2
44
1
0
ENDBLK
5
6F
330
6D
100
AcDbEntity
8
0
100
AcDbBlockEnd
0
BLOCK
5
71
330
70
100
AcDbEntity
8
0
100
AcDbBlockBegin
2
*D19
70
1
10
0
20
0
3
*D19
1

0
LINE
5
112
100
AcDbEntity
8
quotes
6
CONTINUOUS
62
7
370
0
100
AcDbLine
10
287.625
20
50
11
321.25
21
50
0
LINE
5
113
100
AcDbEntity
8
quotes
6
CONTINUOUS
62
7
370
0
100
AcDbLine
10
287.625
20
32
11
321.25
21
32
0
LINE
5
114
100
AcDbEntity
8
quotes
6
CONTINUOUS
62
7
370
0
100
AcDbLine
10
320
20
50
11
320
21
32
0
SOLID
5
115
100
AcDbEntity
8
quotes
6
CONTINUOUS
62
7
370
0
100
AcDbTrace
10
320
20
50
30
0
11
320.416284658
21
47.5
31
0
12
319.583715342
22
47.5
32
0
13
319.583715342
23
47.5
33
0
0
SOLID
5
116
100
AcDbEntity
8
quotes
6
CONTINUOUS
62
7
370
0
100
AcDbTrace
10
320
20
32
30
0
11
319.583715342
21
34.5
31
0
12
320.416284658
22
34.5
32
0
13
320.416284658
23
34.5
33
0
0
MTEXT
5
117
100
AcDbEntity
8
quotes
6
CONTINUOUS
62
7
370
0
100
AcDbMText
10
318.125
20
41
30
0
40
2.5
41
2.5
71
5
72
1
1
18
7
standard
210
0
220
0
230
1
50
90
73
2
44
1
0
ENDBLK
5
72
330
70
100
AcDbEntity
8
0
100
AcDbBlockEnd
0
BLOCK
5
74
330
73
100
AcDbEntity
8
0
100
AcDbBlockBegin
2
*D40
70
1
10
0
20
0
3
*D40
1

0
LINE
5
118
100
AcDbEntity
8
quotes
6
CONTINUOUS
62
7
370
0
100
AcDbLine
10
285.625
20
105
11
331.25
21
105
0
LINE
5
119
100
AcDbEntity
8
quotes
6
CONTINUOUS
62
7
370
0
100
AcDbLine
10
285.625
20
15
11
331.25
21
15
0
LINE
5
11A
100
AcDbEntity
8
quotes
6
CONTINUOUS
62
7
370
0
100
AcDbLine
10
330
20
105
11
330
21
15
0
SOLID
5
11B
100
AcDbEntity
8
quotes
6
CONTINUOUS
62
7
370
0
100
AcDbTrace
10
330
20
105
30
0
11
330.416284658
21
102.5
31
0
12
329.583715342
22
102.5
32
0
13
329.583715342
23
102.5
33
0
0
SOLID
5
11C
100
AcDbEntity
8
quotes
6
CONTINUOUS
62
7
370
0
100
AcDbTrace
10
330
20
15
30
0
11
329.583715342
21
17.5
31
0
12
330.416284658
22
17.5
32
0
13
330.416284658
23
17.5
33
0
0
MTEXT
5
11D
100
AcDbEntity
8
quotes
6
CONTINUOUS
62
7
370
0
100
AcDbMText
10
328.125
20
60
30
0
40
2.5
41
3.05555555556
71
5
72
1
1
90
7
standard
210
0
220
0
230
1
50
90
73
2
44
1
0
ENDBLK
5
75
330
73
100
AcDbEntity
8
0
100
AcDbBlockEnd
0
BLOCK
5
77
330
76
100
AcDbEntity
8
0
100
AcDbBlockBegin
2
*D38
70
1
10
0
20
0
3
*D38
1

0
LINE
5
11E
100
AcDbEntity
8
quotes
6
CONTINUOUS
62
7
370
0
100
AcDbLine
10
15
20
110.625
11
15
21
131.25
0
LINE
5
11F
100
AcDbEntity
8
quotes
6
CONTINUOUS
62
7
370
0
100
AcDbLine
10
6
20
110.625
11
6
21
131.25
0
LINE
5
120
100
AcDbEntity
8
quotes
6
CONTINUOUS
62
7
370
0
100
AcDbLine
10
15
20
130
11
6
21
130
0
SOLID
5
121
100
AcDbEntity
8
quotes
6
CONTINUOUS
62
7
370
0
100
AcDbTrace
10
15
20
130
30
0
11
12.5
21
129.583715342
31
0
12
12.5
22
130.416284658
32
0
13
12.5
23
130.416284658
33
0
0
SOLID
5
122
100
AcDbEntity
8
quotes
6
CONTINUOUS
62
7
370
0
100
AcDbTrace
10
6
20
130
30
0
11
8.5
21
130.416284658
31
0
12
8.5
22
129.583715342
32
0
13
8.5
23
129.583715342
33
0
0
MTEXT
5
123
100
AcDbEntity
8
quotes
6
CONTINUOUS
62
7
370
0
100
AcDbMText
10
10.5
20
131.875
30
0
40
2.5
41
1.11111111111
71
5
72
1
1
9
7
standard
210
0
220
0
230
1
50
360
73
2
44
1
0
ENDBLK
5
78
330
76
100
AcDbEntity
8
0
100
AcDbBlockEnd
0
BLOCK
5
7A
330
79
100
AcDbEntity
8
0
100
AcDbBlockBegin
2
*D26
70
1
10
0
20
0
3
*D26
1

0
LINE
5
124
100
AcDbEntity
8
quotes
6
CONTINUOUS
62
7
370
0
100
AcDbLine
10
31
20
107.625
11
31
21
133.25
0
LINE
5
125
100
AcDbEntity
8
quotes
6
CONTINUOUS
62
7
370
0
100
AcDbLine
10
41
20
107.625
11
41
21
133.25
0
LINE
5
126
100
AcDbEntity
8
quotes
6
CONTINUOUS
62
7
370
0
100
AcDbLine
10
31
20
132
11
41
21
132
0
SOLID
5
127
100
AcDbEntity
8
quotes
6
CONTINUOUS
62
7
370
0
100
AcDbTrace
10
31
20
132
30
0
11
33.5
21
132.416284658
31
0
12
33.5
22
131.583715342
32
0
13
33.5
23
131.583715342
33
0
0
SOLID
5
128
100
AcDbEntity
8
quotes
6
CONTINUOUS
62
7
370
0
100
AcDbTrace
10
41
20
132
30
0
11
38.5
21
131.583715342
31
0
12
38.5
22
132.416284658
32
0
13
38.5
23
132.416284658
33
0
0
MTEXT
5
129
100
AcDbEntity
8
quotes
6
CONTINUOUS
62
7
370
0
100
AcDbMText
10
36
20
133.875
30
0
40
2.5
41
2.5
71
5
72
1
1
10
7
standard
210
0
220
0
230
1
50
0
73
2
44
1
0
ENDBLK
5
7B
330
79
100
AcDbEntity
8
0
100
AcDbBlockEnd
0
BLOCK
5
7D
330
7C
100
AcDbEntity
8
0
100
AcDbBlockBegin
2
*D28
70
1
10
0
20
0
3
*D28
1

0
LINE
5
12A
100
AcDbEntity
8
quotes
6
CONTINUOUS
62
7
370
0
100
AcDbLine
10
93.4
20
13.625
11
93.4
21
2.75
0
LINE
5
12B
100
AcDbEntity
8
quotes
6
CONTINUOUS
62
7
370
0
100
AcDbLine
10
96.7
20
13.625
11
96.7
21
2.75
0
LINE
5
12C
100
AcDbEntity
8
quotes
6
CONTINUOUS
62
7
370
0
100
AcDbLine
10
88.4
20
4
11
101.7
21
4
0
SOLID
5
12D
100
AcDbEntity
8
quotes
6
CONTINUOUS
62
7
370
0
100
AcDbTrace
10
93.4
20
4
30
0
11
90.9
21
3.58371534223
31
0
12
90.9
22
4.41628465777
32
0
13
90.9
23
4.41628465777
33
0
0
SOLID
5
12E
100
AcDbEntity
8
quotes
6
CONTINUOUS
62
7
370
0
100
AcDbTrace
10
96.7
20
4
30
0
11
99.2
21
4.41628465777
31
0
12
99.2
22
3.58371534223
32
0
13
99.2
23
3.58371534223
33
0
0
MTEXT
5
12F
100
AcDbEntity
8
quotes
6
CONTINUOUS
62
7
370
0
100
AcDbMText
10
99.2694444444
20
5.875
30
0
40
2.5
41
3.88888888889
71
5
72
1
1
3.3
7
standard
210
0
220
0
230
1
50
0
73
2
44
1
0
ENDBLK
5
7E
330
7C
100
AcDbEntity
8
0
100
AcDbBlockEnd
0
BLOCK
5
80
330
7F
100
AcDbEntity
8
0
100
AcDbBlockBegin
2
*D37
70
1
10
0
20
0
3
*D37
1

0
LINE
5
130
100
AcDbEntity
8
quotes
6
CONTINUOUS
62
7
370
0
100
AcDbLine
10
19.5
20
86.625
11
19.5
21
137.25
0
LINE
5
131
100
AcDbEntity
8
quotes
6
CONTINUOUS
62
7
370
0
100
AcDbLine
10
6
20
86.625
11
6
21
137.25
0
LINE
5
132
100
AcDbEntity
8
quotes
6
CONTINUOUS
62
7
370
0
100
AcDbLine
10
19.5
20
136
11
6
21
136
0
SOLID
5
133
100
AcDbEntity
8
quotes
6
CONTINUOUS
62
7
370
0
100
AcDbTrace
10
19.5
20
136
30
0
11
17
21
135.583715342
31
0
12
17
22
136.416284658
32
0
13
17
23
136.416284658
33
0
0
SOLID
5
134
100
AcDbEntity
8
quotes
6
CONTINUOUS
62
7
370
0
100
AcDbTrace
10
6
20
136
30
0
11
8.5
21
136.416284658
31
0
12
8.5
22
135.583715342
32
0
13
8.5
23
135.583715342
33
0
0
MTEXT
5
135
100
AcDbEntity
8
quotes
6
CONTINUOUS
62
7
370
0
100
AcDbMText
10
12.75
20
137.875
30
0
40
2.5
41
5.27777777778
71
5
72
1
1
13.5
7
standard
210
0
220
0
230
1
50
360
73
2
44
1
0
ENDBLK
5
81
330
7F
100
AcDbEntity
8
0
100
AcDbBlockEnd
0
BLOCK
5
83
330
82
100
AcDbEntity
8
0
100
AcDbBlockBegin
2
*D30
70
1
10
0
20
0
3
*D30
1

0
LINE
5
136
100
AcDbEntity
8
quotes
6
CONTINUOUS
62
7
370
0
100
AcDbLine
10
121.225
20
29
11
126.25
21
29
0
LINE
5
137
100
AcDbEntity
8
quotes
6
CONTINUOUS
62
7
370
0
100
AcDbLine
10
121.225
20
28.45
11
126.25
21
28.45
0
LINE
5
138
100
AcDbEntity
8
quotes
6
CONTINUOUS
62
7
370
0
100
AcDbLine
10
125
20
34
11
125
21
23.45
0
SOLID
5
139
100
AcDbEntity
8
quotes
6
CONTINUOUS
62
7
370
0
100
AcDbTrace
10
125
20
29
30
0
11
124.583715342
21
31.5
31
0
12
125.416284658
22
31.5
32
0
13
125.416284658
23
31.5
33
0
0
SOLID
5
13A
100
AcDbEntity
8
quotes
6
CONTINUOUS
62
7
370
0
100
AcDbTrace
10
125
20
28.45
30
0
11
125.416284658
21
25.95
31
0
12
124.583715342
22
25.95
32
0
13
124.583715342
23
25.95
33
0
0
MTEXT
5
13B
100
AcDbEntity
8
quotes
6
CONTINUOUS
62
7
370
0
100
AcDbMText
10
123.125
20
32.5416666667
30
0
40
2.5
41
5.83333333333
71
5
72
1
1
0.55
7
standard
210
0
220
0
230
1
50
90
73
2
44
1
0
ENDBLK
5
84
330
82
100
AcDbEntity
8
0
100
AcDbBlockEnd
0
BLOCK
5
86
330
85
100
AcDbEntity
8
0
100
AcDbBlockBegin
2
*D31
70
1
10
0
20
0
3
*D31
1

0
LINE
5
13C
100
AcDbEntity
8
quotes
6
CONTINUOUS
62
7
370
0
100
AcDbLine
10
36.625
20
104
11
42.25
21
104
0
LINE
5
13D
100
AcDbEntity
8
quotes
6
CONTINUOUS
62
7
370
0
100
AcDbLine
10
36.625
20
98
11
42.25
21
98
0
LINE
5
13E
100
AcDbEntity
8
quotes
6
CONTINUOUS
62
7
370
0
100
AcDbLine
10
41
20
109
11
41
21
93
0
SOLID
5
13F
100
AcDbEntity
8
quotes
6
CONTINUOUS
62
7
370
0
100
AcDbTrace
10
41
20
104
30
0
11
40.5837153422
21
106.5
31
0
12
41.4162846578
22
106.5
32
0
13
41.4162846578
23
106.5
33
0
0
SOLID
5
140
100
AcDbEntity
8
quotes
6
CONTINUOUS
62
7
370
0
100
AcDbTrace
10
41
20
98
30
0
11
41.4162846578
21
95.5
31
0
12
40.5837153422
22
95.5
32
0
13
40.5837153422
23
95.5
33
0
0
MTEXT
5
141
100
AcDbEntity
8
quotes
6
CONTINUOUS
62
7
370
0
100
AcDbMText
10
39.125
20
101
30
0
40
2.5
41
1.11111111111
71
5
72
1
1
6
7
standard
210
0
220
0
230
1
50
90
73
2
44
1
0
ENDBLK
5
87
330
85
100
AcDbEntity
8
0
100
AcDbBlockEnd
0
BLOCK
5
89
330
88
100
AcDbEntity
8
0
100
AcDbBlockBegin
2
*D41
70
1
10
0
20
0
3
*D41
1

0
LINE
5
142
100
AcDbEntity
8
quotes
6
CONTINUOUS
62
7
370
0
100
AcDbLine
10
15
20
105.625
11
15
21
151.25
0
LINE
5
143
100
AcDbEntity
8
quotes
6
CONTINUOUS
62
7
370
0
100
AcDbLine
10
285
20
105.625
11
285
21
151.25
0
LINE
5
144
100
AcDbEntity
8
quotes
6
CONTINUOUS
62
7
370
0
100
AcDbLine
10
15
20
150
11
285
21
150
0
SOLID
5
145
100
AcDbEntity
8
quotes
6
CONTINUOUS
62
7
370
0
100
AcDbTrace
10
15
20
150
30
0
11
17.5
21
150.416284658
31
0
12
17.5
22
149.583715342
32
0
13
17.5
23
149.583715342
33
0
0
SOLID
5
146
100
AcDbEntity
8
quotes
6
CONTINUOUS
62
7
370
0
100
AcDbTrace
10
285
20
150
30
0
11
282.5
21
149.583715342
31
0
12
282.5
22
150.416284658
32
0
13
282.5
23
150.416284658
33
0
0
MTEXT
5
147
100
AcDbEntity
8
quotes
6
CONTINUOUS
62
7
370
0
100
AcDbMText
10
150
20
151.875
30
0
40
2.5
41
5
71
5
72
1
1
270
7
standard
210
0
220
0
230
1
50
0
73
2
44
1
0
ENDBLK
5
8A
330
88
100
AcDbEntity
8
0
100
AcDbBlockEnd
0
BLOCK
5
8C
330
8B
100
AcDbEntity
8
0
100
AcDbBlockBegin
2
*D35
70
1
10
0
20
0
3
*D35
1

0
LINE
5
148
100
AcDbEntity
8
quotes
6
CONTINUOUS
62
7
370
0
100
AcDbLine
10
275.5
20
33.375
11
275.5
21
-8.25
0
LINE
5
149
100
AcDbEntity
8
quotes
6
CONTINUOUS
62
7
370
0
100
AcDbLine
10
294
20
33.375
11
294
21
-8.25
0
LINE
5
14A
100
AcDbEntity
8
quotes
6
CONTINUOUS
62
7
370
0
100
AcDbLine
10
275.5
20
-7
11
294
21
-7
0
SOLID
5
14B
100
AcDbEntity
8
quotes
6
CONTINUOUS
62
7
370
0
100
AcDbTrace
10
275.5
20
-7
30
0
11
278
21
-6.58371534223
31
0
12
278
22
-7.41628465777
32
0
13
278
23
-7.41628465777
33
0
0
SOLID
5
14C
100
AcDbEntity
8
quotes
6
CONTINUOUS
62
7
370
0
100
AcDbTrace
10
294
20
-7
30
0
11
291.5
21
-7.41628465777
31
0
12
291.5
22
-6.58371534223
32
0
13
291.5
23
-6.58371534223
33
0
0
MTEXT
5
14D
100
AcDbEntity
8
quotes
6
CONTINUOUS
62
7
370
0
100
AcDbMText
10
284.75
20
-5.125
30
0
40
2.5
41
5.27777777778
71
5
72
1
1
18.5
7
standard
210
0
220
0
230
1
50
0
73
2
44
1
0
ENDBLK
5
8D
330
8B
100
AcDbEntity
8
0
100
AcDbBlockEnd
0
BLOCK
5
8F
330
8E
100
AcDbEntity
8
0
100
AcDbBlockBegin
2
*D6
70
1
10
0
20
0
3
*D6
1

0
LINE
5
14E
100
AcDbEntity
8
quotes
6
CONTINUOUS
62
7
370
0
100
AcDbLine
10
285.625
20
91
11
311.25
21
91
0
LINE
5
14F
100
AcDbEntity
8
quotes
6
CONTINUOUS
62
7
370
0
100
AcDbLine
10
285.625
20
76.5
11
311.25
21
76.5
0
LINE
5
150
100
AcDbEntity
8
quotes
6
CONTINUOUS
62
7
370
0
100
AcDbLine
10
310
20
91
11
310
21
76.5
0
SOLID
5
151
100
AcDbEntity
8
quotes
6
CONTINUOUS
62
7
370
0
100
AcDbTrace
10
310
20
91
30
0
11
310.416284658
21
88.5
31
0
12
309.583715342
22
88.5
32
0
13
309.583715342
23
88.5
33
0
0
SOLID
5
152
100
AcDbEntity
8
quotes
6
CONTINUOUS
62
7
370
0
100
AcDbTrace
10
310
20
76.5
30
0
11
309.583715342
21
79
31
0
12
310.416284658
22
79
32
0
13
310.416284658
23
79
33
0
0
MTEXT
5
153
100
AcDbEntity
8
quotes
6
CONTINUOUS
62
7
370
0
100
AcDbMText
10
308.125
20
83.75
30
0
40
2.5
41
5.55555555556
71
5
72
1
1
14.5
7
standard
210
0
220
0
230
1
50
90
73
2
44
1
0
ENDBLK
5
90
330
8E
100
AcDbEntity
8
0
100
AcDbBlockEnd
0
BLOCK
5
92
330
91
100
AcDbEntity
8
0
100
AcDbBlockBegin
2
*D27
70
1
10
0
20
0
3
*D27
1

0
LINE
5
154
100
AcDbEntity
8
quotes
6
CONTINUOUS
62
7
370
0
100
AcDbLine
10
96.7
20
14.375
11
96.7
21
-1.25
0
LINE
5
155
100
AcDbEntity
8
quotes
6
CONTINUOUS
62
7
370
0
100
AcDbLine
10
100
20
14.375
11
100
21
-1.25
0
LINE
5
156
100
AcDbEntity
8
quotes
6
CONTINUOUS
62
7
370
0
100
AcDbLine
10
91.7
20
-1.16403343983e-15
11
105
21
-2.38868023897e-15
0
SOLID
5
157
100
AcDbEntity
8
quotes
6
CONTINUOUS
62
7
370
0
100
AcDbTrace
10
96.7
20
-1.7763568394e-15
30
0
11
94.2
21
-0.416284657773
31
0
12
94.2
22
0.416284657773
32
0
13
94.2
23
0.416284657773
33
0
0
SOLID
5
158
100
AcDbEntity
8
quotes
6
CONTINUOUS
62
7
370
0
100
AcDbTrace
10
100
20
-1.7763568394e-15
30
0
11
102.5
21
0.416284657773
31
0
12
102.5
22
-0.416284657773
32
0
13
102.5
23
-0.416284657773
33
0
0
MTEXT
5
159
100
AcDbEntity
8
quotes
6
CONTINUOUS
62
7
370
0
100
AcDbMText
10
102.569444444
20
1.875
30
0
40
2.5
41
3.88888888889
71
5
72
1
1
3.3
7
standard
210
0
220
0
230
1
50
0
73
2
44
1
0
ENDBLK
5
93
330
91
100
AcDbEntity
8
0
100
AcDbBlockEnd
0
BLOCK
5
95
330
94
100
AcDbEntity
8
0
100
AcDbBlockBegin
2
*D16
70
1
10
0
20
0
3
*D16
1

0
LINE
5
15A
100
AcDbEntity
8
quotes
6
CONTINUOUS
62
7
370
0
100
AcDbLine
10
87
20
12.375
11
87
21
-8.25
0
LINE
5
15B
100
AcDbEntity
8
quotes
6
CONTINUOUS
62
7
370
0
100
AcDbLine
10
88.5
20
12.375
11
88.5
21
-8.25
0
LINE
5
15C
100
AcDbEntity
8
quotes
6
CONTINUOUS
62
7
370
0
100
AcDbLine
10
82
20
-7
11
93.5
21
-7
0
SOLID
5
15D
100
AcDbEntity
8
quotes
6
CONTINUOUS
62
7
370
0
100
AcDbTrace
10
87
20
-7
30
0
11
84.5
21
-7.41628465777
31
0
12
84.5
22
-6.58371534223
32
0
13
84.5
23
-6.58371534223
33
0
0
SOLID
5
15E
100
AcDbEntity
8
quotes
6
CONTINUOUS
62
7
370
0
100
AcDbTrace
10
88.5
20
-7
30
0
11
91
21
-6.58371534223
31
0
12
91
22
-7.41628465777
32
0
13
91
23
-7.41628465777
33
0
0
MTEXT
5
15F
100
AcDbEntity
8
quotes
6
CONTINUOUS
62
7
370
0
100
AcDbMText
10
90.7916666667
20
-5.125
30
0
40
2.5
41
3.33333333333
71
5
72
1
1
1.5
7
standard
210
0
220
0
230
1
50
0
73
2
44
1
0
ENDBLK
5
96
330
94
100
AcDbEntity
8
0
100
AcDbBlockEnd
0
BLOCK
5
98
330
97
100
AcDbEntity
8
0
100
AcDbBlockBegin
2
*D4
70
1
10
0
20
0
3
*D4
1

0
LINE
5
160
100
AcDbEntity
8
quotes
6
CONTINUOUS
62
7
370
0
100
AcDbLine
10
29
20
105.625
11
29
21
127.25
0
LINE
5
161
100
AcDbEntity
8
quotes
6
CONTINUOUS
62
7
370
0
100
AcDbLine
10
43
20
105.625
11
43
21
127.25
0
LINE
5
162
100
AcDbEntity
8
quotes
6
CONTINUOUS
62
7
370
0
100
AcDbLine
10
29
20
126
11
43
21
126
0
SOLID
5
163
100
AcDbEntity
8
quotes
6
CONTINUOUS
62
7
370
0
100
AcDbTrace
10
29
20
126
30
0
11
31.5
21
126.416284658
31
0
12
31.5
22
125.583715342
32
0
13
31.5
23
125.583715342
33
0
0
SOLID
5
164
100
AcDbEntity
8
quotes
6
CONTINUOUS
62
7
370
0
100
AcDbTrace
10
43
20
126
30
0
11
40.5
21
125.583715342
31
0
12
40.5
22
126.416284658
32
0
13
40.5
23
126.416284658
33
0
0
MTEXT
5
165
100
AcDbEntity
8
quotes
6
CONTINUOUS
62
7
370
0
100
AcDbMText
10
36
20
127.875
30
0
40
2.5
41
2.77777777778
71
5
72
1
1
14
7
standard
210
0
220
0
230
1
50
0
73
2
44
1
0
ENDBLK
5
99
330
97
100
AcDbEntity
8
0
100
AcDbBlockEnd
0
BLOCK
5
9B
330
9A
100
AcDbEntity
8
0
100
AcDbBlockBegin
2
*D18
70
1
10
0
20
0
3
*D18
1

0
LINE
5
166
100
AcDbEntity
8
quotes
6
CONTINUOUS
62
7
370
0
100
AcDbLine
10
287.625
20
88
11
321.25
21
88
0
LINE
5
167
100
AcDbEntity
8
quotes
6
CONTINUOUS
62
7
370
0
100
AcDbLine
10
287.625
20
51
11
321.25
21
51
0
LINE
5
168
100
AcDbEntity
8
quotes
6
CONTINUOUS
62
7
370
0
100
AcDbLine
10
320
20
88
11
320
21
51
0
SOLID
5
169
100
AcDbEntity
8
quotes
6
CONTINUOUS
62
7
370
0
100
AcDbTrace
10
320
20
88
30
0
11
320.416284658
21
85.5
31
0
12
319.583715342
22
85.5
32
0
13
319.583715342
23
85.5
33
0
0
SOLID
5
16A
100
AcDbEntity
8
quotes
6
CONTINUOUS
62
7
370
0
100
AcDbTrace
10
320
20
51
30
0
11
319.583715342
21
53.5
31
0
12
320.416284658
22
53.5
32
0
13
320.416284658
23
53.5
33
0
0
MTEXT
5
16B
100
AcDbEntity
8
quotes
6
CONTINUOUS
62
7
370
0
100
AcDbMText
10
318.125
20
69.5
30
0
40
2.5
41
3.05555555556
71
5
72
1
1
37
7
standard
210
0
220
0
230
1
50
90
73
2
44
1
0
ENDBLK
5
9C
330
9A
100
AcDbEntity
8
0
100
AcDbBlockEnd
0
BLOCK
5
9E
330
9D
100
AcDbEntity
8
0
100
AcDbBlockBegin
2
*D39
70
1
10
0
20
0
3
*D39
1

0
LINE
5
16C
100
AcDbEntity
8
quotes
6
CONTINUOUS
62
7
370
0
100
AcDbLine
10
270.925
20
83.1
11
268.75
21
83.1
0
LINE
5
16D
100
AcDbEntity
8
quotes
6
CONTINUOUS
62
7
370
0
100
AcDbLine
10
270.925
20
91
11
268.75
21
91
0
LINE
5
16E
100
AcDbEntity
8
quotes
6
CONTINUOUS
62
7
370
0
100
AcDbLine
10
270
20
83.1
11
270
21
91
0
SOLID
5
16F
100
AcDbEntity
8
quotes
6
CONTINUOUS
62
7
370
0
100
AcDbTrace
10
270
20
83.1
30
0
11
269.583715342
21
85.6
31
0
12
270.416284658
22
85.6
32
0
13
270.416284658
23
85.6
33
0
0
SOLID
5
170
100
AcDbEntity
8
quotes
6
CONTINUOUS
62
7
370
0
100
AcDbTrace
10
270
20
91
30
0
11
270.416284658
21
88.5
31
0
12
269.583715342
22
88.5
32
0
13
269.583715342
23
88.5
33
0
0
MTEXT
5
171
100
AcDbEntity
8
quotes
6
CONTINUOUS
62
7
370
0
100
AcDbMText
10
268.125
20
87.05
30
0
40
2.5
41
3.88888888889
71
5
72
1
1
7.9
7
standard
210
0
220
0
230
1
50
90
73
2
44
1
0
ENDBLK
5
9F
330
9D
100
AcDbEntity
8
0
100
AcDbBlockEnd
0
BLOCK
5
A1
330
A0
100
AcDbEntity
8
0
100
AcDbBlockBegin
2
*D8
70
1
10
0
20
0
3
*D8
1

0
LINE
5
172
100
AcDbEntity
8
quotes
6
CONTINUOUS
62
7
370
0
100
AcDbLine
10
247
20
33.375
11
247
21
-8.25
0
LINE
5
173
100
AcDbEntity
8
quotes
6
CONTINUOUS
62
7
370
0
100
AcDbLine
10
261.5
20
33.375
11
261.5
21
-8.25
0
LINE
5
174
100
AcDbEntity
8
quotes
6
CONTINUOUS
62
7
370
0
100
AcDbLine
10
247
20
-7
11
261.5
21
-7
0
SOLID
5
175
100
AcDbEntity
8
quotes
6
CONTINUOUS
62
7
370
0
100
AcDbTrace
10
247
20
-7
30
0
11
249.5
21
-6.58371534223
31
0
12
249.5
22
-7.41628465777
32
0
13
249.5
23
-7.41628465777
33
0
0
SOLID
5
176
100
AcDbEntity
8
quotes
6
CONTINUOUS
62
7
370
0
100
AcDbTrace
10
261.5
20
-7
30
0
11
259
21
-7.41628465777
31
0
12
259
22
-6.58371534223
32
0
13
259
23
-6.58371534223
33
0
0
MTEXT
5
177
100
AcDbEntity
8
quotes
6
CONTINUOUS
62
7
370
0
100
AcDbMText
10
254.25
20
-5.125
30
0
40
2.5
41
5.55555555556
71
5
72
1
1
14.5
7
standard
210
0
220
0
230
1
50
0
73
2
44
1
0
ENDBLK
5
A2
330
A0
100
AcDbEntity
8
0
100
AcDbBlockEnd
0
BLOCK
5
A4
330
A3
100
AcDbEntity
8
0
100
AcDbBlockBegin
2
*D14
70
1
10
0
20
0
3
*D14
1

0
LINE
5
178
100
AcDbEntity
8
quotes
6
CONTINUOUS
62
7
370
0
100
AcDbLine
10
78
20
107.625
11
78
21
127.25
0
LINE
5
179
100
AcDbEntity
8
quotes
6
CONTINUOUS
62
7
370
0
100
AcDbLine
10
79
20
107.625
11
79
21
127.25
0
LINE
5
17A
100
AcDbEntity
8
quotes
6
CONTINUOUS
62
7
370
0
100
AcDbLine
10
73
20
126
11
84
21
126
0
SOLID
5
17B
100
AcDbEntity
8
quotes
6
CONTINUOUS
62
7
370
0
100
AcDbTrace
10
78
20
126
30
0
11
75.5
21
125.583715342
31
0
12
75.5
22
126.416284658
32
0
13
75.5
23
126.416284658
33
0
0
SOLID
5
17C
100
AcDbEntity
8
quotes
6
CONTINUOUS
62
7
370
0
100
AcDbTrace
10
79
20
126
30
0
11
81.5
21
126.416284658
31
0
12
81.5
22
125.583715342
32
0
13
81.5
23
125.583715342
33
0
0
MTEXT
5
17D
100
AcDbEntity
8
quotes
6
CONTINUOUS
62
7
370
0
100
AcDbMText
10
78.5
20
127.875
30
0
40
2.5
41
0.555555555556
71
5
72
1
1
1
7
standard
210
0
220
0
230
1
50
0
73
2
44
1
0
ENDBLK
5
A5
330
A3
100
AcDbEntity
8
0
100
AcDbBlockEnd
0
BLOCK
5
A7
330
A6
100
AcDbEntity
8
0
100
AcDbBlockBegin
2
*D12
70
1
10
0
20
0
3
*D12
1

0
LINE
5
17E
100
AcDbEntity
8
quotes
6
CONTINUOUS
62
7
370
0
100
AcDbLine
10
157
20
14.375
11
157
21
-8.25
0
LINE
5
17F
100
AcDbEntity
8
quotes
6
CONTINUOUS
62
7
370
0
100
AcDbLine
10
142
20
14.375
11
142
21
-8.25
0
LINE
5
180
100
AcDbEntity
8
quotes
6
CONTINUOUS
62
7
370
0
100
AcDbLine
10
157
20
-7
11
142
21
-7
0
SOLID
5
181
100
AcDbEntity
8
quotes
6
CONTINUOUS
62
7
370
0
100
AcDbTrace
10
157
20
-7
30
0
11
154.5
21
-7.41628465777
31
0
12
154.5
22
-6.58371534223
32
0
13
154.5
23
-6.58371534223
33
0
0
SOLID
5
182
100
AcDbEntity
8
quotes
6
CONTINUOUS
62
7
370
0
100
AcDbTrace
10
142
20
-7
30
0
11
144.5
21
-6.58371534223
31
0
12
144.5
22
-7.41628465777
32
0
13
144.5
23
-7.41628465777
33
0
0
MTEXT
5
183
100
AcDbEntity
8
quotes
6
CONTINUOUS
62
7
370
0
100
AcDbMText
10
149.5
20
-5.125
30
0
40
2.5
41
2.5
71
5
72
1
1
15
7
standard
210
0
220
0
230
1
50
360
73
2
44
1
0
ENDBLK
5
A8
330
A6
100
AcDbEntity
8
0
100
AcDbBlockEnd
0
BLOCK
5
AA
330
A9
100
AcDbEntity
8
0
100
AcDbBlockBegin
2
*D7
70
1
10
0
20
0
3
*D7
1

0
LINE
5
184
100
AcDbEntity
8
quotes
6
CONTINUOUS
62
7
370
0
100
AcDbLine
10
271.625
20
62.5
11
311.25
21
62.5
0
LINE
5
185
100
AcDbEntity
8
quotes
6
CONTINUOUS
62
7
370
0
100
AcDbLine
10
271.625
20
48
11
311.25
21
48
0
LINE
5
186
100
AcDbEntity
8
quotes
6
CONTINUOUS
62
7
370
0
100
AcDbLine
10
310
20
62.5
11
310
21
48
0
SOLID
5
187
100
AcDbEntity
8
quotes
6
CONTINUOUS
62
7
370
0
100
AcDbTrace
10
310
20
62.5
30
0
11
310.416284658
21
60
31
0
12
309.583715342
22
60
32
0
13
309.583715342
23
60
33
0
0
SOLID
5
188
100
AcDbEntity
8
quotes
6
CONTINUOUS
62
7
370
0
100
AcDbTrace
10
310
20
48
30
0
11
309.583715342
21
50.5
31
0
12
310.416284658
22
50.5
32
0
13
310.416284658
23
50.5
33
0
0
MTEXT
5
189
100
AcDbEntity
8
quotes
6
CONTINUOUS
62
7
370
0
100
AcDbMText
10
308.125
20
55.25
30
0
40
2.5
41
5.55555555556
71
5
72
1
1
14.5
7
standard
210
0
220
0
230
1
50
90
73
2
44
1
0
ENDBLK
5
AB
330
A9
100
AcDbEntity
8
0
100
AcDbBlockEnd
0
BLOCK
5
AD
330
AC
100
AcDbEntity
8
0
100
AcDbBlockBegin
2
*D25
70
1
10
0
20
0
3
*D25
1

0
LINE
5
18A
100
AcDbEntity
8
quotes
6
CONTINUOUS
62
7
370
0
100
AcDbLine
10
287.625
20
107
11
321.25
21
107
0
LINE
5
18B
100
AcDbEntity
8
quotes
6
CONTINUOUS
62
7
370
0
100
AcDbLine
10
287.625
20
89
11
321.25
21
89
0
LINE
5
18C
100
AcDbEntity
8
quotes
6
CONTINUOUS
62
7
370
0
100
AcDbLine
10
320
20
107
11
320
21
89
0
SOLID
5
18D
100
AcDbEntity
8
quotes
6
CONTINUOUS
62
7
370
0
100
AcDbTrace
10
320
20
107
30
0
11
320.416284658
21
104.5
31
0
12
319.583715342
22
104.5
32
0
13
319.583715342
23
104.5
33
0
0
SOLID
5
18E
100
AcDbEntity
8
quotes
6
CONTINUOUS
62
7
370
0
100
AcDbTrace
10
320
20
89
30
0
11
319.583715342
21
91.5
31
0
12
320.416284658
22
91.5
32
0
13
320.416284658
23
91.5
33
0
0
MTEXT
5
18F
100
AcDbEntity
8
quotes
6
CONTINUOUS
62
7
370
0
100
AcDbMText
10
318.125
20
98
30
0
40
2.5
41
2.5
71
5
72
1
1
18
7
standard
210
0
220
0
230
1
50
90
73
2
44
1
0
ENDBLK
5
AE
330
AC
100
AcDbEntity
8
0
100
AcDbBlockEnd
0
BLOCK
5
B0
330
AF
100
AcDbEntity
8
0
100
AcDbBlockBegin
2
*D36
70
1
10
0
20
0
3
*D36
1

0
LINE
5
190
100
AcDbEntity
8
quotes
6
CONTINUOUS
62
7
370
0
100
AcDbLine
10
6
20
114.625
11
6
21
121.25
0
LINE
5
191
100
AcDbEntity
8
quotes
6
CONTINUOUS
62
7
370
0
100
AcDbLine
10
294
20
114.625
11
294
21
121.25
0
LINE
5
192
100
AcDbEntity
8
quotes
6
CONTINUOUS
62
7
370
0
100
AcDbLine
10
6
20
120
11
294
21
120
0
SOLID
5
193
100
AcDbEntity
8
quotes
6
CONTINUOUS
62
7
370
0
100
AcDbTrace
10
6
20
120
30
0
11
8.5
21
120.416284658
31
0
12
8.5
22
119.583715342
32
0
13
8.5
23
119.583715342
33
0
0
SOLID
5
194
100
AcDbEntity
8
quotes
6
CONTINUOUS
62
7
370
0
100
AcDbTrace
10
294
20
120
30
0
11
291.5
21
119.583715342
31
0
12
291.5
22
120.416284658
32
0
13
291.5
23
120.416284658
33
0
0
MTEXT
5
195
100
AcDbEntity
8
quotes
6
CONTINUOUS
62
7
370
0
100
AcDbMText
10
150
20
121.875
30
0
40
2.5
41
5
71
5
72
1
1
288
7
standard
210
0
220
0
230
1
50
0
73
2
44
1
0
ENDBLK
5
B1
330
AF
100
AcDbEntity
8
0
100
AcDbBlockEnd
0
BLOCK
5
B3
330
B2
100
AcDbEntity
8
0
100
AcDbBlockBegin
2
*D3
70
1
10
0
20
0
3
*D3
1

0
LINE
5
196
100
AcDbEntity
8
quotes
6
CONTINUOUS
62
7
370
0
100
AcDbLine
10
14.375
20
105
11
-6.25
21
105
0
LINE
5
197
100
AcDbEntity
8
quotes
6
CONTINUOUS
62
7
370
0
100
AcDbLine
10
14.375
20
91
11
-6.25
21
91
0
LINE
5
198
100
AcDbEntity
8
quotes
6
CONTINUOUS
62
7
370
0
100
AcDbLine
10
-5
20
105
11
-5
21
91
0
SOLID
5
199
100
AcDbEntity
8
quotes
6
CONTINUOUS
62
7
370
0
100
AcDbTrace
10
-5
20
105
30
0
11
-4.58371534223
21
102.5
31
0
12
-5.41628465777
22
102.5
32
0
13
-5.41628465777
23
102.5
33
0
0
SOLID
5
19A
100
AcDbEntity
8
quotes
6
CONTINUOUS
62
7
370
0
100
AcDbTrace
10
-5
20
91
30
0
11
-5.41628465777
21
93.5
31
0
12
-4.58371534223
22
93.5
32
0
13
-4.58371534223
23
93.5
33
0
0
MTEXT
5
19B
100
AcDbEntity
8
quotes
6
CONTINUOUS
62
7
370
0
100
AcDbMText
10
-6.875
20
98
30
0
40
2.5
41
2.77777777778
71
5
72
1
1
14
7
standard
210
0
220
0
230
1
50
90
73
2
44
1
0
ENDBLK
5
B4
330
B2
100
AcDbEntity
8
0
100
AcDbBlockEnd
0
BLOCK
5
B6
330
B5
100
AcDbEntity
8
0
100
AcDbBlockBegin
2
*D42
70
1
10
0
20
0
3
*D42
1

0
SOLID
5
19C
100
AcDbEntity
8
quotes
6
CONTINUOUS
62
7
370
0
100
AcDbTrace
10
11.1313708499
20
11.1313708499
30
0
11
12.6047800984
21
13.1934955073
31
0
12
13.1934955073
22
12.6047800984
32
0
13
13.1934955073
23
12.6047800984
33
0
0
LINE
5
19D
100
AcDbEntity
8
quotes
6
CONTINUOUS
62
7
370
0
100
AcDbLine
10
10
20
10
11
17.0239273598
21
17.0239273598
0
MTEXT
5
19E
100
AcDbEntity
8
quotes
6
CONTINUOUS
62
7
370
0
100
AcDbMText
10
12.7518238901
20
15.4034743196
30
0
40
2.5
41
3.33333333333
71
5
72
1
1
1.6
7
standard
210
0
220
0
230
1
50
45
73
2
44
1
0
ENDBLK
5
B7
330
B5
100
AcDbEntity
8
0
100
AcDbBlockEnd
0
BLOCK
5
B9
330
B8
100
AcDbEntity
8
0
100
AcDbBlockBegin
2
*D11
70
1
10
0
20
0
3
*D11
1

0
LINE
5
19F
100
AcDbEntity
8
quotes
6
CONTINUOUS
62
7
370
0
100
AcDbLine
10
171
20
14.375
11
171
21
-8.25
0
LINE
5
1A0
100
AcDbEntity
8
quotes
6
CONTINUOUS
62
7
370
0
100
AcDbLine
10
188.25
20
14.375
11
188.25
21
-8.25
0
LINE
5
1A1
100
AcDbEntity
8
quotes
6
CONTINUOUS
62
7
370
0
100
AcDbLine
10
171
20
-7
11
188.25
21
-7
0
SOLID
5
1A2
100
AcDbEntity
8
quotes
6
CONTINUOUS
62
7
370
0
100
AcDbTrace
10
171
20
-7
30
0
11
173.5
21
-6.58371534223
31
0
12
173.5
22
-7.41628465777
32
0
13
173.5
23
-7.41628465777
33
0
0
SOLID
5
1A3
100
AcDbEntity
8
quotes
6
CONTINUOUS
62
7
370
0
100
AcDbTrace
10
188.25
20
-7
30
0
11
185.75
21
-7.41628465777
31
0
12
185.75
22
-6.58371534223
32
0
13
185.75
23
-6.58371534223
33
0
0
MTEXT
5
1A4
100
AcDbEntity
8
quotes
6
CONTINUOUS
62
7
370
0
100
AcDbMText
10
179.625
20
-5.125
30
0
40
2.5
41
7.22222222222
71
5
72
1
1
17.25
7
standard
210
0
220
0
230
1
50
0
73
2
44
1
0
ENDBLK
5
BA
330
B8
100
AcDbEntity
8
0
100
AcDbBlockEnd
0
BLOCK
5
BC
330
BB
100
AcDbEntity
8
0
100
AcDbBlockBegin
2
*D1
70
1
10
0
20
0
3
*D1
1

0
LINE
5
1A5
100
AcDbEntity
8
quotes
6
CONTINUOUS
62
7
370
0
100
AcDbLine
10
57
20
105.625
11
57
21
127.25
0
LINE
5
1A6
100
AcDbEntity
8
quotes
6
CONTINUOUS
62
7
370
0
100
AcDbLine
10
62
20
105.625
11
62
21
127.25
0
LINE
5
1A7
100
AcDbEntity
8
quotes
6
CONTINUOUS
62
7
370
0
100
AcDbLine
10
52
20
126
11
67
21
126
0
SOLID
5
1A8
100
AcDbEntity
8
quotes
6
CONTINUOUS
62
7
370
0
100
AcDbTrace
10
57
20
126
30
0
11
54.5
21
125.583715342
31
0
12
54.5
22
126.416284658
32
0
13
54.5
23
126.416284658
33
0
0
SOLID
5
1A9
100
AcDbEntity
8
quotes
6
CONTINUOUS
62
7
370
0
100
AcDbTrace
10
62
20
126
30
0
11
64.5
21
126.416284658
31
0
12
64.5
22
125.583715342
32
0
13
64.5
23
125.583715342
33
0
0
MTEXT
5
1AA
100
AcDbEntity
8
quotes
6
CONTINUOUS
62
7
370
0
100
AcDbMText
10
59.5
20
127.875
30
0
40
2.5
41
1.11111111111
71
5
72
1
1
5
7
standard
210
0
220
0
230
1
50
0
73
2
44
1
0
ENDBLK
5
BD
330
BB
100
AcDbEntity
8
0
100
AcDbBlockEnd
0
BLOCK
5
BF
330
BE
100
AcDbEntity
8
0
100
AcDbBlockBegin
2
*D2
70
1
10
0
20
0
3
*D2
1

0
LINE
5
1AB
100
AcDbEntity
8
quotes
6
CONTINUOUS
62
7
370
0
100
AcDbLine
10
14.375
20
91
11
-12.25
21
91
0
LINE
5
1AC
100
AcDbEntity
8
quotes
6
CONTINUOUS
62
7
370
0
100
AcDbLine
10
14.375
20
86
11
-12.25
21
86
0
LINE
5
1AD
100
AcDbEntity
8
quotes
6
CONTINUOUS
62
7
370
0
100
AcDbLine
10
-11
20
96
11
-11
21
81
0
SOLID
5
1AE
100
AcDbEntity
8
quotes
6
CONTINUOUS
62
7
370
0
100
AcDbTrace
10
-11
20
91
30
0
11
-11.4162846578
21
93.5
31
0
12
-10.5837153422
22
93.5
32
0
13
-10.5837153422
23
93.5
33
0
0
SOLID
5
1AF
100
AcDbEntity
8
quotes
6
CONTINUOUS
62
7
370
0
100
AcDbTrace
10
-11
20
86
30
0
11
-10.5837153422
21
83.5
31
0
12
-11.4162846578
22
83.5
32
0
13
-11.4162846578
23
83.5
33
0
0
MTEXT
5
1B0
100
AcDbEntity
8
quotes
6
CONTINUOUS
62
7
370
0
100
AcDbMText
10
-12.875
20
88.5
30
0
40
2.5
41
1.11111111111
71
5
72
1
1
5
7
standard
210
0
220
0
230
1
50
90
73
2
44
1
0
ENDBLK
5
C0
330
BE
100
AcDbEntity
8
0
100
AcDbBlockEnd
0
BLOCK
5
C2
330
C1
100
AcDbEntity
8
0
100
AcDbBlockBegin
2
*D22
70
1
10
0
20
0
3
*D22
1

0
LINE
5
1B1
100
AcDbEntity
8
quotes
6
CONTINUOUS
62
7
370
0
100
AcDbLine
10
145.5
20
12.375
11
145.5
21
-1.25
0
LINE
5
1B2
100
AcDbEntity
8
quotes
6
CONTINUOUS
62
7
370
0
100
AcDbLine
10
182.5
20
12.375
11
182.5
21
-1.25
0
LINE
5
1B3
100
AcDbEntity
8
quotes
6
CONTINUOUS
62
7
370
0
100
AcDbLine
10
145.5
20
0
11
182.5
21
0
0
SOLID
5
1B4
100
AcDbEntity
8
quotes
6
CONTINUOUS
62
7
370
0
100
AcDbTrace
10
145.5
20
0
30
0
11
148
21
0.416284657773
31
0
12
148
22
-0.416284657773
32
0
13
148
23
-0.416284657773
33
0
0
SOLID
5
1B5
100
AcDbEntity
8
quotes
6
CONTINUOUS
62
7
370
0
100
AcDbTrace
10
182.5
20
0
30
0
11
180
21
-0.416284657773
31
0
12
180
22
0.416284657773
32
0
13
180
23
0.416284657773
33
0
0
MTEXT
5
1B6
100
AcDbEntity
8
quotes
6
CONTINUOUS
62
7
370
0
100
AcDbMText
10
164
20
1.875
30
0
40
2.5
41
3.05555555556
71
5
72
1
1
37
7
standard
210
0
220
0
230
1
50
0
73
2
44
1
0
ENDBLK
5
C3
330
C1
100
AcDbEntity
8
0
100
AcDbBlockEnd
0
BLOCK
5
C5
330
C4
100
AcDbEntity
8
0
100
AcDbBlockBegin
2
*D10
70
1
10
0
20
0
3
*D10
1

0
LINE
5
1B7
100
AcDbEntity
8
quotes
6
CONTINUOUS
62
7
370
0
100
AcDbLine
10
202.25
20
14.375
11
202.25
21
-8.25
0
LINE
5
1B8
100
AcDbEntity
8
quotes
6
CONTINUOUS
62
7
370
0
100
AcDbLine
10
211.75
20
14.375
11
211.75
21
-8.25
0
LINE
5
1B9
100
AcDbEntity
8
quotes
6
CONTINUOUS
62
7
370
0
100
AcDbLine
10
202.25
20
-7
11
211.75
21
-7
0
SOLID
5
1BA
100
AcDbEntity
8
quotes
6
CONTINUOUS
62
7
370
0
100
AcDbTrace
10
202.25
20
-7
30
0
11
204.75
21
-6.58371534223
31
0
12
204.75
22
-7.41628465777
32
0
13
204.75
23
-7.41628465777
33
0
0
SOLID
5
1BB
100
AcDbEntity
8
quotes
6
CONTINUOUS
62
7
370
0
100
AcDbTrace
10
211.75
20
-7
30
0
11
209.25
21
-7.41628465777
31
0
12
209.25
22
-6.58371534223
32
0
13
209.25
23
-6.58371534223
33
0
0
MTEXT
5
1BC
100
AcDbEntity
8
quotes
6
CONTINUOUS
62
7
370
0
100
AcDbMText
10
207
20
-5.125
30
0
40
2.5
41
3.88888888889
71
5
72
1
1
9.5
7
standard
210
0
220
0
230
1
50
0
73
2
44
1
0
ENDBLK
5
C6
330
C4
100
AcDbEntity
8
0
100
AcDbBlockEnd
0
BLOCK
5
C8
330
C7
100
AcDbEntity
8
0
100
AcDbBlockBegin
2
*D23
70
1
10
0
20
0
3
*D23
1

0
LINE
5
1BD
100
AcDbEntity
8
quotes
6
CONTINUOUS
62
7
370
0
100
AcDbLine
10
13
20
12.375
11
13
21
-1.25
0
LINE
5
1BE
100
AcDbEntity
8
quotes
6
CONTINUOUS
62
7
370
0
100
AcDbLine
10
40
20
12.375
11
40
21
-1.25
0
LINE
5
1BF
100
AcDbEntity
8
quotes
6
CONTINUOUS
62
7
370
0
100
AcDbLine
10
13
20
0
11
40
21
0
0
SOLID
5
1C0
100
AcDbEntity
8
quotes
6
CONTINUOUS
62
7
370
0
100
AcDbTrace
10
13
20
0
30
0
11
15.5
21
0.416284657773
31
0
12
15.5
22
-0.416284657773
32
0
13
15.5
23
-0.416284657773
33
0
0
SOLID
5
1C1
100
AcDbEntity
8
quotes
6
CONTINUOUS
62
7
370
0
100
AcDbTrace
10
40
20
0
30
0
11
37.5
21
-0.416284657773
31
0
12
37.5
22
0.416284657773
32
0
13
37.5
23
0.416284657773
33
0
0
MTEXT
5
1C2
100
AcDbEntity
8
quotes
6
CONTINUOUS
62
7
370
0
100
AcDbMText
10
26.5
20
1.875
30
0
40
2.5
41
3.05555555556
71
5
72
1
1
27
7
standard
210
0
220
0
230
1
50
0
73
2
44
1
0
ENDBLK
5
C9
330
C7
100
AcDbEntity
8
0
100
AcDbBlockEnd
0
BLOCK
5
CB
330
CA
100
AcDbEntity
8
0
100
AcDbBlockBegin
2
*D9
70
1
10
0
20
0
3
*D9
1

0
LINE
5
1C3
100
AcDbEntity
8
quotes
6
CONTINUOUS
62
7
370
0
100
AcDbLine
10
225.75
20
14.375
11
225.75
21
-8.25
0
LINE
5
1C4
100
AcDbEntity
8
quotes
6
CONTINUOUS
62
7
370
0
100
AcDbLine
10
233
20
14.375
11
233
21
-8.25
0
LINE
5
1C5
100
AcDbEntity
8
quotes
6
CONTINUOUS
62
7
370
0
100
AcDbLine
10
225.75
20
-7
11
233
21
-7
0
SOLID
5
1C6
100
AcDbEntity
8
quotes
6
CONTINUOUS
62
7
370
0
100
AcDbTrace
10
225.75
20
-7
30
0
11
228.25
21
-6.58371534223
31
0
12
228.25
22
-7.41628465777
32
0
13
228.25
23
-7.41628465777
33
0
0
SOLID
5
1C7
100
AcDbEntity
8
quotes
6
CONTINUOUS
62
7
370
0
100
AcDbTrace
10
233
20
-7
30
0
11
230.5
21
-7.41628465777
31
0
12
230.5
22
-6.58371534223
32
0
13
230.5
23
-6.58371534223
33
0
0
MTEXT
5
1C8
100
AcDbEntity
8
quotes
6
CONTINUOUS
62
7
370
0
100
AcDbMText
10
229.375
20
-5.125
30
0
40
2.5
41
5.83333333333
71
5
72
1
1
7.25
7
standard
210
0
220
0
230
1
50
0
73
2
44
1
0
ENDBLK
5
CC
330
CA
100
AcDbEntity
8
0
100
AcDbBlockEnd
0
ENDSEC
0
SECTION
2
ENTITIES
0
LINE
5
1C9
100
AcDbEntity
8
cutout
6
ByLayer
62
256
370
-1
100
AcDbLine
10
271
20
91
11
285
21
91
0
LINE
5
1CA
100
AcDbEntity
8
cutout
6
ByLayer
62
256
370
-1
100
AcDbLine
10
285
20
91
11
285
21
105
0
LINE
5
1CB
100
AcDbEntity
8
cutout
6
ByLayer
62
256
370
-1
100
AcDbLine
10
285
20
105
11
271
21
105
0
LINE
5
1CC
100
AcDbEntity
8
cutout
6
ByLayer
62
256
370
-1
100
AcDbLine
10
271
20
105
11
271
21
91
0
LINE
5
1CD
100
AcDbEntity
8
cutout
6
ByLayer
62
256
370
-1
100
AcDbLine
10
19.5
20
72
11
33.5
21
72
0
LINE
5
1CE
100
AcDbEntity
8
cutout
6
ByLayer
62
256
370
-1
100
AcDbLine
10
33.5
20
72
11
33.5
21
86
0
LINE
5
1CF
100
AcDbEntity
8
cutout
6
ByLayer
62
256
370
-1
100
AcDbLine
10
33.5
20
86
11
19.5
21
86
0
LINE
5
1D0
100
AcDbEntity
8
cutout
6
ByLayer
62
256
370
-1
100
AcDbLine
10
19.5
20
86
11
19.5
21
72
0
LINE
5
1D1
100
AcDbEntity
8
cutout
6
ByLayer
62
256
370
-1
100
AcDbLine
10
19.5
20
53
11
33.5
21
53
0
LINE
5
1D2
100
AcDbEntity
8
cutout
6
ByLayer
62
256
370
-1
100
AcDbLine
10
33.5
20
53
11
33.5
21
67
0
LINE
5
1D3
100
AcDbEntity
8
cutout
6
ByLayer
62
256
370
-1
100
AcDbLine
10
33.5
20
67
11
19.5
21
67
0
LINE
5
1D4
100
AcDbEntity
8
cutout
6
ByLayer
62
256
370
-1
100
AcDbLine
10
19.5
20
67
11
19.5
21
53
0
LINE
5
1D5
100
AcDbEntity
8
cutout
6
ByLayer
62
256
370
-1
100
AcDbLine
10
19.5
20
34
11
33.5
21
34
0
LINE
5
1D6
100
AcDbEntity
8
cutout
6
ByLayer
62
256
370
-1
100
AcDbLine
10
33.5
20
34
11
33.5
21
48
0
LINE
5
1D7
100
AcDbEntity
8
cutout
6
ByLayer
62
256
370
-1
100
AcDbLine
10
33.5
20
48
11
19.5
21
48
0
LINE
5
1D8
100
AcDbEntity
8
cutout
6
ByLayer
62
256
370
-1
100
AcDbLine
10
19.5
20
48
11
19.5
21
34
0
LINE
5
1D9
100
AcDbEntity
8
cutout
6
ByLayer
62
256
370
-1
100
AcDbLine
10
19.5
20
15
11
33.5
21
15
0
LINE
5
1DA
100
AcDbEntity
8
cutout
6
ByLayer
62
256
370
-1
100
AcDbLine
10
33.5
20
15
11
33.5
21
29
0
LINE
5
1DB
100
AcDbEntity
8
cutout
6
ByLayer
62
256
370
-1
100
AcDbLine
10
33.5
20
29
11
19.5
21
29
0
LINE
5
1DC
100
AcDbEntity
8
cutout
6
ByLayer
62
256
370
-1
100
AcDbLine
10
19.5
20
29
11
19.5
21
15
0
LINE
5
1DD
100
AcDbEntity
8
cutout
6
ByLayer
62
256
370
-1
100
AcDbLine
10
43
20
72
11
57
21
72
0
LINE
5
1DE
100
AcDbEntity
8
cutout
6
ByLayer
62
256
370
-1
100
AcDbLine
10
57
20
72
11
57
21
86
0
LINE
5
1DF
100
AcDbEntity
8
cutout
6
ByLayer
62
256
370
-1
100
AcDbLine
10
57
20
86
11
43
21
86
0
LINE
5
1E0
100
AcDbEntity
8
cutout
6
ByLayer
62
256
370
-1
100
AcDbLine
10
43
20
86
11
43
21
72
0
LINE
5
1E1
100
AcDbEntity
8
cutout
6
ByLayer
62
256
370
-1
100
AcDbLine
10
62
20
72
11
76
21
72
0
LINE
5
1E2
100
AcDbEntity
8
cutout
6
ByLayer
62
256
370
-1
100
AcDbLine
10
76
20
72
11
76
21
86
0
LINE
5
1E3
100
AcDbEntity
8
cutout
6
ByLayer
62
256
370
-1
100
AcDbLine
10
76
20
86
11
62
21
86
0
LINE
5
1E4
100
AcDbEntity
8
cutout
6
ByLayer
62
256
370
-1
100
AcDbLine
10
62
20
86
11
62
21
72
0
LINE
5
1E5
100
AcDbEntity
8
cutout
6
ByLayer
62
256
370
-1
100
AcDbLine
10
81
20
72
11
95
21
72
0
LINE
5
1E6
100
AcDbEntity
8
cutout
6
ByLayer
62
256
370
-1
100
AcDbLine
10
95
20
72
11
95
21
86
0
LINE
5
1E7
100
AcDbEntity
8
cutout
6
ByLayer
62
256
370
-1
100
AcDbLine
10
95
20
86
11
81
21
86
0
LINE
5
1E8
100
AcDbEntity
8
cutout
6
ByLayer
62
256
370
-1
100
AcDbLine
10
81
20
86
11
81
21
72
0
LINE
5
1E9
100
AcDbEntity
8
cutout
6
ByLayer
62
256
370
-1
100
AcDbLine
10
100
20
72
11
114
21
72
0
LINE
5
1EA
100
AcDbEntity
8
cutout
6
ByLayer
62
256
370
-1
100
AcDbLine
10
114
20
72
11
114
21
86
0
LINE
5
1EB
100
AcDbEntity
8
cutout
6
ByLayer
62
256
370
-1
100
AcDbLine
10
114
20
86
11
100
21
86
0
LINE
5
1EC
100
AcDbEntity
8
cutout
6
ByLayer
62
256
370
-1
100
AcDbLine
10
100
20
86
11
100
21
72
0
LINE
5
1ED
100
AcDbEntity
8
cutout
6
ByLayer
62
256
370
-1
100
AcDbLine
10
119
20
72
11
133
21
72
0
LINE
5
1EE
100
AcDbEntity
8
cutout
6
ByLayer
62
256
370
-1
100
AcDbLine
10
133
20
72
11
133
21
86
0
LINE
5
1EF
100
AcDbEntity
8
cutout
6
ByLayer
62
256
370
-1
100
AcDbLine
10
133
20
86
11
119
21
86
0
LINE
5
1F0
100
AcDbEntity
8
cutout
6
ByLayer
62
256
370
-1
100
AcDbLine
10
119
20
86
11
119
21
72
0
LINE
5
1F1
100
AcDbEntity
8
cutout
6
ByLayer
62
256
370
-1
100
AcDbLine
10
138
20
72
11
152
21
72
0
LINE
5
1F2
100
AcDbEntity
8
cutout
6
ByLayer
62
256
370
-1
100
AcDbLine
10
152
20
72
11
152
21
86
0
LINE
5
1F3
100
AcDbEntity
8
cutout
6
ByLayer
62
256
370
-1
100
AcDbLine
10
152
20
86
11
138
21
86
0
LINE
5
1F4
100
AcDbEntity
8
cutout
6
ByLayer
62
256
370
-1
100
AcDbLine
10
138
20
86
11
138
21
72
0
LINE
5
1F5
100
AcDbEntity
8
cutout
6
ByLayer
62
256
370
-1
100
AcDbLine
10
157
20
72
11
171
21
72
0
LINE
5
1F6
100
AcDbEntity
8
cutout
6
ByLayer
62
256
370
-1
100
AcDbLine
10
171
20
72
11
171
21
86
0
LINE
5
1F7
100
AcDbEntity
8
cutout
6
ByLayer
62
256
370
-1
100
AcDbLine
10
171
20
86
11
157
21
86
0
LINE
5
1F8
100
AcDbEntity
8
cutout
6
ByLayer
62
256
370
-1
100
AcDbLine
10
157
20
86
11
157
21
72
0
LINE
5
1F9
100
AcDbEntity
8
cutout
6
ByLayer
62
256
370
-1
100
AcDbLine
10
176
20
72
11
190
21
72
0
LINE
5
1FA
100
AcDbEntity
8
cutout
6
ByLayer
62
256
370
-1
100
AcDbLine
10
190
20
72
11
190
21
86
0
LINE
5
1FB
100
AcDbEntity
8
cutout
6
ByLayer
62
256
370
-1
100
AcDbLine
10
190
20
86
11
176
21
86
0
LINE
5
1FC
100
AcDbEntity
8
cutout
6
ByLayer
62
256
370
-1
100
AcDbLine
10
176
20
86
11
176
21
72
0
LINE
5
1FD
100
AcDbEntity
8
cutout
6
ByLayer
62
256
370
-1
100
AcDbLine
10
195
20
72
11
209
21
72
0
LINE
5
1FE
100
AcDbEntity
8
cutout
6
ByLayer
62
256
370
-1
100
AcDbLine
10
209
20
72
11
209
21
86
0
LINE
5
1FF
100
AcDbEntity
8
cutout
6
ByLayer
62
256
370
-1
100
AcDbLine
10
209
20
86
11
195
21
86
0
LINE
5
200
100
AcDbEntity
8
cutout
6
ByLayer
62
256
370
-1
100
AcDbLine
10
195
20
86
11
195
21
72
0
LINE
5
201
100
AcDbEntity
8
cutout
6
ByLayer
62
256
370
-1
100
AcDbLine
10
214
20
72
11
228
21
72
0
LINE
5
202
100
AcDbEntity
8
cutout
6
ByLayer
62
256
370
-1
100
AcDbLine
10
228
20
72
11
228
21
86
0
LINE
5
203
100
AcDbEntity
8
cutout
6
ByLayer
62
256
370
-1
100
AcDbLine
10
228
20
86
11
214
21
86
0
LINE
5
204
100
AcDbEntity
8
cutout
6
ByLayer
62
256
370
-1
100
AcDbLine
10
214
20
86
11
214
21
72
0
LINE
5
205
100
AcDbEntity
8
cutout
6
ByLayer
62
256
370
-1
100
AcDbLine
10
43
20
53
11
57
21
53
0
LINE
5
206
100
AcDbEntity
8
cutout
6
ByLayer
62
256
370
-1
100
AcDbLine
10
57
20
53
11
57
21
67
0
LINE
5
207
100
AcDbEntity
8
cutout
6
ByLayer
62
256
370
-1
100
AcDbLine
10
57
20
67
11
43
21
67
0
LINE
5
208
100
AcDbEntity
8
cutout
6
ByLayer
62
256
370
-1
100
AcDbLine
10
43
20
67
11
43
21
53
0
LINE
5
209
100
AcDbEntity
8
cutout
6
ByLayer
62
256
370
-1
100
AcDbLine
10
62
20
53
11
76
21
53
0
LINE
5
20A
100
AcDbEntity
8
cutout
6
ByLayer
62
256
370
-1
100
AcDbLine
10
76
20
53
11
76
21
67
0
LINE
5
20B
100
AcDbEntity
8
cutout
6
ByLayer
62
256
370
-1
100
AcDbLine
10
76
20
67
11
62
21
67
0
LINE
5
20C
100
AcDbEntity
8
cutout
6
ByLayer
62
256
370
-1
100
AcDbLine
10
62
20
67
11
62
21
53
0
LINE
5
20D
100
AcDbEntity
8
cutout
6
ByLayer
62
256
370
-1
100
AcDbLine
10
81
20
53
11
95
21
53
0
LINE
5
20E
100
AcDbEntity
8
cutout
6
ByLayer
62
256
370
-1
100
AcDbLine
10
95
20
53
11
95
21
67
0
LINE
5
20F
100
AcDbEntity
8
cutout
6
ByLayer
62
256
370
-1
100
AcDbLine
10
95
20
67
11
81
21
67
0
LINE
5
210
100
AcDbEntity
8
cutout
6
ByLayer
62
256
370
-1
100
AcDbLine
10
81
20
67
11
81
21
53
0
LINE
5
211
100
AcDbEntity
8
cutout
6
ByLayer
62
256
370
-1
100
AcDbLine
10
119
20
53
11
133
21
53
0
LINE
5
212
100
AcDbEntity
8
cutout
6
ByLayer
62
256
370
-1
100
AcDbLine
10
133
20
53
11
133
21
67
0
LINE
5
213
100
AcDbEntity
8
cutout
6
ByLayer
62
256
370
-1
100
AcDbLine
10
133
20
67
11
119
21
67
0
LINE
5
214
100
AcDbEntity
8
cutout
6
ByLayer
62
256
370
-1
100
AcDbLine
10
119
20
67
11
119
21
53
0
LINE
5
215
100
AcDbEntity
8
cutout
6
ByLayer
62
256
370
-1
100
AcDbLine
10
138
20
53
11
152
21
53
0
LINE
5
216
100
AcDbEntity
8
cutout
6
ByLayer
62
256
370
-1
100
AcDbLine
10
152
20
53
11
152
21
67
0
LINE
5
217
100
AcDbEntity
8
cutout
6
ByLayer
62
256
370
-1
100
AcDbLine
10
152
20
67
11
138
21
67
0
LINE
5
218
100
AcDbEntity
8
cutout
6
ByLayer
62
256
370
-1
100
AcDbLine
10
138
20
67
11
138
21
53
0
LINE
5
219
100
AcDbEntity
8
cutout
6
ByLayer
62
256
370
-1
100
AcDbLine
10
176
20
53
11
190
21
53
0
LINE
5
21A
100
AcDbEntity
8
cutout
6
ByLayer
62
256
370
-1
100
AcDbLine
10
190
20
53
11
190
21
67
0
LINE
5
21B
100
AcDbEntity
8
cutout
6
ByLayer
62
256
370
-1
100
AcDbLine
10
190
20
67
11
176
21
67
0
LINE
5
21C
100
AcDbEntity
8
cutout
6
ByLayer
62
256
370
-1
100
AcDbLine
10
176
20
67
11
176
21
53
0
LINE
5
21D
100
AcDbEntity
8
cutout
6
ByLayer
62
256
370
-1
100
AcDbLine
10
195
20
53
11
209
21
53
0
LINE
5
21E
100
AcDbEntity
8
cutout
6
ByLayer
62
256
370
-1
100
AcDbLine
10
209
20
53
11
209
21
67
0
LINE
5
21F
100
AcDbEntity
8
cutout
6
ByLayer
62
256
370
-1
100
AcDbLine
10
209
20
67
11
195
21
67
0
LINE
5
220
100
AcDbEntity
8
cutout
6
ByLayer
62
256
370
-1
100
AcDbLine
10
195
20
67
11
195
21
53
0
LINE
5
221
100
AcDbEntity
8
cutout
6
ByLayer
62
256
370
-1
100
AcDbLine
10
62
20
34
11
76
21
34
0
LINE
5
222
100
AcDbEntity
8
cutout
6
ByLayer
62
256
370
-1
100
AcDbLine
10
76
20
34
11
76
21
48
0
LINE
5
223
100
AcDbEntity
8
cutout
6
ByLayer
62
256
370
-1
100
AcDbLine
10
76
20
48
11
62
21
48
0
LINE
5
224
100
AcDbEntity
8
cutout
6
ByLayer
62
256
370
-1
100
AcDbLine
10
62
20
48
11
62
21
34
0
LINE
5
225
100
AcDbEntity
8
cutout
6
ByLayer
62
256
370
-1
100
AcDbLine
10
81
20
34
11
95
21
34
0
LINE
5
226
100
AcDbEntity
8
cutout
6
ByLayer
62
256
370
-1
100
AcDbLine
10
95
20
34
11
95
21
48
0
LINE
5
227
100
AcDbEntity
8
cutout
6
ByLayer
62
256
370
-1
100
AcDbLine
10
95
20
48
11
81
21
48
0
LINE
5
228
100
AcDbEntity
8
cutout
6
ByLayer
62
256
370
-1
100
AcDbLine
10
81
20
48
11
81
21
34
0
LINE
5
229
100
AcDbEntity
8
cutout
6
ByLayer
62
256
370
-1
100
AcDbLine
10
100
20
34
11
114
21
34
0
LINE
5
22A
100
AcDbEntity
8
cutout
6
ByLayer
62
256
370
-1
100
AcDbLine
10
114
20
34
11
114
21
48
0
LINE
5
22B
100
AcDbEntity
8
cutout
6
ByLayer
62
256
370
-1
100
AcDbLine
10
114
20
48
11
100
21
48
0
LINE
5
22C
100
AcDbEntity
8
cutout
6
ByLayer
62
256
370
-1
100
AcDbLine
10
100
20
48
11
100
21
34
0
LINE
5
22D
100
AcDbEntity
8
cutout
6
ByLayer
62
256
370
-1
100
AcDbLine
10
119
20
34
11
133
21
34
0
LINE
5
22E
100
AcDbEntity
8
cutout
6
ByLayer
62
256
370
-1
100
AcDbLine
10
133
20
34
11
133
21
48
0
LINE
5
22F
100
AcDbEntity
8
cutout
6
ByLayer
62
256
370
-1
100
AcDbLine
10
133
20
48
11
119
21
48
0
LINE
5
230
100
AcDbEntity
8
cutout
6
ByLayer
62
256
370
-1
100
AcDbLine
10
119
20
48
11
119
21
34
0
LINE
5
231
100
AcDbEntity
8
cutout
6
ByLayer
62
256
370
-1
100
AcDbLine
10
138
20
34
11
152
21
34
0
LINE
5
232
100
AcDbEntity
8
cutout
6
ByLayer
62
256
370
-1
100
AcDbLine
10
152
20
34
11
152
21
48
0
LINE
5
233
100
AcDbEntity
8
cutout
6
ByLayer
62
256
370
-1
100
AcDbLine
10
152
20
48
11
138
21
48
0
LINE
5
234
100
AcDbEntity
8
cutout
6
ByLayer
62
256
370
-1
100
AcDbLine
10
138
20
48
11
138
21
34
0
LINE
5
235
100
AcDbEntity
8
cutout
6
ByLayer
62
256
370
-1
100
AcDbLine
10
157
20
34
11
171
21
34
0
LINE
5
236
100
AcDbEntity
8
cutout
6
ByLayer
62
256
370
-1
100
AcDbLine
10
171
20
34
11
171
21
48
0
LINE
5
237
100
AcDbEntity
8
cutout
6
ByLayer
62
256
370
-1
100
AcDbLine
10
171
20
48
11
157
21
48
0
LINE
5
238
100
AcDbEntity
8
cutout
6
ByLayer
62
256
370
-1
100
AcDbLine
10
157
20
48
11
157
21
34
0
LINE
5
239
100
AcDbEntity
8
cutout
6
ByLayer
62
256
370
-1
100
AcDbLine
10
176
20
34
11
190
21
34
0
LINE
5
23A
100
AcDbEntity
8
cutout
6
ByLayer
62
256
370
-1
100
AcDbLine
10
190
20
34
11
190
21
48
0
LINE
5
23B
100
AcDbEntity
8
cutout
6
ByLayer
62
256
370
-1
100
AcDbLine
10
190
20
48
11
176
21
48
0
LINE
5
23C
100
AcDbEntity
8
cutout
6
ByLayer
62
256
370
-1
100
AcDbLine
10
176
20
48
11
176
21
34
0
LINE
5
23D
100
AcDbEntity
8
cutout
6
ByLayer
62
256
370
-1
100
AcDbLine
10
43
20
91
11
57
21
91
0
LINE
5
23E
100
AcDbEntity
8
cutout
6
ByLayer
62
256
370
-1
100
AcDbLine
10
57
20
91
11
57
21
105
0
LINE
5
23F
100
AcDbEntity
8
cutout
6
ByLayer
62
256
370
-1
100
AcDbLine
10
57
20
105
11
43
21
105
0
LINE
5
240
100
AcDbEntity
8
cutout
6
ByLayer
62
256
370
-1
100
AcDbLine
10
43
20
105
11
43
21
91
0
LINE
5
241
100
AcDbEntity
8
cutout
6
ByLayer
62
256
370
-1
100
AcDbLine
10
62
20
91
11
76
21
91
0
LINE
5
242
100
AcDbEntity
8
cutout
6
ByLayer
62
256
370
-1
100
AcDbLine
10
76
20
91
11
76
21
105
0
LINE
5
243
100
AcDbEntity
8
cutout
6
ByLayer
62
256
370
-1
100
AcDbLine
10
76
20
105
11
62
21
105
0
LINE
5
244
100
AcDbEntity
8
cutout
6
ByLayer
62
256
370
-1
100
AcDbLine
10
62
20
105
11
62
21
91
0
LINE
5
245
100
AcDbEntity
8
cutout
6
ByLayer
62
256
370
-1
100
AcDbLine
10
81
20
91
11
95
21
91
0
LINE
5
246
100
AcDbEntity
8
cutout
6
ByLayer
62
256
370
-1
100
AcDbLine
10
95
20
91
11
95
21
105
0
LINE
5
247
100
AcDbEntity
8
cutout
6
ByLayer
62
256
370
-1
100
AcDbLine
10
95
20
105
11
81
21
105
0
LINE
5
248
100
AcDbEntity
8
cutout
6
ByLayer
62
256
370
-1
100
AcDbLine
10
81
20
105
11
81
21
91
0
LINE
5
249
100
AcDbEntity
8
cutout
6
ByLayer
62
256
370
-1
100
AcDbLine
10
100
20
91
11
114
21
91
0
LINE
5
24A
100
AcDbEntity
8
cutout
6
ByLayer
62
256
370
-1
100
AcDbLine
10
114
20
91
11
114
21
105
0
LINE
5
24B
100
AcDbEntity
8
cutout
6
ByLayer
62
256
370
-1
100
AcDbLine
10
114
20
105
11
100
21
105
0
LINE
5
24C
100
AcDbEntity
8
cutout
6
ByLayer
62
256
370
-1
100
AcDbLine
10
100
20
105
11
100
21
91
0
LINE
5
24D
100
AcDbEntity
8
cutout
6
ByLayer
62
256
370
-1
100
AcDbLine
10
119
20
91
11
133
21
91
0
LINE
5
24E
100
AcDbEntity
8
cutout
6
ByLayer
62
256
370
-1
100
AcDbLine
10
133
20
91
11
133
21
105
0
LINE
5
24F
100
AcDbEntity
8
cutout
6
ByLayer
62
256
370
-1
100
AcDbLine
10
133
20
105
11
119
21
105
0
LINE
5
250
100
AcDbEntity
8
cutout
6
ByLayer
62
256
370
-1
100
AcDbLine
10
119
20
105
11
119
21
91
0
LINE
5
251
100
AcDbEntity
8
cutout
6
ByLayer
62
256
370
-1
100
AcDbLine
10
138
20
91
11
152
21
91
0
LINE
5
252
100
AcDbEntity
8
cutout
6
ByLayer
62
256
370
-1
100
AcDbLine
10
152
20
91
11
152
21
105
0
LINE
5
253
100
AcDbEntity
8
cutout
6
ByLayer
62
256
370
-1
100
AcDbLine
10
152
20
105
11
138
21
105
0
LINE
5
254
100
AcDbEntity
8
cutout
6
ByLayer
62
256
370
-1
100
AcDbLine
10
138
20
105
11
138
21
91
0
LINE
5
255
100
AcDbEntity
8
cutout
6
ByLayer
62
256
370
-1
100
AcDbLine
10
157
20
91
11
171
21
91
0
LINE
5
256
100
AcDbEntity
8
cutout
6
ByLayer
62
256
370
-1
100
AcDbLine
10
171
20
91
11
171
21
105
0
LINE
5
257
100
AcDbEntity
8
cutout
6
ByLayer
62
256
370
-1
100
AcDbLine
10
171
20
105
11
157
21
105
0
LINE
5
258
100
AcDbEntity
8
cutout
6
ByLayer
62
256
370
-1
100
AcDbLine
10
157
20
105
11
157
21
91
0
LINE
5
259
100
AcDbEntity
8
cutout
6
ByLayer
62
256
370
-1
100
AcDbLine
10
176
20
91
11
190
21
91
0
LINE
5
25A
100
AcDbEntity
8
cutout
6
ByLayer
62
256
370
-1
100
AcDbLine
10
190
20
91
11
190
21
105
0
LINE
5
25B
100
AcDbEntity
8
cutout
6
ByLayer
62
256
370
-1
100
AcDbLine
10
190
20
105
11
176
21
105
0
LINE
5
25C
100
AcDbEntity
8
cutout
6
ByLayer
62
256
370
-1
100
AcDbLine
10
176
20
105
11
176
21
91
0
LINE
5
25D
100
AcDbEntity
8
cutout
6
ByLayer
62
256
370
-1
100
AcDbLine
10
195
20
91
11
209
21
91
0
LINE
5
25E
100
AcDbEntity
8
cutout
6
ByLayer
62
256
370
-1
100
AcDbLine
10
209
20
91
11
209
21
105
0
LINE
5
25F
100
AcDbEntity
8
cutout
6
ByLayer
62
256
370
-1
100
AcDbLine
10
209
20
105
11
195
21
105
0
LINE
5
260
100
AcDbEntity
8
cutout
6
ByLayer
62
256
370
-1
100
AcDbLine
10
195
20
105
11
195
21
91
0
LINE
5
261
100
AcDbEntity
8
cutout
6
ByLayer
62
256
370
-1
100
AcDbLine
10
214
20
91
11
228
21
91
0
LINE
5
262
100
AcDbEntity
8
cutout
6
ByLayer
62
256
370
-1
100
AcDbLine
10
228
20
91
11
228
21
105
0
LINE
5
263
100
AcDbEntity
8
cutout
6
ByLayer
62
256
370
-1
100
AcDbLine
10
228
20
105
11
214
21
105
0
LINE
5
264
100
AcDbEntity
8
cutout
6
ByLayer
62
256
370
-1
100
AcDbLine
10
214
20
105
11
214
21
91
0
LINE
5
265
100
AcDbEntity
8
cutout
6
ByLayer
62
256
370
-1
100
AcDbLine
10
233
20
91
11
247
21
91
0
LINE
5
266
100
AcDbEntity
8
cutout
6
ByLayer
62
256
370
-1
100
AcDbLine
10
247
20
91
11
247
21
105
0
LINE
5
267
100
AcDbEntity
8
cutout
6
ByLayer
62
256
370
-1
100
AcDbLine
10
247
20
105
11
233
21
105
0
LINE
5
268
100
AcDbEntity
8
cutout
6
ByLayer
62
256
370
-1
100
AcDbLine
10
233
20
105
11
233
21
91
0
LINE
5
269
100
AcDbEntity
8
cutout
6
ByLayer
62
256
370
-1
100
AcDbLine
10
252
20
91
11
266
21
91
0
LINE
5
26A
100
AcDbEntity
8
cutout
6
ByLayer
62
256
370
-1
100
AcDbLine
10
266
20
91
11
266
21
105
0
LINE
5
26B
100
AcDbEntity
8
cutout
6
ByLayer
62
256
370
-1
100
AcDbLine
10
266
20
105
11
252
21
105
0
LINE
5
26C
100
AcDbEntity
8
cutout
6
ByLayer
62
256
370
-1
100
AcDbLine
10
252
20
105
11
252
21
91
0
LINE
5
26D
100
AcDbEntity
8
cutout
6
ByLayer
62
256
370
-1
100
AcDbLine
10
261.5
20
48
11
261.5
21
34
0
LINE
5
26E
100
AcDbEntity
8
cutout
6
ByLayer
62
256
370
-1
100
AcDbLine
10
233
20
72
11
247
21
72
0
LINE
5
26F
100
AcDbEntity
8
cutout
6
ByLayer
62
256
370
-1
100
AcDbLine
10
247
20
72
11
247
21
86
0
LINE
5
270
100
AcDbEntity
8
cutout
6
ByLayer
62
256
370
-1
100
AcDbLine
10
247
20
86
11
233
21
86
0
LINE
5
271
100
AcDbEntity
8
cutout
6
ByLayer
62
256
370
-1
100
AcDbLine
10
233
20
86
11
233
21
72
0
LINE
5
272
100
AcDbEntity
8
cutout
6
ByLayer
62
256
370
-1
100
AcDbLine
10
252
20
72
11
266
21
72
0
LINE
5
273
100
AcDbEntity
8
cutout
6
ByLayer
62
256
370
-1
100
AcDbLine
10
266
20
72
11
266
21
86
0
LINE
5
274
100
AcDbEntity
8
cutout
6
ByLayer
62
256
370
-1
100
AcDbLine
10
266
20
86
11
252
21
86
0
LINE
5
275
100
AcDbEntity
8
cutout
6
ByLayer
62
256
370
-1
100
AcDbLine
10
252
20
86
11
252
21
72
0
LINE
5
276
100
AcDbEntity
8
cutout
6
ByLayer
62
256
370
-1
100
AcDbLine
10
214
20
53
11
228
21
53
0
LINE
5
277
100
AcDbEntity
8
cutout
6
ByLayer
62
256
370
-1
100
AcDbLine
10
228
20
53
11
228
21
67
0
LINE
5
278
100
AcDbEntity
8
cutout
6
ByLayer
62
256
370
-1
100
AcDbLine
10
228
20
67
11
214
21
67
0
LINE
5
279
100
AcDbEntity
8
cutout
6
ByLayer
62
256
370
-1
100
AcDbLine
10
214
20
67
11
214
21
53
0
LINE
5
27A
100
AcDbEntity
8
cutout
6
ByLayer
62
256
370
-1
100
AcDbLine
10
233
20
53
11
247
21
53
0
LINE
5
27B
100
AcDbEntity
8
cutout
6
ByLayer
62
256
370
-1
100
AcDbLine
10
247
20
53
11
247
21
67
0
LINE
5
27C
100
AcDbEntity
8
cutout
6
ByLayer
62
256
370
-1
100
AcDbLine
10
247
20
67
11
233
21
67
0
LINE
5
27D
100
AcDbEntity
8
cutout
6
ByLayer
62
256
370
-1
100
AcDbLine
10
233
20
67
11
233
21
53
0
LINE
5
27E
100
AcDbEntity
8
cutout
6
ByLayer
62
256
370
-1
100
AcDbLine
10
252
20
53
11
266
21
53
0
LINE
5
27F
100
AcDbEntity
8
cutout
6
ByLayer
62
256
370
-1
100
AcDbLine
10
266
20
53
11
266
21
67
0
LINE
5
280
100
AcDbEntity
8
cutout
6
ByLayer
62
256
370
-1
100
AcDbLine
10
266
20
67
11
252
21
67
0
LINE
5
281
100
AcDbEntity
8
cutout
6
ByLayer
62
256
370
-1
100
AcDbLine
10
252
20
67
11
252
21
53
0
LINE
5
282
100
AcDbEntity
8
cutout
6
ByLayer
62
256
370
-1
100
AcDbLine
10
43
20
34
11
57
21
34
0
LINE
5
283
100
AcDbEntity
8
cutout
6
ByLayer
62
256
370
-1
100
AcDbLine
10
57
20
34
11
57
21
48
0
LINE
5
284
100
AcDbEntity
8
cutout
6
ByLayer
62
256
370
-1
100
AcDbLine
10
57
20
48
11
43
21
48
0
LINE
5
285
100
AcDbEntity
8
cutout
6
ByLayer
62
256
370
-1
100
AcDbLine
10
43
20
48
11
43
21
34
0
LINE
5
286
100
AcDbEntity
8
cutout
6
ByLayer
62
256
370
-1
100
AcDbLine
10
195
20
34
11
209
21
34
0
LINE
5
287
100
AcDbEntity
8
cutout
6
ByLayer
62
256
370
-1
100
AcDbLine
10
209
20
34
11
209
21
48
0
LINE
5
288
100
AcDbEntity
8
cutout
6
ByLayer
62
256
370
-1
100
AcDbLine
10
209
20
48
11
195
21
48
0
LINE
5
289
100
AcDbEntity
8
cutout
6
ByLayer
62
256
370
-1
100
AcDbLine
10
195
20
48
11
195
21
34
0
LINE
5
28A
100
AcDbEntity
8
cutout
6
ByLayer
62
256
370
-1
100
AcDbLine
10
214
20
34
11
228
21
34
0
LINE
5
28B
100
AcDbEntity
8
cutout
6
ByLayer
62
256
370
-1
100
AcDbLine
10
228
20
34
11
228
21
48
0
LINE
5
28C
100
AcDbEntity
8
cutout
6
ByLayer
62
256
370
-1
100
AcDbLine
10
228
20
48
11
214
21
48
0
LINE
5
28D
100
AcDbEntity
8
cutout
6
ByLayer
62
256
370
-1
100
AcDbLine
10
214
20
48
11
214
21
34
0
LINE
5
28E
100
AcDbEntity
8
cutout
6
ByLayer
62
256
370
-1
100
AcDbLine
10
233
20
34
11
247
21
34
0
LINE
5
28F
100
AcDbEntity
8
cutout
6
ByLayer
62
256
370
-1
100
AcDbLine
10
247
20
34
11
247
21
48
0
LINE
5
290
100
AcDbEntity
8
cutout
6
ByLayer
62
256
370
-1
100
AcDbLine
10
247
20
48
11
233
21
48
0
LINE
5
291
100
AcDbEntity
8
cutout
6
ByLayer
62
256
370
-1
100
AcDbLine
10
233
20
48
11
233
21
34
0
LINE
5
292
100
AcDbEntity
8
cutout
6
ByLayer
62
256
370
-1
100
AcDbLine
10
100
20
53
11
114
21
53
0
LINE
5
293
100
AcDbEntity
8
cutout
6
ByLayer
62
256
370
-1
100
AcDbLine
10
114
20
53
11
114
21
67
0
LINE
5
294
100
AcDbEntity
8
cutout
6
ByLayer
62
256
370
-1
100
AcDbLine
10
114
20
67
11
100
21
67
0
LINE
5
295
100
AcDbEntity
8
cutout
6
ByLayer
62
256
370
-1
100
AcDbLine
10
100
20
67
11
100
21
53
0
LINE
5
296
100
AcDbEntity
8
cutout
6
ByLayer
62
256
370
-1
100
AcDbLine
10
157
20
53
11
171
21
53
0
LINE
5
297
100
AcDbEntity
8
cutout
6
ByLayer
62
256
370
-1
100
AcDbLine
10
171
20
53
11
171
21
67
0
LINE
5
298
100
AcDbEntity
8
cutout
6
ByLayer
62
256
370
-1
100
AcDbLine
10
171
20
67
11
157
21
67
0
LINE
5
299
100
AcDbEntity
8
cutout
6
ByLayer
62
256
370
-1
100
AcDbLine
10
157
20
67
11
157
21
53
0
LINE
5
29A
100
AcDbEntity
8
cutout
6
ByLayer
62
256
370
-1
100
AcDbLine
10
285
20
62.5
11
285
21
76.5
0
LINE
5
29B
100
AcDbEntity
8
cutout
6
ByLayer
62
256
370
-1
100
AcDbLine
10
285
20
76.5
11
271
21
76.5
0
LINE
5
29C
100
AcDbEntity
8
cutout
6
ByLayer
62
256
370
-1
100
AcDbLine
10
271
20
29
11
285
21
29
0
LINE
5
29D
100
AcDbEntity
8
cutout
6
ByLayer
62
256
370
-1
100
AcDbLine
10
285
20
29
11
285
21
15
0
LINE
5
29E
100
AcDbEntity
8
cutout
6
ByLayer
62
256
370
-1
100
AcDbLine
10
285
20
15
11
271
21
15
0
LINE
5
29F
100
AcDbEntity
8
cutout
6
ByLayer
62
256
370
-1
100
AcDbLine
10
271
20
15
11
271
21
29
0
LINE
5
2A0
100
AcDbEntity
8
cutout
6
ByLayer
62
256
370
-1
100
AcDbLine
10
252
20
29
11
266
21
29
0
LINE
5
2A1
100
AcDbEntity
8
cutout
6
ByLayer
62
256
370
-1
100
AcDbLine
10
266
20
29
11
266
21
15
0
LINE
5
2A2
100
AcDbEntity
8
cutout
6
ByLayer
62
256
370
-1
100
AcDbLine
10
266
20
15
11
252
21
15
0
LINE
5
2A3
100
AcDbEntity
8
cutout
6
ByLayer
62
256
370
-1
100
AcDbLine
10
252
20
15
11
252
21
29
0
LINE
5
2A4
100
AcDbEntity
8
cutout
6
ByLayer
62
256
370
-1
100
AcDbLine
10
233
20
29
11
247
21
29
0
LINE
5
2A5
100
AcDbEntity
8
cutout
6
ByLayer
62
256
370
-1
100
AcDbLine
10
247
20
29
11
247
21
15
0
LINE
5
2A6
100
AcDbEntity
8
cutout
6
ByLayer
62
256
370
-1
100
AcDbLine
10
247
20
15
11
233
21
15
0
LINE
5
2A7
100
AcDbEntity
8
cutout
6
ByLayer
62
256
370
-1
100
AcDbLine
10
233
20
15
11
233
21
29
0
LINE
5
2A8
100
AcDbEntity
8
cutout
6
ByLayer
62
256
370
-1
100
AcDbLine
10
225.75
20
29
11
211.75
21
29
0
LINE
5
2A9
100
AcDbEntity
8
cutout
6
ByLayer
62
256
370
-1
100
AcDbLine
10
211.75
20
29
11
211.75
21
15
0
LINE
5
2AA
100
AcDbEntity
8
cutout
6
ByLayer
62
256
370
-1
100
AcDbLine
10
211.75
20
15
11
225.75
21
15
0
LINE
5
2AB
100
AcDbEntity
8
cutout
6
ByLayer
62
256
370
-1
100
AcDbLine
10
225.75
20
15
11
225.75
21
29
0
LINE
5
2AC
100
AcDbEntity
8
cutout
6
ByLayer
62
256
370
-1
100
AcDbLine
10
202.25
20
29
11
188.25
21
29
0
LINE
5
2AD
100
AcDbEntity
8
cutout
6
ByLayer
62
256
370
-1
100
AcDbLine
10
188.25
20
29
11
188.25
21
15
0
LINE
5
2AE
100
AcDbEntity
8
cutout
6
ByLayer
62
256
370
-1
100
AcDbLine
10
188.25
20
15
11
202.25
21
15
0
LINE
5
2AF
100
AcDbEntity
8
cutout
6
ByLayer
62
256
370
-1
100
AcDbLine
10
202.25
20
15
11
202.25
21
29
0
LINE
5
2B0
100
AcDbEntity
8
cutout
6
ByLayer
62
256
370
-1
100
AcDbLine
10
45.25
20
15
11
59.25
21
15
0
LINE
5
2B1
100
AcDbEntity
8
cutout
6
ByLayer
62
256
370
-1
100
AcDbLine
10
59.25
20
15
11
59.25
21
29
0
LINE
5
2B2
100
AcDbEntity
8
cutout
6
ByLayer
62
256
370
-1
100
AcDbLine
10
59.25
20
29
11
45.25
21
29
0
LINE
5
2B3
100
AcDbEntity
8
cutout
6
ByLayer
62
256
370
-1
100
AcDbLine
10
45.25
20
29
11
45.25
21
15
0
LINE
5
2B4
100
AcDbEntity
8
cutout
6
ByLayer
62
256
370
-1
100
AcDbLine
10
129
20
29
11
142
21
29
0
LINE
5
2B5
100
AcDbEntity
8
cutout
6
ByLayer
62
256
370
-1
100
AcDbLine
10
142
20
29
11
142
21
15
0
LINE
5
2B6
100
AcDbEntity
8
cutout
6
ByLayer
62
256
370
-1
100
AcDbLine
10
142
20
15
11
129
21
15
0
LINE
5
2B7
100
AcDbEntity
8
cutout
6
ByLayer
62
256
370
-1
100
AcDbLine
10
129
20
15
11
129
21
29
0
LINE
5
2B8
100
AcDbEntity
8
cutout
6
ByLayer
62
256
370
-1
100
AcDbLine
10
82.75
20
29
11
68.75
21
29
0
LINE
5
2B9
100
AcDbEntity
8
cutout
6
ByLayer
62
256
370
-1
100
AcDbLine
10
68.75
20
29
11
68.75
21
15
0
LINE
5
2BA
100
AcDbEntity
8
cutout
6
ByLayer
62
256
370
-1
100
AcDbLine
10
68.75
20
15
11
82.75
21
15
0
LINE
5
2BB
100
AcDbEntity
8
cutout
6
ByLayer
62
256
370
-1
100
AcDbLine
10
82.75
20
15
11
82.75
21
29
0
LINE
5
2BC
100
AcDbEntity
8
cutout
6
ByLayer
62
256
370
-1
100
AcDbLine
10
114
20
29
11
100
21
29
0
LINE
5
2BD
100
AcDbEntity
8
cutout
6
ByLayer
62
256
370
-1
100
AcDbLine
10
100
20
29
11
100
21
15
0
LINE
5
2BE
100
AcDbEntity
8
cutout
6
ByLayer
62
256
370
-1
100
AcDbLine
10
100
20
15
11
114
21
15
0
LINE
5
2BF
100
AcDbEntity
8
cutout
6
ByLayer
62
256
370
-1
100
AcDbLine
10
114
20
15
11
114
21
29
0
LINE
5
2C0
100
AcDbEntity
8
cutout
6
ByLayer
62
256
370
-1
100
AcDbLine
10
157
20
29
11
171
21
29
0
LINE
5
2C1
100
AcDbEntity
8
cutout
6
ByLayer
62
256
370
-1
100
AcDbLine
10
171
20
29
11
171
21
15
0
LINE
5
2C2
100
AcDbEntity
8
cutout
6
ByLayer
62
256
370
-1
100
AcDbLine
10
171
20
15
11
157
21
15
0
LINE
5
2C3
100
AcDbEntity
8
cutout
6
ByLayer
62
256
370
-1
100
AcDbLine
10
157
20
15
11
157
21
29
0
LINE
5
2C4
100
AcDbEntity
8
caps
6
ByLayer
62
96
420
32768
370
-1
100
AcDbLine
10
59
20
89
11
41
21
89
0
LINE
5
2C5
100
AcDbEntity
8
caps
6
ByLayer
62
96
420
32768
370
-1
100
AcDbLine
10
41
20
89
11
41
21
107
0
LINE
5
2C6
100
AcDbEntity
8
caps
6
ByLayer
62
96
420
32768
370
-1
100
AcDbLine
10
41
20
107
11
59
21
107
0
LINE
5
2C7
100
AcDbEntity
8
caps
6
ByLayer
62
96
420
32768
370
-1
100
AcDbLine
10
59
20
107
11
59
21
89
0
LINE
5
2C8
100
AcDbEntity
8
caps
6
ByLayer
62
216
420
8388736
370
-1
100
AcDbLine
10
59
20
32
11
41
21
32
0
LINE
5
2C9
100
AcDbEntity
8
caps
6
ByLayer
62
216
420
8388736
370
-1
100
AcDbLine
10
41
20
32
11
41
21
50
0
LINE
5
2CA
100
AcDbEntity
8
caps
6
ByLayer
62
216
420
8388736
370
-1
100
AcDbLine
10
41
20
50
11
59
21
50
0
LINE
5
2CB
100
AcDbEntity
8
caps
6
ByLayer
62
216
420
8388736
370
-1
100
AcDbLine
10
59
20
50
11
59
21
32
0
LINE
5
2CC
100
AcDbEntity
8
caps
6
ByLayer
62
216
420
8388736
370
-1
100
AcDbLine
10
211
20
32
11
193
21
32
0
LINE
5
2CD
100
AcDbEntity
8
caps
6
ByLayer
62
216
420
8388736
370
-1
100
AcDbLine
10
193
20
32
11
193
21
50
0
LINE
5
2CE
100
AcDbEntity
8
caps
6
ByLayer
62
216
420
8388736
370
-1
100
AcDbLine
10
193
20
50
11
211
21
50
0
LINE
5
2CF
100
AcDbEntity
8
caps
6
ByLayer
62
216
420
8388736
370
-1
100
AcDbLine
10
211
20
50
11
211
21
32
0
LINE
5
2D0
100
AcDbEntity
8
caps
6
ByLayer
62
216
420
8388736
370
-1
100
AcDbLine
10
40
20
88
11
13
21
88
0
LINE
5
2D1
100
AcDbEntity
8
caps
6
ByLayer
62
216
420
8388736
370
-1
100
AcDbLine
10
13
20
88
11
13
21
70
0
LINE
5
2D2
100
AcDbEntity
8
caps
6
ByLayer
62
216
420
8388736
370
-1
100
AcDbLine
10
13
20
70
11
40
21
70
0
LINE
5
2D3
100
AcDbEntity
8
caps
6
ByLayer
62
216
420
8388736
370
-1
100
AcDbLine
10
40
20
70
11
40
21
88
0
LINE
5
2D4
100
AcDbEntity
8
caps
6
ByLayer
62
216
420
8388736
370
-1
100
AcDbLine
10
125.5
20
13
11
125.5
21
31
0
LINE
5
2D5
100
AcDbEntity
8
caps
6
ByLayer
62
216
420
8388736
370
-1
100
AcDbLine
10
145.5
20
13
11
145.5
21
31
0
LINE
5
2D6
100
AcDbEntity
8
caps
6
ByLayer
62
216
420
8388736
370
-1
100
AcDbLine
10
88.5
20
31
11
88.5
21
13
0
LINE
5
2D7
100
AcDbEntity
8
caps
6
ByLayer
62
216
420
8388736
370
-1
100
AcDbLine
10
182.5
20
31
11
182.5
21
13
0
LINE
5
2D8
100
AcDbEntity
8
caps
6
ByLayer
62
216
420
8388736
370
-1
100
AcDbLine
10
182.5
20
13
11
145.5
21
13
0
LINE
5
2D9
100
AcDbEntity
8
caps
6
ByLayer
62
216
420
8388736
370
-1
100
AcDbLine
10
145.5
20
31
11
182.5
21
31
0
LINE
5
2DA
100
AcDbEntity
8
caps
6
ByLayer
62
216
420
8388736
370
-1
100
AcDbLine
10
88.5
20
13
11
125.5
21
13
0
LINE
5
2DB
100
AcDbEntity
8
caps
6
ByLayer
62
216
420
8388736
370
-1
100
AcDbLine
10
125.5
20
31
11
88.5
21
31
0
LINE
5
2DC
100
AcDbEntity
8
caps
6
ByLayer
62
16
420
8388608
370
-1
100
AcDbLine
10
287
20
51
11
269
21
51
0
LINE
5
2DD
100
AcDbEntity
8
caps
6
ByLayer
62
16
420
8388608
370
-1
100
AcDbLine
10
269
20
51
11
269
21
88
0
LINE
5
2DE
100
AcDbEntity
8
caps
6
ByLayer
62
16
420
8388608
370
-1
100
AcDbLine
10
269
20
88
11
287
21
88
0
LINE
5
2DF
100
AcDbEntity
8
caps
6
ByLayer
62
16
420
8388608
370
-1
100
AcDbLine
10
287
20
88
11
287
21
51
0
LINE
5
2E0
100
AcDbEntity
8
caps
6
ByLayer
62
16
420
8388608
370
-1
100
AcDbLine
10
287
20
89
11
269
21
89
0
LINE
5
2E1
100
AcDbEntity
8
caps
6
ByLayer
62
16
420
8388608
370
-1
100
AcDbLine
10
269
20
89
11
269
21
107
0
LINE
5
2E2
100
AcDbEntity
8
caps
6
ByLayer
62
16
420
8388608
370
-1
100
AcDbLine
10
269
20
107
11
287
21
107
0
LINE
5
2E3
100
AcDbEntity
8
caps
6
ByLayer
62
16
420
8388608
370
-1
100
AcDbLine
10
287
20
107
11
287
21
89
0
LINE
5
2E4
100
AcDbEntity
8
caps
6
ByLayer
62
5
370
-1
100
AcDbLine
10
40
20
69
11
13
21
69
0
LINE
5
2E5
100
AcDbEntity
8
caps
6
ByLayer
62
5
370
-1
100
AcDbLine
10
13
20
69
11
13
21
51
0
LINE
5
2E6
100
AcDbEntity
8
caps
6
ByLayer
62
5
370
-1
100
AcDbLine
10
13
20
51
11
40
21
51
0
LINE
5
2E7
100
AcDbEntity
8
caps
6
ByLayer
62
5
370
-1
100
AcDbLine
10
40
20
51
11
40
21
69
0
LINE
5
2E8
100
AcDbEntity
8
caps
6
ByLayer
62
5
370
-1
100
AcDbLine
10
40
20
50
11
13
21
50
0
LINE
5
2E9
100
AcDbEntity
8
caps
6
ByLayer
62
5
370
-1
100
AcDbLine
10
13
20
50
11
13
21
32
0
LINE
5
2EA
100
AcDbEntity
8
caps
6
ByLayer
62
5
370
-1
100
AcDbLine
10
13
20
32
11
40
21
32
0
LINE
5
2EB
100
AcDbEntity
8
caps
6
ByLayer
62
5
370
-1
100
AcDbLine
10
40
20
32
11
40
21
50
0
LINE
5
2EC
100
AcDbEntity
8
caps
6
ByLayer
62
5
370
-1
100
AcDbLine
10
40
20
31
11
13
21
31
0
LINE
5
2ED
100
AcDbEntity
8
caps
6
ByLayer
62
5
370
-1
100
AcDbLine
10
13
20
31
11
13
21
13
0
LINE
5
2EE
100
AcDbEntity
8
caps
6
ByLayer
62
5
370
-1
100
AcDbLine
10
13
20
13
11
40
21
13
0
LINE
5
2EF
100
AcDbEntity
8
caps
6
ByLayer
62
5
370
-1
100
AcDbLine
10
40
20
13
11
40
21
31
0
LINE
5
2F0
100
AcDbEntity
8
caps
6
ByLayer
62
5
370
-1
100
AcDbLine
10
64.5
20
31
11
87
21
31
0
LINE
5
2F1
100
AcDbEntity
8
caps
6
ByLayer
62
5
370
-1
100
AcDbLine
10
87
20
31
11
87
21
13
0
LINE
5
2F2
100
AcDbEntity
8
caps
6
ByLayer
62
5
370
-1
100
AcDbLine
10
87
20
13
11
64.5
21
13
0
LINE
5
2F3
100
AcDbEntity
8
caps
6
ByLayer
62
5
370
-1
100
AcDbLine
10
64.5
20
13
11
64.5
21
31
0
LINE
5
2F4
100
AcDbEntity
8
caps
6
ByLayer
62
5
370
-1
100
AcDbLine
10
207.5
20
31
11
230
21
31
0
LINE
5
2F5
100
AcDbEntity
8
caps
6
ByLayer
62
5
370
-1
100
AcDbLine
10
230
20
31
11
230
21
13
0
LINE
5
2F6
100
AcDbEntity
8
caps
6
ByLayer
62
5
370
-1
100
AcDbLine
10
230
20
13
11
207.5
21
13
0
LINE
5
2F7
100
AcDbEntity
8
caps
6
ByLayer
62
5
370
-1
100
AcDbLine
10
207.5
20
13
11
207.5
21
31
0
LINE
5
2F8
100
AcDbEntity
8
caps
6
ByLayer
62
5
370
-1
100
AcDbLine
10
250
20
50
11
287
21
50
0
LINE
5
2F9
100
AcDbEntity
8
caps
6
ByLayer
62
5
370
-1
100
AcDbLine
10
287
20
50
11
287
21
32
0
LINE
5
2FA
100
AcDbEntity
8
caps
6
ByLayer
62
5
370
-1
100
AcDbLine
10
287
20
32
11
250
21
32
0
LINE
5
2FB
100
AcDbEntity
8
caps
6
ByLayer
62
5
370
-1
100
AcDbLine
10
250
20
32
11
250
21
50
0
LINE
5
2FC
100
AcDbEntity
8
caps
6
ByLayer
62
5
370
-1
100
AcDbLine
10
231
20
31
11
249
21
31
0
LINE
5
2FD
100
AcDbEntity
8
caps
6
ByLayer
62
5
370
-1
100
AcDbLine
10
249
20
31
11
249
21
13
0
LINE
5
2FE
100
AcDbEntity
8
caps
6
ByLayer
62
5
370
-1
100
AcDbLine
10
249
20
13
11
231
21
13
0
LINE
5
2FF
100
AcDbEntity
8
caps
6
ByLayer
62
5
370
-1
100
AcDbLine
10
231
20
13
11
231
21
31
0
LINE
5
300
100
AcDbEntity
8
caps
6
ByLayer
62
5
370
-1
100
AcDbLine
10
250
20
31
11
268
21
31
0
LINE
5
301
100
AcDbEntity
8
caps
6
ByLayer
62
5
370
-1
100
AcDbLine
10
268
20
31
11
268
21
13
0
LINE
5
302
100
AcDbEntity
8
caps
6
ByLayer
62
5
370
-1
100
AcDbLine
10
268
20
13
11
250
21
13
0
LINE
5
303
100
AcDbEntity
8
caps
6
ByLayer
62
5
370
-1
100
AcDbLine
10
250
20
13
11
250
21
31
0
LINE
5
304
100
AcDbEntity
8
caps
6
ByLayer
62
5
370
-1
100
AcDbLine
10
269
20
31
11
287
21
31
0
LINE
5
305
100
AcDbEntity
8
caps
6
ByLayer
62
5
370
-1
100
AcDbLine
10
287
20
31
11
287
21
13
0
LINE
5
306
100
AcDbEntity
8
caps
6
ByLayer
62
5
370
-1
100
AcDbLine
10
287
20
13
11
269
21
13
0
LINE
5
307
100
AcDbEntity
8
caps
6
ByLayer
62
5
370
-1
100
AcDbLine
10
269
20
13
11
269
21
31
0
LINE
5
308
100
AcDbEntity
8
caps
6
ByLayer
62
7
370
-1
100
AcDbLine
10
59
20
70
11
41
21
70
0
LINE
5
309
100
AcDbEntity
8
caps
6
ByLayer
62
7
370
-1
100
AcDbLine
10
41
20
70
11
41
21
88
0
LINE
5
30A
100
AcDbEntity
8
caps
6
ByLayer
62
7
370
-1
100
AcDbLine
10
41
20
88
11
59
21
88
0
LINE
5
30B
100
AcDbEntity
8
caps
6
ByLayer
62
7
370
-1
100
AcDbLine
10
59
20
88
11
59
21
70
0
LINE
5
30C
100
AcDbEntity
8
caps
6
ByLayer
62
1
370
-1
100
AcDbLine
10
126.5
20
31
11
144.5
21
31
0
LINE
5
30D
100
AcDbEntity
8
caps
6
ByLayer
62
1
370
-1
100
AcDbLine
10
144.5
20
31
11
144.5
21
13
0
LINE
5
30E
100
AcDbEntity
8
caps
6
ByLayer
62
1
370
-1
100
AcDbLine
10
144.5
20
13
11
126.5
21
13
0
LINE
5
30F
100
AcDbEntity
8
caps
6
ByLayer
62
1
370
-1
100
AcDbLine
10
126.5
20
13
11
126.5
21
31
0
LINE
5
310
100
AcDbEntity
8
caps
6
ByLayer
62
7
370
-1
100
AcDbLine
10
41
20
88
11
43
21
87
0
LINE
5
311
100
AcDbEntity
8
caps
6
ByLayer
62
7
370
-1
100
AcDbLine
10
43
20
87
11
57
21
87
0
LINE
5
312
100
AcDbEntity
8
caps
6
ByLayer
62
7
370
-1
100
AcDbLine
10
57
20
87
11
59
21
88
0
LINE
5
313
100
AcDbEntity
8
caps
6
ByLayer
62
7
370
-1
100
AcDbLine
10
57
20
87
11
57
21
73
0
LINE
5
314
100
AcDbEntity
8
caps
6
ByLayer
62
7
370
-1
100
AcDbLine
10
57
20
73
11
43
21
73
0
LINE
5
315
100
AcDbEntity
8
caps
6
ByLayer
62
7
370
-1
100
AcDbLine
10
43
20
73
11
43
21
87
0
LINE
5
316
100
AcDbEntity
8
caps
6
ByLayer
62
7
370
-1
100
AcDbLine
10
43
20
73
11
41
21
70
0
LINE
5
317
100
AcDbEntity
8
caps
6
ByLayer
62
7
370
-1
100
AcDbLine
10
57
20
73
11
59
21
70
0
LINE
5
318
100
AcDbEntity
8
caps
6
ByLayer
62
7
370
-1
100
AcDbLine
10
78
20
70
11
60
21
70
0
LINE
5
319
100
AcDbEntity
8
caps
6
ByLayer
62
7
370
-1
100
AcDbLine
10
60
20
70
11
60
21
88
0
LINE
5
31A
100
AcDbEntity
8
caps
6
ByLayer
62
7
370
-1
100
AcDbLine
10
60
20
88
11
78
21
88
0
LINE
5
31B
100
AcDbEntity
8
caps
6
ByLayer
62
7
370
-1
100
AcDbLine
10
78
20
88
11
78
21
70
0
LINE
5
31C
100
AcDbEntity
8
caps
6
ByLayer
62
7
370
-1
100
AcDbLine
10
60
20
88
11
62
21
87
0
LINE
5
31D
100
AcDbEntity
8
caps
6
ByLayer
62
7
370
-1
100
AcDbLine
10
62
20
87
11
76
21
87
0
LINE
5
31E
100
AcDbEntity
8
caps
6
ByLayer
62
7
370
-1
100
AcDbLine
10
76
20
87
11
78
21
88
0
LINE
5
31F
100
AcDbEntity
8
caps
6
ByLayer
62
7
370
-1
100
AcDbLine
10
76
20
87
11
76
21
73
0
LINE
5
320
100
AcDbEntity
8
caps
6
ByLayer
62
7
370
-1
100
AcDbLine
10
76
20
73
11
62
21
73
0
LINE
5
321
100
AcDbEntity
8
caps
6
ByLayer
62
7
370
-1
100
AcDbLine
10
62
20
73
11
62
21
87
0
LINE
5
322
100
AcDbEntity
8
caps
6
ByLayer
62
7
370
-1
100
AcDbLine
10
62
20
73
11
60
21
70
0
LINE
5
323
100
AcDbEntity
8
caps
6
ByLayer
62
7
370
-1
100
AcDbLine
10
76
20
73
11
78
21
70
0
LINE
5
324
100
AcDbEntity
8
caps
6
ByLayer
62
7
370
-1
100
AcDbLine
10
97
20
70
11
79
21
70
0
LINE
5
325
100
AcDbEntity
8
caps
6
ByLayer
62
7
370
-1
100
AcDbLine
10
79
20
70
11
79
21
88
0
LINE
5
326
100
AcDbEntity
8
caps
6
ByLayer
62
7
370
-1
100
AcDbLine
10
79
20
88
11
97
21
88
0
LINE
5
327
100
AcDbEntity
8
caps
6
ByLayer
62
7
370
-1
100
AcDbLine
10
97
20
88
11
97
21
70
0
LINE
5
328
100
AcDbEntity
8
caps
6
ByLayer
62
7
370
-1
100
AcDbLine
10
79
20
88
11
81
21
87
0
LINE
5
329
100
AcDbEntity
8
caps
6
ByLayer
62
7
370
-1
100
AcDbLine
10
81
20
87
11
95
21
87
0
LINE
5
32A
100
AcDbEntity
8
caps
6
ByLayer
62
7
370
-1
100
AcDbLine
10
95
20
87
11
97
21
88
0
LINE
5
32B
100
AcDbEntity
8
caps
6
ByLayer
62
7
370
-1
100
AcDbLine
10
95
20
87
11
95
21
73
0
LINE
5
32C
100
AcDbEntity
8
caps
6
ByLayer
62
7
370
-1
100
AcDbLine
10
95
20
73
11
81
21
73
0
LINE
5
32D
100
AcDbEntity
8
caps
6
ByLayer
62
7
370
-1
100
AcDbLine
10
81
20
73
11
81
21
87
0
LINE
5
32E
100
AcDbEntity
8
caps
6
ByLayer
62
7
370
-1
100
AcDbLine
10
81
20
73
11
79
21
70
0
LINE
5
32F
100
AcDbEntity
8
caps
6
ByLayer
62
7
370
-1
100
AcDbLine
10
95
20
73
11
97
21
70
0
LINE
5
330
100
AcDbEntity
8
caps
6
ByLayer
62
7
370
-1
100
AcDbLine
10
116
20
70
11
98
21
70
0
LINE
5
331
100
AcDbEntity
8
caps
6
ByLayer
62
7
370
-1
100
AcDbLine
10
98
20
70
11
98
21
88
0
LINE
5
332
100
AcDbEntity
8
caps
6
ByLayer
62
7
370
-1
100
AcDbLine
10
98
20
88
11
116
21
88
0
LINE
5
333
100
AcDbEntity
8
caps
6
ByLayer
62
7
370
-1
100
AcDbLine
10
116
20
88
11
116
21
70
0
LINE
5
334
100
AcDbEntity
8
caps
6
ByLayer
62
7
370
-1
100
AcDbLine
10
98
20
88
11
100
21
87
0
LINE
5
335
100
AcDbEntity
8
caps
6
ByLayer
62
7
370
-1
100
AcDbLine
10
100
20
87
11
114
21
87
0
LINE
5
336
100
AcDbEntity
8
caps
6
ByLayer
62
7
370
-1
100
AcDbLine
10
114
20
87
11
116
21
88
0
LINE
5
337
100
AcDbEntity
8
caps
6
ByLayer
62
7
370
-1
100
AcDbLine
10
114
20
87
11
114
21
73
0
LINE
5
338
100
AcDbEntity
8
caps
6
ByLayer
62
7
370
-1
100
AcDbLine
10
114
20
73
11
100
21
73
0
LINE
5
339
100
AcDbEntity
8
caps
6
ByLayer
62
7
370
-1
100
AcDbLine
10
100
20
73
11
100
21
87
0
LINE
5
33A
100
AcDbEntity
8
caps
6
ByLayer
62
7
370
-1
100
AcDbLine
10
100
20
73
11
98
21
70
0
LINE
5
33B
100
AcDbEntity
8
caps
6
ByLayer
62
7
370
-1
100
AcDbLine
10
114
20
73
11
116
21
70
0
LINE
5
33C
100
AcDbEntity
8
caps
6
ByLayer
62
7
370
-1
100
AcDbLine
10
135
20
70
11
117
21
70
0
LINE
5
33D
100
AcDbEntity
8
caps
6
ByLayer
62
7
370
-1
100
AcDbLine
10
117
20
70
11
117
21
88
0
LINE
5
33E
100
AcDbEntity
8
caps
6
ByLayer
62
7
370
-1
100
AcDbLine
10
117
20
88
11
135
21
88
0
LINE
5
33F
100
AcDbEntity
8
caps
6
ByLayer
62
7
370
-1
100
AcDbLine
10
135
20
88
11
135
21
70
0
LINE
5
340
100
AcDbEntity
8
caps
6
ByLayer
62
7
370
-1
100
AcDbLine
10
117
20
88
11
119
21
87
0
LINE
5
341
100
AcDbEntity
8
caps
6
ByLayer
62
7
370
-1
100
AcDbLine
10
119
20
87
11
133
21
87
0
LINE
5
342
100
AcDbEntity
8
caps
6
ByLayer
62
7
370
-1
100
AcDbLine
10
133
20
87
11
135
21
88
0
LINE
5
343
100
AcDbEntity
8
caps
6
ByLayer
62
7
370
-1
100
AcDbLine
10
133
20
87
11
133
21
73
0
LINE
5
344
100
AcDbEntity
8
caps
6
ByLayer
62
7
370
-1
100
AcDbLine
10
133
20
73
11
119
21
73
0
LINE
5
345
100
AcDbEntity
8
caps
6
ByLayer
62
7
370
-1
100
AcDbLine
10
119
20
73
11
119
21
87
0
LINE
5
346
100
AcDbEntity
8
caps
6
ByLayer
62
7
370
-1
100
AcDbLine
10
119
20
73
11
117
21
70
0
LINE
5
347
100
AcDbEntity
8
caps
6
ByLayer
62
7
370
-1
100
AcDbLine
10
133
20
73
11
135
21
70
0
LINE
5
348
100
AcDbEntity
8
caps
6
ByLayer
62
7
370
-1
100
AcDbLine
10
154
20
70
11
136
21
70
0
LINE
5
349
100
AcDbEntity
8
caps
6
ByLayer
62
7
370
-1
100
AcDbLine
10
136
20
70
11
136
21
88
0
LINE
5
34A
100
AcDbEntity
8
caps
6
ByLayer
62
7
370
-1
100
AcDbLine
10
136
20
88
11
154
21
88
0
LINE
5
34B
100
AcDbEntity
8
caps
6
ByLayer
62
7
370
-1
100
AcDbLine
10
154
20
88
11
154
21
70
0
LINE
5
34C
100
AcDbEntity
8
caps
6
ByLayer
62
7
370
-1
100
AcDbLine
10
136
20
88
11
138
21
87
0
LINE
5
34D
100
AcDbEntity
8
caps
6
ByLayer
62
7
370
-1
100
AcDbLine
10
138
20
87
11
152
21
87
0
LINE
5
34E
100
AcDbEntity
8
caps
6
ByLayer
62
7
370
-1
100
AcDbLine
10
152
20
87
11
154
21
88
0
LINE
5
34F
100
AcDbEntity
8
caps
6
ByLayer
62
7
370
-1
100
AcDbLine
10
152
20
87
11
152
21
73
0
LINE
5
350
100
AcDbEntity
8
caps
6
ByLayer
62
7
370
-1
100
AcDbLine
10
152
20
73
11
138
21
73
0
LINE
5
351
100
AcDbEntity
8
caps
6
ByLayer
62
7
370
-1
100
AcDbLine
10
138
20
73
11
138
21
87
0
LINE
5
352
100
AcDbEntity
8
caps
6
ByLayer
62
7
370
-1
100
AcDbLine
10
138
20
73
11
136
21
70
0
LINE
5
353
100
AcDbEntity
8
caps
6
ByLayer
62
7
370
-1
100
AcDbLine
10
152
20
73
11
154
21
70
0
LINE
5
354
100
AcDbEntity
8
caps
6
ByLayer
62
7
370
-1
100
AcDbLine
10
173
20
70
11
155
21
70
0
LINE
5
355
100
AcDbEntity
8
caps
6
ByLayer
62
7
370
-1
100
AcDbLine
10
155
20
70
11
155
21
88
0
LINE
5
356
100
AcDbEntity
8
caps
6
ByLayer
62
7
370
-1
100
AcDbLine
10
155
20
88
11
173
21
88
0
LINE
5
357
100
AcDbEntity
8
caps
6
ByLayer
62
7
370
-1
100
AcDbLine
10
173
20
88
11
173
21
70
0
LINE
5
358
100
AcDbEntity
8
caps
6
ByLayer
62
7
370
-1
100
AcDbLine
10
155
20
88
11
157
21
87
0
LINE
5
359
100
AcDbEntity
8
caps
6
ByLayer
62
7
370
-1
100
AcDbLine
10
157
20
87
11
171
21
87
0
LINE
5
35A
100
AcDbEntity
8
caps
6
ByLayer
62
7
370
-1
100
AcDbLine
10
171
20
87
11
173
21
88
0
LINE
5
35B
100
AcDbEntity
8
caps
6
ByLayer
62
7
370
-1
100
AcDbLine
10
171
20
87
11
171
21
73
0
LINE
5
35C
100
AcDbEntity
8
caps
6
ByLayer
62
7
370
-1
100
AcDbLine
10
171
20
73
11
157
21
73
0
LINE
5
35D
100
AcDbEntity
8
caps
6
ByLayer
62
7
370
-1
100
AcDbLine
10
157
20
73
11
157
21
87
0
LINE
5
35E
100
AcDbEntity
8
caps
6
ByLayer
62
7
370
-1
100
AcDbLine
10
157
20
73
11
155
21
70
0
LINE
5
35F
100
AcDbEntity
8
caps
6
ByLayer
62
7
370
-1
100
AcDbLine
10
171
20
73
11
173
21
70
0
LINE
5
360
100
AcDbEntity
8
caps
6
ByLayer
62
7
370
-1
100
AcDbLine
10
192
20
70
11
174
21
70
0
LINE
5
361
100
AcDbEntity
8
caps
6
ByLayer
62
7
370
-1
100
AcDbLine
10
174
20
70
11
174
21
88
0
LINE
5
362
100
AcDbEntity
8
caps
6
ByLayer
62
7
370
-1
100
AcDbLine
10
174
20
88
11
192
21
88
0
LINE
5
363
100
AcDbEntity
8
caps
6
ByLayer
62
7
370
-1
100
AcDbLine
10
192
20
88
11
192
21
70
0
LINE
5
364
100
AcDbEntity
8
caps
6
ByLayer
62
7
370
-1
100
AcDbLine
10
174
20
88
11
176
21
87
0
LINE
5
365
100
AcDbEntity
8
caps
6
ByLayer
62
7
370
-1
100
AcDbLine
10
176
20
87
11
190
21
87
0
LINE
5
366
100
AcDbEntity
8
caps
6
ByLayer
62
7
370
-1
100
AcDbLine
10
190
20
87
11
192
21
88
0
LINE
5
367
100
AcDbEntity
8
caps
6
ByLayer
62
7
370
-1
100
AcDbLine
10
190
20
87
11
190
21
73
0
LINE
5
368
100
AcDbEntity
8
caps
6
ByLayer
62
7
370
-1
100
AcDbLine
10
190
20
73
11
176
21
73
0
LINE
5
369
100
AcDbEntity
8
caps
6
ByLayer
62
7
370
-1
100
AcDbLine
10
176
20
73
11
176
21
87
0
LINE
5
36A
100
AcDbEntity
8
caps
6
ByLayer
62
7
370
-1
100
AcDbLine
10
176
20
73
11
174
21
70
0
LINE
5
36B
100
AcDbEntity
8
caps
6
ByLayer
62
7
370
-1
100
AcDbLine
10
190
20
73
11
192
21
70
0
LINE
5
36C
100
AcDbEntity
8
caps
6
ByLayer
62
7
370
-1
100
AcDbLine
10
211
20
70
11
193
21
70
0
LINE
5
36D
100
AcDbEntity
8
caps
6
ByLayer
62
7
370
-1
100
AcDbLine
10
193
20
70
11
193
21
88
0
LINE
5
36E
100
AcDbEntity
8
caps
6
ByLayer
62
7
370
-1
100
AcDbLine
10
193
20
88
11
211
21
88
0
LINE
5
36F
100
AcDbEntity
8
caps
6
ByLayer
62
7
370
-1
100
AcDbLine
10
211
20
88
11
211
21
70
0
LINE
5
370
100
AcDbEntity
8
caps
6
ByLayer
62
7
370
-1
100
AcDbLine
10
193
20
88
11
195
21
87
0
LINE
5
371
100
AcDbEntity
8
caps
6
ByLayer
62
7
370
-1
100
AcDbLine
10
195
20
87
11
209
21
87
0
LINE
5
372
100
AcDbEntity
8
caps
6
ByLayer
62
7
370
-1
100
AcDbLine
10
209
20
87
11
211
21
88
0
LINE
5
373
100
AcDbEntity
8
caps
6
ByLayer
62
7
370
-1
100
AcDbLine
10
209
20
87
11
209
21
73
0
LINE
5
374
100
AcDbEntity
8
caps
6
ByLayer
62
7
370
-1
100
AcDbLine
10
209
20
73
11
195
21
73
0
LINE
5
375
100
AcDbEntity
8
caps
6
ByLayer
62
7
370
-1
100
AcDbLine
10
195
20
73
11
195
21
87
0
LINE
5
376
100
AcDbEntity
8
caps
6
ByLayer
62
7
370
-1
100
AcDbLine
10
195
20
73
11
193
21
70
0
LINE
5
377
100
AcDbEntity
8
caps
6
ByLayer
62
7
370
-1
100
AcDbLine
10
209
20
73
11
211
21
70
0
LINE
5
378
100
AcDbEntity
8
caps
6
ByLayer
62
7
370
-1
100
AcDbLine
10
230
20
70
11
212
21
70
0
LINE
5
379
100
AcDbEntity
8
caps
6
ByLayer
62
7
370
-1
100
AcDbLine
10
212
20
70
11
212
21
88
0
LINE
5
37A
100
AcDbEntity
8
caps
6
ByLayer
62
7
370
-1
100
AcDbLine
10
212
20
88
11
230
21
88
0
LINE
5
37B
100
AcDbEntity
8
caps
6
ByLayer
62
7
370
-1
100
AcDbLine
10
230
20
88
11
230
21
70
0
LINE
5
37C
100
AcDbEntity
8
caps
6
ByLayer
62
7
370
-1
100
AcDbLine
10
212
20
88
11
214
21
87
0
LINE
5
37D
100
AcDbEntity
8
caps
6
ByLayer
62
7
370
-1
100
AcDbLine
10
214
20
87
11
228
21
87
0
LINE
5
37E
100
AcDbEntity
8
caps
6
ByLayer
62
7
370
-1
100
AcDbLine
10
228
20
87
11
230
21
88
0
LINE
5
37F
100
AcDbEntity
8
caps
6
ByLayer
62
7
370
-1
100
AcDbLine
10
228
20
87
11
228
21
73
0
LINE
5
380
100
AcDbEntity
8
caps
6
ByLayer
62
7
370
-1
100
AcDbLine
10
228
20
73
11
214
21
73
0
LINE
5
381
100
AcDbEntity
8
caps
6
ByLayer
62
7
370
-1
100
AcDbLine
10
214
20
73
11
214
21
87
0
LINE
5
382
100
AcDbEntity
8
caps
6
ByLayer
62
7
370
-1
100
AcDbLine
10
214
20
73
11
212
21
70
0
LINE
5
383
100
AcDbEntity
8
caps
6
ByLayer
62
7
370
-1
100
AcDbLine
10
228
20
73
11
230
21
70
0
LINE
5
384
100
AcDbEntity
8
caps
6
ByLayer
62
7
370
-1
100
AcDbLine
10
59
20
51
11
41
21
51
0
LINE
5
385
100
AcDbEntity
8
caps
6
ByLayer
62
7
370
-1
100
AcDbLine
10
41
20
51
11
41
21
69
0
LINE
5
386
100
AcDbEntity
8
caps
6
ByLayer
62
7
370
-1
100
AcDbLine
10
41
20
69
11
59
21
69
0
LINE
5
387
100
AcDbEntity
8
caps
6
ByLayer
62
7
370
-1
100
AcDbLine
10
59
20
69
11
59
21
51
0
LINE
5
388
100
AcDbEntity
8
caps
6
ByLayer
62
7
370
-1
100
AcDbLine
10
41
20
69
11
43
21
68
0
LINE
5
389
100
AcDbEntity
8
caps
6
ByLayer
62
7
370
-1
100
AcDbLine
10
43
20
68
11
57
21
68
0
LINE
5
38A
100
AcDbEntity
8
caps
6
ByLayer
62
7
370
-1
100
AcDbLine
10
57
20
68
11
59
21
69
0
LINE
5
38B
100
AcDbEntity
8
caps
6
ByLayer
62
7
370
-1
100
AcDbLine
10
57
20
68
11
57
21
54
0
LINE
5
38C
100
AcDbEntity
8
caps
6
ByLayer
62
7
370
-1
100
AcDbLine
10
57
20
54
11
43
21
54
0
LINE
5
38D
100
AcDbEntity
8
caps
6
ByLayer
62
7
370
-1
100
AcDbLine
10
43
20
54
11
43
21
68
0
LINE
5
38E
100
AcDbEntity
8
caps
6
ByLayer
62
7
370
-1
100
AcDbLine
10
43
20
54
11
41
21
51
0
LINE
5
38F
100
AcDbEntity
8
caps
6
ByLayer
62
7
370
-1
100
AcDbLine
10
57
20
54
11
59
21
51
0
LINE
5
390
100
AcDbEntity
8
caps
6
ByLayer
62
7
370
-1
100
AcDbLine
10
78
20
51
11
60
21
51
0
LINE
5
391
100
AcDbEntity
8
caps
6
ByLayer
62
7
370
-1
100
AcDbLine
10
60
20
51
11
60
21
69
0
LINE
5
392
100
AcDbEntity
8
caps
6
ByLayer
62
7
370
-1
100
AcDbLine
10
60
20
69
11
78
21
69
0
LINE
5
393
100
AcDbEntity
8
caps
6
ByLayer
62
7
370
-1
100
AcDbLine
10
78
20
69
11
78
21
51
0
LINE
5
394
100
AcDbEntity
8
caps
6
ByLayer
62
7
370
-1
100
AcDbLine
10
60
20
69
11
62
21
68
0
LINE
5
395
100
AcDbEntity
8
caps
6
ByLayer
62
7
370
-1
100
AcDbLine
10
62
20
68
11
76
21
68
0
LINE
5
396
100
AcDbEntity
8
caps
6
ByLayer
62
7
370
-1
100
AcDbLine
10
76
20
68
11
78
21
69
0
LINE
5
397
100
AcDbEntity
8
caps
6
ByLayer
62
7
370
-1
100
AcDbLine
10
76
20
68
11
76
21
54
0
LINE
5
398
100
AcDbEntity
8
caps
6
ByLayer
62
7
370
-1
100
AcDbLine
10
76
20
54
11
62
21
54
0
LINE
5
399
100
AcDbEntity
8
caps
6
ByLayer
62
7
370
-1
100
AcDbLine
10
62
20
54
11
62
21
68
0
LINE
5
39A
100
AcDbEntity
8
caps
6
ByLayer
62
7
370
-1
100
AcDbLine
10
62
20
54
11
60
21
51
0
LINE
5
39B
100
AcDbEntity
8
caps
6
ByLayer
62
7
370
-1
100
AcDbLine
10
76
20
54
11
78
21
51
0
LINE
5
39C
100
AcDbEntity
8
caps
6
ByLayer
62
7
370
-1
100
AcDbLine
10
97
20
51
11
79
21
51
0
LINE
5
39D
100
AcDbEntity
8
caps
6
ByLayer
62
7
370
-1
100
AcDbLine
10
79
20
51
11
79
21
69
0
LINE
5
39E
100
AcDbEntity
8
caps
6
ByLayer
62
7
370
-1
100
AcDbLine
10
79
20
69
11
97
21
69
0
LINE
5
39F
100
AcDbEntity
8
caps
6
ByLayer
62
7
370
-1
100
AcDbLine
10
97
20
69
11
97
21
51
0
LINE
5
3A0
100
AcDbEntity
8
caps
6
ByLayer
62
7
370
-1
100
AcDbLine
10
79
20
69
11
81
21
68
0
LINE
5
3A1
100
AcDbEntity
8
caps
6
ByLayer
62
7
370
-1
100
AcDbLine
10
81
20
68
11
95
21
68
0
LINE
5
3A2
100
AcDbEntity
8
caps
6
ByLayer
62
7
370
-1
100
AcDbLine
10
95
20
68
11
97
21
69
0
LINE
5
3A3
100
AcDbEntity
8
caps
6
ByLayer
62
7
370
-1
100
AcDbLine
10
95
20
68
11
95
21
54
0
LINE
5
3A4
100
AcDbEntity
8
caps
6
ByLayer
62
7
370
-1
100
AcDbLine
10
95
20
54
11
81
21
54
0
LINE
5
3A5
100
AcDbEntity
8
caps
6
ByLayer
62
7
370
-1
100
AcDbLine
10
81
20
54
11
81
21
68
0
LINE
5
3A6
100
AcDbEntity
8
caps
6
ByLayer
62
7
370
-1
100
AcDbLine
10
81
20
54
11
79
21
51
0
LINE
5
3A7
100
AcDbEntity
8
caps
6
ByLayer
62
7
370
-1
100
AcDbLine
10
95
20
54
11
97
21
51
0
LINE
5
3A8
100
AcDbEntity
8
caps
6
ByLayer
62
7
370
-1
100
AcDbLine
10
135
20
51
11
117
21
51
0
LINE
5
3A9
100
AcDbEntity
8
caps
6
ByLayer
62
7
370
-1
100
AcDbLine
10
117
20
51
11
117
21
69
0
LINE
5
3AA
100
AcDbEntity
8
caps
6
ByLayer
62
7
370
-1
100
AcDbLine
10
117
20
69
11
135
21
69
0
LINE
5
3AB
100
AcDbEntity
8
caps
6
ByLayer
62
7
370
-1
100
AcDbLine
10
135
20
69
11
135
21
51
0
LINE
5
3AC
100
AcDbEntity
8
caps
6
ByLayer
62
7
370
-1
100
AcDbLine
10
117
20
69
11
119
21
68
0
LINE
5
3AD
100
AcDbEntity
8
caps
6
ByLayer
62
7
370
-1
100
AcDbLine
10
119
20
68
11
133
21
68
0
LINE
5
3AE
100
AcDbEntity
8
caps
6
ByLayer
62
7
370
-1
100
AcDbLine
10
133
20
68
11
135
21
69
0
LINE
5
3AF
100
AcDbEntity
8
caps
6
ByLayer
62
7
370
-1
100
AcDbLine
10
133
20
68
11
133
21
54
0
LINE
5
3B0
100
AcDbEntity
8
caps
6
ByLayer
62
7
370
-1
100
AcDbLine
10
133
20
54
11
119
21
54
0
LINE
5
3B1
100
AcDbEntity
8
caps
6
ByLayer
62
7
370
-1
100
AcDbLine
10
119
20
54
11
119
21
68
0
LINE
5
3B2
100
AcDbEntity
8
caps
6
ByLayer
62
7
370
-1
100
AcDbLine
10
119
20
54
11
117
21
51
0
LINE
5
3B3
100
AcDbEntity
8
caps
6
ByLayer
62
7
370
-1
100
AcDbLine
10
133
20
54
11
135
21
51
0
LINE
5
3B4
100
AcDbEntity
8
caps
6
ByLayer
62
7
370
-1
100
AcDbLine
10
154
20
51
11
136
21
51
0
LINE
5
3B5
100
AcDbEntity
8
caps
6
ByLayer
62
7
370
-1
100
AcDbLine
10
136
20
51
11
136
21
69
0
LINE
5
3B6
100
AcDbEntity
8
caps
6
ByLayer
62
7
370
-1
100
AcDbLine
10
136
20
69
11
154
21
69
0
LINE
5
3B7
100
AcDbEntity
8
caps
6
ByLayer
62
7
370
-1
100
AcDbLine
10
154
20
69
11
154
21
51
0
LINE
5
3B8
100
AcDbEntity
8
caps
6
ByLayer
62
7
370
-1
100
AcDbLine
10
136
20
69
11
138
21
68
0
LINE
5
3B9
100
AcDbEntity
8
caps
6
ByLayer
62
7
370
-1
100
AcDbLine
10
138
20
68
11
152
21
68
0
LINE
5
3BA
100
AcDbEntity
8
caps
6
ByLayer
62
7
370
-1
100
AcDbLine
10
152
20
68
11
154
21
69
0
LINE
5
3BB
100
AcDbEntity
8
caps
6
ByLayer
62
7
370
-1
100
AcDbLine
10
152
20
68
11
152
21
54
0
LINE
5
3BC
100
AcDbEntity
8
caps
6
ByLayer
62
7
370
-1
100
AcDbLine
10
152
20
54
11
138
21
54
0
LINE
5
3BD
100
AcDbEntity
8
caps
6
ByLayer
62
7
370
-1
100
AcDbLine
10
138
20
54
11
138
21
68
0
LINE
5
3BE
100
AcDbEntity
8
caps
6
ByLayer
62
7
370
-1
100
AcDbLine
10
138
20
54
11
136
21
51
0
LINE
5
3BF
100
AcDbEntity
8
caps
6
ByLayer
62
7
370
-1
100
AcDbLine
10
152
20
54
11
154
21
51
0
LINE
5
3C0
100
AcDbEntity
8
caps
6
ByLayer
62
7
370
-1
100
AcDbLine
10
192
20
51
11
174
21
51
0
LINE
5
3C1
100
AcDbEntity
8
caps
6
ByLayer
62
7
370
-1
100
AcDbLine
10
174
20
51
11
174
21
69
0
LINE
5
3C2
100
AcDbEntity
8
caps
6
ByLayer
62
7
370
-1
100
AcDbLine
10
174
20
69
11
192
21
69
0
LINE
5
3C3
100
AcDbEntity
8
caps
6
ByLayer
62
7
370
-1
100
AcDbLine
10
192
20
69
11
192
21
51
0
LINE
5
3C4
100
AcDbEntity
8
caps
6
ByLayer
62
7
370
-1
100
AcDbLine
10
174
20
69
11
176
21
68
0
LINE
5
3C5
100
AcDbEntity
8
caps
6
ByLayer
62
7
370
-1
100
AcDbLine
10
176
20
68
11
190
21
68
0
LINE
5
3C6
100
AcDbEntity
8
caps
6
ByLayer
62
7
370
-1
100
AcDbLine
10
190
20
68
11
192
21
69
0
LINE
5
3C7
100
AcDbEntity
8
caps
6
ByLayer
62
7
370
-1
100
AcDbLine
10
190
20
68
11
190
21
54
0
LINE
5
3C8
100
AcDbEntity
8
caps
6
ByLayer
62
7
370
-1
100
AcDbLine
10
190
20
54
11
176
21
54
0
LINE
5
3C9
100
AcDbEntity
8
caps
6
ByLayer
62
7
370
-1
100
AcDbLine
10
176
20
54
11
176
21
68
0
LINE
5
3CA
100
AcDbEntity
8
caps
6
ByLayer
62
7
370
-1
100
AcDbLine
10
176
20
54
11
174
21
51
0
LINE
5
3CB
100
AcDbEntity
8
caps
6
ByLayer
62
7
370
-1
100
AcDbLine
10
190
20
54
11
192
21
51
0
LINE
5
3CC
100
AcDbEntity
8
caps
6
ByLayer
62
7
370
-1
100
AcDbLine
10
211
20
51
11
193
21
51
0
LINE
5
3CD
100
AcDbEntity
8
caps
6
ByLayer
62
7
370
-1
100
AcDbLine
10
193
20
51
11
193
21
69
0
LINE
5
3CE
100
AcDbEntity
8
caps
6
ByLayer
62
7
370
-1
100
AcDbLine
10
193
20
69
11
211
21
69
0
LINE
5
3CF
100
AcDbEntity
8
caps
6
ByLayer
62
7
370
-1
100
AcDbLine
10
211
20
69
11
211
21
51
0
LINE
5
3D0
100
AcDbEntity
8
caps
6
ByLayer
62
7
370
-1
100
AcDbLine
10
193
20
69
11
195
21
68
0
LINE
5
3D1
100
AcDbEntity
8
caps
6
ByLayer
62
7
370
-1
100
AcDbLine
10
195
20
68
11
209
21
68
0
LINE
5
3D2
100
AcDbEntity
8
caps
6
ByLayer
62
7
370
-1
100
AcDbLine
10
209
20
68
11
211
21
69
0
LINE
5
3D3
100
AcDbEntity
8
caps
6
ByLayer
62
7
370
-1
100
AcDbLine
10
209
20
68
11
209
21
54
0
LINE
5
3D4
100
AcDbEntity
8
caps
6
ByLayer
62
7
370
-1
100
AcDbLine
10
209
20
54
11
195
21
54
0
LINE
5
3D5
100
AcDbEntity
8
caps
6
ByLayer
62
7
370
-1
100
AcDbLine
10
195
20
54
11
195
21
68
0
LINE
5
3D6
100
AcDbEntity
8
caps
6
ByLayer
62
7
370
-1
100
AcDbLine
10
195
20
54
11
193
21
51
0
LINE
5
3D7
100
AcDbEntity
8
caps
6
ByLayer
62
7
370
-1
100
AcDbLine
10
209
20
54
11
211
21
51
0
LINE
5
3D8
100
AcDbEntity
8
caps
6
ByLayer
62
7
370
-1
100
AcDbLine
10
78
20
32
11
60
21
32
0
LINE
5
3D9
100
AcDbEntity
8
caps
6
ByLayer
62
7
370
-1
100
AcDbLine
10
60
20
32
11
60
21
50
0
LINE
5
3DA
100
AcDbEntity
8
caps
6
ByLayer
62
7
370
-1
100
AcDbLine
10
60
20
50
11
78
21
50
0
LINE
5
3DB
100
AcDbEntity
8
caps
6
ByLayer
62
7
370
-1
100
AcDbLine
10
78
20
50
11
78
21
32
0
LINE
5
3DC
100
AcDbEntity
8
caps
6
ByLayer
62
7
370
-1
100
AcDbLine
10
60
20
50
11
62
21
49
0
LINE
5
3DD
100
AcDbEntity
8
caps
6
ByLayer
62
7
370
-1
100
AcDbLine
10
62
20
49
11
76
21
49
0
LINE
5
3DE
100
AcDbEntity
8
caps
6
ByLayer
62
7
370
-1
100
AcDbLine
10
76
20
49
11
78
21
50
0
LINE
5
3DF
100
AcDbEntity
8
caps
6
ByLayer
62
7
370
-1
100
AcDbLine
10
76
20
49
11
76
21
35
0
LINE
5
3E0
100
AcDbEntity
8
caps
6
ByLayer
62
7
370
-1
100
AcDbLine
10
76
20
35
11
62
21
35
0
LINE
5
3E1
100
AcDbEntity
8
caps
6
ByLayer
62
7
370
-1
100
AcDbLine
10
62
20
35
11
62
21
49
0
LINE
5
3E2
100
AcDbEntity
8
caps
6
ByLayer
62
7
370
-1
100
AcDbLine
10
62
20
35
11
60
21
32
0
LINE
5
3E3
100
AcDbEntity
8
caps
6
ByLayer
62
7
370
-1
100
AcDbLine
10
76
20
35
11
78
21
32
0
LINE
5
3E4
100
AcDbEntity
8
caps
6
ByLayer
62
7
370
-1
100
AcDbLine
10
97
20
32
11
79
21
32
0
LINE
5
3E5
100
AcDbEntity
8
caps
6
ByLayer
62
7
370
-1
100
AcDbLine
10
79
20
32
11
79
21
50
0
LINE
5
3E6
100
AcDbEntity
8
caps
6
ByLayer
62
7
370
-1
100
AcDbLine
10
79
20
50
11
97
21
50
0
LINE
5
3E7
100
AcDbEntity
8
caps
6
ByLayer
62
7
370
-1
100
AcDbLine
10
97
20
50
11
97
21
32
0
LINE
5
3E8
100
AcDbEntity
8
caps
6
ByLayer
62
7
370
-1
100
AcDbLine
10
79
20
50
11
81
21
49
0
LINE
5
3E9
100
AcDbEntity
8
caps
6
ByLayer
62
7
370
-1
100
AcDbLine
10
81
20
49
11
95
21
49
0
LINE
5
3EA
100
AcDbEntity
8
caps
6
ByLayer
62
7
370
-1
100
AcDbLine
10
95
20
49
11
97
21
50
0
LINE
5
3EB
100
AcDbEntity
8
caps
6
ByLayer
62
7
370
-1
100
AcDbLine
10
95
20
49
11
95
21
35
0
LINE
5
3EC
100
AcDbEntity
8
caps
6
ByLayer
62
7
370
-1
100
AcDbLine
10
95
20
35
11
81
21
35
0
LINE
5
3ED
100
AcDbEntity
8
caps
6
ByLayer
62
7
370
-1
100
AcDbLine
10
81
20
35
11
81
21
49
0
LINE
5
3EE
100
AcDbEntity
8
caps
6
ByLayer
62
7
370
-1
100
AcDbLine
10
81
20
35
11
79
21
32
0
LINE
5
3EF
100
AcDbEntity
8
caps
6
ByLayer
62
7
370
-1
100
AcDbLine
10
95
20
35
11
97
21
32
0
LINE
5
3F0
100
AcDbEntity
8
caps
6
ByLayer
62
7
370
-1
100
AcDbLine
10
116
20
32
11
98
21
32
0
LINE
5
3F1
100
AcDbEntity
8
caps
6
ByLayer
62
7
370
-1
100
AcDbLine
10
98
20
32
11
98
21
50
0
LINE
5
3F2
100
AcDbEntity
8
caps
6
ByLayer
62
7
370
-1
100
AcDbLine
10
98
20
50
11
116
21
50
0
LINE
5
3F3
100
AcDbEntity
8
caps
6
ByLayer
62
7
370
-1
100
AcDbLine
10
116
20
50
11
116
21
32
0
LINE
5
3F4
100
AcDbEntity
8
caps
6
ByLayer
62
7
370
-1
100
AcDbLine
10
98
20
50
11
100
21
49
0
LINE
5
3F5
100
AcDbEntity
8
caps
6
ByLayer
62
7
370
-1
100
AcDbLine
10
100
20
49
11
114
21
49
0
LINE
5
3F6
100
AcDbEntity
8
caps
6
ByLayer
62
7
370
-1
100
AcDbLine
10
114
20
49
11
116
21
50
0
LINE
5
3F7
100
AcDbEntity
8
caps
6
ByLayer
62
7
370
-1
100
AcDbLine
10
114
20
49
11
114
21
35
0
LINE
5
3F8
100
AcDbEntity
8
caps
6
ByLayer
62
7
370
-1
100
AcDbLine
10
114
20
35
11
100
21
35
0
LINE
5
3F9
100
AcDbEntity
8
caps
6
ByLayer
62
7
370
-1
100
AcDbLine
10
100
20
35
11
100
21
49
0
LINE
5
3FA
100
AcDbEntity
8
caps
6
ByLayer
62
7
370
-1
100
AcDbLine
10
100
20
35
11
98
21
32
0
LINE
5
3FB
100
AcDbEntity
8
caps
6
ByLayer
62
7
370
-1
100
AcDbLine
10
114
20
35
11
116
21
32
0
LINE
5
3FC
100
AcDbEntity
8
caps
6
ByLayer
62
7
370
-1
100
AcDbLine
10
135
20
32
11
117
21
32
0
LINE
5
3FD
100
AcDbEntity
8
caps
6
ByLayer
62
7
370
-1
100
AcDbLine
10
117
20
32
11
117
21
50
0
LINE
5
3FE
100
AcDbEntity
8
caps
6
ByLayer
62
7
370
-1
100
AcDbLine
10
117
20
50
11
135
21
50
0
LINE
5
3FF
100
AcDbEntity
8
caps
6
ByLayer
62
7
370
-1
100
AcDbLine
10
135
20
50
11
135
21
32
0
LINE
5
400
100
AcDbEntity
8
caps
6
ByLayer
62
7
370
-1
100
AcDbLine
10
117
20
50
11
119
21
49
0
LINE
5
401
100
AcDbEntity
8
caps
6
ByLayer
62
7
370
-1
100
AcDbLine
10
119
20
49
11
133
21
49
0
LINE
5
402
100
AcDbEntity
8
caps
6
ByLayer
62
7
370
-1
100
AcDbLine
10
133
20
49
11
135
21
50
0
LINE
5
403
100
AcDbEntity
8
caps
6
ByLayer
62
7
370
-1
100
AcDbLine
10
133
20
49
11
133
21
35
0
LINE
5
404
100
AcDbEntity
8
caps
6
ByLayer
62
7
370
-1
100
AcDbLine
10
133
20
35
11
119
21
35
0
LINE
5
405
100
AcDbEntity
8
caps
6
ByLayer
62
7
370
-1
100
AcDbLine
10
119
20
35
11
119
21
49
0
LINE
5
406
100
AcDbEntity
8
caps
6
ByLayer
62
7
370
-1
100
AcDbLine
10
119
20
35
11
117
21
32
0
LINE
5
407
100
AcDbEntity
8
caps
6
ByLayer
62
7
370
-1
100
AcDbLine
10
133
20
35
11
135
21
32
0
LINE
5
408
100
AcDbEntity
8
caps
6
ByLayer
62
7
370
-1
100
AcDbLine
10
154
20
32
11
136
21
32
0
LINE
5
409
100
AcDbEntity
8
caps
6
ByLayer
62
7
370
-1
100
AcDbLine
10
136
20
32
11
136
21
50
0
LINE
5
40A
100
AcDbEntity
8
caps
6
ByLayer
62
7
370
-1
100
AcDbLine
10
136
20
50
11
154
21
50
0
LINE
5
40B
100
AcDbEntity
8
caps
6
ByLayer
62
7
370
-1
100
AcDbLine
10
154
20
50
11
154
21
32
0
LINE
5
40C
100
AcDbEntity
8
caps
6
ByLayer
62
7
370
-1
100
AcDbLine
10
136
20
50
11
138
21
49
0
LINE
5
40D
100
AcDbEntity
8
caps
6
ByLayer
62
7
370
-1
100
AcDbLine
10
138
20
49
11
152
21
49
0
LINE
5
40E
100
AcDbEntity
8
caps
6
ByLayer
62
7
370
-1
100
AcDbLine
10
152
20
49
11
154
21
50
0
LINE
5
40F
100
AcDbEntity
8
caps
6
ByLayer
62
7
370
-1
100
AcDbLine
10
152
20
49
11
152
21
35
0
LINE
5
410
100
AcDbEntity
8
caps
6
ByLayer
62
7
370
-1
100
AcDbLine
10
152
20
35
11
138
21
35
0
LINE
5
411
100
AcDbEntity
8
caps
6
ByLayer
62
7
370
-1
100
AcDbLine
10
138
20
35
11
138
21
49
0
LINE
5
412
100
AcDbEntity
8
caps
6
ByLayer
62
7
370
-1
100
AcDbLine
10
138
20
35
11
136
21
32
0
LINE
5
413
100
AcDbEntity
8
caps
6
ByLayer
62
7
370
-1
100
AcDbLine
10
152
20
35
11
154
21
32
0
LINE
5
414
100
AcDbEntity
8
caps
6
ByLayer
62
7
370
-1
100
AcDbLine
10
173
20
32
11
155
21
32
0
LINE
5
415
100
AcDbEntity
8
caps
6
ByLayer
62
7
370
-1
100
AcDbLine
10
155
20
32
11
155
21
50
0
LINE
5
416
100
AcDbEntity
8
caps
6
ByLayer
62
7
370
-1
100
AcDbLine
10
155
20
50
11
173
21
50
0
LINE
5
417
100
AcDbEntity
8
caps
6
ByLayer
62
7
370
-1
100
AcDbLine
10
173
20
50
11
173
21
32
0
LINE
5
418
100
AcDbEntity
8
caps
6
ByLayer
62
7
370
-1
100
AcDbLine
10
155
20
50
11
157
21
49
0
LINE
5
419
100
AcDbEntity
8
caps
6
ByLayer
62
7
370
-1
100
AcDbLine
10
157
20
49
11
171
21
49
0
LINE
5
41A
100
AcDbEntity
8
caps
6
ByLayer
62
7
370
-1
100
AcDbLine
10
171
20
49
11
173
21
50
0
LINE
5
41B
100
AcDbEntity
8
caps
6
ByLayer
62
7
370
-1
100
AcDbLine
10
171
20
49
11
171
21
35
0
LINE
5
41C
100
AcDbEntity
8
caps
6
ByLayer
62
7
370
-1
100
AcDbLine
10
171
20
35
11
157
21
35
0
LINE
5
41D
100
AcDbEntity
8
caps
6
ByLayer
62
7
370
-1
100
AcDbLine
10
157
20
35
11
157
21
49
0
LINE
5
41E
100
AcDbEntity
8
caps
6
ByLayer
62
7
370
-1
100
AcDbLine
10
157
20
35
11
155
21
32
0
LINE
5
41F
100
AcDbEntity
8
caps
6
ByLayer
62
7
370
-1
100
AcDbLine
10
171
20
35
11
173
21
32
0
LINE
5
420
100
AcDbEntity
8
caps
6
ByLayer
62
7
370
-1
100
AcDbLine
10
192
20
32
11
174
21
32
0
LINE
5
421
100
AcDbEntity
8
caps
6
ByLayer
62
7
370
-1
100
AcDbLine
10
174
20
32
11
174
21
50
0
LINE
5
422
100
AcDbEntity
8
caps
6
ByLayer
62
7
370
-1
100
AcDbLine
10
174
20
50
11
192
21
50
0
LINE
5
423
100
AcDbEntity
8
caps
6
ByLayer
62
7
370
-1
100
AcDbLine
10
192
20
50
11
192
21
32
0
LINE
5
424
100
AcDbEntity
8
caps
6
ByLayer
62
7
370
-1
100
AcDbLine
10
174
20
50
11
176
21
49
0
LINE
5
425
100
AcDbEntity
8
caps
6
ByLayer
62
7
370
-1
100
AcDbLine
10
176
20
49
11
190
21
49
0
LINE
5
426
100
AcDbEntity
8
caps
6
ByLayer
62
7
370
-1
100
AcDbLine
10
190
20
49
11
192
21
50
0
LINE
5
427
100
AcDbEntity
8
caps
6
ByLayer
62
7
370
-1
100
AcDbLine
10
190
20
49
11
190
21
35
0
LINE
5
428
100
AcDbEntity
8
caps
6
ByLayer
62
7
370
-1
100
AcDbLine
10
190
20
35
11
176
21
35
0
LINE
5
429
100
AcDbEntity
8
caps
6
ByLayer
62
7
370
-1
100
AcDbLine
10
176
20
35
11
176
21
49
0
LINE
5
42A
100
AcDbEntity
8
caps
6
ByLayer
62
7
370
-1
100
AcDbLine
10
176
20
35
11
174
21
32
0
LINE
5
42B
100
AcDbEntity
8
caps
6
ByLayer
62
7
370
-1
100
AcDbLine
10
190
20
35
11
192
21
32
0
LINE
5
42C
100
AcDbEntity
8
caps
6
ByLayer
62
216
420
8388736
370
-1
100
AcDbLine
10
193
20
50
11
195
21
49
0
LINE
5
42D
100
AcDbEntity
8
caps
6
ByLayer
62
216
420
8388736
370
-1
100
AcDbLine
10
195
20
49
11
209
21
49
0
LINE
5
42E
100
AcDbEntity
8
caps
6
ByLayer
62
216
420
8388736
370
-1
100
AcDbLine
10
209
20
49
11
209
21
35
0
LINE
5
42F
100
AcDbEntity
8
caps
6
ByLayer
62
216
420
8388736
370
-1
100
AcDbLine
10
209
20
35
11
195
21
35
0
LINE
5
430
100
AcDbEntity
8
caps
6
ByLayer
62
216
420
8388736
370
-1
100
AcDbLine
10
195
20
35
11
195
21
49
0
LINE
5
431
100
AcDbEntity
8
caps
6
ByLayer
62
216
420
8388736
370
-1
100
AcDbLine
10
193
20
32
11
195
21
35
0
LINE
5
432
100
AcDbEntity
8
caps
6
ByLayer
62
216
420
8388736
370
-1
100
AcDbLine
10
211
20
32
11
209
21
35
0
LINE
5
433
100
AcDbEntity
8
caps
6
ByLayer
62
216
420
8388736
370
-1
100
AcDbLine
10
209
20
49
11
211
21
50
0
LINE
5
434
100
AcDbEntity
8
caps
6
ByLayer
62
216
420
8388736
370
-1
100
AcDbLine
10
230
20
32
11
212
21
32
0
LINE
5
435
100
AcDbEntity
8
caps
6
ByLayer
62
216
420
8388736
370
-1
100
AcDbLine
10
212
20
32
11
212
21
50
0
LINE
5
436
100
AcDbEntity
8
caps
6
ByLayer
62
216
420
8388736
370
-1
100
AcDbLine
10
212
20
50
11
230
21
50
0
LINE
5
437
100
AcDbEntity
8
caps
6
ByLayer
62
216
420
8388736
370
-1
100
AcDbLine
10
230
20
50
11
230
21
32
0
LINE
5
438
100
AcDbEntity
8
caps
6
ByLayer
62
216
420
8388736
370
-1
100
AcDbLine
10
212
20
50
11
214
21
49
0
LINE
5
439
100
AcDbEntity
8
caps
6
ByLayer
62
216
420
8388736
370
-1
100
AcDbLine
10
214
20
49
11
228
21
49
0
LINE
5
43A
100
AcDbEntity
8
caps
6
ByLayer
62
216
420
8388736
370
-1
100
AcDbLine
10
228
20
49
11
228
21
35
0
LINE
5
43B
100
AcDbEntity
8
caps
6
ByLayer
62
216
420
8388736
370
-1
100
AcDbLine
10
228
20
35
11
214
21
35
0
LINE
5
43C
100
AcDbEntity
8
caps
6
ByLayer
62
216
420
8388736
370
-1
100
AcDbLine
10
214
20
35
11
214
21
49
0
LINE
5
43D
100
AcDbEntity
8
caps
6
ByLayer
62
216
420
8388736
370
-1
100
AcDbLine
10
212
20
32
11
214
21
35
0
LINE
5
43E
100
AcDbEntity
8
caps
6
ByLayer
62
216
420
8388736
370
-1
100
AcDbLine
10
230
20
32
11
228
21
35
0
LINE
5
43F
100
AcDbEntity
8
caps
6
ByLayer
62
216
420
8388736
370
-1
100
AcDbLine
10
228
20
49
11
230
21
50
0
LINE
5
440
100
AcDbEntity
8
caps
6
ByLayer
62
216
420
8388736
370
-1
100
AcDbLine
10
249
20
32
11
231
21
32
0
LINE
5
441
100
AcDbEntity
8
caps
6
ByLayer
62
216
420
8388736
370
-1
100
AcDbLine
10
231
20
32
11
231
21
50
0
LINE
5
442
100
AcDbEntity
8
caps
6
ByLayer
62
216
420
8388736
370
-1
100
AcDbLine
10
231
20
50
11
249
21
50
0
LINE
5
443
100
AcDbEntity
8
caps
6
ByLayer
62
216
420
8388736
370
-1
100
AcDbLine
10
249
20
50
11
249
21
32
0
LINE
5
444
100
AcDbEntity
8
caps
6
ByLayer
62
216
420
8388736
370
-1
100
AcDbLine
10
231
20
50
11
233
21
49
0
LINE
5
445
100
AcDbEntity
8
caps
6
ByLayer
62
216
420
8388736
370
-1
100
AcDbLine
10
233
20
49
11
247
21
49
0
LINE
5
446
100
AcDbEntity
8
caps
6
ByLayer
62
216
420
8388736
370
-1
100
AcDbLine
10
247
20
49
11
247
21
35
0
LINE
5
447
100
AcDbEntity
8
caps
6
ByLayer
62
216
420
8388736
370
-1
100
AcDbLine
10
247
20
35
11
233
21
35
0
LINE
5
448
100
AcDbEntity
8
caps
6
ByLayer
62
216
420
8388736
370
-1
100
AcDbLine
10
233
20
35
11
233
21
49
0
LINE
5
449
100
AcDbEntity
8
caps
6
ByLayer
62
216
420
8388736
370
-1
100
AcDbLine
10
231
20
32
11
233
21
35
0
LINE
5
44A
100
AcDbEntity
8
caps
6
ByLayer
62
216
420
8388736
370
-1
100
AcDbLine
10
249
20
32
11
247
21
35
0
LINE
5
44B
100
AcDbEntity
8
caps
6
ByLayer
62
216
420
8388736
370
-1
100
AcDbLine
10
247
20
49
11
249
21
50
0
LINE
5
44C
100
AcDbEntity
8
caps
6
ByLayer
62
216
420
8388736
370
-1
100
AcDbLine
10
230
20
51
11
212
21
51
0
LINE
5
44D
100
AcDbEntity
8
caps
6
ByLayer
62
216
420
8388736
370
-1
100
AcDbLine
10
212
20
51
11
212
21
69
0
LINE
5
44E
100
AcDbEntity
8
caps
6
ByLayer
62
216
420
8388736
370
-1
100
AcDbLine
10
212
20
69
11
230
21
69
0
LINE
5
44F
100
AcDbEntity
8
caps
6
ByLayer
62
216
420
8388736
370
-1
100
AcDbLine
10
230
20
69
11
230
21
51
0
LINE
5
450
100
AcDbEntity
8
caps
6
ByLayer
62
216
420
8388736
370
-1
100
AcDbLine
10
212
20
69
11
214
21
68
0
LINE
5
451
100
AcDbEntity
8
caps
6
ByLayer
62
216
420
8388736
370
-1
100
AcDbLine
10
214
20
68
11
228
21
68
0
LINE
5
452
100
AcDbEntity
8
caps
6
ByLayer
62
216
420
8388736
370
-1
100
AcDbLine
10
228
20
68
11
228
21
54
0
LINE
5
453
100
AcDbEntity
8
caps
6
ByLayer
62
216
420
8388736
370
-1
100
AcDbLine
10
228
20
54
11
214
21
54
0
LINE
5
454
100
AcDbEntity
8
caps
6
ByLayer
62
216
420
8388736
370
-1
100
AcDbLine
10
214
20
54
11
214
21
68
0
LINE
5
455
100
AcDbEntity
8
caps
6
ByLayer
62
216
420
8388736
370
-1
100
AcDbLine
10
212
20
51
11
214
21
54
0
LINE
5
456
100
AcDbEntity
8
caps
6
ByLayer
62
216
420
8388736
370
-1
100
AcDbLine
10
230
20
51
11
228
21
54
0
LINE
5
457
100
AcDbEntity
8
caps
6
ByLayer
62
216
420
8388736
370
-1
100
AcDbLine
10
228
20
68
11
230
21
69
0
LINE
5
458
100
AcDbEntity
8
caps
6
ByLayer
62
216
420
8388736
370
-1
100
AcDbLine
10
249
20
51
11
231
21
51
0
LINE
5
459
100
AcDbEntity
8
caps
6
ByLayer
62
216
420
8388736
370
-1
100
AcDbLine
10
231
20
51
11
231
21
69
0
LINE
5
45A
100
AcDbEntity
8
caps
6
ByLayer
62
216
420
8388736
370
-1
100
AcDbLine
10
231
20
69
11
249
21
69
0
LINE
5
45B
100
AcDbEntity
8
caps
6
ByLayer
62
216
420
8388736
370
-1
100
AcDbLine
10
249
20
69
11
249
21
51
0
LINE
5
45C
100
AcDbEntity
8
caps
6
ByLayer
62
216
420
8388736
370
-1
100
AcDbLine
10
231
20
69
11
233
21
68
0
LINE
5
45D
100
AcDbEntity
8
caps
6
ByLayer
62
216
420
8388736
370
-1
100
AcDbLine
10
233
20
68
11
247
21
68
0
LINE
5
45E
100
AcDbEntity
8
caps
6
ByLayer
62
216
420
8388736
370
-1
100
AcDbLine
10
247
20
68
11
247
21
54
0
LINE
5
45F
100
AcDbEntity
8
caps
6
ByLayer
62
216
420
8388736
370
-1
100
AcDbLine
10
247
20
54
11
233
21
54
0
LINE
5
460
100
AcDbEntity
8
caps
6
ByLayer
62
216
420
8388736
370
-1
100
AcDbLine
10
233
20
54
11
233
21
68
0
LINE
5
461
100
AcDbEntity
8
caps
6
ByLayer
62
216
420
8388736
370
-1
100
AcDbLine
10
231
20
51
11
233
21
54
0
LINE
5
462
100
AcDbEntity
8
caps
6
ByLayer
62
216
420
8388736
370
-1
100
AcDbLine
10
249
20
51
11
247
21
54
0
LINE
5
463
100
AcDbEntity
8
caps
6
ByLayer
62
216
420
8388736
370
-1
100
AcDbLine
10
247
20
68
11
249
21
69
0
LINE
5
464
100
AcDbEntity
8
caps
6
ByLayer
62
216
420
8388736
370
-1
100
AcDbLine
10
268
20
51
11
250
21
51
0
LINE
5
465
100
AcDbEntity
8
caps
6
ByLayer
62
216
420
8388736
370
-1
100
AcDbLine
10
250
20
51
11
250
21
69
0
LINE
5
466
100
AcDbEntity
8
caps
6
ByLayer
62
216
420
8388736
370
-1
100
AcDbLine
10
250
20
69
11
268
21
69
0
LINE
5
467
100
AcDbEntity
8
caps
6
ByLayer
62
216
420
8388736
370
-1
100
AcDbLine
10
268
20
69
11
268
21
51
0
LINE
5
468
100
AcDbEntity
8
caps
6
ByLayer
62
216
420
8388736
370
-1
100
AcDbLine
10
250
20
69
11
252
21
68
0
LINE
5
469
100
AcDbEntity
8
caps
6
ByLayer
62
216
420
8388736
370
-1
100
AcDbLine
10
252
20
68
11
266
21
68
0
LINE
5
46A
100
AcDbEntity
8
caps
6
ByLayer
62
216
420
8388736
370
-1
100
AcDbLine
10
266
20
68
11
266
21
54
0
LINE
5
46B
100
AcDbEntity
8
caps
6
ByLayer
62
216
420
8388736
370
-1
100
AcDbLine
10
266
20
54
11
252
21
54
0
LINE
5
46C
100
AcDbEntity
8
caps
6
ByLayer
62
216
420
8388736
370
-1
100
AcDbLine
10
252
20
54
11
252
21
68
0
LINE
5
46D
100
AcDbEntity
8
caps
6
ByLayer
62
216
420
8388736
370
-1
100
AcDbLine
10
250
20
51
11
252
21
54
0
LINE
5
46E
100
AcDbEntity
8
caps
6
ByLayer
62
216
420
8388736
370
-1
100
AcDbLine
10
268
20
51
11
266
21
54
0
LINE
5
46F
100
AcDbEntity
8
caps
6
ByLayer
62
216
420
8388736
370
-1
100
AcDbLine
10
266
20
68
11
268
21
69
0
LINE
5
470
100
AcDbEntity
8
caps
6
ByLayer
62
216
420
8388736
370
-1
100
AcDbLine
10
249
20
70
11
231
21
70
0
LINE
5
471
100
AcDbEntity
8
caps
6
ByLayer
62
216
420
8388736
370
-1
100
AcDbLine
10
231
20
70
11
231
21
88
0
LINE
5
472
100
AcDbEntity
8
caps
6
ByLayer
62
216
420
8388736
370
-1
100
AcDbLine
10
231
20
88
11
249
21
88
0
LINE
5
473
100
AcDbEntity
8
caps
6
ByLayer
62
216
420
8388736
370
-1
100
AcDbLine
10
249
20
88
11
249
21
70
0
LINE
5
474
100
AcDbEntity
8
caps
6
ByLayer
62
216
420
8388736
370
-1
100
AcDbLine
10
231
20
88
11
233
21
87
0
LINE
5
475
100
AcDbEntity
8
caps
6
ByLayer
62
216
420
8388736
370
-1
100
AcDbLine
10
233
20
87
11
247
21
87
0
LINE
5
476
100
AcDbEntity
8
caps
6
ByLayer
62
216
420
8388736
370
-1
100
AcDbLine
10
247
20
87
11
247
21
73
0
LINE
5
477
100
AcDbEntity
8
caps
6
ByLayer
62
216
420
8388736
370
-1
100
AcDbLine
10
247
20
73
11
233
21
73
0
LINE
5
478
100
AcDbEntity
8
caps
6
ByLayer
62
216
420
8388736
370
-1
100
AcDbLine
10
233
20
73
11
233
21
87
0
LINE
5
479
100
AcDbEntity
8
caps
6
ByLayer
62
216
420
8388736
370
-1
100
AcDbLine
10
231
20
70
11
233
21
73
0
LINE
5
47A
100
AcDbEntity
8
caps
6
ByLayer
62
216
420
8388736
370
-1
100
AcDbLine
10
249
20
70
11
247
21
73
0
LINE
5
47B
100
AcDbEntity
8
caps
6
ByLayer
62
216
420
8388736
370
-1
100
AcDbLine
10
247
20
87
11
249
21
88
0
LINE
5
47C
100
AcDbEntity
8
caps
6
ByLayer
62
216
420
8388736
370
-1
100
AcDbLine
10
268
20
70
11
250
21
70
0
LINE
5
47D
100
AcDbEntity
8
caps
6
ByLayer
62
216
420
8388736
370
-1
100
AcDbLine
10
250
20
70
11
250
21
88
0
LINE
5
47E
100
AcDbEntity
8
caps
6
ByLayer
62
216
420
8388736
370
-1
100
AcDbLine
10
250
20
88
11
268
21
88
0
LINE
5
47F
100
AcDbEntity
8
caps
6
ByLayer
62
216
420
8388736
370
-1
100
AcDbLine
10
268
20
88
11
268
21
70
0
LINE
5
480
100
AcDbEntity
8
caps
6
ByLayer
62
216
420
8388736
370
-1
100
AcDbLine
10
250
20
88
11
252
21
87
0
LINE
5
481
100
AcDbEntity
8
caps
6
ByLayer
62
216
420
8388736
370
-1
100
AcDbLine
10
252
20
87
11
266
21
87
0
LINE
5
482
100
AcDbEntity
8
caps
6
ByLayer
62
216
420
8388736
370
-1
100
AcDbLine
10
266
20
87
11
266
21
73
0
LINE
5
483
100
AcDbEntity
8
caps
6
ByLayer
62
216
420
8388736
370
-1
100
AcDbLine
10
266
20
73
11
252
21
73
0
LINE
5
484
100
AcDbEntity
8
caps
6
ByLayer
62
216
420
8388736
370
-1
100
AcDbLine
10
252
20
73
11
252
21
87
0
LINE
5
485
100
AcDbEntity
8
caps
6
ByLayer
62
216
420
8388736
370
-1
100
AcDbLine
10
250
20
70
11
252
21
73
0
LINE
5
486
100
AcDbEntity
8
caps
6
ByLayer
62
216
420
8388736
370
-1
100
AcDbLine
10
268
20
70
11
266
21
73
0
LINE
5
487
100
AcDbEntity
8
caps
6
ByLayer
62
216
420
8388736
370
-1
100
AcDbLine
10
266
20
87
11
268
21
88
0
LINE
5
488
100
AcDbEntity
8
caps
6
ByLayer
62
216
420
8388736
370
-1
100
AcDbLine
10
249
20
89
11
231
21
89
0
LINE
5
489
100
AcDbEntity
8
caps
6
ByLayer
62
216
420
8388736
370
-1
100
AcDbLine
10
231
20
89
11
231
21
107
0
LINE
5
48A
100
AcDbEntity
8
caps
6
ByLayer
62
216
420
8388736
370
-1
100
AcDbLine
10
231
20
107
11
249
21
107
0
LINE
5
48B
100
AcDbEntity
8
caps
6
ByLayer
62
216
420
8388736
370
-1
100
AcDbLine
10
249
20
107
11
249
21
89
0
LINE
5
48C
100
AcDbEntity
8
caps
6
ByLayer
62
216
420
8388736
370
-1
100
AcDbLine
10
231
20
107
11
233
21
106
0
LINE
5
48D
100
AcDbEntity
8
caps
6
ByLayer
62
216
420
8388736
370
-1
100
AcDbLine
10
233
20
106
11
247
21
106
0
LINE
5
48E
100
AcDbEntity
8
caps
6
ByLayer
62
216
420
8388736
370
-1
100
AcDbLine
10
247
20
106
11
247
21
92
0
LINE
5
48F
100
AcDbEntity
8
caps
6
ByLayer
62
216
420
8388736
370
-1
100
AcDbLine
10
247
20
92
11
233
21
92
0
LINE
5
490
100
AcDbEntity
8
caps
6
ByLayer
62
216
420
8388736
370
-1
100
AcDbLine
10
233
20
92
11
233
21
106
0
LINE
5
491
100
AcDbEntity
8
caps
6
ByLayer
62
216
420
8388736
370
-1
100
AcDbLine
10
231
20
89
11
233
21
92
0
LINE
5
492
100
AcDbEntity
8
caps
6
ByLayer
62
216
420
8388736
370
-1
100
AcDbLine
10
249
20
89
11
247
21
92
0
LINE
5
493
100
AcDbEntity
8
caps
6
ByLayer
62
216
420
8388736
370
-1
100
AcDbLine
10
247
20
106
11
249
21
107
0
LINE
5
494
100
AcDbEntity
8
caps
6
ByLayer
62
216
420
8388736
370
-1
100
AcDbLine
10
268
20
89
11
250
21
89
0
LINE
5
495
100
AcDbEntity
8
caps
6
ByLayer
62
216
420
8388736
370
-1
100
AcDbLine
10
250
20
89
11
250
21
107
0
LINE
5
496
100
AcDbEntity
8
caps
6
ByLayer
62
216
420
8388736
370
-1
100
AcDbLine
10
250
20
107
11
268
21
107
0
LINE
5
497
100
AcDbEntity
8
caps
6
ByLayer
62
216
420
8388736
370
-1
100
AcDbLine
10
268
20
107
11
268
21
89
0
LINE
5
498
100
AcDbEntity
8
caps
6
ByLayer
62
216
420
8388736
370
-1
100
AcDbLine
10
250
20
107
11
252
21
106
0
LINE
5
499
100
AcDbEntity
8
caps
6
ByLayer
62
216
420
8388736
370
-1
100
AcDbLine
10
252
20
106
11
266
21
106
0
LINE
5
49A
100
AcDbEntity
8
caps
6
ByLayer
62
216
420
8388736
370
-1
100
AcDbLine
10
266
20
106
11
266
21
92
0
LINE
5
49B
100
AcDbEntity
8
caps
6
ByLayer
62
216
420
8388736
370
-1
100
AcDbLine
10
266
20
92
11
252
21
92
0
LINE
5
49C
100
AcDbEntity
8
caps
6
ByLayer
62
216
420
8388736
370
-1
100
AcDbLine
10
252
20
92
11
252
21
106
0
LINE
5
49D
100
AcDbEntity
8
caps
6
ByLayer
62
216
420
8388736
370
-1
100
AcDbLine
10
250
20
89
11
252
21
92
0
LINE
5
49E
100
AcDbEntity
8
caps
6
ByLayer
62
216
420
8388736
370
-1
100
AcDbLine
10
268
20
89
11
266
21
92
0
LINE
5
49F
100
AcDbEntity
8
caps
6
ByLayer
62
216
420
8388736
370
-1
100
AcDbLine
10
266
20
106
11
268
21
107
0
LINE
5
4A0
100
AcDbEntity
8
caps
6
ByLayer
62
216
420
8388736
370
-1
100
AcDbLine
10
43
20
49
11
57
21
49
0
LINE
5
4A1
100
AcDbEntity
8
caps
6
ByLayer
62
216
420
8388736
370
-1
100
AcDbLine
10
57
20
49
11
57
21
35
0
LINE
5
4A2
100
AcDbEntity
8
caps
6
ByLayer
62
216
420
8388736
370
-1
100
AcDbLine
10
57
20
35
11
43
21
35
0
LINE
5
4A3
100
AcDbEntity
8
caps
6
ByLayer
62
216
420
8388736
370
-1
100
AcDbLine
10
43
20
35
11
43
21
49
0
LINE
5
4A4
100
AcDbEntity
8
caps
6
ByLayer
62
216
420
8388736
370
-1
100
AcDbLine
10
43
20
49
11
41
21
50
0
LINE
5
4A5
100
AcDbEntity
8
caps
6
ByLayer
62
216
420
8388736
370
-1
100
AcDbLine
10
57
20
49
11
59
21
50
0
LINE
5
4A6
100
AcDbEntity
8
caps
6
ByLayer
62
216
420
8388736
370
-1
100
AcDbLine
10
57
20
35
11
59
21
32
0
LINE
5
4A7
100
AcDbEntity
8
caps
6
ByLayer
62
216
420
8388736
370
-1
100
AcDbLine
10
43
20
35
11
41
21
32
0
LINE
5
4A8
100
AcDbEntity
8
caps
6
ByLayer
62
96
420
32768
370
-1
100
AcDbLine
10
41
20
107
11
43
21
106
0
LINE
5
4A9
100
AcDbEntity
8
caps
6
ByLayer
62
96
420
32768
370
-1
100
AcDbLine
10
43
20
106
11
57
21
106
0
LINE
5
4AA
100
AcDbEntity
8
caps
6
ByLayer
62
96
420
32768
370
-1
100
AcDbLine
10
57
20
106
11
57
21
92
0
LINE
5
4AB
100
AcDbEntity
8
caps
6
ByLayer
62
96
420
32768
370
-1
100
AcDbLine
10
57
20
92
11
43
21
92
0
LINE
5
4AC
100
AcDbEntity
8
caps
6
ByLayer
62
96
420
32768
370
-1
100
AcDbLine
10
43
20
92
11
41
21
89
0
LINE
5
4AD
100
AcDbEntity
8
caps
6
ByLayer
62
96
420
32768
370
-1
100
AcDbLine
10
43
20
92
11
43
21
106
0
LINE
5
4AE
100
AcDbEntity
8
caps
6
ByLayer
62
96
420
32768
370
-1
100
AcDbLine
10
57
20
106
11
59
21
107
0
LINE
5
4AF
100
AcDbEntity
8
caps
6
ByLayer
62
96
420
32768
370
-1
100
AcDbLine
10
57
20
92
11
59
21
89
0
LINE
5
4B0
100
AcDbEntity
8
caps
6
ByLayer
62
96
420
32768
370
-1
100
AcDbLine
10
78
20
89
11
60
21
89
0
LINE
5
4B1
100
AcDbEntity
8
caps
6
ByLayer
62
96
420
32768
370
-1
100
AcDbLine
10
60
20
89
11
60
21
107
0
LINE
5
4B2
100
AcDbEntity
8
caps
6
ByLayer
62
96
420
32768
370
-1
100
AcDbLine
10
60
20
107
11
78
21
107
0
LINE
5
4B3
100
AcDbEntity
8
caps
6
ByLayer
62
96
420
32768
370
-1
100
AcDbLine
10
78
20
107
11
78
21
89
0
LINE
5
4B4
100
AcDbEntity
8
caps
6
ByLayer
62
96
420
32768
370
-1
100
AcDbLine
10
60
20
107
11
62
21
106
0
LINE
5
4B5
100
AcDbEntity
8
caps
6
ByLayer
62
96
420
32768
370
-1
100
AcDbLine
10
62
20
106
11
76
21
106
0
LINE
5
4B6
100
AcDbEntity
8
caps
6
ByLayer
62
96
420
32768
370
-1
100
AcDbLine
10
76
20
106
11
76
21
92
0
LINE
5
4B7
100
AcDbEntity
8
caps
6
ByLayer
62
96
420
32768
370
-1
100
AcDbLine
10
76
20
92
11
62
21
92
0
LINE
5
4B8
100
AcDbEntity
8
caps
6
ByLayer
62
96
420
32768
370
-1
100
AcDbLine
10
62
20
92
11
60
21
89
0
LINE
5
4B9
100
AcDbEntity
8
caps
6
ByLayer
62
96
420
32768
370
-1
100
AcDbLine
10
62
20
92
11
62
21
106
0
LINE
5
4BA
100
AcDbEntity
8
caps
6
ByLayer
62
96
420
32768
370
-1
100
AcDbLine
10
76
20
106
11
78
21
107
0
LINE
5
4BB
100
AcDbEntity
8
caps
6
ByLayer
62
96
420
32768
370
-1
100
AcDbLine
10
76
20
92
11
78
21
89
0
LINE
5
4BC
100
AcDbEntity
8
caps
6
ByLayer
62
96
420
32768
370
-1
100
AcDbLine
10
97
20
89
11
79
21
89
0
LINE
5
4BD
100
AcDbEntity
8
caps
6
ByLayer
62
96
420
32768
370
-1
100
AcDbLine
10
79
20
89
11
79
21
107
0
LINE
5
4BE
100
AcDbEntity
8
caps
6
ByLayer
62
96
420
32768
370
-1
100
AcDbLine
10
79
20
107
11
97
21
107
0
LINE
5
4BF
100
AcDbEntity
8
caps
6
ByLayer
62
96
420
32768
370
-1
100
AcDbLine
10
97
20
107
11
97
21
89
0
LINE
5
4C0
100
AcDbEntity
8
caps
6
ByLayer
62
96
420
32768
370
-1
100
AcDbLine
10
79
20
107
11
81
21
106
0
LINE
5
4C1
100
AcDbEntity
8
caps
6
ByLayer
62
96
420
32768
370
-1
100
AcDbLine
10
81
20
106
11
95
21
106
0
LINE
5
4C2
100
AcDbEntity
8
caps
6
ByLayer
62
96
420
32768
370
-1
100
AcDbLine
10
95
20
106
11
95
21
92
0
LINE
5
4C3
100
AcDbEntity
8
caps
6
ByLayer
62
96
420
32768
370
-1
100
AcDbLine
10
95
20
92
11
81
21
92
0
LINE
5
4C4
100
AcDbEntity
8
caps
6
ByLayer
62
96
420
32768
370
-1
100
AcDbLine
10
81
20
92
11
79
21
89
0
LINE
5
4C5
100
AcDbEntity
8
caps
6
ByLayer
62
96
420
32768
370
-1
100
AcDbLine
10
81
20
92
11
81
21
106
0
LINE
5
4C6
100
AcDbEntity
8
caps
6
ByLayer
62
96
420
32768
370
-1
100
AcDbLine
10
95
20
106
11
97
21
107
0
LINE
5
4C7
100
AcDbEntity
8
caps
6
ByLayer
62
96
420
32768
370
-1
100
AcDbLine
10
95
20
92
11
97
21
89
0
LINE
5
4C8
100
AcDbEntity
8
caps
6
ByLayer
62
96
420
32768
370
-1
100
AcDbLine
10
116
20
89
11
98
21
89
0
LINE
5
4C9
100
AcDbEntity
8
caps
6
ByLayer
62
96
420
32768
370
-1
100
AcDbLine
10
98
20
89
11
98
21
107
0
LINE
5
4CA
100
AcDbEntity
8
caps
6
ByLayer
62
96
420
32768
370
-1
100
AcDbLine
10
98
20
107
11
116
21
107
0
LINE
5
4CB
100
AcDbEntity
8
caps
6
ByLayer
62
96
420
32768
370
-1
100
AcDbLine
10
116
20
107
11
116
21
89
0
LINE
5
4CC
100
AcDbEntity
8
caps
6
ByLayer
62
96
420
32768
370
-1
100
AcDbLine
10
98
20
107
11
100
21
106
0
LINE
5
4CD
100
AcDbEntity
8
caps
6
ByLayer
62
96
420
32768
370
-1
100
AcDbLine
10
100
20
106
11
114
21
106
0
LINE
5
4CE
100
AcDbEntity
8
caps
6
ByLayer
62
96
420
32768
370
-1
100
AcDbLine
10
114
20
106
11
114
21
92
0
LINE
5
4CF
100
AcDbEntity
8
caps
6
ByLayer
62
96
420
32768
370
-1
100
AcDbLine
10
114
20
92
11
100
21
92
0
LINE
5
4D0
100
AcDbEntity
8
caps
6
ByLayer
62
96
420
32768
370
-1
100
AcDbLine
10
100
20
92
11
98
21
89
0
LINE
5
4D1
100
AcDbEntity
8
caps
6
ByLayer
62
96
420
32768
370
-1
100
AcDbLine
10
100
20
92
11
100
21
106
0
LINE
5
4D2
100
AcDbEntity
8
caps
6
ByLayer
62
96
420
32768
370
-1
100
AcDbLine
10
114
20
106
11
116
21
107
0
LINE
5
4D3
100
AcDbEntity
8
caps
6
ByLayer
62
96
420
32768
370
-1
100
AcDbLine
10
114
20
92
11
116
21
89
0
LINE
5
4D4
100
AcDbEntity
8
caps
6
ByLayer
62
96
420
32768
370
-1
100
AcDbLine
10
135
20
89
11
117
21
89
0
LINE
5
4D5
100
AcDbEntity
8
caps
6
ByLayer
62
96
420
32768
370
-1
100
AcDbLine
10
117
20
89
11
117
21
107
0
LINE
5
4D6
100
AcDbEntity
8
caps
6
ByLayer
62
96
420
32768
370
-1
100
AcDbLine
10
117
20
107
11
135
21
107
0
LINE
5
4D7
100
AcDbEntity
8
caps
6
ByLayer
62
96
420
32768
370
-1
100
AcDbLine
10
135
20
107
11
135
21
89
0
LINE
5
4D8
100
AcDbEntity
8
caps
6
ByLayer
62
96
420
32768
370
-1
100
AcDbLine
10
117
20
107
11
119
21
106
0
LINE
5
4D9
100
AcDbEntity
8
caps
6
ByLayer
62
96
420
32768
370
-1
100
AcDbLine
10
119
20
106
11
133
21
106
0
LINE
5
4DA
100
AcDbEntity
8
caps
6
ByLayer
62
96
420
32768
370
-1
100
AcDbLine
10
133
20
106
11
133
21
92
0
LINE
5
4DB
100
AcDbEntity
8
caps
6
ByLayer
62
96
420
32768
370
-1
100
AcDbLine
10
133
20
92
11
119
21
92
0
LINE
5
4DC
100
AcDbEntity
8
caps
6
ByLayer
62
96
420
32768
370
-1
100
AcDbLine
10
119
20
92
11
117
21
89
0
LINE
5
4DD
100
AcDbEntity
8
caps
6
ByLayer
62
96
420
32768
370
-1
100
AcDbLine
10
119
20
92
11
119
21
106
0
LINE
5
4DE
100
AcDbEntity
8
caps
6
ByLayer
62
96
420
32768
370
-1
100
AcDbLine
10
133
20
106
11
135
21
107
0
LINE
5
4DF
100
AcDbEntity
8
caps
6
ByLayer
62
96
420
32768
370
-1
100
AcDbLine
10
133
20
92
11
135
21
89
0
LINE
5
4E0
100
AcDbEntity
8
caps
6
ByLayer
62
96
420
32768
370
-1
100
AcDbLine
10
154
20
89
11
136
21
89
0
LINE
5
4E1
100
AcDbEntity
8
caps
6
ByLayer
62
96
420
32768
370
-1
100
AcDbLine
10
136
20
89
11
136
21
107
0
LINE
5
4E2
100
AcDbEntity
8
caps
6
ByLayer
62
96
420
32768
370
-1
100
AcDbLine
10
136
20
107
11
154
21
107
0
LINE
5
4E3
100
AcDbEntity
8
caps
6
ByLayer
62
96
420
32768
370
-1
100
AcDbLine
10
154
20
107
11
154
21
89
0
LINE
5
4E4
100
AcDbEntity
8
caps
6
ByLayer
62
96
420
32768
370
-1
100
AcDbLine
10
136
20
107
11
138
21
106
0
LINE
5
4E5
100
AcDbEntity
8
caps
6
ByLayer
62
96
420
32768
370
-1
100
AcDbLine
10
138
20
106
11
152
21
106
0
LINE
5
4E6
100
AcDbEntity
8
caps
6
ByLayer
62
96
420
32768
370
-1
100
AcDbLine
10
152
20
106
11
152
21
92
0
LINE
5
4E7
100
AcDbEntity
8
caps
6
ByLayer
62
96
420
32768
370
-1
100
AcDbLine
10
152
20
92
11
138
21
92
0
LINE
5
4E8
100
AcDbEntity
8
caps
6
ByLayer
62
96
420
32768
370
-1
100
AcDbLine
10
138
20
92
11
136
21
89
0
LINE
5
4E9
100
AcDbEntity
8
caps
6
ByLayer
62
96
420
32768
370
-1
100
AcDbLine
10
138
20
92
11
138
21
106
0
LINE
5
4EA
100
AcDbEntity
8
caps
6
ByLayer
62
96
420
32768
370
-1
100
AcDbLine
10
152
20
106
11
154
21
107
0
LINE
5
4EB
100
AcDbEntity
8
caps
6
ByLayer
62
96
420
32768
370
-1
100
AcDbLine
10
152
20
92
11
154
21
89
0
LINE
5
4EC
100
AcDbEntity
8
caps
6
ByLayer
62
96
420
32768
370
-1
100
AcDbLine
10
173
20
89
11
155
21
89
0
LINE
5
4ED
100
AcDbEntity
8
caps
6
ByLayer
62
96
420
32768
370
-1
100
AcDbLine
10
155
20
89
11
155
21
107
0
LINE
5
4EE
100
AcDbEntity
8
caps
6
ByLayer
62
96
420
32768
370
-1
100
AcDbLine
10
155
20
107
11
173
21
107
0
LINE
5
4EF
100
AcDbEntity
8
caps
6
ByLayer
62
96
420
32768
370
-1
100
AcDbLine
10
173
20
107
11
173
21
89
0
LINE
5
4F0
100
AcDbEntity
8
caps
6
ByLayer
62
96
420
32768
370
-1
100
AcDbLine
10
155
20
107
11
157
21
106
0
LINE
5
4F1
100
AcDbEntity
8
caps
6
ByLayer
62
96
420
32768
370
-1
100
AcDbLine
10
157
20
106
11
171
21
106
0
LINE
5
4F2
100
AcDbEntity
8
caps
6
ByLayer
62
96
420
32768
370
-1
100
AcDbLine
10
171
20
106
11
171
21
92
0
LINE
5
4F3
100
AcDbEntity
8
caps
6
ByLayer
62
96
420
32768
370
-1
100
AcDbLine
10
171
20
92
11
157
21
92
0
LINE
5
4F4
100
AcDbEntity
8
caps
6
ByLayer
62
96
420
32768
370
-1
100
AcDbLine
10
157
20
92
11
155
21
89
0
LINE
5
4F5
100
AcDbEntity
8
caps
6
ByLayer
62
96
420
32768
370
-1
100
AcDbLine
10
157
20
92
11
157
21
106
0
LINE
5
4F6
100
AcDbEntity
8
caps
6
ByLayer
62
96
420
32768
370
-1
100
AcDbLine
10
171
20
106
11
173
21
107
0
LINE
5
4F7
100
AcDbEntity
8
caps
6
ByLayer
62
96
420
32768
370
-1
100
AcDbLine
10
171
20
92
11
173
21
89
0
LINE
5
4F8
100
AcDbEntity
8
caps
6
ByLayer
62
96
420
32768
370
-1
100
AcDbLine
10
192
20
89
11
174
21
89
0
LINE
5
4F9
100
AcDbEntity
8
caps
6
ByLayer
62
96
420
32768
370
-1
100
AcDbLine
10
174
20
89
11
174
21
107
0
LINE
5
4FA
100
AcDbEntity
8
caps
6
ByLayer
62
96
420
32768
370
-1
100
AcDbLine
10
174
20
107
11
192
21
107
0
LINE
5
4FB
100
AcDbEntity
8
caps
6
ByLayer
62
96
420
32768
370
-1
100
AcDbLine
10
192
20
107
11
192
21
89
0
LINE
5
4FC
100
AcDbEntity
8
caps
6
ByLayer
62
96
420
32768
370
-1
100
AcDbLine
10
174
20
107
11
176
21
106
0
LINE
5
4FD
100
AcDbEntity
8
caps
6
ByLayer
62
96
420
32768
370
-1
100
AcDbLine
10
176
20
106
11
190
21
106
0
LINE
5
4FE
100
AcDbEntity
8
caps
6
ByLayer
62
96
420
32768
370
-1
100
AcDbLine
10
190
20
106
11
190
21
92
0
LINE
5
4FF
100
AcDbEntity
8
caps
6
ByLayer
62
96
420
32768
370
-1
100
AcDbLine
10
190
20
92
11
176
21
92
0
LINE
5
500
100
AcDbEntity
8
caps
6
ByLayer
62
96
420
32768
370
-1
100
AcDbLine
10
176
20
92
11
174
21
89
0
LINE
5
501
100
AcDbEntity
8
caps
6
ByLayer
62
96
420
32768
370
-1
100
AcDbLine
10
176
20
92
11
176
21
106
0
LINE
5
502
100
AcDbEntity
8
caps
6
ByLayer
62
96
420
32768
370
-1
100
AcDbLine
10
190
20
106
11
192
21
107
0
LINE
5
503
100
AcDbEntity
8
caps
6
ByLayer
62
96
420
32768
370
-1
100
AcDbLine
10
190
20
92
11
192
21
89
0
LINE
5
504
100
AcDbEntity
8
caps
6
ByLayer
62
96
420
32768
370
-1
100
AcDbLine
10
211
20
89
11
193
21
89
0
LINE
5
505
100
AcDbEntity
8
caps
6
ByLayer
62
96
420
32768
370
-1
100
AcDbLine
10
193
20
89
11
193
21
107
0
LINE
5
506
100
AcDbEntity
8
caps
6
ByLayer
62
96
420
32768
370
-1
100
AcDbLine
10
193
20
107
11
211
21
107
0
LINE
5
507
100
AcDbEntity
8
caps
6
ByLayer
62
96
420
32768
370
-1
100
AcDbLine
10
211
20
107
11
211
21
89
0
LINE
5
508
100
AcDbEntity
8
caps
6
ByLayer
62
96
420
32768
370
-1
100
AcDbLine
10
193
20
107
11
195
21
106
0
LINE
5
509
100
AcDbEntity
8
caps
6
ByLayer
62
96
420
32768
370
-1
100
AcDbLine
10
195
20
106
11
209
21
106
0
LINE
5
50A
100
AcDbEntity
8
caps
6
ByLayer
62
96
420
32768
370
-1
100
AcDbLine
10
209
20
106
11
209
21
92
0
LINE
5
50B
100
AcDbEntity
8
caps
6
ByLayer
62
96
420
32768
370
-1
100
AcDbLine
10
209
20
92
11
195
21
92
0
LINE
5
50C
100
AcDbEntity
8
caps
6
ByLayer
62
96
420
32768
370
-1
100
AcDbLine
10
195
20
92
11
193
21
89
0
LINE
5
50D
100
AcDbEntity
8
caps
6
ByLayer
62
96
420
32768
370
-1
100
AcDbLine
10
195
20
92
11
195
21
106
0
LINE
5
50E
100
AcDbEntity
8
caps
6
ByLayer
62
96
420
32768
370
-1
100
AcDbLine
10
209
20
106
11
211
21
107
0
LINE
5
50F
100
AcDbEntity
8
caps
6
ByLayer
62
96
420
32768
370
-1
100
AcDbLine
10
209
20
92
11
211
21
89
0
LINE
5
510
100
AcDbEntity
8
caps
6
ByLayer
62
96
420
32768
370
-1
100
AcDbLine
10
230
20
89
11
212
21
89
0
LINE
5
511
100
AcDbEntity
8
caps
6
ByLayer
62
96
420
32768
370
-1
100
AcDbLine
10
212
20
89
11
212
21
107
0
LINE
5
512
100
AcDbEntity
8
caps
6
ByLayer
62
96
420
32768
370
-1
100
AcDbLine
10
212
20
107
11
230
21
107
0
LINE
5
513
100
AcDbEntity
8
caps
6
ByLayer
62
96
420
32768
370
-1
100
AcDbLine
10
230
20
107
11
230
21
89
0
LINE
5
514
100
AcDbEntity
8
caps
6
ByLayer
62
96
420
32768
370
-1
100
AcDbLine
10
212
20
107
11
214
21
106
0
LINE
5
515
100
AcDbEntity
8
caps
6
ByLayer
62
96
420
32768
370
-1
100
AcDbLine
10
214
20
106
11
228
21
106
0
LINE
5
516
100
AcDbEntity
8
caps
6
ByLayer
62
96
420
32768
370
-1
100
AcDbLine
10
228
20
106
11
228
21
92
0
LINE
5
517
100
AcDbEntity
8
caps
6
ByLayer
62
96
420
32768
370
-1
100
AcDbLine
10
228
20
92
11
214
21
92
0
LINE
5
518
100
AcDbEntity
8
caps
6
ByLayer
62
96
420
32768
370
-1
100
AcDbLine
10
214
20
92
11
212
21
89
0
LINE
5
519
100
AcDbEntity
8
caps
6
ByLayer
62
96
420
32768
370
-1
100
AcDbLine
10
214
20
92
11
214
21
106
0
LINE
5
51A
100
AcDbEntity
8
caps
6
ByLayer
62
96
420
32768
370
-1
100
AcDbLine
10
228
20
106
11
230
21
107
0
LINE
5
51B
100
AcDbEntity
8
caps
6
ByLayer
62
96
420
32768
370
-1
100
AcDbLine
10
228
20
92
11
230
21
89
0
LINE
5
51C
100
AcDbEntity
8
cutout
6
ByLayer
62
256
370
-1
100
AcDbLine
10
15
20
91
11
29
21
91
0
LINE
5
51D
100
AcDbEntity
8
cutout
6
ByLayer
62
256
370
-1
100
AcDbLine
10
29
20
91
11
29
21
105
0
LINE
5
51E
100
AcDbEntity
8
cutout
6
ByLayer
62
256
370
-1
100
AcDbLine
10
29
20
105
11
15
21
105
0
LINE
5
51F
100
AcDbEntity
8
cutout
6
ByLayer
62
256
370
-1
100
AcDbLine
10
15
20
105
11
15
21
91
0
LINE
5
520
100
AcDbEntity
8
caps
6
ByLayer
62
56
420
8421376
370
-1
100
AcDbLine
10
116
20
51
11
98
21
51
0
LINE
5
521
100
AcDbEntity
8
caps
6
ByLayer
62
56
420
8421376
370
-1
100
AcDbLine
10
98
20
51
11
98
21
69
0
LINE
5
522
100
AcDbEntity
8
caps
6
ByLayer
62
56
420
8421376
370
-1
100
AcDbLine
10
98
20
69
11
116
21
69
0
LINE
5
523
100
AcDbEntity
8
caps
6
ByLayer
62
56
420
8421376
370
-1
100
AcDbLine
10
116
20
69
11
116
21
51
0
LINE
5
524
100
AcDbEntity
8
caps
6
ByLayer
62
56
420
8421376
370
-1
100
AcDbLine
10
98
20
69
11
100
21
68
0
LINE
5
525
100
AcDbEntity
8
caps
6
ByLayer
62
56
420
8421376
370
-1
100
AcDbLine
10
100
20
68
11
114
21
68
0
LINE
5
526
100
AcDbEntity
8
caps
6
ByLayer
62
56
420
8421376
370
-1
100
AcDbLine
10
114
20
68
11
116
21
69
0
LINE
5
527
100
AcDbEntity
8
caps
6
ByLayer
62
56
420
8421376
370
-1
100
AcDbLine
10
114
20
68
11
114
21
54
0
LINE
5
528
100
AcDbEntity
8
caps
6
ByLayer
62
56
420
8421376
370
-1
100
AcDbLine
10
114
20
54
11
100
21
54
0
LINE
5
529
100
AcDbEntity
8
caps
6
ByLayer
62
56
420
8421376
370
-1
100
AcDbLine
10
100
20
54
11
100
21
68
0
LINE
5
52A
100
AcDbEntity
8
caps
6
ByLayer
62
56
420
8421376
370
-1
100
AcDbLine
10
100
20
54
11
98
21
51
0
LINE
5
52B
100
AcDbEntity
8
caps
6
ByLayer
62
56
420
8421376
370
-1
100
AcDbLine
10
114
20
54
11
116
21
51
0
LINE
5
52C
100
AcDbEntity
8
caps
6
ByLayer
62
56
420
8421376
370
-1
100
AcDbLine
10
173
20
51
11
155
21
51
0
LINE
5
52D
100
AcDbEntity
8
caps
6
ByLayer
62
56
420
8421376
370
-1
100
AcDbLine
10
155
20
51
11
155
21
69
0
LINE
5
52E
100
AcDbEntity
8
caps
6
ByLayer
62
56
420
8421376
370
-1
100
AcDbLine
10
155
20
69
11
173
21
69
0
LINE
5
52F
100
AcDbEntity
8
caps
6
ByLayer
62
56
420
8421376
370
-1
100
AcDbLine
10
173
20
69
11
173
21
51
0
LINE
5
530
100
AcDbEntity
8
caps
6
ByLayer
62
56
420
8421376
370
-1
100
AcDbLine
10
155
20
69
11
157
21
68
0
LINE
5
531
100
AcDbEntity
8
caps
6
ByLayer
62
56
420
8421376
370
-1
100
AcDbLine
10
157
20
68
11
171
21
68
0
LINE
5
532
100
AcDbEntity
8
caps
6
ByLayer
62
56
420
8421376
370
-1
100
AcDbLine
10
171
20
68
11
173
21
69
0
LINE
5
533
100
AcDbEntity
8
caps
6
ByLayer
62
56
420
8421376
370
-1
100
AcDbLine
10
171
20
68
11
171
21
54
0
LINE
5
534
100
AcDbEntity
8
caps
6
ByLayer
62
56
420
8421376
370
-1
100
AcDbLine
10
171
20
54
11
157
21
54
0
LINE
5
535
100
AcDbEntity
8
caps
6
ByLayer
62
56
420
8421376
370
-1
100
AcDbLine
10
157
20
54
11
157
21
68
0
LINE
5
536
100
AcDbEntity
8
caps
6
ByLayer
62
56
420
8421376
370
-1
100
AcDbLine
10
157
20
54
11
155
21
51
0
LINE
5
537
100
AcDbEntity
8
caps
6
ByLayer
62
56
420
8421376
370
-1
100
AcDbLine
10
171
20
54
11
173
21
51
0
LINE
5
538
100
AcDbEntity
8
caps
6
ByLayer
62
136
420
32896
370
-1
100
AcDbLine
10
41
20
31
11
63.5
21
31
0
LINE
5
539
100
AcDbEntity
8
caps
6
ByLayer
62
136
420
32896
370
-1
100
AcDbLine
10
63.5
20
31
11
63.5
21
13
0
LINE
5
53A
100
AcDbEntity
8
caps
6
ByLayer
62
136
420
32896
370
-1
100
AcDbLine
10
63.5
20
13
11
41
21
13
0
LINE
5
53B
100
AcDbEntity
8
caps
6
ByLayer
62
136
420
32896
370
-1
100
AcDbLine
10
41
20
13
11
41
21
31
0
LINE
5
53C
100
AcDbEntity
8
caps
6
ByLayer
62
136
420
32896
370
-1
100
AcDbLine
10
184
20
31
11
206.5
21
31
0
LINE
5
53D
100
AcDbEntity
8
caps
6
ByLayer
62
136
420
32896
370
-1
100
AcDbLine
10
206.5
20
31
11
206.5
21
13
0
LINE
5
53E
100
AcDbEntity
8
caps
6
ByLayer
62
136
420
32896
370
-1
100
AcDbLine
10
206.5
20
13
11
184
21
13
0
LINE
5
53F
100
AcDbEntity
8
caps
6
ByLayer
62
136
420
32896
370
-1
100
AcDbLine
10
184
20
13
11
184
21
31
0
LINE
5
540
100
AcDbEntity
8
caps
6
ByLayer
62
216
420
8388736
370
-1
100
AcDbLine
10
15
20
87
11
38
21
87
0
LINE
5
541
100
AcDbEntity
8
caps
6
ByLayer
62
216
420
8388736
370
-1
100
AcDbLine
10
38
20
87
11
38
21
73
0
LINE
5
542
100
AcDbEntity
8
caps
6
ByLayer
62
216
420
8388736
370
-1
100
AcDbLine
10
38
20
73
11
15
21
73
0
LINE
5
543
100
AcDbEntity
8
caps
6
ByLayer
62
216
420
8388736
370
-1
100
AcDbLine
10
15
20
73
11
15
21
87
0
LINE
5
544
100
AcDbEntity
8
caps
6
ByLayer
62
5
370
-1
100
AcDbLine
10
15
20
68
11
38
21
68
0
LINE
5
545
100
AcDbEntity
8
caps
6
ByLayer
62
5
370
-1
100
AcDbLine
10
38
20
68
11
38
21
54
0
LINE
5
546
100
AcDbEntity
8
caps
6
ByLayer
62
5
370
-1
100
AcDbLine
10
38
20
54
11
15
21
54
0
LINE
5
547
100
AcDbEntity
8
caps
6
ByLayer
62
5
370
-1
100
AcDbLine
10
15
20
54
11
15
21
68
0
LINE
5
548
100
AcDbEntity
8
caps
6
ByLayer
62
5
370
-1
100
AcDbLine
10
15
20
49
11
38
21
49
0
LINE
5
549
100
AcDbEntity
8
caps
6
ByLayer
62
5
370
-1
100
AcDbLine
10
38
20
49
11
38
21
35
0
LINE
5
54A
100
AcDbEntity
8
caps
6
ByLayer
62
5
370
-1
100
AcDbLine
10
38
20
35
11
15
21
35
0
LINE
5
54B
100
AcDbEntity
8
caps
6
ByLayer
62
5
370
-1
100
AcDbLine
10
15
20
35
11
15
21
49
0
LINE
5
54C
100
AcDbEntity
8
caps
6
ByLayer
62
5
370
-1
100
AcDbLine
10
15
20
30
11
38
21
30
0
LINE
5
54D
100
AcDbEntity
8
caps
6
ByLayer
62
5
370
-1
100
AcDbLine
10
38
20
30
11
38
21
16
0
LINE
5
54E
100
AcDbEntity
8
caps
6
ByLayer
62
5
370
-1
100
AcDbLine
10
38
20
16
11
15
21
16
0
LINE
5
54F
100
AcDbEntity
8
caps
6
ByLayer
62
5
370
-1
100
AcDbLine
10
15
20
16
11
15
21
30
0
LINE
5
550
100
AcDbEntity
8
caps
6
ByLayer
62
5
370
-1
100
AcDbLine
10
67
20
30
11
85
21
30
0
LINE
5
551
100
AcDbEntity
8
caps
6
ByLayer
62
5
370
-1
100
AcDbLine
10
85
20
30
11
85
21
16
0
LINE
5
552
100
AcDbEntity
8
caps
6
ByLayer
62
5
370
-1
100
AcDbLine
10
85
20
16
11
67
21
16
0
LINE
5
553
100
AcDbEntity
8
caps
6
ByLayer
62
5
370
-1
100
AcDbLine
10
67
20
16
11
67
21
30
0
LINE
5
554
100
AcDbEntity
8
caps
6
ByLayer
62
5
370
-1
100
AcDbLine
10
252
20
49
11
285
21
49
0
LINE
5
555
100
AcDbEntity
8
caps
6
ByLayer
62
5
370
-1
100
AcDbLine
10
285
20
49
11
285
21
35
0
LINE
5
556
100
AcDbEntity
8
caps
6
ByLayer
62
5
370
-1
100
AcDbLine
10
285
20
35
11
252
21
35
0
LINE
5
557
100
AcDbEntity
8
caps
6
ByLayer
62
5
370
-1
100
AcDbLine
10
252
20
35
11
252
21
49
0
LINE
5
558
100
AcDbEntity
8
caps
6
ByLayer
62
5
370
-1
100
AcDbLine
10
271
20
30
11
285
21
30
0
LINE
5
559
100
AcDbEntity
8
caps
6
ByLayer
62
5
370
-1
100
AcDbLine
10
285
20
30
11
285
21
16
0
LINE
5
55A
100
AcDbEntity
8
caps
6
ByLayer
62
5
370
-1
100
AcDbLine
10
285
20
16
11
271
21
16
0
LINE
5
55B
100
AcDbEntity
8
caps
6
ByLayer
62
5
370
-1
100
AcDbLine
10
271
20
16
11
271
21
30
0
LINE
5
55C
100
AcDbEntity
8
caps
6
ByLayer
62
5
370
-1
100
AcDbLine
10
252
20
30
11
266
21
30
0
LINE
5
55D
100
AcDbEntity
8
caps
6
ByLayer
62
5
370
-1
100
AcDbLine
10
266
20
30
11
266
21
16
0
LINE
5
55E
100
AcDbEntity
8
caps
6
ByLayer
62
5
370
-1
100
AcDbLine
10
266
20
16
11
252
21
16
0
LINE
5
55F
100
AcDbEntity
8
caps
6
ByLayer
62
5
370
-1
100
AcDbLine
10
252
20
16
11
252
21
30
0
LINE
5
560
100
AcDbEntity
8
caps
6
ByLayer
62
5
370
-1
100
AcDbLine
10
233
20
30
11
247
21
30
0
LINE
5
561
100
AcDbEntity
8
caps
6
ByLayer
62
5
370
-1
100
AcDbLine
10
247
20
30
11
247
21
16
0
LINE
5
562
100
AcDbEntity
8
caps
6
ByLayer
62
5
370
-1
100
AcDbLine
10
247
20
16
11
233
21
16
0
LINE
5
563
100
AcDbEntity
8
caps
6
ByLayer
62
5
370
-1
100
AcDbLine
10
233
20
16
11
233
21
30
0
LINE
5
564
100
AcDbEntity
8
caps
6
ByLayer
62
5
370
-1
100
AcDbLine
10
209
20
30
11
228
21
30
0
LINE
5
565
100
AcDbEntity
8
caps
6
ByLayer
62
5
370
-1
100
AcDbLine
10
228
20
30
11
228
21
30
0
LINE
5
566
100
AcDbEntity
8
caps
6
ByLayer
62
5
370
-1
100
AcDbLine
10
228
20
30
11
209
21
30
0
LINE
5
567
100
AcDbEntity
8
caps
6
ByLayer
62
5
370
-1
100
AcDbLine
10
209
20
30
11
209
21
30
0
LINE
5
568
100
AcDbEntity
8
caps
6
ByLayer
62
216
420
8388736
370
-1
100
AcDbLine
10
13
20
88
11
15
21
87
0
LINE
5
569
100
AcDbEntity
8
caps
6
ByLayer
62
216
420
8388736
370
-1
100
AcDbLine
10
15
20
87
11
38
21
87
0
LINE
5
56A
100
AcDbEntity
8
caps
6
ByLayer
62
216
420
8388736
370
-1
100
AcDbLine
10
38
20
87
11
40
21
88
0
LINE
5
56B
100
AcDbEntity
8
caps
6
ByLayer
62
216
420
8388736
370
-1
100
AcDbLine
10
38
20
73
11
40
21
70
0
LINE
5
56C
100
AcDbEntity
8
caps
6
ByLayer
62
216
420
8388736
370
-1
100
AcDbLine
10
15
20
73
11
13
21
70
0
LINE
5
56D
100
AcDbEntity
8
caps
6
ByLayer
62
5
370
-1
100
AcDbLine
10
13
20
69
11
15
21
68
0
LINE
5
56E
100
AcDbEntity
8
caps
6
ByLayer
62
5
370
-1
100
AcDbLine
10
38
20
68
11
40
21
69
0
LINE
5
56F
100
AcDbEntity
8
caps
6
ByLayer
62
5
370
-1
100
AcDbLine
10
38
20
54
11
40
21
51
0
LINE
5
570
100
AcDbEntity
8
caps
6
ByLayer
62
5
370
-1
100
AcDbLine
10
13
20
51
11
15
21
54
0
LINE
5
571
100
AcDbEntity
8
caps
6
ByLayer
62
5
370
-1
100
AcDbLine
10
13
20
50
11
15
21
49
0
LINE
5
572
100
AcDbEntity
8
caps
6
ByLayer
62
5
370
-1
100
AcDbLine
10
38
20
49
11
40
21
50
0
LINE
5
573
100
AcDbEntity
8
caps
6
ByLayer
62
5
370
-1
100
AcDbLine
10
40
20
32
11
38
21
35
0
LINE
5
574
100
AcDbEntity
8
caps
6
ByLayer
62
5
370
-1
100
AcDbLine
10
13
20
32
11
15
21
35
0
LINE
5
575
100
AcDbEntity
8
caps
6
ByLayer
62
5
370
-1
100
AcDbLine
10
13
20
31
11
15
21
30
0
LINE
5
576
100
AcDbEntity
8
caps
6
ByLayer
62
5
370
-1
100
AcDbLine
10
38
20
30
11
40
21
31
0
LINE
5
577
100
AcDbEntity
8
caps
6
ByLayer
62
5
370
-1
100
AcDbLine
10
38
20
16
11
40
21
13
0
LINE
5
578
100
AcDbEntity
8
caps
6
ByLayer
62
5
370
-1
100
AcDbLine
10
15
20
16
11
13
21
13
0
LINE
5
579
100
AcDbEntity
8
caps
6
ByLayer
62
5
370
-1
100
AcDbLine
10
87
20
31
11
85
21
30
0
LINE
5
57A
100
AcDbEntity
8
caps
6
ByLayer
62
5
370
-1
100
AcDbLine
10
85
20
16
11
87
21
13
0
LINE
5
57B
100
AcDbEntity
8
caps
6
ByLayer
62
5
370
-1
100
AcDbLine
10
67
20
16
11
64.5
21
13
0
LINE
5
57C
100
AcDbEntity
8
caps
6
ByLayer
62
5
370
-1
100
AcDbLine
10
67
20
30
11
64.5
21
31
0
LINE
5
57D
100
AcDbEntity
8
caps
6
ByLayer
62
5
370
-1
100
AcDbLine
10
228
20
30
11
228
21
16
0
LINE
5
57E
100
AcDbEntity
8
caps
6
ByLayer
62
5
370
-1
100
AcDbLine
10
228
20
16
11
210
21
16
0
LINE
5
57F
100
AcDbEntity
8
caps
6
ByLayer
62
5
370
-1
100
AcDbLine
10
210
20
16
11
209
21
16
0
LINE
5
580
100
AcDbEntity
8
caps
6
ByLayer
62
5
370
-1
100
AcDbLine
10
209
20
16
11
209
21
30
0
LINE
5
581
100
AcDbEntity
8
caps
6
ByLayer
62
5
370
-1
100
AcDbLine
10
228
20
30
11
230
21
31
0
LINE
5
582
100
AcDbEntity
8
caps
6
ByLayer
62
5
370
-1
100
AcDbLine
10
231
20
31
11
233
21
30
0
LINE
5
583
100
AcDbEntity
8
caps
6
ByLayer
62
5
370
-1
100
AcDbLine
10
233
20
16
11
231
21
13
0
LINE
5
584
100
AcDbEntity
8
caps
6
ByLayer
62
5
370
-1
100
AcDbLine
10
230
20
13
11
228
21
16
0
LINE
5
585
100
AcDbEntity
8
caps
6
ByLayer
62
5
370
-1
100
AcDbLine
10
207.5
20
13
11
209
21
16
0
LINE
5
586
100
AcDbEntity
8
caps
6
ByLayer
62
5
370
-1
100
AcDbLine
10
209
20
30
11
207.5
21
31
0
LINE
5
587
100
AcDbEntity
8
caps
6
ByLayer
62
5
370
-1
100
AcDbLine
10
252
20
16
11
250
21
13
0
LINE
5
588
100
AcDbEntity
8
caps
6
ByLayer
62
5
370
-1
100
AcDbLine
10
249
20
13
11
247
21
16
0
LINE
5
589
100
AcDbEntity
8
caps
6
ByLayer
62
5
370
-1
100
AcDbLine
10
247
20
30
11
249
21
31
0
LINE
5
58A
100
AcDbEntity
8
caps
6
ByLayer
62
5
370
-1
100
AcDbLine
10
250
20
31
11
252
21
30
0
LINE
5
58B
100
AcDbEntity
8
caps
6
ByLayer
62
5
370
-1
100
AcDbLine
10
252
20
35
11
250
21
32
0
LINE
5
58C
100
AcDbEntity
8
caps
6
ByLayer
62
5
370
-1
100
AcDbLine
10
266
20
16
11
268
21
13
0
LINE
5
58D
100
AcDbEntity
8
caps
6
ByLayer
62
5
370
-1
100
AcDbLine
10
269
20
13
11
271
21
16
0
LINE
5
58E
100
AcDbEntity
8
caps
6
ByLayer
62
5
370
-1
100
AcDbLine
10
285
20
16
11
287
21
13
0
LINE
5
58F
100
AcDbEntity
8
caps
6
ByLayer
62
5
370
-1
100
AcDbLine
10
287
20
31
11
285
21
30
0
LINE
5
590
100
AcDbEntity
8
caps
6
ByLayer
62
5
370
-1
100
AcDbLine
10
271
20
30
11
269
21
31
0
LINE
5
591
100
AcDbEntity
8
caps
6
ByLayer
62
5
370
-1
100
AcDbLine
10
266
20
30
11
268
21
31
0
LINE
5
592
100
AcDbEntity
8
caps
6
ByLayer
62
5
370
-1
100
AcDbLine
10
287
20
32
11
285
21
35
0
LINE
5
593
100
AcDbEntity
8
caps
6
ByLayer
62
5
370
-1
100
AcDbLine
10
287
20
50
11
285
21
49
0
LINE
5
594
100
AcDbEntity
8
caps
6
ByLayer
62
5
370
-1
100
AcDbLine
10
250
20
50
11
252
21
49
0
LINE
5
595
100
AcDbEntity
8
caps
6
ByLayer
62
16
420
8388608
370
-1
100
AcDbLine
10
269
20
107
11
271
21
106
0
LINE
5
596
100
AcDbEntity
8
caps
6
ByLayer
62
16
420
8388608
370
-1
100
AcDbLine
10
271
20
106
11
285
21
106
0
LINE
5
597
100
AcDbEntity
8
caps
6
ByLayer
62
16
420
8388608
370
-1
100
AcDbLine
10
285
20
106
11
287
21
107
0
LINE
5
598
100
AcDbEntity
8
caps
6
ByLayer
62
16
420
8388608
370
-1
100
AcDbLine
10
287
20
89
11
285
21
92
0
LINE
5
599
100
AcDbEntity
8
caps
6
ByLayer
62
16
420
8388608
370
-1
100
AcDbLine
10
285
20
92
11
271
21
92
0
LINE
5
59A
100
AcDbEntity
8
caps
6
ByLayer
62
16
420
8388608
370
-1
100
AcDbLine
10
271
20
92
11
269
21
89
0
LINE
5
59B
100
AcDbEntity
8
caps
6
ByLayer
62
16
420
8388608
370
-1
100
AcDbLine
10
271
20
106
11
271
21
92
0
LINE
5
59C
100
AcDbEntity
8
caps
6
ByLayer
62
16
420
8388608
370
-1
100
AcDbLine
10
285
20
106
11
285
21
92
0
LINE
5
59D
100
AcDbEntity
8
caps
6
ByLayer
62
16
420
8388608
370
-1
100
AcDbLine
10
269
20
88
11
271
21
87
0
LINE
5
59E
100
AcDbEntity
8
caps
6
ByLayer
62
16
420
8388608
370
-1
100
AcDbLine
10
271
20
87
11
285
21
87
0
LINE
5
59F
100
AcDbEntity
8
caps
6
ByLayer
62
16
420
8388608
370
-1
100
AcDbLine
10
285
20
87
11
287
21
88
0
LINE
5
5A0
100
AcDbEntity
8
caps
6
ByLayer
62
16
420
8388608
370
-1
100
AcDbLine
10
285
20
87
11
285
21
54
0
LINE
5
5A1
100
AcDbEntity
8
caps
6
ByLayer
62
16
420
8388608
370
-1
100
AcDbLine
10
285
20
54
11
271
21
54
0
LINE
5
5A2
100
AcDbEntity
8
caps
6
ByLayer
62
16
420
8388608
370
-1
100
AcDbLine
10
271
20
54
11
269
21
51
0
LINE
5
5A3
100
AcDbEntity
8
caps
6
ByLayer
62
16
420
8388608
370
-1
100
AcDbLine
10
271
20
87
11
271
21
54
0
LINE
5
5A4
100
AcDbEntity
8
caps
6
ByLayer
62
16
420
8388608
370
-1
100
AcDbLine
10
287
20
51
11
285
21
54
0
LINE
5
5A5
100
AcDbEntity
8
caps
6
ByLayer
62
1
370
-1
100
AcDbLine
10
126.5
20
31
11
128.5
21
30
0
LINE
5
5A6
100
AcDbEntity
8
caps
6
ByLayer
62
1
370
-1
100
AcDbLine
10
128.5
20
30
11
142.5
21
30
0
LINE
5
5A7
100
AcDbEntity
8
caps
6
ByLayer
62
1
370
-1
100
AcDbLine
10
142.5
20
30
11
144.5
21
31
0
LINE
5
5A8
100
AcDbEntity
8
caps
6
ByLayer
62
1
370
-1
100
AcDbLine
10
142.5
20
30
11
142.5
21
16
0
LINE
5
5A9
100
AcDbEntity
8
caps
6
ByLayer
62
1
370
-1
100
AcDbLine
10
142.5
20
16
11
128.5
21
16
0
LINE
5
5AA
100
AcDbEntity
8
caps
6
ByLayer
62
1
370
-1
100
AcDbLine
10
128.5
20
16
11
128.5
21
30
0
LINE
5
5AB
100
AcDbEntity
8
caps
6
ByLayer
62
1
370
-1
100
AcDbLine
10
126.5
20
13
11
128.5
21
16
0
LINE
5
5AC
100
AcDbEntity
8
caps
6
ByLayer
62
1
370
-1
100
AcDbLine
10
142.5
20
16
11
144.5
21
13
0
LINE
5
5AD
100
AcDbEntity
8
caps
6
ByLayer
62
136
420
32896
370
-1
100
AcDbLine
10
63.5
20
31
11
62
21
30
0
LINE
5
5AE
100
AcDbEntity
8
caps
6
ByLayer
62
136
420
32896
370
-1
100
AcDbLine
10
62
20
30
11
43
21
30
0
LINE
5
5AF
100
AcDbEntity
8
caps
6
ByLayer
62
136
420
32896
370
-1
100
AcDbLine
10
43
20
30
11
41
21
31
0
LINE
5
5B0
100
AcDbEntity
8
caps
6
ByLayer
62
136
420
32896
370
-1
100
AcDbLine
10
62
20
30
11
62
21
16
0
LINE
5
5B1
100
AcDbEntity
8
caps
6
ByLayer
62
136
420
32896
370
-1
100
AcDbLine
10
62
20
16
11
63.5
21
13
0
LINE
5
5B2
100
AcDbEntity
8
caps
6
ByLayer
62
136
420
32896
370
-1
100
AcDbLine
10
41
20
13
11
43
21
16
0
LINE
5
5B3
100
AcDbEntity
8
caps
6
ByLayer
62
136
420
32896
370
-1
100
AcDbLine
10
43
20
16
11
43
21
30
0
LINE
5
5B4
100
AcDbEntity
8
caps
6
ByLayer
62
136
420
32896
370
-1
100
AcDbLine
10
43
20
16
11
62
21
16
0
LINE
5
5B5
100
AcDbEntity
8
caps
6
ByLayer
62
136
420
32896
370
-1
100
AcDbLine
10
184
20
31
11
186
21
30
0
LINE
5
5B6
100
AcDbEntity
8
caps
6
ByLayer
62
136
420
32896
370
-1
100
AcDbLine
10
186
20
30
11
205
21
30
0
LINE
5
5B7
100
AcDbEntity
8
caps
6
ByLayer
62
136
420
32896
370
-1
100
AcDbLine
10
205
20
30
11
206.5
21
31
0
LINE
5
5B8
100
AcDbEntity
8
caps
6
ByLayer
62
136
420
32896
370
-1
100
AcDbLine
10
206.5
20
13
11
205
21
16
0
LINE
5
5B9
100
AcDbEntity
8
caps
6
ByLayer
62
136
420
32896
370
-1
100
AcDbLine
10
205
20
16
11
205
21
30
0
LINE
5
5BA
100
AcDbEntity
8
caps
6
ByLayer
62
136
420
32896
370
-1
100
AcDbLine
10
205
20
16
11
186
21
16
0
LINE
5
5BB
100
AcDbEntity
8
caps
6
ByLayer
62
136
420
32896
370
-1
100
AcDbLine
10
186
20
16
11
186
21
30
0
LINE
5
5BC
100
AcDbEntity
8
caps
6
ByLayer
62
136
420
32896
370
-1
100
AcDbLine
10
184
20
13
11
186
21
16
0
LINE
5
5BD
100
AcDbEntity
8
caps
6
ByLayer
62
216
420
8388736
370
-1
100
AcDbLine
10
88.5
20
31
11
90
21
30
0
LINE
5
5BE
100
AcDbEntity
8
caps
6
ByLayer
62
216
420
8388736
370
-1
100
AcDbLine
10
90
20
30
11
124
21
30
0
LINE
5
5BF
100
AcDbEntity
8
caps
6
ByLayer
62
216
420
8388736
370
-1
100
AcDbLine
10
124
20
30
11
125.5
21
31
0
LINE
5
5C0
100
AcDbEntity
8
caps
6
ByLayer
62
216
420
8388736
370
-1
100
AcDbLine
10
145.5
20
31
11
147
21
30
0
LINE
5
5C1
100
AcDbEntity
8
caps
6
ByLayer
62
216
420
8388736
370
-1
100
AcDbLine
10
147
20
30
11
181
21
30
0
LINE
5
5C2
100
AcDbEntity
8
caps
6
ByLayer
62
216
420
8388736
370
-1
100
AcDbLine
10
181
20
30
11
182.5
21
31
0
LINE
5
5C3
100
AcDbEntity
8
caps
6
ByLayer
62
216
420
8388736
370
-1
100
AcDbLine
10
182.5
20
13
11
181
21
16
0
LINE
5
5C4
100
AcDbEntity
8
caps
6
ByLayer
62
216
420
8388736
370
-1
100
AcDbLine
10
181
20
16
11
181
21
30
0
LINE
5
5C5
100
AcDbEntity
8
caps
6
ByLayer
62
216
420
8388736
370
-1
100
AcDbLine
10
181
20
16
11
147
21
16
0
LINE
5
5C6
100
AcDbEntity
8
caps
6
ByLayer
62
216
420
8388736
370
-1
100
AcDbLine
10
147
20
16
11
147
21
30
0
LINE
5
5C7
100
AcDbEntity
8
caps
6
ByLayer
62
216
420
8388736
370
-1
100
AcDbLine
10
147
20
16
11
145.5
21
13
0
LINE
5
5C8
100
AcDbEntity
8
caps
6
ByLayer
62
216
420
8388736
370
-1
100
AcDbLine
10
124
20
30
11
124
21
16
0
LINE
5
5C9
100
AcDbEntity
8
caps
6
ByLayer
62
216
420
8388736
370
-1
100
AcDbLine
10
124
20
16
11
125.5
21
13
0
LINE
5
5CA
100
AcDbEntity
8
caps
6
ByLayer
62
216
420
8388736
370
-1
100
AcDbLine
10
124
20
16
11
90
21
16
0
LINE
5
5CB
100
AcDbEntity
8
caps
6
ByLayer
62
216
420
8388736
370
-1
100
AcDbLine
10
90
20
16
11
90
21
30
0
LINE
5
5CC
100
AcDbEntity
8
caps
6
ByLayer
62
216
420
8388736
370
-1
100
AcDbLine
10
90
20
16
11
88.5
21
13
0
MTEXT
5
5CD
100
AcDbEntity
8
prints
6
ByLayer
62
216
420
8388736
370
-1
100
AcDbMText
10
216
20
67
30
0
40
4
41
0.222222222222
71
1
72
1
1
:\P;
7
standard
210
0
220
0
230
1
50
0
73
2
44
1
0
MTEXT
5
5CE
100
AcDbEntity
8
prints
6
ByLayer
62
216
420
8388736
370
-1
100
AcDbMText
10
197
20
48
30
0
40
4
41
1.77777777778
71
1
72
1
1
<\P,
7
standard
210
0
220
0
230
1
50
0
73
2
44
1
0
MTEXT
5
5CF
100
AcDbEntity
8
prints
6
ByLayer
62
216
420
8388736
370
-1
100
AcDbMText
10
216
20
48
30
0
40
4
41
1.77777777778
71
1
72
1
1
>\P.
7
standard
210
0
220
0
230
1
50
0
73
2
44
1
0
MTEXT
5
5D0
100
AcDbEntity
8
prints
6
ByLayer
62
216
420
8388736
370
-1
100
AcDbMText
10
235
20
48
30
0
40
4
41
1.77777777778
71
1
72
1
1
?\P/
7
standard
210
0
220
0
230
1
50
0
73
2
44
1
0
MTEXT
5
5D1
100
AcDbEntity
8
prints
6
ByLayer
62
216
420
8388736
370
-1
100
AcDbMText
10
235
20
67
30
0
40
4
41
1.33333333333
71
1
72
1
1
"\P'
7
standard
210
0
220
0
230
1
50
0
73
2
44
1
0
MTEXT
5
5D2
100
AcDbEntity
8
prints
6
ByLayer
62
216
420
8388736
370
-1
100
AcDbMText
10
254
20
67
30
0
40
4
41
1.77777777778
71
1
72
1
1
|\P\
7
standard
210
0
220
0
230
1
50
0
73
2
44
1
0
MTEXT
5
5D3
100
AcDbEntity
8
prints
6
ByLayer
62
216
420
8388736
370
-1
100
AcDbMText
10
235
20
86
30
0
40
4
41
0.888888888889
71
1
72
1
1
{\P[
7
standard
210
0
220
0
230
1
50
0
73
2
44
1
0
MTEXT
5
5D4
100
AcDbEntity
8
prints
6
ByLayer
62
216
420
8388736
370
-1
100
AcDbMText
10
254
20
86
30
0
40
4
41
0.888888888889
71
1
72
1
1
}\P]
7
standard
210
0
220
0
230
1
50
0
73
2
44
1
0
MTEXT
5
5D5
100
AcDbEntity
8
prints
6
ByLayer
62
216
420
8388736
370
-1
100
AcDbMText
10
235
20
105
30
0
40
4
41
4.88888888889
71
1
72
1
1
_\P-
7
standard
210
0
220
0
230
1
50
0
73
2
44
1
0
MTEXT
5
5D6
100
AcDbEntity
8
prints
6
ByLayer
62
216
420
8388736
370
-1
100
AcDbMText
10
254
20
105
30
0
40
4
41
1.77777777778
71
1
72
1
1
+\P=
7
standard
210
0
220
0
230
1
50
0
73
2
44
1
0
MTEXT
5
5D7
100
AcDbEntity
8
prints
6
ByLayer
62
216
420
8388736
370
-1
100
AcDbMText
10
45
20
48
30
0
40
4
41
1.77777777778
71
1
72
1
1
~\P`
7
standard
210
0
220
0
230
1
50
0
73
2
44
1
0
MTEXT
5
5D8
100
AcDbEntity
8
prints
6
ByLayer
62
96
420
32768
370
-1
100
AcDbMText
10
45
20
105
30
0
40
4
41
0.888888888889
71
1
72
1
1
1
7
standard
210
0
220
0
230
1
50
0
73
2
44
1
0
MTEXT
5
5D9
100
AcDbEntity
8
prints
6
ByLayer
62
96
420
32768
370
-1
100
AcDbMText
10
64
20
105
30
0
40
4
41
1.77777777778
71
1
72
1
1
2
7
standard
210
0
220
0
230
1
50
0
73
2
44
1
0
MTEXT
5
5DA
100
AcDbEntity
8
prints
6
ByLayer
62
96
420
32768
370
-1
100
AcDbMText
10
83
20
105
30
0
40
4
41
1.77777777778
71
1
72
1
1
3
7
standard
210
0
220
0
230
1
50
0
73
2
44
1
0
MTEXT
5
5DB
100
AcDbEntity
8
prints
6
ByLayer
62
96
420
32768
370
-1
100
AcDbMText
10
102
20
105
30
0
40
4
41
2.22222222222
71
1
72
1
1
4
7
standard
210
0
220
0
230
1
50
0
73
2
44
1
0
MTEXT
5
5DC
100
AcDbEntity
8
prints
6
ByLayer
62
96
420
32768
370
-1
100
AcDbMText
10
121
20
105
30
0
40
4
41
1.77777777778
71
1
72
1
1
5
7
standard
210
0
220
0
230
1
50
0
73
2
44
1
0
MTEXT
5
5DD
100
AcDbEntity
8
prints
6
ByLayer
62
96
420
32768
370
-1
100
AcDbMText
10
140
20
105
30
0
40
4
41
1.77777777778
71
1
72
1
1
6
7
standard
210
0
220
0
230
1
50
0
73
2
44
1
0
MTEXT
5
5DE
100
AcDbEntity
8
prints
6
ByLayer
62
96
420
32768
370
-1
100
AcDbMText
10
159
20
105
30
0
40
4
41
1.77777777778
71
1
72
1
1
7
7
standard
210
0
220
0
230
1
50
0
73
2
44
1
0
MTEXT
5
5DF
100
AcDbEntity
8
prints
6
ByLayer
62
96
420
32768
370
-1
100
AcDbMText
10
178
20
105
30
0
40
4
41
1.77777777778
71
1
72
1
1
8
7
standard
210
0
220
0
230
1
50
0
73
2
44
1
0
MTEXT
5
5E0
100
AcDbEntity
8
prints
6
ByLayer
62
96
420
32768
370
-1
100
AcDbMText
10
197
20
105
30
0
40
4
41
1.77777777778
71
1
72
1
1
9
7
standard
210
0
220
0
230
1
50
0
73
2
44
1
0
MTEXT
5
5E1
100
AcDbEntity
8
prints
6
ByLayer
62
96
420
32768
370
-1
100
AcDbMText
10
216
20
105
30
0
40
4
41
1.77777777778
71
1
72
1
1
0
7
standard
210
0
220
0
230
1
50
0
73
2
44
1
0
MTEXT
5
5E2
100
AcDbEntity
8
prints
6
ByLayer
62
5
370
-1
100
AcDbMText
10
17
20
67
30
0
40
4
41
11.1111131683
71
1
72
1
1
Caps\PLock
7
standard
210
0
220
0
230
1
50
0
73
2
44
1
0
MTEXT
5
5E3
100
AcDbEntity
8
prints
6
ByLayer
62
216
420
8388736
370
-1
100
AcDbMText
10
17
20
86
30
0
40
4
41
8.44444444444
71
1
72
1
1
Tab
7
standard
210
0
220
0
230
1
50
0
73
2
44
1
0
MTEXT
5
5E4
100
AcDbEntity
8
prints
6
ByLayer
62
5
370
-1
100
AcDbMText
10
17
20
48
30
0
40
4
41
11.999999152
71
1
72
1
1
Shift
7
standard
210
0
220
0
230
1
50
0
73
2
44
1
0
MTEXT
5
5E5
100
AcDbEntity
8
prints
6
ByLayer
62
5
370
-1
100
AcDbMText
10
17
20
29
30
0
40
4
41
8.88888888889
71
1
72
1
1
Ctrl
7
standard
210
0
220
0
230
1
50
0
73
2
44
1
0
MTEXT
5
5E6
100
AcDbEntity
8
prints
6
ByLayer
62
5
370
-1
100
AcDbMText
10
69
20
29
30
0
40
4
41
7.11111111111
71
1
72
1
1
Alt
7
standard
210
0
220
0
230
1
50
0
73
2
44
1
0
MTEXT
5
5E7
100
AcDbEntity
8
prints
6
ByLayer
62
5
370
-1
100
AcDbMText
10
211
20
29
30
0
40
4
41
7.11111111111
71
1
72
1
1
Alt
7
standard
210
0
220
0
230
1
50
0
73
2
44
1
0
MTEXT
5
5E8
100
AcDbEntity
8
prints
6
ByLayer
62
5
370
-1
100
AcDbMText
10
234
20
29
30
0
40
4
41
11.5555555556
71
1
72
1
1
Meta
7
standard
210
0
220
0
230
1
50
0
73
2
44
1
0
MTEXT
5
5E9
100
AcDbEntity
8
prints
6
ByLayer
62
5
370
-1
100
AcDbMText
10
253
20
29
30
0
40
4
41
12
71
1
72
1
1
Menu
7
standard
210
0
220
0
230
1
50
0
73
2
44
1
0
MTEXT
5
5EA
100
AcDbEntity
8
prints
6
ByLayer
62
5
370
-1
100
AcDbMText
10
273
20
29
30
0
40
4
41
8.88888888889
71
1
72
1
1
Ctrl
7
standard
210
0
220
0
230
1
50
0
73
2
44
1
0
MTEXT
5
5EB
100
AcDbEntity
8
prints
6
ByLayer
62
5
370
-1
100
AcDbMText
10
254
20
48
30
0
40
4
41
11.999999152
71
1
72
1
1
Shift
7
standard
210
0
220
0
230
1
50
0
73
2
44
1
0
MTEXT
5
5EC
100
AcDbEntity
8
prints
6
ByLayer
62
136
420
32896
370
-1
100
AcDbMText
10
45
20
29
30
0
40
4
41
7.11111111111
71
1
72
1
1
Fn1
7
standard
210
0
220
0
230
1
50
0
73
2
44
1
0
MTEXT
5
5ED
100
AcDbEntity
8
prints
6
ByLayer
62
136
420
32896
370
-1
100
AcDbMText
10
188
20
29
30
0
40
4
41
8
71
1
72
1
1
Fn2
7
standard
210
0
220
0
230
1
50
0
73
2
44
1
0
MTEXT
5
5EE
100
AcDbEntity
8
prints
6
ByLayer
62
1
370
-1
100
AcDbMText
10
135
20
25
30
0
40
4
41
1.33333333333
71
1
72
1
1
!!
7
standard
210
0
220
0
230
1
50
0
73
2
44
1
0
MTEXT
5
5EF
100
AcDbEntity
8
prints
6
ByLayer
62
7
370
-1
100
AcDbMText
10
45
20
86
30
0
40
4
41
2.66666666667
71
1
72
1
1
Q
7
standard
210
0
220
0
230
1
50
0
73
2
44
1
0
MTEXT
5
5F0
100
AcDbEntity
8
prints
6
ByLayer
62
7
370
-1
100
AcDbMText
10
64
20
86
30
0
40
4
41
3.55555555556
71
1
72
1
1
W
7
standard
210
0
220
0
230
1
50
0
73
2
44
1
0
MTEXT
5
5F1
100
AcDbEntity
8
prints
6
ByLayer
62
7
370
-1
100
AcDbMText
10
83
20
86
30
0
40
4
41
1.77777777778
71
1
72
1
1
E
7
standard
210
0
220
0
230
1
50
0
73
2
44
1
0
MTEXT
5
5F2
100
AcDbEntity
8
prints
6
ByLayer
62
7
370
-1
100
AcDbMText
10
102
20
86
30
0
40
4
41
2.22222222222
71
1
72
1
1
R
7
standard
210
0
220
0
230
1
50
0
73
2
44
1
0
MTEXT
5
5F3
100
AcDbEntity
8
prints
6
ByLayer
62
7
370
-1
100
AcDbMText
10
121
20
86
30
0
40
4
41
2.22222222222
71
1
72
1
1
T
7
standard
210
0
220
0
230
1
50
0
73
2
44
1
0
MTEXT
5
5F4
100
AcDbEntity
8
prints
6
ByLayer
62
7
370
-1
100
AcDbMText
10
140
20
86
30
0
40
4
41
2.66666666667
71
1
72
1
1
Y
7
standard
210
0
220
0
230
1
50
0
73
2
44
1
0
MTEXT
5
5F5
100
AcDbEntity
8
prints
6
ByLayer
62
7
370
-1
100
AcDbMText
10
159
20
86
30
0
40
4
41
2.22222222222
71
1
72
1
1
U
7
standard
210
0
220
0
230
1
50
0
73
2
44
1
0
MTEXT
5
5F6
100
AcDbEntity
8
prints
6
ByLayer
62
7
370
-1
100
AcDbMText
10
179
20
86
30
0
40
4
41
0
71
1
72
1
1
I
7
standard
210
0
220
0
230
1
50
0
73
2
44
1
0
MTEXT
5
5F7
100
AcDbEntity
8
prints
6
ByLayer
62
7
370
-1
100
AcDbMText
10
197
20
86
30
0
40
4
41
2.22222222222
71
1
72
1
1
O
7
standard
210
0
220
0
230
1
50
0
73
2
44
1
0
MTEXT
5
5F8
100
AcDbEntity
8
prints
6
ByLayer
62
7
370
-1
100
AcDbMText
10
216
20
86
30
0
40
4
41
2.22222222222
71
1
72
1
1
P
7
standard
210
0
220
0
230
1
50
0
73
2
44
1
0
MTEXT
5
5F9
100
AcDbEntity
8
prints
6
ByLayer
62
7
370
-1
100
AcDbMText
10
45
20
67
30
0
40
4
41
2.66666666667
71
1
72
1
1
A
7
standard
210
0
220
0
230
1
50
0
73
2
44
1
0
MTEXT
5
5FA
100
AcDbEntity
8
prints
6
ByLayer
62
7
370
-1
100
AcDbMText
10
64
20
67
30
0
40
4
41
2.22222137421
71
1
72
1
1
S
7
standard
210
0
220
0
230
1
50
0
73
2
44
1
0
MTEXT
5
5FB
100
AcDbEntity
8
prints
6
ByLayer
62
7
370
-1
100
AcDbMText
10
83
20
67
30
0
40
4
41
2.22222222222
71
1
72
1
1
D
7
standard
210
0
220
0
230
1
50
0
73
2
44
1
0
MTEXT
5
5FC
100
AcDbEntity
8
prints
6
ByLayer
62
7
370
-1
100
AcDbMText
10
121
20
67
30
0
40
4
41
2.22222222222
71
1
72
1
1
G
7
standard
210
0
220
0
230
1
50
0
73
2
44
1
0
MTEXT
5
5FD
100
AcDbEntity
8
prints
6
ByLayer
62
7
370
-1
100
AcDbMText
10
140
20
67
30
0
40
4
41
2.22222222222
71
1
72
1
1
H
7
standard
210
0
220
0
230
1
50
0
73
2
44
1
0
MTEXT
5
5FE
100
AcDbEntity
8
prints
6
ByLayer
62
7
370
-1
100
AcDbMText
10
178
20
67
30
0
40
4
41
2.22222222222
71
1
72
1
1
K
7
standard
210
0
220
0
230
1
50
0
73
2
44
1
0
MTEXT
5
5FF
100
AcDbEntity
8
prints
6
ByLayer
62
7
370
-1
100
AcDbMText
10
197
20
67
30
0
40
4
41
1.77777777778
71
1
72
1
1
L
7
standard
210
0
220
0
230
1
50
0
73
2
44
1
0
MTEXT
5
600
100
AcDbEntity
8
prints
6
ByLayer
62
7
370
-1
100
AcDbMText
10
64
20
48
30
0
40
4
41
2.22222222222
71
1
72
1
1
Z
7
standard
210
0
220
0
230
1
50
0
73
2
44
1
0
MTEXT
5
601
100
AcDbEntity
8
prints
6
ByLayer
62
7
370
-1
100
AcDbMText
10
83
20
48
30
0
40
4
41
2.66666666667
71
1
72
1
1
X
7
standard
210
0
220
0
230
1
50
0
73
2
44
1
0
MTEXT
5
602
100
AcDbEntity
8
prints
6
ByLayer
62
7
370
-1
100
AcDbMText
10
102
20
48
30
0
40
4
41
1.77777777778
71
1
72
1
1
C
7
standard
210
0
220
0
230
1
50
0
73
2
44
1
0
MTEXT
5
603
100
AcDbEntity
8
prints
6
ByLayer
62
7
370
-1
100
AcDbMText
10
121
20
48
30
0
40
4
41
2.66666666667
71
1
72
1
1
V
7
standard
210
0
220
0
230
1
50
0
73
2
44
1
0
MTEXT
5
604
100
AcDbEntity
8
prints
6
ByLayer
62
7
370
-1
100
AcDbMText
10
140
20
48
30
0
40
4
41
2.22222222222
71
1
72
1
1
B
7
standard
210
0
220
0
230
1
50
0
73
2
44
1
0
MTEXT
5
605
100
AcDbEntity
8
prints
6
ByLayer
62
7
370
-1
100
AcDbMText
10
159
20
48
30
0
40
4
41
2.22222222222
71
1
72
1
1
N
7
standard
210
0
220
0
230
1
50
0
73
2
44
1
0
MTEXT
5
606
100
AcDbEntity
8
prints
6
ByLayer
62
7
370
-1
100
AcDbMText
10
178
20
48
30
0
40
4
41
2.66666666667
71
1
72
1
1
M
7
standard
210
0
220
0
230
1
50
0
73
2
44
1
0
MTEXT
5
607
100
AcDbEntity
8
prints
6
ByLayer
62
56
420
8421376
370
-1
100
AcDbMText
10
102
20
67
30
0
40
4
41
1.77777777778
71
1
72
1
1
F
7
standard
210
0
220
0
230
1
50
0
73
2
44
1
0
MTEXT
5
608
100
AcDbEntity
8
prints
6
ByLayer
62
56
420
8421376
370
-1
100
AcDbMText
10
159
20
67
30
0
40
4
41
1.33333333333
71
1
72
1
1
J
7
standard
210
0
220
0
230
1
50
0
73
2
44
1
0
MTEXT
5
609
100
AcDbEntity
8
prints
6
ByLayer
62
16
420
8388608
370
-1
100
AcDbMText
10
272
20
105
30
0
40
4
41
11.5555576127
71
1
72
1
1
Bksp
7
standard
210
0
220
0
230
1
50
0
73
2
44
1
0
MTEXT
5
60A
100
AcDbEntity
8
prints
6
ByLayer
62
16
420
8388608
370
-1
100
AcDbMText
10
273
20
85
30
0
40
4
41
7.55555555556
71
1
72
1
1
Ent
7
standard
210
0
220
0
230
1
50
0
73
2
44
1
0
LINE
5
60B
100
AcDbEntity
8
caps
6
ByLayer
62
16
420
8388608
370
-1
100
AcDbLine
10
13
20
107
11
13
21
89
0
LINE
5
60C
100
AcDbEntity
8
caps
6
ByLayer
62
16
420
8388608
370
-1
100
AcDbLine
10
31
20
107
11
31
21
89
0
LINE
5
60D
100
AcDbEntity
8
caps
6
ByLayer
62
16
420
8388608
370
-1
100
AcDbLine
10
13
20
89
11
31
21
89
0
LINE
5
60E
100
AcDbEntity
8
caps
6
ByLayer
62
16
420
8388608
370
-1
100
AcDbLine
10
31
20
107
11
13
21
107
0
LINE
5
60F
100
AcDbEntity
8
caps
6
ByLayer
62
16
420
8388608
370
-1
100
AcDbLine
10
13
20
107
11
15
21
106
0
LINE
5
610
100
AcDbEntity
8
caps
6
ByLayer
62
16
420
8388608
370
-1
100
AcDbLine
10
15
20
106
11
29
21
106
0
LINE
5
611
100
AcDbEntity
8
caps
6
ByLayer
62
16
420
8388608
370
-1
100
AcDbLine
10
29
20
106
11
31
21
107
0
LINE
5
612
100
AcDbEntity
8
caps
6
ByLayer
62
16
420
8388608
370
-1
100
AcDbLine
10
29
20
106
11
29
21
92
0
LINE
5
613
100
AcDbEntity
8
caps
6
ByLayer
62
16
420
8388608
370
-1
100
AcDbLine
10
29
20
92
11
15
21
92
0
LINE
5
614
100
AcDbEntity
8
caps
6
ByLayer
62
16
420
8388608
370
-1
100
AcDbLine
10
15
20
92
11
15
21
106
0
LINE
5
615
100
AcDbEntity
8
caps
6
ByLayer
62
16
420
8388608
370
-1
100
AcDbLine
10
15
20
92
11
13
21
89
0
LINE
5
616
100
AcDbEntity
8
caps
6
ByLayer
62
16
420
8388608
370
-1
100
AcDbLine
10
29
20
92
11
31
21
89
0
MTEXT
5
617
100
AcDbEntity
8
prints
6
ByLayer
62
16
420
8388608
370
-1
100
AcDbMText
10
17
20
105
30
0
40
4
41
7.5555576127
71
1
72
1
1
Esc
7
standard
210
0
220
0
230
1
50
0
73
2
44
1
0
DIMENSION
5
618
100
AcDbEntity
8
quotes
6
ByLayer
62
5
370
-1
100
AcDbDimension
2
*D1
10
62
20
126
30
0
11
59.5
21
127.875
31
0
70
33
71
5
3
Standard
53
0
210
0
220
0
230
1
100
AcDbAlignedDimension
13
57
23
105
33
0
14
62
24
105
34
0
0
DIMENSION
5
619
100
AcDbEntity
8
quotes
6
ByLayer
62
5
370
-1
100
AcDbDimension
2
*D2
10
-11
20
86
30
0
11
-12.875
21
88.5
31
0
70
33
71
5
3
Standard
53
0
210
0
220
0
230
1
100
AcDbAlignedDimension
13
15
23
91
33
0
14
15
24
86
34
0
0
DIMENSION
5
61A
100
AcDbEntity
8
quotes
6
ByLayer
62
5
370
-1
100
AcDbDimension
2
*D3
10
-5
20
91
30
0
11
-6.875
21
98
31
0
70
33
71
5
3
Standard
53
0
210
0
220
0
230
1
100
AcDbAlignedDimension
13
15
23
105
33
0
14
15
24
91
34
0
0
DIMENSION
5
61B
100
AcDbEntity
8
quotes
6
ByLayer
62
5
370
-1
100
AcDbDimension
2
*D4
10
43
20
126
30
0
11
36
21
127.875
31
0
70
33
71
5
3
Standard
53
0
210
0
220
0
230
1
100
AcDbAlignedDimension
13
29
23
105
33
0
14
43
24
105
34
0
0
DIMENSION
5
61C
100
AcDbEntity
8
quotes
6
ByLayer
62
5
370
-1
100
AcDbDimension
2
*D5
10
43
20
121
30
0
11
38.25
21
122.875
31
0
70
33
71
5
3
Standard
53
0
210
0
220
0
230
1
100
AcDbAlignedDimension
13
33.5
23
86
33
0
14
43
24
86
34
0
0
DIMENSION
5
61D
100
AcDbEntity
8
quotes
6
ByLayer
62
5
370
-1
100
AcDbDimension
2
*D6
10
310
20
76.5
30
0
11
308.125
21
83.75
31
0
70
33
71
5
3
Standard
53
0
210
0
220
0
230
1
100
AcDbAlignedDimension
13
285
23
91
33
0
14
285
24
76.5
34
0
0
DIMENSION
5
61E
100
AcDbEntity
8
quotes
6
ByLayer
62
5
370
-1
100
AcDbDimension
2
*D7
10
310
20
48
30
0
11
308.125
21
55.25
31
0
70
33
71
5
3
Standard
53
0
210
0
220
0
230
1
100
AcDbAlignedDimension
13
271
23
62.5
33
0
14
271
24
48
34
0
0
DIMENSION
5
61F
100
AcDbEntity
8
quotes
6
ByLayer
62
5
370
-1
100
AcDbDimension
2
*D8
10
261.5
20
-7
30
0
11
254.25
21
-5.125
31
0
70
33
71
5
3
Standard
53
0
210
0
220
0
230
1
100
AcDbAlignedDimension
13
247
23
34
33
0
14
261.5
24
34
34
0
0
DIMENSION
5
620
100
AcDbEntity
8
quotes
6
ByLayer
62
5
370
-1
100
AcDbDimension
2
*D9
10
233
20
-7
30
0
11
229.375
21
-5.125
31
0
70
33
71
5
3
Standard
53
0
210
0
220
0
230
1
100
AcDbAlignedDimension
13
225.75
23
15
33
0
14
233
24
15
34
0
0
DIMENSION
5
621
100
AcDbEntity
8
quotes
6
ByLayer
62
5
370
-1
100
AcDbDimension
2
*D10
10
211.75
20
-7
30
0
11
207
21
-5.125
31
0
70
33
71
5
3
Standard
53
0
210
0
220
0
230
1
100
AcDbAlignedDimension
13
202.25
23
15
33
0
14
211.75
24
15
34
0
0
DIMENSION
5
622
100
AcDbEntity
8
quotes
6
ByLayer
62
5
370
-1
100
AcDbDimension
2
*D11
10
188.25
20
-7
30
0
11
179.625
21
-5.125
31
0
70
33
71
5
3
Standard
53
0
210
0
220
0
230
1
100
AcDbAlignedDimension
13
171
23
15
33
0
14
188.25
24
15
34
0
0
DIMENSION
5
623
100
AcDbEntity
8
quotes
6
ByLayer
62
5
370
-1
100
AcDbDimension
2
*D12
10
142
20
-7
30
0
11
149.5
21
-5.125
31
0
70
33
71
5
3
Standard
53
0
210
0
220
0
230
1
100
AcDbAlignedDimension
13
157
23
15
33
0
14
142
24
15
34
0
0
DIMENSION
5
624
100
AcDbEntity
8
quotes
6
ByLayer
62
5
370
-1
100
AcDbDimension
2
*D13
10
45.25
20
-7
30
0
11
39.375
21
-5.125
31
0
70
33
71
5
3
Standard
53
0
210
0
220
0
230
1
100
AcDbAlignedDimension
13
33.5
23
15
33
0
14
45.25
24
15
34
0
0
DIMENSION
5
625
100
AcDbEntity
8
quotes
6
ByLayer
62
5
370
-1
100
AcDbDimension
2
*D14
10
79
20
126
30
0
11
78.5
21
127.875
31
0
70
33
71
5
3
Standard
53
0
210
0
220
0
230
1
100
AcDbAlignedDimension
13
78
23
107
33
0
14
79
24
107
34
0
0
DIMENSION
5
626
100
AcDbEntity
8
quotes
6
ByLayer
62
5
370
-1
100
AcDbDimension
2
*D15
10
36
20
104
30
0
11
38.3292907908
21
109.598613566
31
0
70
36
71
5
3
Standard
53
0
210
0
220
0
230
1
100
AcDbRadialDimension
15
37.0412661975
25
105.214810564
35
0
40
0
0
DIMENSION
5
627
100
AcDbEntity
8
quotes
6
ByLayer
62
5
370
-1
100
AcDbDimension
2
*D16
10
88.5
20
-7
30
0
11
87.75
21
-5.125
31
0
70
33
71
5
3
Standard
53
0
210
0
220
0
230
1
100
AcDbAlignedDimension
13
87
23
13
33
0
14
88.5
24
13
34
0
0
DIMENSION
5
628
100
AcDbEntity
8
quotes
6
ByLayer
62
5
370
-1
100
AcDbDimension
2
*D17
10
116
20
126
30
0
11
107
21
127.875
31
0
70
33
71
5
3
Standard
53
0
210
0
220
0
230
1
100
AcDbAlignedDimension
13
98
23
107
33
0
14
116
24
107
34
0
0
DIMENSION
5
629
100
AcDbEntity
8
quotes
6
ByLayer
62
5
370
-1
100
AcDbDimension
2
*D18
10
320
20
51
30
0
11
318.125
21
69.5
31
0
70
33
71
5
3
Standard
53
0
210
0
220
0
230
1
100
AcDbAlignedDimension
13
287
23
88
33
0
14
287
24
51
34
0
0
DIMENSION
5
62A
100
AcDbEntity
8
quotes
6
ByLayer
62
5
370
-1
100
AcDbDimension
2
*D19
10
320
20
32
30
0
11
318.125
21
41
31
0
70
33
71
5
3
Standard
53
0
210
0
220
0
230
1
100
AcDbAlignedDimension
13
287
23
50
33
0
14
287
24
32
34
0
0
DIMENSION
5
62B
100
AcDbEntity
8
quotes
6
ByLayer
62
5
370
-1
100
AcDbDimension
2
*D20
10
287
20
-12
30
0
11
268.5
21
-10.125
31
0
70
33
71
5
3
Standard
53
0
210
0
220
0
230
1
100
AcDbAlignedDimension
13
250
23
32
33
0
14
287
24
32
34
0
0
DIMENSION
5
62C
100
AcDbEntity
8
quotes
6
ByLayer
62
5
370
-1
100
AcDbDimension
2
*D21
10
230
20
0
30
0
11
218.75
21
1.875
31
0
70
33
71
5
3
Standard
53
0
210
0
220
0
230
1
100
AcDbAlignedDimension
13
207.5
23
13
33
0
14
230
24
13
34
0
0
DIMENSION
5
62D
100
AcDbEntity
8
quotes
6
ByLayer
62
5
370
-1
100
AcDbDimension
2
*D22
10
182.5
20
0
30
0
11
164
21
1.875
31
0
70
33
71
5
3
Standard
53
0
210
0
220
0
230
1
100
AcDbAlignedDimension
13
145.5
23
13
33
0
14
182.5
24
13
34
0
0
DIMENSION
5
62E
100
AcDbEntity
8
quotes
6
ByLayer
62
5
370
-1
100
AcDbDimension
2
*D23
10
40
20
0
30
0
11
26.5
21
1.875
31
0
70
33
71
5
3
Standard
53
0
210
0
220
0
230
1
100
AcDbAlignedDimension
13
13
23
13
33
0
14
40
24
13
34
0
0
DIMENSION
5
62F
100
AcDbEntity
8
quotes
6
ByLayer
62
5
370
-1
100
AcDbDimension
2
*D24
10
-10
20
13
30
0
11
-11.875
21
22
31
0
70
33
71
5
3
Standard
53
0
210
0
220
0
230
1
100
AcDbAlignedDimension
13
13
23
31
33
0
14
13
24
13
34
0
0
DIMENSION
5
630
100
AcDbEntity
8
quotes
6
ByLayer
62
5
370
-1
100
AcDbDimension
2
*D25
10
320
20
89
30
0
11
318.125
21
98
31
0
70
33
71
5
3
Standard
53
0
210
0
220
0
230
1
100
AcDbAlignedDimension
13
287
23
107
33
0
14
287
24
89
34
0
0
DIMENSION
5
631
100
AcDbEntity
8
quotes
6
ByLayer
62
5
370
-1
100
AcDbDimension
2
*D26
10
41
20
132
30
0
11
36
21
133.875
31
0
70
33
71
5
3
Standard
53
0
210
0
220
0
230
1
100
AcDbAlignedDimension
13
31
23
107
33
0
14
41
24
107
34
0
0
MTEXT
5
632
100
AcDbEntity
8
prints
6
ByLayer
62
7
370
-1
100
AcDbMText
10
180
20
140
30
0
40
10
41
110.833333333
71
1
72
1
1
DevelKey Layout
7
standard
210
0
220
0
230
1
50
0
73
2
44
1
0
LINE
5
633
100
AcDbEntity
8
cutout
6
ByLayer
62
256
370
-1
100
AcDbLine
10
271.55
20
79.8
11
285.75
21
79.8
0
LINE
5
634
100
AcDbEntity
8
cutout
6
ByLayer
62
256
370
-1
100
AcDbLine
10
285.75
20
79.8
11
285.75
21
83.1
0
LINE
5
635
100
AcDbEntity
8
cutout
6
ByLayer
62
256
370
-1
100
AcDbLine
10
285.75
20
83.1
11
271.55
21
83.1
0
LINE
5
636
100
AcDbEntity
8
cutout
6
ByLayer
62
256
370
-1
100
AcDbLine
10
271.55
20
83.1
11
271.55
21
79.8
0
LINE
5
637
100
AcDbEntity
8
cutout
6
ByLayer
62
256
370
-1
100
AcDbLine
10
271.55
20
55.9
11
285.75
21
55.9
0
LINE
5
638
100
AcDbEntity
8
cutout
6
ByLayer
62
256
370
-1
100
AcDbLine
10
285.75
20
55.9
11
285.75
21
59.2
0
LINE
5
639
100
AcDbEntity
8
cutout
6
ByLayer
62
256
370
-1
100
AcDbLine
10
285.75
20
59.2
11
271.55
21
59.2
0
LINE
5
63A
100
AcDbEntity
8
cutout
6
ByLayer
62
256
370
-1
100
AcDbLine
10
271.55
20
59.2
11
271.55
21
55.9
0
LINE
5
63B
100
AcDbEntity
8
cutout
6
ByLayer
62
256
370
-1
100
AcDbLine
10
271
20
76.5
11
271
21
62.5
0
LINE
5
63C
100
AcDbEntity
8
cutout
6
ByLayer
62
256
370
-1
100
AcDbLine
10
271
20
62.5
11
285
21
62.5
0
LINE
5
63D
100
AcDbEntity
8
cutout
6
ByLayer
62
256
370
-1
100
AcDbLine
10
261.5
20
34
11
275.5
21
34
0
LINE
5
63E
100
AcDbEntity
8
cutout
6
ByLayer
62
256
370
-1
100
AcDbLine
10
275.5
20
34
11
275.5
21
48
0
LINE
5
63F
100
AcDbEntity
8
cutout
6
ByLayer
62
256
370
-1
100
AcDbLine
10
275.5
20
48
11
261.5
21
48
0
LINE
5
640
100
AcDbEntity
8
cutout
6
ByLayer
62
256
370
-1
100
AcDbLine
10
278.8
20
47.45
11
278.8
21
33.25
0
LINE
5
641
100
AcDbEntity
8
cutout
6
ByLayer
62
256
370
-1
100
AcDbLine
10
278.8
20
33.25
11
282.1
21
33.25
0
LINE
5
642
100
AcDbEntity
8
cutout
6
ByLayer
62
256
370
-1
100
AcDbLine
10
282.1
20
33.25
11
282.1
21
47.45
0
LINE
5
643
100
AcDbEntity
8
cutout
6
ByLayer
62
256
370
-1
100
AcDbLine
10
282.1
20
47.45
11
278.8
21
47.45
0
LINE
5
644
100
AcDbEntity
8
cutout
6
ByLayer
62
256
370
-1
100
AcDbLine
10
254.9
20
47.45
11
254.9
21
33.25
0
LINE
5
645
100
AcDbEntity
8
cutout
6
ByLayer
62
256
370
-1
100
AcDbLine
10
254.9
20
33.25
11
258.2
21
33.25
0
LINE
5
646
100
AcDbEntity
8
cutout
6
ByLayer
62
256
370
-1
100
AcDbLine
10
258.2
20
33.25
11
258.2
21
47.45
0
LINE
5
647
100
AcDbEntity
8
cutout
6
ByLayer
62
256
370
-1
100
AcDbLine
10
258.2
20
47.45
11
254.9
21
47.45
0
LINE
5
648
100
AcDbEntity
8
cutout
6
ByLayer
62
256
370
-1
100
AcDbLine
10
174.3
20
28.45
11
174.3
21
14.25
0
LINE
5
649
100
AcDbEntity
8
cutout
6
ByLayer
62
256
370
-1
100
AcDbLine
10
174.3
20
14.25
11
177.6
21
14.25
0
LINE
5
64A
100
AcDbEntity
8
cutout
6
ByLayer
62
256
370
-1
100
AcDbLine
10
177.6
20
14.25
11
177.6
21
28.45
0
LINE
5
64B
100
AcDbEntity
8
cutout
6
ByLayer
62
256
370
-1
100
AcDbLine
10
177.6
20
28.45
11
174.3
21
28.45
0
LINE
5
64C
100
AcDbEntity
8
cutout
6
ByLayer
62
256
370
-1
100
AcDbLine
10
150.4
20
28.45
11
150.4
21
14.25
0
LINE
5
64D
100
AcDbEntity
8
cutout
6
ByLayer
62
256
370
-1
100
AcDbLine
10
150.4
20
14.25
11
153.7
21
14.25
0
LINE
5
64E
100
AcDbEntity
8
cutout
6
ByLayer
62
256
370
-1
100
AcDbLine
10
153.7
20
14.25
11
153.7
21
28.45
0
LINE
5
64F
100
AcDbEntity
8
cutout
6
ByLayer
62
256
370
-1
100
AcDbLine
10
153.7
20
28.45
11
150.4
21
28.45
0
LINE
5
650
100
AcDbEntity
8
cutout
6
ByLayer
62
256
370
-1
100
AcDbLine
10
117.3
20
28.45
11
117.3
21
14.25
0
LINE
5
651
100
AcDbEntity
8
cutout
6
ByLayer
62
256
370
-1
100
AcDbLine
10
117.3
20
14.25
11
120.6
21
14.25
0
LINE
5
652
100
AcDbEntity
8
cutout
6
ByLayer
62
256
370
-1
100
AcDbLine
10
120.6
20
14.25
11
120.6
21
28.45
0
LINE
5
653
100
AcDbEntity
8
cutout
6
ByLayer
62
256
370
-1
100
AcDbLine
10
120.6
20
28.45
11
117.3
21
28.45
0
LINE
5
654
100
AcDbEntity
8
cutout
6
ByLayer
62
256
370
-1
100
AcDbLine
10
93.4
20
28.45
11
93.4
21
14.25
0
LINE
5
655
100
AcDbEntity
8
cutout
6
ByLayer
62
256
370
-1
100
AcDbLine
10
93.4
20
14.25
11
96.7
21
14.25
0
LINE
5
656
100
AcDbEntity
8
cutout
6
ByLayer
62
256
370
-1
100
AcDbLine
10
96.7
20
14.25
11
96.7
21
28.45
0
LINE
5
657
100
AcDbEntity
8
cutout
6
ByLayer
62
256
370
-1
100
AcDbLine
10
96.7
20
28.45
11
93.4
21
28.45
0
CIRCLE
5
658
100
AcDbEntity
8
cutout
6
ByLayer
62
256
370
-1
100
AcDbCircle
10
36
20
104
40
1.6
0
CIRCLE
5
659
100
AcDbEntity
8
cutout
6
ByLayer
62
256
370
-1
100
AcDbCircle
10
36
20
98
40
1.6
0
CIRCLE
5
65A
100
AcDbEntity
8
cutout
6
ByLayer
62
256
370
-1
100
AcDbCircle
10
36
20
92
40
1.6
0
CIRCLE
5
65B
100
AcDbEntity
8
leds
6
ByLayer
62
3
370
-1
100
AcDbCircle
10
36
20
104
40
1.5
0
CIRCLE
5
65C
100
AcDbEntity
8
leds
6
ByLayer
62
3
370
-1
100
AcDbCircle
10
36
20
98
40
1.5
0
CIRCLE
5
65D
100
AcDbEntity
8
leds
6
ByLayer
62
3
370
-1
100
AcDbCircle
10
36
20
92
40
1.5
0
DIMENSION
5
65E
100
AcDbEntity
8
quotes
6
ByLayer
62
5
370
-1
100
AcDbDimension
2
*D27
10
100
20
-1.7763568394e-15
30
0
11
98.35
21
1.875
31
0
70
33
71
5
72
0
3
Standard
53
0
210
0
220
0
230
1
100
AcDbAlignedDimension
13
96.7
23
15
33
0
14
100
24
15
34
0
0
DIMENSION
5
65F
100
AcDbEntity
8
quotes
6
ByLayer
62
5
370
-1
100
AcDbDimension
2
*D28
10
96.7
20
4
30
0
11
95.05
21
5.875
31
0
70
33
71
5
72
0
3
Standard
53
0
210
0
220
0
230
1
100
AcDbAlignedDimension
13
93.4
23
14.25
33
0
14
96.7
24
14.25
34
0
0
DIMENSION
5
660
100
AcDbEntity
8
quotes
6
ByLayer
62
5
370
-1
100
AcDbDimension
2
*D29
10
89
20
14.25
30
0
11
87.125
21
21.35
31
0
70
33
71
5
72
0
3
Standard
53
0
210
0
220
0
230
1
100
AcDbAlignedDimension
13
93.4
23
28.45
33
0
14
93.4
24
14.25
34
0
0
DIMENSION
5
661
100
AcDbEntity
8
quotes
6
ByLayer
62
5
370
-1
100
AcDbDimension
2
*D30
10
125
20
28.45
30
0
11
123.125
21
28.725
31
0
70
33
71
5
72
0
3
Standard
53
0
210
0
220
0
230
1
100
AcDbAlignedDimension
13
120.6
23
29
33
0
14
120.6
24
28.45
34
0
0
DIMENSION
5
662
100
AcDbEntity
8
quotes
6
ByLayer
62
5
370
-1
100
AcDbDimension
2
*D31
10
41
20
98
30
0
11
39.125
21
101
31
0
70
33
71
5
72
0
3
Standard
53
0
210
0
220
0
230
1
100
AcDbAlignedDimension
13
36
23
104
33
0
14
36
24
98
34
0
0
DIMENSION
5
663
100
AcDbEntity
8
quotes
6
ByLayer
62
5
370
-1
100
AcDbDimension
2
*D32
10
43
20
88
30
0
11
39.5
21
89.875
31
0
70
33
71
5
72
0
3
Standard
53
0
210
0
220
0
230
1
100
AcDbAlignedDimension
13
36
23
92
33
0
14
43
24
92
34
0
0
LINE
5
664
100
AcDbEntity
8
cutout
6
ByLayer
62
256
370
-1
100
AcDbLine
10
6
20
6
11
6
21
114
0
LINE
5
665
100
AcDbEntity
8
cutout
6
ByLayer
62
256
370
-1
100
AcDbLine
10
6
20
114
11
294
21
114
0
LINE
5
666
100
AcDbEntity
8
cutout
6
ByLayer
62
256
370
-1
100
AcDbLine
10
294
20
114
11
294
21
6
0
LINE
5
667
100
AcDbEntity
8
cutout
6
ByLayer
62
256
370
-1
100
AcDbLine
10
294
20
6
11
6
21
6
0
DIMENSION
5
668
100
AcDbEntity
8
quotes
6
ByLayer
62
5
370
-1
100
AcDbDimension
2
*D33
10
-11
20
114
30
0
11
-12.875
21
109.5
31
0
70
33
71
5
3
Standard
53
0
210
0
220
0
230
1
100
AcDbAlignedDimension
13
15
23
105
33
0
14
15
24
114
34
0
0
DIMENSION
5
669
100
AcDbEntity
8
quotes
6
ByLayer
62
5
370
-1
100
AcDbDimension
2
*D34
10
0
20
6
30
0
11
-1.875
21
60
31
0
70
33
71
5
3
Standard
53
0
210
0
220
0
230
1
100
AcDbAlignedDimension
13
6.8
23
114
33
0
14
6.8
24
6
34
0
0
DIMENSION
5
66A
100
AcDbEntity
8
quotes
6
ByLayer
62
5
370
-1
100
AcDbDimension
2
*D35
10
294
20
-7
30
0
11
284.75
21
-5.125
31
0
70
33
71
5
3
Standard
53
0
210
0
220
0
230
1
100
AcDbAlignedDimension
13
275.5
23
34
33
0
14
294
24
34
34
0
0
DIMENSION
5
66B
100
AcDbEntity
8
quotes
6
ByLayer
62
5
370
-1
100
AcDbDimension
2
*D36
10
294
20
120
30
0
11
150
21
121.875
31
0
70
33
71
5
3
Standard
53
0
210
0
220
0
230
1
100
AcDbAlignedDimension
13
6
23
114
33
0
14
294
24
114
34
0
0
DIMENSION
5
66C
100
AcDbEntity
8
quotes
6
ByLayer
62
5
370
-1
100
AcDbDimension
2
*D37
10
6
20
136
30
0
11
12.75
21
137.875
31
0
70
33
71
5
3
Standard
53
0
210
0
220
0
230
1
100
AcDbAlignedDimension
13
19.5
23
86
33
0
14
6
24
86
34
0
0
DIMENSION
5
66D
100
AcDbEntity
8
quotes
6
ByLayer
62
5
370
-1
100
AcDbDimension
2
*D38
10
6
20
130
30
0
11
10.5
21
131.875
31
0
70
33
71
5
3
Standard
53
0
210
0
220
0
230
1
100
AcDbAlignedDimension
13
15
23
110
33
0
14
6
24
110
34
0
0
DIMENSION
5
66E
100
AcDbEntity
8
quotes
6
ByLayer
62
5
370
-1
100
AcDbDimension
2
*D39
10
270
20
91
30
0
11
268.125
21
87.05
31
0
70
33
71
5
72
0
3
Standard
53
0
210
0
220
0
230
1
100
AcDbAlignedDimension
13
271.55
23
83.1
33
0
14
271.55
24
91
34
0
0
LINE
5
66F
100
AcDbEntity
8
border
6
ByLayer
62
256
370
-1
100
AcDbLine
10
6
20
114
11
294
21
114
0
LINE
5
670
100
AcDbEntity
8
border
6
ByLayer
62
256
370
-1
100
AcDbLine
10
294
20
114
11
294
21
6
0
LINE
5
671
100
AcDbEntity
8
border
6
ByLayer
62
256
370
-1
100
AcDbLine
10
294
20
6
11
6
21
6
0
LINE
5
672
100
AcDbEntity
8
border
6
ByLayer
62
256
370
-1
100
AcDbLine
10
6
20
6
11
6
21
114
0
CIRCLE
5
673
100
AcDbEntity
8
cutout
6
ByLayer
62
1
370
-1
100
AcDbCircle
10
290
20
110
40
1.6
0
CIRCLE
5
674
100
AcDbEntity
8
cutout
6
ByLayer
62
1
370
-1
100
AcDbCircle
10
290
20
10
40
1.6
0
CIRCLE
5
675
100
AcDbEntity
8
cutout
6
ByLayer
62
1
370
-1
100
AcDbCircle
10
10
20
10
40
1.6
0
CIRCLE
5
676
100
AcDbEntity
8
cutout
6
ByLayer
62
1
370
-1
100
AcDbCircle
10
10
20
110
40
1.6
0
DIMENSION
5
677
100
AcDbEntity
8
quotes
6
ByLayer
62
5
370
-1
100
AcDbDimension
2
*D40
10
330
20
15
30
0
11
328.125
21
60
31
0
70
33
71
5
3
Standard
53
0
210
0
220
0
230
1
100
AcDbAlignedDimension
13
285
23
105
33
0
14
285
24
15
34
0
0
DIMENSION
5
678
100
AcDbEntity
8
quotes
6
ByLayer
62
5
370
-1
100
AcDbDimension
2
*D41
10
285
20
150
30
0
11
150
21
151.875
31
0
70
33
71
5
3
Standard
53
0
210
0
220
0
230
1
100
AcDbAlignedDimension
13
15
23
105
33
0
14
285
24
105
34
0
0
DIMENSION
5
679
100
AcDbEntity
8
quotes
6
ByLayer
62
5
370
-1
100
AcDbDimension
2
*D42
10
10
20
10
30
0
11
12.7518238901
21
15.4034743196
31
0
70
36
71
5
3
Standard
53
0
210
0
220
0
230
1
100
AcDbRadialDimension
15
11.1313708499
25
11.1313708499
35
0
40
0
0
DIMENSION
5
67A
100
AcDbEntity
8
quotes
6
ByLayer
62
5
370
-1
100
AcDbDimension
2
*D43
10
10
20
0
30
0
11
8
21
1.875
31
0
70
33
71
5
3
Standard
53
0
210
0
220
0
230
1
100
AcDbAlignedDimension
13
6
23
10
33
0
14
10
24
10
34
0
0
ENDSEC
0
SECTION
2
OBJECTS
0
DICTIONARY
5
C
330
0
100
AcDbDictionary
281
1
3
ACAD_GROUP
350
D
0
DICTIONARY
5
D
330
C
100
AcDbDictionary
281
1
0
ENDSEC
0
EOF
