G04*
G04 #@! TF.GenerationSoftware,Altium Limited,Altium Designer,18.1.9 (240)*
G04*
G04 Layer_Color=128*
%FSLAX44Y44*%
%MOMM*%
G71*
G01*
G75*
%ADD17R,0.8000X0.9000*%
%ADD18R,1.3000X1.0000*%
%ADD19R,0.9000X0.8000*%
%ADD23R,0.6500X0.9000*%
%ADD24R,0.6500X1.1000*%
%ADD65R,1.7000X1.1000*%
%ADD66R,1.3995X1.1498*%
%ADD67R,2.0000X1.2000*%
%ADD68R,1.0000X1.3000*%
%ADD69R,2.4000X1.0000*%
%ADD70R,2.4000X3.3000*%
%ADD71O,0.7000X2.5000*%
D17*
X100498Y202500D02*
D03*
X114498D02*
D03*
X175502Y267500D02*
D03*
X189502D02*
D03*
X228002Y290000D02*
D03*
X242002D02*
D03*
X280102Y460000D02*
D03*
X294102D02*
D03*
X329102D02*
D03*
X315102D02*
D03*
X185503Y230000D02*
D03*
X199503D02*
D03*
X341002Y35000D02*
D03*
X355002D02*
D03*
X199500Y217500D02*
D03*
X185500D02*
D03*
X185503Y205000D02*
D03*
X199503D02*
D03*
D18*
X143000Y147000D02*
D03*
Y163000D02*
D03*
X187500Y305500D02*
D03*
Y289500D02*
D03*
D19*
X110000Y110498D02*
D03*
Y124498D02*
D03*
X87500Y110498D02*
D03*
Y124498D02*
D03*
X52500Y49502D02*
D03*
Y35502D02*
D03*
X160973Y56898D02*
D03*
Y42898D02*
D03*
X126000Y175998D02*
D03*
Y189998D02*
D03*
X143000Y175998D02*
D03*
Y189998D02*
D03*
X205000Y271998D02*
D03*
Y257998D02*
D03*
X265000Y264500D02*
D03*
Y250500D02*
D03*
X270000Y221998D02*
D03*
Y207998D02*
D03*
X255000Y229498D02*
D03*
Y215498D02*
D03*
X245751Y305751D02*
D03*
Y319751D02*
D03*
X260751Y305252D02*
D03*
Y319252D02*
D03*
X280000Y303002D02*
D03*
Y317002D02*
D03*
X305000Y336998D02*
D03*
Y322998D02*
D03*
X329600Y432998D02*
D03*
Y446998D02*
D03*
X302500Y433002D02*
D03*
Y447002D02*
D03*
X187500Y110498D02*
D03*
Y124498D02*
D03*
X212500D02*
D03*
Y110498D02*
D03*
X172500Y305502D02*
D03*
Y319502D02*
D03*
X200000Y29498D02*
D03*
Y15498D02*
D03*
X225000Y29498D02*
D03*
Y15498D02*
D03*
X283500Y88802D02*
D03*
Y102802D02*
D03*
D23*
X270500Y337125D02*
D03*
X289500D02*
D03*
X296600Y474625D02*
D03*
X277600D02*
D03*
X331600D02*
D03*
X312600D02*
D03*
X302000Y172125D02*
D03*
X283000D02*
D03*
X318000Y192875D02*
D03*
X337000D02*
D03*
D24*
X280000Y357875D02*
D03*
X287100Y495375D02*
D03*
X322100D02*
D03*
X292500Y192875D02*
D03*
X327500Y172125D02*
D03*
D65*
X52500Y96000D02*
D03*
Y69000D02*
D03*
X178473Y43150D02*
D03*
Y70150D02*
D03*
X199475Y43150D02*
D03*
Y70150D02*
D03*
D66*
X245998Y273001D02*
D03*
Y256999D02*
D03*
X224002Y273001D02*
D03*
Y256999D02*
D03*
D67*
X201000Y437500D02*
D03*
X205300Y377500D02*
D03*
X279000D02*
D03*
Y437500D02*
D03*
D68*
X218024Y43900D02*
D03*
X234024D02*
D03*
D69*
X137473Y71900D02*
D03*
Y48900D02*
D03*
Y25900D02*
D03*
D70*
X79473Y48900D02*
D03*
D71*
X100950Y274500D02*
D03*
X113650D02*
D03*
X126350D02*
D03*
X139050D02*
D03*
X100950Y225500D02*
D03*
X113650D02*
D03*
X126350D02*
D03*
X139050D02*
D03*
M02*
