M48
;Layer_Color=9474304
;FILE_FORMAT=4:4
METRIC,LZ
;TYPE=PLATED
T1F00S00C0.2000
T2F00S00C0.3000
T3F00S00C0.4000
T6F00S00C0.9500
T7F00S00C1.1000
T8F00S00C1.1500
T9F00S00C2.7000
%
T01
X001641Y003998
Y004108
Y004218
Y004328
Y004438
X001751
X001861
Y004328
X001751
Y004218
X001861
Y004108
Y003998
X001751
Y004108
T02
X000565Y000065
X00053Y00027
X00052Y00059
X00044
X0006
X00024598Y00060899
Y00076899
Y00092899
Y00108899
Y00124899
X00040598
X00007Y00115
Y00065
Y00165
X00019Y0018
X00007Y00215
X0002Y00232
X00007Y00265
X00175Y002775
X0019Y00259
X00205Y0025
X00225Y002475
X00232598Y00236899
X00255Y002375
X00264999Y002325
X00265Y00242502
X002575Y00275
X00254251Y0020357
X00208Y00205
Y00218
Y0023
X00175751Y00232251
Y00217251
X00164751Y0020575
X00143Y00199
X00127Y002
X0014Y00125
X00147
X00168598Y00124899
Y00108899
X00152598
X00136598
X00156Y00072
X00163
X00161Y00065
X00173Y00079
X00181
X00196Y0008
X00204
X00248598Y00076899
Y00092899
Y00108899
X00232598Y00124899
X00213Y00133
X00197Y00124
X0019Y00015
X00215
X002565Y000065
X0025425Y0003585
X0024675
Y0004375
X001565Y000065
X001065
X00072598Y00108899
X0008Y00142
X0009
X00266998Y00181
X002675Y0019
X0028Y001825
X00309
X00319
X00302Y00191
X0031Y00205
X00307499Y00215
X00323Y00206
X003375Y00205
X00292499Y00205
X00304Y00144
X00312598Y00124899
X00335Y00133
X00331Y00142
X00325Y001525
X00355Y001525
X00376598Y00140899
X003925Y00164
X00382Y0018
X003925Y00214
X00381Y00232
X003925Y00264
X003075Y002675
X0031Y00093
X00319
Y00081
X0031
Y00069
X00319
X00323Y00048
Y00039
X00333Y00035
X00348Y00049
X00355Y00044
X003565Y000065
X003065
X003925Y00064
Y00114
X0038Y00282
Y00307
X003925Y00314
X00376598Y00332899
X003925Y00364
X00381Y00384
X003925Y00414
X00381Y00435
X003925Y00464
X00381Y00484
X003925Y00514
X00381Y00537
X003925Y00564
X00357Y00565
X00307
X002769Y004956
X00267499Y00474999
X002875Y00475
X002975Y004175
X0027Y0040555
X00267735Y00392265
X00273Y00326
X00288251Y003165
X00296598Y00300899
X00290999Y00285999
X00278752Y002925
X00268624Y00303876
X00296Y00337
X003075Y003475
X0026Y00336
X002625Y003275
X00249Y00335999
X0024Y00336
X002305Y003355
X002325Y00344
X00233251Y00319751
X002025Y003225
X002Y002925
X0022Y0029
X0025
X0024Y003825
X0023Y00385
X002625Y003825
Y0039905
X00242199Y00412099
X002421Y004221
X00237099Y00429599
X00232099Y00437099
X002271Y00444599
X002221Y004521
X002196Y004621
X002046Y004646
X00265Y004475
Y004375
X0018645Y0038605
X00184598Y00364899
X001675Y003475
X001575
X00142Y003475
X00136598Y00332899
X00136Y00322
X0013Y00315
X00136Y00308
X0013Y003
X0014Y002925
X0015Y0028
X00173Y00329999
X00142Y0038
X0002Y00384
X00007Y00365
X00024598Y00332899
X00021Y00307
X00007Y00315
X00021Y00282
X00007Y00415
X0002Y00435
X00007Y00465
X0002Y00484
X00007Y00515
X0002Y00537
X00007Y00565
X00057
X00107
X00157
X00207
X00257
T03
X002835Y00080802
Y00110802
T06
X000354Y001424
Y001678
Y001932
Y002186
Y00244
Y002694
X003656
Y00244
Y002186
Y001932
Y001678
Y00117
Y000916
Y000662
Y002948
Y003202
Y003456
Y00371
Y003964
Y004218
Y004472
Y004726
Y00498
Y005234
Y005488
X00175Y00471
X000354Y004726
Y004472
Y004218
Y003964
Y00371
Y003456
Y003202
Y002948
Y00498
Y005234
Y005488
T07
X000862Y000916
X001116
X00137
X001624
X001878
X002132
T08
X002894Y005234
Y005488
X003148
Y005234
X00264
X002386
Y005488
X002132
X001878
X001624
Y005234
X00137
X001116
X000862
Y005488
X001116
X00137
X001878Y005234
X002132
X00264Y005488
T09
X0002Y0002
X0038
M30
