G04*
G04 #@! TF.GenerationSoftware,Altium Limited,Altium Designer,18.1.9 (240)*
G04*
G04 Layer_Color=128*
%FSLAX44Y44*%
%MOMM*%
G71*
G01*
G75*
%ADD14C,0.1270*%
D14*
X131500Y91600D02*
X142500D01*
X137000Y86100D02*
Y97100D01*
X80700Y91600D02*
X91700D01*
X86200Y86100D02*
Y97100D01*
X106100Y91600D02*
X117100D01*
X111600Y86100D02*
Y97100D01*
X156900Y91600D02*
X167900D01*
X162400Y86100D02*
Y97100D01*
X182300Y91600D02*
X193300D01*
X187800Y86100D02*
Y97100D01*
X207700Y91600D02*
X218700D01*
X213200Y86100D02*
Y97100D01*
X170250Y471000D02*
X179750D01*
X175000Y466250D02*
Y475750D01*
X283650Y548800D02*
X295150D01*
X289400Y543050D02*
Y554550D01*
X305750Y45950D02*
X312250D01*
X309000Y42700D02*
Y49200D01*
X261250Y45950D02*
X267750D01*
X264500Y42700D02*
Y49200D01*
X240875Y15400D02*
X249125D01*
X245000Y11275D02*
Y19525D01*
X324375Y15400D02*
X332625D01*
X328500Y11275D02*
Y19525D01*
X309050Y523400D02*
X320550D01*
X314800Y517650D02*
Y529150D01*
X283650Y523400D02*
X295150D01*
X289400Y517650D02*
Y529150D01*
X366500Y20000D02*
X393500D01*
X380000Y6500D02*
Y33500D01*
X156650Y523400D02*
X168150D01*
X162400Y517650D02*
Y529150D01*
X131250Y523400D02*
X142750D01*
X137000Y517650D02*
Y529150D01*
X105850Y523400D02*
X117350D01*
X111600Y517650D02*
Y529150D01*
X80450Y523400D02*
X91950D01*
X86200Y517650D02*
Y529150D01*
X360850Y523400D02*
X370350D01*
X365600Y518650D02*
Y528150D01*
X30650Y269400D02*
X40150D01*
X35400Y264650D02*
Y274150D01*
X30650Y218600D02*
X40150D01*
X35400Y213850D02*
Y223350D01*
X30650Y294800D02*
X40150D01*
X35400Y290050D02*
Y299550D01*
X30650Y244000D02*
X40150D01*
X35400Y239250D02*
Y248750D01*
X30650Y320200D02*
X40150D01*
X35400Y315450D02*
Y324950D01*
X30650Y421800D02*
X40150D01*
X35400Y417050D02*
Y426550D01*
X360850Y218600D02*
X370350D01*
X365600Y213850D02*
Y223350D01*
X30650Y447200D02*
X40150D01*
X35400Y442450D02*
Y451950D01*
X360850Y498000D02*
X370350D01*
X365600Y493250D02*
Y502750D01*
X360850Y193200D02*
X370350D01*
X365600Y188450D02*
Y197950D01*
X360850Y472600D02*
X370350D01*
X365600Y467850D02*
Y477350D01*
X30650Y167800D02*
X40150D01*
X35400Y163050D02*
Y172550D01*
X360850Y447200D02*
X370350D01*
X365600Y442450D02*
Y451950D01*
X30650Y193200D02*
X40150D01*
X35400Y188450D02*
Y197950D01*
X360850Y421800D02*
X370350D01*
X365600Y417050D02*
Y426550D01*
X30650Y345600D02*
X40150D01*
X35400Y340850D02*
Y350350D01*
X360850Y167800D02*
X370350D01*
X365600Y163050D02*
Y172550D01*
X360850Y396400D02*
X370350D01*
X365600Y391650D02*
Y401150D01*
X30650Y142400D02*
X40150D01*
X35400Y137650D02*
Y147150D01*
X360850Y371000D02*
X370350D01*
X365600Y366250D02*
Y375750D01*
X360850Y345600D02*
X370350D01*
X365600Y340850D02*
Y350350D01*
X30650Y472600D02*
X40150D01*
X35400Y467850D02*
Y477350D01*
X360850Y320200D02*
X370350D01*
X365600Y315450D02*
Y324950D01*
X30650Y498000D02*
X40150D01*
X35400Y493250D02*
Y502750D01*
X360850Y294800D02*
X370350D01*
X365600Y290050D02*
Y299550D01*
X30650Y523400D02*
X40150D01*
X35400Y518650D02*
Y528150D01*
X360850Y269400D02*
X370350D01*
X365600Y264650D02*
Y274150D01*
X30650Y548800D02*
X40150D01*
X35400Y544050D02*
Y553550D01*
X360850Y244000D02*
X370350D01*
X365600Y239250D02*
Y248750D01*
X30650Y371000D02*
X40150D01*
X35400Y366250D02*
Y375750D01*
X360850Y548800D02*
X370350D01*
X365600Y544050D02*
Y553550D01*
X30650Y396400D02*
X40150D01*
X35400Y391650D02*
Y401150D01*
X360850Y117000D02*
X370350D01*
X365600Y112250D02*
Y121750D01*
X182050Y548800D02*
X193550D01*
X187800Y543050D02*
Y554550D01*
X232850Y548800D02*
X244350D01*
X238600Y543050D02*
Y554550D01*
X207450Y548800D02*
X218950D01*
X213200Y543050D02*
Y554550D01*
X156650Y548800D02*
X168150D01*
X162400Y543050D02*
Y554550D01*
X105850Y548800D02*
X117350D01*
X111600Y543050D02*
Y554550D01*
X131250Y548800D02*
X142750D01*
X137000Y543050D02*
Y554550D01*
X232850Y523400D02*
X244350D01*
X238600Y517650D02*
Y529150D01*
X258250Y523400D02*
X269750D01*
X264000Y517650D02*
Y529150D01*
X80450Y548800D02*
X91950D01*
X86200Y543050D02*
Y554550D01*
X182050Y523400D02*
X193550D01*
X187800Y517650D02*
Y529150D01*
X258250Y548800D02*
X269750D01*
X264000Y543050D02*
Y554550D01*
X207450Y523400D02*
X218950D01*
X213200Y517650D02*
Y529150D01*
X309050Y548800D02*
X320550D01*
X314800Y543050D02*
Y554550D01*
X360850Y66200D02*
X370350D01*
X365600Y61450D02*
Y70950D01*
X360850Y91600D02*
X370350D01*
X365600Y86850D02*
Y96350D01*
X6500Y20000D02*
X33500D01*
X20000Y6500D02*
Y33500D01*
X163100Y443800D02*
X165100D01*
X164100Y442800D02*
Y444800D01*
X174100Y443800D02*
X176100D01*
X175100Y442800D02*
Y444800D01*
X185100Y443800D02*
X187100D01*
X186100Y442800D02*
Y444800D01*
X163100Y432800D02*
X165100D01*
X164100Y431800D02*
Y433800D01*
X174100Y432800D02*
X176100D01*
X175100Y431800D02*
Y433800D01*
X185100Y432800D02*
X187100D01*
X186100Y431800D02*
Y433800D01*
X163100Y421800D02*
X165100D01*
X164100Y420800D02*
Y422800D01*
X174100Y421800D02*
X176100D01*
X175100Y420800D02*
Y422800D01*
X185100Y421800D02*
X187100D01*
X186100Y420800D02*
Y422800D01*
X163100Y410800D02*
X165100D01*
X164100Y409800D02*
Y411800D01*
X174100Y410800D02*
X176100D01*
X175100Y409800D02*
Y411800D01*
X185100Y410800D02*
X187100D01*
X186100Y409800D02*
Y411800D01*
X163100Y399800D02*
X165100D01*
X164100Y398800D02*
Y400800D01*
X174100Y399800D02*
X176100D01*
X175100Y398800D02*
Y400800D01*
X185100Y399800D02*
X187100D01*
X186100Y398800D02*
Y400800D01*
X18500Y537000D02*
X21500D01*
X20000Y535500D02*
Y538500D01*
X18500Y484000D02*
X21500D01*
X20000Y482500D02*
Y485500D01*
X18500Y435000D02*
X21500D01*
X20000Y433500D02*
Y436500D01*
X18500Y384000D02*
X21500D01*
X20000Y382500D02*
Y385500D01*
X19500Y307000D02*
X22500D01*
X21000Y305500D02*
Y308500D01*
X19500Y282000D02*
X22500D01*
X21000Y280500D02*
Y283500D01*
X18500Y232000D02*
X21500D01*
X20000Y230500D02*
Y233500D01*
X17500Y180000D02*
X20500D01*
X19000Y178500D02*
Y181500D01*
X380500Y180000D02*
X383500D01*
X382000Y178500D02*
Y181500D01*
X379500Y232000D02*
X382500D01*
X381000Y230500D02*
Y233500D01*
X378500Y282000D02*
X381500D01*
X380000Y280500D02*
Y283500D01*
X378500Y307000D02*
X381500D01*
X380000Y305500D02*
Y308500D01*
X379500Y384000D02*
X382500D01*
X381000Y382500D02*
Y385500D01*
X379500Y435000D02*
X382500D01*
X381000Y433500D02*
Y436500D01*
X379500Y484000D02*
X382500D01*
X381000Y482500D02*
Y485500D01*
X379500Y537000D02*
X382500D01*
X381000Y535500D02*
Y538500D01*
X375098Y332899D02*
X378098D01*
X376598Y331399D02*
Y334399D01*
X375098Y140899D02*
X378098D01*
X376598Y139399D02*
Y142399D01*
X311098Y124899D02*
X314098D01*
X312598Y123399D02*
Y126399D01*
X295098Y300899D02*
X298098D01*
X296598Y299399D02*
Y302399D01*
X247098Y108899D02*
X250098D01*
X248598Y107399D02*
Y110399D01*
X247098Y92899D02*
X250098D01*
X248598Y91399D02*
Y94399D01*
X247098Y76899D02*
X250098D01*
X248598Y75399D02*
Y78399D01*
X231098Y236899D02*
X234098D01*
X232598Y235399D02*
Y238399D01*
X231098Y124899D02*
X234098D01*
X232598Y123399D02*
Y126399D01*
X183098Y364899D02*
X186098D01*
X184598Y363399D02*
Y366399D01*
X167098Y124899D02*
X170098D01*
X168598Y123399D02*
Y126399D01*
X167098Y108899D02*
X170098D01*
X168598Y107399D02*
Y110399D01*
X151098Y108899D02*
X154098D01*
X152598Y107399D02*
Y110399D01*
X135098Y332899D02*
X138098D01*
X136598Y331399D02*
Y334399D01*
X135098Y108899D02*
X138098D01*
X136598Y107399D02*
Y110399D01*
X71098Y108899D02*
X74098D01*
X72598Y107399D02*
Y110399D01*
X39098Y124899D02*
X42098D01*
X40598Y123399D02*
Y126399D01*
X23098Y332899D02*
X26098D01*
X24598Y331399D02*
Y334399D01*
X23098Y124899D02*
X26098D01*
X24598Y123399D02*
Y126399D01*
X23098Y108899D02*
X26098D01*
X24598Y107399D02*
Y110399D01*
X23098Y92899D02*
X26098D01*
X24598Y91399D02*
Y94399D01*
X23098Y76899D02*
X26098D01*
X24598Y75399D02*
Y78399D01*
X23098Y60899D02*
X26098D01*
X24598Y59399D02*
Y62399D01*
X55000Y6500D02*
X58000D01*
X56500Y5000D02*
Y8000D01*
X105000Y6500D02*
X108000D01*
X106500Y5000D02*
Y8000D01*
X155000Y6500D02*
X158000D01*
X156500Y5000D02*
Y8000D01*
X255000Y6500D02*
X258000D01*
X256500Y5000D02*
Y8000D01*
X305000Y6500D02*
X308000D01*
X306500Y5000D02*
Y8000D01*
X355000Y6500D02*
X358000D01*
X356500Y5000D02*
Y8000D01*
X355500Y565000D02*
X358500D01*
X357000Y563500D02*
Y566500D01*
X305500Y565000D02*
X308500D01*
X307000Y563500D02*
Y566500D01*
X255500Y565000D02*
X258500D01*
X257000Y563500D02*
Y566500D01*
X205500Y565000D02*
X208500D01*
X207000Y563500D02*
Y566500D01*
X155500Y565000D02*
X158500D01*
X157000Y563500D02*
Y566500D01*
X105500Y565000D02*
X108500D01*
X107000Y563500D02*
Y566500D01*
X55500Y565000D02*
X58500D01*
X57000Y563500D02*
Y566500D01*
X5500Y565000D02*
X8500D01*
X7000Y563500D02*
Y566500D01*
X5500Y515000D02*
X8500D01*
X7000Y513500D02*
Y516500D01*
X5500Y465000D02*
X8500D01*
X7000Y463500D02*
Y466500D01*
X5500Y415000D02*
X8500D01*
X7000Y413500D02*
Y416500D01*
X5500Y365000D02*
X8500D01*
X7000Y363500D02*
Y366500D01*
X5500Y315000D02*
X8500D01*
X7000Y313500D02*
Y316500D01*
X5500Y265000D02*
X8500D01*
X7000Y263500D02*
Y266500D01*
X5500Y215000D02*
X8500D01*
X7000Y213500D02*
Y216500D01*
X5500Y165000D02*
X8500D01*
X7000Y163500D02*
Y166500D01*
X5500Y115000D02*
X8500D01*
X7000Y113500D02*
Y116500D01*
X5500Y65000D02*
X8500D01*
X7000Y63500D02*
Y66500D01*
X391000Y64000D02*
X394000D01*
X392500Y62500D02*
Y65500D01*
X391000Y114000D02*
X394000D01*
X392500Y112500D02*
Y115500D01*
X391000Y164000D02*
X394000D01*
X392500Y162500D02*
Y165500D01*
X391000Y214000D02*
X394000D01*
X392500Y212500D02*
Y215500D01*
X391000Y264000D02*
X394000D01*
X392500Y262500D02*
Y265500D01*
X391000Y314000D02*
X394000D01*
X392500Y312500D02*
Y315500D01*
X391000Y364000D02*
X394000D01*
X392500Y362500D02*
Y365500D01*
X391000Y414000D02*
X394000D01*
X392500Y412500D02*
Y415500D01*
X391000Y464000D02*
X394000D01*
X392500Y462500D02*
Y465500D01*
X391000Y514000D02*
X394000D01*
X392500Y512500D02*
Y515500D01*
X391000Y564000D02*
X394000D01*
X392500Y562500D02*
Y565500D01*
X247500Y335999D02*
X250499D01*
X249000Y334499D02*
Y337499D01*
X238500Y336000D02*
X241500D01*
X240000Y334500D02*
Y337500D01*
X258500Y336000D02*
X261500D01*
X260000Y334500D02*
Y337500D01*
X231751Y319751D02*
X234751D01*
X233251Y318251D02*
Y321251D01*
X231000Y344000D02*
X234000D01*
X232500Y342500D02*
Y345500D01*
X229000Y335500D02*
X232000D01*
X230500Y334000D02*
Y337000D01*
X333500Y133000D02*
X336500D01*
X335000Y131500D02*
Y134500D01*
X329500Y142000D02*
X332500D01*
X331000Y140500D02*
Y143500D01*
X206500Y205000D02*
X209500D01*
X208000Y203500D02*
Y206500D01*
X206500Y218000D02*
X209500D01*
X208000Y216500D02*
Y219500D01*
X206500Y230000D02*
X209500D01*
X208000Y228500D02*
Y231500D01*
X188500Y259000D02*
X191500D01*
X190000Y257500D02*
Y260500D01*
X58500Y59000D02*
X61500D01*
X60000Y57500D02*
Y60500D01*
X42500Y59000D02*
X45500D01*
X44000Y57500D02*
Y60500D01*
X195500Y124000D02*
X198500D01*
X197000Y122500D02*
Y125500D01*
X194500Y80000D02*
X197500D01*
X196000Y78500D02*
Y81500D01*
X179500Y79000D02*
X182500D01*
X181000Y77500D02*
Y80500D01*
X202500Y80000D02*
X205500D01*
X204000Y78500D02*
Y81500D01*
X171500Y79000D02*
X174500D01*
X173000Y77500D02*
Y80500D01*
X159500Y65000D02*
X162500D01*
X161000Y63500D02*
Y66500D01*
X161500Y72000D02*
X164500D01*
X163000Y70500D02*
Y73500D01*
X154500Y72000D02*
X157500D01*
X156000Y70500D02*
Y73500D01*
X346500Y49000D02*
X349500D01*
X348000Y47500D02*
Y50500D01*
X353500Y44000D02*
X356500D01*
X355000Y42500D02*
Y45500D01*
X331500Y35000D02*
X334500D01*
X333000Y33500D02*
Y36500D01*
X321500Y39000D02*
X324500D01*
X323000Y37500D02*
Y40500D01*
X321500Y48000D02*
X324500D01*
X323000Y46500D02*
Y49500D01*
X308500Y93000D02*
X311500D01*
X310000Y91500D02*
Y94500D01*
X317500Y93000D02*
X320500D01*
X319000Y91500D02*
Y94500D01*
X308500Y81000D02*
X311500D01*
X310000Y79500D02*
Y82500D01*
X317500Y81000D02*
X320500D01*
X319000Y79500D02*
Y82500D01*
X317500Y69000D02*
X320500D01*
X319000Y67500D02*
Y70500D01*
X308500Y69000D02*
X311500D01*
X310000Y67500D02*
Y70500D01*
X302500Y144000D02*
X305500D01*
X304000Y142500D02*
Y145500D01*
X336000Y205000D02*
X339000D01*
X337500Y203500D02*
Y206500D01*
X50500Y59000D02*
X53500D01*
X52000Y57500D02*
Y60500D01*
X145500Y125000D02*
X148500D01*
X147000Y123500D02*
Y126500D01*
X138500Y125000D02*
X141500D01*
X140000Y123500D02*
Y126500D01*
X78500Y142000D02*
X81500D01*
X80000Y140500D02*
Y143500D01*
X88500Y142000D02*
X91500D01*
X90000Y140500D02*
Y143500D01*
X213500Y15000D02*
X216500D01*
X215000Y13500D02*
Y16500D01*
X188500Y15000D02*
X191500D01*
X190000Y13500D02*
Y16500D01*
X245250Y43750D02*
X248250D01*
X246750Y42250D02*
Y45250D01*
X252750Y35850D02*
X255750D01*
X254250Y34350D02*
Y37350D01*
X321500Y206000D02*
X324500D01*
X323000Y204500D02*
Y207500D01*
X317500Y182500D02*
X320500D01*
X319000Y181000D02*
Y184000D01*
X300500Y191000D02*
X303500D01*
X302000Y189500D02*
Y192500D01*
X307500Y182500D02*
X310500D01*
X309000Y181000D02*
Y184000D01*
X266000Y190000D02*
X269000D01*
X267500Y188500D02*
Y191500D01*
X278500Y182500D02*
X281500D01*
X280000Y181000D02*
Y184000D01*
X265498Y181000D02*
X268498D01*
X266998Y179500D02*
Y182500D01*
X323500Y152500D02*
X326500D01*
X325000Y151000D02*
Y154000D01*
X353500Y152500D02*
X356500D01*
X355000Y151000D02*
Y154000D01*
X281500Y80802D02*
X285500D01*
X283500Y78802D02*
Y82802D01*
X138500Y292500D02*
X141500D01*
X140000Y291000D02*
Y294000D01*
X51500Y27000D02*
X54500D01*
X53000Y25500D02*
Y28500D01*
X286751Y316500D02*
X289751D01*
X288251Y315000D02*
Y318000D01*
X267124Y303876D02*
X270124D01*
X268624Y302376D02*
Y305376D01*
X277251Y292500D02*
X280252D01*
X278752Y291000D02*
Y294000D01*
X263499Y232500D02*
X266499D01*
X264999Y231000D02*
Y234000D01*
X253500Y237500D02*
X256500D01*
X255000Y236000D02*
Y239000D01*
X173500Y277500D02*
X176500D01*
X175000Y276000D02*
Y279000D01*
X148500Y280000D02*
X151500D01*
X150000Y278500D02*
Y281500D01*
X248500Y290000D02*
X251500D01*
X250000Y288500D02*
Y291500D01*
X256000Y275000D02*
X259000D01*
X257500Y273500D02*
Y276500D01*
X218500Y290000D02*
X221500D01*
X220000Y288500D02*
Y291500D01*
X203500Y250000D02*
X206500D01*
X205000Y248500D02*
Y251500D01*
X263500Y242502D02*
X266500D01*
X265000Y241002D02*
Y244002D01*
X223500Y247500D02*
X226500D01*
X225000Y246000D02*
Y249000D01*
X134500Y322000D02*
X137500D01*
X136000Y320500D02*
Y323500D01*
X134500Y308000D02*
X137500D01*
X136000Y306500D02*
Y309500D01*
X211500Y133000D02*
X214500D01*
X213000Y131500D02*
Y134500D01*
X171500Y329999D02*
X174500D01*
X173000Y328499D02*
Y331499D01*
X140500Y380000D02*
X143500D01*
X142000Y378500D02*
Y381500D01*
X289499Y285999D02*
X292499D01*
X290999Y284499D02*
Y287499D01*
X271500Y326000D02*
X274500D01*
X273000Y324500D02*
Y327500D01*
X294500Y337000D02*
X297500D01*
X296000Y335500D02*
Y338500D01*
X306000Y267500D02*
X309000D01*
X307500Y266000D02*
Y269000D01*
X290999Y205000D02*
X293999D01*
X292499Y203500D02*
Y206500D01*
X306000Y347500D02*
X309000D01*
X307500Y346000D02*
Y349000D01*
X261000Y382500D02*
X264000D01*
X262500Y381000D02*
Y384000D01*
X263500Y447500D02*
X266500D01*
X265000Y446000D02*
Y449000D01*
X263500Y437500D02*
X266500D01*
X265000Y436000D02*
Y439000D01*
X268500Y405550D02*
X271500D01*
X270000Y404050D02*
Y407050D01*
X266235Y392265D02*
X269235D01*
X267735Y390765D02*
Y393765D01*
X296000Y417500D02*
X299000D01*
X297500Y416000D02*
Y419000D01*
X261000Y399050D02*
X264000D01*
X262500Y397550D02*
Y400550D01*
X228500Y385000D02*
X231500D01*
X230000Y383500D02*
Y386500D01*
X238500Y382500D02*
X241500D01*
X240000Y381000D02*
Y384000D01*
X261000Y327500D02*
X264000D01*
X262500Y326000D02*
Y329000D01*
X128500Y315000D02*
X131500D01*
X130000Y313500D02*
Y316500D01*
X252752Y203570D02*
X255751D01*
X254251Y202070D02*
Y205070D01*
X128500Y300000D02*
X131500D01*
X130000Y298500D02*
Y301500D01*
X166000Y347500D02*
X169000D01*
X167500Y346000D02*
Y349000D01*
X156000Y347500D02*
X159000D01*
X157500Y346000D02*
Y349000D01*
X140500Y347500D02*
X143500D01*
X142000Y346000D02*
Y349000D01*
X184950Y386050D02*
X187950D01*
X186450Y384550D02*
Y387550D01*
X265999Y474999D02*
X268999D01*
X267499Y473499D02*
Y476499D01*
X286000Y475000D02*
X289000D01*
X287500Y473500D02*
Y476500D01*
X275400Y495600D02*
X278400D01*
X276900Y494100D02*
Y497100D01*
X305999Y215000D02*
X308999D01*
X307499Y213500D02*
Y216500D01*
X308500Y205000D02*
X311500D01*
X310000Y203500D02*
Y206500D01*
X240600Y422100D02*
X243600D01*
X242100Y420600D02*
Y423600D01*
X235599Y429599D02*
X238599D01*
X237099Y428099D02*
Y431099D01*
X240699Y412099D02*
X243699D01*
X242199Y410599D02*
Y413599D01*
X230599Y437099D02*
X233599D01*
X232099Y435599D02*
Y438599D01*
X218100Y462100D02*
X221100D01*
X219600Y460600D02*
Y463600D01*
X220600Y452100D02*
X223600D01*
X222100Y450600D02*
Y453600D01*
X225600Y444599D02*
X228600D01*
X227100Y443100D02*
Y446100D01*
X203100Y464600D02*
X206100D01*
X204600Y463100D02*
Y466100D01*
X141500Y199000D02*
X144500D01*
X143000Y197500D02*
Y200500D01*
X125500Y200000D02*
X128500D01*
X127000Y198500D02*
Y201500D01*
X198500Y292500D02*
X201500D01*
X200000Y291000D02*
Y294000D01*
X201000Y322500D02*
X204000D01*
X202500Y321000D02*
Y324000D01*
X245250Y35850D02*
X248250D01*
X246750Y34350D02*
Y37350D01*
X174251Y232251D02*
X177251D01*
X175751Y230751D02*
Y233751D01*
X163251Y205750D02*
X166252D01*
X164751Y204250D02*
Y207250D01*
X174251Y217251D02*
X177251D01*
X175751Y215751D02*
Y218751D01*
X281500Y110802D02*
X285500D01*
X283500Y108802D02*
Y112802D01*
M02*
