G04*
G04 #@! TF.GenerationSoftware,Altium Limited,Altium Designer,18.0.7 (293)*
G04*
G04 Layer_Color=8388736*
%FSLAX44Y44*%
%MOMM*%
G71*
G01*
G75*
%ADD30R,0.9000X1.0000*%
%ADD31R,1.4000X1.1000*%
%ADD32R,1.0000X0.9000*%
%ADD33R,1.9000X2.0000*%
%ADD34R,0.5000X1.4500*%
%ADD35R,0.9000X1.7000*%
%ADD36R,0.7500X1.0000*%
%ADD37R,0.7500X1.2000*%
%ADD38O,0.4000X1.5000*%
%ADD39O,1.5000X0.4000*%
%ADD40R,3.5000X5.3000*%
%ADD41O,1.5000X0.5500*%
%ADD42R,0.4000X0.6000*%
%ADD43C,1.7500*%
%ADD44R,1.7500X1.7500*%
%ADD45C,1.9000*%
%ADD46O,1.8000X2.1000*%
%ADD47O,1.1500X1.3500*%
%ADD48C,4.1000*%
G36*
X260173Y25393D02*
X260267Y25364D01*
X260354Y25318D01*
X260430Y25255D01*
X260493Y25179D01*
X260539Y25092D01*
X260568Y24998D01*
X260577Y24900D01*
Y5900D01*
X260568Y5802D01*
X260539Y5708D01*
X260493Y5621D01*
X260430Y5545D01*
X260354Y5482D01*
X260267Y5436D01*
X260173Y5407D01*
X260075Y5398D01*
X242230D01*
X242132Y5407D01*
X242038Y5436D01*
X240201Y6197D01*
X240200Y6197D01*
X240114Y6243D01*
X240037Y6306D01*
X238631Y7712D01*
X238568Y7789D01*
X238522Y7875D01*
X238522Y7875D01*
X237761Y9713D01*
X237732Y9807D01*
X237723Y9905D01*
Y10900D01*
Y21900D01*
Y22497D01*
X237732Y22595D01*
X237761Y22689D01*
X238218Y23792D01*
X238264Y23879D01*
X238326Y23955D01*
X239170Y24799D01*
X239208Y24830D01*
X239247Y24861D01*
X239333Y24907D01*
X240436Y25364D01*
X240530Y25393D01*
X240628Y25402D01*
X260075D01*
X260173Y25393D01*
D02*
G37*
G36*
X332970D02*
X333064Y25364D01*
X334167Y24907D01*
X334254Y24861D01*
X334291Y24830D01*
X334330Y24799D01*
X335173Y23955D01*
X335236Y23879D01*
X335282Y23792D01*
X335739Y22689D01*
X335768Y22595D01*
X335777Y22497D01*
Y22497D01*
D01*
Y21900D01*
Y10900D01*
Y9905D01*
X335768Y9807D01*
X335739Y9713D01*
X334978Y7875D01*
X334931Y7789D01*
X334869Y7712D01*
X333462Y6306D01*
X333386Y6243D01*
X333299Y6197D01*
X333299Y6197D01*
X331462Y5436D01*
X331367Y5407D01*
X331269Y5398D01*
X313425D01*
X313327Y5407D01*
X313233Y5436D01*
X313146Y5482D01*
X313070Y5545D01*
X313007Y5621D01*
X312961Y5708D01*
X312932Y5802D01*
X312923Y5900D01*
Y24900D01*
X312932Y24998D01*
X312961Y25092D01*
X313007Y25179D01*
X313070Y25255D01*
X313146Y25318D01*
X313233Y25364D01*
X313327Y25393D01*
X313425Y25402D01*
X332872D01*
X332970Y25393D01*
D02*
G37*
D30*
X272998Y335000D02*
D03*
X286998D02*
D03*
X322002Y172500D02*
D03*
X308002D02*
D03*
X294502D02*
D03*
X280502D02*
D03*
X266998Y172500D02*
D03*
X252998D02*
D03*
X346998Y121000D02*
D03*
X332998D02*
D03*
X346998Y76000D02*
D03*
X332998D02*
D03*
X332998Y90000D02*
D03*
X346998D02*
D03*
X332998Y106000D02*
D03*
X346998D02*
D03*
X332998Y152500D02*
D03*
X346998D02*
D03*
X316998D02*
D03*
X302998D02*
D03*
X280098Y460000D02*
D03*
X294098D02*
D03*
X347202Y548800D02*
D03*
X333202D02*
D03*
X347202Y498000D02*
D03*
X333202D02*
D03*
X67798Y498000D02*
D03*
X53798D02*
D03*
Y371000D02*
D03*
X67798D02*
D03*
X53798Y472600D02*
D03*
X67798D02*
D03*
X347202Y371000D02*
D03*
X333202D02*
D03*
X53798Y167800D02*
D03*
X67798D02*
D03*
X347202Y345600D02*
D03*
X333202D02*
D03*
X347202Y447200D02*
D03*
X333202D02*
D03*
X347202Y472600D02*
D03*
X333202D02*
D03*
X347202Y193200D02*
D03*
X333202D02*
D03*
X53798Y447200D02*
D03*
X67798D02*
D03*
Y396400D02*
D03*
X53798D02*
D03*
X67798Y142400D02*
D03*
X53798D02*
D03*
X333202Y167800D02*
D03*
X347202D02*
D03*
X67798Y548800D02*
D03*
X53798D02*
D03*
X333202Y269400D02*
D03*
X347202D02*
D03*
X333202Y244000D02*
D03*
X347202D02*
D03*
X333202Y294800D02*
D03*
X347202D02*
D03*
X333202Y320200D02*
D03*
X347202D02*
D03*
X333202Y396400D02*
D03*
X347202D02*
D03*
X67798Y345600D02*
D03*
X53798D02*
D03*
X333202Y421800D02*
D03*
X347202D02*
D03*
X67798Y193200D02*
D03*
X53798D02*
D03*
X333202Y218600D02*
D03*
X347202D02*
D03*
X67798Y421800D02*
D03*
X53798D02*
D03*
X67798Y320200D02*
D03*
X53798D02*
D03*
X67798Y244000D02*
D03*
X53798D02*
D03*
X67798Y294800D02*
D03*
X53798D02*
D03*
X67798Y218600D02*
D03*
X53798D02*
D03*
X67798Y269400D02*
D03*
X53798D02*
D03*
D31*
X162500Y357000D02*
D03*
Y373000D02*
D03*
X349500Y33000D02*
D03*
Y17000D02*
D03*
D32*
X142000Y358002D02*
D03*
Y372002D02*
D03*
X295000Y447002D02*
D03*
Y433002D02*
D03*
X345000Y513002D02*
D03*
Y527002D02*
D03*
X55000Y513002D02*
D03*
Y527002D02*
D03*
X127500Y224502D02*
D03*
Y210502D02*
D03*
X142500Y224502D02*
D03*
Y210502D02*
D03*
D33*
X298250Y15400D02*
D03*
X275250D02*
D03*
D34*
X273750Y43450D02*
D03*
X299750D02*
D03*
X280250D02*
D03*
X286750D02*
D03*
X293250D02*
D03*
D35*
X277500Y385500D02*
D03*
Y419500D02*
D03*
D36*
X277600Y474625D02*
D03*
X296600D02*
D03*
D37*
X287100Y495375D02*
D03*
D38*
X259251Y307000D02*
D03*
X254251D02*
D03*
X249251D02*
D03*
X244251D02*
D03*
X239251D02*
D03*
X234251D02*
D03*
X229251D02*
D03*
X224251D02*
D03*
X219251D02*
D03*
X214251D02*
D03*
X209251D02*
D03*
X204251D02*
D03*
X199251D02*
D03*
X194251D02*
D03*
X189251D02*
D03*
X184251D02*
D03*
Y193000D02*
D03*
X189251D02*
D03*
X194251D02*
D03*
X199251D02*
D03*
X204251D02*
D03*
X209251D02*
D03*
X214251D02*
D03*
X219251D02*
D03*
X224251D02*
D03*
X229251D02*
D03*
X234251D02*
D03*
X249251D02*
D03*
X254251D02*
D03*
X259251D02*
D03*
X244251D02*
D03*
X239251D02*
D03*
D39*
X164751Y287500D02*
D03*
Y282500D02*
D03*
Y277500D02*
D03*
Y272500D02*
D03*
Y267500D02*
D03*
Y262500D02*
D03*
Y257500D02*
D03*
Y252500D02*
D03*
Y247500D02*
D03*
Y242500D02*
D03*
Y237500D02*
D03*
Y232500D02*
D03*
Y227500D02*
D03*
Y222500D02*
D03*
Y217500D02*
D03*
Y212500D02*
D03*
X278752D02*
D03*
Y217500D02*
D03*
Y222500D02*
D03*
Y227500D02*
D03*
Y232500D02*
D03*
Y237500D02*
D03*
Y242500D02*
D03*
Y247500D02*
D03*
Y252500D02*
D03*
Y257500D02*
D03*
Y262500D02*
D03*
Y267500D02*
D03*
Y272500D02*
D03*
Y277500D02*
D03*
Y282500D02*
D03*
Y287500D02*
D03*
D40*
X175100Y421800D02*
D03*
D41*
X145600Y457550D02*
D03*
Y451050D02*
D03*
Y444550D02*
D03*
Y438050D02*
D03*
Y431550D02*
D03*
Y425050D02*
D03*
Y418550D02*
D03*
Y412050D02*
D03*
Y405550D02*
D03*
Y399050D02*
D03*
Y392550D02*
D03*
Y386050D02*
D03*
X204600Y457550D02*
D03*
Y451050D02*
D03*
Y444550D02*
D03*
Y438050D02*
D03*
Y431550D02*
D03*
Y425050D02*
D03*
Y418550D02*
D03*
Y412050D02*
D03*
Y405550D02*
D03*
Y399050D02*
D03*
Y392550D02*
D03*
Y386050D02*
D03*
D42*
X283500Y88800D02*
D03*
X288500D02*
D03*
X278500D02*
D03*
X288500Y102800D02*
D03*
X283500D02*
D03*
X278500D02*
D03*
D43*
X137000Y91600D02*
D03*
X111600D02*
D03*
X162400D02*
D03*
X187800D02*
D03*
X213200D02*
D03*
D44*
X86200D02*
D03*
D45*
X175000Y471000D02*
D03*
X365600Y523400D02*
D03*
X35400Y269400D02*
D03*
Y218600D02*
D03*
Y294800D02*
D03*
Y244000D02*
D03*
Y320200D02*
D03*
Y421800D02*
D03*
X365600Y218600D02*
D03*
X35400Y447200D02*
D03*
X365600Y498000D02*
D03*
Y193200D02*
D03*
Y472600D02*
D03*
X35400Y167800D02*
D03*
X365600Y447200D02*
D03*
X35400Y193200D02*
D03*
X365600Y421800D02*
D03*
X35400Y345600D02*
D03*
X365600Y167800D02*
D03*
Y396400D02*
D03*
X35400Y142400D02*
D03*
X365600Y371000D02*
D03*
Y345600D02*
D03*
X35400Y472600D02*
D03*
X365600Y320200D02*
D03*
X35400Y498000D02*
D03*
X365600Y294800D02*
D03*
X35400Y523400D02*
D03*
X365600Y269400D02*
D03*
X35400Y548800D02*
D03*
X365600Y244000D02*
D03*
X35400Y371000D02*
D03*
X365600Y548800D02*
D03*
X35400Y396400D02*
D03*
X365600Y117000D02*
D03*
Y66200D02*
D03*
Y91600D02*
D03*
D46*
X289400Y548800D02*
D03*
X314800Y523400D02*
D03*
X289400D02*
D03*
X162400D02*
D03*
X137000D02*
D03*
X111600D02*
D03*
X86200D02*
D03*
X187800Y548800D02*
D03*
X238600D02*
D03*
X213200D02*
D03*
X162400D02*
D03*
X111600D02*
D03*
X137000D02*
D03*
X238600Y523400D02*
D03*
X264000D02*
D03*
X86200Y548800D02*
D03*
X187800Y523400D02*
D03*
X264000Y548800D02*
D03*
X213200Y523400D02*
D03*
X314800Y548800D02*
D03*
D47*
X309000Y45950D02*
D03*
X264500D02*
D03*
D48*
X380000Y20000D02*
D03*
X20000D02*
D03*
M02*
