G04*
G04 #@! TF.GenerationSoftware,Altium Limited,Altium Designer,18.0.7 (293)*
G04*
G04 Layer_Color=16711935*
%FSLAX44Y44*%
%MOMM*%
G71*
G01*
G75*
%ADD10C,0.2000*%
%ADD11C,0.2500*%
%ADD30R,0.9000X1.0000*%
%ADD31R,1.4000X1.1000*%
%ADD32R,1.0000X0.9000*%
%ADD36R,0.7500X1.0000*%
%ADD37R,0.7500X1.2000*%
%ADD43C,1.7500*%
%ADD44R,1.7500X1.7500*%
%ADD45C,1.9000*%
%ADD46O,1.8000X2.1000*%
%ADD47O,1.1500X1.3500*%
%ADD48C,4.1000*%
%ADD74R,1.8000X1.2000*%
%ADD75R,1.4995X1.2498*%
%ADD76R,2.1000X1.3000*%
%ADD77R,1.1000X1.4000*%
%ADD78R,2.5000X1.1000*%
%ADD79R,2.5000X3.4000*%
%ADD80O,0.8000X2.6000*%
%ADD81O,1.5000X2.2000*%
G36*
X73844Y456880D02*
X74006Y456818D01*
X74156Y456730D01*
X74293Y456630D01*
X74394Y456518D01*
X74481Y456431D01*
X74543Y456368D01*
X74556Y456356D01*
Y456343D01*
X74668Y456193D01*
X74768Y456043D01*
X74856Y455893D01*
X74931Y455743D01*
X75043Y455468D01*
X75131Y455218D01*
X75168Y454993D01*
X75181Y454906D01*
X75193Y454831D01*
X75206Y454768D01*
Y454681D01*
X75193Y454468D01*
X75168Y454256D01*
X75118Y454056D01*
X75068Y453869D01*
X75018Y453706D01*
X74968Y453581D01*
X74956Y453531D01*
X74943Y453494D01*
X74931Y453481D01*
Y453469D01*
X74881Y453344D01*
X74806Y453206D01*
X74656Y452931D01*
X74481Y452644D01*
X74306Y452356D01*
X74131Y452119D01*
X74068Y452007D01*
X73994Y451919D01*
X73944Y451832D01*
X73906Y451782D01*
X73881Y451744D01*
X73869Y451732D01*
X74968D01*
Y449332D01*
X74956Y449095D01*
X74931Y448895D01*
X74893Y448732D01*
X74843Y448607D01*
X74793Y448507D01*
X74756Y448433D01*
X74731Y448395D01*
X74718Y448382D01*
X74618Y448295D01*
X74518Y448233D01*
X74418Y448183D01*
X74318Y448158D01*
X74231Y448133D01*
X74156Y448120D01*
X74106D01*
X74093D01*
X73956Y448133D01*
X73819Y448158D01*
X73719Y448208D01*
X73619Y448258D01*
X73544Y448295D01*
X73494Y448345D01*
X73456Y448370D01*
X73444Y448382D01*
X73369Y448507D01*
X73306Y448645D01*
X73269Y448807D01*
X73231Y448957D01*
X73219Y449107D01*
X73206Y449220D01*
Y449970D01*
X68907D01*
Y448920D01*
X68895Y448683D01*
X68870Y448483D01*
X68832Y448320D01*
X68782Y448195D01*
X68732Y448095D01*
X68695Y448020D01*
X68670Y447983D01*
X68657Y447970D01*
X68557Y447883D01*
X68457Y447820D01*
X68358Y447770D01*
X68257Y447745D01*
X68170Y447720D01*
X68095Y447708D01*
X68045D01*
X68033D01*
X67895Y447720D01*
X67758Y447745D01*
X67658Y447795D01*
X67558Y447845D01*
X67483Y447883D01*
X67433Y447933D01*
X67395Y447958D01*
X67383Y447970D01*
X67308Y448095D01*
X67245Y448233D01*
X67208Y448395D01*
X67170Y448545D01*
X67158Y448695D01*
X67145Y448807D01*
Y454244D01*
X67158Y454468D01*
X67183Y454668D01*
X67220Y454831D01*
X67270Y454956D01*
X67308Y455056D01*
X67345Y455131D01*
X67370Y455168D01*
X67383Y455181D01*
X67483Y455268D01*
X67583Y455343D01*
X67695Y455393D01*
X67795Y455418D01*
X67883Y455443D01*
X67958Y455456D01*
X68008D01*
X68020D01*
X68158Y455443D01*
X68282Y455418D01*
X68395Y455368D01*
X68482Y455318D01*
X68557Y455268D01*
X68607Y455218D01*
X68645Y455193D01*
X68657Y455181D01*
X68745Y455056D01*
X68807Y454918D01*
X68845Y454768D01*
X68882Y454606D01*
X68895Y454468D01*
X68907Y454356D01*
Y451732D01*
X71569D01*
X71894Y452132D01*
X72182Y452481D01*
X72419Y452794D01*
X72531Y452931D01*
X72619Y453056D01*
X72706Y453169D01*
X72769Y453269D01*
X72831Y453356D01*
X72881Y453431D01*
X72919Y453481D01*
X72944Y453519D01*
X72969Y453544D01*
Y453556D01*
X73131Y453819D01*
X73244Y454044D01*
X73331Y454231D01*
X73381Y454394D01*
X73419Y454506D01*
X73431Y454594D01*
X73444Y454656D01*
Y454668D01*
X73431Y454781D01*
X73394Y454893D01*
X73331Y455006D01*
X73281Y455106D01*
X73219Y455193D01*
X73156Y455256D01*
X73119Y455306D01*
X73106Y455318D01*
X72994Y455456D01*
X72919Y455581D01*
X72856Y455693D01*
X72819Y455793D01*
X72794Y455881D01*
X72781Y455956D01*
Y456006D01*
X72794Y456143D01*
X72819Y456255D01*
X72869Y456368D01*
X72919Y456455D01*
X72956Y456530D01*
X73006Y456580D01*
X73031Y456618D01*
X73044Y456630D01*
X73144Y456718D01*
X73256Y456793D01*
X73356Y456843D01*
X73456Y456868D01*
X73544Y456893D01*
X73619Y456905D01*
X73669D01*
X73681D01*
X73769D01*
X73844Y456880D01*
D02*
G37*
G36*
X85106Y446814D02*
X85231Y446789D01*
X85343Y446739D01*
X85431Y446689D01*
X85506Y446639D01*
X85556Y446589D01*
X85593Y446564D01*
X85606Y446552D01*
X85693Y446427D01*
X85756Y446289D01*
X85793Y446139D01*
X85830Y445977D01*
X85843Y445839D01*
X85856Y445727D01*
Y445315D01*
X95266D01*
Y443253D01*
X95253Y443015D01*
X95228Y442815D01*
X95191Y442653D01*
X95141Y442528D01*
X95091Y442428D01*
X95053Y442353D01*
X95028Y442315D01*
X95016Y442303D01*
X94916Y442215D01*
X94816Y442153D01*
X94703Y442103D01*
X94603Y442078D01*
X94516Y442053D01*
X94441Y442040D01*
X94391D01*
X94378D01*
X94241Y442053D01*
X94116Y442078D01*
X94003Y442128D01*
X93916Y442178D01*
X93841Y442215D01*
X93791Y442265D01*
X93753Y442290D01*
X93741Y442303D01*
X93666Y442428D01*
X93603Y442565D01*
X93566Y442728D01*
X93528Y442878D01*
X93516Y443028D01*
X93504Y443140D01*
Y443553D01*
X91304D01*
X91454Y443315D01*
X91579Y443078D01*
X91692Y442853D01*
X91779Y442653D01*
X91854Y442490D01*
X91904Y442353D01*
X91917Y442303D01*
X91929Y442265D01*
X91941Y442253D01*
Y442240D01*
X92016Y441990D01*
X92066Y441753D01*
X92104Y441528D01*
X92129Y441316D01*
X92141Y441141D01*
X92154Y441003D01*
Y440891D01*
X92141Y440553D01*
X92104Y440228D01*
X92041Y439916D01*
X91954Y439628D01*
X91854Y439354D01*
X91754Y439104D01*
X91642Y438866D01*
X91517Y438641D01*
X91404Y438454D01*
X91279Y438279D01*
X91179Y438129D01*
X91079Y438004D01*
X90992Y437904D01*
X90929Y437841D01*
X90892Y437791D01*
X90879Y437779D01*
X90642Y437554D01*
X90392Y437367D01*
X90129Y437192D01*
X89867Y437054D01*
X89605Y436929D01*
X89355Y436829D01*
X89105Y436742D01*
X88880Y436679D01*
X88655Y436617D01*
X88455Y436579D01*
X88280Y436554D01*
X88117Y436542D01*
X87992Y436529D01*
X87893Y436517D01*
X87843D01*
X87817D01*
X87505Y436529D01*
X87205Y436567D01*
X86918Y436629D01*
X86643Y436704D01*
X86393Y436804D01*
X86155Y436904D01*
X85943Y437004D01*
X85743Y437129D01*
X85568Y437242D01*
X85406Y437342D01*
X85281Y437454D01*
X85168Y437542D01*
X85068Y437617D01*
X85006Y437679D01*
X84968Y437716D01*
X84956Y437729D01*
X84756Y437966D01*
X84581Y438216D01*
X84418Y438479D01*
X84293Y438741D01*
X84181Y439004D01*
X84081Y439279D01*
X84006Y439529D01*
X83956Y439779D01*
X83906Y440016D01*
X83869Y440241D01*
X83843Y440428D01*
X83819Y440603D01*
Y440741D01*
X83806Y440841D01*
Y440928D01*
X83819Y441191D01*
X83831Y441441D01*
X83856Y441665D01*
X83893Y441866D01*
X83931Y442040D01*
X83956Y442165D01*
X83968Y442215D01*
Y442253D01*
X83981Y442265D01*
Y442278D01*
X84056Y442528D01*
X84143Y442753D01*
X84231Y442978D01*
X84318Y443165D01*
X84393Y443328D01*
X84456Y443453D01*
X84481Y443490D01*
X84506Y443527D01*
X84518Y443540D01*
Y443553D01*
X84094D01*
Y445615D01*
X84106Y445839D01*
X84131Y446039D01*
X84168Y446202D01*
X84218Y446327D01*
X84256Y446427D01*
X84293Y446502D01*
X84318Y446539D01*
X84331Y446552D01*
X84431Y446639D01*
X84531Y446714D01*
X84643Y446764D01*
X84743Y446789D01*
X84831Y446814D01*
X84906Y446827D01*
X84956D01*
X84968D01*
X85106Y446814D01*
D02*
G37*
G36*
X68470Y445946D02*
X68595Y445921D01*
X68707Y445883D01*
X68795Y445833D01*
X68870Y445783D01*
X68920Y445746D01*
X68957Y445721D01*
X68970Y445708D01*
X69057Y445621D01*
X69120Y445521D01*
X69157Y445421D01*
X69195Y445321D01*
X69207Y445246D01*
X69220Y445183D01*
Y445121D01*
X69207Y445008D01*
X69195Y444858D01*
X69170Y444709D01*
X69132Y444558D01*
X69095Y444409D01*
X69070Y444296D01*
X69057Y444246D01*
Y444209D01*
X69045Y444196D01*
Y444184D01*
X68970Y443884D01*
X68907Y443609D01*
X68845Y443346D01*
X68795Y443096D01*
X68757Y442859D01*
X68720Y442646D01*
X68695Y442447D01*
X68670Y442272D01*
X68657Y442122D01*
X68645Y441984D01*
X68632Y441859D01*
Y441759D01*
X68620Y441684D01*
Y441584D01*
X68632Y441159D01*
X68657Y440959D01*
X68682Y440784D01*
X68720Y440610D01*
X68745Y440460D01*
X68782Y440310D01*
X68832Y440185D01*
X68870Y440072D01*
X68907Y439972D01*
X68932Y439885D01*
X68970Y439810D01*
X68995Y439760D01*
X69020Y439722D01*
X69032Y439697D01*
Y439685D01*
X69207Y439447D01*
X69382Y439235D01*
X69570Y439072D01*
X69757Y438935D01*
X69920Y438835D01*
X70045Y438760D01*
X70095Y438735D01*
X70132Y438722D01*
X70145Y438710D01*
X70157D01*
Y445946D01*
X70907D01*
X71219Y445933D01*
X71507Y445908D01*
X71769Y445858D01*
X71982Y445808D01*
X72169Y445758D01*
X72244Y445733D01*
X72306Y445708D01*
X72357Y445696D01*
X72394Y445683D01*
X72407Y445671D01*
X72419D01*
X72756Y445508D01*
X73069Y445333D01*
X73331Y445171D01*
X73569Y445008D01*
X73756Y444858D01*
X73831Y444796D01*
X73894Y444746D01*
X73944Y444709D01*
X73981Y444671D01*
X73994Y444659D01*
X74006Y444646D01*
X74169Y444459D01*
X74318Y444259D01*
X74456Y444034D01*
X74581Y443809D01*
X74681Y443621D01*
X74718Y443534D01*
X74756Y443459D01*
X74781Y443396D01*
X74806Y443346D01*
X74818Y443321D01*
Y443309D01*
X74943Y442971D01*
X75043Y442621D01*
X75106Y442284D01*
X75156Y441984D01*
X75168Y441847D01*
X75181Y441722D01*
X75193Y441609D01*
X75206Y441522D01*
Y441334D01*
X75193Y440997D01*
X75156Y440685D01*
X75093Y440372D01*
X75018Y440085D01*
X74931Y439797D01*
X74831Y439535D01*
X74731Y439297D01*
X74618Y439072D01*
X74506Y438872D01*
X74406Y438685D01*
X74306Y438535D01*
X74219Y438398D01*
X74144Y438298D01*
X74081Y438223D01*
X74043Y438173D01*
X74031Y438160D01*
X73806Y437923D01*
X73569Y437710D01*
X73319Y437523D01*
X73056Y437373D01*
X72806Y437235D01*
X72556Y437135D01*
X72306Y437035D01*
X72069Y436973D01*
X71857Y436911D01*
X71644Y436873D01*
X71457Y436836D01*
X71307Y436823D01*
X71169Y436810D01*
X71082Y436798D01*
X71019D01*
X70994D01*
X70669Y436810D01*
X70370Y436848D01*
X70070Y436911D01*
X69795Y436998D01*
X69532Y437085D01*
X69295Y437198D01*
X69070Y437310D01*
X68870Y437435D01*
X68682Y437548D01*
X68520Y437660D01*
X68383Y437773D01*
X68257Y437860D01*
X68170Y437948D01*
X68095Y438010D01*
X68058Y438048D01*
X68045Y438060D01*
X67833Y438310D01*
X67658Y438573D01*
X67495Y438848D01*
X67358Y439122D01*
X67245Y439410D01*
X67145Y439697D01*
X67070Y439972D01*
X67008Y440235D01*
X66958Y440485D01*
X66920Y440709D01*
X66895Y440922D01*
X66883Y441097D01*
X66870Y441247D01*
X66858Y441359D01*
Y441447D01*
X66870Y441909D01*
X66908Y442372D01*
X66945Y442797D01*
X66970Y443009D01*
X67008Y443196D01*
X67033Y443371D01*
X67058Y443521D01*
X67083Y443659D01*
X67095Y443784D01*
X67120Y443884D01*
X67133Y443946D01*
X67145Y443996D01*
Y444009D01*
X67195Y444246D01*
X67258Y444471D01*
X67308Y444659D01*
X67358Y444833D01*
X67408Y444996D01*
X67458Y445133D01*
X67508Y445246D01*
X67558Y445358D01*
X67595Y445446D01*
X67633Y445521D01*
X67670Y445571D01*
X67695Y445621D01*
X67733Y445683D01*
X67745Y445696D01*
X67845Y445783D01*
X67945Y445846D01*
X68045Y445896D01*
X68133Y445921D01*
X68208Y445946D01*
X68282Y445958D01*
X68320D01*
X68333D01*
X68470Y445946D01*
D02*
G37*
G36*
X90792Y435467D02*
X90954Y435405D01*
X91104Y435317D01*
X91242Y435217D01*
X91342Y435105D01*
X91429Y435017D01*
X91492Y434955D01*
X91504Y434942D01*
Y434930D01*
X91616Y434780D01*
X91716Y434630D01*
X91804Y434480D01*
X91879Y434330D01*
X91991Y434055D01*
X92079Y433805D01*
X92116Y433580D01*
X92129Y433493D01*
X92141Y433418D01*
X92154Y433355D01*
Y433268D01*
X92141Y433055D01*
X92116Y432843D01*
X92066Y432643D01*
X92016Y432455D01*
X91966Y432293D01*
X91917Y432168D01*
X91904Y432118D01*
X91891Y432080D01*
X91879Y432068D01*
Y432056D01*
X91829Y431931D01*
X91754Y431793D01*
X91604Y431518D01*
X91429Y431231D01*
X91254Y430943D01*
X91079Y430706D01*
X91017Y430593D01*
X90942Y430506D01*
X90892Y430418D01*
X90854Y430368D01*
X90829Y430331D01*
X90817Y430318D01*
X91917D01*
Y427919D01*
X91904Y427682D01*
X91879Y427482D01*
X91841Y427319D01*
X91791Y427194D01*
X91742Y427094D01*
X91704Y427019D01*
X91679Y426982D01*
X91666Y426969D01*
X91566Y426882D01*
X91467Y426819D01*
X91367Y426769D01*
X91267Y426744D01*
X91179Y426719D01*
X91104Y426707D01*
X91054D01*
X91042D01*
X90904Y426719D01*
X90767Y426744D01*
X90667Y426794D01*
X90567Y426844D01*
X90492Y426882D01*
X90442Y426932D01*
X90404Y426957D01*
X90392Y426969D01*
X90317Y427094D01*
X90254Y427232D01*
X90217Y427394D01*
X90179Y427544D01*
X90167Y427694D01*
X90154Y427807D01*
Y428556D01*
X85856D01*
Y427507D01*
X85843Y427269D01*
X85818Y427069D01*
X85780Y426907D01*
X85730Y426782D01*
X85681Y426682D01*
X85643Y426607D01*
X85618Y426569D01*
X85606Y426557D01*
X85506Y426469D01*
X85406Y426407D01*
X85306Y426357D01*
X85206Y426332D01*
X85118Y426307D01*
X85043Y426294D01*
X84993D01*
X84981D01*
X84843Y426307D01*
X84706Y426332D01*
X84606Y426382D01*
X84506Y426432D01*
X84431Y426469D01*
X84381Y426519D01*
X84343Y426544D01*
X84331Y426557D01*
X84256Y426682D01*
X84193Y426819D01*
X84156Y426982D01*
X84118Y427132D01*
X84106Y427282D01*
X84094Y427394D01*
Y432830D01*
X84106Y433055D01*
X84131Y433255D01*
X84168Y433418D01*
X84218Y433543D01*
X84256Y433643D01*
X84293Y433717D01*
X84318Y433755D01*
X84331Y433768D01*
X84431Y433855D01*
X84531Y433930D01*
X84643Y433980D01*
X84743Y434005D01*
X84831Y434030D01*
X84906Y434043D01*
X84956D01*
X84968D01*
X85106Y434030D01*
X85231Y434005D01*
X85343Y433955D01*
X85431Y433905D01*
X85506Y433855D01*
X85556Y433805D01*
X85593Y433780D01*
X85606Y433768D01*
X85693Y433643D01*
X85756Y433505D01*
X85793Y433355D01*
X85830Y433193D01*
X85843Y433055D01*
X85856Y432943D01*
Y430318D01*
X88517D01*
X88842Y430718D01*
X89130Y431068D01*
X89367Y431381D01*
X89480Y431518D01*
X89567Y431643D01*
X89655Y431755D01*
X89717Y431856D01*
X89780Y431943D01*
X89830Y432018D01*
X89867Y432068D01*
X89892Y432105D01*
X89917Y432131D01*
Y432143D01*
X90079Y432405D01*
X90192Y432630D01*
X90279Y432818D01*
X90329Y432980D01*
X90367Y433093D01*
X90379Y433180D01*
X90392Y433243D01*
Y433255D01*
X90379Y433368D01*
X90342Y433480D01*
X90279Y433593D01*
X90229Y433693D01*
X90167Y433780D01*
X90104Y433843D01*
X90067Y433893D01*
X90054Y433905D01*
X89942Y434043D01*
X89867Y434167D01*
X89804Y434280D01*
X89767Y434380D01*
X89742Y434467D01*
X89729Y434542D01*
Y434592D01*
X89742Y434730D01*
X89767Y434842D01*
X89817Y434955D01*
X89867Y435042D01*
X89904Y435117D01*
X89955Y435167D01*
X89979Y435205D01*
X89992Y435217D01*
X90092Y435305D01*
X90204Y435380D01*
X90304Y435430D01*
X90404Y435455D01*
X90492Y435480D01*
X90567Y435492D01*
X90617D01*
X90629D01*
X90717D01*
X90792Y435467D01*
D02*
G37*
G36*
X68158Y435123D02*
X68282Y435098D01*
X68395Y435048D01*
X68482Y434999D01*
X68557Y434949D01*
X68607Y434898D01*
X68645Y434874D01*
X68657Y434861D01*
X68745Y434736D01*
X68807Y434599D01*
X68845Y434449D01*
X68882Y434286D01*
X68895Y434149D01*
X68907Y434036D01*
Y431799D01*
X78317D01*
Y428613D01*
X78305Y428375D01*
X78280Y428175D01*
X78243Y428013D01*
X78193Y427888D01*
X78142Y427788D01*
X78105Y427713D01*
X78080Y427675D01*
X78067Y427663D01*
X77968Y427575D01*
X77868Y427513D01*
X77768Y427463D01*
X77668Y427438D01*
X77580Y427413D01*
X77505Y427400D01*
X77455D01*
X77443D01*
X77305Y427413D01*
X77168Y427438D01*
X77068Y427488D01*
X76968Y427538D01*
X76893Y427575D01*
X76843Y427625D01*
X76805Y427650D01*
X76793Y427663D01*
X76718Y427788D01*
X76655Y427925D01*
X76618Y428088D01*
X76580Y428238D01*
X76568Y428388D01*
X76555Y428500D01*
Y430037D01*
X68907D01*
Y427913D01*
X68895Y427675D01*
X68870Y427475D01*
X68832Y427313D01*
X68782Y427188D01*
X68732Y427088D01*
X68695Y427013D01*
X68670Y426976D01*
X68657Y426963D01*
X68557Y426875D01*
X68457Y426813D01*
X68358Y426763D01*
X68257Y426738D01*
X68170Y426713D01*
X68095Y426701D01*
X68045D01*
X68033D01*
X67895Y426713D01*
X67758Y426738D01*
X67658Y426788D01*
X67558Y426838D01*
X67483Y426875D01*
X67433Y426926D01*
X67395Y426950D01*
X67383Y426963D01*
X67308Y427088D01*
X67245Y427225D01*
X67208Y427388D01*
X67170Y427538D01*
X67158Y427688D01*
X67145Y427800D01*
Y433924D01*
X67158Y434149D01*
X67183Y434349D01*
X67220Y434511D01*
X67270Y434636D01*
X67308Y434736D01*
X67345Y434811D01*
X67370Y434849D01*
X67383Y434861D01*
X67483Y434949D01*
X67583Y435023D01*
X67695Y435074D01*
X67795Y435098D01*
X67883Y435123D01*
X67958Y435136D01*
X68008D01*
X68020D01*
X68158Y435123D01*
D02*
G37*
G36*
X55333Y431037D02*
X55471Y430999D01*
X55596Y430937D01*
X55708Y430874D01*
X55796Y430799D01*
X55858Y430750D01*
X55908Y430700D01*
X55921Y430687D01*
X55971Y430600D01*
X56021Y430475D01*
X56046Y430337D01*
X56058Y430187D01*
X56071Y430062D01*
X56083Y429950D01*
Y429837D01*
X64756Y426301D01*
X64768Y422514D01*
X64756Y422289D01*
X64731Y422089D01*
X64693Y421927D01*
X64644Y421802D01*
X64594Y421702D01*
X64556Y421627D01*
X64531Y421589D01*
X64518Y421577D01*
X64419Y421489D01*
X64318Y421427D01*
X64219Y421377D01*
X64106Y421352D01*
X64019Y421327D01*
X63944Y421315D01*
X63894D01*
X63881D01*
X63744Y421327D01*
X63619Y421352D01*
X63506Y421402D01*
X63419Y421452D01*
X63344Y421489D01*
X63294Y421539D01*
X63256Y421564D01*
X63244Y421577D01*
X63169Y421702D01*
X63106Y421839D01*
X63069Y421989D01*
X63031Y422152D01*
X63019Y422289D01*
X63006Y422402D01*
Y423664D01*
X56083Y420877D01*
X56071Y420652D01*
X56046Y420452D01*
X56008Y420290D01*
X55958Y420165D01*
X55908Y420065D01*
X55871Y420002D01*
X55846Y419965D01*
X55833Y419952D01*
X55733Y419865D01*
X55633Y419790D01*
X55533Y419740D01*
X55433Y419715D01*
X55346Y419690D01*
X55271Y419677D01*
X55221D01*
X55208D01*
X55071Y419690D01*
X54933Y419715D01*
X54833Y419765D01*
X54734Y419815D01*
X54658Y419865D01*
X54608Y419915D01*
X54571Y419940D01*
X54559Y419952D01*
X54484Y420065D01*
X54421Y420202D01*
X54384Y420365D01*
X54346Y420515D01*
X54334Y420652D01*
X54321Y420765D01*
Y423201D01*
X54334Y423426D01*
X54359Y423626D01*
X54396Y423789D01*
X54446Y423914D01*
X54484Y424014D01*
X54521Y424089D01*
X54546Y424126D01*
X54559Y424139D01*
X54658Y424226D01*
X54759Y424301D01*
X54871Y424351D01*
X54971Y424376D01*
X55058Y424401D01*
X55133Y424414D01*
X55183D01*
X55196D01*
X55333Y424401D01*
X55458Y424376D01*
X55571Y424326D01*
X55658Y424276D01*
X55733Y424226D01*
X55783Y424176D01*
X55821Y424151D01*
X55833Y424139D01*
X55921Y424014D01*
X55983Y423876D01*
X56021Y423726D01*
X56058Y423564D01*
X56071Y423426D01*
X56083Y423314D01*
Y422777D01*
X57170Y423214D01*
Y427488D01*
X56083Y427938D01*
Y427513D01*
X56071Y427288D01*
X56046Y427088D01*
X56008Y426926D01*
X55958Y426801D01*
X55908Y426701D01*
X55871Y426626D01*
X55846Y426588D01*
X55833Y426576D01*
X55733Y426488D01*
X55633Y426426D01*
X55533Y426376D01*
X55433Y426351D01*
X55346Y426326D01*
X55271Y426313D01*
X55221D01*
X55208D01*
X55071Y426326D01*
X54933Y426351D01*
X54833Y426401D01*
X54734Y426451D01*
X54658Y426488D01*
X54608Y426538D01*
X54571Y426563D01*
X54559Y426576D01*
X54484Y426701D01*
X54421Y426838D01*
X54384Y426988D01*
X54346Y427150D01*
X54334Y427288D01*
X54321Y427400D01*
Y429837D01*
X54334Y430062D01*
X54359Y430262D01*
X54396Y430425D01*
X54446Y430550D01*
X54484Y430650D01*
X54521Y430725D01*
X54546Y430762D01*
X54559Y430775D01*
X54658Y430862D01*
X54759Y430937D01*
X54871Y430987D01*
X54971Y431012D01*
X55058Y431037D01*
X55133Y431049D01*
X55183D01*
X55196D01*
X55333Y431037D01*
D02*
G37*
G36*
X68158Y424539D02*
X68282Y424514D01*
X68395Y424464D01*
X68482Y424414D01*
X68557Y424364D01*
X68607Y424314D01*
X68645Y424289D01*
X68657Y424276D01*
X68745Y424151D01*
X68807Y424014D01*
X68845Y423864D01*
X68882Y423701D01*
X68895Y423564D01*
X68907Y423451D01*
Y421214D01*
X78317D01*
Y418028D01*
X78305Y417790D01*
X78280Y417590D01*
X78243Y417428D01*
X78193Y417303D01*
X78142Y417203D01*
X78105Y417128D01*
X78080Y417091D01*
X78067Y417078D01*
X77968Y416991D01*
X77868Y416928D01*
X77768Y416878D01*
X77668Y416853D01*
X77580Y416828D01*
X77505Y416816D01*
X77455D01*
X77443D01*
X77305Y416828D01*
X77168Y416853D01*
X77068Y416903D01*
X76968Y416953D01*
X76893Y416991D01*
X76843Y417041D01*
X76805Y417066D01*
X76793Y417078D01*
X76718Y417203D01*
X76655Y417341D01*
X76618Y417503D01*
X76580Y417653D01*
X76568Y417803D01*
X76555Y417915D01*
Y419453D01*
X68907D01*
Y417328D01*
X68895Y417091D01*
X68870Y416891D01*
X68832Y416728D01*
X68782Y416603D01*
X68732Y416503D01*
X68695Y416428D01*
X68670Y416391D01*
X68657Y416378D01*
X68557Y416291D01*
X68457Y416228D01*
X68358Y416178D01*
X68257Y416153D01*
X68170Y416128D01*
X68095Y416116D01*
X68045D01*
X68033D01*
X67895Y416128D01*
X67758Y416153D01*
X67658Y416203D01*
X67558Y416253D01*
X67483Y416291D01*
X67433Y416341D01*
X67395Y416366D01*
X67383Y416378D01*
X67308Y416503D01*
X67245Y416641D01*
X67208Y416803D01*
X67170Y416953D01*
X67158Y417103D01*
X67145Y417215D01*
Y423339D01*
X67158Y423564D01*
X67183Y423764D01*
X67220Y423926D01*
X67270Y424051D01*
X67308Y424151D01*
X67345Y424226D01*
X67370Y424264D01*
X67383Y424276D01*
X67483Y424364D01*
X67583Y424439D01*
X67695Y424489D01*
X67795Y424514D01*
X67883Y424539D01*
X67958Y424551D01*
X68008D01*
X68020D01*
X68158Y424539D01*
D02*
G37*
G36*
X85106Y424957D02*
X85231Y424932D01*
X85343Y424882D01*
X85431Y424832D01*
X85506Y424782D01*
X85556Y424732D01*
X85593Y424707D01*
X85606Y424695D01*
X85693Y424570D01*
X85756Y424432D01*
X85793Y424282D01*
X85830Y424120D01*
X85843Y423983D01*
X85856Y423870D01*
Y423458D01*
X89492D01*
X89717Y423445D01*
X89930Y423420D01*
X90129Y423370D01*
X90317Y423320D01*
X90492Y423245D01*
X90654Y423170D01*
X90804Y423083D01*
X90929Y423008D01*
X91054Y422920D01*
X91154Y422833D01*
X91242Y422758D01*
X91317Y422683D01*
X91367Y422633D01*
X91404Y422583D01*
X91429Y422558D01*
X91442Y422545D01*
X91566Y422370D01*
X91679Y422170D01*
X91767Y421971D01*
X91854Y421758D01*
X91929Y421546D01*
X91979Y421333D01*
X92066Y420921D01*
X92091Y420733D01*
X92116Y420558D01*
X92129Y420396D01*
X92141Y420258D01*
X92154Y420146D01*
Y419771D01*
X92141Y419559D01*
X92116Y419346D01*
X92104Y419159D01*
X92079Y418996D01*
X92054Y418859D01*
Y418809D01*
X92041Y418771D01*
Y418746D01*
X91991Y418496D01*
X91954Y418259D01*
X91904Y418022D01*
X91854Y417822D01*
X91817Y417659D01*
X91779Y417522D01*
X91767Y417472D01*
Y417434D01*
X91754Y417422D01*
Y417409D01*
X91704Y417247D01*
X91654Y417097D01*
X91616Y416984D01*
X91579Y416897D01*
X91554Y416834D01*
X91529Y416797D01*
X91517Y416772D01*
Y416759D01*
X91429Y416659D01*
X91354Y416584D01*
X91279Y416534D01*
X91267Y416522D01*
X91254D01*
X91129Y416484D01*
X91004Y416460D01*
X90942Y416447D01*
X90904D01*
X90879D01*
X90867D01*
X90729Y416460D01*
X90592Y416484D01*
X90492Y416522D01*
X90392Y416572D01*
X90317Y416609D01*
X90267Y416647D01*
X90229Y416672D01*
X90217Y416684D01*
X90129Y416784D01*
X90067Y416884D01*
X90029Y416984D01*
X90004Y417084D01*
X89979Y417159D01*
X89967Y417222D01*
Y417397D01*
X89979Y417509D01*
X90029Y417747D01*
X90042Y417847D01*
X90067Y417934D01*
X90079Y417984D01*
Y418009D01*
X90179Y418459D01*
X90229Y418659D01*
X90254Y418859D01*
X90292Y419034D01*
X90317Y419209D01*
X90342Y419359D01*
X90354Y419496D01*
X90367Y419621D01*
X90379Y419734D01*
Y419821D01*
X90392Y419909D01*
Y420221D01*
X90379Y420383D01*
X90367Y420521D01*
X90354Y420658D01*
X90329Y420771D01*
X90304Y420883D01*
X90267Y421058D01*
X90217Y421183D01*
X90167Y421283D01*
X90142Y421333D01*
X90129Y421346D01*
X90029Y421458D01*
X89917Y421546D01*
X89817Y421608D01*
X89717Y421658D01*
X89617Y421683D01*
X89542Y421696D01*
X89492D01*
X89480D01*
X89055D01*
X89117Y421308D01*
X89155Y420958D01*
X89192Y420646D01*
X89205Y420371D01*
X89217Y420246D01*
Y420146D01*
X89230Y420046D01*
Y419834D01*
X89217Y419471D01*
X89192Y419121D01*
X89142Y418796D01*
X89080Y418496D01*
X89005Y418222D01*
X88930Y417959D01*
X88842Y417722D01*
X88755Y417522D01*
X88667Y417322D01*
X88580Y417159D01*
X88505Y417022D01*
X88430Y416909D01*
X88367Y416809D01*
X88317Y416747D01*
X88292Y416709D01*
X88280Y416697D01*
X88105Y416497D01*
X87917Y416322D01*
X87743Y416172D01*
X87555Y416047D01*
X87380Y415935D01*
X87205Y415847D01*
X87043Y415772D01*
X86893Y415710D01*
X86755Y415672D01*
X86618Y415635D01*
X86505Y415610D01*
X86405Y415585D01*
X86330D01*
X86268Y415572D01*
X86230D01*
X86218D01*
X86055Y415585D01*
X85880Y415610D01*
X85730Y415660D01*
X85568Y415710D01*
X85293Y415847D01*
X85043Y416022D01*
X84843Y416185D01*
X84756Y416259D01*
X84693Y416322D01*
X84631Y416372D01*
X84593Y416422D01*
X84568Y416447D01*
X84556Y416460D01*
X84418Y416634D01*
X84306Y416809D01*
X84206Y416997D01*
X84118Y417197D01*
X84056Y417384D01*
X83994Y417584D01*
X83906Y417947D01*
X83869Y418121D01*
X83843Y418271D01*
X83831Y418409D01*
X83819Y418534D01*
X83806Y418634D01*
Y418771D01*
X83819Y419021D01*
X83831Y419271D01*
X83856Y419521D01*
X83893Y419746D01*
X83931Y419934D01*
X83944Y420021D01*
X83956Y420084D01*
X83968Y420146D01*
Y420183D01*
X83981Y420209D01*
Y420221D01*
X84056Y420508D01*
X84143Y420783D01*
X84218Y421033D01*
X84306Y421258D01*
X84381Y421446D01*
X84418Y421521D01*
X84443Y421583D01*
X84468Y421633D01*
X84493Y421671D01*
X84506Y421683D01*
Y421696D01*
X84094D01*
Y423758D01*
X84106Y423983D01*
X84131Y424183D01*
X84168Y424345D01*
X84218Y424470D01*
X84256Y424570D01*
X84293Y424645D01*
X84318Y424682D01*
X84331Y424695D01*
X84431Y424782D01*
X84531Y424857D01*
X84643Y424907D01*
X84743Y424932D01*
X84831Y424957D01*
X84906Y424970D01*
X84956D01*
X84968D01*
X85106Y424957D01*
D02*
G37*
G36*
X55383Y416103D02*
X55546Y416066D01*
X55696Y416003D01*
X55821Y415941D01*
X55908Y415866D01*
X55983Y415816D01*
X56033Y415766D01*
X56046Y415753D01*
X56158Y415616D01*
X56246Y415453D01*
X56296Y415291D01*
X56346Y415141D01*
X56371Y415004D01*
X56383Y414891D01*
Y414791D01*
X56371Y414566D01*
X56333Y414379D01*
X56271Y414204D01*
X56221Y414066D01*
X56158Y413966D01*
X56096Y413879D01*
X56058Y413829D01*
X56046Y413816D01*
X55908Y413704D01*
X55771Y413616D01*
X55633Y413554D01*
X55496Y413517D01*
X55383Y413492D01*
X55296Y413466D01*
X55233D01*
X55208D01*
X55021Y413479D01*
X54858Y413517D01*
X54708Y413579D01*
X54596Y413641D01*
X54496Y413704D01*
X54421Y413766D01*
X54371Y413804D01*
X54359Y413816D01*
X54246Y413954D01*
X54171Y414116D01*
X54109Y414279D01*
X54071Y414441D01*
X54046Y414579D01*
X54034Y414691D01*
Y414791D01*
X54046Y415004D01*
X54084Y415204D01*
X54134Y415366D01*
X54196Y415504D01*
X54259Y415616D01*
X54309Y415691D01*
X54346Y415741D01*
X54359Y415753D01*
X54496Y415878D01*
X54633Y415966D01*
X54771Y416028D01*
X54908Y416066D01*
X55033Y416103D01*
X55121Y416116D01*
X55183D01*
X55208D01*
X55383Y416103D01*
D02*
G37*
G36*
X71307Y414316D02*
X71682Y414254D01*
X72032Y414154D01*
X72344Y414054D01*
X72481Y414004D01*
X72606Y413954D01*
X72719Y413904D01*
X72806Y413854D01*
X72881Y413816D01*
X72931Y413791D01*
X72969Y413779D01*
X72981Y413766D01*
X73169Y413654D01*
X73344Y413529D01*
X73669Y413266D01*
X73944Y412992D01*
X74181Y412717D01*
X74281Y412579D01*
X74369Y412467D01*
X74431Y412354D01*
X74493Y412267D01*
X74543Y412192D01*
X74581Y412129D01*
X74593Y412092D01*
X74606Y412079D01*
X74706Y411867D01*
X74806Y411667D01*
X74956Y411255D01*
X75056Y410855D01*
X75093Y410680D01*
X75131Y410505D01*
X75156Y410355D01*
X75181Y410205D01*
X75193Y410080D01*
Y409967D01*
X75206Y409880D01*
Y409543D01*
X75181Y409330D01*
X75118Y408905D01*
X75018Y408518D01*
X74968Y408330D01*
X74918Y408168D01*
X74856Y408018D01*
X74806Y407880D01*
X74756Y407755D01*
X74706Y407655D01*
X74668Y407580D01*
X74643Y407518D01*
X74631Y407481D01*
X74618Y407468D01*
X74381Y407081D01*
X74118Y406743D01*
X73981Y406593D01*
X73856Y406456D01*
X73719Y406331D01*
X73594Y406218D01*
X73469Y406118D01*
X73356Y406031D01*
X73256Y405956D01*
X73181Y405893D01*
X73106Y405843D01*
X73056Y405806D01*
X73019Y405793D01*
X73006Y405781D01*
X72819Y405681D01*
X72619Y405593D01*
X72244Y405443D01*
X71894Y405344D01*
X71582Y405281D01*
X71432Y405256D01*
X71307Y405231D01*
X71194Y405219D01*
X71107D01*
X71019Y405206D01*
X70969D01*
X70932D01*
X70919D01*
X70732Y405219D01*
X70532Y405231D01*
X70170Y405294D01*
X69832Y405394D01*
X69532Y405494D01*
X69395Y405544D01*
X69282Y405593D01*
X69170Y405644D01*
X69082Y405694D01*
X69020Y405731D01*
X68970Y405756D01*
X68932Y405781D01*
X68920D01*
X68582Y406018D01*
X68282Y406281D01*
X68020Y406568D01*
X67808Y406831D01*
X67633Y407081D01*
X67570Y407181D01*
X67508Y407281D01*
X67470Y407355D01*
X67433Y407406D01*
X67420Y407443D01*
X67408Y407455D01*
X67308Y407668D01*
X67233Y407868D01*
X67095Y408280D01*
X66995Y408668D01*
X66958Y408855D01*
X66933Y409030D01*
X66908Y409180D01*
X66883Y409330D01*
X66870Y409455D01*
Y409567D01*
X66858Y409642D01*
Y409767D01*
X66870Y409992D01*
X66883Y410217D01*
X66945Y410642D01*
X67033Y411042D01*
X67083Y411217D01*
X67145Y411380D01*
X67195Y411542D01*
X67245Y411679D01*
X67295Y411792D01*
X67333Y411904D01*
X67370Y411979D01*
X67395Y412042D01*
X67420Y412079D01*
Y412092D01*
X67533Y412292D01*
X67645Y412479D01*
X67770Y412654D01*
X67895Y412829D01*
X68020Y412979D01*
X68145Y413117D01*
X68270Y413229D01*
X68383Y413341D01*
X68495Y413442D01*
X68607Y413529D01*
X68695Y413604D01*
X68770Y413666D01*
X68845Y413704D01*
X68895Y413741D01*
X68920Y413766D01*
X68932D01*
X69107Y413866D01*
X69295Y413954D01*
X69645Y414104D01*
X69970Y414204D01*
X70282Y414266D01*
X70407Y414291D01*
X70532Y414316D01*
X70644Y414329D01*
X70732D01*
X70807Y414341D01*
X70857D01*
X70894D01*
X70907D01*
X71107D01*
X71307Y414316D01*
D02*
G37*
G36*
X88255Y414073D02*
X88630Y414010D01*
X88980Y413910D01*
X89292Y413810D01*
X89430Y413760D01*
X89555Y413710D01*
X89667Y413660D01*
X89754Y413610D01*
X89830Y413573D01*
X89880Y413548D01*
X89917Y413535D01*
X89930Y413523D01*
X90117Y413410D01*
X90292Y413285D01*
X90617Y413023D01*
X90892Y412748D01*
X91129Y412473D01*
X91229Y412336D01*
X91317Y412223D01*
X91379Y412111D01*
X91442Y412023D01*
X91492Y411948D01*
X91529Y411886D01*
X91542Y411848D01*
X91554Y411836D01*
X91654Y411623D01*
X91754Y411423D01*
X91904Y411011D01*
X92004Y410611D01*
X92041Y410436D01*
X92079Y410261D01*
X92104Y410111D01*
X92129Y409961D01*
X92141Y409836D01*
Y409724D01*
X92154Y409636D01*
Y409299D01*
X92129Y409086D01*
X92066Y408661D01*
X91966Y408274D01*
X91917Y408087D01*
X91867Y407924D01*
X91804Y407774D01*
X91754Y407637D01*
X91704Y407512D01*
X91654Y407412D01*
X91616Y407337D01*
X91592Y407274D01*
X91579Y407237D01*
X91566Y407224D01*
X91329Y406837D01*
X91067Y406499D01*
X90929Y406350D01*
X90804Y406212D01*
X90667Y406087D01*
X90542Y405975D01*
X90417Y405875D01*
X90304Y405787D01*
X90204Y405712D01*
X90129Y405650D01*
X90054Y405600D01*
X90004Y405562D01*
X89967Y405550D01*
X89955Y405537D01*
X89767Y405437D01*
X89567Y405350D01*
X89192Y405200D01*
X88842Y405100D01*
X88530Y405037D01*
X88380Y405012D01*
X88255Y404987D01*
X88142Y404975D01*
X88055D01*
X87968Y404962D01*
X87917D01*
X87880D01*
X87867D01*
X87680Y404975D01*
X87480Y404987D01*
X87118Y405050D01*
X86780Y405150D01*
X86480Y405250D01*
X86343Y405300D01*
X86230Y405350D01*
X86118Y405400D01*
X86031Y405450D01*
X85968Y405487D01*
X85918Y405512D01*
X85880Y405537D01*
X85868D01*
X85531Y405775D01*
X85231Y406037D01*
X84968Y406325D01*
X84756Y406587D01*
X84581Y406837D01*
X84518Y406937D01*
X84456Y407037D01*
X84418Y407112D01*
X84381Y407162D01*
X84368Y407199D01*
X84356Y407212D01*
X84256Y407424D01*
X84181Y407624D01*
X84044Y408037D01*
X83944Y408424D01*
X83906Y408611D01*
X83881Y408786D01*
X83856Y408936D01*
X83831Y409086D01*
X83819Y409211D01*
Y409324D01*
X83806Y409399D01*
Y409524D01*
X83819Y409749D01*
X83831Y409974D01*
X83893Y410398D01*
X83981Y410798D01*
X84031Y410973D01*
X84094Y411136D01*
X84143Y411298D01*
X84193Y411436D01*
X84243Y411548D01*
X84281Y411661D01*
X84318Y411736D01*
X84343Y411798D01*
X84368Y411836D01*
Y411848D01*
X84481Y412048D01*
X84593Y412235D01*
X84718Y412411D01*
X84843Y412585D01*
X84968Y412735D01*
X85093Y412873D01*
X85218Y412985D01*
X85331Y413098D01*
X85443Y413198D01*
X85556Y413285D01*
X85643Y413360D01*
X85718Y413423D01*
X85793Y413460D01*
X85843Y413498D01*
X85868Y413523D01*
X85880D01*
X86055Y413623D01*
X86243Y413710D01*
X86593Y413860D01*
X86918Y413960D01*
X87230Y414023D01*
X87355Y414048D01*
X87480Y414073D01*
X87593Y414085D01*
X87680D01*
X87755Y414098D01*
X87805D01*
X87843D01*
X87855D01*
X88055D01*
X88255Y414073D01*
D02*
G37*
G36*
X61394Y409567D02*
X61519Y409543D01*
X61632Y409492D01*
X61719Y409442D01*
X61794Y409393D01*
X61844Y409342D01*
X61882Y409318D01*
X61894Y409305D01*
X61982Y409180D01*
X62044Y409043D01*
X62082Y408893D01*
X62119Y408730D01*
X62132Y408593D01*
X62144Y408480D01*
Y406118D01*
X62132Y405893D01*
X62107Y405694D01*
X62069Y405531D01*
X62019Y405406D01*
X61969Y405306D01*
X61932Y405231D01*
X61907Y405194D01*
X61894Y405181D01*
X61794Y405094D01*
X61694Y405031D01*
X61594Y404981D01*
X61494Y404956D01*
X61407Y404931D01*
X61332Y404919D01*
X61282D01*
X61269D01*
X61119Y404931D01*
X60982Y404981D01*
X60857Y405031D01*
X60757Y405106D01*
X60657Y405169D01*
X60595Y405231D01*
X60545Y405269D01*
X60532Y405281D01*
X60482Y405369D01*
X60444Y405481D01*
X60420Y405619D01*
X60407Y405769D01*
X60395Y405906D01*
X60382Y406018D01*
Y406118D01*
X56433Y404194D01*
X60382Y402269D01*
X60395Y402494D01*
X60407Y402682D01*
X60432Y402832D01*
X60457Y402944D01*
X60482Y403019D01*
X60507Y403082D01*
X60532Y403107D01*
Y403119D01*
X60657Y403244D01*
X60782Y403332D01*
X60907Y403394D01*
X61019Y403432D01*
X61119Y403469D01*
X61194Y403481D01*
X61244D01*
X61257D01*
X61394Y403469D01*
X61519Y403444D01*
X61632Y403394D01*
X61719Y403344D01*
X61794Y403294D01*
X61844Y403244D01*
X61882Y403219D01*
X61894Y403207D01*
X61982Y403082D01*
X62044Y402944D01*
X62082Y402794D01*
X62119Y402632D01*
X62132Y402494D01*
X62144Y402382D01*
Y400057D01*
X62132Y399832D01*
X62107Y399632D01*
X62069Y399470D01*
X62019Y399345D01*
X61969Y399245D01*
X61932Y399170D01*
X61907Y399133D01*
X61894Y399120D01*
X61794Y399033D01*
X61694Y398970D01*
X61594Y398920D01*
X61494Y398895D01*
X61407Y398870D01*
X61332Y398858D01*
X61282D01*
X61269D01*
X61132Y398870D01*
X60994Y398895D01*
X60894Y398945D01*
X60794Y398995D01*
X60719Y399033D01*
X60669Y399083D01*
X60632Y399108D01*
X60620Y399120D01*
X60545Y399245D01*
X60482Y399383D01*
X60444Y399533D01*
X60407Y399695D01*
X60395Y399832D01*
X60382Y399945D01*
Y400307D01*
X54321Y403269D01*
Y405119D01*
X60382Y408080D01*
Y408368D01*
X60395Y408593D01*
X60420Y408793D01*
X60457Y408955D01*
X60507Y409080D01*
X60545Y409180D01*
X60582Y409255D01*
X60607Y409293D01*
X60620Y409305D01*
X60719Y409393D01*
X60819Y409468D01*
X60932Y409518D01*
X61032Y409543D01*
X61119Y409567D01*
X61194Y409580D01*
X61244D01*
X61257D01*
X61394Y409567D01*
D02*
G37*
G36*
X73844Y403956D02*
X74006Y403894D01*
X74156Y403806D01*
X74293Y403707D01*
X74394Y403594D01*
X74481Y403507D01*
X74543Y403444D01*
X74556Y403432D01*
Y403419D01*
X74668Y403269D01*
X74768Y403119D01*
X74856Y402969D01*
X74931Y402819D01*
X75043Y402544D01*
X75131Y402294D01*
X75168Y402069D01*
X75181Y401982D01*
X75193Y401907D01*
X75206Y401844D01*
Y401757D01*
X75193Y401544D01*
X75168Y401332D01*
X75118Y401132D01*
X75068Y400945D01*
X75018Y400782D01*
X74968Y400657D01*
X74956Y400607D01*
X74943Y400570D01*
X74931Y400557D01*
Y400545D01*
X74881Y400420D01*
X74806Y400282D01*
X74656Y400007D01*
X74481Y399720D01*
X74306Y399433D01*
X74131Y399195D01*
X74068Y399083D01*
X73994Y398995D01*
X73944Y398908D01*
X73906Y398858D01*
X73881Y398820D01*
X73869Y398808D01*
X74968D01*
Y396408D01*
X74956Y396171D01*
X74931Y395971D01*
X74893Y395808D01*
X74843Y395684D01*
X74793Y395584D01*
X74756Y395509D01*
X74731Y395471D01*
X74718Y395459D01*
X74618Y395371D01*
X74518Y395309D01*
X74418Y395259D01*
X74318Y395234D01*
X74231Y395209D01*
X74156Y395196D01*
X74106D01*
X74093D01*
X73956Y395209D01*
X73819Y395234D01*
X73719Y395284D01*
X73619Y395334D01*
X73544Y395371D01*
X73494Y395421D01*
X73456Y395446D01*
X73444Y395459D01*
X73369Y395584D01*
X73306Y395721D01*
X73269Y395883D01*
X73231Y396033D01*
X73219Y396183D01*
X73206Y396296D01*
Y397046D01*
X68907D01*
Y395996D01*
X68895Y395759D01*
X68870Y395559D01*
X68832Y395396D01*
X68782Y395271D01*
X68732Y395171D01*
X68695Y395096D01*
X68670Y395059D01*
X68657Y395046D01*
X68557Y394959D01*
X68457Y394896D01*
X68358Y394846D01*
X68257Y394821D01*
X68170Y394796D01*
X68095Y394784D01*
X68045D01*
X68033D01*
X67895Y394796D01*
X67758Y394821D01*
X67658Y394871D01*
X67558Y394921D01*
X67483Y394959D01*
X67433Y395009D01*
X67395Y395034D01*
X67383Y395046D01*
X67308Y395171D01*
X67245Y395309D01*
X67208Y395471D01*
X67170Y395621D01*
X67158Y395771D01*
X67145Y395883D01*
Y401320D01*
X67158Y401544D01*
X67183Y401744D01*
X67220Y401907D01*
X67270Y402032D01*
X67308Y402132D01*
X67345Y402207D01*
X67370Y402244D01*
X67383Y402257D01*
X67483Y402344D01*
X67583Y402419D01*
X67695Y402469D01*
X67795Y402494D01*
X67883Y402519D01*
X67958Y402532D01*
X68008D01*
X68020D01*
X68158Y402519D01*
X68282Y402494D01*
X68395Y402444D01*
X68482Y402394D01*
X68557Y402344D01*
X68607Y402294D01*
X68645Y402269D01*
X68657Y402257D01*
X68745Y402132D01*
X68807Y401994D01*
X68845Y401844D01*
X68882Y401682D01*
X68895Y401544D01*
X68907Y401432D01*
Y398808D01*
X71569D01*
X71894Y399208D01*
X72182Y399557D01*
X72419Y399870D01*
X72531Y400007D01*
X72619Y400132D01*
X72706Y400245D01*
X72769Y400345D01*
X72831Y400432D01*
X72881Y400507D01*
X72919Y400557D01*
X72944Y400595D01*
X72969Y400620D01*
Y400632D01*
X73131Y400895D01*
X73244Y401120D01*
X73331Y401307D01*
X73381Y401470D01*
X73419Y401582D01*
X73431Y401670D01*
X73444Y401732D01*
Y401744D01*
X73431Y401857D01*
X73394Y401969D01*
X73331Y402082D01*
X73281Y402182D01*
X73219Y402269D01*
X73156Y402332D01*
X73119Y402382D01*
X73106Y402394D01*
X72994Y402532D01*
X72919Y402657D01*
X72856Y402769D01*
X72819Y402869D01*
X72794Y402957D01*
X72781Y403032D01*
Y403082D01*
X72794Y403219D01*
X72819Y403332D01*
X72869Y403444D01*
X72919Y403531D01*
X72956Y403606D01*
X73006Y403657D01*
X73031Y403694D01*
X73044Y403707D01*
X73144Y403794D01*
X73256Y403869D01*
X73356Y403919D01*
X73456Y403944D01*
X73544Y403969D01*
X73619Y403981D01*
X73669D01*
X73681D01*
X73769D01*
X73844Y403956D01*
D02*
G37*
G36*
X88155Y403725D02*
X88467Y403688D01*
X88767Y403625D01*
X89055Y403538D01*
X89330Y403438D01*
X89580Y403338D01*
X89804Y403225D01*
X90029Y403100D01*
X90217Y402988D01*
X90379Y402863D01*
X90529Y402763D01*
X90654Y402663D01*
X90754Y402575D01*
X90817Y402513D01*
X90867Y402476D01*
X90879Y402463D01*
X91104Y402213D01*
X91304Y401963D01*
X91467Y401701D01*
X91616Y401438D01*
X91742Y401176D01*
X91841Y400913D01*
X91929Y400663D01*
X91991Y400426D01*
X92041Y400201D01*
X92091Y400001D01*
X92116Y399814D01*
X92129Y399664D01*
X92141Y399526D01*
X92154Y399439D01*
Y399351D01*
X92141Y399101D01*
X92116Y398852D01*
X92091Y398627D01*
X92054Y398427D01*
X92004Y398252D01*
X91979Y398114D01*
X91966Y398064D01*
X91954Y398027D01*
X91941Y398014D01*
Y398002D01*
X91854Y397752D01*
X91754Y397514D01*
X91642Y397302D01*
X91542Y397102D01*
X91454Y396940D01*
X91379Y396814D01*
X91342Y396764D01*
X91329Y396727D01*
X91304Y396715D01*
Y396702D01*
X95266D01*
Y394640D01*
X95253Y394403D01*
X95228Y394203D01*
X95191Y394040D01*
X95141Y393915D01*
X95091Y393815D01*
X95053Y393740D01*
X95028Y393703D01*
X95016Y393690D01*
X94916Y393603D01*
X94816Y393540D01*
X94716Y393490D01*
X94616Y393465D01*
X94528Y393440D01*
X94453Y393428D01*
X94403D01*
X94391D01*
X94253Y393440D01*
X94116Y393465D01*
X94016Y393515D01*
X93916Y393565D01*
X93841Y393603D01*
X93791Y393653D01*
X93753Y393678D01*
X93741Y393690D01*
X93666Y393815D01*
X93603Y393953D01*
X93566Y394115D01*
X93528Y394265D01*
X93516Y394415D01*
X93504Y394528D01*
Y394940D01*
X85856D01*
Y394640D01*
X85843Y394403D01*
X85818Y394203D01*
X85780Y394040D01*
X85730Y393915D01*
X85681Y393815D01*
X85643Y393740D01*
X85618Y393703D01*
X85606Y393690D01*
X85506Y393603D01*
X85406Y393540D01*
X85306Y393490D01*
X85206Y393465D01*
X85118Y393440D01*
X85043Y393428D01*
X84993D01*
X84981D01*
X84843Y393440D01*
X84706Y393465D01*
X84606Y393515D01*
X84506Y393565D01*
X84431Y393603D01*
X84381Y393653D01*
X84343Y393678D01*
X84331Y393690D01*
X84256Y393815D01*
X84193Y393953D01*
X84156Y394115D01*
X84118Y394265D01*
X84106Y394415D01*
X84094Y394528D01*
Y396702D01*
X84518D01*
X84393Y396927D01*
X84293Y397152D01*
X84193Y397364D01*
X84131Y397552D01*
X84068Y397714D01*
X84031Y397839D01*
X84018Y397889D01*
X84006Y397927D01*
X83994Y397939D01*
Y397952D01*
X83931Y398202D01*
X83881Y398439D01*
X83856Y398676D01*
X83831Y398876D01*
X83819Y399064D01*
X83806Y399189D01*
Y399314D01*
X83819Y399676D01*
X83856Y400026D01*
X83919Y400351D01*
X83981Y400651D01*
X84068Y400938D01*
X84168Y401201D01*
X84268Y401438D01*
X84381Y401663D01*
X84493Y401851D01*
X84593Y402026D01*
X84693Y402176D01*
X84781Y402288D01*
X84856Y402388D01*
X84906Y402463D01*
X84943Y402500D01*
X84956Y402513D01*
X85181Y402725D01*
X85406Y402913D01*
X85643Y403075D01*
X85893Y403225D01*
X86130Y403338D01*
X86368Y403438D01*
X86593Y403525D01*
X86818Y403588D01*
X87030Y403638D01*
X87218Y403675D01*
X87380Y403700D01*
X87530Y403725D01*
X87655D01*
X87743Y403738D01*
X87793D01*
X87817D01*
X88155Y403725D01*
D02*
G37*
G36*
X91167Y393603D02*
X91292Y393578D01*
X91404Y393528D01*
X91492Y393478D01*
X91566Y393428D01*
X91616Y393378D01*
X91654Y393353D01*
X91666Y393340D01*
X91754Y393215D01*
X91817Y393078D01*
X91854Y392928D01*
X91891Y392766D01*
X91904Y392628D01*
X91917Y392516D01*
Y390429D01*
X91904Y390204D01*
X91879Y390004D01*
X91841Y389841D01*
X91791Y389716D01*
X91742Y389616D01*
X91704Y389541D01*
X91679Y389504D01*
X91666Y389491D01*
X91566Y389404D01*
X91467Y389341D01*
X91367Y389291D01*
X91267Y389266D01*
X91179Y389241D01*
X91104Y389229D01*
X91054D01*
X91042D01*
X90904Y389241D01*
X90767Y389266D01*
X90667Y389316D01*
X90567Y389366D01*
X90492Y389404D01*
X90442Y389454D01*
X90404Y389479D01*
X90392Y389491D01*
X90317Y389616D01*
X90254Y389754D01*
X90217Y389904D01*
X90179Y390066D01*
X90167Y390204D01*
X90154Y390316D01*
Y390429D01*
X86068Y388354D01*
X90154Y386255D01*
X90167Y386480D01*
X90192Y386680D01*
X90229Y386842D01*
X90279Y386967D01*
X90317Y387067D01*
X90354Y387142D01*
X90379Y387179D01*
X90392Y387192D01*
X90492Y387279D01*
X90592Y387354D01*
X90704Y387404D01*
X90804Y387429D01*
X90892Y387454D01*
X90967Y387467D01*
X91017D01*
X91029D01*
X91167Y387454D01*
X91292Y387429D01*
X91404Y387379D01*
X91492Y387329D01*
X91566Y387279D01*
X91616Y387229D01*
X91654Y387205D01*
X91666Y387192D01*
X91754Y387067D01*
X91817Y386930D01*
X91854Y386780D01*
X91891Y386617D01*
X91904Y386480D01*
X91917Y386367D01*
Y384293D01*
X91904Y384068D01*
X91879Y383868D01*
X91841Y383705D01*
X91791Y383580D01*
X91742Y383480D01*
X91704Y383405D01*
X91679Y383368D01*
X91666Y383355D01*
X91566Y383268D01*
X91467Y383205D01*
X91354Y383156D01*
X91254Y383130D01*
X91167Y383106D01*
X91092Y383093D01*
X91042D01*
X91029D01*
X90892Y383106D01*
X90767Y383130D01*
X90654Y383181D01*
X90567Y383231D01*
X90492Y383268D01*
X90442Y383318D01*
X90404Y383343D01*
X90392Y383355D01*
X90317Y383480D01*
X90254Y383618D01*
X90217Y383768D01*
X90179Y383930D01*
X90167Y384068D01*
X90154Y384180D01*
Y384293D01*
X84118Y387367D01*
X82169Y386367D01*
Y384605D01*
X82156Y384380D01*
X82132Y384180D01*
X82094Y384018D01*
X82057Y383893D01*
X82007Y383793D01*
X81969Y383718D01*
X81944Y383680D01*
X81931Y383668D01*
X81832Y383580D01*
X81719Y383518D01*
X81619Y383468D01*
X81519Y383443D01*
X81419Y383418D01*
X81344Y383405D01*
X81294D01*
X81282D01*
X81144Y383418D01*
X81019Y383443D01*
X80919Y383493D01*
X80819Y383543D01*
X80757Y383580D01*
X80694Y383630D01*
X80669Y383655D01*
X80657Y383668D01*
X80569Y383793D01*
X80507Y383930D01*
X80469Y384080D01*
X80444Y384243D01*
X80419Y384380D01*
X80407Y384493D01*
Y389004D01*
X80419Y389229D01*
X80444Y389429D01*
X80482Y389591D01*
X80532Y389716D01*
X80582Y389816D01*
X80619Y389891D01*
X80644Y389929D01*
X80657Y389941D01*
X80757Y390029D01*
X80857Y390104D01*
X80957Y390154D01*
X81057Y390179D01*
X81144Y390204D01*
X81219Y390216D01*
X81269D01*
X81282D01*
X81357D01*
X81432Y390191D01*
X81594Y390129D01*
X81744Y390041D01*
X81882Y389941D01*
X81994Y389841D01*
X82081Y389754D01*
X82144Y389691D01*
X82169Y389679D01*
Y388342D01*
X90154Y392403D01*
X90167Y392628D01*
X90192Y392828D01*
X90229Y392990D01*
X90279Y393115D01*
X90317Y393215D01*
X90354Y393290D01*
X90379Y393328D01*
X90392Y393340D01*
X90492Y393428D01*
X90592Y393503D01*
X90704Y393553D01*
X90804Y393578D01*
X90892Y393603D01*
X90967Y393615D01*
X91017D01*
X91029D01*
X91167Y393603D01*
D02*
G37*
G36*
X55646Y398033D02*
X55771Y398008D01*
X55883Y397971D01*
X55971Y397920D01*
X56046Y397870D01*
X56096Y397833D01*
X56133Y397808D01*
X56146Y397795D01*
X56233Y397708D01*
X56296Y397608D01*
X56333Y397508D01*
X56371Y397408D01*
X56383Y397333D01*
X56396Y397271D01*
Y397208D01*
X56383Y397096D01*
X56371Y396946D01*
X56346Y396796D01*
X56308Y396646D01*
X56271Y396496D01*
X56246Y396383D01*
X56233Y396333D01*
Y396296D01*
X56221Y396283D01*
Y396271D01*
X56146Y395971D01*
X56083Y395696D01*
X56021Y395434D01*
X55971Y395184D01*
X55933Y394946D01*
X55896Y394734D01*
X55871Y394534D01*
X55846Y394359D01*
X55833Y394209D01*
X55821Y394071D01*
X55808Y393946D01*
Y393847D01*
X55796Y393772D01*
Y393672D01*
X55808Y393247D01*
X55833Y393047D01*
X55858Y392872D01*
X55896Y392697D01*
X55921Y392547D01*
X55958Y392397D01*
X56008Y392272D01*
X56046Y392159D01*
X56083Y392060D01*
X56108Y391972D01*
X56146Y391897D01*
X56171Y391847D01*
X56196Y391810D01*
X56208Y391785D01*
Y391772D01*
X56383Y391535D01*
X56558Y391322D01*
X56746Y391160D01*
X56933Y391022D01*
X57095Y390922D01*
X57220Y390847D01*
X57270Y390822D01*
X57308Y390810D01*
X57320Y390797D01*
X57333D01*
Y398033D01*
X58083D01*
X58395Y398020D01*
X58682Y397995D01*
X58945Y397946D01*
X59157Y397896D01*
X59345Y397845D01*
X59420Y397821D01*
X59482Y397795D01*
X59532Y397783D01*
X59570Y397771D01*
X59582Y397758D01*
X59595D01*
X59932Y397595D01*
X60245Y397421D01*
X60507Y397258D01*
X60745Y397096D01*
X60932Y396946D01*
X61007Y396883D01*
X61069Y396833D01*
X61119Y396796D01*
X61157Y396758D01*
X61169Y396746D01*
X61182Y396733D01*
X61344Y396546D01*
X61494Y396346D01*
X61632Y396121D01*
X61757Y395896D01*
X61857Y395709D01*
X61894Y395621D01*
X61932Y395546D01*
X61957Y395484D01*
X61982Y395434D01*
X61994Y395409D01*
Y395396D01*
X62119Y395059D01*
X62219Y394709D01*
X62282Y394371D01*
X62332Y394071D01*
X62344Y393934D01*
X62357Y393809D01*
X62369Y393697D01*
X62382Y393609D01*
Y393422D01*
X62369Y393084D01*
X62332Y392772D01*
X62269Y392459D01*
X62194Y392172D01*
X62107Y391884D01*
X62007Y391622D01*
X61907Y391385D01*
X61794Y391160D01*
X61682Y390960D01*
X61582Y390772D01*
X61482Y390622D01*
X61394Y390485D01*
X61319Y390385D01*
X61257Y390310D01*
X61219Y390260D01*
X61207Y390247D01*
X60982Y390010D01*
X60745Y389798D01*
X60494Y389610D01*
X60232Y389460D01*
X59982Y389323D01*
X59732Y389223D01*
X59482Y389123D01*
X59245Y389060D01*
X59032Y388998D01*
X58820Y388960D01*
X58632Y388923D01*
X58482Y388910D01*
X58345Y388898D01*
X58258Y388885D01*
X58195D01*
X58170D01*
X57845Y388898D01*
X57545Y388935D01*
X57245Y388998D01*
X56970Y389085D01*
X56708Y389173D01*
X56470Y389285D01*
X56246Y389398D01*
X56046Y389523D01*
X55858Y389635D01*
X55696Y389748D01*
X55558Y389860D01*
X55433Y389948D01*
X55346Y390035D01*
X55271Y390098D01*
X55233Y390135D01*
X55221Y390148D01*
X55008Y390397D01*
X54833Y390660D01*
X54671Y390935D01*
X54534Y391210D01*
X54421Y391497D01*
X54321Y391785D01*
X54246Y392060D01*
X54184Y392322D01*
X54134Y392572D01*
X54096Y392797D01*
X54071Y393009D01*
X54059Y393184D01*
X54046Y393334D01*
X54034Y393447D01*
Y393534D01*
X54046Y393997D01*
X54084Y394459D01*
X54121Y394884D01*
X54146Y395096D01*
X54184Y395284D01*
X54209Y395459D01*
X54234Y395609D01*
X54259Y395746D01*
X54271Y395871D01*
X54296Y395971D01*
X54309Y396033D01*
X54321Y396083D01*
Y396096D01*
X54371Y396333D01*
X54434Y396558D01*
X54484Y396746D01*
X54534Y396921D01*
X54584Y397083D01*
X54633Y397221D01*
X54683Y397333D01*
X54734Y397446D01*
X54771Y397533D01*
X54809Y397608D01*
X54846Y397658D01*
X54871Y397708D01*
X54908Y397771D01*
X54921Y397783D01*
X55021Y397870D01*
X55121Y397933D01*
X55221Y397983D01*
X55308Y398008D01*
X55383Y398033D01*
X55458Y398045D01*
X55496D01*
X55508D01*
X55646Y398033D01*
D02*
G37*
G36*
X68670Y393709D02*
X68782Y393684D01*
X68895Y393634D01*
X68982Y393597D01*
X69057Y393547D01*
X69107Y393497D01*
X69145Y393472D01*
X69157Y393459D01*
X69245Y393359D01*
X69307Y393259D01*
X69357Y393159D01*
X69382Y393072D01*
X69407Y392984D01*
X69420Y392922D01*
Y392859D01*
X69407Y392759D01*
X69382Y392647D01*
X69307Y392422D01*
X69270Y392322D01*
X69232Y392247D01*
X69207Y392197D01*
X69195Y392172D01*
X69095Y391959D01*
X69007Y391735D01*
X68857Y391297D01*
X68757Y390885D01*
X68720Y390685D01*
X68695Y390497D01*
X68670Y390322D01*
X68645Y390160D01*
X68632Y390023D01*
Y389897D01*
X68620Y389810D01*
Y389510D01*
X68632Y389348D01*
X68645Y389210D01*
X68657Y389085D01*
X68707Y388860D01*
X68757Y388685D01*
X68807Y388548D01*
X68857Y388460D01*
X68882Y388398D01*
X68895Y388385D01*
X68982Y388310D01*
X69095Y388260D01*
X69220Y388210D01*
X69345Y388186D01*
X69457Y388173D01*
X69557Y388161D01*
X69620D01*
X69645D01*
X73206D01*
Y391410D01*
X73219Y391635D01*
X73244Y391822D01*
X73281Y391984D01*
X73331Y392109D01*
X73369Y392197D01*
X73406Y392272D01*
X73431Y392309D01*
X73444Y392322D01*
X73544Y392409D01*
X73644Y392484D01*
X73756Y392534D01*
X73856Y392559D01*
X73944Y392584D01*
X74019Y392597D01*
X74068D01*
X74081D01*
X74219Y392584D01*
X74344Y392559D01*
X74456Y392509D01*
X74543Y392459D01*
X74618Y392409D01*
X74668Y392359D01*
X74706Y392334D01*
X74718Y392322D01*
X74806Y392209D01*
X74868Y392060D01*
X74906Y391909D01*
X74943Y391759D01*
X74956Y391622D01*
X74968Y391510D01*
Y388161D01*
X76555D01*
X76780Y388148D01*
X76968Y388123D01*
X77130Y388086D01*
X77255Y388036D01*
X77343Y387985D01*
X77418Y387948D01*
X77455Y387923D01*
X77468Y387910D01*
X77555Y387811D01*
X77630Y387711D01*
X77680Y387598D01*
X77705Y387498D01*
X77730Y387411D01*
X77743Y387336D01*
Y387273D01*
X77730Y387136D01*
X77705Y387011D01*
X77655Y386898D01*
X77605Y386811D01*
X77555Y386736D01*
X77505Y386686D01*
X77480Y386648D01*
X77468Y386636D01*
X77355Y386561D01*
X77205Y386498D01*
X77055Y386461D01*
X76905Y386423D01*
X76768Y386411D01*
X76655Y386398D01*
X76580D01*
X76568D01*
X76555D01*
X74968D01*
Y385749D01*
X74956Y385524D01*
X74931Y385336D01*
X74893Y385186D01*
X74843Y385049D01*
X74793Y384961D01*
X74756Y384886D01*
X74731Y384849D01*
X74718Y384836D01*
X74618Y384749D01*
X74518Y384686D01*
X74406Y384636D01*
X74306Y384611D01*
X74219Y384586D01*
X74144Y384574D01*
X74093D01*
X74081D01*
X73944Y384586D01*
X73819Y384611D01*
X73706Y384661D01*
X73619Y384711D01*
X73544Y384749D01*
X73494Y384799D01*
X73456Y384824D01*
X73444Y384836D01*
X73369Y384949D01*
X73306Y385099D01*
X73269Y385249D01*
X73231Y385399D01*
X73219Y385536D01*
X73206Y385649D01*
Y386398D01*
X69307D01*
X69120Y386411D01*
X68932Y386436D01*
X68757Y386473D01*
X68595Y386523D01*
X68295Y386661D01*
X68045Y386811D01*
X67933Y386886D01*
X67833Y386948D01*
X67758Y387023D01*
X67683Y387086D01*
X67633Y387136D01*
X67595Y387173D01*
X67570Y387198D01*
X67558Y387211D01*
X67433Y387373D01*
X67333Y387548D01*
X67233Y387748D01*
X67158Y387948D01*
X67033Y388360D01*
X66945Y388760D01*
X66920Y388948D01*
X66895Y389123D01*
X66883Y389273D01*
X66870Y389410D01*
X66858Y389523D01*
Y389685D01*
X66870Y390023D01*
X66908Y390372D01*
X66970Y390722D01*
X67033Y391047D01*
X67058Y391197D01*
X67083Y391335D01*
X67120Y391460D01*
X67145Y391572D01*
X67170Y391647D01*
X67183Y391722D01*
X67195Y391759D01*
Y391772D01*
X67258Y391997D01*
X67320Y392197D01*
X67395Y392384D01*
X67458Y392559D01*
X67520Y392709D01*
X67583Y392847D01*
X67633Y392972D01*
X67695Y393072D01*
X67745Y393159D01*
X67783Y393234D01*
X67833Y393297D01*
X67870Y393347D01*
X67920Y393409D01*
X67933Y393434D01*
X68033Y393534D01*
X68133Y393597D01*
X68232Y393647D01*
X68333Y393684D01*
X68408Y393709D01*
X68470Y393722D01*
X68520D01*
X68533D01*
X68670Y393709D01*
D02*
G37*
G36*
X55333Y388598D02*
X55471Y388560D01*
X55596Y388498D01*
X55696Y388435D01*
X55783Y388373D01*
X55846Y388310D01*
X55896Y388273D01*
X55908Y388260D01*
X55971Y388161D01*
X56008Y388048D01*
X56046Y387898D01*
X56058Y387761D01*
X56071Y387623D01*
X56083Y387511D01*
Y387398D01*
X56271Y387273D01*
X56446Y387161D01*
X56608Y387048D01*
X56758Y386948D01*
X56895Y386848D01*
X57020Y386761D01*
X57233Y386611D01*
X57395Y386486D01*
X57520Y386398D01*
X57583Y386348D01*
X57608Y386323D01*
X57883Y386086D01*
X58133Y385873D01*
X58345Y385674D01*
X58533Y385486D01*
X58670Y385349D01*
X58783Y385236D01*
X58845Y385161D01*
X58870Y385149D01*
Y385136D01*
X59070Y385474D01*
X59282Y385774D01*
X59482Y386023D01*
X59670Y386223D01*
X59832Y386386D01*
X59957Y386498D01*
X60007Y386536D01*
X60045Y386561D01*
X60057Y386586D01*
X60070D01*
X60332Y386748D01*
X60595Y386873D01*
X60844Y386961D01*
X61069Y387011D01*
X61269Y387048D01*
X61357Y387061D01*
X61432D01*
X61494Y387073D01*
X61532D01*
X61557D01*
X61569D01*
X61819Y387061D01*
X62044Y387023D01*
X62269Y386973D01*
X62481Y386911D01*
X62681Y386836D01*
X62869Y386748D01*
X63031Y386648D01*
X63194Y386561D01*
X63331Y386461D01*
X63456Y386361D01*
X63569Y386273D01*
X63656Y386199D01*
X63731Y386136D01*
X63781Y386086D01*
X63806Y386049D01*
X63819Y386036D01*
X63981Y385836D01*
X64131Y385624D01*
X64256Y385386D01*
X64356Y385149D01*
X64456Y384911D01*
X64531Y384674D01*
X64594Y384436D01*
X64644Y384212D01*
X64681Y383999D01*
X64706Y383799D01*
X64731Y383612D01*
X64743Y383462D01*
X64756Y383324D01*
Y383149D01*
X64768Y379163D01*
X64756Y378925D01*
X64731Y378725D01*
X64693Y378563D01*
X64644Y378438D01*
X64594Y378338D01*
X64556Y378263D01*
X64531Y378226D01*
X64518Y378213D01*
X64419Y378125D01*
X64318Y378063D01*
X64219Y378013D01*
X64106Y377988D01*
X64019Y377963D01*
X63944Y377951D01*
X63894D01*
X63881D01*
X63744Y377963D01*
X63619Y377988D01*
X63506Y378038D01*
X63419Y378088D01*
X63344Y378125D01*
X63294Y378176D01*
X63256Y378200D01*
X63244Y378213D01*
X63169Y378338D01*
X63106Y378475D01*
X63069Y378638D01*
X63031Y378788D01*
X63019Y378938D01*
X63006Y379050D01*
Y379438D01*
X56083D01*
Y379163D01*
X56071Y378925D01*
X56046Y378725D01*
X56008Y378563D01*
X55958Y378438D01*
X55908Y378338D01*
X55871Y378263D01*
X55846Y378226D01*
X55833Y378213D01*
X55733Y378125D01*
X55633Y378063D01*
X55533Y378013D01*
X55433Y377988D01*
X55346Y377963D01*
X55271Y377951D01*
X55221D01*
X55208D01*
X55071Y377963D01*
X54933Y377988D01*
X54833Y378038D01*
X54734Y378088D01*
X54658Y378125D01*
X54608Y378176D01*
X54571Y378200D01*
X54559Y378213D01*
X54484Y378338D01*
X54421Y378475D01*
X54384Y378638D01*
X54346Y378788D01*
X54334Y378938D01*
X54321Y379050D01*
Y381837D01*
X54334Y382062D01*
X54359Y382262D01*
X54396Y382424D01*
X54446Y382549D01*
X54484Y382649D01*
X54521Y382724D01*
X54546Y382762D01*
X54559Y382774D01*
X54658Y382862D01*
X54759Y382937D01*
X54871Y382987D01*
X54971Y383012D01*
X55058Y383037D01*
X55133Y383049D01*
X55183D01*
X55196D01*
X55333Y383037D01*
X55458Y383012D01*
X55571Y382962D01*
X55658Y382912D01*
X55733Y382862D01*
X55783Y382812D01*
X55821Y382787D01*
X55833Y382774D01*
X55921Y382649D01*
X55983Y382512D01*
X56021Y382362D01*
X56058Y382200D01*
X56071Y382062D01*
X56083Y381950D01*
Y381200D01*
X58308D01*
Y382937D01*
X58233Y383074D01*
X58158Y383212D01*
X58058Y383349D01*
X57945Y383499D01*
X57695Y383787D01*
X57395Y384086D01*
X57083Y384386D01*
X56746Y384686D01*
X56408Y384974D01*
X56058Y385249D01*
X55721Y385511D01*
X55408Y385749D01*
X55108Y385961D01*
X54846Y386136D01*
X54734Y386223D01*
X54633Y386286D01*
X54546Y386348D01*
X54471Y386398D01*
X54409Y386448D01*
X54359Y386473D01*
X54334Y386498D01*
X54321D01*
Y387398D01*
X54334Y387623D01*
X54359Y387823D01*
X54396Y387985D01*
X54446Y388111D01*
X54484Y388210D01*
X54521Y388285D01*
X54546Y388323D01*
X54559Y388335D01*
X54658Y388423D01*
X54759Y388498D01*
X54871Y388548D01*
X54971Y388573D01*
X55058Y388598D01*
X55133Y388610D01*
X55183D01*
X55196D01*
X55333Y388598D01*
D02*
G37*
G36*
X68158Y382949D02*
X68282Y382924D01*
X68395Y382874D01*
X68482Y382824D01*
X68557Y382774D01*
X68607Y382724D01*
X68645Y382699D01*
X68657Y382687D01*
X68745Y382562D01*
X68807Y382424D01*
X68845Y382275D01*
X68882Y382112D01*
X68895Y381974D01*
X68907Y381862D01*
Y381750D01*
X72194D01*
X72419Y381737D01*
X72644Y381725D01*
X72844Y381687D01*
X73044Y381637D01*
X73219Y381587D01*
X73381Y381525D01*
X73531Y381450D01*
X73681Y381387D01*
X73794Y381325D01*
X73906Y381250D01*
X74006Y381187D01*
X74081Y381137D01*
X74144Y381087D01*
X74181Y381062D01*
X74206Y381037D01*
X74219Y381025D01*
X74394Y380850D01*
X74543Y380650D01*
X74681Y380450D01*
X74793Y380250D01*
X74881Y380037D01*
X74968Y379838D01*
X75031Y379625D01*
X75081Y379438D01*
X75118Y379250D01*
X75156Y379075D01*
X75181Y378925D01*
X75193Y378800D01*
X75206Y378688D01*
Y378538D01*
X75193Y378288D01*
X75168Y378051D01*
X75143Y377838D01*
X75106Y377638D01*
X75056Y377488D01*
X75031Y377363D01*
X75006Y377288D01*
X74993Y377276D01*
Y377263D01*
X74906Y377051D01*
X74818Y376863D01*
X74706Y376676D01*
X74618Y376526D01*
X74518Y376389D01*
X74443Y376301D01*
X74394Y376239D01*
X74381Y376213D01*
X74968D01*
Y374451D01*
X74956Y374214D01*
X74931Y374014D01*
X74893Y373852D01*
X74843Y373727D01*
X74793Y373627D01*
X74756Y373552D01*
X74731Y373514D01*
X74718Y373502D01*
X74618Y373414D01*
X74518Y373352D01*
X74418Y373302D01*
X74318Y373277D01*
X74231Y373252D01*
X74156Y373239D01*
X74106D01*
X74093D01*
X73956Y373252D01*
X73819Y373277D01*
X73719Y373327D01*
X73619Y373377D01*
X73544Y373414D01*
X73494Y373464D01*
X73456Y373489D01*
X73444Y373502D01*
X73369Y373627D01*
X73306Y373764D01*
X73269Y373927D01*
X73231Y374077D01*
X73219Y374226D01*
X73206Y374339D01*
Y374451D01*
X68907D01*
X68895Y374226D01*
X68882Y374027D01*
X68857Y373877D01*
X68832Y373764D01*
X68795Y373689D01*
X68770Y373627D01*
X68757Y373602D01*
X68745Y373589D01*
X68620Y373477D01*
X68495Y373389D01*
X68383Y373327D01*
X68270Y373289D01*
X68170Y373264D01*
X68095Y373239D01*
X68045D01*
X68033D01*
X67895Y373252D01*
X67758Y373277D01*
X67658Y373327D01*
X67558Y373377D01*
X67483Y373414D01*
X67433Y373464D01*
X67395Y373489D01*
X67383Y373502D01*
X67308Y373627D01*
X67245Y373764D01*
X67208Y373927D01*
X67170Y374077D01*
X67158Y374226D01*
X67145Y374339D01*
Y376213D01*
X67158Y376438D01*
X67183Y376638D01*
X67220Y376801D01*
X67270Y376926D01*
X67308Y377026D01*
X67345Y377101D01*
X67370Y377138D01*
X67383Y377151D01*
X67483Y377238D01*
X67583Y377313D01*
X67695Y377363D01*
X67795Y377388D01*
X67883Y377413D01*
X67958Y377426D01*
X68008D01*
X68020D01*
X68158Y377413D01*
X68295Y377363D01*
X68420Y377313D01*
X68520Y377238D01*
X68607Y377176D01*
X68670Y377113D01*
X68720Y377063D01*
X68732Y377051D01*
X68795Y376963D01*
X68832Y376851D01*
X68870Y376713D01*
X68882Y376563D01*
X68895Y376438D01*
X68907Y376326D01*
Y376213D01*
X72207D01*
X72469Y376464D01*
X72681Y376688D01*
X72856Y376888D01*
X72994Y377063D01*
X73094Y377188D01*
X73156Y377288D01*
X73194Y377351D01*
X73206Y377376D01*
X73281Y377551D01*
X73344Y377738D01*
X73381Y377926D01*
X73419Y378088D01*
X73431Y378238D01*
X73444Y378350D01*
Y378450D01*
X73431Y378738D01*
X73394Y378988D01*
X73331Y379200D01*
X73269Y379363D01*
X73206Y379500D01*
X73144Y379600D01*
X73106Y379650D01*
X73094Y379675D01*
X72981Y379775D01*
X72844Y379850D01*
X72706Y379913D01*
X72569Y379950D01*
X72444Y379975D01*
X72344Y379988D01*
X72269D01*
X72256D01*
X72244D01*
X68907D01*
X68895Y379750D01*
X68870Y379550D01*
X68832Y379388D01*
X68782Y379263D01*
X68732Y379163D01*
X68695Y379088D01*
X68670Y379050D01*
X68657Y379038D01*
X68557Y378950D01*
X68457Y378888D01*
X68358Y378838D01*
X68257Y378813D01*
X68170Y378788D01*
X68095Y378775D01*
X68045D01*
X68033D01*
X67895Y378788D01*
X67758Y378813D01*
X67658Y378863D01*
X67558Y378913D01*
X67483Y378950D01*
X67433Y379000D01*
X67395Y379025D01*
X67383Y379038D01*
X67308Y379163D01*
X67245Y379300D01*
X67208Y379463D01*
X67170Y379613D01*
X67158Y379763D01*
X67145Y379875D01*
Y381750D01*
X67158Y381974D01*
X67183Y382174D01*
X67220Y382337D01*
X67270Y382462D01*
X67308Y382562D01*
X67345Y382637D01*
X67370Y382674D01*
X67383Y382687D01*
X67483Y382774D01*
X67583Y382849D01*
X67695Y382899D01*
X67795Y382924D01*
X67883Y382949D01*
X67958Y382962D01*
X68008D01*
X68020D01*
X68158Y382949D01*
D02*
G37*
G36*
X85418Y382193D02*
X85543Y382168D01*
X85656Y382131D01*
X85743Y382081D01*
X85818Y382031D01*
X85868Y381993D01*
X85906Y381968D01*
X85918Y381956D01*
X86005Y381868D01*
X86068Y381768D01*
X86105Y381668D01*
X86143Y381568D01*
X86155Y381493D01*
X86168Y381431D01*
Y381368D01*
X86155Y381256D01*
X86143Y381106D01*
X86118Y380956D01*
X86080Y380806D01*
X86043Y380656D01*
X86018Y380544D01*
X86005Y380494D01*
Y380456D01*
X85993Y380444D01*
Y380431D01*
X85918Y380131D01*
X85856Y379856D01*
X85793Y379594D01*
X85743Y379344D01*
X85705Y379106D01*
X85668Y378894D01*
X85643Y378694D01*
X85618Y378519D01*
X85606Y378369D01*
X85593Y378232D01*
X85581Y378107D01*
Y378007D01*
X85568Y377932D01*
Y377832D01*
X85581Y377407D01*
X85606Y377207D01*
X85631Y377032D01*
X85668Y376857D01*
X85693Y376707D01*
X85730Y376557D01*
X85780Y376432D01*
X85818Y376320D01*
X85856Y376220D01*
X85880Y376132D01*
X85918Y376057D01*
X85943Y376007D01*
X85968Y375970D01*
X85981Y375945D01*
Y375932D01*
X86155Y375695D01*
X86330Y375482D01*
X86518Y375320D01*
X86705Y375182D01*
X86868Y375083D01*
X86993Y375008D01*
X87043Y374983D01*
X87080Y374970D01*
X87093Y374958D01*
X87105D01*
Y382193D01*
X87855D01*
X88167Y382181D01*
X88455Y382156D01*
X88717Y382106D01*
X88930Y382056D01*
X89117Y382006D01*
X89192Y381981D01*
X89255Y381956D01*
X89305Y381943D01*
X89342Y381931D01*
X89355Y381918D01*
X89367D01*
X89705Y381756D01*
X90017Y381581D01*
X90279Y381418D01*
X90517Y381256D01*
X90704Y381106D01*
X90779Y381044D01*
X90842Y380993D01*
X90892Y380956D01*
X90929Y380919D01*
X90942Y380906D01*
X90954Y380894D01*
X91117Y380706D01*
X91267Y380506D01*
X91404Y380281D01*
X91529Y380056D01*
X91629Y379869D01*
X91666Y379781D01*
X91704Y379706D01*
X91729Y379644D01*
X91754Y379594D01*
X91767Y379569D01*
Y379556D01*
X91891Y379219D01*
X91991Y378869D01*
X92054Y378532D01*
X92104Y378232D01*
X92116Y378094D01*
X92129Y377969D01*
X92141Y377857D01*
X92154Y377769D01*
Y377582D01*
X92141Y377244D01*
X92104Y376932D01*
X92041Y376620D01*
X91966Y376332D01*
X91879Y376045D01*
X91779Y375782D01*
X91679Y375545D01*
X91566Y375320D01*
X91454Y375120D01*
X91354Y374933D01*
X91254Y374783D01*
X91167Y374645D01*
X91092Y374545D01*
X91029Y374470D01*
X90992Y374420D01*
X90979Y374408D01*
X90754Y374170D01*
X90517Y373958D01*
X90267Y373770D01*
X90004Y373620D01*
X89754Y373483D01*
X89505Y373383D01*
X89255Y373283D01*
X89017Y373220D01*
X88805Y373158D01*
X88592Y373121D01*
X88405Y373083D01*
X88255Y373071D01*
X88117Y373058D01*
X88030Y373046D01*
X87968D01*
X87942D01*
X87618Y373058D01*
X87318Y373096D01*
X87018Y373158D01*
X86743Y373246D01*
X86480Y373333D01*
X86243Y373446D01*
X86018Y373558D01*
X85818Y373683D01*
X85631Y373795D01*
X85468Y373908D01*
X85331Y374020D01*
X85206Y374108D01*
X85118Y374195D01*
X85043Y374258D01*
X85006Y374295D01*
X84993Y374308D01*
X84781Y374558D01*
X84606Y374820D01*
X84443Y375095D01*
X84306Y375370D01*
X84193Y375657D01*
X84094Y375945D01*
X84018Y376220D01*
X83956Y376482D01*
X83906Y376732D01*
X83869Y376957D01*
X83843Y377169D01*
X83831Y377345D01*
X83819Y377494D01*
X83806Y377607D01*
Y377694D01*
X83819Y378157D01*
X83856Y378619D01*
X83893Y379044D01*
X83919Y379257D01*
X83956Y379444D01*
X83981Y379619D01*
X84006Y379769D01*
X84031Y379906D01*
X84044Y380031D01*
X84068Y380131D01*
X84081Y380194D01*
X84094Y380244D01*
Y380256D01*
X84143Y380494D01*
X84206Y380719D01*
X84256Y380906D01*
X84306Y381081D01*
X84356Y381244D01*
X84406Y381381D01*
X84456Y381493D01*
X84506Y381606D01*
X84543Y381693D01*
X84581Y381768D01*
X84618Y381818D01*
X84643Y381868D01*
X84681Y381931D01*
X84693Y381943D01*
X84793Y382031D01*
X84893Y382093D01*
X84993Y382143D01*
X85081Y382168D01*
X85156Y382193D01*
X85231Y382206D01*
X85268D01*
X85281D01*
X85418Y382193D01*
D02*
G37*
G36*
X85106Y372583D02*
X85231Y372558D01*
X85343Y372508D01*
X85431Y372458D01*
X85506Y372408D01*
X85556Y372358D01*
X85593Y372333D01*
X85606Y372321D01*
X85693Y372196D01*
X85756Y372058D01*
X85793Y371908D01*
X85830Y371746D01*
X85843Y371609D01*
X85856Y371496D01*
Y370909D01*
X86143Y370796D01*
X86418Y370671D01*
X86668Y370546D01*
X86918Y370434D01*
X87143Y370309D01*
X87355Y370196D01*
X87555Y370084D01*
X87730Y369984D01*
X87893Y369884D01*
X88030Y369796D01*
X88155Y369709D01*
X88255Y369646D01*
X88342Y369584D01*
X88392Y369547D01*
X88430Y369521D01*
X88442Y369509D01*
X88630Y369359D01*
X88817Y369222D01*
X88980Y369072D01*
X89130Y368922D01*
X89392Y368647D01*
X89617Y368384D01*
X89792Y368172D01*
X89854Y368072D01*
X89904Y367997D01*
X89955Y367934D01*
X89979Y367884D01*
X90004Y367859D01*
Y367847D01*
X92766Y371021D01*
X92779Y371246D01*
X92804Y371446D01*
X92841Y371609D01*
X92891Y371733D01*
X92929Y371833D01*
X92966Y371908D01*
X92991Y371946D01*
X93004Y371958D01*
X93104Y372046D01*
X93216Y372121D01*
X93316Y372171D01*
X93429Y372196D01*
X93516Y372221D01*
X93591Y372233D01*
X93641D01*
X93653D01*
X93791Y372221D01*
X93916Y372196D01*
X94016Y372146D01*
X94116Y372096D01*
X94178Y372046D01*
X94241Y371996D01*
X94266Y371971D01*
X94278Y371958D01*
X94366Y371833D01*
X94428Y371696D01*
X94466Y371546D01*
X94503Y371384D01*
X94516Y371246D01*
X94528Y371134D01*
Y371021D01*
X94541Y368472D01*
X94528Y368484D01*
X94503Y368459D01*
X94453Y368434D01*
X94416Y368384D01*
X94316Y368297D01*
X94291Y368272D01*
X94278Y368259D01*
X94178Y368172D01*
X94066Y368109D01*
X93966Y368059D01*
X93866Y368034D01*
X93766Y368009D01*
X93691Y367997D01*
X93641D01*
X93629D01*
X93491Y368009D01*
X93366Y368034D01*
X93266Y368084D01*
X93179Y368134D01*
X93116Y368172D01*
X93066Y368222D01*
X93041Y368247D01*
X93029Y368259D01*
X92966Y368347D01*
X92916Y368409D01*
X92891Y368447D01*
X92866Y368472D01*
X92854D01*
X92841D01*
X90154Y365335D01*
X92766D01*
Y365972D01*
X92779Y366172D01*
X92804Y366347D01*
X92841Y366497D01*
X92891Y366610D01*
X92929Y366710D01*
X92966Y366772D01*
X92991Y366810D01*
X93004Y366822D01*
X93104Y366910D01*
X93216Y366985D01*
X93316Y367035D01*
X93429Y367060D01*
X93516Y367085D01*
X93591Y367097D01*
X93641D01*
X93653D01*
X93791Y367085D01*
X93916Y367060D01*
X94016Y367010D01*
X94116Y366960D01*
X94178Y366910D01*
X94241Y366860D01*
X94266Y366835D01*
X94278Y366822D01*
X94366Y366710D01*
X94428Y366572D01*
X94466Y366435D01*
X94503Y366297D01*
X94516Y366172D01*
X94528Y366072D01*
Y365972D01*
X94541Y363298D01*
X94528Y363098D01*
X94503Y362911D01*
X94466Y362773D01*
X94416Y362648D01*
X94366Y362548D01*
X94328Y362486D01*
X94303Y362448D01*
X94291Y362436D01*
X94191Y362348D01*
X94091Y362286D01*
X93991Y362236D01*
X93878Y362211D01*
X93791Y362186D01*
X93716Y362173D01*
X93666D01*
X93653D01*
X93516Y362186D01*
X93391Y362211D01*
X93279Y362261D01*
X93191Y362311D01*
X93116Y362348D01*
X93066Y362398D01*
X93029Y362423D01*
X93016Y362436D01*
X92941Y362548D01*
X92879Y362686D01*
X92841Y362836D01*
X92804Y362973D01*
X92791Y363098D01*
X92779Y363198D01*
Y363573D01*
X85856D01*
Y363298D01*
X85843Y363098D01*
X85818Y362911D01*
X85780Y362773D01*
X85730Y362648D01*
X85681Y362548D01*
X85643Y362486D01*
X85618Y362448D01*
X85606Y362436D01*
X85506Y362348D01*
X85406Y362286D01*
X85306Y362236D01*
X85206Y362211D01*
X85118Y362186D01*
X85043Y362173D01*
X84993D01*
X84981D01*
X84843Y362186D01*
X84706Y362211D01*
X84606Y362261D01*
X84506Y362311D01*
X84431Y362348D01*
X84381Y362398D01*
X84343Y362423D01*
X84331Y362436D01*
X84256Y362548D01*
X84193Y362686D01*
X84156Y362836D01*
X84118Y362973D01*
X84106Y363098D01*
X84094Y363198D01*
Y365972D01*
X84106Y366172D01*
X84131Y366347D01*
X84168Y366497D01*
X84218Y366610D01*
X84256Y366710D01*
X84293Y366772D01*
X84318Y366810D01*
X84331Y366822D01*
X84431Y366910D01*
X84531Y366985D01*
X84643Y367035D01*
X84743Y367060D01*
X84831Y367085D01*
X84906Y367097D01*
X84956D01*
X84968D01*
X85106Y367085D01*
X85231Y367060D01*
X85343Y367010D01*
X85431Y366960D01*
X85506Y366910D01*
X85556Y366860D01*
X85593Y366835D01*
X85606Y366822D01*
X85693Y366710D01*
X85756Y366572D01*
X85793Y366435D01*
X85830Y366297D01*
X85843Y366172D01*
X85856Y366072D01*
Y365335D01*
X87830D01*
X88755Y366410D01*
X88642Y366647D01*
X88530Y366872D01*
X88405Y367060D01*
X88292Y367222D01*
X88192Y367360D01*
X88105Y367459D01*
X88055Y367522D01*
X88030Y367547D01*
X87942Y367635D01*
X87843Y367734D01*
X87630Y367909D01*
X87393Y368084D01*
X87155Y368247D01*
X86955Y368372D01*
X86855Y368434D01*
X86780Y368484D01*
X86705Y368522D01*
X86655Y368547D01*
X86630Y368572D01*
X86618D01*
X86168Y368809D01*
X85718Y369034D01*
X85281Y369234D01*
X85093Y369334D01*
X84906Y369422D01*
X84731Y369496D01*
X84568Y369559D01*
X84431Y369622D01*
X84318Y369671D01*
X84218Y369721D01*
X84156Y369746D01*
X84106Y369771D01*
X84094D01*
Y371384D01*
X84106Y371609D01*
X84131Y371808D01*
X84168Y371971D01*
X84218Y372096D01*
X84256Y372196D01*
X84293Y372271D01*
X84318Y372308D01*
X84331Y372321D01*
X84431Y372408D01*
X84531Y372483D01*
X84643Y372533D01*
X84743Y372558D01*
X84831Y372583D01*
X84906Y372596D01*
X84956D01*
X84968D01*
X85106Y372583D01*
D02*
G37*
G36*
X71307Y371977D02*
X71682Y371915D01*
X72032Y371815D01*
X72344Y371715D01*
X72481Y371665D01*
X72606Y371615D01*
X72719Y371565D01*
X72806Y371515D01*
X72881Y371477D01*
X72931Y371452D01*
X72969Y371440D01*
X72981Y371427D01*
X73169Y371315D01*
X73344Y371190D01*
X73669Y370927D01*
X73944Y370652D01*
X74181Y370378D01*
X74281Y370240D01*
X74369Y370128D01*
X74431Y370015D01*
X74493Y369928D01*
X74543Y369853D01*
X74581Y369790D01*
X74593Y369753D01*
X74606Y369740D01*
X74706Y369528D01*
X74806Y369328D01*
X74956Y368915D01*
X75056Y368516D01*
X75093Y368340D01*
X75131Y368166D01*
X75156Y368016D01*
X75181Y367866D01*
X75193Y367741D01*
Y367628D01*
X75206Y367541D01*
Y367203D01*
X75181Y366991D01*
X75118Y366566D01*
X75018Y366179D01*
X74968Y365991D01*
X74918Y365829D01*
X74856Y365679D01*
X74806Y365541D01*
X74756Y365416D01*
X74706Y365316D01*
X74668Y365241D01*
X74643Y365179D01*
X74631Y365141D01*
X74618Y365129D01*
X74381Y364742D01*
X74118Y364404D01*
X73981Y364254D01*
X73856Y364117D01*
X73719Y363992D01*
X73594Y363879D01*
X73469Y363779D01*
X73356Y363692D01*
X73256Y363617D01*
X73181Y363554D01*
X73106Y363504D01*
X73056Y363467D01*
X73019Y363454D01*
X73006Y363442D01*
X72819Y363342D01*
X72619Y363254D01*
X72244Y363104D01*
X71894Y363004D01*
X71582Y362942D01*
X71432Y362917D01*
X71307Y362892D01*
X71194Y362879D01*
X71107D01*
X71019Y362867D01*
X70969D01*
X70932D01*
X70919D01*
X70732Y362879D01*
X70532Y362892D01*
X70170Y362954D01*
X69832Y363054D01*
X69532Y363154D01*
X69395Y363204D01*
X69282Y363254D01*
X69170Y363304D01*
X69082Y363354D01*
X69020Y363392D01*
X68970Y363417D01*
X68932Y363442D01*
X68920D01*
X68582Y363679D01*
X68282Y363942D01*
X68020Y364229D01*
X67808Y364492D01*
X67633Y364742D01*
X67570Y364841D01*
X67508Y364941D01*
X67470Y365016D01*
X67433Y365066D01*
X67420Y365104D01*
X67408Y365116D01*
X67308Y365329D01*
X67233Y365529D01*
X67095Y365941D01*
X66995Y366329D01*
X66958Y366516D01*
X66933Y366691D01*
X66908Y366841D01*
X66883Y366991D01*
X66870Y367116D01*
Y367228D01*
X66858Y367303D01*
Y367428D01*
X66870Y367653D01*
X66883Y367878D01*
X66945Y368303D01*
X67033Y368703D01*
X67083Y368878D01*
X67145Y369040D01*
X67195Y369203D01*
X67245Y369340D01*
X67295Y369453D01*
X67333Y369565D01*
X67370Y369640D01*
X67395Y369703D01*
X67420Y369740D01*
Y369753D01*
X67533Y369953D01*
X67645Y370140D01*
X67770Y370315D01*
X67895Y370490D01*
X68020Y370640D01*
X68145Y370777D01*
X68270Y370890D01*
X68383Y371002D01*
X68495Y371102D01*
X68607Y371190D01*
X68695Y371265D01*
X68770Y371327D01*
X68845Y371365D01*
X68895Y371402D01*
X68920Y371427D01*
X68932D01*
X69107Y371527D01*
X69295Y371615D01*
X69645Y371765D01*
X69970Y371865D01*
X70282Y371927D01*
X70407Y371952D01*
X70532Y371977D01*
X70644Y371990D01*
X70732D01*
X70807Y372002D01*
X70857D01*
X70894D01*
X70907D01*
X71107D01*
X71307Y371977D01*
D02*
G37*
G36*
X69207Y361517D02*
X69320Y361492D01*
X69432Y361442D01*
X69520Y361392D01*
X69595Y361342D01*
X69645Y361292D01*
X69682Y361267D01*
X69695Y361255D01*
X69782Y361155D01*
X69857Y361055D01*
X69907Y360942D01*
X69932Y360855D01*
X69957Y360768D01*
X69970Y360705D01*
Y360643D01*
X69957Y360505D01*
X69932Y360393D01*
X69895Y360305D01*
X69882Y360293D01*
Y360280D01*
X69845Y360218D01*
X69795Y360155D01*
X69670Y360018D01*
X69607Y359955D01*
X69570Y359905D01*
X69532Y359868D01*
X69520Y359855D01*
X69357Y359693D01*
X69232Y359530D01*
X69120Y359393D01*
X69045Y359268D01*
X68982Y359155D01*
X68932Y359080D01*
X68920Y359018D01*
X68907Y359005D01*
X68820Y358743D01*
X68757Y358456D01*
X68707Y358181D01*
X68682Y357918D01*
X68657Y357693D01*
Y357593D01*
X68645Y357506D01*
Y357343D01*
X68657Y357043D01*
X68682Y356768D01*
X68720Y356494D01*
X68782Y356256D01*
X68845Y356019D01*
X68920Y355819D01*
X68995Y355619D01*
X69070Y355444D01*
X69145Y355294D01*
X69232Y355156D01*
X69295Y355044D01*
X69357Y354957D01*
X69420Y354882D01*
X69457Y354819D01*
X69482Y354794D01*
X69495Y354781D01*
X69657Y354619D01*
X69832Y354482D01*
X70007Y354357D01*
X70182Y354244D01*
X70370Y354157D01*
X70544Y354082D01*
X70707Y354019D01*
X70882Y353969D01*
X71032Y353932D01*
X71169Y353907D01*
X71294Y353882D01*
X71407Y353869D01*
X71494D01*
X71569Y353857D01*
X71607D01*
X71619D01*
X72769D01*
X73156Y353882D01*
X73506Y353932D01*
X73831Y354019D01*
X73969Y354057D01*
X74093Y354107D01*
X74219Y354157D01*
X74318Y354194D01*
X74406Y354244D01*
X74481Y354282D01*
X74543Y354307D01*
X74581Y354332D01*
X74606Y354357D01*
X74618D01*
X74893Y354557D01*
X75118Y354757D01*
X75318Y354957D01*
X75468Y355131D01*
X75593Y355294D01*
X75681Y355419D01*
X75706Y355469D01*
X75731Y355506D01*
X75743Y355519D01*
Y355531D01*
X75856Y355781D01*
X75943Y356044D01*
X76006Y356281D01*
X76055Y356506D01*
X76080Y356706D01*
Y356794D01*
X76093Y356856D01*
Y356993D01*
X76080Y357231D01*
X76055Y357456D01*
X76018Y357668D01*
X75981Y357868D01*
X75931Y358031D01*
X75893Y358143D01*
X75881Y358193D01*
X75868Y358231D01*
X75856Y358243D01*
Y358256D01*
X75756Y358481D01*
X75656Y358680D01*
X75556Y358843D01*
X75456Y358993D01*
X75368Y359093D01*
X75293Y359180D01*
X75243Y359230D01*
X75231Y359243D01*
X75156Y359305D01*
X75056Y359355D01*
X74881Y359443D01*
X74806Y359468D01*
X74743Y359480D01*
X74693Y359493D01*
X74681D01*
X74493Y359530D01*
X74331Y359580D01*
X74206Y359630D01*
X74106Y359693D01*
X74019Y359730D01*
X73969Y359768D01*
X73944Y359793D01*
X73931Y359805D01*
X73869Y359893D01*
X73819Y359980D01*
X73794Y360080D01*
X73769Y360168D01*
X73756Y360243D01*
X73744Y360305D01*
Y360368D01*
X73756Y360505D01*
X73781Y360630D01*
X73831Y360742D01*
X73881Y360830D01*
X73919Y360905D01*
X73969Y360955D01*
X73994Y360992D01*
X74006Y361005D01*
X74118Y361092D01*
X74268Y361155D01*
X74418Y361192D01*
X74568Y361230D01*
X74706Y361242D01*
X74818Y361255D01*
X74893D01*
X74906D01*
X74918D01*
X76418D01*
X76643Y361242D01*
X76830Y361217D01*
X76980Y361180D01*
X77105Y361130D01*
X77205Y361080D01*
X77268Y361042D01*
X77305Y361017D01*
X77318Y361005D01*
X77405Y360905D01*
X77480Y360805D01*
X77530Y360692D01*
X77555Y360592D01*
X77580Y360505D01*
X77593Y360430D01*
Y360368D01*
X77580Y360218D01*
X77543Y360080D01*
X77518Y360030D01*
X77493Y359993D01*
X77480Y359968D01*
Y359955D01*
X77380Y359818D01*
X77268Y359705D01*
X77218Y359668D01*
X77180Y359630D01*
X77155Y359618D01*
X77143Y359605D01*
X77268Y359380D01*
X77368Y359168D01*
X77468Y358955D01*
X77543Y358755D01*
X77593Y358593D01*
X77630Y358468D01*
X77655Y358418D01*
Y358381D01*
X77668Y358368D01*
Y358356D01*
X77730Y358106D01*
X77780Y357856D01*
X77805Y357606D01*
X77830Y357393D01*
X77843Y357193D01*
X77855Y357118D01*
Y356918D01*
X77843Y356681D01*
X77830Y356444D01*
X77755Y356006D01*
X77655Y355594D01*
X77593Y355406D01*
X77530Y355231D01*
X77468Y355081D01*
X77405Y354931D01*
X77355Y354807D01*
X77305Y354706D01*
X77268Y354619D01*
X77230Y354557D01*
X77218Y354519D01*
X77205Y354507D01*
X77080Y354294D01*
X76943Y354107D01*
X76793Y353919D01*
X76643Y353744D01*
X76493Y353594D01*
X76330Y353444D01*
X76181Y353307D01*
X76043Y353194D01*
X75893Y353082D01*
X75768Y352994D01*
X75656Y352920D01*
X75556Y352845D01*
X75468Y352794D01*
X75406Y352757D01*
X75368Y352744D01*
X75356Y352732D01*
X75131Y352620D01*
X74906Y352520D01*
X74681Y352432D01*
X74456Y352370D01*
X74019Y352245D01*
X73819Y352207D01*
X73631Y352170D01*
X73456Y352145D01*
X73294Y352132D01*
X73144Y352120D01*
X73031Y352107D01*
X72931Y352095D01*
X72856D01*
X72806D01*
X72794D01*
X71594D01*
X71344Y352107D01*
X71107Y352120D01*
X70882Y352157D01*
X70657Y352207D01*
X70444Y352257D01*
X70244Y352320D01*
X70057Y352382D01*
X69882Y352457D01*
X69720Y352520D01*
X69582Y352582D01*
X69457Y352645D01*
X69357Y352695D01*
X69270Y352744D01*
X69207Y352782D01*
X69170Y352794D01*
X69157Y352807D01*
X68957Y352944D01*
X68770Y353082D01*
X68595Y353232D01*
X68432Y353382D01*
X68282Y353519D01*
X68145Y353669D01*
X68033Y353807D01*
X67920Y353932D01*
X67833Y354057D01*
X67745Y354169D01*
X67670Y354282D01*
X67620Y354357D01*
X67570Y354432D01*
X67545Y354482D01*
X67533Y354519D01*
X67520Y354532D01*
X67408Y354769D01*
X67308Y355019D01*
X67220Y355256D01*
X67158Y355506D01*
X67033Y355981D01*
X66995Y356206D01*
X66958Y356419D01*
X66933Y356618D01*
X66920Y356794D01*
X66908Y356956D01*
X66895Y357093D01*
X66883Y357206D01*
Y357356D01*
X66908Y357843D01*
X66958Y358306D01*
X66995Y358518D01*
X67033Y358731D01*
X67070Y358918D01*
X67120Y359093D01*
X67158Y359243D01*
X67195Y359380D01*
X67233Y359505D01*
X67270Y359618D01*
X67308Y359693D01*
X67320Y359755D01*
X67345Y359793D01*
Y359805D01*
X67483Y360105D01*
X67633Y360368D01*
X67795Y360605D01*
X67945Y360805D01*
X68083Y360955D01*
X68195Y361067D01*
X68270Y361142D01*
X68282Y361167D01*
X68295D01*
X68445Y361292D01*
X68595Y361380D01*
X68720Y361442D01*
X68832Y361480D01*
X68932Y361517D01*
X69007Y361530D01*
X69057D01*
X69070D01*
X69207Y361517D01*
D02*
G37*
G36*
X109012Y374660D02*
X109137Y374635D01*
X109250Y374585D01*
X109337Y374535D01*
X109412Y374485D01*
X109462Y374435D01*
X109500Y374410D01*
X109512Y374397D01*
X109600Y374272D01*
X109662Y374135D01*
X109699Y373985D01*
X109737Y373823D01*
X109749Y373685D01*
X109762Y373573D01*
Y372985D01*
X110049Y372873D01*
X110324Y372748D01*
X110574Y372623D01*
X110824Y372510D01*
X111049Y372385D01*
X111262Y372273D01*
X111462Y372160D01*
X111636Y372061D01*
X111799Y371960D01*
X111937Y371873D01*
X112061Y371786D01*
X112161Y371723D01*
X112249Y371661D01*
X112299Y371623D01*
X112336Y371598D01*
X112349Y371586D01*
X112536Y371436D01*
X112724Y371298D01*
X112886Y371148D01*
X113036Y370998D01*
X113299Y370723D01*
X113524Y370461D01*
X113699Y370248D01*
X113761Y370149D01*
X113811Y370074D01*
X113861Y370011D01*
X113886Y369961D01*
X113911Y369936D01*
Y369924D01*
X116673Y373098D01*
X116685Y373323D01*
X116710Y373523D01*
X116748Y373685D01*
X116798Y373810D01*
X116835Y373910D01*
X116873Y373985D01*
X116898Y374022D01*
X116910Y374035D01*
X117010Y374123D01*
X117123Y374197D01*
X117223Y374247D01*
X117335Y374272D01*
X117423Y374297D01*
X117498Y374310D01*
X117548D01*
X117560D01*
X117697Y374297D01*
X117822Y374272D01*
X117922Y374222D01*
X118022Y374173D01*
X118085Y374123D01*
X118147Y374072D01*
X118172Y374048D01*
X118185Y374035D01*
X118272Y373910D01*
X118335Y373773D01*
X118372Y373623D01*
X118410Y373460D01*
X118422Y373323D01*
X118435Y373210D01*
Y373098D01*
X118447Y370548D01*
X118435Y370561D01*
X118410Y370536D01*
X118360Y370511D01*
X118322Y370461D01*
X118222Y370373D01*
X118197Y370348D01*
X118185Y370336D01*
X118085Y370248D01*
X117972Y370186D01*
X117872Y370136D01*
X117773Y370111D01*
X117673Y370086D01*
X117598Y370074D01*
X117548D01*
X117535D01*
X117398Y370086D01*
X117273Y370111D01*
X117173Y370161D01*
X117085Y370211D01*
X117023Y370248D01*
X116973Y370298D01*
X116948Y370323D01*
X116935Y370336D01*
X116873Y370423D01*
X116823Y370486D01*
X116798Y370523D01*
X116773Y370548D01*
X116760D01*
X116748D01*
X114061Y367412D01*
X116673D01*
Y368049D01*
X116685Y368249D01*
X116710Y368424D01*
X116748Y368574D01*
X116798Y368686D01*
X116835Y368786D01*
X116873Y368849D01*
X116898Y368886D01*
X116910Y368899D01*
X117010Y368986D01*
X117123Y369061D01*
X117223Y369111D01*
X117335Y369136D01*
X117423Y369161D01*
X117498Y369174D01*
X117548D01*
X117560D01*
X117697Y369161D01*
X117822Y369136D01*
X117922Y369086D01*
X118022Y369036D01*
X118085Y368986D01*
X118147Y368936D01*
X118172Y368911D01*
X118185Y368899D01*
X118272Y368786D01*
X118335Y368649D01*
X118372Y368511D01*
X118410Y368374D01*
X118422Y368249D01*
X118435Y368149D01*
Y368049D01*
X118447Y365375D01*
X118435Y365175D01*
X118410Y364987D01*
X118372Y364850D01*
X118322Y364725D01*
X118272Y364625D01*
X118235Y364562D01*
X118210Y364525D01*
X118197Y364512D01*
X118097Y364425D01*
X117997Y364362D01*
X117897Y364313D01*
X117785Y364287D01*
X117697Y364263D01*
X117622Y364250D01*
X117572D01*
X117560D01*
X117423Y364263D01*
X117298Y364287D01*
X117185Y364338D01*
X117098Y364388D01*
X117023Y364425D01*
X116973Y364475D01*
X116935Y364500D01*
X116923Y364512D01*
X116848Y364625D01*
X116785Y364762D01*
X116748Y364912D01*
X116710Y365050D01*
X116698Y365175D01*
X116685Y365275D01*
Y365650D01*
X109762D01*
Y365375D01*
X109749Y365175D01*
X109725Y364987D01*
X109687Y364850D01*
X109637Y364725D01*
X109587Y364625D01*
X109550Y364562D01*
X109525Y364525D01*
X109512Y364512D01*
X109412Y364425D01*
X109312Y364362D01*
X109212Y364313D01*
X109112Y364287D01*
X109025Y364263D01*
X108950Y364250D01*
X108900D01*
X108887D01*
X108750Y364263D01*
X108612Y364287D01*
X108512Y364338D01*
X108412Y364388D01*
X108337Y364425D01*
X108287Y364475D01*
X108250Y364500D01*
X108237Y364512D01*
X108162Y364625D01*
X108100Y364762D01*
X108062Y364912D01*
X108025Y365050D01*
X108013Y365175D01*
X108000Y365275D01*
Y368049D01*
X108013Y368249D01*
X108038Y368424D01*
X108075Y368574D01*
X108125Y368686D01*
X108162Y368786D01*
X108200Y368849D01*
X108225Y368886D01*
X108237Y368899D01*
X108337Y368986D01*
X108437Y369061D01*
X108550Y369111D01*
X108650Y369136D01*
X108737Y369161D01*
X108812Y369174D01*
X108862D01*
X108875D01*
X109012Y369161D01*
X109137Y369136D01*
X109250Y369086D01*
X109337Y369036D01*
X109412Y368986D01*
X109462Y368936D01*
X109500Y368911D01*
X109512Y368899D01*
X109600Y368786D01*
X109662Y368649D01*
X109699Y368511D01*
X109737Y368374D01*
X109749Y368249D01*
X109762Y368149D01*
Y367412D01*
X111736D01*
X112661Y368486D01*
X112549Y368724D01*
X112436Y368949D01*
X112311Y369136D01*
X112199Y369299D01*
X112099Y369436D01*
X112011Y369536D01*
X111961Y369599D01*
X111937Y369624D01*
X111849Y369711D01*
X111749Y369811D01*
X111537Y369986D01*
X111299Y370161D01*
X111062Y370323D01*
X110862Y370448D01*
X110762Y370511D01*
X110687Y370561D01*
X110612Y370598D01*
X110562Y370623D01*
X110537Y370648D01*
X110524D01*
X110074Y370886D01*
X109625Y371111D01*
X109187Y371311D01*
X109000Y371411D01*
X108812Y371498D01*
X108637Y371573D01*
X108475Y371636D01*
X108337Y371698D01*
X108225Y371748D01*
X108125Y371798D01*
X108062Y371823D01*
X108013Y371848D01*
X108000D01*
Y373460D01*
X108013Y373685D01*
X108038Y373885D01*
X108075Y374048D01*
X108125Y374173D01*
X108162Y374272D01*
X108200Y374347D01*
X108225Y374385D01*
X108237Y374397D01*
X108337Y374485D01*
X108437Y374560D01*
X108550Y374610D01*
X108650Y374635D01*
X108737Y374660D01*
X108812Y374672D01*
X108862D01*
X108875D01*
X109012Y374660D01*
D02*
G37*
G36*
X115121Y362716D02*
X115402Y362669D01*
X115665Y362594D01*
X115899Y362519D01*
X116002Y362482D01*
X116096Y362444D01*
X116180Y362407D01*
X116246Y362369D01*
X116302Y362341D01*
X116340Y362323D01*
X116368Y362313D01*
X116377Y362304D01*
X116517Y362219D01*
X116649Y362126D01*
X116892Y361929D01*
X117099Y361723D01*
X117277Y361516D01*
X117352Y361413D01*
X117417Y361329D01*
X117464Y361245D01*
X117511Y361179D01*
X117549Y361123D01*
X117577Y361076D01*
X117586Y361048D01*
X117595Y361038D01*
X117670Y360879D01*
X117745Y360729D01*
X117858Y360420D01*
X117933Y360120D01*
X117961Y359989D01*
X117989Y359857D01*
X118008Y359745D01*
X118027Y359632D01*
X118036Y359539D01*
Y359454D01*
X118045Y359389D01*
Y359136D01*
X118027Y358976D01*
X117980Y358658D01*
X117905Y358367D01*
X117867Y358227D01*
X117830Y358105D01*
X117783Y357992D01*
X117745Y357889D01*
X117708Y357795D01*
X117670Y357720D01*
X117642Y357664D01*
X117624Y357617D01*
X117614Y357589D01*
X117605Y357580D01*
X117427Y357289D01*
X117230Y357036D01*
X117127Y356924D01*
X117033Y356821D01*
X116930Y356727D01*
X116836Y356643D01*
X116742Y356568D01*
X116658Y356502D01*
X116583Y356446D01*
X116527Y356399D01*
X116471Y356362D01*
X116433Y356333D01*
X116405Y356324D01*
X116396Y356315D01*
X116255Y356240D01*
X116105Y356174D01*
X115824Y356062D01*
X115562Y355987D01*
X115327Y355940D01*
X115215Y355921D01*
X115121Y355902D01*
X115037Y355893D01*
X114971D01*
X114906Y355883D01*
X114868D01*
X114840D01*
X114831D01*
X114690Y355893D01*
X114540Y355902D01*
X114268Y355949D01*
X114015Y356024D01*
X113790Y356099D01*
X113687Y356137D01*
X113603Y356174D01*
X113518Y356212D01*
X113453Y356249D01*
X113406Y356277D01*
X113368Y356296D01*
X113340Y356315D01*
X113331D01*
X113078Y356493D01*
X112853Y356689D01*
X112656Y356905D01*
X112497Y357102D01*
X112366Y357289D01*
X112319Y357364D01*
X112272Y357439D01*
X112244Y357496D01*
X112215Y357533D01*
X112206Y357561D01*
X112197Y357571D01*
X112122Y357730D01*
X112066Y357880D01*
X111962Y358189D01*
X111888Y358480D01*
X111859Y358620D01*
X111841Y358751D01*
X111822Y358864D01*
X111803Y358976D01*
X111794Y359070D01*
Y359155D01*
X111784Y359211D01*
Y359305D01*
X111794Y359473D01*
X111803Y359642D01*
X111850Y359961D01*
X111916Y360261D01*
X111953Y360392D01*
X112000Y360514D01*
X112037Y360635D01*
X112075Y360738D01*
X112112Y360823D01*
X112141Y360907D01*
X112169Y360963D01*
X112187Y361010D01*
X112206Y361038D01*
Y361048D01*
X112290Y361198D01*
X112375Y361338D01*
X112469Y361470D01*
X112562Y361601D01*
X112656Y361713D01*
X112750Y361816D01*
X112844Y361901D01*
X112928Y361985D01*
X113012Y362060D01*
X113097Y362126D01*
X113162Y362182D01*
X113218Y362229D01*
X113275Y362257D01*
X113312Y362285D01*
X113331Y362304D01*
X113340D01*
X113471Y362379D01*
X113612Y362444D01*
X113875Y362557D01*
X114118Y362632D01*
X114353Y362679D01*
X114446Y362697D01*
X114540Y362716D01*
X114624Y362725D01*
X114690D01*
X114746Y362735D01*
X114784D01*
X114812D01*
X114821D01*
X114971D01*
X115121Y362716D01*
D02*
G37*
G36*
X113856Y354375D02*
X114034Y354337D01*
X114202Y354271D01*
X114353Y354206D01*
X114474Y354140D01*
X114568Y354075D01*
X114606Y354056D01*
X114634Y354037D01*
X114643Y354018D01*
X114652D01*
X114821Y353868D01*
X114971Y353700D01*
X115093Y353531D01*
X115196Y353362D01*
X115271Y353212D01*
X115299Y353147D01*
X115327Y353091D01*
X115346Y353044D01*
X115365Y353006D01*
X115374Y352987D01*
Y352978D01*
X115412Y352875D01*
X115440Y352753D01*
X115477Y352622D01*
X115505Y352472D01*
X115562Y352172D01*
X115618Y351872D01*
X115646Y351731D01*
X115665Y351591D01*
X115683Y351469D01*
X115702Y351366D01*
X115711Y351272D01*
X115721Y351207D01*
X115730Y351169D01*
Y351150D01*
X115749Y351019D01*
X115768Y350907D01*
X115787Y350794D01*
X115805Y350700D01*
X115824Y350616D01*
X115843Y350541D01*
X115871Y350419D01*
X115899Y350326D01*
X115918Y350269D01*
X115936Y350232D01*
Y350222D01*
X115993Y350138D01*
X116039Y350073D01*
X116086Y350026D01*
X116133Y349997D01*
X116171Y349979D01*
X116199Y349960D01*
X116218D01*
X116227D01*
X116274Y349969D01*
X116321Y349988D01*
X116396Y350063D01*
X116452Y350129D01*
X116461Y350148D01*
X116471Y350157D01*
X116555Y350335D01*
X116621Y350541D01*
X116658Y350738D01*
X116696Y350935D01*
X116714Y351113D01*
Y351188D01*
X116724Y351244D01*
Y351516D01*
X116705Y351656D01*
X116696Y351778D01*
X116677Y351891D01*
X116658Y351984D01*
X116639Y352050D01*
X116630Y352097D01*
X116621Y352116D01*
X116574Y352247D01*
X116527Y352369D01*
X116480Y352491D01*
X116433Y352584D01*
X116386Y352669D01*
X116349Y352734D01*
X116330Y352772D01*
X116321Y352790D01*
X116227Y352819D01*
X116152Y352847D01*
X116086Y352894D01*
X116021Y352931D01*
X115983Y352969D01*
X115946Y352997D01*
X115927Y353016D01*
X115918Y353025D01*
X115871Y353091D01*
X115833Y353165D01*
X115815Y353240D01*
X115796Y353306D01*
X115787Y353362D01*
X115777Y353409D01*
Y353447D01*
X115787Y353568D01*
X115824Y353681D01*
X115871Y353775D01*
X115927Y353850D01*
X115974Y353915D01*
X116021Y353962D01*
X116058Y353990D01*
X116068Y354000D01*
X116143Y354037D01*
X116227Y354065D01*
X116424Y354103D01*
X116517D01*
X116593Y354112D01*
X116639D01*
X116658D01*
X116977D01*
X117146Y354103D01*
X117286Y354084D01*
X117408Y354056D01*
X117502Y354018D01*
X117567Y353981D01*
X117624Y353953D01*
X117652Y353934D01*
X117661Y353925D01*
X117727Y353859D01*
X117783Y353784D01*
X117820Y353700D01*
X117839Y353634D01*
X117858Y353568D01*
X117867Y353522D01*
Y353475D01*
X117858Y353409D01*
X117849Y353344D01*
X117830Y353297D01*
X117820Y353287D01*
Y353278D01*
X117783Y353203D01*
X117736Y353128D01*
X117698Y353072D01*
X117680Y353062D01*
Y353053D01*
X117745Y352903D01*
X117802Y352762D01*
X117849Y352622D01*
X117886Y352500D01*
X117914Y352388D01*
X117933Y352313D01*
X117952Y352256D01*
Y352238D01*
X118008Y351919D01*
X118027Y351778D01*
X118036Y351638D01*
X118045Y351525D01*
Y351357D01*
X118036Y351113D01*
X118017Y350888D01*
X117989Y350672D01*
X117942Y350476D01*
X117895Y350279D01*
X117839Y350110D01*
X117783Y349951D01*
X117717Y349801D01*
X117661Y349669D01*
X117595Y349557D01*
X117539Y349454D01*
X117492Y349379D01*
X117445Y349313D01*
X117417Y349266D01*
X117399Y349238D01*
X117389Y349229D01*
X117296Y349126D01*
X117202Y349032D01*
X117108Y348957D01*
X117005Y348891D01*
X116911Y348835D01*
X116808Y348779D01*
X116621Y348713D01*
X116461Y348667D01*
X116386Y348657D01*
X116330Y348648D01*
X116274Y348638D01*
X116236D01*
X116218D01*
X116208D01*
X116077Y348648D01*
X115955Y348657D01*
X115843Y348685D01*
X115730Y348723D01*
X115533Y348807D01*
X115365Y348910D01*
X115233Y349004D01*
X115177Y349051D01*
X115130Y349088D01*
X115093Y349126D01*
X115065Y349154D01*
X115055Y349163D01*
X115046Y349173D01*
X114962Y349285D01*
X114877Y349416D01*
X114812Y349566D01*
X114746Y349735D01*
X114634Y350082D01*
X114540Y350438D01*
X114512Y350607D01*
X114474Y350766D01*
X114456Y350916D01*
X114437Y351047D01*
X114418Y351150D01*
X114409Y351235D01*
X114399Y351282D01*
Y351300D01*
X114381Y351497D01*
X114353Y351666D01*
X114324Y351825D01*
X114306Y351975D01*
X114277Y352097D01*
X114259Y352219D01*
X114231Y352313D01*
X114212Y352406D01*
X114184Y352481D01*
X114165Y352547D01*
X114156Y352594D01*
X114137Y352641D01*
X114128Y352669D01*
X114118Y352687D01*
X114109Y352706D01*
X114043Y352819D01*
X113968Y352903D01*
X113903Y352969D01*
X113837Y353006D01*
X113781Y353034D01*
X113734Y353044D01*
X113696Y353053D01*
X113687D01*
X113631Y353044D01*
X113575Y353016D01*
X113518Y352978D01*
X113481Y352931D01*
X113443Y352884D01*
X113415Y352847D01*
X113397Y352819D01*
X113387Y352809D01*
X113293Y352603D01*
X113228Y352378D01*
X113172Y352144D01*
X113143Y351919D01*
X113134Y351816D01*
X113125Y351713D01*
X113115Y351628D01*
Y351553D01*
X113106Y351488D01*
Y351403D01*
X113115Y351197D01*
X113125Y351010D01*
X113143Y350841D01*
X113172Y350700D01*
X113200Y350579D01*
X113218Y350494D01*
X113228Y350438D01*
X113237Y350429D01*
Y350419D01*
X113293Y350269D01*
X113350Y350129D01*
X113415Y350007D01*
X113481Y349894D01*
X113537Y349810D01*
X113584Y349744D01*
X113612Y349707D01*
X113621Y349688D01*
X113734Y349651D01*
X113828Y349613D01*
X113903Y349576D01*
X113968Y349529D01*
X114015Y349491D01*
X114043Y349463D01*
X114062Y349445D01*
X114071Y349435D01*
X114118Y349370D01*
X114156Y349304D01*
X114174Y349238D01*
X114193Y349182D01*
X114202Y349126D01*
X114212Y349079D01*
Y349041D01*
X114202Y348938D01*
X114184Y348835D01*
X114146Y348760D01*
X114109Y348685D01*
X114071Y348629D01*
X114034Y348592D01*
X114015Y348563D01*
X114006Y348554D01*
X113921Y348498D01*
X113809Y348451D01*
X113696Y348423D01*
X113584Y348395D01*
X113481Y348385D01*
X113397Y348376D01*
X113340D01*
X113331D01*
X113322D01*
X112881D01*
X112712Y348385D01*
X112572Y348404D01*
X112459Y348432D01*
X112356Y348470D01*
X112290Y348498D01*
X112234Y348526D01*
X112206Y348545D01*
X112197Y348554D01*
X112131Y348629D01*
X112084Y348713D01*
X112047Y348798D01*
X112028Y348873D01*
X112009Y348948D01*
X112000Y349004D01*
Y349051D01*
X112009Y349135D01*
X112019Y349210D01*
X112028Y349257D01*
X112037Y349266D01*
Y349276D01*
X112075Y349360D01*
X112122Y349426D01*
X112159Y349463D01*
X112178Y349482D01*
X112056Y349791D01*
X112000Y349941D01*
X111962Y350082D01*
X111934Y350204D01*
X111906Y350288D01*
X111897Y350326D01*
Y350354D01*
X111888Y350363D01*
Y350372D01*
X111850Y350560D01*
X111831Y350747D01*
X111812Y350925D01*
X111794Y351094D01*
Y351235D01*
X111784Y351291D01*
Y351441D01*
X111794Y351703D01*
X111812Y351947D01*
X111850Y352181D01*
X111888Y352406D01*
X111944Y352612D01*
X112000Y352800D01*
X112066Y352978D01*
X112131Y353137D01*
X112187Y353278D01*
X112253Y353409D01*
X112309Y353512D01*
X112366Y353606D01*
X112403Y353672D01*
X112441Y353728D01*
X112459Y353756D01*
X112469Y353765D01*
X112562Y353878D01*
X112656Y353971D01*
X112759Y354056D01*
X112853Y354131D01*
X112956Y354187D01*
X113059Y354243D01*
X113246Y354318D01*
X113406Y354356D01*
X113481Y354375D01*
X113537Y354384D01*
X113593Y354393D01*
X113631D01*
X113650D01*
X113659D01*
X113856Y354375D01*
D02*
G37*
G36*
X120379Y342321D02*
X118973D01*
Y343896D01*
X120379D01*
Y342321D01*
D02*
G37*
G36*
X112759Y346567D02*
X112853Y346548D01*
X112937Y346511D01*
X113003Y346473D01*
X113059Y346436D01*
X113097Y346398D01*
X113125Y346380D01*
X113134Y346370D01*
X113200Y346277D01*
X113246Y346174D01*
X113275Y346061D01*
X113303Y345939D01*
X113312Y345836D01*
X113322Y345752D01*
Y344074D01*
X117867D01*
Y341684D01*
X117858Y341506D01*
X117839Y341356D01*
X117811Y341234D01*
X117774Y341140D01*
X117736Y341065D01*
X117708Y341009D01*
X117689Y340981D01*
X117680Y340972D01*
X117605Y340906D01*
X117530Y340859D01*
X117455Y340822D01*
X117380Y340803D01*
X117314Y340784D01*
X117258Y340775D01*
X117220D01*
X117211D01*
X117108Y340784D01*
X117005Y340803D01*
X116930Y340840D01*
X116855Y340878D01*
X116799Y340906D01*
X116761Y340944D01*
X116733Y340962D01*
X116724Y340972D01*
X116667Y341065D01*
X116621Y341169D01*
X116593Y341290D01*
X116564Y341403D01*
X116555Y341515D01*
X116546Y341600D01*
Y342752D01*
X113322D01*
Y341159D01*
X113312Y340981D01*
X113293Y340831D01*
X113265Y340709D01*
X113228Y340616D01*
X113190Y340541D01*
X113162Y340484D01*
X113143Y340456D01*
X113134Y340447D01*
X113059Y340381D01*
X112984Y340334D01*
X112909Y340297D01*
X112834Y340278D01*
X112768Y340259D01*
X112712Y340250D01*
X112675D01*
X112665D01*
X112562Y340259D01*
X112459Y340278D01*
X112384Y340316D01*
X112309Y340353D01*
X112253Y340381D01*
X112215Y340419D01*
X112187Y340437D01*
X112178Y340447D01*
X112122Y340541D01*
X112075Y340644D01*
X112047Y340765D01*
X112019Y340878D01*
X112009Y340990D01*
X112000Y341075D01*
Y345667D01*
X112009Y345836D01*
X112028Y345986D01*
X112056Y346108D01*
X112094Y346202D01*
X112122Y346277D01*
X112150Y346333D01*
X112169Y346361D01*
X112178Y346370D01*
X112253Y346436D01*
X112328Y346492D01*
X112412Y346530D01*
X112487Y346548D01*
X112553Y346567D01*
X112609Y346576D01*
X112647D01*
X112656D01*
X112759Y346567D01*
D02*
G37*
G36*
X141663Y423598D02*
X142038Y423561D01*
X142394Y423495D01*
X142722Y423401D01*
X143022Y423298D01*
X143303Y423186D01*
X143557Y423064D01*
X143791Y422942D01*
X143997Y422811D01*
X144175Y422689D01*
X144325Y422577D01*
X144456Y422474D01*
X144550Y422380D01*
X144625Y422314D01*
X144663Y422277D01*
X144681Y422258D01*
X144869Y422042D01*
X145028Y421818D01*
X145169Y421583D01*
X145290Y421358D01*
X145394Y421124D01*
X145478Y420899D01*
X145544Y420683D01*
X145600Y420477D01*
X145647Y420280D01*
X145675Y420102D01*
X145703Y419943D01*
X145712Y419802D01*
X145722Y419690D01*
X145731Y419615D01*
Y417000D01*
X136255D01*
Y419559D01*
X136265Y419849D01*
X136302Y420130D01*
X136358Y420402D01*
X136424Y420655D01*
X136508Y420890D01*
X136602Y421115D01*
X136705Y421311D01*
X136808Y421499D01*
X136902Y421668D01*
X137005Y421818D01*
X137099Y421949D01*
X137183Y422052D01*
X137249Y422136D01*
X137305Y422202D01*
X137343Y422239D01*
X137352Y422249D01*
X137614Y422492D01*
X137905Y422699D01*
X138214Y422886D01*
X138533Y423036D01*
X138861Y423176D01*
X139189Y423280D01*
X139508Y423373D01*
X139817Y423448D01*
X140117Y423505D01*
X140389Y423542D01*
X140632Y423579D01*
X140745Y423589D01*
X140848Y423598D01*
X140942Y423608D01*
X141026D01*
X141101D01*
X141157Y423617D01*
X141204D01*
X141242D01*
X141260D01*
X141270D01*
X141663Y423598D01*
D02*
G37*
G36*
X111273Y423280D02*
X111526Y423242D01*
X111761Y423195D01*
X111976Y423120D01*
X112173Y423045D01*
X112342Y422952D01*
X112492Y422858D01*
X112623Y422755D01*
X112745Y422652D01*
X112838Y422558D01*
X112923Y422464D01*
X112979Y422389D01*
X113035Y422324D01*
X113063Y422267D01*
X113082Y422230D01*
X113092Y422220D01*
X113232Y422389D01*
X113382Y422530D01*
X113541Y422661D01*
X113701Y422764D01*
X113869Y422858D01*
X114029Y422933D01*
X114188Y422998D01*
X114338Y423045D01*
X114488Y423092D01*
X114619Y423120D01*
X114732Y423139D01*
X114844Y423148D01*
X114929Y423158D01*
X114985Y423167D01*
X115032D01*
X115041D01*
X115266Y423158D01*
X115482Y423130D01*
X115678Y423092D01*
X115866Y423045D01*
X116044Y422980D01*
X116203Y422914D01*
X116353Y422839D01*
X116484Y422764D01*
X116606Y422689D01*
X116709Y422614D01*
X116803Y422549D01*
X116878Y422483D01*
X116934Y422436D01*
X116972Y422399D01*
X117000Y422370D01*
X117009Y422361D01*
X117141Y422202D01*
X117253Y422033D01*
X117356Y421846D01*
X117441Y421668D01*
X117506Y421480D01*
X117572Y421293D01*
X117619Y421115D01*
X117656Y420937D01*
X117684Y420768D01*
X117712Y420618D01*
X117731Y420487D01*
X117740Y420365D01*
X117750Y420262D01*
Y417000D01*
X108255D01*
Y420252D01*
X108265Y420524D01*
X108283Y420787D01*
X108321Y421030D01*
X108377Y421255D01*
X108433Y421461D01*
X108508Y421658D01*
X108593Y421846D01*
X108686Y422005D01*
X108780Y422164D01*
X108893Y422305D01*
X109005Y422427D01*
X109118Y422549D01*
X109239Y422652D01*
X109371Y422745D01*
X109493Y422830D01*
X109624Y422914D01*
X109877Y423036D01*
X110130Y423130D01*
X110355Y423195D01*
X110561Y423242D01*
X110655Y423261D01*
X110739Y423270D01*
X110814Y423280D01*
X110870D01*
X110927Y423289D01*
X110964D01*
X110983D01*
X110992D01*
X111273Y423280D01*
D02*
G37*
%LPC*%
G36*
X87880Y443553D02*
X87817D01*
X87780D01*
X87767D01*
X87593Y443540D01*
X87430Y443527D01*
X87118Y443440D01*
X86855Y443328D01*
X86630Y443203D01*
X86443Y443078D01*
X86368Y443015D01*
X86305Y442965D01*
X86255Y442915D01*
X86218Y442878D01*
X86205Y442865D01*
X86193Y442853D01*
X86080Y442715D01*
X85993Y442565D01*
X85906Y442415D01*
X85830Y442253D01*
X85718Y441928D01*
X85643Y441615D01*
X85618Y441466D01*
X85606Y441341D01*
X85593Y441216D01*
X85581Y441116D01*
X85568Y441028D01*
Y440903D01*
X85581Y440678D01*
X85593Y440466D01*
X85631Y440266D01*
X85668Y440078D01*
X85718Y439903D01*
X85768Y439741D01*
X85818Y439591D01*
X85880Y439466D01*
X85943Y439354D01*
X85993Y439254D01*
X86043Y439166D01*
X86093Y439091D01*
X86130Y439041D01*
X86168Y439004D01*
X86180Y438979D01*
X86193Y438966D01*
X86318Y438841D01*
X86443Y438741D01*
X86568Y438654D01*
X86705Y438566D01*
X86980Y438441D01*
X87230Y438366D01*
X87455Y438316D01*
X87543Y438304D01*
X87630Y438291D01*
X87705Y438279D01*
X87755D01*
X87780D01*
X87793D01*
X87992Y438291D01*
X88180Y438316D01*
X88367Y438354D01*
X88530Y438404D01*
X88842Y438516D01*
X88992Y438591D01*
X89117Y438666D01*
X89230Y438729D01*
X89330Y438804D01*
X89417Y438866D01*
X89492Y438929D01*
X89555Y438966D01*
X89592Y439004D01*
X89617Y439029D01*
X89629Y439041D01*
X89767Y439191D01*
X89880Y439341D01*
X89979Y439491D01*
X90067Y439654D01*
X90142Y439816D01*
X90204Y439966D01*
X90292Y440253D01*
X90329Y440391D01*
X90354Y440516D01*
X90367Y440628D01*
X90379Y440716D01*
X90392Y440803D01*
Y440903D01*
X90379Y441103D01*
X90354Y441303D01*
X90317Y441491D01*
X90279Y441665D01*
X90154Y441990D01*
X90079Y442128D01*
X90017Y442253D01*
X89942Y442378D01*
X89867Y442478D01*
X89804Y442565D01*
X89754Y442640D01*
X89705Y442703D01*
X89667Y442740D01*
X89642Y442765D01*
X89629Y442778D01*
X89480Y442915D01*
X89330Y443028D01*
X89180Y443140D01*
X89017Y443228D01*
X88855Y443303D01*
X88705Y443365D01*
X88417Y443453D01*
X88280Y443490D01*
X88155Y443515D01*
X88042Y443527D01*
X87955Y443540D01*
X87880Y443553D01*
D02*
G37*
G36*
X71932Y443984D02*
X71919D01*
Y438760D01*
X72182Y438923D01*
X72419Y439097D01*
X72619Y439272D01*
X72769Y439447D01*
X72894Y439597D01*
X72981Y439710D01*
X73019Y439760D01*
X73044Y439797D01*
X73056Y439810D01*
Y439822D01*
X73181Y440072D01*
X73281Y440335D01*
X73344Y440597D01*
X73394Y440847D01*
X73419Y441059D01*
X73431Y441147D01*
X73444Y441222D01*
Y441372D01*
X73431Y441697D01*
X73381Y441997D01*
X73319Y442259D01*
X73256Y442484D01*
X73181Y442672D01*
X73144Y442747D01*
X73119Y442809D01*
X73094Y442859D01*
X73069Y442896D01*
X73056Y442909D01*
Y442921D01*
X72906Y443159D01*
X72719Y443359D01*
X72531Y443546D01*
X72344Y443696D01*
X72182Y443821D01*
X72044Y443909D01*
X71994Y443946D01*
X71957Y443971D01*
X71932Y443984D01*
D02*
G37*
G36*
X58932Y426776D02*
Y423926D01*
X62432Y425351D01*
X58932Y426776D01*
D02*
G37*
G36*
X87255Y421696D02*
X86493D01*
X86343Y421446D01*
X86205Y421196D01*
X86093Y420958D01*
X85993Y420733D01*
X85918Y420533D01*
X85893Y420458D01*
X85868Y420383D01*
X85843Y420321D01*
X85830Y420284D01*
X85818Y420258D01*
Y420246D01*
X85730Y419959D01*
X85668Y419684D01*
X85631Y419446D01*
X85606Y419234D01*
X85581Y419059D01*
X85568Y418921D01*
Y418809D01*
X85581Y418546D01*
X85606Y418309D01*
X85656Y418109D01*
X85705Y417934D01*
X85756Y417797D01*
X85806Y417697D01*
X85830Y417647D01*
X85843Y417622D01*
X85906Y417547D01*
X85981Y417497D01*
X86043Y417447D01*
X86105Y417422D01*
X86168Y417409D01*
X86218Y417397D01*
X86243D01*
X86255D01*
X86380Y417422D01*
X86505Y417472D01*
X86618Y417547D01*
X86718Y417634D01*
X86805Y417722D01*
X86868Y417797D01*
X86918Y417847D01*
X86930Y417872D01*
X87030Y418022D01*
X87105Y418172D01*
X87243Y418484D01*
X87343Y418796D01*
X87405Y419096D01*
X87418Y419221D01*
X87443Y419346D01*
X87455Y419459D01*
Y419546D01*
X87468Y419634D01*
Y419734D01*
X87455Y420071D01*
X87430Y420421D01*
X87405Y420746D01*
X87368Y421058D01*
X87343Y421183D01*
X87318Y421308D01*
X87305Y421421D01*
X87293Y421521D01*
X87280Y421596D01*
X87268Y421646D01*
X87255Y421683D01*
Y421696D01*
D02*
G37*
G36*
X70982Y412579D02*
X70932D01*
X70907D01*
X70894D01*
X70744Y412567D01*
X70582Y412542D01*
X70444Y412504D01*
X70294Y412454D01*
X70032Y412317D01*
X69795Y412179D01*
X69607Y412029D01*
X69532Y411954D01*
X69457Y411892D01*
X69407Y411842D01*
X69370Y411804D01*
X69345Y411779D01*
X69332Y411767D01*
X69207Y411617D01*
X69095Y411442D01*
X69007Y411279D01*
X68920Y411117D01*
X68857Y410942D01*
X68795Y410780D01*
X68707Y410467D01*
X68682Y410317D01*
X68657Y410192D01*
X68645Y410067D01*
X68632Y409967D01*
X68620Y409880D01*
Y409767D01*
X68632Y409555D01*
X68645Y409342D01*
X68682Y409143D01*
X68732Y408955D01*
X68782Y408780D01*
X68845Y408618D01*
X68907Y408468D01*
X68982Y408318D01*
X69045Y408193D01*
X69107Y408093D01*
X69170Y407993D01*
X69220Y407918D01*
X69270Y407855D01*
X69307Y407805D01*
X69320Y407780D01*
X69332Y407768D01*
X69470Y407631D01*
X69607Y407505D01*
X69745Y407393D01*
X69882Y407306D01*
X70007Y407231D01*
X70145Y407168D01*
X70382Y407068D01*
X70582Y407006D01*
X70669Y406993D01*
X70744Y406981D01*
X70807Y406968D01*
X70844D01*
X70869D01*
X70882D01*
X71069Y406981D01*
X71244Y407006D01*
X71419Y407043D01*
X71594Y407093D01*
X71894Y407218D01*
X72157Y407368D01*
X72269Y407443D01*
X72369Y407518D01*
X72456Y407580D01*
X72531Y407643D01*
X72594Y407693D01*
X72631Y407730D01*
X72656Y407755D01*
X72669Y407768D01*
X72806Y407918D01*
X72919Y408080D01*
X73031Y408255D01*
X73119Y408418D01*
X73194Y408593D01*
X73256Y408755D01*
X73344Y409068D01*
X73381Y409218D01*
X73406Y409342D01*
X73419Y409468D01*
X73431Y409567D01*
X73444Y409655D01*
Y409767D01*
X73431Y410017D01*
X73406Y410255D01*
X73356Y410480D01*
X73294Y410692D01*
X73219Y410880D01*
X73131Y411067D01*
X73044Y411230D01*
X72956Y411380D01*
X72869Y411517D01*
X72781Y411629D01*
X72694Y411729D01*
X72619Y411817D01*
X72556Y411879D01*
X72506Y411929D01*
X72481Y411954D01*
X72469Y411967D01*
X72332Y412079D01*
X72194Y412167D01*
X72056Y412254D01*
X71919Y412317D01*
X71657Y412429D01*
X71419Y412504D01*
X71207Y412542D01*
X71119Y412567D01*
X71044D01*
X70982Y412579D01*
D02*
G37*
G36*
X87930Y412336D02*
X87880D01*
X87855D01*
X87843D01*
X87692Y412323D01*
X87530Y412298D01*
X87393Y412261D01*
X87243Y412211D01*
X86980Y412073D01*
X86743Y411936D01*
X86555Y411786D01*
X86480Y411711D01*
X86405Y411648D01*
X86355Y411598D01*
X86318Y411561D01*
X86293Y411536D01*
X86280Y411523D01*
X86155Y411373D01*
X86043Y411198D01*
X85955Y411036D01*
X85868Y410873D01*
X85806Y410698D01*
X85743Y410536D01*
X85656Y410224D01*
X85631Y410074D01*
X85606Y409949D01*
X85593Y409824D01*
X85581Y409724D01*
X85568Y409636D01*
Y409524D01*
X85581Y409311D01*
X85593Y409099D01*
X85631Y408899D01*
X85681Y408712D01*
X85730Y408536D01*
X85793Y408374D01*
X85856Y408224D01*
X85931Y408074D01*
X85993Y407949D01*
X86055Y407849D01*
X86118Y407749D01*
X86168Y407674D01*
X86218Y407612D01*
X86255Y407562D01*
X86268Y407537D01*
X86280Y407524D01*
X86418Y407387D01*
X86555Y407262D01*
X86693Y407149D01*
X86830Y407062D01*
X86955Y406987D01*
X87093Y406924D01*
X87330Y406824D01*
X87530Y406762D01*
X87618Y406749D01*
X87692Y406737D01*
X87755Y406725D01*
X87793D01*
X87817D01*
X87830D01*
X88018Y406737D01*
X88192Y406762D01*
X88367Y406799D01*
X88542Y406849D01*
X88842Y406974D01*
X89105Y407124D01*
X89217Y407199D01*
X89317Y407274D01*
X89405Y407337D01*
X89480Y407399D01*
X89542Y407449D01*
X89580Y407487D01*
X89605Y407512D01*
X89617Y407524D01*
X89754Y407674D01*
X89867Y407837D01*
X89979Y408012D01*
X90067Y408174D01*
X90142Y408349D01*
X90204Y408512D01*
X90292Y408824D01*
X90329Y408974D01*
X90354Y409099D01*
X90367Y409224D01*
X90379Y409324D01*
X90392Y409411D01*
Y409524D01*
X90379Y409774D01*
X90354Y410011D01*
X90304Y410236D01*
X90242Y410448D01*
X90167Y410636D01*
X90079Y410823D01*
X89992Y410986D01*
X89904Y411136D01*
X89817Y411273D01*
X89729Y411386D01*
X89642Y411486D01*
X89567Y411573D01*
X89505Y411636D01*
X89455Y411686D01*
X89430Y411711D01*
X89417Y411723D01*
X89280Y411836D01*
X89142Y411923D01*
X89005Y412011D01*
X88867Y412073D01*
X88605Y412186D01*
X88367Y412261D01*
X88155Y412298D01*
X88067Y412323D01*
X87992D01*
X87930Y412336D01*
D02*
G37*
G36*
X87880Y401976D02*
X87817D01*
X87780D01*
X87767D01*
X87593Y401963D01*
X87430Y401951D01*
X87118Y401863D01*
X86855Y401751D01*
X86630Y401626D01*
X86443Y401501D01*
X86368Y401438D01*
X86305Y401388D01*
X86255Y401338D01*
X86218Y401301D01*
X86205Y401288D01*
X86193Y401276D01*
X86080Y401138D01*
X85993Y401001D01*
X85906Y400839D01*
X85830Y400676D01*
X85718Y400364D01*
X85643Y400039D01*
X85618Y399901D01*
X85606Y399764D01*
X85593Y399639D01*
X85581Y399539D01*
X85568Y399451D01*
Y399326D01*
X85581Y399101D01*
X85593Y398889D01*
X85631Y398689D01*
X85668Y398502D01*
X85718Y398327D01*
X85768Y398164D01*
X85818Y398014D01*
X85880Y397889D01*
X85943Y397777D01*
X85993Y397677D01*
X86043Y397589D01*
X86093Y397514D01*
X86130Y397464D01*
X86168Y397427D01*
X86180Y397402D01*
X86193Y397389D01*
X86318Y397264D01*
X86443Y397164D01*
X86568Y397077D01*
X86705Y396990D01*
X86980Y396865D01*
X87230Y396790D01*
X87455Y396740D01*
X87543Y396727D01*
X87630Y396715D01*
X87705Y396702D01*
X87755D01*
X87780D01*
X87793D01*
X87992Y396715D01*
X88180Y396740D01*
X88367Y396777D01*
X88530Y396827D01*
X88842Y396940D01*
X88992Y397014D01*
X89117Y397089D01*
X89230Y397152D01*
X89330Y397227D01*
X89417Y397289D01*
X89492Y397352D01*
X89555Y397389D01*
X89592Y397427D01*
X89617Y397452D01*
X89629Y397464D01*
X89767Y397614D01*
X89880Y397764D01*
X89979Y397914D01*
X90067Y398077D01*
X90142Y398239D01*
X90204Y398389D01*
X90292Y398676D01*
X90329Y398814D01*
X90354Y398939D01*
X90367Y399051D01*
X90379Y399139D01*
X90392Y399226D01*
Y399326D01*
X90379Y399526D01*
X90354Y399726D01*
X90317Y399914D01*
X90279Y400089D01*
X90154Y400414D01*
X90079Y400551D01*
X90017Y400676D01*
X89942Y400801D01*
X89867Y400901D01*
X89804Y400988D01*
X89754Y401063D01*
X89705Y401126D01*
X89667Y401163D01*
X89642Y401188D01*
X89629Y401201D01*
X89480Y401338D01*
X89330Y401451D01*
X89180Y401563D01*
X89017Y401651D01*
X88855Y401726D01*
X88705Y401788D01*
X88417Y401876D01*
X88280Y401913D01*
X88155Y401938D01*
X88042Y401951D01*
X87955Y401963D01*
X87880Y401976D01*
D02*
G37*
G36*
X59107Y396071D02*
X59095D01*
Y390847D01*
X59357Y391010D01*
X59595Y391185D01*
X59795Y391360D01*
X59945Y391535D01*
X60070Y391685D01*
X60157Y391797D01*
X60195Y391847D01*
X60220Y391884D01*
X60232Y391897D01*
Y391909D01*
X60357Y392159D01*
X60457Y392422D01*
X60519Y392684D01*
X60570Y392934D01*
X60595Y393147D01*
X60607Y393234D01*
X60620Y393309D01*
Y393459D01*
X60607Y393784D01*
X60557Y394084D01*
X60494Y394346D01*
X60432Y394571D01*
X60357Y394759D01*
X60320Y394834D01*
X60295Y394896D01*
X60270Y394946D01*
X60245Y394984D01*
X60232Y394996D01*
Y395009D01*
X60082Y395246D01*
X59895Y395446D01*
X59707Y395634D01*
X59520Y395784D01*
X59357Y395909D01*
X59220Y395996D01*
X59170Y396033D01*
X59132Y396058D01*
X59107Y396071D01*
D02*
G37*
G36*
X61657Y385311D02*
X61632D01*
X61507Y385299D01*
X61382Y385261D01*
X61269Y385224D01*
X61157Y385174D01*
X61069Y385111D01*
X61007Y385074D01*
X60957Y385036D01*
X60944Y385024D01*
X60882Y384961D01*
X60819Y384899D01*
X60707Y384736D01*
X60595Y384561D01*
X60494Y384374D01*
X60407Y384212D01*
X60345Y384074D01*
X60332Y384011D01*
X60307Y383974D01*
X60295Y383949D01*
Y383937D01*
X60220Y383712D01*
X60170Y383474D01*
X60120Y383237D01*
X60095Y383037D01*
X60082Y382849D01*
X60070Y382699D01*
Y381200D01*
X63006D01*
X62994Y383212D01*
X62981Y383574D01*
X62931Y383887D01*
X62856Y384161D01*
X62781Y384374D01*
X62694Y384549D01*
X62632Y384674D01*
X62582Y384749D01*
X62557Y384774D01*
X62481Y384874D01*
X62394Y384949D01*
X62232Y385086D01*
X62082Y385186D01*
X61932Y385249D01*
X61807Y385286D01*
X61719Y385299D01*
X61657Y385311D01*
D02*
G37*
G36*
X88880Y380231D02*
X88867D01*
Y375008D01*
X89130Y375170D01*
X89367Y375345D01*
X89567Y375520D01*
X89717Y375695D01*
X89842Y375845D01*
X89930Y375957D01*
X89967Y376007D01*
X89992Y376045D01*
X90004Y376057D01*
Y376070D01*
X90129Y376320D01*
X90229Y376582D01*
X90292Y376845D01*
X90342Y377094D01*
X90367Y377307D01*
X90379Y377394D01*
X90392Y377469D01*
Y377619D01*
X90379Y377944D01*
X90329Y378244D01*
X90267Y378507D01*
X90204Y378732D01*
X90129Y378919D01*
X90092Y378994D01*
X90067Y379057D01*
X90042Y379106D01*
X90017Y379144D01*
X90004Y379156D01*
Y379169D01*
X89854Y379407D01*
X89667Y379606D01*
X89480Y379794D01*
X89292Y379944D01*
X89130Y380069D01*
X88992Y380156D01*
X88942Y380194D01*
X88905Y380219D01*
X88880Y380231D01*
D02*
G37*
G36*
X70982Y370240D02*
X70932D01*
X70907D01*
X70894D01*
X70744Y370228D01*
X70582Y370203D01*
X70444Y370165D01*
X70294Y370115D01*
X70032Y369978D01*
X69795Y369840D01*
X69607Y369690D01*
X69532Y369615D01*
X69457Y369553D01*
X69407Y369503D01*
X69370Y369465D01*
X69345Y369440D01*
X69332Y369428D01*
X69207Y369278D01*
X69095Y369103D01*
X69007Y368940D01*
X68920Y368778D01*
X68857Y368603D01*
X68795Y368441D01*
X68707Y368128D01*
X68682Y367978D01*
X68657Y367853D01*
X68645Y367728D01*
X68632Y367628D01*
X68620Y367541D01*
Y367428D01*
X68632Y367216D01*
X68645Y367003D01*
X68682Y366803D01*
X68732Y366616D01*
X68782Y366441D01*
X68845Y366279D01*
X68907Y366129D01*
X68982Y365979D01*
X69045Y365854D01*
X69107Y365754D01*
X69170Y365654D01*
X69220Y365579D01*
X69270Y365516D01*
X69307Y365466D01*
X69320Y365441D01*
X69332Y365429D01*
X69470Y365291D01*
X69607Y365166D01*
X69745Y365054D01*
X69882Y364966D01*
X70007Y364891D01*
X70145Y364829D01*
X70382Y364729D01*
X70582Y364666D01*
X70669Y364654D01*
X70744Y364641D01*
X70807Y364629D01*
X70844D01*
X70869D01*
X70882D01*
X71069Y364641D01*
X71244Y364666D01*
X71419Y364704D01*
X71594Y364754D01*
X71894Y364879D01*
X72157Y365029D01*
X72269Y365104D01*
X72369Y365179D01*
X72456Y365241D01*
X72531Y365304D01*
X72594Y365354D01*
X72631Y365391D01*
X72656Y365416D01*
X72669Y365429D01*
X72806Y365579D01*
X72919Y365741D01*
X73031Y365916D01*
X73119Y366079D01*
X73194Y366254D01*
X73256Y366416D01*
X73344Y366729D01*
X73381Y366878D01*
X73406Y367003D01*
X73419Y367128D01*
X73431Y367228D01*
X73444Y367316D01*
Y367428D01*
X73431Y367678D01*
X73406Y367916D01*
X73356Y368141D01*
X73294Y368353D01*
X73219Y368540D01*
X73131Y368728D01*
X73044Y368890D01*
X72956Y369040D01*
X72869Y369178D01*
X72781Y369290D01*
X72694Y369390D01*
X72619Y369478D01*
X72556Y369540D01*
X72506Y369590D01*
X72481Y369615D01*
X72469Y369628D01*
X72332Y369740D01*
X72194Y369828D01*
X72056Y369915D01*
X71919Y369978D01*
X71657Y370090D01*
X71419Y370165D01*
X71207Y370203D01*
X71119Y370228D01*
X71044D01*
X70982Y370240D01*
D02*
G37*
G36*
X114877Y361413D02*
X114840D01*
X114821D01*
X114812D01*
X114699Y361404D01*
X114577Y361385D01*
X114474Y361357D01*
X114362Y361320D01*
X114165Y361217D01*
X113987Y361113D01*
X113846Y361001D01*
X113790Y360945D01*
X113734Y360898D01*
X113696Y360860D01*
X113668Y360832D01*
X113650Y360813D01*
X113640Y360804D01*
X113546Y360692D01*
X113462Y360560D01*
X113397Y360439D01*
X113331Y360317D01*
X113284Y360186D01*
X113237Y360064D01*
X113172Y359829D01*
X113153Y359717D01*
X113134Y359623D01*
X113125Y359529D01*
X113115Y359454D01*
X113106Y359389D01*
Y359305D01*
X113115Y359145D01*
X113125Y358986D01*
X113153Y358836D01*
X113190Y358695D01*
X113228Y358564D01*
X113275Y358442D01*
X113322Y358330D01*
X113378Y358217D01*
X113425Y358124D01*
X113471Y358049D01*
X113518Y357974D01*
X113556Y357917D01*
X113593Y357870D01*
X113621Y357833D01*
X113631Y357814D01*
X113640Y357805D01*
X113743Y357702D01*
X113846Y357608D01*
X113949Y357524D01*
X114053Y357458D01*
X114146Y357402D01*
X114249Y357355D01*
X114427Y357280D01*
X114577Y357233D01*
X114643Y357224D01*
X114699Y357214D01*
X114746Y357205D01*
X114774D01*
X114793D01*
X114802D01*
X114943Y357214D01*
X115074Y357233D01*
X115205Y357261D01*
X115337Y357299D01*
X115562Y357393D01*
X115758Y357505D01*
X115843Y357561D01*
X115918Y357617D01*
X115983Y357664D01*
X116039Y357711D01*
X116086Y357749D01*
X116115Y357777D01*
X116133Y357795D01*
X116143Y357805D01*
X116246Y357917D01*
X116330Y358039D01*
X116414Y358170D01*
X116480Y358292D01*
X116536Y358424D01*
X116583Y358545D01*
X116649Y358780D01*
X116677Y358892D01*
X116696Y358986D01*
X116705Y359080D01*
X116714Y359155D01*
X116724Y359220D01*
Y359305D01*
X116714Y359492D01*
X116696Y359670D01*
X116658Y359839D01*
X116611Y359998D01*
X116555Y360139D01*
X116489Y360279D01*
X116424Y360401D01*
X116358Y360514D01*
X116293Y360617D01*
X116227Y360701D01*
X116161Y360776D01*
X116105Y360842D01*
X116058Y360888D01*
X116021Y360926D01*
X116002Y360945D01*
X115993Y360954D01*
X115890Y361038D01*
X115787Y361104D01*
X115683Y361170D01*
X115580Y361217D01*
X115384Y361301D01*
X115205Y361357D01*
X115046Y361385D01*
X114980Y361404D01*
X114924D01*
X114877Y361413D01*
D02*
G37*
G36*
X141335Y422239D02*
X141288D01*
X141270D01*
X140932Y422230D01*
X140614Y422202D01*
X140314Y422155D01*
X140033Y422099D01*
X139761Y422024D01*
X139517Y421949D01*
X139301Y421864D01*
X139095Y421780D01*
X138917Y421686D01*
X138758Y421602D01*
X138627Y421527D01*
X138514Y421461D01*
X138420Y421396D01*
X138364Y421349D01*
X138317Y421321D01*
X138308Y421311D01*
X138195Y421180D01*
X138102Y421030D01*
X138017Y420890D01*
X137942Y420740D01*
X137877Y420590D01*
X137830Y420449D01*
X137755Y420168D01*
X137727Y420046D01*
X137708Y419924D01*
X137689Y419821D01*
X137680Y419737D01*
X137671Y419662D01*
Y418378D01*
X144306D01*
Y419540D01*
X144297Y419727D01*
X144278Y419915D01*
X144241Y420093D01*
X144194Y420252D01*
X144138Y420412D01*
X144081Y420562D01*
X144016Y420702D01*
X143950Y420824D01*
X143885Y420937D01*
X143819Y421040D01*
X143763Y421133D01*
X143707Y421208D01*
X143660Y421264D01*
X143622Y421302D01*
X143603Y421330D01*
X143594Y421339D01*
X143435Y421499D01*
X143257Y421639D01*
X143069Y421761D01*
X142882Y421864D01*
X142685Y421949D01*
X142488Y422024D01*
X142301Y422080D01*
X142123Y422127D01*
X141945Y422164D01*
X141785Y422192D01*
X141645Y422211D01*
X141513Y422230D01*
X141410D01*
X141335Y422239D01*
D02*
G37*
G36*
X115116Y421789D02*
X115088D01*
X115069D01*
X115060D01*
X114835Y421771D01*
X114647Y421724D01*
X114479Y421649D01*
X114338Y421555D01*
X114216Y421433D01*
X114113Y421302D01*
X114029Y421171D01*
X113963Y421030D01*
X113907Y420880D01*
X113869Y420749D01*
X113841Y420618D01*
X113823Y420505D01*
X113813Y420402D01*
X113804Y420327D01*
Y418378D01*
X116334D01*
Y420130D01*
X116316Y420402D01*
X116278Y420646D01*
X116231Y420862D01*
X116166Y421030D01*
X116138Y421105D01*
X116100Y421171D01*
X116072Y421227D01*
X116053Y421264D01*
X116025Y421302D01*
X116016Y421330D01*
X115997Y421339D01*
Y421349D01*
X115932Y421424D01*
X115866Y421499D01*
X115716Y421602D01*
X115557Y421686D01*
X115407Y421733D01*
X115266Y421771D01*
X115163Y421780D01*
X115116Y421789D01*
D02*
G37*
G36*
X111058Y421911D02*
X111020D01*
X111002D01*
X110880D01*
X110767Y421893D01*
X110561Y421836D01*
X110383Y421761D01*
X110233Y421649D01*
X110102Y421527D01*
X109999Y421386D01*
X109905Y421236D01*
X109839Y421086D01*
X109783Y420927D01*
X109746Y420777D01*
X109708Y420636D01*
X109689Y420515D01*
X109680Y420402D01*
X109671Y420327D01*
Y418378D01*
X112389D01*
Y420337D01*
X112370Y420487D01*
X112351Y420618D01*
X112332Y420749D01*
X112257Y420983D01*
X112173Y421180D01*
X112070Y421349D01*
X111948Y421489D01*
X111826Y421602D01*
X111695Y421696D01*
X111564Y421771D01*
X111442Y421818D01*
X111320Y421855D01*
X111217Y421883D01*
X111133Y421902D01*
X111058Y421911D01*
D02*
G37*
%LPD*%
D10*
X143500Y437000D02*
G03*
X143500Y437000I-2500J0D01*
G01*
X129500Y434000D02*
G03*
X129500Y434000I-2500J0D01*
G01*
X115500Y437000D02*
G03*
X115500Y437000I-2500J0D01*
G01*
X122750Y366000D02*
X124750D01*
X128750Y360000D02*
Y362000D01*
X132000Y366000D02*
X138000D01*
X132000Y360000D02*
Y366000D01*
X122750Y360000D02*
Y366000D01*
Y360000D02*
X128750D01*
X138000D02*
Y366000D01*
X132000Y360000D02*
X138000D01*
X138000Y341250D02*
Y347250D01*
X132000Y341250D02*
X138000D01*
X132000Y347250D02*
X138000D01*
X132000Y341250D02*
Y347250D01*
X132000Y350750D02*
Y356750D01*
X138000D01*
X132000Y350750D02*
X138000D01*
Y356750D01*
X122750Y341250D02*
Y347250D01*
X128750D01*
X122750Y341250D02*
X128750D01*
Y347250D01*
Y350750D02*
Y356750D01*
X122750Y350750D02*
X128750D01*
X122750Y356750D02*
X128750D01*
X122750Y350750D02*
Y356750D01*
D11*
X127997Y366296D02*
G03*
X109117Y352879I-13997J-296D01*
G01*
X124000Y420000D02*
X130000D01*
X124000Y416000D02*
X130000D01*
X141000Y427000D02*
Y434000D01*
X134000Y414000D02*
Y427000D01*
Y414000D02*
X148000D01*
Y427000D01*
X134000D02*
X148000D01*
X127000Y424000D02*
Y431000D01*
X106000Y427000D02*
X120000D01*
Y414000D02*
Y427000D01*
X106000Y414000D02*
X120000D01*
X106000D02*
Y427000D01*
X113000Y427000D02*
Y434000D01*
X148000Y403000D02*
Y405000D01*
X106000D02*
X148000D01*
X106000Y403000D02*
X148000D01*
X106000D02*
Y405000D01*
D30*
X100498Y202500D02*
D03*
X114498D02*
D03*
X175502Y267500D02*
D03*
X189502D02*
D03*
X228002Y290000D02*
D03*
X242002D02*
D03*
X280102Y460000D02*
D03*
X294102D02*
D03*
X329102D02*
D03*
X315102D02*
D03*
X185503Y230000D02*
D03*
X199503D02*
D03*
X341002Y35000D02*
D03*
X355002D02*
D03*
X199500Y217500D02*
D03*
X185500D02*
D03*
X185503Y205000D02*
D03*
X199503D02*
D03*
D31*
X143000Y147000D02*
D03*
Y163000D02*
D03*
X187500Y305500D02*
D03*
Y289500D02*
D03*
D32*
X110000Y110498D02*
D03*
Y124498D02*
D03*
X87500Y110498D02*
D03*
Y124498D02*
D03*
X52500Y49502D02*
D03*
Y35502D02*
D03*
X160973Y56898D02*
D03*
Y42898D02*
D03*
X126000Y175998D02*
D03*
Y189998D02*
D03*
X143000Y175998D02*
D03*
Y189998D02*
D03*
X205000Y271998D02*
D03*
Y257998D02*
D03*
X265000Y264500D02*
D03*
Y250500D02*
D03*
X270000Y221998D02*
D03*
Y207998D02*
D03*
X255000Y229498D02*
D03*
Y215498D02*
D03*
X245751Y305751D02*
D03*
Y319751D02*
D03*
X260751Y305252D02*
D03*
Y319252D02*
D03*
X280000Y303002D02*
D03*
Y317002D02*
D03*
X305000Y336998D02*
D03*
Y322998D02*
D03*
X329600Y432998D02*
D03*
Y446998D02*
D03*
X302500Y433002D02*
D03*
Y447002D02*
D03*
X187500Y110498D02*
D03*
Y124498D02*
D03*
X212500D02*
D03*
Y110498D02*
D03*
X172500Y305502D02*
D03*
Y319502D02*
D03*
X200000Y29498D02*
D03*
Y15498D02*
D03*
X225000Y29498D02*
D03*
Y15498D02*
D03*
X283500Y88802D02*
D03*
Y102802D02*
D03*
D36*
X270500Y337125D02*
D03*
X289500D02*
D03*
X296600Y474625D02*
D03*
X277600D02*
D03*
X331600D02*
D03*
X312600D02*
D03*
X302000Y172125D02*
D03*
X283000D02*
D03*
X318000Y192875D02*
D03*
X337000D02*
D03*
D37*
X280000Y357875D02*
D03*
X287100Y495375D02*
D03*
X322100D02*
D03*
X292500Y192875D02*
D03*
X327500Y172125D02*
D03*
D43*
X137000Y91600D02*
D03*
X111600D02*
D03*
X162400D02*
D03*
X187800D02*
D03*
X213200D02*
D03*
D44*
X86200D02*
D03*
D45*
X175000Y471000D02*
D03*
X365600Y523400D02*
D03*
X35400Y269400D02*
D03*
Y218600D02*
D03*
Y294800D02*
D03*
Y244000D02*
D03*
Y320200D02*
D03*
Y421800D02*
D03*
X365600Y218600D02*
D03*
X35400Y447200D02*
D03*
X365600Y498000D02*
D03*
Y193200D02*
D03*
Y472600D02*
D03*
X35400Y167800D02*
D03*
X365600Y447200D02*
D03*
X35400Y193200D02*
D03*
X365600Y421800D02*
D03*
X35400Y345600D02*
D03*
X365600Y167800D02*
D03*
Y396400D02*
D03*
X35400Y142400D02*
D03*
X365600Y371000D02*
D03*
Y345600D02*
D03*
X35400Y472600D02*
D03*
X365600Y320200D02*
D03*
X35400Y498000D02*
D03*
X365600Y294800D02*
D03*
X35400Y523400D02*
D03*
X365600Y269400D02*
D03*
X35400Y548800D02*
D03*
X365600Y244000D02*
D03*
X35400Y371000D02*
D03*
X365600Y548800D02*
D03*
X35400Y396400D02*
D03*
X365600Y117000D02*
D03*
Y66200D02*
D03*
Y91600D02*
D03*
D46*
X289400Y548800D02*
D03*
X314800Y523400D02*
D03*
X289400D02*
D03*
X162400D02*
D03*
X137000D02*
D03*
X111600D02*
D03*
X86200D02*
D03*
X187800Y548800D02*
D03*
X238600D02*
D03*
X213200D02*
D03*
X162400D02*
D03*
X111600D02*
D03*
X137000D02*
D03*
X238600Y523400D02*
D03*
X264000D02*
D03*
X86200Y548800D02*
D03*
X187800Y523400D02*
D03*
X264000Y548800D02*
D03*
X213200Y523400D02*
D03*
X314800Y548800D02*
D03*
D47*
X309000Y45950D02*
D03*
X264500D02*
D03*
D48*
X380000Y20000D02*
D03*
X20000D02*
D03*
D74*
X52500Y96000D02*
D03*
Y69000D02*
D03*
X178473Y43150D02*
D03*
Y70150D02*
D03*
X199475Y43150D02*
D03*
Y70150D02*
D03*
D75*
X245998Y273001D02*
D03*
Y256999D02*
D03*
X224002Y273001D02*
D03*
Y256999D02*
D03*
D76*
X201000Y437500D02*
D03*
X205300Y377500D02*
D03*
X279000D02*
D03*
Y437500D02*
D03*
D77*
X218024Y43900D02*
D03*
X234024D02*
D03*
D78*
X137473Y71900D02*
D03*
Y48900D02*
D03*
Y25900D02*
D03*
D79*
X79473Y48900D02*
D03*
D80*
X100950Y274500D02*
D03*
X113650D02*
D03*
X126350D02*
D03*
X139050D02*
D03*
X100950Y225500D02*
D03*
X113650D02*
D03*
X126350D02*
D03*
X139050D02*
D03*
D81*
X245000Y15400D02*
D03*
X328500D02*
D03*
M02*
