G04*
G04 #@! TF.GenerationSoftware,Altium Limited,Altium Designer,18.1.9 (240)*
G04*
G04 Layer_Color=16711935*
%FSLAX44Y44*%
%MOMM*%
G71*
G01*
G75*
%ADD10C,0.2000*%
%ADD11C,0.2500*%
%ADD30R,0.9000X1.0000*%
%ADD31R,1.4000X1.1000*%
%ADD32R,1.0000X0.9000*%
%ADD36R,0.7500X1.0000*%
%ADD37R,0.7500X1.2000*%
%ADD43C,1.7500*%
%ADD44R,1.7500X1.7500*%
%ADD45C,1.9000*%
%ADD46O,1.8000X2.1000*%
%ADD47O,1.1500X1.3500*%
%ADD48C,4.1000*%
%ADD74R,1.8000X1.2000*%
%ADD75R,1.4995X1.2498*%
%ADD76R,2.1000X1.3000*%
%ADD77R,1.1000X1.4000*%
%ADD78R,2.5000X1.1000*%
%ADD79R,2.5000X3.4000*%
%ADD80O,0.8000X2.6000*%
%ADD81O,1.5000X2.2000*%
G36*
X73838Y456860D02*
X73991Y456805D01*
X74143Y456708D01*
X74282Y456610D01*
X74393Y456513D01*
X74476Y456416D01*
X74532Y456361D01*
X74546Y456333D01*
X74657Y456181D01*
X74754Y456028D01*
X74920Y455723D01*
X75031Y455446D01*
X75100Y455182D01*
X75156Y454974D01*
X75170Y454877D01*
Y454808D01*
X75184Y454738D01*
Y454655D01*
X75170Y454447D01*
X75142Y454239D01*
X75100Y454031D01*
X75045Y453851D01*
X74989Y453698D01*
X74948Y453573D01*
X74920Y453490D01*
X74906Y453476D01*
Y453462D01*
X74781Y453199D01*
X74629Y452921D01*
X74462Y452630D01*
X74282Y452353D01*
X74116Y452103D01*
X74046Y451992D01*
X73977Y451895D01*
X73921Y451826D01*
X73894Y451771D01*
X73866Y451729D01*
X73852Y451715D01*
X74962D01*
Y449316D01*
X74948Y449080D01*
X74920Y448886D01*
X74879Y448719D01*
X74837Y448595D01*
X74795Y448498D01*
X74754Y448428D01*
X74726Y448387D01*
X74712Y448373D01*
X74615Y448289D01*
X74518Y448220D01*
X74407Y448179D01*
X74310Y448137D01*
X74227Y448123D01*
X74157Y448109D01*
X74102D01*
X74088D01*
X73949Y448123D01*
X73811Y448151D01*
X73700Y448192D01*
X73616Y448248D01*
X73533Y448289D01*
X73478Y448331D01*
X73450Y448359D01*
X73436Y448373D01*
X73353Y448498D01*
X73298Y448636D01*
X73256Y448789D01*
X73228Y448955D01*
X73214Y449094D01*
X73200Y449205D01*
Y449954D01*
X68901D01*
Y448900D01*
X68887Y448664D01*
X68860Y448470D01*
X68818Y448303D01*
X68776Y448179D01*
X68735Y448082D01*
X68693Y448012D01*
X68665Y447971D01*
X68652Y447957D01*
X68555Y447873D01*
X68457Y447804D01*
X68346Y447762D01*
X68249Y447721D01*
X68166Y447707D01*
X68097Y447693D01*
X68041D01*
X68028D01*
X67889Y447707D01*
X67750Y447735D01*
X67639Y447776D01*
X67556Y447832D01*
X67473Y447873D01*
X67417Y447915D01*
X67389Y447943D01*
X67376Y447957D01*
X67292Y448082D01*
X67237Y448220D01*
X67195Y448373D01*
X67168Y448539D01*
X67154Y448678D01*
X67140Y448789D01*
Y454225D01*
X67154Y454447D01*
X67182Y454641D01*
X67209Y454808D01*
X67265Y454933D01*
X67306Y455029D01*
X67334Y455099D01*
X67362Y455140D01*
X67376Y455154D01*
X67473Y455251D01*
X67570Y455321D01*
X67681Y455362D01*
X67778Y455404D01*
X67875Y455418D01*
X67944Y455432D01*
X68000D01*
X68014D01*
X68152Y455418D01*
X68277Y455390D01*
X68388Y455349D01*
X68485Y455293D01*
X68555Y455238D01*
X68610Y455196D01*
X68638Y455168D01*
X68652Y455154D01*
X68735Y455029D01*
X68790Y454891D01*
X68846Y454738D01*
X68873Y454586D01*
X68887Y454447D01*
X68901Y454336D01*
Y451715D01*
X71550D01*
X71883Y452103D01*
X72160Y452464D01*
X72396Y452783D01*
X72604Y453046D01*
X72687Y453157D01*
X72757Y453254D01*
X72812Y453338D01*
X72867Y453421D01*
X72895Y453476D01*
X72923Y453518D01*
X72951Y453532D01*
Y453546D01*
X73103Y453809D01*
X73228Y454031D01*
X73311Y454225D01*
X73367Y454378D01*
X73394Y454502D01*
X73422Y454586D01*
Y454655D01*
X73408Y454766D01*
X73367Y454877D01*
X73311Y454974D01*
X73256Y455085D01*
X73200Y455168D01*
X73145Y455238D01*
X73103Y455279D01*
X73089Y455293D01*
X72979Y455432D01*
X72909Y455556D01*
X72854Y455667D01*
X72812Y455778D01*
X72784Y455862D01*
X72771Y455931D01*
Y455987D01*
X72784Y456125D01*
X72812Y456250D01*
X72854Y456347D01*
X72895Y456444D01*
X72937Y456527D01*
X72979Y456583D01*
X73006Y456610D01*
X73020Y456624D01*
X73131Y456708D01*
X73228Y456777D01*
X73339Y456819D01*
X73450Y456860D01*
X73533Y456874D01*
X73603Y456888D01*
X73658D01*
X73672D01*
X73838Y456860D01*
D02*
G37*
G36*
X85094Y446799D02*
X85219Y446771D01*
X85330Y446729D01*
X85427Y446674D01*
X85496Y446618D01*
X85552Y446577D01*
X85579Y446549D01*
X85593Y446535D01*
X85676Y446410D01*
X85732Y446272D01*
X85787Y446119D01*
X85815Y445966D01*
X85829Y445828D01*
X85843Y445717D01*
Y445301D01*
X95246D01*
Y443234D01*
X95232Y442999D01*
X95204Y442804D01*
X95162Y442638D01*
X95121Y442513D01*
X95079Y442416D01*
X95038Y442347D01*
X95010Y442305D01*
X94996Y442291D01*
X94899Y442208D01*
X94788Y442139D01*
X94691Y442097D01*
X94580Y442056D01*
X94497Y442042D01*
X94427Y442028D01*
X94372D01*
X94358D01*
X94219Y442042D01*
X94094Y442070D01*
X93984Y442111D01*
X93886Y442167D01*
X93817Y442208D01*
X93762Y442250D01*
X93734Y442278D01*
X93720Y442291D01*
X93637Y442416D01*
X93581Y442555D01*
X93540Y442707D01*
X93512Y442874D01*
X93498Y443013D01*
X93484Y443124D01*
Y443540D01*
X91279D01*
X91432Y443290D01*
X91557Y443054D01*
X91654Y442832D01*
X91751Y442638D01*
X91820Y442472D01*
X91862Y442333D01*
X91889Y442250D01*
X91903Y442236D01*
Y442222D01*
X91973Y441972D01*
X92028Y441737D01*
X92070Y441501D01*
X92098Y441307D01*
X92111Y441127D01*
X92125Y440988D01*
Y440877D01*
X92111Y440544D01*
X92070Y440211D01*
X92014Y439906D01*
X91931Y439615D01*
X91834Y439337D01*
X91723Y439074D01*
X91612Y438838D01*
X91487Y438630D01*
X91362Y438436D01*
X91251Y438256D01*
X91141Y438103D01*
X91044Y437978D01*
X90974Y437881D01*
X90905Y437812D01*
X90863Y437770D01*
X90849Y437757D01*
X90614Y437535D01*
X90350Y437340D01*
X90100Y437174D01*
X89837Y437021D01*
X89587Y436911D01*
X89324Y436800D01*
X89088Y436716D01*
X88852Y436647D01*
X88630Y436605D01*
X88436Y436564D01*
X88256Y436536D01*
X88103Y436508D01*
X87979D01*
X87881Y436494D01*
X87826D01*
X87798D01*
X87479Y436508D01*
X87188Y436550D01*
X86897Y436605D01*
X86633Y436689D01*
X86384Y436772D01*
X86148Y436883D01*
X85926Y436980D01*
X85732Y437105D01*
X85552Y437216D01*
X85399Y437327D01*
X85260Y437424D01*
X85149Y437507D01*
X85066Y437590D01*
X84997Y437645D01*
X84955Y437687D01*
X84941Y437701D01*
X84747Y437937D01*
X84567Y438186D01*
X84414Y438450D01*
X84290Y438713D01*
X84179Y438991D01*
X84081Y439254D01*
X84012Y439518D01*
X83943Y439767D01*
X83901Y439989D01*
X83860Y440211D01*
X83846Y440405D01*
X83818Y440572D01*
Y440710D01*
X83804Y440821D01*
Y440905D01*
X83818Y441168D01*
X83832Y441418D01*
X83860Y441640D01*
X83901Y441848D01*
X83929Y442014D01*
X83957Y442153D01*
X83971Y442236D01*
X83984Y442250D01*
Y442264D01*
X84054Y442513D01*
X84137Y442749D01*
X84220Y442957D01*
X84317Y443151D01*
X84387Y443318D01*
X84456Y443429D01*
X84498Y443512D01*
X84511Y443540D01*
X84081D01*
Y445606D01*
X84095Y445828D01*
X84123Y446022D01*
X84151Y446188D01*
X84206Y446313D01*
X84248Y446410D01*
X84276Y446480D01*
X84303Y446521D01*
X84317Y446535D01*
X84414Y446632D01*
X84511Y446702D01*
X84622Y446743D01*
X84719Y446785D01*
X84817Y446799D01*
X84886Y446813D01*
X84941D01*
X84955D01*
X85094Y446799D01*
D02*
G37*
G36*
X68471Y445932D02*
X68582Y445904D01*
X68693Y445863D01*
X68790Y445821D01*
X68860Y445779D01*
X68915Y445738D01*
X68943Y445710D01*
X68957Y445696D01*
X69040Y445599D01*
X69095Y445502D01*
X69151Y445405D01*
X69179Y445308D01*
X69192Y445225D01*
X69206Y445155D01*
Y445100D01*
X69192Y444989D01*
X69179Y444850D01*
X69151Y444698D01*
X69123Y444545D01*
X69082Y444393D01*
X69054Y444282D01*
X69040Y444198D01*
X69026Y444184D01*
Y444171D01*
X68957Y443879D01*
X68887Y443588D01*
X68846Y443325D01*
X68790Y443075D01*
X68749Y442853D01*
X68721Y442631D01*
X68693Y442437D01*
X68679Y442257D01*
X68652Y442104D01*
Y441965D01*
X68638Y441841D01*
X68624Y441744D01*
Y441563D01*
X68638Y441133D01*
X68693Y440759D01*
X68762Y440440D01*
X68790Y440301D01*
X68832Y440163D01*
X68873Y440052D01*
X68915Y439955D01*
X68943Y439857D01*
X68970Y439788D01*
X68998Y439733D01*
X69026Y439691D01*
X69040Y439677D01*
Y439663D01*
X69206Y439414D01*
X69387Y439220D01*
X69581Y439039D01*
X69747Y438914D01*
X69914Y438817D01*
X70038Y438748D01*
X70122Y438706D01*
X70135Y438693D01*
X70149D01*
Y445932D01*
X70884D01*
X71203Y445918D01*
X71495Y445890D01*
X71758Y445849D01*
X71980Y445793D01*
X72160Y445738D01*
X72299Y445696D01*
X72340Y445682D01*
X72382Y445668D01*
X72396Y445654D01*
X72410D01*
X72743Y445502D01*
X73048Y445322D01*
X73311Y445155D01*
X73547Y444989D01*
X73727Y444850D01*
X73866Y444739D01*
X73908Y444684D01*
X73949Y444656D01*
X73963Y444642D01*
X73977Y444628D01*
X74143Y444448D01*
X74296Y444226D01*
X74435Y444004D01*
X74559Y443796D01*
X74657Y443588D01*
X74726Y443436D01*
X74754Y443366D01*
X74781Y443325D01*
X74795Y443297D01*
Y443283D01*
X74920Y442950D01*
X75017Y442603D01*
X75086Y442271D01*
X75142Y441965D01*
X75156Y441827D01*
X75170Y441702D01*
Y441591D01*
X75184Y441494D01*
Y441314D01*
X75170Y440981D01*
X75128Y440662D01*
X75073Y440357D01*
X75003Y440065D01*
X74920Y439788D01*
X74809Y439525D01*
X74712Y439289D01*
X74601Y439067D01*
X74490Y438859D01*
X74393Y438679D01*
X74296Y438526D01*
X74199Y438401D01*
X74130Y438290D01*
X74074Y438221D01*
X74033Y438166D01*
X74019Y438152D01*
X73797Y437916D01*
X73561Y437694D01*
X73311Y437514D01*
X73062Y437361D01*
X72798Y437223D01*
X72549Y437112D01*
X72299Y437028D01*
X72077Y436945D01*
X71855Y436890D01*
X71647Y436848D01*
X71467Y436820D01*
X71300Y436806D01*
X71176Y436793D01*
X71079Y436779D01*
X71023D01*
X70995D01*
X70676Y436793D01*
X70371Y436834D01*
X70080Y436890D01*
X69803Y436973D01*
X69539Y437070D01*
X69303Y437181D01*
X69068Y437292D01*
X68873Y437417D01*
X68693Y437528D01*
X68527Y437639D01*
X68388Y437749D01*
X68263Y437847D01*
X68180Y437930D01*
X68111Y437985D01*
X68069Y438027D01*
X68055Y438041D01*
X67847Y438290D01*
X67667Y438554D01*
X67501Y438831D01*
X67362Y439109D01*
X67251Y439400D01*
X67154Y439677D01*
X67071Y439955D01*
X67015Y440218D01*
X66960Y440468D01*
X66932Y440704D01*
X66904Y440911D01*
X66876Y441092D01*
Y441231D01*
X66863Y441341D01*
Y441438D01*
X66876Y441896D01*
X66904Y442354D01*
X66946Y442784D01*
X66974Y442978D01*
X67001Y443172D01*
X67029Y443352D01*
X67057Y443505D01*
X67071Y443644D01*
X67098Y443768D01*
X67112Y443866D01*
X67126Y443935D01*
X67140Y443976D01*
Y443990D01*
X67195Y444226D01*
X67251Y444448D01*
X67306Y444642D01*
X67362Y444822D01*
X67417Y444975D01*
X67459Y445114D01*
X67514Y445238D01*
X67556Y445336D01*
X67598Y445433D01*
X67639Y445502D01*
X67695Y445613D01*
X67736Y445668D01*
X67750Y445682D01*
X67847Y445765D01*
X67944Y445835D01*
X68041Y445876D01*
X68125Y445918D01*
X68208Y445932D01*
X68277Y445946D01*
X68319D01*
X68333D01*
X68471Y445932D01*
D02*
G37*
G36*
X90780Y435454D02*
X90933Y435399D01*
X91085Y435302D01*
X91224Y435205D01*
X91335Y435108D01*
X91418Y435010D01*
X91473Y434955D01*
X91487Y434927D01*
X91598Y434775D01*
X91695Y434622D01*
X91862Y434317D01*
X91973Y434040D01*
X92042Y433776D01*
X92098Y433568D01*
X92111Y433471D01*
Y433402D01*
X92125Y433332D01*
Y433249D01*
X92111Y433041D01*
X92084Y432833D01*
X92042Y432625D01*
X91987Y432445D01*
X91931Y432292D01*
X91889Y432168D01*
X91862Y432084D01*
X91848Y432070D01*
Y432057D01*
X91723Y431793D01*
X91571Y431516D01*
X91404Y431224D01*
X91224Y430947D01*
X91057Y430697D01*
X90988Y430587D01*
X90919Y430489D01*
X90863Y430420D01*
X90836Y430365D01*
X90808Y430323D01*
X90794Y430309D01*
X91903D01*
Y427910D01*
X91889Y427674D01*
X91862Y427480D01*
X91820Y427313D01*
X91778Y427189D01*
X91737Y427092D01*
X91695Y427022D01*
X91668Y426981D01*
X91654Y426967D01*
X91557Y426884D01*
X91460Y426814D01*
X91349Y426773D01*
X91251Y426731D01*
X91168Y426717D01*
X91099Y426703D01*
X91044D01*
X91030D01*
X90891Y426717D01*
X90752Y426745D01*
X90641Y426786D01*
X90558Y426842D01*
X90475Y426884D01*
X90419Y426925D01*
X90392Y426953D01*
X90378Y426967D01*
X90295Y427092D01*
X90239Y427230D01*
X90197Y427383D01*
X90170Y427549D01*
X90156Y427688D01*
X90142Y427799D01*
Y428548D01*
X85843D01*
Y427494D01*
X85829Y427258D01*
X85801Y427064D01*
X85760Y426898D01*
X85718Y426773D01*
X85676Y426676D01*
X85635Y426606D01*
X85607Y426565D01*
X85593Y426551D01*
X85496Y426468D01*
X85399Y426398D01*
X85288Y426357D01*
X85191Y426315D01*
X85108Y426301D01*
X85038Y426287D01*
X84983D01*
X84969D01*
X84830Y426301D01*
X84692Y426329D01*
X84581Y426371D01*
X84498Y426426D01*
X84414Y426468D01*
X84359Y426509D01*
X84331Y426537D01*
X84317Y426551D01*
X84234Y426676D01*
X84179Y426814D01*
X84137Y426967D01*
X84109Y427133D01*
X84095Y427272D01*
X84081Y427383D01*
Y432819D01*
X84095Y433041D01*
X84123Y433235D01*
X84151Y433402D01*
X84206Y433527D01*
X84248Y433624D01*
X84276Y433693D01*
X84303Y433735D01*
X84317Y433749D01*
X84414Y433846D01*
X84511Y433915D01*
X84622Y433956D01*
X84719Y433998D01*
X84817Y434012D01*
X84886Y434026D01*
X84941D01*
X84955D01*
X85094Y434012D01*
X85219Y433984D01*
X85330Y433943D01*
X85427Y433887D01*
X85496Y433832D01*
X85552Y433790D01*
X85579Y433762D01*
X85593Y433749D01*
X85676Y433624D01*
X85732Y433485D01*
X85787Y433332D01*
X85815Y433180D01*
X85829Y433041D01*
X85843Y432930D01*
Y430309D01*
X88492D01*
X88825Y430697D01*
X89102Y431058D01*
X89338Y431377D01*
X89546Y431641D01*
X89629Y431751D01*
X89698Y431848D01*
X89754Y431932D01*
X89809Y432015D01*
X89837Y432070D01*
X89865Y432112D01*
X89892Y432126D01*
Y432140D01*
X90045Y432403D01*
X90170Y432625D01*
X90253Y432819D01*
X90309Y432972D01*
X90336Y433097D01*
X90364Y433180D01*
Y433249D01*
X90350Y433360D01*
X90309Y433471D01*
X90253Y433568D01*
X90197Y433679D01*
X90142Y433762D01*
X90087Y433832D01*
X90045Y433873D01*
X90031Y433887D01*
X89920Y434026D01*
X89851Y434151D01*
X89795Y434262D01*
X89754Y434373D01*
X89726Y434456D01*
X89712Y434525D01*
Y434581D01*
X89726Y434719D01*
X89754Y434844D01*
X89795Y434941D01*
X89837Y435038D01*
X89879Y435121D01*
X89920Y435177D01*
X89948Y435205D01*
X89962Y435219D01*
X90073Y435302D01*
X90170Y435371D01*
X90281Y435413D01*
X90392Y435454D01*
X90475Y435468D01*
X90544Y435482D01*
X90600D01*
X90614D01*
X90780Y435454D01*
D02*
G37*
G36*
X68152Y435101D02*
X68277Y435073D01*
X68388Y435031D01*
X68485Y434976D01*
X68555Y434920D01*
X68610Y434879D01*
X68638Y434851D01*
X68652Y434837D01*
X68735Y434712D01*
X68790Y434574D01*
X68846Y434421D01*
X68873Y434268D01*
X68887Y434130D01*
X68901Y434019D01*
Y431786D01*
X78304D01*
Y428610D01*
X78290Y428374D01*
X78262Y428180D01*
X78221Y428014D01*
X78179Y427889D01*
X78137Y427792D01*
X78096Y427723D01*
X78068Y427681D01*
X78054Y427667D01*
X77957Y427584D01*
X77860Y427515D01*
X77749Y427473D01*
X77652Y427431D01*
X77569Y427418D01*
X77500Y427404D01*
X77444D01*
X77430D01*
X77292Y427418D01*
X77153Y427445D01*
X77042Y427487D01*
X76959Y427542D01*
X76876Y427584D01*
X76820Y427626D01*
X76792Y427653D01*
X76778Y427667D01*
X76695Y427792D01*
X76640Y427931D01*
X76598Y428083D01*
X76570Y428250D01*
X76557Y428388D01*
X76543Y428499D01*
Y430025D01*
X68901D01*
Y427903D01*
X68887Y427667D01*
X68860Y427473D01*
X68818Y427307D01*
X68776Y427182D01*
X68735Y427085D01*
X68693Y427015D01*
X68665Y426974D01*
X68652Y426960D01*
X68555Y426877D01*
X68457Y426807D01*
X68346Y426766D01*
X68249Y426724D01*
X68166Y426710D01*
X68097Y426696D01*
X68041D01*
X68028D01*
X67889Y426710D01*
X67750Y426738D01*
X67639Y426780D01*
X67556Y426835D01*
X67473Y426877D01*
X67417Y426918D01*
X67389Y426946D01*
X67376Y426960D01*
X67292Y427085D01*
X67237Y427223D01*
X67195Y427376D01*
X67168Y427542D01*
X67154Y427681D01*
X67140Y427792D01*
Y433908D01*
X67154Y434130D01*
X67182Y434324D01*
X67209Y434490D01*
X67265Y434615D01*
X67306Y434712D01*
X67334Y434782D01*
X67362Y434823D01*
X67376Y434837D01*
X67473Y434934D01*
X67570Y435004D01*
X67681Y435045D01*
X67778Y435087D01*
X67875Y435101D01*
X67944Y435115D01*
X68000D01*
X68014D01*
X68152Y435101D01*
D02*
G37*
G36*
X55343Y431030D02*
X55482Y430989D01*
X55607Y430919D01*
X55718Y430864D01*
X55801Y430794D01*
X55870Y430725D01*
X55912Y430684D01*
X55926Y430670D01*
X55981Y430587D01*
X56023Y430462D01*
X56051Y430323D01*
X56079Y430184D01*
Y430060D01*
X56092Y429949D01*
Y429838D01*
X64760Y426315D01*
X64774Y422529D01*
X64760Y422307D01*
X64732Y422113D01*
X64691Y421946D01*
X64649Y421822D01*
X64608Y421725D01*
X64566Y421655D01*
X64538Y421614D01*
X64524Y421600D01*
X64427Y421517D01*
X64330Y421447D01*
X64219Y421406D01*
X64122Y421364D01*
X64025Y421350D01*
X63956Y421336D01*
X63900D01*
X63886D01*
X63748Y421350D01*
X63623Y421378D01*
X63512Y421419D01*
X63415Y421475D01*
X63345Y421517D01*
X63290Y421558D01*
X63262Y421586D01*
X63248Y421600D01*
X63165Y421725D01*
X63110Y421863D01*
X63068Y422016D01*
X63040Y422168D01*
X63026Y422307D01*
X63013Y422418D01*
Y423680D01*
X56092Y420879D01*
X56079Y420657D01*
X56051Y420463D01*
X56009Y420296D01*
X55967Y420171D01*
X55926Y420088D01*
X55884Y420019D01*
X55857Y419977D01*
X55843Y419963D01*
X55746Y419866D01*
X55648Y419797D01*
X55538Y419755D01*
X55441Y419728D01*
X55357Y419700D01*
X55288Y419686D01*
X55233D01*
X55219D01*
X55080Y419700D01*
X54941Y419728D01*
X54830Y419769D01*
X54747Y419825D01*
X54664Y419880D01*
X54608Y419922D01*
X54581Y419949D01*
X54567Y419963D01*
X54484Y420074D01*
X54428Y420213D01*
X54387Y420365D01*
X54359Y420518D01*
X54345Y420657D01*
X54331Y420768D01*
Y423209D01*
X54345Y423444D01*
X54373Y423638D01*
X54400Y423805D01*
X54456Y423930D01*
X54497Y424027D01*
X54525Y424096D01*
X54553Y424138D01*
X54567Y424152D01*
X54664Y424249D01*
X54761Y424318D01*
X54872Y424360D01*
X54969Y424401D01*
X55066Y424415D01*
X55135Y424429D01*
X55191D01*
X55205D01*
X55343Y424415D01*
X55468Y424387D01*
X55579Y424346D01*
X55676Y424290D01*
X55746Y424235D01*
X55801Y424193D01*
X55829Y424165D01*
X55843Y424152D01*
X55926Y424027D01*
X55981Y423888D01*
X56037Y423736D01*
X56065Y423583D01*
X56079Y423430D01*
X56092Y423319D01*
Y422779D01*
X57174Y423222D01*
Y427494D01*
X56092Y427938D01*
Y427508D01*
X56079Y427272D01*
X56051Y427078D01*
X56009Y426911D01*
X55967Y426786D01*
X55926Y426689D01*
X55884Y426620D01*
X55857Y426578D01*
X55843Y426565D01*
X55746Y426481D01*
X55648Y426412D01*
X55538Y426371D01*
X55441Y426329D01*
X55357Y426315D01*
X55288Y426301D01*
X55233D01*
X55219D01*
X55080Y426315D01*
X54941Y426343D01*
X54830Y426384D01*
X54747Y426440D01*
X54664Y426481D01*
X54608Y426523D01*
X54581Y426551D01*
X54567Y426565D01*
X54484Y426689D01*
X54428Y426828D01*
X54387Y426981D01*
X54359Y427147D01*
X54345Y427286D01*
X54331Y427397D01*
Y429838D01*
X54345Y430060D01*
X54373Y430254D01*
X54400Y430420D01*
X54456Y430545D01*
X54497Y430642D01*
X54525Y430711D01*
X54553Y430753D01*
X54567Y430767D01*
X54664Y430864D01*
X54761Y430933D01*
X54872Y430975D01*
X54969Y431016D01*
X55066Y431030D01*
X55135Y431044D01*
X55191D01*
X55205D01*
X55343Y431030D01*
D02*
G37*
G36*
X68152Y424519D02*
X68277Y424491D01*
X68388Y424450D01*
X68485Y424394D01*
X68555Y424339D01*
X68610Y424297D01*
X68638Y424269D01*
X68652Y424256D01*
X68735Y424131D01*
X68790Y423992D01*
X68846Y423839D01*
X68873Y423687D01*
X68887Y423548D01*
X68901Y423437D01*
Y421204D01*
X78304D01*
Y418029D01*
X78290Y417793D01*
X78262Y417599D01*
X78221Y417432D01*
X78179Y417308D01*
X78137Y417210D01*
X78096Y417141D01*
X78068Y417099D01*
X78054Y417086D01*
X77957Y417002D01*
X77860Y416933D01*
X77749Y416891D01*
X77652Y416850D01*
X77569Y416836D01*
X77500Y416822D01*
X77444D01*
X77430D01*
X77292Y416836D01*
X77153Y416864D01*
X77042Y416905D01*
X76959Y416961D01*
X76876Y417002D01*
X76820Y417044D01*
X76792Y417072D01*
X76778Y417086D01*
X76695Y417210D01*
X76640Y417349D01*
X76598Y417502D01*
X76570Y417668D01*
X76557Y417807D01*
X76543Y417918D01*
Y419443D01*
X68901D01*
Y417321D01*
X68887Y417086D01*
X68860Y416891D01*
X68818Y416725D01*
X68776Y416600D01*
X68735Y416503D01*
X68693Y416434D01*
X68665Y416392D01*
X68652Y416378D01*
X68555Y416295D01*
X68457Y416226D01*
X68346Y416184D01*
X68249Y416143D01*
X68166Y416129D01*
X68097Y416115D01*
X68041D01*
X68028D01*
X67889Y416129D01*
X67750Y416156D01*
X67639Y416198D01*
X67556Y416254D01*
X67473Y416295D01*
X67417Y416337D01*
X67389Y416364D01*
X67376Y416378D01*
X67292Y416503D01*
X67237Y416642D01*
X67195Y416794D01*
X67168Y416961D01*
X67154Y417099D01*
X67140Y417210D01*
Y423326D01*
X67154Y423548D01*
X67182Y423742D01*
X67209Y423909D01*
X67265Y424034D01*
X67306Y424131D01*
X67334Y424200D01*
X67362Y424242D01*
X67376Y424256D01*
X67473Y424353D01*
X67570Y424422D01*
X67681Y424464D01*
X67778Y424505D01*
X67875Y424519D01*
X67944Y424533D01*
X68000D01*
X68014D01*
X68152Y424519D01*
D02*
G37*
G36*
X85094Y424942D02*
X85219Y424914D01*
X85330Y424873D01*
X85427Y424817D01*
X85496Y424762D01*
X85552Y424720D01*
X85579Y424692D01*
X85593Y424679D01*
X85676Y424554D01*
X85732Y424415D01*
X85787Y424263D01*
X85815Y424110D01*
X85829Y423971D01*
X85843Y423860D01*
Y423444D01*
X89462D01*
X89684Y423430D01*
X89906Y423403D01*
X90100Y423361D01*
X90281Y423306D01*
X90461Y423236D01*
X90614Y423153D01*
X90766Y423070D01*
X90891Y422987D01*
X91016Y422903D01*
X91113Y422820D01*
X91196Y422737D01*
X91279Y422668D01*
X91335Y422612D01*
X91376Y422571D01*
X91390Y422543D01*
X91404Y422529D01*
X91529Y422349D01*
X91640Y422155D01*
X91737Y421960D01*
X91820Y421752D01*
X91945Y421322D01*
X92042Y420920D01*
X92070Y420726D01*
X92084Y420546D01*
X92098Y420393D01*
X92111Y420255D01*
X92125Y420130D01*
Y419977D01*
X92111Y419561D01*
X92098Y419353D01*
X92070Y419159D01*
X92056Y419006D01*
X92028Y418868D01*
X92014Y418784D01*
Y418757D01*
X91973Y418507D01*
X91917Y418257D01*
X91876Y418036D01*
X91834Y417841D01*
X91792Y417661D01*
X91751Y417536D01*
X91737Y417453D01*
X91723Y417439D01*
Y417425D01*
X91668Y417259D01*
X91626Y417120D01*
X91584Y416996D01*
X91557Y416912D01*
X91529Y416843D01*
X91501Y416801D01*
X91487Y416787D01*
Y416774D01*
X91404Y416676D01*
X91321Y416593D01*
X91251Y416552D01*
X91238Y416538D01*
X91224D01*
X91099Y416496D01*
X90974Y416469D01*
X90919Y416455D01*
X90877D01*
X90849D01*
X90836D01*
X90697Y416469D01*
X90558Y416496D01*
X90447Y416524D01*
X90364Y416579D01*
X90281Y416621D01*
X90225Y416649D01*
X90197Y416676D01*
X90184Y416690D01*
X90100Y416787D01*
X90045Y416884D01*
X89990Y416996D01*
X89962Y417079D01*
X89948Y417162D01*
X89934Y417231D01*
Y417398D01*
X89948Y417509D01*
X89990Y417744D01*
X90017Y417855D01*
X90031Y417938D01*
X90045Y417994D01*
Y418008D01*
X90156Y418452D01*
X90225Y418854D01*
X90281Y419201D01*
X90309Y419353D01*
X90322Y419492D01*
X90336Y419617D01*
X90350Y419728D01*
Y419825D01*
X90364Y419908D01*
Y420213D01*
X90350Y420379D01*
X90322Y420643D01*
X90281Y420865D01*
X90239Y421045D01*
X90184Y421184D01*
X90142Y421267D01*
X90114Y421322D01*
X90100Y421336D01*
X90003Y421447D01*
X89892Y421530D01*
X89795Y421600D01*
X89684Y421641D01*
X89601Y421669D01*
X89532Y421683D01*
X89476D01*
X89462D01*
X89033D01*
X89088Y421295D01*
X89143Y420948D01*
X89171Y420629D01*
X89185Y420365D01*
X89199Y420241D01*
Y420130D01*
X89213Y420047D01*
Y419825D01*
X89199Y419464D01*
X89171Y419117D01*
X89130Y418798D01*
X89060Y418493D01*
X88991Y418216D01*
X88908Y417952D01*
X88825Y417717D01*
X88741Y417509D01*
X88644Y417314D01*
X88561Y417162D01*
X88478Y417009D01*
X88408Y416898D01*
X88339Y416815D01*
X88298Y416746D01*
X88270Y416704D01*
X88256Y416690D01*
X88076Y416496D01*
X87895Y416316D01*
X87715Y416163D01*
X87535Y416039D01*
X87368Y415928D01*
X87188Y415844D01*
X87036Y415761D01*
X86883Y415706D01*
X86730Y415664D01*
X86606Y415622D01*
X86495Y415609D01*
X86398Y415581D01*
X86314D01*
X86259Y415567D01*
X86217D01*
X86203D01*
X86037Y415581D01*
X85871Y415609D01*
X85718Y415650D01*
X85566Y415706D01*
X85288Y415844D01*
X85038Y416011D01*
X84844Y416163D01*
X84761Y416233D01*
X84678Y416302D01*
X84622Y416357D01*
X84581Y416399D01*
X84567Y416427D01*
X84553Y416441D01*
X84428Y416607D01*
X84303Y416801D01*
X84206Y416982D01*
X84123Y417176D01*
X83984Y417564D01*
X83901Y417938D01*
X83874Y418105D01*
X83846Y418257D01*
X83832Y418396D01*
X83818Y418521D01*
X83804Y418618D01*
Y418757D01*
X83818Y419006D01*
X83832Y419256D01*
X83860Y419506D01*
X83901Y419728D01*
X83929Y419922D01*
X83957Y420074D01*
X83971Y420130D01*
Y420171D01*
X83984Y420199D01*
Y420213D01*
X84054Y420504D01*
X84137Y420782D01*
X84220Y421031D01*
X84303Y421253D01*
X84373Y421433D01*
X84442Y421572D01*
X84470Y421614D01*
X84484Y421655D01*
X84498Y421669D01*
Y421683D01*
X84081D01*
Y423749D01*
X84095Y423971D01*
X84123Y424165D01*
X84151Y424332D01*
X84206Y424457D01*
X84248Y424554D01*
X84276Y424623D01*
X84303Y424665D01*
X84317Y424679D01*
X84414Y424776D01*
X84511Y424845D01*
X84622Y424887D01*
X84719Y424928D01*
X84817Y424942D01*
X84886Y424956D01*
X84941D01*
X84955D01*
X85094Y424942D01*
D02*
G37*
G36*
X55399Y416080D02*
X55565Y416039D01*
X55704Y415983D01*
X55829Y415914D01*
X55926Y415844D01*
X55995Y415789D01*
X56037Y415747D01*
X56051Y415733D01*
X56162Y415595D01*
X56245Y415442D01*
X56314Y415276D01*
X56356Y415123D01*
X56384Y414985D01*
X56397Y414860D01*
Y414763D01*
X56384Y414541D01*
X56342Y414347D01*
X56287Y414180D01*
X56231Y414041D01*
X56162Y413931D01*
X56106Y413861D01*
X56065Y413806D01*
X56051Y413792D01*
X55926Y413681D01*
X55787Y413598D01*
X55648Y413528D01*
X55510Y413487D01*
X55399Y413459D01*
X55302Y413445D01*
X55246D01*
X55219D01*
X55038Y413459D01*
X54872Y413501D01*
X54733Y413556D01*
X54622Y413625D01*
X54525Y413681D01*
X54442Y413736D01*
X54400Y413778D01*
X54387Y413792D01*
X54276Y413931D01*
X54192Y414097D01*
X54137Y414249D01*
X54095Y414402D01*
X54068Y414541D01*
X54054Y414666D01*
Y414763D01*
X54068Y414985D01*
X54109Y415179D01*
X54165Y415345D01*
X54220Y415484D01*
X54276Y415595D01*
X54331Y415664D01*
X54373Y415720D01*
X54387Y415733D01*
X54525Y415858D01*
X54664Y415942D01*
X54803Y416011D01*
X54927Y416052D01*
X55038Y416080D01*
X55135Y416094D01*
X55191D01*
X55219D01*
X55399Y416080D01*
D02*
G37*
G36*
X71300Y414312D02*
X71675Y414256D01*
X72022Y414159D01*
X72327Y414062D01*
X72465Y414007D01*
X72590Y413951D01*
X72701Y413910D01*
X72798Y413854D01*
X72867Y413826D01*
X72923Y413799D01*
X72951Y413771D01*
X72965D01*
X73325Y413535D01*
X73644Y413272D01*
X73921Y412981D01*
X74143Y412717D01*
X74338Y412467D01*
X74407Y412356D01*
X74462Y412259D01*
X74518Y412190D01*
X74546Y412135D01*
X74573Y412093D01*
Y412079D01*
X74684Y411871D01*
X74781Y411663D01*
X74920Y411247D01*
X75031Y410859D01*
X75114Y410512D01*
X75128Y410346D01*
X75156Y410207D01*
X75170Y410082D01*
Y409971D01*
X75184Y409888D01*
Y409541D01*
X75156Y409319D01*
X75086Y408889D01*
X74989Y408501D01*
X74948Y408321D01*
X74892Y408154D01*
X74837Y408002D01*
X74781Y407877D01*
X74726Y407752D01*
X74684Y407655D01*
X74643Y407572D01*
X74615Y407516D01*
X74601Y407475D01*
X74587Y407461D01*
X74352Y407073D01*
X74088Y406740D01*
X73825Y406449D01*
X73561Y406213D01*
X73339Y406019D01*
X73228Y405949D01*
X73145Y405894D01*
X73076Y405838D01*
X73020Y405811D01*
X72992Y405797D01*
X72979Y405783D01*
X72604Y405589D01*
X72230Y405450D01*
X71883Y405339D01*
X71564Y405270D01*
X71425Y405256D01*
X71300Y405228D01*
X71189Y405214D01*
X71092D01*
X71023Y405200D01*
X70954D01*
X70926D01*
X70912D01*
X70524Y405228D01*
X70163Y405284D01*
X69830Y405381D01*
X69525Y405492D01*
X69387Y405533D01*
X69276Y405589D01*
X69165Y405644D01*
X69082Y405686D01*
X69012Y405714D01*
X68957Y405741D01*
X68929Y405769D01*
X68915D01*
X68582Y406005D01*
X68277Y406282D01*
X68014Y406559D01*
X67806Y406823D01*
X67625Y407073D01*
X67556Y407170D01*
X67501Y407267D01*
X67459Y407336D01*
X67431Y407406D01*
X67403Y407433D01*
Y407447D01*
X67223Y407863D01*
X67084Y408279D01*
X67001Y408667D01*
X66932Y409028D01*
X66904Y409181D01*
X66890Y409319D01*
X66876Y409444D01*
Y409555D01*
X66863Y409638D01*
Y409763D01*
X66890Y410207D01*
X66946Y410637D01*
X67043Y411025D01*
X67084Y411205D01*
X67140Y411372D01*
X67195Y411524D01*
X67237Y411663D01*
X67292Y411788D01*
X67334Y411885D01*
X67362Y411968D01*
X67389Y412024D01*
X67417Y412065D01*
Y412079D01*
X67639Y412481D01*
X67889Y412814D01*
X68152Y413105D01*
X68388Y413341D01*
X68596Y413535D01*
X68693Y413605D01*
X68776Y413660D01*
X68832Y413716D01*
X68887Y413743D01*
X68915Y413771D01*
X68929D01*
X69289Y413965D01*
X69636Y414104D01*
X69969Y414201D01*
X70274Y414270D01*
X70413Y414298D01*
X70524Y414312D01*
X70635Y414326D01*
X70732D01*
X70801Y414340D01*
X70857D01*
X70884D01*
X70898D01*
X71300Y414312D01*
D02*
G37*
G36*
X88242Y414069D02*
X88617Y414014D01*
X88963Y413917D01*
X89268Y413820D01*
X89407Y413764D01*
X89532Y413709D01*
X89643Y413667D01*
X89740Y413612D01*
X89809Y413584D01*
X89865Y413556D01*
X89892Y413528D01*
X89906D01*
X90267Y413293D01*
X90586Y413029D01*
X90863Y412738D01*
X91085Y412474D01*
X91279Y412225D01*
X91349Y412114D01*
X91404Y412017D01*
X91460Y411947D01*
X91487Y411892D01*
X91515Y411850D01*
Y411836D01*
X91626Y411628D01*
X91723Y411420D01*
X91862Y411004D01*
X91973Y410616D01*
X92056Y410269D01*
X92070Y410103D01*
X92098Y409964D01*
X92111Y409839D01*
Y409728D01*
X92125Y409645D01*
Y409299D01*
X92098Y409077D01*
X92028Y408647D01*
X91931Y408258D01*
X91889Y408078D01*
X91834Y407912D01*
X91778Y407759D01*
X91723Y407634D01*
X91668Y407509D01*
X91626Y407412D01*
X91584Y407329D01*
X91557Y407274D01*
X91543Y407232D01*
X91529Y407218D01*
X91293Y406830D01*
X91030Y406497D01*
X90766Y406206D01*
X90503Y405970D01*
X90281Y405776D01*
X90170Y405707D01*
X90087Y405651D01*
X90017Y405596D01*
X89962Y405568D01*
X89934Y405554D01*
X89920Y405540D01*
X89546Y405346D01*
X89171Y405207D01*
X88825Y405096D01*
X88506Y405027D01*
X88367Y405013D01*
X88242Y404985D01*
X88131Y404972D01*
X88034D01*
X87965Y404958D01*
X87895D01*
X87868D01*
X87854D01*
X87465Y404985D01*
X87105Y405041D01*
X86772Y405138D01*
X86467Y405249D01*
X86328Y405290D01*
X86217Y405346D01*
X86106Y405401D01*
X86023Y405443D01*
X85954Y405471D01*
X85898Y405499D01*
X85871Y405526D01*
X85857D01*
X85524Y405762D01*
X85219Y406039D01*
X84955Y406317D01*
X84747Y406580D01*
X84567Y406830D01*
X84498Y406927D01*
X84442Y407024D01*
X84401Y407093D01*
X84373Y407163D01*
X84345Y407191D01*
Y407204D01*
X84165Y407620D01*
X84026Y408036D01*
X83943Y408425D01*
X83874Y408785D01*
X83846Y408938D01*
X83832Y409077D01*
X83818Y409201D01*
Y409312D01*
X83804Y409396D01*
Y409520D01*
X83832Y409964D01*
X83887Y410394D01*
X83984Y410782D01*
X84026Y410963D01*
X84081Y411129D01*
X84137Y411282D01*
X84179Y411420D01*
X84234Y411545D01*
X84276Y411642D01*
X84303Y411726D01*
X84331Y411781D01*
X84359Y411823D01*
Y411836D01*
X84581Y412239D01*
X84830Y412571D01*
X85094Y412863D01*
X85330Y413098D01*
X85538Y413293D01*
X85635Y413362D01*
X85718Y413417D01*
X85773Y413473D01*
X85829Y413501D01*
X85857Y413528D01*
X85871D01*
X86231Y413722D01*
X86578Y413861D01*
X86911Y413958D01*
X87216Y414028D01*
X87354Y414055D01*
X87465Y414069D01*
X87576Y414083D01*
X87674D01*
X87743Y414097D01*
X87798D01*
X87826D01*
X87840D01*
X88242Y414069D01*
D02*
G37*
G36*
X61404Y409562D02*
X61529Y409534D01*
X61640Y409493D01*
X61737Y409437D01*
X61806Y409382D01*
X61862Y409340D01*
X61889Y409312D01*
X61903Y409299D01*
X61986Y409174D01*
X62042Y409035D01*
X62097Y408882D01*
X62125Y408730D01*
X62139Y408591D01*
X62153Y408480D01*
Y406123D01*
X62139Y405887D01*
X62111Y405693D01*
X62070Y405526D01*
X62028Y405401D01*
X61986Y405304D01*
X61945Y405235D01*
X61917Y405193D01*
X61903Y405180D01*
X61806Y405096D01*
X61709Y405027D01*
X61598Y404985D01*
X61501Y404944D01*
X61418Y404930D01*
X61348Y404916D01*
X61293D01*
X61279D01*
X61126Y404930D01*
X61002Y404972D01*
X60877Y405027D01*
X60766Y405096D01*
X60669Y405166D01*
X60599Y405221D01*
X60558Y405263D01*
X60544Y405277D01*
X60489Y405360D01*
X60461Y405485D01*
X60433Y405623D01*
X60405Y405762D01*
Y405901D01*
X60392Y406012D01*
Y406123D01*
X56453Y404195D01*
X60392Y402267D01*
X60405Y402489D01*
X60419Y402683D01*
X60447Y402822D01*
X60475Y402947D01*
X60503Y403016D01*
X60516Y403072D01*
X60544Y403099D01*
Y403113D01*
X60669Y403238D01*
X60794Y403335D01*
X60918Y403391D01*
X61030Y403446D01*
X61126Y403474D01*
X61196Y403488D01*
X61251D01*
X61265D01*
X61404Y403474D01*
X61529Y403446D01*
X61640Y403404D01*
X61737Y403349D01*
X61806Y403293D01*
X61862Y403252D01*
X61889Y403224D01*
X61903Y403210D01*
X61986Y403086D01*
X62042Y402947D01*
X62097Y402794D01*
X62125Y402642D01*
X62139Y402489D01*
X62153Y402378D01*
Y400062D01*
X62139Y399840D01*
X62111Y399646D01*
X62070Y399480D01*
X62028Y399355D01*
X61986Y399258D01*
X61945Y399188D01*
X61917Y399147D01*
X61903Y399133D01*
X61806Y399050D01*
X61709Y398980D01*
X61598Y398939D01*
X61501Y398897D01*
X61418Y398883D01*
X61348Y398870D01*
X61293D01*
X61279D01*
X61140Y398883D01*
X61002Y398911D01*
X60891Y398953D01*
X60808Y399008D01*
X60724Y399050D01*
X60669Y399091D01*
X60641Y399119D01*
X60627Y399133D01*
X60544Y399258D01*
X60489Y399397D01*
X60447Y399549D01*
X60419Y399702D01*
X60405Y399840D01*
X60392Y399951D01*
Y400312D01*
X54331Y403280D01*
Y405110D01*
X60392Y408078D01*
Y408369D01*
X60405Y408591D01*
X60433Y408785D01*
X60461Y408952D01*
X60516Y409077D01*
X60558Y409174D01*
X60586Y409243D01*
X60613Y409285D01*
X60627Y409299D01*
X60724Y409396D01*
X60821Y409465D01*
X60932Y409506D01*
X61030Y409548D01*
X61126Y409562D01*
X61196Y409576D01*
X61251D01*
X61265D01*
X61404Y409562D01*
D02*
G37*
G36*
X73838Y403952D02*
X73991Y403897D01*
X74143Y403800D01*
X74282Y403703D01*
X74393Y403605D01*
X74476Y403508D01*
X74532Y403453D01*
X74546Y403425D01*
X74657Y403273D01*
X74754Y403120D01*
X74920Y402815D01*
X75031Y402538D01*
X75100Y402274D01*
X75156Y402066D01*
X75170Y401969D01*
Y401900D01*
X75184Y401830D01*
Y401747D01*
X75170Y401539D01*
X75142Y401331D01*
X75100Y401123D01*
X75045Y400943D01*
X74989Y400790D01*
X74948Y400665D01*
X74920Y400582D01*
X74906Y400568D01*
Y400555D01*
X74781Y400291D01*
X74629Y400014D01*
X74462Y399722D01*
X74282Y399445D01*
X74116Y399195D01*
X74046Y399084D01*
X73977Y398987D01*
X73921Y398918D01*
X73894Y398862D01*
X73866Y398821D01*
X73852Y398807D01*
X74962D01*
Y396408D01*
X74948Y396172D01*
X74920Y395978D01*
X74879Y395812D01*
X74837Y395687D01*
X74795Y395590D01*
X74754Y395520D01*
X74726Y395479D01*
X74712Y395465D01*
X74615Y395382D01*
X74518Y395312D01*
X74407Y395271D01*
X74310Y395229D01*
X74227Y395215D01*
X74157Y395201D01*
X74102D01*
X74088D01*
X73949Y395215D01*
X73811Y395243D01*
X73700Y395285D01*
X73616Y395340D01*
X73533Y395382D01*
X73478Y395423D01*
X73450Y395451D01*
X73436Y395465D01*
X73353Y395590D01*
X73298Y395728D01*
X73256Y395881D01*
X73228Y396047D01*
X73214Y396186D01*
X73200Y396297D01*
Y397046D01*
X68901D01*
Y395992D01*
X68887Y395756D01*
X68860Y395562D01*
X68818Y395395D01*
X68776Y395271D01*
X68735Y395173D01*
X68693Y395104D01*
X68665Y395063D01*
X68652Y395049D01*
X68555Y394966D01*
X68457Y394896D01*
X68346Y394855D01*
X68249Y394813D01*
X68166Y394799D01*
X68097Y394785D01*
X68041D01*
X68028D01*
X67889Y394799D01*
X67750Y394827D01*
X67639Y394868D01*
X67556Y394924D01*
X67473Y394966D01*
X67417Y395007D01*
X67389Y395035D01*
X67376Y395049D01*
X67292Y395173D01*
X67237Y395312D01*
X67195Y395465D01*
X67168Y395631D01*
X67154Y395770D01*
X67140Y395881D01*
Y401317D01*
X67154Y401539D01*
X67182Y401733D01*
X67209Y401900D01*
X67265Y402024D01*
X67306Y402122D01*
X67334Y402191D01*
X67362Y402233D01*
X67376Y402246D01*
X67473Y402343D01*
X67570Y402413D01*
X67681Y402454D01*
X67778Y402496D01*
X67875Y402510D01*
X67944Y402524D01*
X68000D01*
X68014D01*
X68152Y402510D01*
X68277Y402482D01*
X68388Y402441D01*
X68485Y402385D01*
X68555Y402330D01*
X68610Y402288D01*
X68638Y402260D01*
X68652Y402246D01*
X68735Y402122D01*
X68790Y401983D01*
X68846Y401830D01*
X68873Y401678D01*
X68887Y401539D01*
X68901Y401428D01*
Y398807D01*
X71550D01*
X71883Y399195D01*
X72160Y399556D01*
X72396Y399875D01*
X72604Y400138D01*
X72687Y400249D01*
X72757Y400346D01*
X72812Y400430D01*
X72867Y400513D01*
X72895Y400568D01*
X72923Y400610D01*
X72951Y400624D01*
Y400638D01*
X73103Y400901D01*
X73228Y401123D01*
X73311Y401317D01*
X73367Y401470D01*
X73394Y401595D01*
X73422Y401678D01*
Y401747D01*
X73408Y401858D01*
X73367Y401969D01*
X73311Y402066D01*
X73256Y402177D01*
X73200Y402260D01*
X73145Y402330D01*
X73103Y402371D01*
X73089Y402385D01*
X72979Y402524D01*
X72909Y402649D01*
X72854Y402760D01*
X72812Y402870D01*
X72784Y402954D01*
X72771Y403023D01*
Y403078D01*
X72784Y403217D01*
X72812Y403342D01*
X72854Y403439D01*
X72895Y403536D01*
X72937Y403619D01*
X72979Y403675D01*
X73006Y403703D01*
X73020Y403717D01*
X73131Y403800D01*
X73228Y403869D01*
X73339Y403911D01*
X73450Y403952D01*
X73533Y403966D01*
X73603Y403980D01*
X73658D01*
X73672D01*
X73838Y403952D01*
D02*
G37*
G36*
X88131Y403723D02*
X88450Y403682D01*
X88741Y403626D01*
X89033Y403543D01*
X89296Y403446D01*
X89546Y403335D01*
X89782Y403224D01*
X89990Y403099D01*
X90184Y402975D01*
X90350Y402864D01*
X90503Y402753D01*
X90627Y402655D01*
X90724Y402586D01*
X90794Y402517D01*
X90836Y402475D01*
X90849Y402461D01*
X91071Y402212D01*
X91265Y401962D01*
X91446Y401699D01*
X91584Y401435D01*
X91709Y401172D01*
X91820Y400908D01*
X91903Y400658D01*
X91973Y400423D01*
X92014Y400201D01*
X92056Y399993D01*
X92084Y399813D01*
X92111Y399646D01*
Y399521D01*
X92125Y399424D01*
Y399341D01*
X92111Y399091D01*
X92098Y398842D01*
X92056Y398620D01*
X92014Y398412D01*
X91973Y398245D01*
X91945Y398107D01*
X91917Y398023D01*
X91903Y398010D01*
Y397996D01*
X91820Y397746D01*
X91723Y397510D01*
X91612Y397289D01*
X91515Y397094D01*
X91418Y396928D01*
X91349Y396803D01*
X91293Y396720D01*
X91279Y396706D01*
Y396692D01*
X95246D01*
Y394626D01*
X95232Y394390D01*
X95204Y394196D01*
X95162Y394029D01*
X95121Y393905D01*
X95079Y393807D01*
X95038Y393738D01*
X95010Y393697D01*
X94996Y393683D01*
X94899Y393600D01*
X94802Y393530D01*
X94691Y393489D01*
X94594Y393447D01*
X94511Y393433D01*
X94441Y393419D01*
X94386D01*
X94372D01*
X94233Y393433D01*
X94094Y393461D01*
X93984Y393502D01*
X93900Y393558D01*
X93817Y393600D01*
X93762Y393641D01*
X93734Y393669D01*
X93720Y393683D01*
X93637Y393807D01*
X93581Y393946D01*
X93540Y394099D01*
X93512Y394265D01*
X93498Y394404D01*
X93484Y394515D01*
Y394931D01*
X85843D01*
Y394626D01*
X85829Y394390D01*
X85801Y394196D01*
X85760Y394029D01*
X85718Y393905D01*
X85676Y393807D01*
X85635Y393738D01*
X85607Y393697D01*
X85593Y393683D01*
X85496Y393600D01*
X85399Y393530D01*
X85288Y393489D01*
X85191Y393447D01*
X85108Y393433D01*
X85038Y393419D01*
X84983D01*
X84969D01*
X84830Y393433D01*
X84692Y393461D01*
X84581Y393502D01*
X84498Y393558D01*
X84414Y393600D01*
X84359Y393641D01*
X84331Y393669D01*
X84317Y393683D01*
X84234Y393807D01*
X84179Y393946D01*
X84137Y394099D01*
X84109Y394265D01*
X84095Y394404D01*
X84081Y394515D01*
Y396692D01*
X84511D01*
X84387Y396928D01*
X84290Y397150D01*
X84192Y397358D01*
X84123Y397552D01*
X84054Y397718D01*
X84012Y397843D01*
X83998Y397926D01*
X83984Y397940D01*
Y397954D01*
X83929Y398204D01*
X83887Y398439D01*
X83846Y398675D01*
X83832Y398883D01*
X83818Y399050D01*
X83804Y399188D01*
Y399313D01*
X83818Y399674D01*
X83860Y400020D01*
X83915Y400340D01*
X83984Y400645D01*
X84068Y400936D01*
X84165Y401199D01*
X84262Y401435D01*
X84373Y401657D01*
X84484Y401851D01*
X84581Y402032D01*
X84678Y402170D01*
X84761Y402295D01*
X84830Y402392D01*
X84900Y402461D01*
X84928Y402503D01*
X84941Y402517D01*
X85163Y402739D01*
X85399Y402919D01*
X85635Y403086D01*
X85871Y403224D01*
X86120Y403335D01*
X86356Y403446D01*
X86578Y403515D01*
X86800Y403585D01*
X87008Y403640D01*
X87202Y403668D01*
X87368Y403696D01*
X87521Y403723D01*
X87632D01*
X87729Y403737D01*
X87784D01*
X87798D01*
X88131Y403723D01*
D02*
G37*
G36*
X91154Y393586D02*
X91279Y393558D01*
X91390Y393516D01*
X91487Y393461D01*
X91557Y393405D01*
X91612Y393364D01*
X91640Y393336D01*
X91654Y393322D01*
X91737Y393197D01*
X91792Y393059D01*
X91848Y392906D01*
X91876Y392753D01*
X91889Y392615D01*
X91903Y392504D01*
Y390410D01*
X91889Y390188D01*
X91862Y389994D01*
X91820Y389827D01*
X91778Y389702D01*
X91737Y389605D01*
X91695Y389536D01*
X91668Y389494D01*
X91654Y389481D01*
X91557Y389397D01*
X91460Y389328D01*
X91349Y389286D01*
X91251Y389245D01*
X91168Y389231D01*
X91099Y389217D01*
X91044D01*
X91030D01*
X90891Y389231D01*
X90752Y389259D01*
X90641Y389300D01*
X90558Y389356D01*
X90475Y389397D01*
X90419Y389439D01*
X90392Y389467D01*
X90378Y389481D01*
X90295Y389605D01*
X90239Y389744D01*
X90197Y389897D01*
X90170Y390049D01*
X90156Y390188D01*
X90142Y390299D01*
Y390410D01*
X86079Y388357D01*
X90142Y386263D01*
X90156Y386485D01*
X90184Y386679D01*
X90211Y386846D01*
X90267Y386970D01*
X90309Y387067D01*
X90336Y387137D01*
X90364Y387178D01*
X90378Y387192D01*
X90475Y387289D01*
X90572Y387359D01*
X90683Y387400D01*
X90780Y387442D01*
X90877Y387456D01*
X90946Y387470D01*
X91002D01*
X91016D01*
X91154Y387456D01*
X91279Y387428D01*
X91390Y387386D01*
X91487Y387331D01*
X91557Y387276D01*
X91612Y387234D01*
X91640Y387206D01*
X91654Y387192D01*
X91737Y387067D01*
X91792Y386929D01*
X91848Y386776D01*
X91876Y386624D01*
X91889Y386485D01*
X91903Y386374D01*
Y384294D01*
X91889Y384072D01*
X91862Y383878D01*
X91820Y383711D01*
X91778Y383587D01*
X91737Y383489D01*
X91695Y383420D01*
X91668Y383378D01*
X91654Y383365D01*
X91557Y383281D01*
X91446Y383212D01*
X91349Y383170D01*
X91238Y383129D01*
X91154Y383115D01*
X91085Y383101D01*
X91030D01*
X91016D01*
X90877Y383115D01*
X90752Y383143D01*
X90641Y383184D01*
X90544Y383240D01*
X90475Y383281D01*
X90419Y383323D01*
X90392Y383351D01*
X90378Y383365D01*
X90295Y383489D01*
X90239Y383628D01*
X90197Y383781D01*
X90170Y383933D01*
X90156Y384072D01*
X90142Y384183D01*
Y384294D01*
X84137Y387373D01*
X82154Y386360D01*
Y384599D01*
X82140Y384377D01*
X82112Y384183D01*
X82085Y384016D01*
X82043Y383892D01*
X81987Y383795D01*
X81960Y383725D01*
X81932Y383684D01*
X81918Y383670D01*
X81821Y383587D01*
X81710Y383517D01*
X81599Y383475D01*
X81502Y383434D01*
X81405Y383420D01*
X81336Y383406D01*
X81280D01*
X81266D01*
X81128Y383420D01*
X81003Y383448D01*
X80892Y383489D01*
X80809Y383545D01*
X80739Y383587D01*
X80684Y383628D01*
X80656Y383656D01*
X80642Y383670D01*
X80559Y383795D01*
X80504Y383933D01*
X80448Y384086D01*
X80420Y384238D01*
X80406Y384377D01*
X80393Y384488D01*
Y388995D01*
X80406Y389231D01*
X80434Y389425D01*
X80476Y389591D01*
X80517Y389716D01*
X80559Y389813D01*
X80601Y389883D01*
X80628Y389924D01*
X80642Y389938D01*
X80739Y390035D01*
X80836Y390105D01*
X80947Y390146D01*
X81044Y390188D01*
X81128Y390202D01*
X81197Y390216D01*
X81252D01*
X81266D01*
X81419Y390188D01*
X81571Y390132D01*
X81724Y390035D01*
X81863Y389938D01*
X81973Y389841D01*
X82071Y389744D01*
X82126Y389689D01*
X82154Y389661D01*
Y388330D01*
X90142Y392393D01*
X90156Y392615D01*
X90184Y392809D01*
X90211Y392975D01*
X90267Y393100D01*
X90309Y393197D01*
X90336Y393267D01*
X90364Y393308D01*
X90378Y393322D01*
X90475Y393419D01*
X90572Y393489D01*
X90683Y393530D01*
X90780Y393572D01*
X90877Y393586D01*
X90946Y393600D01*
X91002D01*
X91016D01*
X91154Y393586D01*
D02*
G37*
G36*
X55662Y398037D02*
X55773Y398010D01*
X55884Y397968D01*
X55981Y397926D01*
X56051Y397885D01*
X56106Y397843D01*
X56134Y397816D01*
X56148Y397802D01*
X56231Y397705D01*
X56287Y397607D01*
X56342Y397510D01*
X56370Y397413D01*
X56384Y397330D01*
X56397Y397261D01*
Y397205D01*
X56384Y397094D01*
X56370Y396956D01*
X56342Y396803D01*
X56314Y396651D01*
X56273Y396498D01*
X56245Y396387D01*
X56231Y396304D01*
X56217Y396290D01*
Y396276D01*
X56148Y395985D01*
X56079Y395694D01*
X56037Y395430D01*
X55981Y395181D01*
X55940Y394959D01*
X55912Y394737D01*
X55884Y394543D01*
X55870Y394362D01*
X55843Y394210D01*
Y394071D01*
X55829Y393946D01*
X55815Y393849D01*
Y393669D01*
X55829Y393239D01*
X55884Y392864D01*
X55954Y392546D01*
X55981Y392407D01*
X56023Y392268D01*
X56065Y392157D01*
X56106Y392060D01*
X56134Y391963D01*
X56162Y391894D01*
X56189Y391838D01*
X56217Y391797D01*
X56231Y391783D01*
Y391769D01*
X56397Y391519D01*
X56578Y391325D01*
X56772Y391145D01*
X56938Y391020D01*
X57105Y390923D01*
X57229Y390854D01*
X57313Y390812D01*
X57327Y390798D01*
X57340D01*
Y398037D01*
X58075D01*
X58394Y398023D01*
X58686Y397996D01*
X58949Y397954D01*
X59171Y397899D01*
X59351Y397843D01*
X59490Y397802D01*
X59532Y397788D01*
X59573Y397774D01*
X59587Y397760D01*
X59601D01*
X59934Y397607D01*
X60239Y397427D01*
X60503Y397261D01*
X60738Y397094D01*
X60918Y396956D01*
X61057Y396845D01*
X61099Y396789D01*
X61140Y396762D01*
X61154Y396748D01*
X61168Y396734D01*
X61335Y396553D01*
X61487Y396331D01*
X61626Y396110D01*
X61751Y395902D01*
X61848Y395694D01*
X61917Y395541D01*
X61945Y395472D01*
X61972Y395430D01*
X61986Y395402D01*
Y395388D01*
X62111Y395056D01*
X62208Y394709D01*
X62278Y394376D01*
X62333Y394071D01*
X62347Y393932D01*
X62361Y393807D01*
Y393697D01*
X62375Y393600D01*
Y393419D01*
X62361Y393086D01*
X62319Y392767D01*
X62264Y392462D01*
X62194Y392171D01*
X62111Y391894D01*
X62000Y391630D01*
X61903Y391394D01*
X61792Y391172D01*
X61681Y390965D01*
X61584Y390784D01*
X61487Y390632D01*
X61390Y390507D01*
X61321Y390396D01*
X61265Y390326D01*
X61224Y390271D01*
X61210Y390257D01*
X60988Y390021D01*
X60752Y389799D01*
X60503Y389619D01*
X60253Y389467D01*
X59989Y389328D01*
X59740Y389217D01*
X59490Y389134D01*
X59268Y389051D01*
X59046Y388995D01*
X58838Y388954D01*
X58658Y388926D01*
X58492Y388912D01*
X58367Y388898D01*
X58270Y388884D01*
X58214D01*
X58186D01*
X57867Y388898D01*
X57562Y388940D01*
X57271Y388995D01*
X56994Y389078D01*
X56730Y389175D01*
X56494Y389286D01*
X56259Y389397D01*
X56065Y389522D01*
X55884Y389633D01*
X55718Y389744D01*
X55579Y389855D01*
X55454Y389952D01*
X55371Y390035D01*
X55302Y390091D01*
X55260Y390132D01*
X55246Y390146D01*
X55038Y390396D01*
X54858Y390659D01*
X54692Y390937D01*
X54553Y391214D01*
X54442Y391505D01*
X54345Y391783D01*
X54262Y392060D01*
X54206Y392324D01*
X54151Y392573D01*
X54123Y392809D01*
X54095Y393017D01*
X54068Y393197D01*
Y393336D01*
X54054Y393447D01*
Y393544D01*
X54068Y394002D01*
X54095Y394459D01*
X54137Y394889D01*
X54165Y395083D01*
X54192Y395277D01*
X54220Y395458D01*
X54248Y395610D01*
X54262Y395749D01*
X54289Y395874D01*
X54303Y395971D01*
X54317Y396040D01*
X54331Y396082D01*
Y396096D01*
X54387Y396331D01*
X54442Y396553D01*
X54497Y396748D01*
X54553Y396928D01*
X54608Y397080D01*
X54650Y397219D01*
X54706Y397344D01*
X54747Y397441D01*
X54789Y397538D01*
X54830Y397607D01*
X54886Y397718D01*
X54927Y397774D01*
X54941Y397788D01*
X55038Y397871D01*
X55135Y397940D01*
X55233Y397982D01*
X55316Y398023D01*
X55399Y398037D01*
X55468Y398051D01*
X55510D01*
X55524D01*
X55662Y398037D01*
D02*
G37*
G36*
X68665Y393703D02*
X68790Y393676D01*
X68901Y393634D01*
X68984Y393592D01*
X69068Y393537D01*
X69123Y393495D01*
X69151Y393468D01*
X69165Y393454D01*
X69248Y393357D01*
X69317Y393260D01*
X69359Y393163D01*
X69400Y393065D01*
X69414Y392982D01*
X69428Y392913D01*
Y392858D01*
X69414Y392760D01*
X69387Y392649D01*
X69317Y392414D01*
X69262Y392317D01*
X69234Y392233D01*
X69206Y392178D01*
X69192Y392164D01*
X68998Y391734D01*
X68860Y391290D01*
X68762Y390874D01*
X68693Y390486D01*
X68665Y390320D01*
X68652Y390153D01*
X68638Y390014D01*
Y389903D01*
X68624Y389807D01*
Y389668D01*
X68638Y389349D01*
X68665Y389071D01*
X68707Y388849D01*
X68762Y388669D01*
X68818Y388544D01*
X68860Y388447D01*
X68887Y388392D01*
X68901Y388378D01*
X68984Y388309D01*
X69095Y388253D01*
X69220Y388212D01*
X69345Y388184D01*
X69456Y388170D01*
X69553Y388156D01*
X69622D01*
X69650D01*
X73200D01*
Y391415D01*
X73214Y391637D01*
X73242Y391817D01*
X73270Y391970D01*
X73325Y392095D01*
X73367Y392192D01*
X73394Y392261D01*
X73422Y392303D01*
X73436Y392317D01*
X73533Y392414D01*
X73644Y392483D01*
X73741Y392525D01*
X73852Y392566D01*
X73935Y392580D01*
X74005Y392594D01*
X74060D01*
X74074D01*
X74213Y392580D01*
X74338Y392552D01*
X74448Y392511D01*
X74546Y392455D01*
X74615Y392400D01*
X74670Y392358D01*
X74698Y392331D01*
X74712Y392317D01*
X74795Y392192D01*
X74851Y392053D01*
X74906Y391914D01*
X74934Y391762D01*
X74948Y391623D01*
X74962Y391512D01*
Y388156D01*
X76543D01*
X76765Y388142D01*
X76959Y388115D01*
X77111Y388073D01*
X77236Y388031D01*
X77333Y387990D01*
X77403Y387948D01*
X77444Y387920D01*
X77458Y387906D01*
X77555Y387809D01*
X77624Y387699D01*
X77666Y387601D01*
X77708Y387490D01*
X77722Y387407D01*
X77735Y387338D01*
Y387268D01*
X77722Y387130D01*
X77694Y387005D01*
X77652Y386894D01*
X77597Y386811D01*
X77541Y386728D01*
X77500Y386672D01*
X77472Y386645D01*
X77458Y386631D01*
X77333Y386547D01*
X77194Y386492D01*
X77042Y386450D01*
X76903Y386423D01*
X76765Y386409D01*
X76654Y386395D01*
X76570D01*
X76557D01*
X76543D01*
X74962D01*
Y385757D01*
X74948Y385535D01*
X74920Y385341D01*
X74879Y385188D01*
X74837Y385064D01*
X74795Y384966D01*
X74754Y384897D01*
X74726Y384855D01*
X74712Y384842D01*
X74615Y384758D01*
X74504Y384689D01*
X74407Y384647D01*
X74296Y384606D01*
X74213Y384592D01*
X74143Y384578D01*
X74088D01*
X74074D01*
X73935Y384592D01*
X73811Y384620D01*
X73700Y384661D01*
X73616Y384717D01*
X73533Y384758D01*
X73478Y384800D01*
X73450Y384828D01*
X73436Y384842D01*
X73353Y384966D01*
X73298Y385105D01*
X73256Y385258D01*
X73228Y385410D01*
X73214Y385535D01*
X73200Y385660D01*
Y386395D01*
X69303D01*
X69109Y386409D01*
X68929Y386436D01*
X68762Y386464D01*
X68596Y386520D01*
X68305Y386658D01*
X68055Y386811D01*
X67847Y386950D01*
X67764Y387019D01*
X67695Y387088D01*
X67639Y387144D01*
X67598Y387172D01*
X67584Y387199D01*
X67570Y387213D01*
X67445Y387379D01*
X67334Y387560D01*
X67237Y387740D01*
X67168Y387948D01*
X67029Y388350D01*
X66946Y388753D01*
X66918Y388947D01*
X66904Y389113D01*
X66890Y389280D01*
X66876Y389418D01*
X66863Y389529D01*
Y389682D01*
X66876Y390014D01*
X66918Y390361D01*
X66974Y390708D01*
X67029Y391041D01*
X67057Y391193D01*
X67084Y391332D01*
X67112Y391457D01*
X67140Y391554D01*
X67168Y391637D01*
X67182Y391706D01*
X67195Y391748D01*
Y391762D01*
X67265Y391984D01*
X67334Y392192D01*
X67389Y392386D01*
X67459Y392552D01*
X67528Y392705D01*
X67584Y392844D01*
X67639Y392968D01*
X67695Y393065D01*
X67750Y393163D01*
X67806Y393232D01*
X67875Y393357D01*
X67930Y393426D01*
X67944Y393440D01*
X68041Y393537D01*
X68138Y393606D01*
X68249Y393648D01*
X68333Y393690D01*
X68416Y393703D01*
X68485Y393717D01*
X68527D01*
X68541D01*
X68665Y393703D01*
D02*
G37*
G36*
X55343Y388579D02*
X55482Y388537D01*
X55593Y388482D01*
X55704Y388413D01*
X55787Y388343D01*
X55857Y388288D01*
X55898Y388246D01*
X55912Y388232D01*
X55967Y388135D01*
X56023Y388024D01*
X56051Y387886D01*
X56065Y387733D01*
X56079Y387608D01*
X56092Y387497D01*
Y387386D01*
X56453Y387151D01*
X56772Y386929D01*
X57035Y386749D01*
X57243Y386596D01*
X57410Y386471D01*
X57521Y386388D01*
X57590Y386332D01*
X57618Y386319D01*
X57895Y386083D01*
X58145Y385861D01*
X58353Y385667D01*
X58547Y385486D01*
X58686Y385334D01*
X58797Y385223D01*
X58852Y385154D01*
X58880Y385126D01*
X59088Y385473D01*
X59296Y385764D01*
X59490Y386013D01*
X59670Y386222D01*
X59837Y386374D01*
X59962Y386485D01*
X60045Y386554D01*
X60059Y386582D01*
X60072D01*
X60336Y386749D01*
X60599Y386873D01*
X60849Y386956D01*
X61085Y387026D01*
X61279Y387054D01*
X61445Y387067D01*
X61501Y387081D01*
X61543D01*
X61570D01*
X61584D01*
X61834Y387067D01*
X62056Y387040D01*
X62278Y386984D01*
X62486Y386915D01*
X62874Y386749D01*
X63040Y386665D01*
X63207Y386568D01*
X63345Y386471D01*
X63470Y386374D01*
X63581Y386277D01*
X63664Y386208D01*
X63734Y386138D01*
X63789Y386083D01*
X63817Y386055D01*
X63831Y386041D01*
X63997Y385833D01*
X64136Y385625D01*
X64261Y385389D01*
X64372Y385154D01*
X64455Y384918D01*
X64538Y384668D01*
X64649Y384211D01*
X64677Y383989D01*
X64705Y383795D01*
X64732Y383614D01*
X64746Y383448D01*
X64760Y383323D01*
Y383143D01*
X64774Y379162D01*
X64760Y378927D01*
X64732Y378732D01*
X64691Y378566D01*
X64649Y378441D01*
X64608Y378344D01*
X64566Y378275D01*
X64538Y378233D01*
X64524Y378219D01*
X64427Y378136D01*
X64330Y378067D01*
X64219Y378025D01*
X64122Y377984D01*
X64025Y377970D01*
X63956Y377956D01*
X63900D01*
X63886D01*
X63748Y377970D01*
X63623Y377998D01*
X63512Y378039D01*
X63415Y378095D01*
X63345Y378136D01*
X63290Y378178D01*
X63262Y378205D01*
X63248Y378219D01*
X63165Y378344D01*
X63110Y378483D01*
X63068Y378635D01*
X63040Y378802D01*
X63026Y378941D01*
X63013Y379052D01*
Y379440D01*
X56092D01*
Y379162D01*
X56079Y378927D01*
X56051Y378732D01*
X56009Y378566D01*
X55967Y378441D01*
X55926Y378344D01*
X55884Y378275D01*
X55857Y378233D01*
X55843Y378219D01*
X55746Y378136D01*
X55648Y378067D01*
X55538Y378025D01*
X55441Y377984D01*
X55357Y377970D01*
X55288Y377956D01*
X55233D01*
X55219D01*
X55080Y377970D01*
X54941Y377998D01*
X54830Y378039D01*
X54747Y378095D01*
X54664Y378136D01*
X54608Y378178D01*
X54581Y378205D01*
X54567Y378219D01*
X54484Y378344D01*
X54428Y378483D01*
X54387Y378635D01*
X54359Y378802D01*
X54345Y378941D01*
X54331Y379052D01*
Y381839D01*
X54345Y382061D01*
X54373Y382255D01*
X54400Y382421D01*
X54456Y382546D01*
X54497Y382643D01*
X54525Y382713D01*
X54553Y382754D01*
X54567Y382768D01*
X54664Y382865D01*
X54761Y382935D01*
X54872Y382976D01*
X54969Y383018D01*
X55066Y383032D01*
X55135Y383046D01*
X55191D01*
X55205D01*
X55343Y383032D01*
X55468Y383004D01*
X55579Y382962D01*
X55676Y382907D01*
X55746Y382851D01*
X55801Y382810D01*
X55829Y382782D01*
X55843Y382768D01*
X55926Y382643D01*
X55981Y382505D01*
X56037Y382352D01*
X56065Y382200D01*
X56079Y382061D01*
X56092Y381950D01*
Y381201D01*
X58325D01*
Y382935D01*
X58256Y383073D01*
X58173Y383212D01*
X57965Y383489D01*
X57701Y383795D01*
X57410Y384086D01*
X57105Y384391D01*
X56758Y384682D01*
X56425Y384973D01*
X56079Y385237D01*
X55732Y385500D01*
X55413Y385736D01*
X55121Y385944D01*
X54858Y386124D01*
X54636Y386277D01*
X54553Y386346D01*
X54470Y386388D01*
X54414Y386429D01*
X54373Y386457D01*
X54345Y386485D01*
X54331D01*
Y387386D01*
X54345Y387608D01*
X54373Y387803D01*
X54400Y387969D01*
X54456Y388094D01*
X54497Y388191D01*
X54525Y388260D01*
X54553Y388302D01*
X54567Y388316D01*
X54664Y388413D01*
X54761Y388482D01*
X54872Y388524D01*
X54969Y388565D01*
X55066Y388579D01*
X55135Y388593D01*
X55191D01*
X55205D01*
X55343Y388579D01*
D02*
G37*
G36*
X68152Y382942D02*
X68277Y382914D01*
X68388Y382872D01*
X68485Y382817D01*
X68555Y382761D01*
X68610Y382720D01*
X68638Y382692D01*
X68652Y382678D01*
X68735Y382553D01*
X68790Y382415D01*
X68846Y382262D01*
X68873Y382109D01*
X68887Y381971D01*
X68901Y381860D01*
Y381749D01*
X72174D01*
X72410Y381735D01*
X72618Y381721D01*
X73020Y381638D01*
X73200Y381582D01*
X73367Y381513D01*
X73519Y381444D01*
X73658Y381388D01*
X73783Y381319D01*
X73894Y381250D01*
X73977Y381180D01*
X74060Y381125D01*
X74116Y381083D01*
X74157Y381042D01*
X74185Y381028D01*
X74199Y381014D01*
X74379Y380834D01*
X74518Y380639D01*
X74657Y380445D01*
X74767Y380237D01*
X74865Y380029D01*
X74948Y379821D01*
X75003Y379627D01*
X75059Y379433D01*
X75100Y379253D01*
X75128Y379072D01*
X75156Y378920D01*
X75170Y378795D01*
X75184Y378684D01*
Y378531D01*
X75170Y378282D01*
X75156Y378046D01*
X75114Y377838D01*
X75086Y377644D01*
X75045Y377491D01*
X75003Y377366D01*
X74989Y377297D01*
X74976Y377269D01*
X74892Y377061D01*
X74795Y376853D01*
X74684Y376687D01*
X74587Y376521D01*
X74490Y376396D01*
X74421Y376299D01*
X74365Y376243D01*
X74352Y376215D01*
X74962D01*
Y374454D01*
X74948Y374218D01*
X74920Y374024D01*
X74879Y373858D01*
X74837Y373733D01*
X74795Y373636D01*
X74754Y373567D01*
X74726Y373525D01*
X74712Y373511D01*
X74615Y373428D01*
X74518Y373358D01*
X74407Y373317D01*
X74310Y373275D01*
X74227Y373261D01*
X74157Y373248D01*
X74102D01*
X74088D01*
X73949Y373261D01*
X73811Y373289D01*
X73700Y373331D01*
X73616Y373386D01*
X73533Y373428D01*
X73478Y373470D01*
X73450Y373497D01*
X73436Y373511D01*
X73353Y373636D01*
X73298Y373775D01*
X73256Y373927D01*
X73228Y374094D01*
X73214Y374232D01*
X73200Y374343D01*
Y374454D01*
X68901D01*
Y374232D01*
X68873Y374038D01*
X68846Y373899D01*
X68818Y373788D01*
X68790Y373705D01*
X68762Y373650D01*
X68749Y373622D01*
X68735Y373608D01*
X68610Y373483D01*
X68485Y373400D01*
X68374Y373331D01*
X68263Y373289D01*
X68166Y373261D01*
X68097Y373248D01*
X68041D01*
X68028D01*
X67889Y373261D01*
X67750Y373289D01*
X67639Y373331D01*
X67556Y373386D01*
X67473Y373428D01*
X67417Y373470D01*
X67389Y373497D01*
X67376Y373511D01*
X67292Y373636D01*
X67237Y373775D01*
X67195Y373927D01*
X67168Y374094D01*
X67154Y374232D01*
X67140Y374343D01*
Y376215D01*
X67154Y376437D01*
X67182Y376632D01*
X67209Y376798D01*
X67265Y376923D01*
X67306Y377020D01*
X67334Y377089D01*
X67362Y377131D01*
X67376Y377145D01*
X67473Y377242D01*
X67570Y377311D01*
X67681Y377353D01*
X67778Y377394D01*
X67875Y377408D01*
X67944Y377422D01*
X68000D01*
X68014D01*
X68152Y377408D01*
X68291Y377366D01*
X68416Y377297D01*
X68527Y377242D01*
X68610Y377172D01*
X68679Y377103D01*
X68721Y377061D01*
X68735Y377048D01*
X68790Y376964D01*
X68832Y376839D01*
X68860Y376701D01*
X68887Y376562D01*
Y376437D01*
X68901Y376326D01*
Y376215D01*
X72174D01*
X72438Y376465D01*
X72646Y376701D01*
X72826Y376895D01*
X72965Y377061D01*
X73062Y377200D01*
X73131Y377297D01*
X73159Y377366D01*
X73173Y377380D01*
X73256Y377561D01*
X73311Y377741D01*
X73367Y377921D01*
X73394Y378088D01*
X73408Y378226D01*
X73422Y378351D01*
Y378448D01*
X73408Y378740D01*
X73367Y378989D01*
X73311Y379197D01*
X73256Y379364D01*
X73186Y379502D01*
X73131Y379599D01*
X73089Y379655D01*
X73076Y379669D01*
X72965Y379780D01*
X72826Y379849D01*
X72687Y379904D01*
X72549Y379946D01*
X72424Y379974D01*
X72327Y379988D01*
X72257D01*
X72230D01*
X68901D01*
X68887Y379752D01*
X68860Y379558D01*
X68818Y379391D01*
X68776Y379267D01*
X68735Y379169D01*
X68693Y379100D01*
X68665Y379058D01*
X68652Y379045D01*
X68555Y378961D01*
X68457Y378892D01*
X68346Y378850D01*
X68249Y378809D01*
X68166Y378795D01*
X68097Y378781D01*
X68041D01*
X68028D01*
X67889Y378795D01*
X67750Y378823D01*
X67639Y378864D01*
X67556Y378920D01*
X67473Y378961D01*
X67417Y379003D01*
X67389Y379031D01*
X67376Y379045D01*
X67292Y379169D01*
X67237Y379308D01*
X67195Y379461D01*
X67168Y379627D01*
X67154Y379766D01*
X67140Y379877D01*
Y381749D01*
X67154Y381971D01*
X67182Y382165D01*
X67209Y382331D01*
X67265Y382456D01*
X67306Y382553D01*
X67334Y382623D01*
X67362Y382664D01*
X67376Y382678D01*
X67473Y382775D01*
X67570Y382845D01*
X67681Y382886D01*
X67778Y382928D01*
X67875Y382942D01*
X67944Y382956D01*
X68000D01*
X68014D01*
X68152Y382942D01*
D02*
G37*
G36*
X85413Y382200D02*
X85524Y382172D01*
X85635Y382130D01*
X85732Y382089D01*
X85801Y382047D01*
X85857Y382006D01*
X85884Y381978D01*
X85898Y381964D01*
X85982Y381867D01*
X86037Y381770D01*
X86093Y381673D01*
X86120Y381576D01*
X86134Y381492D01*
X86148Y381423D01*
Y381367D01*
X86134Y381257D01*
X86120Y381118D01*
X86093Y380965D01*
X86065Y380813D01*
X86023Y380660D01*
X85995Y380549D01*
X85982Y380466D01*
X85968Y380452D01*
Y380438D01*
X85898Y380147D01*
X85829Y379856D01*
X85787Y379592D01*
X85732Y379343D01*
X85690Y379121D01*
X85662Y378899D01*
X85635Y378705D01*
X85621Y378525D01*
X85593Y378372D01*
Y378233D01*
X85579Y378108D01*
X85566Y378011D01*
Y377831D01*
X85579Y377401D01*
X85635Y377027D01*
X85704Y376708D01*
X85732Y376569D01*
X85773Y376430D01*
X85815Y376319D01*
X85857Y376222D01*
X85884Y376125D01*
X85912Y376056D01*
X85940Y376001D01*
X85968Y375959D01*
X85982Y375945D01*
Y375931D01*
X86148Y375681D01*
X86328Y375487D01*
X86522Y375307D01*
X86689Y375182D01*
X86855Y375085D01*
X86980Y375016D01*
X87063Y374974D01*
X87077Y374960D01*
X87091D01*
Y382200D01*
X87826D01*
X88145Y382186D01*
X88436Y382158D01*
X88700Y382116D01*
X88922Y382061D01*
X89102Y382006D01*
X89241Y381964D01*
X89282Y381950D01*
X89324Y381936D01*
X89338Y381922D01*
X89352D01*
X89684Y381770D01*
X89990Y381589D01*
X90253Y381423D01*
X90489Y381257D01*
X90669Y381118D01*
X90808Y381007D01*
X90849Y380951D01*
X90891Y380924D01*
X90905Y380910D01*
X90919Y380896D01*
X91085Y380716D01*
X91238Y380494D01*
X91376Y380272D01*
X91501Y380064D01*
X91598Y379856D01*
X91668Y379703D01*
X91695Y379634D01*
X91723Y379592D01*
X91737Y379565D01*
Y379551D01*
X91862Y379218D01*
X91959Y378871D01*
X92028Y378538D01*
X92084Y378233D01*
X92098Y378095D01*
X92111Y377970D01*
Y377859D01*
X92125Y377762D01*
Y377581D01*
X92111Y377249D01*
X92070Y376930D01*
X92014Y376624D01*
X91945Y376333D01*
X91862Y376056D01*
X91751Y375792D01*
X91654Y375557D01*
X91543Y375335D01*
X91432Y375127D01*
X91335Y374947D01*
X91238Y374794D01*
X91141Y374669D01*
X91071Y374558D01*
X91016Y374489D01*
X90974Y374433D01*
X90960Y374420D01*
X90738Y374184D01*
X90503Y373962D01*
X90253Y373782D01*
X90003Y373629D01*
X89740Y373490D01*
X89490Y373379D01*
X89241Y373296D01*
X89019Y373213D01*
X88797Y373157D01*
X88589Y373116D01*
X88408Y373088D01*
X88242Y373074D01*
X88117Y373060D01*
X88020Y373046D01*
X87965D01*
X87937D01*
X87618Y373060D01*
X87313Y373102D01*
X87022Y373157D01*
X86744Y373241D01*
X86481Y373338D01*
X86245Y373449D01*
X86009Y373560D01*
X85815Y373684D01*
X85635Y373795D01*
X85468Y373906D01*
X85330Y374017D01*
X85205Y374114D01*
X85122Y374198D01*
X85052Y374253D01*
X85011Y374295D01*
X84997Y374309D01*
X84789Y374558D01*
X84608Y374822D01*
X84442Y375099D01*
X84303Y375376D01*
X84192Y375668D01*
X84095Y375945D01*
X84012Y376222D01*
X83957Y376486D01*
X83901Y376735D01*
X83874Y376971D01*
X83846Y377179D01*
X83818Y377360D01*
Y377498D01*
X83804Y377609D01*
Y377706D01*
X83818Y378164D01*
X83846Y378622D01*
X83887Y379052D01*
X83915Y379246D01*
X83943Y379440D01*
X83971Y379620D01*
X83998Y379773D01*
X84012Y379911D01*
X84040Y380036D01*
X84054Y380133D01*
X84068Y380203D01*
X84081Y380244D01*
Y380258D01*
X84137Y380494D01*
X84192Y380716D01*
X84248Y380910D01*
X84303Y381090D01*
X84359Y381243D01*
X84401Y381381D01*
X84456Y381506D01*
X84498Y381603D01*
X84539Y381700D01*
X84581Y381770D01*
X84636Y381881D01*
X84678Y381936D01*
X84692Y381950D01*
X84789Y382033D01*
X84886Y382103D01*
X84983Y382144D01*
X85066Y382186D01*
X85149Y382200D01*
X85219Y382214D01*
X85260D01*
X85274D01*
X85413Y382200D01*
D02*
G37*
G36*
X85094Y372589D02*
X85219Y372561D01*
X85330Y372519D01*
X85427Y372464D01*
X85496Y372409D01*
X85552Y372367D01*
X85579Y372339D01*
X85593Y372325D01*
X85676Y372201D01*
X85732Y372062D01*
X85787Y371909D01*
X85815Y371757D01*
X85829Y371618D01*
X85843Y371507D01*
Y370925D01*
X86398Y370689D01*
X86647Y370564D01*
X86897Y370453D01*
X87119Y370328D01*
X87341Y370217D01*
X87535Y370106D01*
X87715Y369995D01*
X87868Y369898D01*
X88006Y369801D01*
X88131Y369732D01*
X88242Y369663D01*
X88311Y369607D01*
X88381Y369566D01*
X88408Y369538D01*
X88422Y369524D01*
X88797Y369233D01*
X89116Y368941D01*
X89379Y368650D01*
X89601Y368401D01*
X89768Y368179D01*
X89837Y368096D01*
X89892Y368012D01*
X89934Y367943D01*
X89962Y367901D01*
X89990Y367874D01*
Y367860D01*
X92749Y371049D01*
X92763Y371271D01*
X92791Y371465D01*
X92819Y371632D01*
X92874Y371757D01*
X92916Y371854D01*
X92943Y371923D01*
X92971Y371965D01*
X92985Y371979D01*
X93082Y372076D01*
X93193Y372145D01*
X93304Y372187D01*
X93401Y372228D01*
X93498Y372242D01*
X93567Y372256D01*
X93623D01*
X93637D01*
X93776Y372242D01*
X93900Y372214D01*
X94011Y372173D01*
X94094Y372117D01*
X94164Y372062D01*
X94219Y372020D01*
X94247Y371992D01*
X94261Y371979D01*
X94344Y371854D01*
X94400Y371715D01*
X94455Y371563D01*
X94483Y371410D01*
X94497Y371271D01*
X94511Y371160D01*
Y371049D01*
X94524Y368484D01*
X94511Y368498D01*
X94483Y368484D01*
X94441Y368442D01*
X94400Y368401D01*
X94303Y368317D01*
X94275Y368290D01*
X94261Y368276D01*
X94164Y368193D01*
X94053Y368123D01*
X93956Y368082D01*
X93845Y368040D01*
X93762Y368026D01*
X93692Y368012D01*
X93637D01*
X93623D01*
X93484Y368026D01*
X93359Y368054D01*
X93262Y368096D01*
X93179Y368151D01*
X93110Y368193D01*
X93068Y368234D01*
X93041Y368262D01*
X93027Y368276D01*
X92957Y368359D01*
X92916Y368428D01*
X92874Y368470D01*
X92860Y368484D01*
X92832Y368498D01*
Y368484D01*
X90128Y365350D01*
X92749D01*
Y365988D01*
X92763Y366182D01*
X92791Y366362D01*
X92819Y366501D01*
X92874Y366625D01*
X92916Y366722D01*
X92943Y366778D01*
X92971Y366820D01*
X92985Y366833D01*
X93082Y366931D01*
X93193Y367000D01*
X93304Y367042D01*
X93401Y367083D01*
X93498Y367097D01*
X93567Y367111D01*
X93623D01*
X93637D01*
X93776Y367097D01*
X93900Y367069D01*
X94011Y367028D01*
X94094Y366972D01*
X94164Y366917D01*
X94219Y366875D01*
X94247Y366847D01*
X94261Y366833D01*
X94344Y366722D01*
X94400Y366584D01*
X94455Y366445D01*
X94483Y366306D01*
X94497Y366182D01*
X94511Y366085D01*
Y365988D01*
X94524Y363311D01*
X94511Y363103D01*
X94483Y362936D01*
X94441Y362784D01*
X94400Y362659D01*
X94358Y362576D01*
X94316Y362506D01*
X94289Y362465D01*
X94275Y362451D01*
X94178Y362368D01*
X94081Y362299D01*
X93970Y362257D01*
X93873Y362215D01*
X93776Y362201D01*
X93706Y362188D01*
X93651D01*
X93637D01*
X93498Y362201D01*
X93373Y362229D01*
X93262Y362271D01*
X93165Y362326D01*
X93096Y362368D01*
X93041Y362409D01*
X93013Y362437D01*
X92999Y362451D01*
X92916Y362562D01*
X92860Y362701D01*
X92819Y362839D01*
X92791Y362992D01*
X92777Y363117D01*
X92763Y363214D01*
Y363588D01*
X85843D01*
Y363311D01*
X85829Y363103D01*
X85801Y362936D01*
X85760Y362784D01*
X85718Y362659D01*
X85676Y362576D01*
X85635Y362506D01*
X85607Y362465D01*
X85593Y362451D01*
X85496Y362368D01*
X85399Y362299D01*
X85288Y362257D01*
X85191Y362215D01*
X85108Y362201D01*
X85038Y362188D01*
X84983D01*
X84969D01*
X84830Y362201D01*
X84692Y362229D01*
X84581Y362271D01*
X84498Y362326D01*
X84414Y362368D01*
X84359Y362409D01*
X84331Y362437D01*
X84317Y362451D01*
X84234Y362562D01*
X84179Y362701D01*
X84137Y362839D01*
X84109Y362992D01*
X84095Y363117D01*
X84081Y363214D01*
Y365988D01*
X84095Y366182D01*
X84123Y366362D01*
X84151Y366501D01*
X84206Y366625D01*
X84248Y366722D01*
X84276Y366778D01*
X84303Y366820D01*
X84317Y366833D01*
X84414Y366931D01*
X84511Y367000D01*
X84622Y367042D01*
X84719Y367083D01*
X84817Y367097D01*
X84886Y367111D01*
X84941D01*
X84955D01*
X85094Y367097D01*
X85219Y367069D01*
X85330Y367028D01*
X85427Y366972D01*
X85496Y366917D01*
X85552Y366875D01*
X85579Y366847D01*
X85593Y366833D01*
X85676Y366722D01*
X85732Y366584D01*
X85787Y366445D01*
X85815Y366306D01*
X85829Y366182D01*
X85843Y366085D01*
Y365350D01*
X87798D01*
X88728Y366431D01*
X88617Y366667D01*
X88492Y366889D01*
X88381Y367083D01*
X88270Y367249D01*
X88159Y367388D01*
X88076Y367485D01*
X88020Y367541D01*
X88006Y367569D01*
X87812Y367749D01*
X87604Y367929D01*
X87368Y368109D01*
X87133Y368262D01*
X86925Y368387D01*
X86827Y368442D01*
X86744Y368498D01*
X86689Y368525D01*
X86633Y368553D01*
X86606Y368581D01*
X86592D01*
X86148Y368817D01*
X85690Y369039D01*
X85274Y369247D01*
X85080Y369344D01*
X84886Y369427D01*
X84719Y369510D01*
X84567Y369579D01*
X84428Y369635D01*
X84303Y369690D01*
X84206Y369732D01*
X84137Y369760D01*
X84095Y369787D01*
X84081D01*
Y371396D01*
X84095Y371618D01*
X84123Y371812D01*
X84151Y371979D01*
X84206Y372103D01*
X84248Y372201D01*
X84276Y372270D01*
X84303Y372312D01*
X84317Y372325D01*
X84414Y372422D01*
X84511Y372492D01*
X84622Y372533D01*
X84719Y372575D01*
X84817Y372589D01*
X84886Y372603D01*
X84941D01*
X84955D01*
X85094Y372589D01*
D02*
G37*
G36*
X71300Y371986D02*
X71675Y371930D01*
X72022Y371833D01*
X72327Y371736D01*
X72465Y371680D01*
X72590Y371625D01*
X72701Y371583D01*
X72798Y371528D01*
X72867Y371500D01*
X72923Y371472D01*
X72951Y371445D01*
X72965D01*
X73325Y371209D01*
X73644Y370945D01*
X73921Y370654D01*
X74143Y370391D01*
X74338Y370141D01*
X74407Y370030D01*
X74462Y369933D01*
X74518Y369864D01*
X74546Y369808D01*
X74573Y369767D01*
Y369753D01*
X74684Y369545D01*
X74781Y369337D01*
X74920Y368921D01*
X75031Y368532D01*
X75114Y368186D01*
X75128Y368019D01*
X75156Y367881D01*
X75170Y367756D01*
Y367645D01*
X75184Y367561D01*
Y367215D01*
X75156Y366993D01*
X75086Y366563D01*
X74989Y366175D01*
X74948Y365994D01*
X74892Y365828D01*
X74837Y365675D01*
X74781Y365551D01*
X74726Y365426D01*
X74684Y365329D01*
X74643Y365246D01*
X74615Y365190D01*
X74601Y365148D01*
X74587Y365135D01*
X74352Y364746D01*
X74088Y364413D01*
X73825Y364122D01*
X73561Y363886D01*
X73339Y363692D01*
X73228Y363623D01*
X73145Y363567D01*
X73076Y363512D01*
X73020Y363484D01*
X72992Y363470D01*
X72979Y363456D01*
X72604Y363262D01*
X72230Y363124D01*
X71883Y363013D01*
X71564Y362943D01*
X71425Y362929D01*
X71300Y362902D01*
X71189Y362888D01*
X71092D01*
X71023Y362874D01*
X70954D01*
X70926D01*
X70912D01*
X70524Y362902D01*
X70163Y362957D01*
X69830Y363054D01*
X69525Y363165D01*
X69387Y363207D01*
X69276Y363262D01*
X69165Y363318D01*
X69082Y363359D01*
X69012Y363387D01*
X68957Y363415D01*
X68929Y363443D01*
X68915D01*
X68582Y363678D01*
X68277Y363956D01*
X68014Y364233D01*
X67806Y364497D01*
X67625Y364746D01*
X67556Y364843D01*
X67501Y364940D01*
X67459Y365010D01*
X67431Y365079D01*
X67403Y365107D01*
Y365121D01*
X67223Y365537D01*
X67084Y365953D01*
X67001Y366341D01*
X66932Y366702D01*
X66904Y366854D01*
X66890Y366993D01*
X66876Y367118D01*
Y367229D01*
X66863Y367312D01*
Y367437D01*
X66890Y367881D01*
X66946Y368310D01*
X67043Y368699D01*
X67084Y368879D01*
X67140Y369045D01*
X67195Y369198D01*
X67237Y369337D01*
X67292Y369462D01*
X67334Y369559D01*
X67362Y369642D01*
X67389Y369697D01*
X67417Y369739D01*
Y369753D01*
X67639Y370155D01*
X67889Y370488D01*
X68152Y370779D01*
X68388Y371015D01*
X68596Y371209D01*
X68693Y371278D01*
X68776Y371334D01*
X68832Y371389D01*
X68887Y371417D01*
X68915Y371445D01*
X68929D01*
X69289Y371639D01*
X69636Y371777D01*
X69969Y371875D01*
X70274Y371944D01*
X70413Y371972D01*
X70524Y371986D01*
X70635Y371999D01*
X70732D01*
X70801Y372013D01*
X70857D01*
X70884D01*
X70898D01*
X71300Y371986D01*
D02*
G37*
G36*
X69179Y361529D02*
X69303Y361501D01*
X69414Y361459D01*
X69497Y361404D01*
X69581Y361348D01*
X69636Y361307D01*
X69664Y361279D01*
X69678Y361265D01*
X69775Y361168D01*
X69844Y361057D01*
X69886Y360960D01*
X69927Y360863D01*
X69941Y360780D01*
X69955Y360711D01*
Y360655D01*
X69941Y360516D01*
X69914Y360392D01*
X69886Y360322D01*
X69872Y360308D01*
Y360294D01*
X69830Y360239D01*
X69775Y360170D01*
X69664Y360017D01*
X69608Y359962D01*
X69553Y359906D01*
X69525Y359879D01*
X69511Y359865D01*
X69359Y359698D01*
X69220Y359546D01*
X69123Y359407D01*
X69040Y359282D01*
X68970Y359171D01*
X68929Y359088D01*
X68915Y359033D01*
X68901Y359019D01*
X68818Y358755D01*
X68749Y358478D01*
X68707Y358200D01*
X68665Y357937D01*
X68652Y357701D01*
Y357604D01*
X68638Y357521D01*
Y357354D01*
X68652Y357063D01*
X68679Y356772D01*
X68721Y356508D01*
X68776Y356259D01*
X68832Y356037D01*
X68901Y355829D01*
X68984Y355635D01*
X69068Y355454D01*
X69137Y355302D01*
X69220Y355163D01*
X69289Y355052D01*
X69359Y354955D01*
X69400Y354886D01*
X69442Y354830D01*
X69470Y354803D01*
X69484Y354789D01*
X69650Y354622D01*
X69816Y354484D01*
X69997Y354359D01*
X70177Y354262D01*
X70357Y354165D01*
X70524Y354095D01*
X70857Y353984D01*
X71023Y353957D01*
X71162Y353929D01*
X71287Y353901D01*
X71398Y353887D01*
X71481Y353873D01*
X71550D01*
X71592D01*
X71606D01*
X72757D01*
X73145Y353901D01*
X73492Y353957D01*
X73811Y354026D01*
X74074Y354123D01*
X74199Y354165D01*
X74296Y354220D01*
X74393Y354262D01*
X74462Y354290D01*
X74518Y354331D01*
X74559Y354345D01*
X74587Y354373D01*
X74601D01*
X74879Y354567D01*
X75100Y354775D01*
X75294Y354969D01*
X75461Y355149D01*
X75572Y355302D01*
X75655Y355427D01*
X75711Y355510D01*
X75724Y355524D01*
Y355538D01*
X75835Y355787D01*
X75919Y356051D01*
X75988Y356287D01*
X76030Y356522D01*
X76057Y356703D01*
X76071Y356855D01*
Y356994D01*
X76057Y357230D01*
X76030Y357465D01*
X76002Y357673D01*
X75960Y357868D01*
X75905Y358034D01*
X75877Y358159D01*
X75849Y358242D01*
X75835Y358270D01*
X75738Y358492D01*
X75641Y358700D01*
X75530Y358866D01*
X75433Y359005D01*
X75350Y359116D01*
X75281Y359185D01*
X75225Y359240D01*
X75211Y359254D01*
X75128Y359324D01*
X75045Y359365D01*
X74865Y359449D01*
X74781Y359476D01*
X74712Y359490D01*
X74670Y359504D01*
X74657D01*
X74476Y359546D01*
X74310Y359587D01*
X74185Y359643D01*
X74088Y359698D01*
X74019Y359740D01*
X73963Y359781D01*
X73935Y359795D01*
X73921Y359809D01*
X73852Y359892D01*
X73811Y359989D01*
X73755Y360184D01*
X73741Y360253D01*
X73727Y360322D01*
Y360378D01*
X73741Y360516D01*
X73769Y360641D01*
X73811Y360752D01*
X73866Y360849D01*
X73908Y360919D01*
X73949Y360974D01*
X73977Y361002D01*
X73991Y361016D01*
X74116Y361099D01*
X74254Y361154D01*
X74393Y361210D01*
X74546Y361238D01*
X74684Y361251D01*
X74795Y361265D01*
X74865D01*
X74892D01*
X76390D01*
X76612Y361251D01*
X76806Y361224D01*
X76959Y361182D01*
X77084Y361141D01*
X77181Y361099D01*
X77236Y361057D01*
X77278Y361030D01*
X77292Y361016D01*
X77389Y360919D01*
X77458Y360808D01*
X77500Y360711D01*
X77541Y360600D01*
X77555Y360516D01*
X77569Y360447D01*
Y360378D01*
X77555Y360225D01*
X77513Y360087D01*
X77486Y360031D01*
X77458Y359989D01*
X77444Y359976D01*
Y359962D01*
X77347Y359823D01*
X77236Y359712D01*
X77153Y359643D01*
X77125Y359629D01*
X77111Y359615D01*
X77236Y359393D01*
X77347Y359171D01*
X77444Y358963D01*
X77513Y358769D01*
X77583Y358603D01*
X77624Y358478D01*
X77638Y358395D01*
X77652Y358381D01*
Y358367D01*
X77708Y358117D01*
X77763Y357868D01*
X77791Y357618D01*
X77805Y357410D01*
X77819Y357216D01*
X77832Y357063D01*
Y356703D01*
X77805Y356467D01*
X77735Y356023D01*
X77624Y355621D01*
X77569Y355427D01*
X77513Y355260D01*
X77444Y355094D01*
X77389Y354955D01*
X77333Y354830D01*
X77278Y354719D01*
X77236Y354636D01*
X77208Y354581D01*
X77194Y354539D01*
X77181Y354525D01*
X76917Y354123D01*
X76612Y353763D01*
X76307Y353457D01*
X76016Y353208D01*
X75752Y353014D01*
X75627Y352930D01*
X75530Y352875D01*
X75447Y352819D01*
X75392Y352778D01*
X75350Y352764D01*
X75336Y352750D01*
X75114Y352639D01*
X74892Y352542D01*
X74435Y352376D01*
X74005Y352265D01*
X73616Y352195D01*
X73436Y352168D01*
X73270Y352140D01*
X73131Y352126D01*
X73006D01*
X72909Y352112D01*
X72826D01*
X72784D01*
X72771D01*
X71578D01*
X71328Y352126D01*
X71092Y352140D01*
X70635Y352223D01*
X70233Y352334D01*
X70038Y352403D01*
X69858Y352473D01*
X69706Y352528D01*
X69567Y352598D01*
X69442Y352653D01*
X69331Y352709D01*
X69248Y352750D01*
X69192Y352792D01*
X69151Y352806D01*
X69137Y352819D01*
X68943Y352958D01*
X68749Y353097D01*
X68416Y353402D01*
X68138Y353679D01*
X67916Y353957D01*
X67736Y354192D01*
X67667Y354303D01*
X67611Y354387D01*
X67570Y354456D01*
X67542Y354511D01*
X67514Y354539D01*
Y354553D01*
X67403Y354789D01*
X67306Y355038D01*
X67140Y355524D01*
X67029Y355995D01*
X66987Y356217D01*
X66960Y356425D01*
X66932Y356633D01*
X66904Y356814D01*
X66890Y356966D01*
Y357105D01*
X66876Y357216D01*
Y357368D01*
X66890Y357854D01*
X66946Y358325D01*
X67015Y358741D01*
X67057Y358922D01*
X67112Y359102D01*
X67154Y359254D01*
X67195Y359407D01*
X67223Y359532D01*
X67265Y359629D01*
X67292Y359712D01*
X67320Y359767D01*
X67334Y359809D01*
Y359823D01*
X67473Y360114D01*
X67625Y360392D01*
X67792Y360614D01*
X67930Y360808D01*
X68069Y360960D01*
X68180Y361071D01*
X68249Y361141D01*
X68277Y361168D01*
X68430Y361293D01*
X68568Y361390D01*
X68707Y361446D01*
X68818Y361501D01*
X68915Y361529D01*
X68998Y361543D01*
X69040D01*
X69054D01*
X69179Y361529D01*
D02*
G37*
G36*
X109012Y374651D02*
X109137Y374624D01*
X109248Y374582D01*
X109345Y374526D01*
X109415Y374471D01*
X109470Y374429D01*
X109498Y374402D01*
X109512Y374388D01*
X109595Y374263D01*
X109650Y374124D01*
X109706Y373972D01*
X109733Y373819D01*
X109747Y373680D01*
X109761Y373570D01*
Y372987D01*
X110316Y372751D01*
X110566Y372626D01*
X110815Y372516D01*
X111037Y372391D01*
X111259Y372280D01*
X111453Y372169D01*
X111634Y372058D01*
X111786Y371961D01*
X111925Y371864D01*
X112050Y371794D01*
X112161Y371725D01*
X112230Y371670D01*
X112299Y371628D01*
X112327Y371600D01*
X112341Y371586D01*
X112715Y371295D01*
X113034Y371004D01*
X113298Y370713D01*
X113520Y370463D01*
X113686Y370241D01*
X113755Y370158D01*
X113811Y370075D01*
X113852Y370005D01*
X113880Y369964D01*
X113908Y369936D01*
Y369922D01*
X116668Y373112D01*
X116682Y373334D01*
X116709Y373528D01*
X116737Y373694D01*
X116792Y373819D01*
X116834Y373916D01*
X116862Y373986D01*
X116890Y374027D01*
X116903Y374041D01*
X117001Y374138D01*
X117112Y374207D01*
X117222Y374249D01*
X117319Y374291D01*
X117417Y374305D01*
X117486Y374319D01*
X117541D01*
X117555D01*
X117694Y374305D01*
X117819Y374277D01*
X117930Y374235D01*
X118013Y374180D01*
X118082Y374124D01*
X118138Y374083D01*
X118166Y374055D01*
X118179Y374041D01*
X118263Y373916D01*
X118318Y373778D01*
X118373Y373625D01*
X118401Y373473D01*
X118415Y373334D01*
X118429Y373223D01*
Y373112D01*
X118443Y370546D01*
X118429Y370560D01*
X118401Y370546D01*
X118360Y370505D01*
X118318Y370463D01*
X118221Y370380D01*
X118193Y370352D01*
X118179Y370338D01*
X118082Y370255D01*
X117971Y370186D01*
X117874Y370144D01*
X117763Y370103D01*
X117680Y370089D01*
X117611Y370075D01*
X117555D01*
X117541D01*
X117403Y370089D01*
X117278Y370116D01*
X117181Y370158D01*
X117098Y370213D01*
X117028Y370255D01*
X116987Y370297D01*
X116959Y370324D01*
X116945Y370338D01*
X116876Y370421D01*
X116834Y370491D01*
X116792Y370532D01*
X116779Y370546D01*
X116751Y370560D01*
Y370546D01*
X114047Y367412D01*
X116668D01*
Y368050D01*
X116682Y368244D01*
X116709Y368424D01*
X116737Y368563D01*
X116792Y368688D01*
X116834Y368785D01*
X116862Y368840D01*
X116890Y368882D01*
X116903Y368896D01*
X117001Y368993D01*
X117112Y369062D01*
X117222Y369104D01*
X117319Y369146D01*
X117417Y369159D01*
X117486Y369173D01*
X117541D01*
X117555D01*
X117694Y369159D01*
X117819Y369132D01*
X117930Y369090D01*
X118013Y369035D01*
X118082Y368979D01*
X118138Y368937D01*
X118166Y368910D01*
X118179Y368896D01*
X118263Y368785D01*
X118318Y368646D01*
X118373Y368508D01*
X118401Y368369D01*
X118415Y368244D01*
X118429Y368147D01*
Y368050D01*
X118443Y365373D01*
X118429Y365165D01*
X118401Y364999D01*
X118360Y364846D01*
X118318Y364721D01*
X118276Y364638D01*
X118235Y364569D01*
X118207Y364527D01*
X118193Y364514D01*
X118096Y364430D01*
X117999Y364361D01*
X117888Y364319D01*
X117791Y364278D01*
X117694Y364264D01*
X117625Y364250D01*
X117569D01*
X117555D01*
X117417Y364264D01*
X117292Y364292D01*
X117181Y364333D01*
X117084Y364389D01*
X117014Y364430D01*
X116959Y364472D01*
X116931Y364500D01*
X116917Y364514D01*
X116834Y364624D01*
X116779Y364763D01*
X116737Y364902D01*
X116709Y365054D01*
X116695Y365179D01*
X116682Y365276D01*
Y365651D01*
X109761D01*
Y365373D01*
X109747Y365165D01*
X109720Y364999D01*
X109678Y364846D01*
X109636Y364721D01*
X109595Y364638D01*
X109553Y364569D01*
X109525Y364527D01*
X109512Y364514D01*
X109415Y364430D01*
X109318Y364361D01*
X109206Y364319D01*
X109109Y364278D01*
X109026Y364264D01*
X108957Y364250D01*
X108901D01*
X108888D01*
X108749Y364264D01*
X108610Y364292D01*
X108499Y364333D01*
X108416Y364389D01*
X108333Y364430D01*
X108277Y364472D01*
X108250Y364500D01*
X108236Y364514D01*
X108153Y364624D01*
X108097Y364763D01*
X108055Y364902D01*
X108028Y365054D01*
X108014Y365179D01*
X108000Y365276D01*
Y368050D01*
X108014Y368244D01*
X108042Y368424D01*
X108069Y368563D01*
X108125Y368688D01*
X108166Y368785D01*
X108194Y368840D01*
X108222Y368882D01*
X108236Y368896D01*
X108333Y368993D01*
X108430Y369062D01*
X108541Y369104D01*
X108638Y369146D01*
X108735Y369159D01*
X108804Y369173D01*
X108860D01*
X108874D01*
X109012Y369159D01*
X109137Y369132D01*
X109248Y369090D01*
X109345Y369035D01*
X109415Y368979D01*
X109470Y368937D01*
X109498Y368910D01*
X109512Y368896D01*
X109595Y368785D01*
X109650Y368646D01*
X109706Y368508D01*
X109733Y368369D01*
X109747Y368244D01*
X109761Y368147D01*
Y367412D01*
X111717D01*
X112646Y368494D01*
X112535Y368730D01*
X112410Y368951D01*
X112299Y369146D01*
X112188Y369312D01*
X112077Y369451D01*
X111994Y369548D01*
X111939Y369603D01*
X111925Y369631D01*
X111731Y369811D01*
X111523Y369991D01*
X111287Y370172D01*
X111051Y370324D01*
X110843Y370449D01*
X110746Y370505D01*
X110663Y370560D01*
X110607Y370588D01*
X110552Y370616D01*
X110524Y370643D01*
X110510D01*
X110066Y370879D01*
X109609Y371101D01*
X109193Y371309D01*
X108998Y371406D01*
X108804Y371489D01*
X108638Y371572D01*
X108485Y371642D01*
X108347Y371697D01*
X108222Y371753D01*
X108125Y371794D01*
X108055Y371822D01*
X108014Y371850D01*
X108000D01*
Y373459D01*
X108014Y373680D01*
X108042Y373875D01*
X108069Y374041D01*
X108125Y374166D01*
X108166Y374263D01*
X108194Y374332D01*
X108222Y374374D01*
X108236Y374388D01*
X108333Y374485D01*
X108430Y374554D01*
X108541Y374596D01*
X108638Y374637D01*
X108735Y374651D01*
X108804Y374665D01*
X108860D01*
X108874D01*
X109012Y374651D01*
D02*
G37*
G36*
X115124Y362734D02*
X115405Y362692D01*
X115666Y362619D01*
X115895Y362546D01*
X115999Y362505D01*
X116093Y362463D01*
X116176Y362432D01*
X116249Y362390D01*
X116301Y362369D01*
X116343Y362349D01*
X116363Y362328D01*
X116374D01*
X116645Y362151D01*
X116884Y361953D01*
X117092Y361734D01*
X117259Y361536D01*
X117405Y361349D01*
X117457Y361265D01*
X117499Y361193D01*
X117540Y361141D01*
X117561Y361099D01*
X117582Y361068D01*
Y361057D01*
X117665Y360901D01*
X117738Y360745D01*
X117842Y360432D01*
X117926Y360141D01*
X117988Y359880D01*
X117998Y359755D01*
X118019Y359651D01*
X118030Y359557D01*
Y359474D01*
X118040Y359412D01*
Y359151D01*
X118019Y358985D01*
X117967Y358662D01*
X117894Y358370D01*
X117863Y358235D01*
X117821Y358110D01*
X117780Y357995D01*
X117738Y357902D01*
X117696Y357808D01*
X117665Y357735D01*
X117634Y357673D01*
X117613Y357631D01*
X117603Y357600D01*
X117592Y357589D01*
X117415Y357298D01*
X117217Y357048D01*
X117020Y356829D01*
X116822Y356652D01*
X116655Y356506D01*
X116572Y356454D01*
X116509Y356413D01*
X116457Y356371D01*
X116416Y356350D01*
X116395Y356340D01*
X116384Y356329D01*
X116103Y356183D01*
X115822Y356079D01*
X115562Y355996D01*
X115322Y355944D01*
X115218Y355933D01*
X115124Y355913D01*
X115041Y355902D01*
X114968D01*
X114916Y355892D01*
X114864D01*
X114843D01*
X114833D01*
X114541Y355913D01*
X114270Y355954D01*
X114020Y356027D01*
X113791Y356110D01*
X113687Y356142D01*
X113604Y356183D01*
X113520Y356225D01*
X113458Y356256D01*
X113406Y356277D01*
X113364Y356298D01*
X113343Y356319D01*
X113333D01*
X113083Y356496D01*
X112854Y356704D01*
X112656Y356912D01*
X112500Y357110D01*
X112364Y357298D01*
X112312Y357371D01*
X112271Y357444D01*
X112240Y357496D01*
X112219Y357548D01*
X112198Y357569D01*
Y357579D01*
X112062Y357891D01*
X111958Y358204D01*
X111896Y358495D01*
X111844Y358766D01*
X111823Y358881D01*
X111812Y358985D01*
X111802Y359078D01*
Y359162D01*
X111792Y359224D01*
Y359318D01*
X111812Y359651D01*
X111854Y359974D01*
X111927Y360266D01*
X111958Y360401D01*
X112000Y360526D01*
X112042Y360641D01*
X112073Y360745D01*
X112114Y360839D01*
X112146Y360911D01*
X112167Y360974D01*
X112187Y361016D01*
X112208Y361047D01*
Y361057D01*
X112375Y361359D01*
X112562Y361609D01*
X112760Y361828D01*
X112937Y362005D01*
X113093Y362151D01*
X113166Y362203D01*
X113229Y362244D01*
X113271Y362286D01*
X113312Y362307D01*
X113333Y362328D01*
X113343D01*
X113614Y362473D01*
X113875Y362578D01*
X114124Y362650D01*
X114354Y362703D01*
X114458Y362723D01*
X114541Y362734D01*
X114624Y362744D01*
X114697D01*
X114749Y362755D01*
X114791D01*
X114812D01*
X114822D01*
X115124Y362734D01*
D02*
G37*
G36*
X113854Y354382D02*
X114041Y354340D01*
X114208Y354288D01*
X114354Y354215D01*
X114479Y354142D01*
X114572Y354090D01*
X114635Y354049D01*
X114656Y354028D01*
X114822Y353882D01*
X114968Y353715D01*
X115093Y353538D01*
X115197Y353372D01*
X115270Y353215D01*
X115332Y353101D01*
X115353Y353049D01*
X115364Y353018D01*
X115374Y352997D01*
Y352986D01*
X115405Y352882D01*
X115437Y352757D01*
X115468Y352622D01*
X115510Y352476D01*
X115562Y352174D01*
X115614Y351872D01*
X115645Y351726D01*
X115666Y351591D01*
X115687Y351466D01*
X115697Y351362D01*
X115707Y351268D01*
X115718Y351205D01*
X115728Y351153D01*
Y351143D01*
X115749Y351018D01*
X115770Y350893D01*
X115780Y350789D01*
X115801Y350695D01*
X115832Y350539D01*
X115864Y350414D01*
X115895Y350331D01*
X115905Y350268D01*
X115926Y350237D01*
Y350227D01*
X115978Y350133D01*
X116030Y350070D01*
X116082Y350018D01*
X116124Y349987D01*
X116166Y349966D01*
X116197Y349956D01*
X116207D01*
X116218D01*
X116270Y349966D01*
X116311Y349987D01*
X116384Y350060D01*
X116436Y350122D01*
X116457Y350143D01*
Y350154D01*
X116540Y350331D01*
X116603Y350529D01*
X116655Y350737D01*
X116686Y350935D01*
X116707Y351101D01*
Y351185D01*
X116718Y351247D01*
Y351518D01*
X116697Y351653D01*
X116686Y351778D01*
X116665Y351882D01*
X116645Y351976D01*
X116634Y352049D01*
X116613Y352091D01*
Y352112D01*
X116572Y352247D01*
X116520Y352372D01*
X116468Y352486D01*
X116426Y352591D01*
X116384Y352674D01*
X116343Y352747D01*
X116322Y352788D01*
X116311Y352799D01*
X116228Y352820D01*
X116155Y352861D01*
X116082Y352893D01*
X116030Y352934D01*
X115989Y352966D01*
X115957Y352997D01*
X115936Y353018D01*
X115926Y353028D01*
X115874Y353101D01*
X115843Y353163D01*
X115801Y353299D01*
X115791Y353361D01*
X115780Y353403D01*
Y353445D01*
X115791Y353569D01*
X115822Y353684D01*
X115874Y353788D01*
X115926Y353871D01*
X115978Y353934D01*
X116030Y353976D01*
X116061Y354007D01*
X116072Y354017D01*
X116145Y354049D01*
X116228Y354080D01*
X116426Y354111D01*
X116509Y354121D01*
X116582D01*
X116634D01*
X116655D01*
X116988D01*
X117155Y354111D01*
X117290Y354090D01*
X117405Y354059D01*
X117499Y354028D01*
X117571Y353997D01*
X117624Y353965D01*
X117655Y353944D01*
X117665Y353934D01*
X117738Y353861D01*
X117790Y353788D01*
X117821Y353715D01*
X117853Y353642D01*
X117863Y353580D01*
X117873Y353528D01*
Y353486D01*
X117863Y353413D01*
X117853Y353351D01*
X117832Y353309D01*
X117821Y353288D01*
X117780Y353205D01*
X117738Y353132D01*
X117707Y353080D01*
X117686Y353070D01*
Y353059D01*
X117801Y352768D01*
X117842Y352622D01*
X117884Y352497D01*
X117915Y352393D01*
X117936Y352309D01*
X117946Y352257D01*
Y352237D01*
X117998Y351924D01*
X118019Y351778D01*
X118030Y351643D01*
X118040Y351528D01*
Y351362D01*
X118030Y351122D01*
X118009Y350893D01*
X117978Y350674D01*
X117936Y350466D01*
X117894Y350279D01*
X117832Y350102D01*
X117780Y349945D01*
X117717Y349800D01*
X117655Y349664D01*
X117603Y349550D01*
X117540Y349456D01*
X117499Y349373D01*
X117457Y349310D01*
X117426Y349268D01*
X117405Y349237D01*
X117394Y349227D01*
X117301Y349123D01*
X117207Y349029D01*
X117103Y348956D01*
X117009Y348883D01*
X116905Y348831D01*
X116811Y348779D01*
X116624Y348706D01*
X116457Y348665D01*
X116384Y348654D01*
X116322Y348644D01*
X116280Y348633D01*
X116238D01*
X116218D01*
X116207D01*
X116082Y348644D01*
X115957Y348654D01*
X115739Y348717D01*
X115541Y348800D01*
X115374Y348904D01*
X115239Y348998D01*
X115135Y349081D01*
X115072Y349143D01*
X115062Y349154D01*
X115051Y349164D01*
X114968Y349279D01*
X114885Y349404D01*
X114812Y349560D01*
X114749Y349727D01*
X114635Y350070D01*
X114551Y350435D01*
X114510Y350602D01*
X114489Y350768D01*
X114458Y350914D01*
X114437Y351039D01*
X114426Y351143D01*
X114416Y351226D01*
X114406Y351278D01*
Y351299D01*
X114385Y351497D01*
X114354Y351664D01*
X114333Y351830D01*
X114312Y351976D01*
X114281Y352101D01*
X114260Y352216D01*
X114239Y352320D01*
X114218Y352413D01*
X114197Y352486D01*
X114177Y352549D01*
X114156Y352601D01*
X114145Y352643D01*
X114124Y352695D01*
X114114Y352716D01*
X114052Y352830D01*
X113979Y352913D01*
X113906Y352976D01*
X113843Y353018D01*
X113781Y353038D01*
X113729Y353059D01*
X113697D01*
X113687D01*
X113635Y353049D01*
X113573Y353018D01*
X113531Y352986D01*
X113479Y352945D01*
X113448Y352893D01*
X113416Y352861D01*
X113406Y352830D01*
X113395Y352820D01*
X113302Y352611D01*
X113229Y352382D01*
X113187Y352143D01*
X113146Y351924D01*
X113125Y351716D01*
Y351632D01*
X113114Y351549D01*
Y351403D01*
X113125Y351195D01*
X113135Y351008D01*
X113156Y350841D01*
X113177Y350695D01*
X113198Y350581D01*
X113218Y350487D01*
X113239Y350435D01*
Y350414D01*
X113291Y350258D01*
X113354Y350122D01*
X113416Y349997D01*
X113479Y349893D01*
X113541Y349800D01*
X113583Y349737D01*
X113614Y349696D01*
X113624Y349685D01*
X113739Y349643D01*
X113833Y349602D01*
X113916Y349560D01*
X113979Y349519D01*
X114020Y349487D01*
X114062Y349456D01*
X114072Y349435D01*
X114083Y349425D01*
X114124Y349362D01*
X114166Y349300D01*
X114197Y349164D01*
X114208Y349112D01*
X114218Y349071D01*
Y349029D01*
X114208Y348925D01*
X114187Y348831D01*
X114156Y348748D01*
X114114Y348685D01*
X114072Y348623D01*
X114041Y348581D01*
X114020Y348560D01*
X114010Y348550D01*
X113916Y348488D01*
X113812Y348446D01*
X113697Y348415D01*
X113593Y348394D01*
X113489Y348383D01*
X113406Y348373D01*
X113343D01*
X113333D01*
X113322D01*
X112885D01*
X112718Y348383D01*
X112573Y348404D01*
X112458Y348425D01*
X112364Y348467D01*
X112291Y348498D01*
X112240Y348519D01*
X112208Y348540D01*
X112198Y348550D01*
X112135Y348623D01*
X112083Y348706D01*
X112052Y348789D01*
X112021Y348873D01*
X112010Y348946D01*
X112000Y348998D01*
Y349050D01*
X112010Y349133D01*
X112021Y349206D01*
X112031Y349248D01*
X112042Y349268D01*
X112083Y349352D01*
X112125Y349414D01*
X112167Y349456D01*
X112177Y349477D01*
X112052Y349789D01*
X112010Y349935D01*
X111969Y350081D01*
X111938Y350195D01*
X111917Y350289D01*
X111896Y350352D01*
Y350372D01*
X111833Y350747D01*
X111812Y350924D01*
X111802Y351091D01*
Y351226D01*
X111792Y351341D01*
Y351435D01*
X111802Y351695D01*
X111823Y351945D01*
X111854Y352184D01*
X111896Y352403D01*
X111948Y352611D01*
X112010Y352809D01*
X112073Y352976D01*
X112135Y353143D01*
X112198Y353278D01*
X112260Y353413D01*
X112323Y353517D01*
X112375Y353601D01*
X112416Y353674D01*
X112448Y353726D01*
X112469Y353757D01*
X112479Y353767D01*
X112573Y353882D01*
X112666Y353976D01*
X112771Y354059D01*
X112864Y354132D01*
X112969Y354194D01*
X113062Y354246D01*
X113250Y354319D01*
X113416Y354371D01*
X113489Y354382D01*
X113552Y354392D01*
X113593Y354403D01*
X113635D01*
X113656D01*
X113666D01*
X113854Y354382D01*
D02*
G37*
G36*
X120383Y342322D02*
X118977D01*
Y343895D01*
X120383D01*
Y342322D01*
D02*
G37*
G36*
X112760Y346561D02*
X112854Y346540D01*
X112937Y346509D01*
X113010Y346467D01*
X113062Y346426D01*
X113104Y346394D01*
X113125Y346373D01*
X113135Y346363D01*
X113198Y346269D01*
X113239Y346165D01*
X113281Y346051D01*
X113302Y345936D01*
X113312Y345832D01*
X113322Y345749D01*
Y344072D01*
X117873D01*
Y341687D01*
X117863Y341510D01*
X117842Y341364D01*
X117811Y341239D01*
X117780Y341146D01*
X117748Y341073D01*
X117717Y341021D01*
X117696Y340989D01*
X117686Y340979D01*
X117613Y340916D01*
X117540Y340864D01*
X117457Y340833D01*
X117384Y340802D01*
X117322Y340792D01*
X117269Y340781D01*
X117228D01*
X117217D01*
X117113Y340792D01*
X117009Y340812D01*
X116926Y340844D01*
X116863Y340885D01*
X116801Y340916D01*
X116759Y340948D01*
X116738Y340969D01*
X116728Y340979D01*
X116665Y341073D01*
X116624Y341177D01*
X116593Y341291D01*
X116572Y341416D01*
X116561Y341521D01*
X116551Y341604D01*
Y342749D01*
X113322D01*
Y341156D01*
X113312Y340979D01*
X113291Y340833D01*
X113260Y340708D01*
X113229Y340615D01*
X113198Y340542D01*
X113166Y340490D01*
X113146Y340458D01*
X113135Y340448D01*
X113062Y340385D01*
X112989Y340333D01*
X112906Y340302D01*
X112833Y340271D01*
X112771Y340260D01*
X112718Y340250D01*
X112677D01*
X112666D01*
X112562Y340260D01*
X112458Y340281D01*
X112375Y340312D01*
X112312Y340354D01*
X112250Y340385D01*
X112208Y340417D01*
X112187Y340437D01*
X112177Y340448D01*
X112114Y340542D01*
X112073Y340646D01*
X112042Y340760D01*
X112021Y340885D01*
X112010Y340989D01*
X112000Y341073D01*
Y345665D01*
X112010Y345832D01*
X112031Y345978D01*
X112052Y346103D01*
X112094Y346196D01*
X112125Y346269D01*
X112146Y346321D01*
X112167Y346353D01*
X112177Y346363D01*
X112250Y346436D01*
X112323Y346488D01*
X112406Y346519D01*
X112479Y346550D01*
X112552Y346561D01*
X112604Y346571D01*
X112646D01*
X112656D01*
X112760Y346561D01*
D02*
G37*
G36*
X141661Y423602D02*
X142036Y423550D01*
X142390Y423488D01*
X142713Y423405D01*
X143026Y423300D01*
X143307Y423186D01*
X143557Y423061D01*
X143786Y422936D01*
X143994Y422811D01*
X144171Y422686D01*
X144327Y422571D01*
X144452Y422467D01*
X144556Y422384D01*
X144629Y422322D01*
X144671Y422270D01*
X144681Y422259D01*
X144869Y422040D01*
X145025Y421811D01*
X145171Y421582D01*
X145285Y421353D01*
X145389Y421124D01*
X145473Y420895D01*
X145546Y420676D01*
X145598Y420468D01*
X145650Y420270D01*
X145681Y420093D01*
X145702Y419937D01*
X145712Y419801D01*
X145723Y419687D01*
X145733Y419604D01*
Y417000D01*
X136256D01*
Y419551D01*
X136267Y419843D01*
X136308Y420124D01*
X136361Y420395D01*
X136423Y420645D01*
X136506Y420884D01*
X136600Y421103D01*
X136704Y421311D01*
X136808Y421499D01*
X136902Y421665D01*
X137006Y421811D01*
X137100Y421947D01*
X137183Y422051D01*
X137246Y422134D01*
X137308Y422197D01*
X137339Y422238D01*
X137350Y422249D01*
X137621Y422488D01*
X137902Y422696D01*
X138214Y422884D01*
X138527Y423040D01*
X138849Y423165D01*
X139183Y423280D01*
X139506Y423373D01*
X139808Y423446D01*
X140110Y423498D01*
X140380Y423540D01*
X140630Y423571D01*
X140838Y423592D01*
X140932Y423602D01*
X141016D01*
X141088Y423613D01*
X141151D01*
X141203D01*
X141234D01*
X141255D01*
X141265D01*
X141661Y423602D01*
D02*
G37*
G36*
X111266Y423280D02*
X111516Y423248D01*
X111756Y423196D01*
X111964Y423123D01*
X112162Y423040D01*
X112328Y422957D01*
X112484Y422863D01*
X112620Y422759D01*
X112734Y422665D01*
X112828Y422561D01*
X112911Y422478D01*
X112974Y422394D01*
X113026Y422322D01*
X113057Y422270D01*
X113078Y422238D01*
X113088Y422228D01*
X113234Y422394D01*
X113380Y422540D01*
X113536Y422665D01*
X113703Y422769D01*
X113859Y422863D01*
X114026Y422936D01*
X114182Y422998D01*
X114338Y423050D01*
X114484Y423082D01*
X114609Y423113D01*
X114734Y423134D01*
X114838Y423155D01*
X114921D01*
X114984Y423165D01*
X115025D01*
X115036D01*
X115255Y423155D01*
X115473Y423134D01*
X115671Y423092D01*
X115859Y423040D01*
X116025Y422978D01*
X116192Y422915D01*
X116338Y422842D01*
X116473Y422769D01*
X116587Y422686D01*
X116692Y422613D01*
X116785Y422551D01*
X116858Y422488D01*
X116921Y422436D01*
X116962Y422394D01*
X116983Y422374D01*
X116994Y422363D01*
X117129Y422197D01*
X117244Y422030D01*
X117337Y421842D01*
X117431Y421665D01*
X117504Y421478D01*
X117556Y421291D01*
X117608Y421103D01*
X117650Y420937D01*
X117681Y420770D01*
X117702Y420614D01*
X117723Y420478D01*
X117733Y420353D01*
X117744Y420260D01*
Y417000D01*
X108256D01*
Y420239D01*
X108267Y420520D01*
X108288Y420780D01*
X108329Y421020D01*
X108371Y421249D01*
X108433Y421457D01*
X108506Y421655D01*
X108590Y421832D01*
X108683Y421999D01*
X108787Y422155D01*
X108892Y422301D01*
X109006Y422426D01*
X109121Y422540D01*
X109246Y422655D01*
X109371Y422748D01*
X109621Y422905D01*
X109871Y423030D01*
X110120Y423134D01*
X110350Y423196D01*
X110558Y423238D01*
X110735Y423269D01*
X110808Y423280D01*
X110870D01*
X110922Y423290D01*
X110954D01*
X110974D01*
X110985D01*
X111266Y423280D01*
D02*
G37*
%LPC*%
G36*
X87868Y443540D02*
X87798D01*
X87771D01*
X87757D01*
X87576Y443526D01*
X87410Y443512D01*
X87105Y443429D01*
X86841Y443318D01*
X86606Y443193D01*
X86425Y443054D01*
X86287Y442943D01*
X86203Y442860D01*
X86189Y442846D01*
X86176Y442832D01*
X86065Y442694D01*
X85982Y442555D01*
X85829Y442236D01*
X85718Y441917D01*
X85649Y441598D01*
X85593Y441321D01*
X85579Y441196D01*
Y441099D01*
X85566Y441016D01*
Y440891D01*
X85579Y440655D01*
X85593Y440447D01*
X85621Y440239D01*
X85662Y440059D01*
X85704Y439878D01*
X85760Y439712D01*
X85815Y439573D01*
X85871Y439435D01*
X85926Y439324D01*
X85982Y439226D01*
X86037Y439129D01*
X86079Y439060D01*
X86120Y439005D01*
X86148Y438963D01*
X86176Y438949D01*
Y438935D01*
X86300Y438811D01*
X86425Y438713D01*
X86550Y438616D01*
X86689Y438547D01*
X86952Y438422D01*
X87202Y438339D01*
X87438Y438297D01*
X87521Y438284D01*
X87604Y438270D01*
X87674Y438256D01*
X87729D01*
X87757D01*
X87771D01*
X87965Y438270D01*
X88159Y438284D01*
X88506Y438381D01*
X88825Y438492D01*
X89088Y438644D01*
X89310Y438783D01*
X89393Y438838D01*
X89462Y438894D01*
X89518Y438949D01*
X89573Y438991D01*
X89587Y439005D01*
X89601Y439019D01*
X89740Y439171D01*
X89851Y439324D01*
X89962Y439476D01*
X90045Y439629D01*
X90184Y439948D01*
X90267Y440239D01*
X90322Y440502D01*
X90336Y440613D01*
X90350Y440710D01*
X90364Y440780D01*
Y440891D01*
X90350Y441099D01*
X90336Y441293D01*
X90239Y441654D01*
X90128Y441972D01*
X89990Y442250D01*
X89906Y442361D01*
X89837Y442458D01*
X89782Y442555D01*
X89726Y442624D01*
X89670Y442680D01*
X89629Y442735D01*
X89615Y442749D01*
X89601Y442763D01*
X89449Y442902D01*
X89310Y443026D01*
X89143Y443124D01*
X88991Y443207D01*
X88686Y443345D01*
X88395Y443442D01*
X88145Y443498D01*
X88034Y443512D01*
X87937Y443526D01*
X87868Y443540D01*
D02*
G37*
G36*
X71925Y443976D02*
X71911D01*
Y438748D01*
X72174Y438914D01*
X72396Y439081D01*
X72590Y439261D01*
X72757Y439428D01*
X72881Y439580D01*
X72965Y439691D01*
X73020Y439774D01*
X73034Y439788D01*
Y439802D01*
X73159Y440065D01*
X73256Y440329D01*
X73325Y440592D01*
X73381Y440828D01*
X73408Y441036D01*
Y441133D01*
X73422Y441203D01*
Y441355D01*
X73408Y441688D01*
X73367Y441979D01*
X73298Y442243D01*
X73228Y442465D01*
X73159Y442659D01*
X73089Y442798D01*
X73076Y442839D01*
X73048Y442881D01*
X73034Y442895D01*
Y442909D01*
X72881Y443144D01*
X72701Y443352D01*
X72521Y443533D01*
X72327Y443685D01*
X72174Y443810D01*
X72035Y443907D01*
X71980Y443935D01*
X71938Y443963D01*
X71925Y443976D01*
D02*
G37*
G36*
X58935Y426786D02*
Y423930D01*
X62430Y425358D01*
X58935Y426786D01*
D02*
G37*
G36*
X87243Y421683D02*
X86481D01*
X86328Y421433D01*
X86189Y421184D01*
X86079Y420948D01*
X85982Y420726D01*
X85898Y420532D01*
X85843Y420379D01*
X85829Y420324D01*
X85815Y420282D01*
X85801Y420255D01*
Y420241D01*
X85718Y419949D01*
X85662Y419672D01*
X85621Y419436D01*
X85593Y419214D01*
X85579Y419048D01*
X85566Y418909D01*
Y418798D01*
X85579Y418535D01*
X85607Y418299D01*
X85649Y418091D01*
X85704Y417925D01*
X85760Y417800D01*
X85801Y417703D01*
X85829Y417633D01*
X85843Y417620D01*
X85898Y417550D01*
X85968Y417495D01*
X86037Y417453D01*
X86106Y417425D01*
X86162Y417411D01*
X86203Y417398D01*
X86231D01*
X86245D01*
X86370Y417411D01*
X86495Y417467D01*
X86620Y417550D01*
X86716Y417633D01*
X86800Y417717D01*
X86869Y417800D01*
X86911Y417855D01*
X86925Y417869D01*
X87105Y418174D01*
X87230Y418493D01*
X87327Y418798D01*
X87382Y419090D01*
X87424Y419339D01*
X87438Y419450D01*
Y419547D01*
X87452Y419617D01*
Y419728D01*
X87438Y420060D01*
X87424Y420407D01*
X87382Y420740D01*
X87354Y421045D01*
X87327Y421170D01*
X87313Y421295D01*
X87299Y421406D01*
X87271Y421503D01*
X87257Y421586D01*
Y421641D01*
X87243Y421669D01*
Y421683D01*
D02*
G37*
G36*
X70968Y412578D02*
X70926D01*
X70898D01*
X70884D01*
X70732Y412565D01*
X70579Y412537D01*
X70427Y412509D01*
X70288Y412454D01*
X70024Y412315D01*
X69803Y412176D01*
X69608Y412024D01*
X69456Y411885D01*
X69400Y411829D01*
X69359Y411802D01*
X69345Y411774D01*
X69331Y411760D01*
X69206Y411608D01*
X69095Y411441D01*
X68998Y411275D01*
X68929Y411108D01*
X68790Y410775D01*
X68707Y410457D01*
X68679Y410318D01*
X68665Y410179D01*
X68652Y410068D01*
X68638Y409957D01*
X68624Y409874D01*
Y409763D01*
X68638Y409541D01*
X68652Y409333D01*
X68735Y408945D01*
X68846Y408612D01*
X68915Y408460D01*
X68984Y408321D01*
X69040Y408196D01*
X69109Y408085D01*
X69165Y407988D01*
X69220Y407905D01*
X69262Y407849D01*
X69303Y407808D01*
X69317Y407780D01*
X69331Y407766D01*
X69470Y407627D01*
X69608Y407503D01*
X69747Y407392D01*
X69872Y407308D01*
X70011Y407225D01*
X70135Y407156D01*
X70385Y407059D01*
X70579Y407003D01*
X70676Y406989D01*
X70746Y406976D01*
X70801Y406962D01*
X70843D01*
X70870D01*
X70884D01*
X71065Y406976D01*
X71245Y406989D01*
X71411Y407031D01*
X71578Y407086D01*
X71883Y407211D01*
X72146Y407364D01*
X72354Y407503D01*
X72438Y407572D01*
X72507Y407627D01*
X72562Y407683D01*
X72618Y407724D01*
X72632Y407738D01*
X72646Y407752D01*
X72784Y407905D01*
X72909Y408071D01*
X73006Y408238D01*
X73089Y408404D01*
X73228Y408737D01*
X73325Y409056D01*
X73353Y409208D01*
X73381Y409333D01*
X73394Y409458D01*
X73408Y409569D01*
X73422Y409652D01*
Y409763D01*
X73408Y410013D01*
X73381Y410248D01*
X73339Y410470D01*
X73270Y410678D01*
X73200Y410873D01*
X73117Y411053D01*
X73034Y411219D01*
X72937Y411372D01*
X72854Y411497D01*
X72757Y411622D01*
X72673Y411718D01*
X72604Y411802D01*
X72535Y411871D01*
X72493Y411913D01*
X72465Y411940D01*
X72452Y411954D01*
X72313Y412065D01*
X72188Y412162D01*
X71911Y412315D01*
X71647Y412426D01*
X71398Y412495D01*
X71189Y412551D01*
X71106Y412565D01*
X71037D01*
X70968Y412578D01*
D02*
G37*
G36*
X87909Y412336D02*
X87868D01*
X87840D01*
X87826D01*
X87674Y412322D01*
X87521Y412294D01*
X87368Y412266D01*
X87230Y412211D01*
X86966Y412072D01*
X86744Y411934D01*
X86550Y411781D01*
X86398Y411642D01*
X86342Y411587D01*
X86300Y411559D01*
X86287Y411531D01*
X86273Y411517D01*
X86148Y411365D01*
X86037Y411199D01*
X85940Y411032D01*
X85871Y410866D01*
X85732Y410533D01*
X85649Y410214D01*
X85621Y410075D01*
X85607Y409936D01*
X85593Y409826D01*
X85579Y409715D01*
X85566Y409631D01*
Y409520D01*
X85579Y409299D01*
X85593Y409090D01*
X85676Y408702D01*
X85787Y408369D01*
X85857Y408217D01*
X85926Y408078D01*
X85982Y407953D01*
X86051Y407842D01*
X86106Y407745D01*
X86162Y407662D01*
X86203Y407607D01*
X86245Y407565D01*
X86259Y407537D01*
X86273Y407523D01*
X86411Y407385D01*
X86550Y407260D01*
X86689Y407149D01*
X86814Y407066D01*
X86952Y406982D01*
X87077Y406913D01*
X87327Y406816D01*
X87521Y406761D01*
X87618Y406747D01*
X87687Y406733D01*
X87743Y406719D01*
X87784D01*
X87812D01*
X87826D01*
X88006Y406733D01*
X88187Y406747D01*
X88353Y406788D01*
X88519Y406844D01*
X88825Y406969D01*
X89088Y407121D01*
X89296Y407260D01*
X89379Y407329D01*
X89449Y407385D01*
X89504Y407440D01*
X89560Y407482D01*
X89573Y407496D01*
X89587Y407509D01*
X89726Y407662D01*
X89851Y407828D01*
X89948Y407995D01*
X90031Y408161D01*
X90170Y408494D01*
X90267Y408813D01*
X90295Y408966D01*
X90322Y409090D01*
X90336Y409215D01*
X90350Y409326D01*
X90364Y409409D01*
Y409520D01*
X90350Y409770D01*
X90322Y410006D01*
X90281Y410228D01*
X90211Y410436D01*
X90142Y410630D01*
X90059Y410810D01*
X89976Y410977D01*
X89879Y411129D01*
X89795Y411254D01*
X89698Y411379D01*
X89615Y411476D01*
X89546Y411559D01*
X89476Y411628D01*
X89435Y411670D01*
X89407Y411698D01*
X89393Y411712D01*
X89255Y411823D01*
X89130Y411920D01*
X88852Y412072D01*
X88589Y412183D01*
X88339Y412253D01*
X88131Y412308D01*
X88048Y412322D01*
X87979D01*
X87909Y412336D01*
D02*
G37*
G36*
X87868Y401976D02*
X87798D01*
X87771D01*
X87757D01*
X87576Y401962D01*
X87410Y401948D01*
X87105Y401865D01*
X86841Y401754D01*
X86606Y401629D01*
X86425Y401491D01*
X86287Y401380D01*
X86203Y401296D01*
X86189Y401283D01*
X86176Y401269D01*
X86065Y401130D01*
X85982Y400991D01*
X85829Y400672D01*
X85718Y400353D01*
X85649Y400034D01*
X85593Y399757D01*
X85579Y399632D01*
Y399535D01*
X85566Y399452D01*
Y399327D01*
X85579Y399091D01*
X85593Y398883D01*
X85621Y398675D01*
X85662Y398495D01*
X85704Y398315D01*
X85760Y398148D01*
X85815Y398010D01*
X85871Y397871D01*
X85926Y397760D01*
X85982Y397663D01*
X86037Y397566D01*
X86079Y397496D01*
X86120Y397441D01*
X86148Y397399D01*
X86176Y397385D01*
Y397372D01*
X86300Y397247D01*
X86425Y397150D01*
X86550Y397053D01*
X86689Y396983D01*
X86952Y396858D01*
X87202Y396775D01*
X87438Y396734D01*
X87521Y396720D01*
X87604Y396706D01*
X87674Y396692D01*
X87729D01*
X87757D01*
X87771D01*
X87965Y396706D01*
X88159Y396720D01*
X88506Y396817D01*
X88825Y396928D01*
X89088Y397080D01*
X89310Y397219D01*
X89393Y397275D01*
X89462Y397330D01*
X89518Y397385D01*
X89573Y397427D01*
X89587Y397441D01*
X89601Y397455D01*
X89740Y397607D01*
X89851Y397760D01*
X89962Y397912D01*
X90045Y398065D01*
X90184Y398384D01*
X90267Y398675D01*
X90322Y398939D01*
X90336Y399050D01*
X90350Y399147D01*
X90364Y399216D01*
Y399327D01*
X90350Y399535D01*
X90336Y399729D01*
X90239Y400090D01*
X90128Y400409D01*
X89990Y400686D01*
X89906Y400797D01*
X89837Y400894D01*
X89782Y400991D01*
X89726Y401061D01*
X89670Y401116D01*
X89629Y401172D01*
X89615Y401185D01*
X89601Y401199D01*
X89449Y401338D01*
X89310Y401463D01*
X89143Y401560D01*
X88991Y401643D01*
X88686Y401782D01*
X88395Y401879D01*
X88145Y401934D01*
X88034Y401948D01*
X87937Y401962D01*
X87868Y401976D01*
D02*
G37*
G36*
X59116Y396082D02*
X59102D01*
Y390854D01*
X59365Y391020D01*
X59587Y391186D01*
X59781Y391367D01*
X59948Y391533D01*
X60072Y391686D01*
X60156Y391797D01*
X60211Y391880D01*
X60225Y391894D01*
Y391908D01*
X60350Y392171D01*
X60447Y392435D01*
X60516Y392698D01*
X60572Y392934D01*
X60599Y393142D01*
Y393239D01*
X60613Y393308D01*
Y393461D01*
X60599Y393794D01*
X60558Y394085D01*
X60489Y394348D01*
X60419Y394570D01*
X60350Y394764D01*
X60281Y394903D01*
X60267Y394945D01*
X60239Y394986D01*
X60225Y395000D01*
Y395014D01*
X60072Y395250D01*
X59892Y395458D01*
X59712Y395638D01*
X59518Y395791D01*
X59365Y395915D01*
X59227Y396013D01*
X59171Y396040D01*
X59130Y396068D01*
X59116Y396082D01*
D02*
G37*
G36*
X61667Y385320D02*
X61640D01*
X61515Y385306D01*
X61390Y385278D01*
X61279Y385223D01*
X61182Y385181D01*
X61085Y385126D01*
X61016Y385070D01*
X60974Y385043D01*
X60960Y385029D01*
X60835Y384904D01*
X60724Y384738D01*
X60613Y384571D01*
X60516Y384391D01*
X60433Y384211D01*
X60364Y384072D01*
X60336Y384030D01*
X60322Y383989D01*
X60308Y383961D01*
Y383947D01*
X60239Y383711D01*
X60184Y383475D01*
X60142Y383240D01*
X60114Y383032D01*
X60100Y382851D01*
X60086Y382699D01*
Y381201D01*
X63013D01*
X62999Y383226D01*
X62985Y383587D01*
X62929Y383892D01*
X62860Y384169D01*
X62791Y384377D01*
X62708Y384557D01*
X62638Y384682D01*
X62583Y384751D01*
X62569Y384779D01*
X62402Y384959D01*
X62236Y385098D01*
X62084Y385195D01*
X61945Y385251D01*
X61820Y385292D01*
X61723Y385306D01*
X61667Y385320D01*
D02*
G37*
G36*
X88866Y380244D02*
X88852D01*
Y375016D01*
X89116Y375182D01*
X89338Y375349D01*
X89532Y375529D01*
X89698Y375695D01*
X89823Y375848D01*
X89906Y375959D01*
X89962Y376042D01*
X89976Y376056D01*
Y376070D01*
X90100Y376333D01*
X90197Y376597D01*
X90267Y376860D01*
X90322Y377096D01*
X90350Y377304D01*
Y377401D01*
X90364Y377471D01*
Y377623D01*
X90350Y377956D01*
X90309Y378247D01*
X90239Y378511D01*
X90170Y378732D01*
X90100Y378927D01*
X90031Y379065D01*
X90017Y379107D01*
X89990Y379149D01*
X89976Y379162D01*
Y379176D01*
X89823Y379412D01*
X89643Y379620D01*
X89462Y379800D01*
X89268Y379953D01*
X89116Y380078D01*
X88977Y380175D01*
X88922Y380203D01*
X88880Y380230D01*
X88866Y380244D01*
D02*
G37*
G36*
X70968Y370252D02*
X70926D01*
X70898D01*
X70884D01*
X70732Y370238D01*
X70579Y370210D01*
X70427Y370183D01*
X70288Y370127D01*
X70024Y369989D01*
X69803Y369850D01*
X69608Y369697D01*
X69456Y369559D01*
X69400Y369503D01*
X69359Y369475D01*
X69345Y369448D01*
X69331Y369434D01*
X69206Y369281D01*
X69095Y369115D01*
X68998Y368948D01*
X68929Y368782D01*
X68790Y368449D01*
X68707Y368130D01*
X68679Y367991D01*
X68665Y367853D01*
X68652Y367742D01*
X68638Y367631D01*
X68624Y367548D01*
Y367437D01*
X68638Y367215D01*
X68652Y367007D01*
X68735Y366618D01*
X68846Y366286D01*
X68915Y366133D01*
X68984Y365994D01*
X69040Y365870D01*
X69109Y365759D01*
X69165Y365662D01*
X69220Y365578D01*
X69262Y365523D01*
X69303Y365481D01*
X69317Y365453D01*
X69331Y365440D01*
X69470Y365301D01*
X69608Y365176D01*
X69747Y365065D01*
X69872Y364982D01*
X70011Y364899D01*
X70135Y364829D01*
X70385Y364732D01*
X70579Y364677D01*
X70676Y364663D01*
X70746Y364649D01*
X70801Y364635D01*
X70843D01*
X70870D01*
X70884D01*
X71065Y364649D01*
X71245Y364663D01*
X71411Y364705D01*
X71578Y364760D01*
X71883Y364885D01*
X72146Y365037D01*
X72354Y365176D01*
X72438Y365246D01*
X72507Y365301D01*
X72562Y365356D01*
X72618Y365398D01*
X72632Y365412D01*
X72646Y365426D01*
X72784Y365578D01*
X72909Y365745D01*
X73006Y365911D01*
X73089Y366078D01*
X73228Y366410D01*
X73325Y366729D01*
X73353Y366882D01*
X73381Y367007D01*
X73394Y367132D01*
X73408Y367243D01*
X73422Y367326D01*
Y367437D01*
X73408Y367686D01*
X73381Y367922D01*
X73339Y368144D01*
X73270Y368352D01*
X73200Y368546D01*
X73117Y368727D01*
X73034Y368893D01*
X72937Y369045D01*
X72854Y369170D01*
X72757Y369295D01*
X72673Y369392D01*
X72604Y369475D01*
X72535Y369545D01*
X72493Y369586D01*
X72465Y369614D01*
X72452Y369628D01*
X72313Y369739D01*
X72188Y369836D01*
X71911Y369989D01*
X71647Y370099D01*
X71398Y370169D01*
X71189Y370224D01*
X71106Y370238D01*
X71037D01*
X70968Y370252D01*
D02*
G37*
G36*
X114874Y361432D02*
X114843D01*
X114822D01*
X114812D01*
X114697Y361422D01*
X114583Y361401D01*
X114468Y361380D01*
X114364Y361338D01*
X114166Y361234D01*
X113999Y361130D01*
X113854Y361016D01*
X113739Y360911D01*
X113697Y360870D01*
X113666Y360849D01*
X113656Y360828D01*
X113645Y360818D01*
X113552Y360703D01*
X113468Y360578D01*
X113395Y360453D01*
X113343Y360328D01*
X113239Y360078D01*
X113177Y359839D01*
X113156Y359735D01*
X113146Y359630D01*
X113135Y359547D01*
X113125Y359464D01*
X113114Y359401D01*
Y359318D01*
X113125Y359151D01*
X113135Y358995D01*
X113198Y358704D01*
X113281Y358454D01*
X113333Y358339D01*
X113385Y358235D01*
X113427Y358141D01*
X113479Y358058D01*
X113520Y357985D01*
X113562Y357923D01*
X113593Y357881D01*
X113624Y357850D01*
X113635Y357829D01*
X113645Y357818D01*
X113750Y357714D01*
X113854Y357621D01*
X113958Y357537D01*
X114052Y357475D01*
X114156Y357412D01*
X114249Y357360D01*
X114437Y357287D01*
X114583Y357246D01*
X114656Y357235D01*
X114708Y357225D01*
X114749Y357214D01*
X114781D01*
X114801D01*
X114812D01*
X114947Y357225D01*
X115083Y357235D01*
X115208Y357267D01*
X115332Y357308D01*
X115562Y357402D01*
X115759Y357516D01*
X115916Y357621D01*
X115978Y357673D01*
X116030Y357714D01*
X116072Y357756D01*
X116114Y357787D01*
X116124Y357798D01*
X116134Y357808D01*
X116238Y357923D01*
X116332Y358047D01*
X116405Y358172D01*
X116468Y358298D01*
X116572Y358547D01*
X116645Y358787D01*
X116665Y358901D01*
X116686Y358995D01*
X116697Y359089D01*
X116707Y359172D01*
X116718Y359235D01*
Y359318D01*
X116707Y359506D01*
X116686Y359683D01*
X116655Y359849D01*
X116603Y360005D01*
X116551Y360151D01*
X116488Y360286D01*
X116426Y360411D01*
X116353Y360526D01*
X116291Y360620D01*
X116218Y360714D01*
X116155Y360786D01*
X116103Y360849D01*
X116051Y360901D01*
X116020Y360932D01*
X115999Y360953D01*
X115989Y360963D01*
X115884Y361047D01*
X115791Y361120D01*
X115582Y361234D01*
X115385Y361317D01*
X115197Y361370D01*
X115041Y361411D01*
X114978Y361422D01*
X114926D01*
X114874Y361432D01*
D02*
G37*
G36*
X141328Y422228D02*
X141286D01*
X141265D01*
X140932Y422217D01*
X140609Y422186D01*
X140307Y422145D01*
X140026Y422082D01*
X139766Y422009D01*
X139526Y421936D01*
X139297Y421853D01*
X139099Y421770D01*
X138922Y421676D01*
X138766Y421593D01*
X138631Y421520D01*
X138516Y421447D01*
X138433Y421384D01*
X138370Y421343D01*
X138329Y421311D01*
X138318Y421301D01*
X138204Y421166D01*
X138110Y421030D01*
X138016Y420884D01*
X137943Y420739D01*
X137881Y420582D01*
X137829Y420437D01*
X137756Y420166D01*
X137725Y420041D01*
X137704Y419926D01*
X137694Y419822D01*
X137683Y419728D01*
X137673Y419655D01*
Y418385D01*
X144306D01*
Y419541D01*
X144296Y419728D01*
X144275Y419916D01*
X144244Y420093D01*
X144192Y420260D01*
X144140Y420416D01*
X144077Y420562D01*
X144015Y420697D01*
X143952Y420822D01*
X143879Y420937D01*
X143817Y421041D01*
X143754Y421124D01*
X143702Y421197D01*
X143650Y421259D01*
X143619Y421301D01*
X143598Y421322D01*
X143588Y421332D01*
X143421Y421488D01*
X143244Y421624D01*
X143067Y421749D01*
X142869Y421853D01*
X142682Y421936D01*
X142484Y422009D01*
X142296Y422072D01*
X142120Y422113D01*
X141942Y422155D01*
X141776Y422176D01*
X141640Y422197D01*
X141515Y422217D01*
X141411D01*
X141328Y422228D01*
D02*
G37*
G36*
X115109Y421780D02*
X115077D01*
X115057D01*
X115046D01*
X114828Y421759D01*
X114640Y421717D01*
X114473Y421645D01*
X114328Y421540D01*
X114213Y421426D01*
X114109Y421301D01*
X114026Y421166D01*
X113963Y421020D01*
X113911Y420874D01*
X113869Y420739D01*
X113849Y420614D01*
X113828Y420499D01*
X113817Y420405D01*
X113807Y420322D01*
Y418385D01*
X116327D01*
Y420124D01*
X116317Y420405D01*
X116275Y420645D01*
X116223Y420853D01*
X116161Y421030D01*
X116098Y421166D01*
X116046Y421259D01*
X116004Y421322D01*
X115994Y421343D01*
X115859Y421488D01*
X115702Y421593D01*
X115546Y421676D01*
X115400Y421728D01*
X115255Y421759D01*
X115150Y421770D01*
X115109Y421780D01*
D02*
G37*
G36*
X111058Y421905D02*
X111016D01*
X110995D01*
X110766Y421884D01*
X110558Y421832D01*
X110381Y421749D01*
X110235Y421645D01*
X110100Y421520D01*
X109995Y421374D01*
X109912Y421228D01*
X109839Y421072D01*
X109787Y420916D01*
X109746Y420770D01*
X109714Y420624D01*
X109693Y420499D01*
X109683Y420395D01*
X109673Y420312D01*
Y418385D01*
X112391D01*
Y420176D01*
X112380Y420478D01*
X112328Y420749D01*
X112266Y420978D01*
X112172Y421176D01*
X112068Y421343D01*
X111953Y421488D01*
X111828Y421593D01*
X111693Y421686D01*
X111568Y421759D01*
X111433Y421811D01*
X111318Y421853D01*
X111214Y421874D01*
X111120Y421895D01*
X111058Y421905D01*
D02*
G37*
%LPD*%
D10*
X143500Y437000D02*
G03*
X143500Y437000I-2500J0D01*
G01*
X129500Y434000D02*
G03*
X129500Y434000I-2500J0D01*
G01*
X115500Y437000D02*
G03*
X115500Y437000I-2500J0D01*
G01*
X122750Y366000D02*
X124750D01*
X128750Y360000D02*
Y362000D01*
X132000Y366000D02*
X138000D01*
X132000Y360000D02*
Y366000D01*
X122750Y360000D02*
Y366000D01*
Y360000D02*
X128750D01*
X138000D02*
Y366000D01*
X132000Y360000D02*
X138000D01*
X138000Y341250D02*
Y347250D01*
X132000Y341250D02*
X138000D01*
X132000Y347250D02*
X138000D01*
X132000Y341250D02*
Y347250D01*
X132000Y350750D02*
Y356750D01*
X138000D01*
X132000Y350750D02*
X138000D01*
Y356750D01*
X122750Y341250D02*
Y347250D01*
X128750D01*
X122750Y341250D02*
X128750D01*
Y347250D01*
Y350750D02*
Y356750D01*
X122750Y350750D02*
X128750D01*
X122750Y356750D02*
X128750D01*
X122750Y350750D02*
Y356750D01*
D11*
X127997Y366296D02*
G03*
X109117Y352879I-13997J-296D01*
G01*
X124000Y420000D02*
X130000D01*
X124000Y416000D02*
X130000D01*
X141000Y427000D02*
Y434000D01*
X134000Y414000D02*
Y427000D01*
Y414000D02*
X148000D01*
Y427000D01*
X134000D02*
X148000D01*
X127000Y424000D02*
Y431000D01*
X106000Y427000D02*
X120000D01*
Y414000D02*
Y427000D01*
X106000Y414000D02*
X120000D01*
X106000D02*
Y427000D01*
X113000Y427000D02*
Y434000D01*
X148000Y403000D02*
Y405000D01*
X106000D02*
X148000D01*
X106000Y403000D02*
X148000D01*
X106000D02*
Y405000D01*
D30*
X100498Y202500D02*
D03*
X114498D02*
D03*
X175502Y267500D02*
D03*
X189502D02*
D03*
X228002Y290000D02*
D03*
X242002D02*
D03*
X280102Y460000D02*
D03*
X294102D02*
D03*
X329102D02*
D03*
X315102D02*
D03*
X185503Y230000D02*
D03*
X199503D02*
D03*
X341002Y35000D02*
D03*
X355002D02*
D03*
X199500Y217500D02*
D03*
X185500D02*
D03*
X185503Y205000D02*
D03*
X199503D02*
D03*
D31*
X143000Y147000D02*
D03*
Y163000D02*
D03*
X187500Y305500D02*
D03*
Y289500D02*
D03*
D32*
X110000Y110498D02*
D03*
Y124498D02*
D03*
X87500Y110498D02*
D03*
Y124498D02*
D03*
X52500Y49502D02*
D03*
Y35502D02*
D03*
X160973Y56898D02*
D03*
Y42898D02*
D03*
X126000Y175998D02*
D03*
Y189998D02*
D03*
X143000Y175998D02*
D03*
Y189998D02*
D03*
X205000Y271998D02*
D03*
Y257998D02*
D03*
X265000Y264500D02*
D03*
Y250500D02*
D03*
X270000Y221998D02*
D03*
Y207998D02*
D03*
X255000Y229498D02*
D03*
Y215498D02*
D03*
X245751Y305751D02*
D03*
Y319751D02*
D03*
X260751Y305252D02*
D03*
Y319252D02*
D03*
X280000Y303002D02*
D03*
Y317002D02*
D03*
X305000Y336998D02*
D03*
Y322998D02*
D03*
X329600Y432998D02*
D03*
Y446998D02*
D03*
X302500Y433002D02*
D03*
Y447002D02*
D03*
X187500Y110498D02*
D03*
Y124498D02*
D03*
X212500D02*
D03*
Y110498D02*
D03*
X172500Y305502D02*
D03*
Y319502D02*
D03*
X200000Y29498D02*
D03*
Y15498D02*
D03*
X225000Y29498D02*
D03*
Y15498D02*
D03*
X283500Y88802D02*
D03*
Y102802D02*
D03*
D36*
X270500Y337125D02*
D03*
X289500D02*
D03*
X296600Y474625D02*
D03*
X277600D02*
D03*
X331600D02*
D03*
X312600D02*
D03*
X302000Y172125D02*
D03*
X283000D02*
D03*
X318000Y192875D02*
D03*
X337000D02*
D03*
D37*
X280000Y357875D02*
D03*
X287100Y495375D02*
D03*
X322100D02*
D03*
X292500Y192875D02*
D03*
X327500Y172125D02*
D03*
D43*
X137000Y91600D02*
D03*
X111600D02*
D03*
X162400D02*
D03*
X187800D02*
D03*
X213200D02*
D03*
D44*
X86200D02*
D03*
D45*
X175000Y471000D02*
D03*
X365600Y523400D02*
D03*
X35400Y269400D02*
D03*
Y218600D02*
D03*
Y294800D02*
D03*
Y244000D02*
D03*
Y320200D02*
D03*
Y421800D02*
D03*
X365600Y218600D02*
D03*
X35400Y447200D02*
D03*
X365600Y498000D02*
D03*
Y193200D02*
D03*
Y472600D02*
D03*
X35400Y167800D02*
D03*
X365600Y447200D02*
D03*
X35400Y193200D02*
D03*
X365600Y421800D02*
D03*
X35400Y345600D02*
D03*
X365600Y167800D02*
D03*
Y396400D02*
D03*
X35400Y142400D02*
D03*
X365600Y371000D02*
D03*
Y345600D02*
D03*
X35400Y472600D02*
D03*
X365600Y320200D02*
D03*
X35400Y498000D02*
D03*
X365600Y294800D02*
D03*
X35400Y523400D02*
D03*
X365600Y269400D02*
D03*
X35400Y548800D02*
D03*
X365600Y244000D02*
D03*
X35400Y371000D02*
D03*
X365600Y548800D02*
D03*
X35400Y396400D02*
D03*
X365600Y117000D02*
D03*
Y66200D02*
D03*
Y91600D02*
D03*
D46*
X289400Y548800D02*
D03*
X314800Y523400D02*
D03*
X289400D02*
D03*
X162400D02*
D03*
X137000D02*
D03*
X111600D02*
D03*
X86200D02*
D03*
X187800Y548800D02*
D03*
X238600D02*
D03*
X213200D02*
D03*
X162400D02*
D03*
X111600D02*
D03*
X137000D02*
D03*
X238600Y523400D02*
D03*
X264000D02*
D03*
X86200Y548800D02*
D03*
X187800Y523400D02*
D03*
X264000Y548800D02*
D03*
X213200Y523400D02*
D03*
X314800Y548800D02*
D03*
D47*
X309000Y45950D02*
D03*
X264500D02*
D03*
D48*
X380000Y20000D02*
D03*
X20000D02*
D03*
D74*
X52500Y96000D02*
D03*
Y69000D02*
D03*
X178473Y43150D02*
D03*
Y70150D02*
D03*
X199475Y43150D02*
D03*
Y70150D02*
D03*
D75*
X245998Y273001D02*
D03*
Y256999D02*
D03*
X224002Y273001D02*
D03*
Y256999D02*
D03*
D76*
X201000Y437500D02*
D03*
X205300Y377500D02*
D03*
X279000D02*
D03*
Y437500D02*
D03*
D77*
X218024Y43900D02*
D03*
X234024D02*
D03*
D78*
X137473Y71900D02*
D03*
Y48900D02*
D03*
Y25900D02*
D03*
D79*
X79473Y48900D02*
D03*
D80*
X100950Y274500D02*
D03*
X113650D02*
D03*
X126350D02*
D03*
X139050D02*
D03*
X100950Y225500D02*
D03*
X113650D02*
D03*
X126350D02*
D03*
X139050D02*
D03*
D81*
X245000Y15400D02*
D03*
X328500D02*
D03*
M02*
