G04*
G04 #@! TF.GenerationSoftware,Altium Limited,Altium Designer,18.1.9 (240)*
G04*
G04 Layer_Color=8421504*
%FSLAX44Y44*%
%MOMM*%
G71*
G01*
G75*
%ADD17R,0.8000X0.9000*%
%ADD18R,1.3000X1.0000*%
%ADD19R,0.9000X0.8000*%
%ADD20R,1.8000X1.9000*%
%ADD21R,0.4000X1.3500*%
%ADD22R,0.8000X1.6000*%
%ADD23R,0.6500X0.9000*%
%ADD24R,0.6500X1.1000*%
%ADD25O,0.3000X1.4000*%
%ADD26O,1.4000X0.3000*%
%ADD27R,3.4000X5.2000*%
%ADD28O,1.4000X0.4500*%
%ADD29R,0.3000X0.5000*%
G36*
X260075Y5900D02*
X242230D01*
X240393Y6661D01*
X238986Y8068D01*
X238225Y9905D01*
Y10900D01*
Y21900D01*
Y22497D01*
X238682Y23599D01*
X239526Y24443D01*
X240628Y24900D01*
X260075D01*
Y5900D01*
D02*
G37*
G36*
X333974Y24443D02*
X334818Y23599D01*
X335275Y22497D01*
Y21900D01*
Y10900D01*
Y9905D01*
X334514Y8068D01*
X333107Y6661D01*
X331269Y5900D01*
X313425D01*
Y24900D01*
X332872D01*
X333974Y24443D01*
D02*
G37*
D17*
X272998Y335000D02*
D03*
X286998D02*
D03*
X322002Y172500D02*
D03*
X308002D02*
D03*
X294502D02*
D03*
X280502D02*
D03*
X266998Y172500D02*
D03*
X252998D02*
D03*
X346998Y121000D02*
D03*
X332998D02*
D03*
X346998Y76000D02*
D03*
X332998D02*
D03*
X332998Y90000D02*
D03*
X346998D02*
D03*
X332998Y106000D02*
D03*
X346998D02*
D03*
X332998Y152500D02*
D03*
X346998D02*
D03*
X316998D02*
D03*
X302998D02*
D03*
X280098Y460000D02*
D03*
X294098D02*
D03*
X347202Y548800D02*
D03*
X333202D02*
D03*
X347202Y498000D02*
D03*
X333202D02*
D03*
X67798Y498000D02*
D03*
X53798D02*
D03*
Y371000D02*
D03*
X67798D02*
D03*
X53798Y472600D02*
D03*
X67798D02*
D03*
X347202Y371000D02*
D03*
X333202D02*
D03*
X53798Y167800D02*
D03*
X67798D02*
D03*
X347202Y345600D02*
D03*
X333202D02*
D03*
X347202Y447200D02*
D03*
X333202D02*
D03*
X347202Y472600D02*
D03*
X333202D02*
D03*
X347202Y193200D02*
D03*
X333202D02*
D03*
X53798Y447200D02*
D03*
X67798D02*
D03*
Y396400D02*
D03*
X53798D02*
D03*
X67798Y142400D02*
D03*
X53798D02*
D03*
X333202Y167800D02*
D03*
X347202D02*
D03*
X67798Y548800D02*
D03*
X53798D02*
D03*
X333202Y269400D02*
D03*
X347202D02*
D03*
X333202Y244000D02*
D03*
X347202D02*
D03*
X333202Y294800D02*
D03*
X347202D02*
D03*
X333202Y320200D02*
D03*
X347202D02*
D03*
X333202Y396400D02*
D03*
X347202D02*
D03*
X67798Y345600D02*
D03*
X53798D02*
D03*
X333202Y421800D02*
D03*
X347202D02*
D03*
X67798Y193200D02*
D03*
X53798D02*
D03*
X333202Y218600D02*
D03*
X347202D02*
D03*
X67798Y421800D02*
D03*
X53798D02*
D03*
X67798Y320200D02*
D03*
X53798D02*
D03*
X67798Y244000D02*
D03*
X53798D02*
D03*
X67798Y294800D02*
D03*
X53798D02*
D03*
X67798Y218600D02*
D03*
X53798D02*
D03*
X67798Y269400D02*
D03*
X53798D02*
D03*
D18*
X162500Y357000D02*
D03*
Y373000D02*
D03*
X349500Y33000D02*
D03*
Y17000D02*
D03*
D19*
X142000Y358002D02*
D03*
Y372002D02*
D03*
X295000Y447002D02*
D03*
Y433002D02*
D03*
X345000Y513002D02*
D03*
Y527002D02*
D03*
X55000Y513002D02*
D03*
Y527002D02*
D03*
X127500Y224502D02*
D03*
Y210502D02*
D03*
X142500Y224502D02*
D03*
Y210502D02*
D03*
D20*
X298250Y15400D02*
D03*
X275250D02*
D03*
D21*
X273750Y43450D02*
D03*
X299750D02*
D03*
X280250D02*
D03*
X286750D02*
D03*
X293250D02*
D03*
D22*
X277500Y385500D02*
D03*
Y419500D02*
D03*
D23*
X277600Y474625D02*
D03*
X296600D02*
D03*
D24*
X287100Y495375D02*
D03*
D25*
X259251Y307000D02*
D03*
X254251D02*
D03*
X249251D02*
D03*
X244251D02*
D03*
X239251D02*
D03*
X234251D02*
D03*
X229251D02*
D03*
X224251D02*
D03*
X219251D02*
D03*
X214251D02*
D03*
X209251D02*
D03*
X204251D02*
D03*
X199251D02*
D03*
X194251D02*
D03*
X189251D02*
D03*
X184251D02*
D03*
Y193000D02*
D03*
X189251D02*
D03*
X194251D02*
D03*
X199251D02*
D03*
X204251D02*
D03*
X209251D02*
D03*
X214251D02*
D03*
X219251D02*
D03*
X224251D02*
D03*
X229251D02*
D03*
X234251D02*
D03*
X249251D02*
D03*
X254251D02*
D03*
X259251D02*
D03*
X244251D02*
D03*
X239251D02*
D03*
D26*
X164751Y287500D02*
D03*
Y282500D02*
D03*
Y277500D02*
D03*
Y272500D02*
D03*
Y267500D02*
D03*
Y262500D02*
D03*
Y257500D02*
D03*
Y252500D02*
D03*
Y247500D02*
D03*
Y242500D02*
D03*
Y237500D02*
D03*
Y232500D02*
D03*
Y227500D02*
D03*
Y222500D02*
D03*
Y217500D02*
D03*
Y212500D02*
D03*
X278752D02*
D03*
Y217500D02*
D03*
Y222500D02*
D03*
Y227500D02*
D03*
Y232500D02*
D03*
Y237500D02*
D03*
Y242500D02*
D03*
Y247500D02*
D03*
Y252500D02*
D03*
Y257500D02*
D03*
Y262500D02*
D03*
Y267500D02*
D03*
Y272500D02*
D03*
Y277500D02*
D03*
Y282500D02*
D03*
Y287500D02*
D03*
D27*
X175100Y421800D02*
D03*
D28*
X145600Y457550D02*
D03*
Y451050D02*
D03*
Y444550D02*
D03*
Y438050D02*
D03*
Y431550D02*
D03*
Y425050D02*
D03*
Y418550D02*
D03*
Y412050D02*
D03*
Y405550D02*
D03*
Y399050D02*
D03*
Y392550D02*
D03*
Y386050D02*
D03*
X204600Y457550D02*
D03*
Y451050D02*
D03*
Y444550D02*
D03*
Y438050D02*
D03*
Y431550D02*
D03*
Y425050D02*
D03*
Y418550D02*
D03*
Y412050D02*
D03*
Y405550D02*
D03*
Y399050D02*
D03*
Y392550D02*
D03*
Y386050D02*
D03*
D29*
X283500Y88800D02*
D03*
X288500D02*
D03*
X278500D02*
D03*
X288500Y102800D02*
D03*
X283500D02*
D03*
X278500D02*
D03*
M02*
