G04*
G04 #@! TF.GenerationSoftware,Altium Limited,Altium Designer,18.1.9 (240)*
G04*
G04 Layer_Physical_Order=2*
G04 Layer_Color=16711680*
%FSLAX44Y44*%
%MOMM*%
G71*
G01*
G75*
%ADD10C,0.2000*%
%ADD11C,0.2500*%
%ADD12C,0.4000*%
%ADD17R,0.8000X0.9000*%
%ADD18R,1.3000X1.0000*%
%ADD19R,0.9000X0.8000*%
%ADD23R,0.6500X0.9000*%
%ADD24R,0.6500X1.1000*%
%ADD49C,0.3500*%
%ADD51C,0.6500*%
%ADD52C,0.5500*%
%ADD53C,0.4500*%
%ADD55C,0.3000*%
%ADD56C,1.6500*%
%ADD57R,1.6500X1.6500*%
%ADD58C,1.8000*%
%ADD59O,1.7000X2.0000*%
%ADD60O,1.0500X1.2500*%
%ADD61C,4.0000*%
%ADD62C,0.5000*%
%ADD63C,0.6000*%
%ADD64C,0.7000*%
%ADD65R,1.7000X1.1000*%
%ADD66R,1.3995X1.1498*%
%ADD67R,2.0000X1.2000*%
%ADD68R,1.0000X1.3000*%
%ADD69R,2.4000X1.0000*%
%ADD70R,2.4000X3.3000*%
%ADD71O,0.7000X2.5000*%
%ADD72C,0.5000*%
%ADD73O,1.4000X2.1000*%
G36*
X73580Y556417D02*
X72560Y553955D01*
X72079Y550300D01*
Y547300D01*
X72560Y543645D01*
X73971Y540240D01*
X76215Y537315D01*
X76971Y536735D01*
Y535465D01*
X76215Y534885D01*
X73971Y531960D01*
X72560Y528555D01*
X72079Y524900D01*
Y521900D01*
X72560Y518245D01*
X73971Y514840D01*
X76215Y511915D01*
X79140Y509671D01*
X82545Y508260D01*
X86200Y507779D01*
X89855Y508260D01*
X91486Y508936D01*
X92542Y508230D01*
Y496650D01*
X92774Y494888D01*
X93454Y493246D01*
X94536Y491836D01*
X107186Y479186D01*
X108596Y478104D01*
X110238Y477424D01*
X112000Y477192D01*
X163743D01*
X164591Y475922D01*
X163796Y474002D01*
X163631Y472750D01*
X175000D01*
Y471000D01*
X176750D01*
Y459631D01*
X178002Y459796D01*
X180800Y460955D01*
X183202Y462798D01*
X185045Y465200D01*
X186204Y467998D01*
X186599Y471000D01*
X186558Y471313D01*
X187697Y471875D01*
X196187Y463385D01*
X196319Y462381D01*
X197175Y460313D01*
X198538Y458538D01*
X200313Y457175D01*
X202381Y456319D01*
X204600Y456027D01*
X206819Y456319D01*
X208887Y457175D01*
X210539Y458444D01*
X211220Y458485D01*
X211936Y458391D01*
X212175Y457813D01*
X213538Y456038D01*
X214291Y455460D01*
X213819Y454319D01*
X213527Y452100D01*
X213768Y450270D01*
X212973Y449000D01*
X185500D01*
Y426000D01*
X216500D01*
Y443995D01*
X217619Y444613D01*
X218591Y444114D01*
X218819Y442381D01*
X219675Y440313D01*
X221038Y438537D01*
X222813Y437175D01*
X223557Y436867D01*
X223818Y434880D01*
X224675Y432812D01*
X226037Y431037D01*
X227813Y429674D01*
X228557Y429366D01*
X228818Y427380D01*
X229675Y425312D01*
X231037Y423537D01*
X232813Y422174D01*
X233557Y421866D01*
X233819Y419881D01*
X234675Y417813D01*
X235273Y417035D01*
X234775Y416386D01*
X233918Y414318D01*
X233626Y412099D01*
X233918Y409880D01*
X234775Y407812D01*
X236137Y406037D01*
X237913Y404674D01*
X239981Y403818D01*
X240444Y403757D01*
Y391463D01*
X240000Y391073D01*
X237781Y390781D01*
X236640Y390309D01*
X236062Y391062D01*
X234287Y392425D01*
X232219Y393281D01*
X230000Y393573D01*
X227781Y393281D01*
X225713Y392425D01*
X223938Y391062D01*
X222575Y389287D01*
X222070Y388067D01*
X220800Y388319D01*
Y389000D01*
X189800D01*
Y366000D01*
X220800D01*
Y381680D01*
X222070Y381933D01*
X222575Y380713D01*
X223444Y379581D01*
Y354080D01*
X221364Y352000D01*
X220322Y350642D01*
X219667Y349061D01*
X219444Y347364D01*
Y337979D01*
X219667Y336282D01*
X220322Y334701D01*
X221364Y333343D01*
X222779Y331928D01*
X223075Y331213D01*
X224438Y329438D01*
X226213Y328075D01*
X227407Y327581D01*
X227598Y326127D01*
X227188Y325813D01*
X225826Y324038D01*
X224970Y321970D01*
X224677Y319751D01*
X224970Y317532D01*
X225826Y315464D01*
X226214Y314959D01*
X225652Y313820D01*
X199500D01*
Y316000D01*
X179500D01*
Y317752D01*
X172500D01*
Y319502D01*
X170750D01*
Y326002D01*
X166808D01*
Y331750D01*
X166576Y333512D01*
X165896Y335154D01*
X164814Y336564D01*
X156058Y345320D01*
Y372750D01*
X155826Y374512D01*
X155146Y376154D01*
X154064Y377564D01*
X150413Y381215D01*
X150281Y382219D01*
X149425Y384287D01*
X148062Y386062D01*
X146287Y387425D01*
X144219Y388281D01*
X142000Y388573D01*
X139781Y388281D01*
X137713Y387425D01*
X135938Y386062D01*
X134575Y384287D01*
X133719Y382219D01*
X133427Y380000D01*
X133719Y377781D01*
X134575Y375713D01*
X135938Y373938D01*
X137713Y372575D01*
X139781Y371719D01*
X140785Y371587D01*
X142442Y369930D01*
Y342500D01*
X142674Y340738D01*
X143354Y339096D01*
X144436Y337686D01*
X153192Y328930D01*
Y310502D01*
X153424Y308740D01*
X154104Y307098D01*
X155186Y305688D01*
X156683Y304191D01*
Y267500D01*
Y208481D01*
X156470Y207969D01*
X156178Y205750D01*
X156470Y203531D01*
X156683Y203019D01*
Y195248D01*
Y184067D01*
X153000D01*
Y199498D01*
X151508D01*
X151281Y201219D01*
X150425Y203287D01*
X149808Y204090D01*
Y206000D01*
X149576Y207762D01*
X148896Y209404D01*
X147814Y210814D01*
X146805Y211823D01*
X146911Y211961D01*
X147818Y214151D01*
X148128Y216500D01*
Y234500D01*
X147818Y236849D01*
X146911Y239039D01*
X145469Y240919D01*
X143589Y242361D01*
X141399Y243268D01*
X139050Y243578D01*
X136700Y243268D01*
X134511Y242361D01*
X132700Y240972D01*
X130889Y242361D01*
X128699Y243268D01*
X126350Y243578D01*
X124001Y243268D01*
X121811Y242361D01*
X119931Y240919D01*
X118922Y239604D01*
X118289Y239084D01*
X117232Y239323D01*
X115991Y240152D01*
X115400Y240269D01*
Y225500D01*
X111900D01*
Y240270D01*
X111309Y240152D01*
X110068Y239323D01*
X109010Y239084D01*
X108378Y239604D01*
X107369Y240919D01*
X105489Y242361D01*
X103299Y243268D01*
X100950Y243578D01*
X98601Y243268D01*
X97612Y242859D01*
X96556Y243564D01*
Y259692D01*
X97826Y260371D01*
X98609Y259848D01*
X99200Y259730D01*
Y274500D01*
Y289270D01*
X98609Y289152D01*
X97826Y288629D01*
X96556Y289308D01*
Y293444D01*
X124581D01*
X125713Y292575D01*
X127781Y291719D01*
X130000Y291427D01*
X132219Y291719D01*
X134287Y292575D01*
X136062Y293938D01*
X137425Y295713D01*
X138281Y297781D01*
X138555Y299858D01*
X140287Y300575D01*
X142062Y301938D01*
X143425Y303713D01*
X144281Y305781D01*
X144573Y308000D01*
X144281Y310219D01*
X143425Y312287D01*
X142062Y314062D01*
X141668Y314365D01*
Y315635D01*
X142062Y315938D01*
X143425Y317713D01*
X144281Y319781D01*
X144573Y322000D01*
X144281Y324219D01*
X143425Y326287D01*
X142062Y328062D01*
X140287Y329425D01*
X138219Y330281D01*
X136000Y330573D01*
X133781Y330281D01*
X131713Y329425D01*
X130581Y328556D01*
X95408D01*
X93711Y328333D01*
X92130Y327678D01*
X90772Y326636D01*
X70864Y306728D01*
X69822Y305370D01*
X69167Y303789D01*
X68944Y302092D01*
Y146500D01*
X69167Y144803D01*
X69822Y143222D01*
X70864Y141864D01*
X71533Y141196D01*
X71719Y139781D01*
X72575Y137713D01*
X73938Y135938D01*
X75713Y134575D01*
X77500Y133835D01*
Y114998D01*
Y105350D01*
X72450D01*
Y83108D01*
X64563D01*
X64432Y83082D01*
X64299Y83102D01*
X63363Y82869D01*
X62417Y82681D01*
X62306Y82606D01*
X62176Y82574D01*
X61113Y82074D01*
X60337Y81501D01*
X59535Y80965D01*
X59460Y80854D01*
X59353Y80774D01*
X58886Y80000D01*
X38500D01*
Y65629D01*
X37908Y65307D01*
X36964Y64520D01*
X36804Y64320D01*
X36591Y64178D01*
X36121Y63475D01*
X35590Y62817D01*
X35517Y62572D01*
X35375Y62359D01*
X35210Y61529D01*
X34971Y60719D01*
X34998Y60464D01*
X34948Y60213D01*
Y46716D01*
X35375Y44570D01*
X36591Y42750D01*
X37594Y41747D01*
X37919Y41530D01*
X38179Y41238D01*
X39120Y40527D01*
X39761Y40217D01*
X40354Y39821D01*
X40738Y39744D01*
X41090Y39574D01*
X41801Y39533D01*
X42500Y39394D01*
X45500D01*
Y37252D01*
X52500D01*
Y35502D01*
X54250D01*
Y29002D01*
X56892D01*
Y27500D01*
X57319Y25354D01*
X58535Y23535D01*
X61035Y21035D01*
X62854Y19819D01*
X65000Y19392D01*
X101892D01*
X102434Y19500D01*
X102890D01*
X103535Y18535D01*
X104479Y17591D01*
X105096Y17178D01*
X104788Y15857D01*
X104020Y15755D01*
X101709Y14798D01*
X100430Y13817D01*
X62570D01*
X61291Y14798D01*
X58980Y15755D01*
X56500Y16082D01*
X54020Y15755D01*
X51709Y14798D01*
X50430Y13817D01*
X46794D01*
X46008Y14814D01*
X46255Y15842D01*
X46582Y20000D01*
X46255Y24158D01*
X45385Y27779D01*
X46005Y28758D01*
X46329Y29002D01*
X50750D01*
Y33752D01*
X45500D01*
Y31004D01*
X44230Y30751D01*
X43685Y32068D01*
X41505Y35624D01*
X38796Y38796D01*
X35624Y41505D01*
X32068Y43685D01*
X28214Y45281D01*
X24158Y46255D01*
X20000Y46582D01*
X16087Y46274D01*
X15276Y46672D01*
X14817Y47034D01*
Y59582D01*
X15298Y60209D01*
X16255Y62520D01*
X16582Y65000D01*
X16255Y67480D01*
X15298Y69791D01*
X14817Y70418D01*
Y109582D01*
X15298Y110209D01*
X16255Y112520D01*
X16582Y115000D01*
X16255Y117480D01*
X15298Y119791D01*
X14817Y120418D01*
Y159582D01*
X15298Y160209D01*
X16255Y162520D01*
X16582Y165000D01*
X16255Y167480D01*
X15298Y169791D01*
X14817Y170418D01*
Y209582D01*
X15298Y210209D01*
X16255Y212520D01*
X16582Y215000D01*
X16255Y217480D01*
X15298Y219791D01*
X14817Y220418D01*
Y259582D01*
X15298Y260209D01*
X16255Y262520D01*
X16582Y265000D01*
X16255Y267480D01*
X15298Y269791D01*
X14817Y270418D01*
Y309582D01*
X15298Y310209D01*
X16255Y312520D01*
X16582Y315000D01*
X16255Y317480D01*
X15298Y319791D01*
X14817Y320418D01*
Y359582D01*
X15298Y360209D01*
X16255Y362520D01*
X16582Y365000D01*
X16255Y367480D01*
X15298Y369791D01*
X14817Y370418D01*
Y409582D01*
X15298Y410209D01*
X16255Y412520D01*
X16582Y415000D01*
X16255Y417480D01*
X15298Y419791D01*
X14817Y420418D01*
X14817Y459582D01*
X15298Y460209D01*
X16255Y462520D01*
X16582Y465000D01*
X16255Y467480D01*
X15298Y469791D01*
X14817Y470418D01*
Y509582D01*
X15298Y510209D01*
X16255Y512520D01*
X16582Y515000D01*
X16255Y517480D01*
X15298Y519791D01*
X14817Y520418D01*
Y557687D01*
X22507D01*
X23069Y556548D01*
X22734Y556113D01*
X21273Y552585D01*
X20775Y548800D01*
X21273Y545015D01*
X22734Y541488D01*
X25058Y538459D01*
X27089Y536900D01*
Y535300D01*
X25058Y533741D01*
X22734Y530713D01*
X21273Y527185D01*
X20775Y523400D01*
X21273Y519615D01*
X22734Y516087D01*
X25058Y513059D01*
X27089Y511500D01*
Y509900D01*
X25058Y508341D01*
X22734Y505312D01*
X21273Y501785D01*
X20775Y498000D01*
X21273Y494215D01*
X22734Y490687D01*
X25058Y487659D01*
X27089Y486100D01*
Y484500D01*
X25058Y482942D01*
X22734Y479912D01*
X21273Y476385D01*
X20775Y472600D01*
X21273Y468815D01*
X22734Y465288D01*
X25058Y462258D01*
X27089Y460700D01*
Y459100D01*
X25058Y457542D01*
X22734Y454512D01*
X21273Y450985D01*
X20775Y447200D01*
X21273Y443415D01*
X22734Y439888D01*
X25058Y436858D01*
X27089Y435300D01*
Y433700D01*
X25058Y432141D01*
X22734Y429113D01*
X21273Y425585D01*
X20775Y421800D01*
X21273Y418015D01*
X22734Y414487D01*
X25058Y411459D01*
X27089Y409900D01*
Y408300D01*
X25058Y406741D01*
X22734Y403713D01*
X21273Y400185D01*
X20775Y396400D01*
X21273Y392615D01*
X22734Y389087D01*
X25058Y386059D01*
X27089Y384500D01*
Y382900D01*
X25058Y381342D01*
X22734Y378312D01*
X21273Y374785D01*
X20775Y371000D01*
X21273Y367215D01*
X22734Y363688D01*
X25058Y360658D01*
X27089Y359100D01*
Y357500D01*
X25058Y355942D01*
X22734Y352912D01*
X21273Y349385D01*
X20775Y345600D01*
X21273Y341815D01*
X22734Y338288D01*
X25058Y335258D01*
X27089Y333700D01*
Y332100D01*
X25058Y330541D01*
X22734Y327513D01*
X21273Y323985D01*
X20775Y320200D01*
X21273Y316415D01*
X22734Y312887D01*
X25058Y309858D01*
X27089Y308300D01*
Y306700D01*
X25058Y305142D01*
X22734Y302113D01*
X21273Y298585D01*
X20775Y294800D01*
X21273Y291015D01*
X22734Y287488D01*
X25058Y284459D01*
X27089Y282900D01*
Y281300D01*
X25058Y279741D01*
X22734Y276712D01*
X21273Y273185D01*
X20775Y269400D01*
X21273Y265615D01*
X22734Y262087D01*
X25058Y259058D01*
X27089Y257500D01*
Y255900D01*
X25058Y254342D01*
X22734Y251313D01*
X21273Y247785D01*
X20775Y244000D01*
X21273Y240215D01*
X22734Y236688D01*
X25058Y233659D01*
X27089Y232100D01*
Y230500D01*
X25058Y228941D01*
X22734Y225912D01*
X21273Y222385D01*
X20775Y218600D01*
X21273Y214815D01*
X22734Y211287D01*
X25058Y208258D01*
X27089Y206700D01*
Y205100D01*
X25058Y203542D01*
X22734Y200513D01*
X21273Y196985D01*
X20775Y193200D01*
X21273Y189415D01*
X22734Y185888D01*
X25058Y182859D01*
X27089Y181300D01*
Y179700D01*
X25058Y178141D01*
X22734Y175112D01*
X21273Y171585D01*
X20775Y167800D01*
X21273Y164015D01*
X22734Y160487D01*
X25058Y157458D01*
X27089Y155900D01*
Y154300D01*
X25058Y152741D01*
X22734Y149712D01*
X21273Y146185D01*
X20775Y142400D01*
X21273Y138615D01*
X22734Y135087D01*
X25058Y132058D01*
X28087Y129734D01*
X31615Y128273D01*
X35400Y127775D01*
X39185Y128273D01*
X42712Y129734D01*
X45742Y132058D01*
X48066Y135087D01*
X49527Y138615D01*
X50025Y142400D01*
X49527Y146185D01*
X48066Y149712D01*
X45742Y152741D01*
X43711Y154300D01*
Y155900D01*
X45742Y157458D01*
X48066Y160487D01*
X49527Y164015D01*
X50025Y167800D01*
X49527Y171585D01*
X48066Y175112D01*
X45742Y178141D01*
X43711Y179700D01*
Y181300D01*
X45742Y182859D01*
X48066Y185888D01*
X49527Y189415D01*
X50025Y193200D01*
X49527Y196985D01*
X48066Y200513D01*
X45742Y203542D01*
X43711Y205100D01*
Y206700D01*
X45742Y208258D01*
X48066Y211287D01*
X49527Y214815D01*
X50025Y218600D01*
X49527Y222385D01*
X48066Y225912D01*
X45742Y228941D01*
X43711Y230500D01*
Y232100D01*
X45742Y233659D01*
X48066Y236688D01*
X49527Y240215D01*
X50025Y244000D01*
X49527Y247785D01*
X48066Y251313D01*
X45742Y254342D01*
X43711Y255900D01*
Y257500D01*
X45742Y259058D01*
X48066Y262087D01*
X49527Y265615D01*
X50025Y269400D01*
X49527Y273185D01*
X48066Y276712D01*
X45742Y279741D01*
X43711Y281300D01*
Y282900D01*
X45742Y284459D01*
X48066Y287488D01*
X49527Y291015D01*
X50025Y294800D01*
X49527Y298585D01*
X48066Y302113D01*
X45742Y305142D01*
X43711Y306700D01*
Y308300D01*
X45742Y309858D01*
X48066Y312887D01*
X49527Y316415D01*
X50025Y320200D01*
X49527Y323985D01*
X48066Y327513D01*
X45742Y330541D01*
X43711Y332100D01*
Y333700D01*
X45742Y335258D01*
X48066Y338288D01*
X49527Y341815D01*
X50025Y345600D01*
X49527Y349385D01*
X48066Y352912D01*
X45742Y355942D01*
X43711Y357500D01*
Y359100D01*
X45742Y360658D01*
X48066Y363688D01*
X49527Y367215D01*
X50025Y371000D01*
X49527Y374785D01*
X48066Y378312D01*
X45742Y381342D01*
X43711Y382900D01*
Y384500D01*
X45742Y386059D01*
X48066Y389087D01*
X49527Y392615D01*
X50025Y396400D01*
X49527Y400185D01*
X48066Y403713D01*
X45742Y406741D01*
X43711Y408300D01*
Y409900D01*
X45742Y411459D01*
X48066Y414487D01*
X49527Y418015D01*
X50025Y421800D01*
X49527Y425585D01*
X48066Y429113D01*
X45742Y432141D01*
X43711Y433700D01*
Y435300D01*
X45742Y436858D01*
X48066Y439888D01*
X49527Y443415D01*
X50025Y447200D01*
X49527Y450985D01*
X48066Y454512D01*
X45742Y457542D01*
X43711Y459100D01*
Y460700D01*
X45742Y462258D01*
X48066Y465288D01*
X49527Y468815D01*
X50025Y472600D01*
X49527Y476385D01*
X48066Y479912D01*
X45742Y482942D01*
X43711Y484500D01*
Y486100D01*
X45742Y487659D01*
X48066Y490687D01*
X49527Y494215D01*
X50025Y498000D01*
X49527Y501785D01*
X48066Y505312D01*
X45742Y508341D01*
X43711Y509900D01*
Y511500D01*
X45742Y513059D01*
X48066Y516087D01*
X49527Y519615D01*
X50025Y523400D01*
X49527Y527185D01*
X48066Y530713D01*
X45742Y533741D01*
X43711Y535300D01*
Y536900D01*
X45742Y538459D01*
X48066Y541488D01*
X49527Y545015D01*
X50025Y548800D01*
X49527Y552585D01*
X48066Y556113D01*
X47731Y556548D01*
X48293Y557687D01*
X50924D01*
X52209Y556702D01*
X54520Y555745D01*
X57000Y555418D01*
X59480Y555745D01*
X61791Y556702D01*
X63075Y557687D01*
X72732D01*
X73580Y556417D01*
D02*
G37*
G36*
X354607Y532893D02*
X352934Y530713D01*
X351473Y527185D01*
X350975Y523400D01*
X351473Y519615D01*
X352934Y516087D01*
X355000Y513395D01*
Y508005D01*
X352934Y505312D01*
X351473Y501785D01*
X350975Y498000D01*
X351473Y494215D01*
X352934Y490687D01*
X355000Y487995D01*
Y482605D01*
X352934Y479912D01*
X351473Y476385D01*
X350975Y472600D01*
X351473Y468815D01*
X352891Y465391D01*
X350000Y462500D01*
X345000D01*
X340350Y467150D01*
Y484625D01*
X330850D01*
Y506375D01*
X313350D01*
Y505813D01*
X312177Y505327D01*
X308858Y508645D01*
Y511080D01*
X310128Y511929D01*
X311928Y511183D01*
X313050Y511035D01*
Y523400D01*
X314800D01*
Y525150D01*
X325862D01*
X325517Y527772D01*
X324408Y530448D01*
X322645Y532745D01*
X321409Y533694D01*
X321575Y534953D01*
X321860Y535071D01*
X324785Y537315D01*
X324927Y537500D01*
X350000D01*
X354607Y532893D01*
D02*
G37*
G36*
X297236Y501011D02*
X307686Y490561D01*
X309096Y489479D01*
X310738Y488799D01*
X312500Y488567D01*
X313350D01*
Y484375D01*
X322850D01*
Y477850D01*
X322500Y477500D01*
Y470000D01*
X319620D01*
X319602Y470000D01*
X318350Y470044D01*
Y472875D01*
X306850D01*
Y467625D01*
X307591D01*
X308602Y467000D01*
X308602Y466355D01*
Y462312D01*
X307332Y461881D01*
X307136Y462136D01*
X305750Y463521D01*
X305350Y464625D01*
X305350D01*
Y484625D01*
X295850D01*
Y500731D01*
X297120Y501162D01*
X297236Y501011D01*
D02*
G37*
G36*
X268981Y492507D02*
X269475Y491313D01*
X270838Y489538D01*
X272613Y488175D01*
X274681Y487319D01*
X276900Y487027D01*
X277395Y487092D01*
X278350Y486255D01*
Y484375D01*
X287850D01*
Y470000D01*
X284620D01*
X284602Y470000D01*
X283350Y470044D01*
Y472875D01*
X271850D01*
Y467625D01*
X272591D01*
X273602Y467000D01*
X273602Y466355D01*
Y461750D01*
X280101D01*
Y460000D01*
X281851D01*
Y453000D01*
X284602D01*
Y450000D01*
X292500D01*
Y446652D01*
X291500Y446000D01*
X280750D01*
Y437500D01*
X279000D01*
Y435750D01*
X266500D01*
Y431056D01*
X264500D01*
X262803Y430833D01*
X261222Y430178D01*
X260178Y429377D01*
X258908Y429827D01*
Y484230D01*
X267483Y492805D01*
X268981Y492507D01*
D02*
G37*
G36*
X271250Y346875D02*
X280750D01*
Y327125D01*
X295000D01*
Y313498D01*
X298444D01*
Y312500D01*
X298667Y310803D01*
X299322Y309222D01*
X300364Y307864D01*
X304444Y303784D01*
Y285079D01*
X296364Y277000D01*
X295322Y275642D01*
X294667Y274061D01*
X294444Y272364D01*
Y264808D01*
X294667Y263111D01*
X295322Y261530D01*
X296364Y260172D01*
X301172Y255364D01*
X302530Y254322D01*
X304111Y253667D01*
X305807Y253444D01*
X309444D01*
Y233944D01*
X308056Y232556D01*
X302136D01*
X300439Y232332D01*
X298857Y231677D01*
X297500Y230635D01*
X287864Y220999D01*
X286822Y219641D01*
X286167Y218060D01*
X285943Y216363D01*
Y210418D01*
X285075Y209286D01*
X284218Y207218D01*
X283935Y205068D01*
X283755Y203908D01*
X283750Y203875D01*
X283713Y202620D01*
X280000D01*
Y217498D01*
X277000D01*
Y220248D01*
X270000D01*
Y221998D01*
X268250D01*
Y228498D01*
X263000D01*
X262000Y229150D01*
Y235998D01*
X256749D01*
Y229499D01*
X255000D01*
Y227749D01*
X248000D01*
Y224998D01*
X245000D01*
Y205998D01*
X245000D01*
X245831Y204728D01*
X245678Y203570D01*
X244846Y202620D01*
X206003D01*
Y203250D01*
X199503D01*
Y206750D01*
X206003D01*
Y212000D01*
X206000D01*
Y215750D01*
X199500D01*
Y219250D01*
X206000D01*
Y223000D01*
X206003D01*
Y228250D01*
X199503D01*
Y230000D01*
X197753D01*
Y237000D01*
X195003D01*
Y240000D01*
X179254D01*
X177970Y240532D01*
X175751Y240824D01*
X174091Y240606D01*
X172820Y241476D01*
Y257500D01*
X185002D01*
Y260500D01*
X187752D01*
Y267500D01*
X191252D01*
Y260500D01*
X196002D01*
Y262498D01*
X198000D01*
Y259749D01*
X205000D01*
X212000D01*
Y261752D01*
X214504D01*
Y258749D01*
X224001D01*
Y256999D01*
X225751D01*
Y248750D01*
X233499D01*
X233500Y247481D01*
Y245750D01*
X258000D01*
Y244000D01*
X263250D01*
Y250500D01*
X265000D01*
Y252250D01*
X272000D01*
Y255000D01*
X275000D01*
Y274000D01*
X271556D01*
Y285828D01*
X272265Y286210D01*
X272826Y286333D01*
X274465Y285075D01*
X276533Y284219D01*
X278752Y283927D01*
X280970Y284219D01*
X283038Y285075D01*
X284814Y286438D01*
X286176Y288213D01*
X287033Y290281D01*
X287325Y292500D01*
X287319Y292547D01*
X288156Y293502D01*
X290000D01*
Y312502D01*
X287000D01*
Y315252D01*
X273000D01*
Y312502D01*
X270751D01*
Y314752D01*
X267751D01*
Y317502D01*
X260751D01*
Y319252D01*
X259001D01*
Y325752D01*
X255751D01*
Y327417D01*
X256807Y328122D01*
X257781Y327719D01*
X260000Y327427D01*
X262219Y327719D01*
X264287Y328575D01*
X266062Y329938D01*
X266206Y330125D01*
X268750D01*
Y337125D01*
Y344125D01*
X266556D01*
Y349500D01*
X266333Y351197D01*
X265678Y352778D01*
X264636Y354136D01*
X262556Y356216D01*
Y365213D01*
X263500Y366000D01*
X271250D01*
Y346875D01*
D02*
G37*
G36*
X231032Y311470D02*
X233251Y311177D01*
X234481Y311339D01*
X235751Y310277D01*
Y310251D01*
X238751D01*
Y307501D01*
X245751D01*
Y304001D01*
X238751D01*
Y300000D01*
X218502D01*
Y298376D01*
X217781Y298281D01*
X215713Y297425D01*
X213938Y296062D01*
X213123Y295000D01*
X208165D01*
X207425Y296787D01*
X206062Y298562D01*
X204287Y299925D01*
X202219Y300781D01*
X200000Y301073D01*
X197781Y300781D01*
X197556Y300688D01*
X196500Y301394D01*
Y303750D01*
X187500D01*
Y307250D01*
X196500D01*
Y307798D01*
X197770Y308556D01*
X199500Y308212D01*
X225652D01*
X226548Y308390D01*
X227454Y308510D01*
X227616Y308603D01*
X227798Y308639D01*
X228558Y309147D01*
X229349Y309604D01*
X229463Y309751D01*
X229617Y309855D01*
X230125Y310614D01*
X230681Y311339D01*
X230794Y311568D01*
X231032Y311470D01*
D02*
G37*
G36*
X270751Y306894D02*
X273000D01*
Y304752D01*
X280000D01*
Y303002D01*
X281750D01*
Y296470D01*
X282216Y295968D01*
X282466Y295310D01*
X282444Y295232D01*
X282338Y294920D01*
X282008Y294349D01*
X281984Y294164D01*
X281902Y293997D01*
X281872Y293548D01*
X281765Y293232D01*
X281569Y291745D01*
X281278Y291041D01*
X280814Y290437D01*
X280210Y289974D01*
X279507Y289682D01*
X278752Y289583D01*
X277997Y289682D01*
X277293Y289974D01*
X276240Y290782D01*
X276023Y290889D01*
X275848Y291056D01*
X275048Y291369D01*
X274277Y291749D01*
X274036Y291765D01*
X273811Y291853D01*
X272952Y291836D01*
X272094Y291893D01*
X271865Y291815D01*
X271623Y291810D01*
X271062Y291687D01*
X270351Y291376D01*
X270244Y291343D01*
X269636Y292136D01*
X267136Y294636D01*
X265778Y295678D01*
X264197Y296333D01*
X262500Y296556D01*
X255419D01*
X254287Y297425D01*
X254147Y297482D01*
X254400Y298752D01*
X259001D01*
Y305252D01*
X260751D01*
Y307002D01*
X268626D01*
X269021Y307238D01*
X270751Y306894D01*
D02*
G37*
G36*
X338554Y199875D02*
X333808D01*
Y202000D01*
X333576Y203762D01*
X332896Y205404D01*
X331814Y206814D01*
X331413Y207215D01*
X331281Y208219D01*
X330425Y210287D01*
X329062Y212062D01*
X328283Y212661D01*
X328200Y213928D01*
X334636Y220364D01*
X335678Y221722D01*
X336333Y223303D01*
X336556Y225000D01*
Y392000D01*
X336333Y393697D01*
X335678Y395278D01*
X334636Y396636D01*
X321086Y410186D01*
X319766Y411198D01*
X319727Y411236D01*
X319478Y412706D01*
X319636Y412864D01*
X320678Y414222D01*
X321333Y415803D01*
X321556Y417500D01*
Y423498D01*
X338554D01*
Y199875D01*
D02*
G37*
G36*
X271750Y201498D02*
X274615D01*
X274819Y200474D01*
X276035Y198655D01*
X277854Y197440D01*
X280000Y197013D01*
X283713D01*
X284705Y197210D01*
X285480Y197340D01*
X286403Y196871D01*
X286750Y196508D01*
Y194625D01*
X292500D01*
Y192875D01*
X293673D01*
X293426Y191000D01*
X293718Y188781D01*
X294250Y187497D01*
Y184875D01*
X296019D01*
X297713Y183575D01*
X298149Y183395D01*
X297896Y182125D01*
X293250D01*
Y179000D01*
X291750D01*
Y182125D01*
X275424D01*
X275280Y183219D01*
X274423Y185287D01*
X273061Y187062D01*
X271285Y188425D01*
X269217Y189281D01*
X266998Y189573D01*
X264779Y189281D01*
X262712Y188425D01*
X261656Y187615D01*
X256636Y192636D01*
X255278Y193678D01*
X254962Y193809D01*
X255133Y195112D01*
X256471Y195288D01*
X258538Y196145D01*
X260314Y197507D01*
X261676Y199283D01*
X262204Y200558D01*
X263000Y201498D01*
X268250D01*
Y207998D01*
X271750D01*
Y201498D01*
D02*
G37*
G36*
X162500Y310002D02*
X165500D01*
Y307252D01*
X172500D01*
Y305502D01*
X174250D01*
Y299002D01*
X175500D01*
Y279000D01*
X177000D01*
Y274500D01*
X169002D01*
Y269250D01*
X175502D01*
Y265750D01*
X169002D01*
Y261563D01*
X168855Y261465D01*
X167640Y259646D01*
X167213Y257500D01*
Y241476D01*
X167314Y240967D01*
X167308Y240448D01*
X167526Y239904D01*
X167640Y239330D01*
X167928Y238899D01*
X168121Y238417D01*
X168530Y237998D01*
X168855Y237511D01*
X168894Y237277D01*
X168326Y236537D01*
X167470Y234470D01*
X167177Y232251D01*
X167470Y230032D01*
X168326Y227964D01*
X169688Y226189D01*
X170519Y225551D01*
Y223950D01*
X169688Y223313D01*
X168326Y221537D01*
X167470Y219470D01*
X167177Y217251D01*
X167470Y215032D01*
X168326Y212964D01*
X169688Y211189D01*
X171464Y209826D01*
X173532Y208970D01*
X175751Y208677D01*
X176000Y208459D01*
Y207500D01*
X179003D01*
Y206750D01*
X185503D01*
Y205000D01*
X187253D01*
Y198000D01*
X190003D01*
Y195000D01*
X188917Y194556D01*
X177000D01*
X175303Y194333D01*
X173722Y193678D01*
X172364Y192636D01*
X168364Y188636D01*
X167322Y187278D01*
X166667Y185697D01*
X166444Y184000D01*
Y179716D01*
X162284Y175556D01*
X160000D01*
X158303Y175333D01*
X156722Y174678D01*
X155364Y173636D01*
X153364Y171636D01*
X152997Y171158D01*
X152000Y170500D01*
X150000D01*
Y174248D01*
X143000D01*
Y177748D01*
X150000D01*
Y178046D01*
X151270Y178804D01*
X153000Y178460D01*
X156683D01*
X158828Y178887D01*
X160648Y180102D01*
X161863Y181921D01*
X162290Y184067D01*
Y195248D01*
Y203019D01*
X162005Y204452D01*
X161834Y205750D01*
X162005Y207048D01*
X162290Y208481D01*
Y267500D01*
Y304191D01*
X161863Y306338D01*
X160648Y308157D01*
X159411Y309394D01*
X159002Y309926D01*
X158887Y310204D01*
X158799Y310870D01*
Y316000D01*
X162500D01*
Y310002D01*
D02*
G37*
G36*
X102248Y195500D02*
X104998D01*
Y192500D01*
X107000D01*
Y190000D01*
X110000Y187000D01*
X116000D01*
Y180498D01*
X119000D01*
Y177748D01*
X126000D01*
Y174248D01*
X118231D01*
X117730Y173949D01*
X116000Y174294D01*
X106869D01*
X106073Y174398D01*
X105673Y174564D01*
X105036Y175053D01*
X101695Y178394D01*
X101695Y178394D01*
X99875Y179610D01*
X97729Y180037D01*
X96556Y180998D01*
Y195500D01*
X98748D01*
Y202500D01*
X102248D01*
Y195500D01*
D02*
G37*
G36*
X384683Y519418D02*
X384202Y518791D01*
X383245Y516480D01*
X382918Y514000D01*
X383245Y511520D01*
X384202Y509209D01*
X384683Y508582D01*
Y469418D01*
X384202Y468791D01*
X383245Y466480D01*
X382918Y464000D01*
X383245Y461520D01*
X384202Y459209D01*
X384683Y458582D01*
Y419418D01*
X384202Y418791D01*
X383245Y416480D01*
X382918Y414000D01*
X383245Y411520D01*
X384202Y409209D01*
X384683Y408582D01*
Y369418D01*
X384202Y368791D01*
X383245Y366480D01*
X382918Y364000D01*
X383245Y361520D01*
X384202Y359209D01*
X384683Y358582D01*
Y319418D01*
X384202Y318791D01*
X383245Y316480D01*
X382918Y314000D01*
X383245Y311520D01*
X384202Y309209D01*
X384683Y308582D01*
Y269418D01*
X384202Y268791D01*
X383245Y266480D01*
X382918Y264000D01*
X383245Y261520D01*
X384202Y259209D01*
X384683Y258582D01*
Y219418D01*
X384202Y218791D01*
X383245Y216480D01*
X382918Y214000D01*
X383245Y211520D01*
X384202Y209209D01*
X384683Y208582D01*
Y169418D01*
X384202Y168791D01*
X383245Y166480D01*
X382918Y164000D01*
X383245Y161520D01*
X384202Y159209D01*
X384683Y158582D01*
Y119418D01*
X384202Y118791D01*
X383245Y116480D01*
X382918Y114000D01*
X383245Y111520D01*
X384202Y109209D01*
X384683Y108582D01*
Y69418D01*
X384202Y68791D01*
X383245Y66480D01*
X382918Y64000D01*
X383245Y61520D01*
X384202Y59209D01*
X384683Y58582D01*
Y47304D01*
X383413Y46313D01*
X380000Y46582D01*
X375842Y46255D01*
X371786Y45281D01*
X367932Y43685D01*
X364375Y41505D01*
X362655Y40036D01*
X361502Y40567D01*
Y42000D01*
X356752D01*
Y35000D01*
X353252D01*
Y42000D01*
X350502D01*
Y45000D01*
X331502D01*
Y43376D01*
X330781Y43281D01*
X328713Y42425D01*
X326938Y41062D01*
X325575Y39287D01*
X324719Y37219D01*
X324427Y35000D01*
X324719Y32781D01*
X323841Y31582D01*
X321692Y30692D01*
X318872Y28528D01*
X317078Y26191D01*
X315808Y26622D01*
Y35364D01*
X317380Y36570D01*
X319264Y39024D01*
X320448Y41883D01*
X320851Y44950D01*
Y46950D01*
X320684Y48224D01*
X321521Y49179D01*
X337500D01*
X339654Y49462D01*
X341661Y50294D01*
X343384Y51616D01*
X352759Y60991D01*
X353523Y61987D01*
X354977Y61795D01*
X355555Y60400D01*
X357398Y57998D01*
X359800Y56155D01*
X362598Y54996D01*
X363850Y54831D01*
Y66200D01*
X365600D01*
Y67950D01*
X376969D01*
X376804Y69202D01*
X375645Y72000D01*
X373802Y74402D01*
X371400Y76245D01*
X370569Y76589D01*
Y77964D01*
X372912Y78934D01*
X375942Y81258D01*
X378266Y84288D01*
X379727Y87815D01*
X380225Y91600D01*
X379727Y95385D01*
X378266Y98912D01*
X375942Y101941D01*
X373911Y103500D01*
Y105100D01*
X375942Y106658D01*
X378266Y109688D01*
X379727Y113215D01*
X380225Y117000D01*
X379727Y120785D01*
X378266Y124312D01*
X375942Y127341D01*
X372912Y129666D01*
X369385Y131127D01*
X365600Y131625D01*
X361815Y131127D01*
X358287Y129666D01*
X356466Y128268D01*
X355196Y128895D01*
Y143953D01*
X357219Y144219D01*
X359287Y145075D01*
X361062Y146438D01*
X362425Y148213D01*
X363281Y150281D01*
X363529Y152167D01*
X364500Y153320D01*
X365600Y153175D01*
X369385Y153673D01*
X372912Y155134D01*
X375942Y157458D01*
X378266Y160487D01*
X379727Y164015D01*
X380225Y167800D01*
X379727Y171585D01*
X378266Y175112D01*
X375942Y178141D01*
X373911Y179700D01*
Y181300D01*
X375942Y182859D01*
X378266Y185888D01*
X379727Y189415D01*
X380225Y193200D01*
X379727Y196985D01*
X378266Y200513D01*
X375942Y203542D01*
X373911Y205100D01*
Y206700D01*
X375942Y208258D01*
X378266Y211287D01*
X379727Y214815D01*
X380225Y218600D01*
X379727Y222385D01*
X378266Y225912D01*
X375942Y228941D01*
X373911Y230500D01*
Y232100D01*
X375942Y233659D01*
X378266Y236688D01*
X379727Y240215D01*
X380225Y244000D01*
X379727Y247785D01*
X378266Y251313D01*
X375942Y254342D01*
X373911Y255900D01*
Y257500D01*
X375942Y259058D01*
X378266Y262087D01*
X379727Y265615D01*
X380225Y269400D01*
X379727Y273185D01*
X378266Y276712D01*
X375942Y279741D01*
X373911Y281300D01*
Y282900D01*
X375942Y284459D01*
X378266Y287488D01*
X379727Y291015D01*
X380225Y294800D01*
X379727Y298585D01*
X378266Y302113D01*
X375942Y305142D01*
X373911Y306700D01*
Y308300D01*
X375942Y309858D01*
X378266Y312887D01*
X379727Y316415D01*
X380225Y320200D01*
X379727Y323985D01*
X378266Y327513D01*
X375942Y330541D01*
X373911Y332100D01*
Y333700D01*
X375942Y335258D01*
X378266Y338288D01*
X379727Y341815D01*
X380225Y345600D01*
X379727Y349385D01*
X378266Y352912D01*
X375942Y355942D01*
X373911Y357500D01*
Y359100D01*
X375942Y360658D01*
X378266Y363688D01*
X379727Y367215D01*
X380225Y371000D01*
X379727Y374785D01*
X378266Y378312D01*
X375942Y381342D01*
X373911Y382900D01*
Y384500D01*
X375942Y386059D01*
X378266Y389087D01*
X379727Y392615D01*
X380225Y396400D01*
X379727Y400185D01*
X378266Y403713D01*
X375942Y406741D01*
X373911Y408300D01*
Y409900D01*
X375942Y411459D01*
X378266Y414487D01*
X379727Y418015D01*
X380225Y421800D01*
X379727Y425585D01*
X378266Y429113D01*
X375942Y432141D01*
X373911Y433700D01*
Y435300D01*
X375942Y436858D01*
X378266Y439888D01*
X379727Y443415D01*
X380225Y447200D01*
X379727Y450985D01*
X378266Y454512D01*
X375942Y457542D01*
X373911Y459100D01*
Y460700D01*
X375942Y462258D01*
X378266Y465288D01*
X379727Y468815D01*
X380225Y472600D01*
X379727Y476385D01*
X378266Y479912D01*
X375942Y482942D01*
X373911Y484500D01*
Y486100D01*
X375942Y487659D01*
X378266Y490687D01*
X379727Y494215D01*
X380225Y498000D01*
X379727Y501785D01*
X378266Y505312D01*
X375942Y508341D01*
X373911Y509900D01*
Y511500D01*
X375942Y513059D01*
X378266Y516087D01*
X379727Y519615D01*
X380225Y523400D01*
X379727Y527185D01*
X378266Y530713D01*
X375942Y533741D01*
X373911Y535300D01*
Y536900D01*
X375942Y538459D01*
X378266Y541488D01*
X379727Y545015D01*
X380225Y548800D01*
X379727Y552585D01*
X378266Y556113D01*
X377931Y556548D01*
X378493Y557687D01*
X384683D01*
Y519418D01*
D02*
G37*
G36*
X253444Y177284D02*
Y171000D01*
X253667Y169303D01*
X254322Y167722D01*
X255364Y166364D01*
X263364Y158364D01*
X264722Y157322D01*
X266303Y156667D01*
X268000Y156444D01*
X310444D01*
Y149000D01*
X310667Y147303D01*
X311322Y145722D01*
X312364Y144364D01*
X319364Y137364D01*
X320722Y136322D01*
X322303Y135667D01*
X324000Y135444D01*
X324002Y135444D01*
X325581D01*
X326713Y134575D01*
X328781Y133719D01*
X331000Y133427D01*
X333219Y133719D01*
X335287Y134575D01*
X337062Y135938D01*
X337284Y136227D01*
X338554Y135795D01*
Y109610D01*
X293500D01*
Y112302D01*
X292380D01*
X292268Y113151D01*
X291361Y115340D01*
X289919Y117220D01*
X288039Y118663D01*
X285849Y119570D01*
X283500Y119879D01*
X281150Y119570D01*
X278961Y118663D01*
X277081Y117220D01*
X275639Y115340D01*
X274732Y113151D01*
X274620Y112302D01*
X273500D01*
Y93302D01*
X276500D01*
Y90552D01*
X290500D01*
Y93302D01*
X293500D01*
Y95993D01*
X338554D01*
Y92500D01*
Y70322D01*
X334053Y65821D01*
X235608D01*
Y105000D01*
X235181Y107146D01*
X233965Y108965D01*
X224735Y118195D01*
X222916Y119411D01*
X222500Y119494D01*
Y119998D01*
X219500D01*
Y122748D01*
X212500D01*
X205500D01*
Y119998D01*
X202500D01*
Y117071D01*
X202181Y117008D01*
X200361Y115792D01*
X198770Y114200D01*
X197500Y114533D01*
Y119998D01*
X194500D01*
Y122748D01*
X187500D01*
X180500D01*
Y119998D01*
X177500D01*
Y100998D01*
X177500Y100998D01*
X177500D01*
X176904Y99987D01*
X175789Y98534D01*
X175735Y98403D01*
X174465D01*
X174410Y98534D01*
X172207Y101407D01*
X169334Y103611D01*
X165989Y104996D01*
X162400Y105469D01*
X158811Y104996D01*
X155466Y103611D01*
X152593Y101407D01*
X150389Y98534D01*
X149004Y95190D01*
X148827Y93850D01*
X147547D01*
X147473Y94406D01*
X146390Y97021D01*
X144667Y99267D01*
X142421Y100990D01*
X139806Y102073D01*
X138750Y102212D01*
Y91600D01*
Y80988D01*
X139806Y81127D01*
X142421Y82210D01*
X144667Y83933D01*
X146390Y86179D01*
X147473Y88794D01*
X147547Y89350D01*
X148827D01*
X149004Y88011D01*
X150389Y84666D01*
X152593Y81793D01*
X155466Y79589D01*
X158811Y78204D01*
X162400Y77731D01*
X165989Y78204D01*
X166274Y78322D01*
X167473Y77444D01*
Y71900D01*
X178473D01*
Y68400D01*
X167473D01*
Y63426D01*
X167431Y63398D01*
X162723D01*
Y56898D01*
X159223D01*
Y63398D01*
X156183D01*
X156154Y63546D01*
X154938Y65365D01*
X153119Y66581D01*
X151973Y66809D01*
Y70150D01*
X137473D01*
X122973D01*
Y68521D01*
X121703Y67764D01*
X119973Y68108D01*
X119823D01*
X111346Y76585D01*
X111949Y77777D01*
X115189Y78204D01*
X118534Y79589D01*
X121407Y81793D01*
X123610Y84666D01*
X124996Y88011D01*
X125172Y89350D01*
X126453D01*
X126527Y88794D01*
X127610Y86179D01*
X129333Y83933D01*
X131579Y82210D01*
X134194Y81127D01*
X135250Y80988D01*
Y91600D01*
Y102212D01*
X134194Y102073D01*
X131579Y100990D01*
X129333Y99267D01*
X127610Y97021D01*
X126527Y94406D01*
X126453Y93850D01*
X125172D01*
X124996Y95190D01*
X123610Y98534D01*
X121407Y101407D01*
X120000Y102486D01*
Y114998D01*
Y133998D01*
X116556D01*
Y139000D01*
X116333Y140697D01*
X115678Y142278D01*
X114636Y143636D01*
X96556Y161716D01*
Y173943D01*
X97729Y174429D01*
X101331Y170828D01*
X101331Y170828D01*
X102845Y169666D01*
X104609Y168935D01*
X106502Y168686D01*
X106502Y168686D01*
X116000D01*
Y166498D01*
X131000D01*
Y152500D01*
Y136500D01*
X132183D01*
Y128340D01*
X131719Y127219D01*
X131427Y125000D01*
X131719Y122781D01*
X132575Y120713D01*
X133938Y118938D01*
X135713Y117575D01*
X137781Y116719D01*
X140000Y116427D01*
X142219Y116719D01*
X143500Y117249D01*
X144781Y116719D01*
X147000Y116427D01*
X149219Y116719D01*
X151287Y117575D01*
X153062Y118938D01*
X154425Y120713D01*
X155281Y122781D01*
X155573Y125000D01*
X155281Y127219D01*
X154817Y128340D01*
Y136500D01*
X155000D01*
Y140576D01*
X155697Y140667D01*
X157278Y141322D01*
X158636Y142364D01*
X162636Y146364D01*
X163678Y147722D01*
X164333Y149303D01*
X164556Y151000D01*
Y162444D01*
X165000D01*
X166697Y162667D01*
X168278Y163322D01*
X169636Y164364D01*
X177636Y172364D01*
X178678Y173722D01*
X179333Y175303D01*
X179556Y177000D01*
Y181284D01*
X179716Y181444D01*
X249284D01*
X253444Y177284D01*
D02*
G37*
G36*
X230000Y105000D02*
Y57500D01*
X228400Y55900D01*
X223524D01*
Y52900D01*
X219773D01*
Y43900D01*
X216273D01*
Y52900D01*
X210524D01*
Y52400D01*
X210475Y51150D01*
X201225D01*
Y43150D01*
X197725D01*
Y51150D01*
X180223D01*
Y43150D01*
Y35150D01*
X193000D01*
Y31249D01*
X200000D01*
Y27748D01*
X193000D01*
Y25000D01*
X170000D01*
X166556Y21556D01*
X151973D01*
Y24150D01*
X137473D01*
X122973D01*
Y21556D01*
X108444D01*
X107500Y22500D01*
Y25000D01*
X120900Y38400D01*
X153973D01*
Y36398D01*
X159223D01*
Y42898D01*
X162723D01*
Y36398D01*
X167473D01*
Y35150D01*
X176723D01*
Y43150D01*
Y51150D01*
X170973D01*
Y59150D01*
X213475D01*
Y80794D01*
X216006Y81127D01*
X218621Y82210D01*
X220867Y83933D01*
X222590Y86179D01*
X223673Y88794D01*
X223812Y89850D01*
X213200D01*
Y91600D01*
X211450D01*
Y102212D01*
X210394Y102073D01*
X207779Y100990D01*
X205533Y99267D01*
X203810Y97021D01*
X203770Y96925D01*
X202500Y97178D01*
Y110000D01*
X204327Y111827D01*
X205500Y111341D01*
Y103998D01*
X210750D01*
Y110499D01*
X212500D01*
Y112248D01*
X219500D01*
Y113704D01*
X220770Y114230D01*
X230000Y105000D01*
D02*
G37*
G36*
X117500Y62500D02*
X119973D01*
Y61400D01*
X150973D01*
Y56400D01*
X139223D01*
Y48900D01*
X137473D01*
Y47150D01*
X122973D01*
Y44008D01*
X120900D01*
X118754Y43581D01*
X116935Y42365D01*
X103535Y28965D01*
X102319Y27146D01*
X101892Y25000D01*
X65000D01*
X62500Y27500D01*
Y45002D01*
X59500D01*
Y47752D01*
X45500D01*
Y45002D01*
X42500D01*
X42500Y45002D01*
Y45002D01*
X41559Y45712D01*
X40556Y46716D01*
Y60213D01*
X41500Y61000D01*
X41826Y61000D01*
X50750D01*
Y69000D01*
X52500D01*
Y70750D01*
X63500D01*
Y76230D01*
X63500Y77000D01*
X64563Y77500D01*
X102500Y77500D01*
X117500Y62500D01*
D02*
G37*
%LPC*%
G36*
X173250Y469250D02*
X163631D01*
X163796Y467998D01*
X164955Y465200D01*
X166798Y462798D01*
X169200Y460955D01*
X171998Y459796D01*
X173250Y459631D01*
Y469250D01*
D02*
G37*
G36*
X179500Y326002D02*
X174250D01*
Y321252D01*
X179500D01*
Y326002D01*
D02*
G37*
G36*
X111900Y289270D02*
X111309Y289152D01*
X109324Y287826D01*
X107998Y285841D01*
X107947Y285586D01*
X106652D01*
X106602Y285841D01*
X105276Y287826D01*
X103291Y289152D01*
X102700Y289269D01*
Y274500D01*
Y259731D01*
X103291Y259848D01*
X105276Y261174D01*
X106602Y263159D01*
X106652Y263414D01*
X107947D01*
X107998Y263159D01*
X109324Y261174D01*
X111309Y259848D01*
X111900Y259730D01*
Y274500D01*
Y289270D01*
D02*
G37*
G36*
X137300D02*
X136709Y289152D01*
X134724Y287826D01*
X133398Y285841D01*
X133347Y285586D01*
X132052D01*
X132002Y285841D01*
X130676Y287826D01*
X128691Y289152D01*
X128100Y289269D01*
Y274500D01*
Y259731D01*
X128691Y259848D01*
X130676Y261174D01*
X132002Y263159D01*
X132052Y263414D01*
X133347D01*
X133398Y263159D01*
X134724Y261174D01*
X136709Y259848D01*
X137300Y259730D01*
Y274500D01*
Y289270D01*
D02*
G37*
G36*
X124600D02*
X124009Y289152D01*
X122024Y287826D01*
X120698Y285841D01*
X120647Y285586D01*
X119353D01*
X119302Y285841D01*
X117976Y287826D01*
X115991Y289152D01*
X115400Y289269D01*
Y274500D01*
Y259731D01*
X115991Y259848D01*
X117976Y261174D01*
X119302Y263159D01*
X119353Y263414D01*
X120647D01*
X120698Y263159D01*
X122024Y261174D01*
X124009Y259848D01*
X124600Y259730D01*
Y274500D01*
Y289270D01*
D02*
G37*
G36*
X140800Y289269D02*
Y276250D01*
X145168D01*
Y283500D01*
X144702Y285841D01*
X143376Y287826D01*
X141391Y289152D01*
X140800Y289269D01*
D02*
G37*
G36*
X145168Y272750D02*
X140800D01*
Y259731D01*
X141391Y259848D01*
X143376Y261174D01*
X144702Y263159D01*
X145168Y265500D01*
Y272750D01*
D02*
G37*
G36*
X63500Y104000D02*
X54250D01*
Y97750D01*
X63500D01*
Y104000D01*
D02*
G37*
G36*
X50750D02*
X41500D01*
Y97750D01*
X50750D01*
Y104000D01*
D02*
G37*
G36*
X63500Y94250D02*
X54250D01*
Y88000D01*
X63500D01*
Y94250D01*
D02*
G37*
G36*
X50750D02*
X41500D01*
Y88000D01*
X50750D01*
Y94250D01*
D02*
G37*
G36*
X325862Y521650D02*
X316550D01*
Y511035D01*
X317672Y511183D01*
X320347Y512291D01*
X322645Y514055D01*
X324408Y516353D01*
X325517Y519028D01*
X325862Y521650D01*
D02*
G37*
G36*
X318350Y481625D02*
X314350D01*
Y476375D01*
X318350D01*
Y481625D01*
D02*
G37*
G36*
X310850D02*
X306850D01*
Y476375D01*
X310850D01*
Y481625D01*
D02*
G37*
G36*
X283350D02*
X279350D01*
Y476375D01*
X283350D01*
Y481625D01*
D02*
G37*
G36*
X275850D02*
X271850D01*
Y476375D01*
X275850D01*
Y481625D01*
D02*
G37*
G36*
X278351Y458250D02*
X273602D01*
Y453000D01*
X278351D01*
Y458250D01*
D02*
G37*
G36*
X277250Y446000D02*
X266500D01*
Y439250D01*
X277250D01*
Y446000D01*
D02*
G37*
G36*
X276250Y344125D02*
X272250D01*
Y338875D01*
X276250D01*
Y344125D01*
D02*
G37*
G36*
Y335375D02*
X272250D01*
Y330125D01*
X276250D01*
Y335375D01*
D02*
G37*
G36*
X267751Y325752D02*
X262501D01*
Y321002D01*
X267751D01*
Y325752D01*
D02*
G37*
G36*
X287000Y323502D02*
X281750D01*
Y318752D01*
X287000D01*
Y323502D01*
D02*
G37*
G36*
X278250D02*
X273000D01*
Y318752D01*
X278250D01*
Y323502D01*
D02*
G37*
G36*
X212000Y256249D02*
X206750D01*
Y251498D01*
X212000D01*
Y256249D01*
D02*
G37*
G36*
X203250D02*
X198000D01*
Y251498D01*
X203250D01*
Y256249D01*
D02*
G37*
G36*
X222251Y255249D02*
X214504D01*
Y248750D01*
X222251D01*
Y255249D01*
D02*
G37*
G36*
X272000Y248750D02*
X266750D01*
Y244000D01*
X272000D01*
Y248750D01*
D02*
G37*
G36*
X206003Y237000D02*
X201253D01*
Y231750D01*
X206003D01*
Y237000D01*
D02*
G37*
G36*
X253250Y235998D02*
X248000D01*
Y231248D01*
X253250D01*
Y235998D01*
D02*
G37*
G36*
X271750Y228498D02*
Y223748D01*
X277000D01*
Y228498D01*
X271750D01*
D02*
G37*
G36*
X267751Y303502D02*
X262501D01*
Y298752D01*
X267751D01*
Y303502D01*
D02*
G37*
G36*
X278250Y301252D02*
X273000D01*
Y296502D01*
X278250D01*
Y301252D01*
D02*
G37*
G36*
X290750Y191125D02*
X286750D01*
Y184875D01*
X290750D01*
Y191125D01*
D02*
G37*
G36*
X170750Y303752D02*
X165500D01*
Y299002D01*
X170750D01*
Y303752D01*
D02*
G37*
G36*
X183753Y203250D02*
X179003D01*
Y198000D01*
X183753D01*
Y203250D01*
D02*
G37*
G36*
X376969Y64450D02*
X367350D01*
Y54831D01*
X368602Y54996D01*
X371400Y56155D01*
X373802Y57998D01*
X375645Y60400D01*
X376804Y63198D01*
X376969Y64450D01*
D02*
G37*
G36*
X219500Y130998D02*
X214250D01*
Y126248D01*
X219500D01*
Y130998D01*
D02*
G37*
G36*
X194500D02*
X189250D01*
Y126248D01*
X194500D01*
Y130998D01*
D02*
G37*
G36*
X185750D02*
X180500D01*
Y126248D01*
X185750D01*
Y130998D01*
D02*
G37*
G36*
X210750D02*
X205500D01*
Y126248D01*
X210750D01*
Y130998D01*
D02*
G37*
G36*
X290500Y87052D02*
X285250D01*
Y82302D01*
X290500D01*
Y87052D01*
D02*
G37*
G36*
X281750D02*
X276500D01*
Y82302D01*
X281750D01*
Y87052D01*
D02*
G37*
G36*
X151973Y79400D02*
X139223D01*
Y73650D01*
X151973D01*
Y79400D01*
D02*
G37*
G36*
X135723D02*
X122973D01*
Y73650D01*
X135723D01*
Y79400D01*
D02*
G37*
G36*
X219500Y108749D02*
X214250D01*
Y103998D01*
X219500D01*
Y108749D01*
D02*
G37*
G36*
X214950Y102212D02*
Y93350D01*
X223812D01*
X223673Y94406D01*
X222590Y97021D01*
X220867Y99267D01*
X218621Y100990D01*
X216006Y102073D01*
X214950Y102212D01*
D02*
G37*
G36*
X151973Y33400D02*
X139223D01*
Y27650D01*
X151973D01*
Y33400D01*
D02*
G37*
G36*
X135723D02*
X122973D01*
Y27650D01*
X135723D01*
Y33400D01*
D02*
G37*
G36*
X63500Y67250D02*
X54250D01*
Y61000D01*
X63500D01*
Y67250D01*
D02*
G37*
G36*
X59500Y56002D02*
X54250D01*
Y51252D01*
X59500D01*
Y56002D01*
D02*
G37*
G36*
X50750D02*
X45500D01*
Y51252D01*
X50750D01*
Y56002D01*
D02*
G37*
G36*
X93973Y67900D02*
X81223D01*
Y50650D01*
X93973D01*
Y67900D01*
D02*
G37*
G36*
X77723D02*
X64973D01*
Y50650D01*
X77723D01*
Y67900D01*
D02*
G37*
G36*
X135723Y56400D02*
X122973D01*
Y50650D01*
X135723D01*
Y56400D01*
D02*
G37*
G36*
X93973Y47150D02*
X81223D01*
Y29900D01*
X93973D01*
Y47150D01*
D02*
G37*
G36*
X77723D02*
X64973D01*
Y29900D01*
X77723D01*
Y47150D01*
D02*
G37*
%LPD*%
D10*
X95408Y322000D02*
X136000D01*
X75500Y302092D02*
X95408Y322000D01*
X75500Y146500D02*
Y302092D01*
X80000Y152000D02*
Y300228D01*
X94772Y315000D01*
X130000D01*
X85500Y156500D02*
Y299364D01*
X94136Y308000D01*
X136000D01*
X90000Y159000D02*
Y297500D01*
X92500Y300000D01*
X130000D01*
X113650Y232500D02*
Y274500D01*
Y225500D02*
Y232500D01*
X202500Y322500D02*
X207500Y327500D01*
X249000Y348499D02*
X251500Y351000D01*
X249000Y335999D02*
Y348499D01*
X240000Y336000D02*
Y345500D01*
X256000Y353500D02*
X260000Y349500D01*
Y336000D02*
Y349500D01*
X207500Y327500D02*
X262500D01*
X232500Y344000D02*
Y347500D01*
X239000Y346500D02*
X240000Y345500D01*
X226000Y337979D02*
X228479Y335500D01*
X230500D01*
X226000Y347364D02*
X230000Y351364D01*
X226000Y337979D02*
Y347364D01*
X239000Y346500D02*
X247000Y354500D01*
X230000Y351364D02*
Y385000D01*
X172500Y319502D02*
X173002Y319000D01*
X193000D01*
X196500Y322500D01*
X202500D01*
X172500Y319502D02*
X173000Y320002D01*
X140000Y274500D02*
Y275450D01*
X139050Y274500D02*
X140000D01*
X126350D02*
X139050D01*
X113650D02*
X126350D01*
X100950D02*
X113650D01*
X140000Y280000D02*
X150000D01*
X316000Y231228D02*
Y257000D01*
X313000Y260000D02*
X316000Y257000D01*
X305807Y260000D02*
X313000D01*
X316450Y405550D02*
X330000Y392000D01*
Y225000D02*
Y392000D01*
X310000Y205000D02*
X330000Y225000D01*
X310772Y226000D02*
X316000Y231228D01*
X316735Y392265D02*
X320500Y388500D01*
Y229364D02*
Y388500D01*
X312635Y221500D02*
X320500Y229364D01*
X316314Y399050D02*
X325000Y390364D01*
Y227500D02*
Y390364D01*
X312500Y215000D02*
X325000Y227500D01*
X312500Y347500D02*
X316000Y344000D01*
Y276000D02*
Y344000D01*
X307500Y267500D02*
X316000Y276000D01*
X305000Y312500D02*
X311000Y306500D01*
Y282364D02*
Y306500D01*
X301000Y272364D02*
X311000Y282364D01*
X224000Y230000D02*
X254498D01*
X208000D02*
X224000D01*
X225000Y231000D02*
Y247500D01*
X224000Y230000D02*
X225000Y231000D01*
X280000Y250000D02*
Y275000D01*
Y226000D02*
Y250000D01*
X197000Y124000D02*
X233000D01*
X199502Y15000D02*
X215000D01*
X279500Y250500D02*
X280000Y250000D01*
X265000Y250500D02*
X279500D01*
X280000Y317002D02*
Y325000D01*
X279000Y326000D02*
X280000Y325000D01*
X273000Y326000D02*
X279000D01*
X269000Y335625D02*
X270500Y337125D01*
X269000Y330000D02*
Y335625D01*
Y330000D02*
X273000Y326000D01*
X304000Y144000D02*
X315000Y133000D01*
X335000D01*
X340000Y138000D01*
Y172000D01*
X337000Y175000D02*
X340000Y172000D01*
X337000Y175000D02*
Y192875D01*
X324001Y142000D02*
X331000D01*
X324000Y142000D02*
X324001Y142000D01*
X317000Y149000D02*
X324000Y142000D01*
X280000Y275000D02*
X290999Y285999D01*
X270000Y221998D02*
X275998D01*
X277000Y223000D01*
Y223000D01*
X280000Y226000D01*
X258500Y250500D02*
X265000D01*
X255000Y247000D02*
X258500Y250500D01*
X255000Y237500D02*
Y247000D01*
X254498Y230000D02*
X255000Y229498D01*
X199503Y230000D02*
Y241497D01*
X190000Y251000D02*
X199503Y241497D01*
X190000Y251000D02*
Y259000D01*
X37000Y96000D02*
X52500D01*
X34000Y93000D02*
X37000Y96000D01*
X34000Y44000D02*
Y93000D01*
Y44000D02*
X42498Y35502D01*
X52500D01*
X355000Y44000D02*
X361000D01*
X365600Y48600D01*
Y66200D01*
X143000Y118000D02*
X162000D01*
X137000Y112000D02*
X143000Y118000D01*
X137000Y91600D02*
Y112000D01*
X162000Y118000D02*
X168498Y124498D01*
X187500D01*
X213000Y133000D02*
X224000Y144000D01*
X304000D01*
X310000Y93000D02*
X319000D01*
X302000D02*
X310000D01*
X297802Y88802D02*
X302000Y93000D01*
X283500Y88802D02*
X297802D01*
X268198D02*
X283500D01*
X233000Y124000D02*
X268198Y88802D01*
X187998Y124000D02*
X197000D01*
X187500Y124498D02*
X187998Y124000D01*
X190000Y15000D02*
X199502D01*
X65000D02*
X190000D01*
X53000Y27000D02*
X65000Y15000D01*
X165000Y169000D02*
X173000Y177000D01*
X160000Y169000D02*
X165000D01*
X158000Y167000D02*
X160000Y169000D01*
X158000Y151000D02*
Y167000D01*
X268000Y163000D02*
X315000D01*
X260000Y171000D02*
X268000Y163000D01*
X260000Y171000D02*
Y180000D01*
X317000Y149000D02*
Y161000D01*
X315000Y163000D02*
X317000Y161000D01*
X173000Y177000D02*
Y184000D01*
X154000Y147000D02*
X158000Y151000D01*
X143000Y147000D02*
X154000D01*
X173000Y184000D02*
X177000Y188000D01*
X252000D01*
X260000Y180000D01*
X75500Y146500D02*
X80000Y142000D01*
Y152000D02*
X90000Y142000D01*
X110000Y124498D02*
Y139000D01*
X90000Y159000D02*
X110000Y139000D01*
X98000Y127000D02*
Y144000D01*
X85500Y156500D02*
X98000Y144000D01*
X95498Y124498D02*
X98000Y127000D01*
X87500Y124498D02*
X95498D01*
X302250Y191250D02*
Y200250D01*
X302000Y191000D02*
X302250Y191250D01*
X300999Y201501D02*
X302250Y200250D01*
X300999Y201501D02*
Y217692D01*
X278752Y301753D02*
X279498Y302500D01*
X278752Y292500D02*
Y301753D01*
X264999Y232500D02*
X270000Y227499D01*
Y221998D02*
Y227499D01*
X255000Y237500D02*
X255000Y237500D01*
X255000Y229498D02*
Y237500D01*
X264500Y194551D02*
X265000Y194051D01*
X242002Y290000D02*
X262500D01*
X256000Y258500D02*
Y262500D01*
X254499Y256999D02*
X256000Y258500D01*
X245998Y256999D02*
X254499D01*
X256000Y262500D02*
X258000Y264500D01*
X265000D01*
X220000Y290000D02*
X220000Y290000D01*
X228002D01*
X262500D02*
X265000Y287500D01*
Y266998D02*
Y287500D01*
X265000Y266998D02*
X265000Y266998D01*
X228002Y285002D02*
Y290000D01*
X224002Y281002D02*
X228002Y285002D01*
X224002Y273001D02*
Y281002D01*
X205000Y271998D02*
X206003Y273001D01*
X224002D01*
X267735Y392265D02*
X316735D01*
X270000Y405550D02*
X316450D01*
X213000Y124998D02*
Y133000D01*
X212500Y124498D02*
X213000Y124998D01*
X173000Y329999D02*
X173000Y329999D01*
Y320002D02*
Y329999D01*
X301000Y264808D02*
X305807Y260000D01*
X301000Y264808D02*
Y272364D01*
X307500Y267500D02*
X307500Y267500D01*
X302136Y226000D02*
X310772D01*
X292499Y216363D02*
X302136Y226000D01*
X304807Y221500D02*
X312635D01*
X300999Y217692D02*
X304807Y221500D01*
X307499Y215000D02*
X312500D01*
X292499Y205000D02*
Y216363D01*
X305000Y312500D02*
Y322998D01*
X305000Y322998D02*
X305000Y322998D01*
X307500Y347500D02*
X312500D01*
X262500Y399050D02*
X316314D01*
X286500Y411000D02*
X308500D01*
X282500Y415000D02*
X286500Y411000D01*
X267728Y415000D02*
X282500D01*
X290000Y417500D02*
X297500D01*
X299500Y424500D02*
X302500Y427500D01*
X264500Y424500D02*
X299500D01*
X247000Y407000D02*
X264500Y424500D01*
X251500Y405136D02*
X266364Y420000D01*
X256000Y403272D02*
X267728Y415000D01*
X256000Y353500D02*
Y403272D01*
X251500Y351000D02*
Y405136D01*
X247000Y354500D02*
Y407000D01*
X302500Y427500D02*
Y433002D01*
X266364Y420000D02*
X287500D01*
X290000Y417500D01*
X308500Y411000D02*
X315000Y417500D01*
X295000Y460000D02*
Y473025D01*
Y460000D02*
X300000D01*
X294102D02*
X295000D01*
X302500Y447002D02*
Y457500D01*
X300000Y460000D02*
X302500Y457500D01*
X315000Y417500D02*
Y430000D01*
X317998Y432998D01*
X329600D01*
X232500Y347500D02*
X240000Y355000D01*
Y382500D01*
X187500Y91900D02*
X187800Y91600D01*
X187500Y91900D02*
Y110498D01*
X295000Y473025D02*
X296600Y474625D01*
D11*
X114498Y202500D02*
Y231652D01*
X113650Y232500D02*
X114498Y231652D01*
X233251Y319751D02*
X245751D01*
X167500Y347500D02*
Y403200D01*
X175100Y410800D01*
X167500Y335499D02*
X173000Y329999D01*
X167500Y335499D02*
Y347500D01*
X142000Y339000D02*
Y347500D01*
Y339000D02*
X150000Y331000D01*
Y302500D02*
Y331000D01*
X140000Y292500D02*
X150000Y302500D01*
X140000Y280000D02*
Y292500D01*
Y275450D02*
Y280000D01*
X290999Y285999D02*
Y313752D01*
X288251Y316500D02*
X290999Y313752D01*
X200254Y230000D02*
Y232251D01*
Y218000D02*
Y230000D01*
Y217251D02*
Y218000D01*
Y202251D02*
Y205000D01*
X270998Y317002D02*
X280000D01*
X268748Y319252D02*
X270998Y317002D01*
X260751Y319252D02*
X268748D01*
X136000Y489000D02*
X192700D01*
X197246Y494000D02*
X226350Y464896D01*
X199317Y499000D02*
X232100Y466217D01*
X200950Y504438D02*
X237100Y468288D01*
X162150Y494000D02*
X197246D01*
X182550Y499000D02*
X199317D01*
X175550Y506000D02*
Y535650D01*
Y506000D02*
X182550Y499000D01*
X112000Y484000D02*
X185200D01*
X99350Y496650D02*
Y535650D01*
Y496650D02*
X112000Y484000D01*
X124750Y500250D02*
Y535650D01*
Y500250D02*
X136000Y489000D01*
X150150Y506000D02*
Y535650D01*
Y506000D02*
X162150Y494000D01*
X185200Y484000D02*
X204600Y464600D01*
X192700Y489000D02*
X219600Y462100D01*
X200950Y504438D02*
Y535650D01*
X346875Y152000D02*
X347375Y152500D01*
X355000D01*
X200254Y205000D02*
Y217251D01*
Y205000D02*
X208000D01*
X199503D02*
X200254D01*
X199503Y205000D02*
X199503Y205000D01*
X200254Y218000D02*
X208000D01*
X200000D02*
X200254D01*
X199500Y217500D02*
X200000Y218000D01*
X200254Y230000D02*
X208000D01*
X199503D02*
X200254D01*
X208000D02*
X208000Y230000D01*
X190000Y259000D02*
Y267002D01*
X189502Y267500D02*
X190000Y267002D01*
X355000Y44000D02*
X355002Y43998D01*
Y35000D02*
Y43998D01*
X333000Y35000D02*
X333000Y35000D01*
X341002D01*
X283500Y102802D02*
X346677D01*
X337500Y193375D02*
Y205000D01*
X327000Y185000D02*
Y202000D01*
X323000Y206000D02*
X327000Y202000D01*
X324500Y182500D02*
X327000Y185000D01*
X319000Y182500D02*
X324500D01*
X309000D02*
Y191500D01*
X310375Y192875D02*
X318000D01*
X309000Y191500D02*
X310375Y192875D01*
X327500Y162500D02*
Y172125D01*
X325000Y160000D02*
X327500Y162500D01*
X325000Y152500D02*
Y160000D01*
X302000Y172125D02*
X327500D01*
X280000Y182500D02*
Y194140D01*
X266998Y175502D02*
Y181000D01*
Y175502D02*
X270000Y172500D01*
X282625D01*
X283000Y172125D01*
X269500Y194551D02*
X270000D01*
X290823D02*
X292500Y192875D01*
X337000D02*
X337500Y193375D01*
X283500Y80802D02*
Y88802D01*
X160000Y310502D02*
Y331750D01*
X149250Y342500D02*
X160000Y331750D01*
X149250Y342500D02*
Y372750D01*
X160000Y310502D02*
X164751Y305751D01*
X139050Y274500D02*
X140000Y275450D01*
X280502Y316500D02*
X288251D01*
X280000Y317002D02*
X280502Y316500D01*
X260751Y305252D02*
X262498Y307000D01*
X254251Y214750D02*
X255000Y215498D01*
X254251Y203570D02*
Y214750D01*
X175000Y268002D02*
X175502Y267500D01*
X175000Y268002D02*
Y277500D01*
X164751Y267500D02*
X164751Y267500D01*
X175502D01*
X183252Y232251D02*
X185503Y230000D01*
X175751Y232251D02*
X183252D01*
X175751Y217251D02*
X176000Y217500D01*
X185500D01*
X251750Y494750D02*
Y535650D01*
X247100Y490100D02*
X251750Y494750D01*
X247100Y427100D02*
Y490100D01*
X142000Y380000D02*
X149250Y372750D01*
X289627Y336998D02*
X305000D01*
X289500Y337125D02*
X289627Y336998D01*
X262500Y377500D02*
X279000D01*
X262500D02*
Y382500D01*
Y321002D02*
Y327500D01*
X260751Y319252D02*
X262500Y321002D01*
X111600Y91600D02*
Y108898D01*
X110000Y110498D02*
X111600Y108898D01*
X86200Y91600D02*
X87500Y92900D01*
Y110498D01*
X312500Y495375D02*
X322100D01*
X302050Y505825D02*
X312500Y495375D01*
X302050Y505825D02*
Y536050D01*
X314800Y548800D01*
X329600Y446998D02*
Y472625D01*
X331600Y474625D01*
X252100Y487050D02*
X277150Y512100D01*
X252100Y422000D02*
Y487050D01*
X242199Y412099D02*
X252100Y422000D01*
X242100Y422100D02*
X247100Y427100D01*
X277150Y512100D02*
Y535650D01*
X237099Y429599D02*
X242100Y434599D01*
Y470359D01*
X226350Y486109D02*
X242100Y470359D01*
X232099Y437099D02*
X237100Y442099D01*
Y468288D01*
X227100Y444599D02*
X232100Y449599D01*
Y466217D01*
X222100Y452100D02*
X226350Y456350D01*
Y464896D01*
X264000Y548800D02*
X277150Y535650D01*
X238600Y548800D02*
X251750Y535650D01*
X213200Y548800D02*
X226350Y535650D01*
Y486109D02*
Y535650D01*
X187800Y548800D02*
X200950Y535650D01*
X162400Y548800D02*
X175550Y535650D01*
X137000Y548800D02*
X150150Y535650D01*
X111600Y548800D02*
X124750Y535650D01*
X86200Y548800D02*
X99350Y535650D01*
X143000Y199000D02*
X143000Y199000D01*
Y206000D01*
X139050Y209950D02*
X143000Y206000D01*
X126000Y189998D02*
X127000Y190998D01*
Y200000D02*
Y224850D01*
X126350Y225500D02*
X127000Y224850D01*
Y190998D02*
Y200000D01*
X139050Y209950D02*
Y225500D01*
X143000Y189998D02*
Y199000D01*
X190500Y292500D02*
X200000D01*
X187500Y289500D02*
X190500Y292500D01*
X200251Y217251D02*
X200254D01*
X260751Y304751D02*
Y305252D01*
X283500Y102802D02*
Y110802D01*
D12*
X186000Y5748D02*
Y6000D01*
Y5000D02*
X240000D01*
Y5748D02*
Y6250D01*
D17*
X100498Y202500D02*
D03*
X114498D02*
D03*
X175502Y267500D02*
D03*
X189502D02*
D03*
X228002Y290000D02*
D03*
X242002D02*
D03*
X280102Y460000D02*
D03*
X294102D02*
D03*
X329102D02*
D03*
X315102D02*
D03*
X185503Y230000D02*
D03*
X199503D02*
D03*
X341002Y35000D02*
D03*
X355002D02*
D03*
X199500Y217500D02*
D03*
X185500D02*
D03*
X185503Y205000D02*
D03*
X199503D02*
D03*
D18*
X143000Y147000D02*
D03*
Y163000D02*
D03*
X187500Y305500D02*
D03*
Y289500D02*
D03*
D19*
X110000Y110498D02*
D03*
Y124498D02*
D03*
X87500Y110498D02*
D03*
Y124498D02*
D03*
X52500Y49502D02*
D03*
Y35502D02*
D03*
X160973Y56898D02*
D03*
Y42898D02*
D03*
X126000Y175998D02*
D03*
Y189998D02*
D03*
X143000Y175998D02*
D03*
Y189998D02*
D03*
X205000Y271998D02*
D03*
Y257998D02*
D03*
X265000Y264500D02*
D03*
Y250500D02*
D03*
X270000Y221998D02*
D03*
Y207998D02*
D03*
X255000Y229498D02*
D03*
Y215498D02*
D03*
X245751Y305751D02*
D03*
Y319751D02*
D03*
X260751Y305252D02*
D03*
Y319252D02*
D03*
X280000Y303002D02*
D03*
Y317002D02*
D03*
X305000Y336998D02*
D03*
Y322998D02*
D03*
X329600Y432998D02*
D03*
Y446998D02*
D03*
X302500Y433002D02*
D03*
Y447002D02*
D03*
X187500Y110498D02*
D03*
Y124498D02*
D03*
X212500D02*
D03*
Y110498D02*
D03*
X172500Y305502D02*
D03*
Y319502D02*
D03*
X200000Y29498D02*
D03*
Y15498D02*
D03*
X225000Y29498D02*
D03*
Y15498D02*
D03*
X283500Y88802D02*
D03*
Y102802D02*
D03*
D23*
X270500Y337125D02*
D03*
X289500D02*
D03*
X296600Y474625D02*
D03*
X277600D02*
D03*
X331600D02*
D03*
X312600D02*
D03*
X302000Y172125D02*
D03*
X283000D02*
D03*
X318000Y192875D02*
D03*
X337000D02*
D03*
D24*
X280000Y357875D02*
D03*
X287100Y495375D02*
D03*
X322100D02*
D03*
X292500Y192875D02*
D03*
X327500Y172125D02*
D03*
D49*
X234024Y43900D02*
X253900D01*
X246750Y35850D02*
X254250D01*
X246350D02*
X246750D01*
X223002Y257998D02*
X224002Y256999D01*
X205000Y257998D02*
X223002D01*
X160973Y41898D02*
X162974Y43900D01*
X225000Y29498D02*
X225502Y30000D01*
X232500D01*
X234024Y31524D01*
Y43900D01*
X246750Y35850D02*
Y43750D01*
X254250Y35850D02*
Y43750D01*
X100950Y181550D02*
Y225500D01*
X53000Y27000D02*
Y35002D01*
X52500Y35502D02*
X53000Y35002D01*
X245998Y273001D02*
X247997Y275000D01*
X257500D01*
X205000Y250000D02*
X205000Y250000D01*
X205000Y250000D02*
Y257998D01*
X265000Y242502D02*
X265000Y242502D01*
X265000Y242502D02*
Y250500D01*
X225000Y247500D02*
Y256001D01*
X224002Y256999D02*
X225000Y256001D01*
X279000Y377500D02*
X280000Y376500D01*
Y357875D02*
Y376500D01*
X126000Y175998D02*
X143000D01*
X106502D02*
X126000D01*
X100950Y181550D02*
X106502Y175998D01*
X260751Y305252D02*
X261252Y304751D01*
D51*
X20000Y6000D02*
X186000D01*
X240000Y6250D02*
X385000D01*
X20000Y6000D02*
Y20000D01*
X392500D02*
Y564000D01*
X7000D02*
X7000Y33000D01*
X78473Y48900D02*
X79473D01*
X75973Y51400D02*
X78473Y48900D01*
X79473D02*
X137473D01*
D52*
X7000Y565000D02*
X392500D01*
X346875Y152000D02*
Y483125D01*
Y103000D02*
Y152000D01*
Y92500D02*
Y103000D01*
Y66875D02*
Y92500D01*
X312500Y483125D02*
X312600Y483025D01*
X346875Y485000D02*
Y508525D01*
X312600Y474625D02*
Y483025D01*
X218024Y57500D02*
Y74476D01*
X213200Y79300D02*
X218024Y74476D01*
X213200Y79300D02*
Y91600D01*
X218024Y43900D02*
Y57500D01*
X337500D01*
X346875Y66875D01*
X55973Y48900D02*
X78473D01*
X314800Y523400D02*
X332000D01*
X346875Y508525D01*
D53*
X52500Y49502D02*
Y69000D01*
X172973Y72000D02*
X180973D01*
X309000Y21500D02*
Y45950D01*
Y21500D02*
X315100Y15400D01*
X328500D01*
X245000D02*
X258400D01*
X264500Y21500D01*
Y45950D01*
X195973Y72000D02*
Y79973D01*
Y71898D02*
Y72000D01*
X197625D01*
X180973D02*
X195973D01*
X163000D02*
X172973D01*
X180973D02*
Y78973D01*
Y70898D02*
Y72000D01*
X172973D02*
Y78973D01*
Y70898D02*
Y72000D01*
X203973Y71898D02*
Y79973D01*
X160973Y64973D02*
X161000Y65000D01*
X160973Y56898D02*
Y64973D01*
X197625Y72000D02*
X199475Y70150D01*
X156000Y72000D02*
X163000D01*
X155900Y71900D02*
X156000Y72000D01*
X137473Y71900D02*
X155900D01*
X199475Y43900D02*
X218024D01*
X199475D02*
X200000Y43375D01*
X162974Y43900D02*
X199475D01*
X200000Y29498D02*
Y43375D01*
X346875Y92500D02*
X347775Y91600D01*
X147000Y128000D02*
Y145000D01*
X140000Y128000D02*
Y145000D01*
X143000Y147000D02*
X144000Y146000D01*
X215000Y15000D02*
X224502D01*
X225000Y15498D01*
X199502Y15000D02*
X200000Y15498D01*
X347775Y91600D02*
X365600D01*
X277600Y482600D02*
X280000Y485000D01*
X346875D01*
X94300Y421800D02*
X164100D01*
X63500Y391000D02*
X94300Y421800D01*
X63500Y138500D02*
Y391000D01*
X52500Y69000D02*
X52500Y69000D01*
X164751Y205750D02*
X165501Y205000D01*
X185503D01*
X143000Y175998D02*
X143000Y175998D01*
Y163000D02*
Y175998D01*
X265000Y437500D02*
Y447500D01*
X279000Y448199D02*
Y458898D01*
Y437500D02*
Y448199D01*
X278301Y447500D02*
X279000Y448199D01*
X265000Y447500D02*
X278301D01*
X265000Y437500D02*
X265000Y437500D01*
X279000D01*
Y458898D02*
X280102Y460000D01*
X212500Y92300D02*
X213200Y91600D01*
X212500Y92300D02*
Y110498D01*
X137000Y91600D02*
X137473Y91127D01*
Y71900D02*
Y91127D01*
X52500Y96000D02*
Y127500D01*
X63500Y138500D01*
X175100Y421800D02*
X186100D01*
X164100D02*
X175100D01*
X277600Y474625D02*
Y482600D01*
X160973Y28900D02*
Y41898D01*
X157973Y25900D02*
X160973Y28900D01*
X137473Y25900D02*
X157973D01*
D55*
X267499Y474999D02*
X267873Y474625D01*
X277600D01*
X315102Y460000D02*
Y464898D01*
X312500Y467500D02*
X315102Y464898D01*
X312500Y467500D02*
Y474525D01*
X312600Y474625D01*
X287125D02*
X287500Y475000D01*
X277600Y474625D02*
X287125D01*
X277500Y474525D02*
X277600Y474625D01*
X277500Y467500D02*
Y474525D01*
Y467500D02*
X280102Y464898D01*
Y460000D02*
Y464898D01*
X277125Y495375D02*
X287100D01*
X276900Y495600D02*
X277125Y495375D01*
D56*
X137000Y91600D02*
D03*
X111600D02*
D03*
X162400D02*
D03*
X187800D02*
D03*
X213200D02*
D03*
D57*
X86200D02*
D03*
D58*
X175000Y471000D02*
D03*
X365600Y523400D02*
D03*
X35400Y269400D02*
D03*
Y218600D02*
D03*
Y294800D02*
D03*
Y244000D02*
D03*
Y320200D02*
D03*
Y421800D02*
D03*
X365600Y218600D02*
D03*
X35400Y447200D02*
D03*
X365600Y498000D02*
D03*
Y193200D02*
D03*
Y472600D02*
D03*
X35400Y167800D02*
D03*
X365600Y447200D02*
D03*
X35400Y193200D02*
D03*
X365600Y421800D02*
D03*
X35400Y345600D02*
D03*
X365600Y167800D02*
D03*
Y396400D02*
D03*
X35400Y142400D02*
D03*
X365600Y371000D02*
D03*
Y345600D02*
D03*
X35400Y472600D02*
D03*
X365600Y320200D02*
D03*
X35400Y498000D02*
D03*
X365600Y294800D02*
D03*
X35400Y523400D02*
D03*
X365600Y269400D02*
D03*
X35400Y548800D02*
D03*
X365600Y244000D02*
D03*
X35400Y371000D02*
D03*
X365600Y548800D02*
D03*
X35400Y396400D02*
D03*
X365600Y117000D02*
D03*
Y66200D02*
D03*
Y91600D02*
D03*
D59*
X289400Y548800D02*
D03*
X314800Y523400D02*
D03*
X289400D02*
D03*
X162400D02*
D03*
X137000D02*
D03*
X111600D02*
D03*
X86200D02*
D03*
X187800Y548800D02*
D03*
X238600D02*
D03*
X213200D02*
D03*
X162400D02*
D03*
X111600D02*
D03*
X137000D02*
D03*
X238600Y523400D02*
D03*
X264000D02*
D03*
X86200Y548800D02*
D03*
X187800Y523400D02*
D03*
X264000Y548800D02*
D03*
X213200Y523400D02*
D03*
X314800Y548800D02*
D03*
D60*
X309000Y45950D02*
D03*
X264500D02*
D03*
D61*
X380000Y20000D02*
D03*
X20000D02*
D03*
D62*
X164100Y443800D02*
D03*
X175100D02*
D03*
X186100D02*
D03*
X164100Y432800D02*
D03*
X175100D02*
D03*
X186100D02*
D03*
X164100Y421800D02*
D03*
X175100D02*
D03*
X186100D02*
D03*
X164100Y410800D02*
D03*
X175100D02*
D03*
X186100D02*
D03*
X164100Y399800D02*
D03*
X175100D02*
D03*
X186100D02*
D03*
X376598Y332899D02*
D03*
Y140899D02*
D03*
X312598Y124899D02*
D03*
X296598Y300899D02*
D03*
X248598Y108899D02*
D03*
Y92899D02*
D03*
Y76899D02*
D03*
X232598Y236899D02*
D03*
Y124899D02*
D03*
X184598Y364899D02*
D03*
X168598Y124899D02*
D03*
Y108899D02*
D03*
X152598D02*
D03*
X136598Y332899D02*
D03*
Y108899D02*
D03*
X72598D02*
D03*
X40598Y124899D02*
D03*
X24598Y332899D02*
D03*
Y124899D02*
D03*
Y108899D02*
D03*
Y92899D02*
D03*
Y76899D02*
D03*
Y60899D02*
D03*
D63*
X20000Y537000D02*
D03*
Y484000D02*
D03*
Y435000D02*
D03*
Y384000D02*
D03*
X21000Y307000D02*
D03*
Y282000D02*
D03*
X20000Y232000D02*
D03*
X19000Y180000D02*
D03*
X382000Y180000D02*
D03*
X381000Y232000D02*
D03*
X380000Y282000D02*
D03*
Y307000D02*
D03*
X381000Y384000D02*
D03*
Y435000D02*
D03*
Y484000D02*
D03*
Y537000D02*
D03*
X56500Y6500D02*
D03*
X106500D02*
D03*
X156500D02*
D03*
X256500D02*
D03*
X306500D02*
D03*
X356500D02*
D03*
X357000Y565000D02*
D03*
X307000D02*
D03*
X257000D02*
D03*
X207000D02*
D03*
X157000D02*
D03*
X107000D02*
D03*
X57000D02*
D03*
X7000D02*
D03*
Y515000D02*
D03*
Y465000D02*
D03*
Y415000D02*
D03*
Y365000D02*
D03*
Y315000D02*
D03*
Y265000D02*
D03*
Y215000D02*
D03*
Y165000D02*
D03*
Y115000D02*
D03*
Y65000D02*
D03*
X392500Y64000D02*
D03*
Y114000D02*
D03*
Y164000D02*
D03*
Y214000D02*
D03*
Y264000D02*
D03*
Y314000D02*
D03*
Y364000D02*
D03*
Y414000D02*
D03*
Y464000D02*
D03*
Y514000D02*
D03*
Y564000D02*
D03*
X249000Y335999D02*
D03*
X240000Y336000D02*
D03*
X260000D02*
D03*
X233251Y319751D02*
D03*
X232500Y344000D02*
D03*
X230500Y335500D02*
D03*
X335000Y133000D02*
D03*
X331000Y142000D02*
D03*
X208000Y205000D02*
D03*
Y218000D02*
D03*
Y230000D02*
D03*
X190000Y259000D02*
D03*
X60000Y59000D02*
D03*
X44000D02*
D03*
X197000Y124000D02*
D03*
X196000Y80000D02*
D03*
X181000Y79000D02*
D03*
X204000Y80000D02*
D03*
X173000Y79000D02*
D03*
X161000Y65000D02*
D03*
X163000Y72000D02*
D03*
X156000D02*
D03*
X348000Y49000D02*
D03*
X355000Y44000D02*
D03*
X333000Y35000D02*
D03*
X323000Y39000D02*
D03*
Y48000D02*
D03*
X310000Y93000D02*
D03*
X319000D02*
D03*
X310000Y81000D02*
D03*
X319000D02*
D03*
Y69000D02*
D03*
X310000D02*
D03*
X304000Y144000D02*
D03*
X337500Y205000D02*
D03*
X52000Y59000D02*
D03*
X147000Y125000D02*
D03*
X140000D02*
D03*
X80000Y142000D02*
D03*
X90000D02*
D03*
X215000Y15000D02*
D03*
X190000D02*
D03*
X246750Y43750D02*
D03*
X254250Y35850D02*
D03*
X323000Y206000D02*
D03*
X319000Y182500D02*
D03*
X302000Y191000D02*
D03*
X309000Y182500D02*
D03*
X267500Y190000D02*
D03*
X280000Y182500D02*
D03*
X266998Y181000D02*
D03*
X325000Y152500D02*
D03*
X355000Y152500D02*
D03*
X140000Y292500D02*
D03*
X53000Y27000D02*
D03*
X288251Y316500D02*
D03*
X268624Y303876D02*
D03*
X278752Y292500D02*
D03*
X264999Y232500D02*
D03*
X255000Y237500D02*
D03*
X175000Y277500D02*
D03*
X150000Y280000D02*
D03*
X250000Y290000D02*
D03*
X257500Y275000D02*
D03*
X220000Y290000D02*
D03*
X205000Y250000D02*
D03*
X265000Y242502D02*
D03*
X225000Y247500D02*
D03*
X136000Y322000D02*
D03*
Y308000D02*
D03*
X213000Y133000D02*
D03*
X173000Y329999D02*
D03*
X142000Y380000D02*
D03*
X290999Y285999D02*
D03*
X273000Y326000D02*
D03*
X296000Y337000D02*
D03*
X307500Y267500D02*
D03*
X292499Y205000D02*
D03*
X307500Y347500D02*
D03*
X262500Y382500D02*
D03*
X265000Y447500D02*
D03*
Y437500D02*
D03*
X270000Y405550D02*
D03*
X267735Y392265D02*
D03*
X297500Y417500D02*
D03*
X262500Y399050D02*
D03*
X230000Y385000D02*
D03*
X240000Y382500D02*
D03*
X262500Y327500D02*
D03*
X130000Y315000D02*
D03*
X254251Y203570D02*
D03*
X130000Y300000D02*
D03*
X167500Y347500D02*
D03*
X157500D02*
D03*
X142000Y347500D02*
D03*
X186450Y386050D02*
D03*
X267499Y474999D02*
D03*
X287500Y475000D02*
D03*
X276900Y495600D02*
D03*
X307499Y215000D02*
D03*
X310000Y205000D02*
D03*
X242100Y422100D02*
D03*
X237099Y429599D02*
D03*
X242199Y412099D02*
D03*
X232099Y437099D02*
D03*
X219600Y462100D02*
D03*
X222100Y452100D02*
D03*
X227100Y444599D02*
D03*
X204600Y464600D02*
D03*
X143000Y199000D02*
D03*
X127000Y200000D02*
D03*
X200000Y292500D02*
D03*
X202500Y322500D02*
D03*
X246750Y35850D02*
D03*
X175751Y232251D02*
D03*
X164751Y205750D02*
D03*
X175751Y217251D02*
D03*
D64*
X283500Y80802D02*
D03*
Y110802D02*
D03*
D65*
X52500Y96000D02*
D03*
Y69000D02*
D03*
X178473Y43150D02*
D03*
Y70150D02*
D03*
X199475Y43150D02*
D03*
Y70150D02*
D03*
D66*
X245998Y273001D02*
D03*
Y256999D02*
D03*
X224002Y273001D02*
D03*
Y256999D02*
D03*
D67*
X201000Y437500D02*
D03*
X205300Y377500D02*
D03*
X279000D02*
D03*
Y437500D02*
D03*
D68*
X218024Y43900D02*
D03*
X234024D02*
D03*
D69*
X137473Y71900D02*
D03*
Y48900D02*
D03*
Y25900D02*
D03*
D70*
X79473Y48900D02*
D03*
D71*
X100950Y274500D02*
D03*
X113650D02*
D03*
X126350D02*
D03*
X139050D02*
D03*
X100950Y225500D02*
D03*
X113650D02*
D03*
X126350D02*
D03*
X139050D02*
D03*
D72*
X259751Y305751D02*
X260751Y304751D01*
X267500Y194551D02*
X269500D01*
X264500D02*
X267500D01*
X164751Y305751D02*
X245751D01*
X267500Y190000D02*
Y194551D01*
X270000D02*
X290823D01*
X270000D02*
Y207998D01*
X164751Y267500D02*
Y305751D01*
X268624Y303876D02*
X270000Y302500D01*
X267248Y305252D02*
X268624Y303876D01*
X279498Y302500D02*
X280000Y303002D01*
X270000Y302500D02*
X279498D01*
X260751Y305252D02*
X267248D01*
X165448Y194551D02*
X264500D01*
X270000Y207998D02*
X270000Y207998D01*
X164751Y205750D02*
Y267500D01*
X245751Y305751D02*
X259751D01*
X143000Y175998D02*
X160998D01*
X164751Y179752D01*
Y195248D01*
X165448Y194551D01*
X164751Y195248D02*
Y205750D01*
D73*
X245000Y15400D02*
D03*
X328500D02*
D03*
M02*
